<svg xmlns="http://www.w3.org/2000/svg" width="120mm" height="120mm" viewBox="0 0 340.157 340.158">
  <g id="Schilder">
    <g id="B-01-R">
      <path fill="#A0552B" stroke="none" d="M0,2.835V337.323a2.835,2.835,0,0,0,2.835,2.835H337.323a2.834,2.834,0,0,0,2.834-2.835V2.835A2.834,2.834,0,0,0,337.323,0H2.835A2.835,2.835,0,0,0,0,2.835ZM161.573,49.646A30.669,30.669,0,1,1,130.9,80.315,30.669,30.669,0,0,1,161.573,49.646Zm88.062,239.863L233.5,254.266a64.957,64.957,0,0,1-116.62-57.195l9.22-19.748,23.46,51.252,17.231-7.888-30.167-65.9L148.7,128.931h30.664L194.69,162.42a64.955,64.955,0,0,1,40.113,35.1l37.384,81.669Z"/>
    </g>
  </g>
</svg>
