<svg xmlns="http://www.w3.org/2000/svg" width="120mm" height="120mm" viewBox="0 0 340.157 340.157">
  <g id="Schilder">
      <g id="B-02-E">
        <path fill="#A09f9d" stroke="none" d="M337.323,0H2.835A2.835,2.835,0,0,0,0,2.835V337.323a2.834,2.834,0,0,0,2.835,2.834H337.323a2.834,2.834,0,0,0,2.834-2.834V2.835A2.834,2.834,0,0,0,337.323,0ZM171.472,71c22.336.737,36.07,26.261,23.876,45.136-5.241,8.113-14.689,14.332-22.98,19-5.862,3.3-8.962,5.071-9.362,12.093-.75,13.16-3.564,29.578,8.869,38.329,9.347,6.58,24.59,4.69,35.479,5.214,6.9.332,6.723,9.711.595,11.158-2.006.474-4.437-.03-6.454-.127-6.072-.291-12.177-.418-18.238-.876-11.538-.871-21.913-6.823-27.762-16.963-4.676-8.105-4.5-16.282-4.014-25.226.263-4.9.22-9.843.653-14.726.927-10.464,7.429-14.251,15.7-18.908,8.636-4.861,19.364-11.725,20.754-22.381,1.455-11.155-8.265-21.148-19.4-20.346-10.153.731-18.2,10.176-16.941,20.356.669,5.4,8.4,11.4,5.519,16.6-2.946,5.317-8.332,2.255-11.018-1.2C131.645,98.738,147.589,70.213,171.472,71Zm37.55,177.528a59.8,59.8,0,0,1-45.548,20.643h0a59.817,59.817,0,0,1-33.244-109.334,5.5,5.5,0,1,1,6.171,9.106,48.431,48.431,0,0,0-20.537,31.1l-.027.124a48.889,48.889,0,0,0,38.732,57.159,48.975,48.975,0,0,0,46.148-15.992,5.5,5.5,0,0,1,8.309,7.2Zm39.216,14.762a5.5,5.5,0,0,1-7.721-.943l-33.378-42.662a5.5,5.5,0,1,1,8.663-6.778L249.18,255.57A5.5,5.5,0,0,1,248.238,263.291Z"/>
      </g>
    </g>
</svg>
