<svg xmlns="http://www.w3.org/2000/svg" width="120mm" height="120mm" viewBox="0 0 340.157 340.157">
  <g id="Schilder">
      <g id="B-03-M">
        <path fill="#D4AF37" stroke="none" d="M339.327.83a2.835,2.835,0,0,0-2-.83H2.835A2.834,2.834,0,0,0,0,2.835V337.323a2.834,2.834,0,0,0,2.835,2.834H94.846a28.958,28.958,0,0,0,4.677-.38,27.168,27.168,0,0,0,4.413-1.107,41.611,41.611,0,1,0-50.244-58.823l0,.006a2.151,2.151,0,0,1-2.4,1.215A2.115,2.115,0,0,1,49.612,279l0-32.025a4.252,4.252,0,0,1,4.252-4.252H98.335a48.717,48.717,0,0,1,48.718,48.718v44.466a4.251,4.251,0,0,0,4.252,4.251H337.323a2.834,2.834,0,0,0,2.834-2.834V2.835A2.834,2.834,0,0,0,339.327.83ZM91.127,223.744A24.81,24.81,0,1,1,98.393,206.2,24.809,24.809,0,0,1,91.127,223.744Z"/>
      </g>
    </g>
</svg>
