<svg xmlns="http://www.w3.org/2000/svg" width="120mm" height="120.015mm" viewBox="0 0 340.157 340.2">
  <g id="Schilder">
      <g id="B-06">
        <path fill="#000000" stroke="none" d="M0,2.835v334.53A2.835,2.835,0,0,0,2.835,340.2H337.323a2.834,2.834,0,0,0,2.834-2.835V2.835A2.834,2.834,0,0,0,337.323,0H2.835A2.835,2.835,0,0,0,0,2.835ZM162.529,61.777A22.743,22.743,0,1,1,139.79,84.524v0h0A22.742,22.742,0,0,1,162.529,61.777Zm59.33,191.253a72.758,72.758,0,1,1-96.32-107.412,7.8,7.8,0,0,1,8.81,12.872h0a57.179,57.179,0,0,0-23.891,36.6l-.008.032a57.166,57.166,0,0,0,99.579,47.757,7.794,7.794,0,1,1,11.83,10.151Zm36.784,9.1a9.651,9.651,0,0,1-17.814-.784l0-.007q-3.64-10.008-7.282-20.017-.84-2.306-1.678-4.611L229.9,231.3l-.9-2.475-.92-2.529-.909-2.5-.909-2.5a14.06,14.06,0,0,0-13.21-9.252h-36.47a28.11,28.11,0,0,1-28.109-28.113V132.055A14.05,14.05,0,0,1,162.519,118h.011a14.05,14.05,0,0,1,14.049,14.052V181.2a9.371,9.371,0,0,0,9.37,9.371h29.989a28.106,28.106,0,0,1,26.411,18.492l16.619,45.666v.009a9.668,9.668,0,0,1-.325,7.386Z"/>
      </g>
    </g>
</svg>
