<svg xmlns="http://www.w3.org/2000/svg" width="120mm" height="120mm" viewBox="0 0 340.157 340.157">
  <g id="Schilder">
      <g id="C-01-M">
        <path fill="#D4AF37" stroke="none" d="M0,2.835V337.323a2.834,2.834,0,0,0,2.835,2.834H337.323a2.834,2.834,0,0,0,2.834-2.834V2.835A2.834,2.834,0,0,0,337.323,0H2.835A2.835,2.835,0,0,0,0,2.835ZM238.579,56.693a24.552,24.552,0,1,1-24.552,24.552A24.552,24.552,0,0,1,238.579,56.693Zm-141.23,0A24.552,24.552,0,1,1,72.8,81.245,24.552,24.552,0,0,1,97.349,56.693Zm0,226.772L56.693,179.459l20.794-39.723L65.211,115.174H85.075l.32.567.326.552.334.536.34.521.347.505.354.489.36.471.365.455.372.437.377.42.382.4.387.384.392.366.4.348.4.328.405.31.409.291.412.272.416.252.42.232.422.213.424.193.427.173.429.154.431.133.432.112.434.093.435.072.436.052.436.031.436.011.437-.009.436-.03.436-.05.435-.071.433-.091.433-.111.431-.132.429-.152.427-.171.425-.192.422-.211.419-.232.417-.25.413-.271.409-.289.405-.308.4-.328.4-.346.393-.364.388-.383.382-.4.377-.419.372-.436.366-.453.36-.471.354-.487.348-.5.341-.52.334-.535.327-.551.321-.566.022-.042h19.864l-12.276,24.562,20.794,39.723Zm78.4,0H164.409V56.693h11.339Zm94.969-104.006L258.441,283.465H218.717L206.441,179.459V115.174h29.241l-2.038,58.262,4.414,5.378a.674.674,0,0,0,1.043,0l4.414-5.378-2.038-58.262h29.24Z"/>
      </g>
    </g>
</svg>
