<svg xmlns="http://www.w3.org/2000/svg" width="120mm" height="120mm" viewBox="0 0 340.157 340.157">
  <g id="Schilder" >
    <g id="C-02-E">
      <path fill="#A09f9d" stroke="none" d="M0,2.835V337.323a2.834,2.834,0,0,0,2.835,2.834H337.323a2.834,2.834,0,0,0,2.834-2.834V2.835A2.834,2.834,0,0,0,337.323,0H2.835A2.835,2.835,0,0,0,0,2.835ZM44.6,211.322a5.2,5.2,0,0,1-4.961-6.592l.037-.125C53.513,155.34,54.683,155.979,60.58,119.6a18.021,18.021,0,0,1,7.937-12.332c.98-.8,18.649-11.217,26.794-16.929a12.839,12.839,0,0,0,4.58-15.017c-4.067-11.961-20.945-11.875-25.5-.4a13.072,13.072,0,0,0,1.871,13.137c5.683,5.165-1.309,13.06-6.844,7.883a23.59,23.59,0,0,1-4.63-24.823c8.121-20.408,37.763-20.131,44.907.965a23.326,23.326,0,0,1-8.438,26.695C92.546,104.887,74.5,115.689,74.5,115.689a7.649,7.649,0,0,0-3.769,5.847c-6.053,37.052-6.939,35.414-21.167,86.049A5.189,5.189,0,0,1,44.6,211.322Zm37.1,70.752h0a5.186,5.186,0,0,1-9.283-2.2l-9.6-59.592a5.164,5.164,0,0,1,10.2-1.641l9.594,59.591A5.129,5.129,0,0,1,81.7,282.074Zm30.658-61.707h0l-11.426,59.59a5.164,5.164,0,0,1-10.144-1.943l11.426-59.591a5.131,5.131,0,0,1,2.173-3.3A5.189,5.189,0,0,1,112.36,220.367Zm20.924-12.216a5.212,5.212,0,0,1-9.672-1.74c-14.16-50.426-14.967-48.685-21.1-85.706a7.279,7.279,0,0,0-2.83-4.833c-1.459-.991-2.925-2.131-3.235-3.985a5.2,5.2,0,0,1,5.062-6.238c1.833-.05,3.354,1.136,4.723,2.238a18.07,18.07,0,0,1,6.462,11.084c6.119,36.885,6.79,34.491,21.033,85.254A5.128,5.128,0,0,1,133.284,208.151Zm41.951,70.908a5.156,5.156,0,1,1-10.312,0V61.1a5.156,5.156,0,1,1,10.312,0Zm68.483,0a5.157,5.157,0,0,1-10.314,0v-59.5a5.157,5.157,0,0,1,10.314,0Zm6.091-169.991c-3.963,2.416-10.947,5.548-14.667,7.34-6.373,3.071-9.337,6.921-9.262,12.672v78.793c-.16,6.737-10.093,6.888-10.314.007v-78.8A23.523,23.523,0,0,1,232,106.584c9.982-4.04,18.077-9.367,26.962-16.239a14.377,14.377,0,0,0,5.5-9.765c.627-15.314-20.055-19.952-26-5.764a12.8,12.8,0,0,0,1.473,12.406,13.983,13.983,0,0,0,1.152,1.424,5.158,5.158,0,0,1-7.594,6.982c-14.26-15.369-2.546-40.39,18.335-39.672,22.091,1.148,30.8,27.575,13.611,42.416C259.148,103.806,256.2,105.258,249.809,109.07Zm16.567,169.991a5.158,5.158,0,0,1-10.315,0v-59.5a5.158,5.158,0,0,1,10.315,0Zm17.839-71.186c-.187,6.779-10.1,6.853-10.316,0v-78.8a13.27,13.27,0,0,0-6.57-11.478,13.516,13.516,0,0,0-2.84-1.272,5.158,5.158,0,0,1,1.552-10.077c2.341.15,4.536,1.378,6.565,2.487a23.81,23.81,0,0,1,11.609,20.34Z"/>
    </g>
  </g>
</svg>
