<svg xmlns="http://www.w3.org/2000/svg" width="120mm" height="120mm" viewBox="0 0 340.157 340.157">
  <g id="Schilder">
      <g id="C-05">
        <path fill="#000000" stroke="none" d="M0,2.835V337.323a2.834,2.834,0,0,0,2.835,2.834H337.323a2.834,2.834,0,0,0,2.834-2.834V2.835A2.834,2.834,0,0,0,337.323,0H2.835A2.835,2.835,0,0,0,0,2.835ZM32.11,192.94,60,116.318l11.177,4.068L43.287,197.008Zm50.959,90.525H71.175V201.926H83.069ZM67.5,81.889a25.2,25.2,0,1,1,25.2,25.2A25.2,25.2,0,0,1,67.5,81.889Zm46.717,201.576H102.322V201.926h11.894ZM142.1,197.008l-27.888-76.622,11.178-4.068,27.887,76.622Zm33.922,86.457H164.132V56.693h11.894Zm34.661-85.608H198.794V116.318h11.893Zm23.789,85.608H222.583v-81.54h11.893Zm31.147,0H253.729v-81.54h11.894ZM244.1,107.084a25.2,25.2,0,1,1,25.195-25.2A25.195,25.195,0,0,1,244.1,107.084Zm45.308,90.773H277.518V116.318h11.893Z"/>
      </g>
    </g>
</svg>
