<svg xmlns="http://www.w3.org/2000/svg" width="120mm" height="120mm" viewBox="0 0 340.157 340.157">
  <g id="Schilder">
      <g id="C-06">
        <path fill="#000000" stroke="none" d="M0,2.835V337.323a2.834,2.834,0,0,0,2.835,2.834H337.323a2.834,2.834,0,0,0,2.834-2.834V2.835A2.834,2.834,0,0,0,337.323,0H2.835A2.835,2.835,0,0,0,0,2.835ZM236.217,55.014a20.893,20.893,0,1,1-20.892,20.892A20.892,20.892,0,0,1,236.217,55.014Zm-141.355,0A20.893,20.893,0,1,1,73.969,75.906,20.892,20.892,0,0,1,94.862,55.014ZM143.02,184.72h0a6.455,6.455,0,0,1-8.151-4.109l-14.623-44.368a2.465,2.465,0,0,0-4.683,1.543l22.232,67.45a3.049,3.049,0,0,1-2.894,4H114.809V273.8a7.979,7.979,0,0,1-15.958.011V209.237H90.873V273.8a7.98,7.98,0,0,1-15.959.011V209.237H54.823a3.048,3.048,0,0,1-2.894-4l22.232-67.45a2.466,2.466,0,0,0-4.684-1.543L54.855,180.611a6.455,6.455,0,0,1-12.261-4.041l18.933-57.443a20.888,20.888,0,0,1,19.839-14.35h26.991a20.888,20.888,0,0,1,19.839,14.35l18.933,57.443A6.454,6.454,0,0,1,143.02,184.72Zm32.2,89.506a7.559,7.559,0,0,1-7.559,7.559h0a7.559,7.559,0,0,1-7.559-7.559V62.573a7.559,7.559,0,0,1,7.559-7.559h0a7.559,7.559,0,0,1,7.559,7.559Zm102.769-93.857h0a6.455,6.455,0,1,1-12.91.008V133.653a2.465,2.465,0,0,0-4.93,0V271.806a9.974,9.974,0,1,1-19.947.011V199.263a3.989,3.989,0,0,0-7.978,0v72.547a9.974,9.974,0,0,1-19.947.009V133.653a2.466,2.466,0,0,0-4.931,0v46.716a6.455,6.455,0,0,1-12.909,0v-54.7a20.889,20.889,0,0,1,20.888-20.89h41.776a20.889,20.889,0,0,1,20.888,20.89Z"/>
      </g>
    </g>
</svg>
