<svg xmlns="http://www.w3.org/2000/svg" width="120mm" height="120mm" viewBox="0 0 340.157 340.157">
  <g id="Schilder">
      <g id="D-06">
        <path fill="#000000" stroke="none" d="M337.323,0H2.835A2.835,2.835,0,0,0,0,2.835V337.323a2.834,2.834,0,0,0,2.835,2.834H337.323a2.834,2.834,0,0,0,2.834-2.834V2.835A2.834,2.834,0,0,0,337.323,0ZM156.739,295.2a12.065,12.065,0,1,1-24.13.01V128.06a2.984,2.984,0,0,0-3-2.982,2.891,2.891,0,0,0-2.081.893,3.214,3.214,0,0,0-.888,2.217v56.389a7.809,7.809,0,0,1-15.617,0V118.4a24.65,24.65,0,0,1,1.919-9.536,25.8,25.8,0,0,1,13.812-13.815,24.672,24.672,0,0,1,9.538-1.921h16.734a3.708,3.708,0,0,1,3.708,3.708ZM135.14,58.78a25.891,25.891,0,1,1,25.882,25.891A25.9,25.9,0,0,1,135.14,58.78ZM223.764,189.8h0a7.81,7.81,0,0,1-9.863-4.972l-17.694-53.674a2.984,2.984,0,0,0-3.568-1.954,2.826,2.826,0,0,0-1.059.523,3.1,3.1,0,0,0-1.167,2.123,2.831,2.831,0,0,0,.127,1.174l26.9,81.6a3.511,3.511,0,0,1,.127,1.669,3.845,3.845,0,0,1-2,2.768,3.5,3.5,0,0,1-1.625.4H189.621v75.746a11.763,11.763,0,0,1-.912,4.534,12.231,12.231,0,0,1-2.627,3.919,12.363,12.363,0,0,1-3.9,2.637,11.981,11.981,0,0,1-4.538.956,11.536,11.536,0,0,1-4.553-.873,12.392,12.392,0,0,1-6.676-6.63,11.673,11.673,0,0,1-.922-4.553V96.833a3.708,3.708,0,0,1,3.707-3.708l12.623-.036a25.276,25.276,0,0,1,24.006,17.36l22.908,69.494A7.808,7.808,0,0,1,223.764,189.8Z"/>
      </g>
    </g>
</svg>
