<svg xmlns="http://www.w3.org/2000/svg" width="120mm" height="120mm" viewBox="0 0 340.158 340.157">
  <g id="Schilder">
      <g id="D-07">
        <path fill="#000000" stroke="none" d="M337.323,0H2.835A2.834,2.834,0,0,0,0,2.834V337.323a2.834,2.834,0,0,0,2.835,2.834H337.323a2.834,2.834,0,0,0,2.835-2.834V2.834A2.834,2.834,0,0,0,337.323,0ZM204.791,108.085l-6.164,6.164a1.414,1.414,0,0,1-1.737.2,51.763,51.763,0,0,0-53.668.035,1.413,1.413,0,0,1-1.738-.2l-6.162-6.162a1.418,1.418,0,0,1,.21-2.184,63.059,63.059,0,0,1,69.047-.038A1.417,1.417,0,0,1,204.791,108.085ZM94.9,127.751l-6.013-6.014a1.418,1.418,0,0,1,0-2l15.991-15.991a1.417,1.417,0,0,0,0-2.005L90.023,86.886a1.418,1.418,0,0,0-2.42,1V107.7a1.417,1.417,0,0,1-1.417,1.418h-8.5a1.418,1.418,0,0,1-1.418-1.418V66.528a1.417,1.417,0,0,1,1.418-1.417h41.176a1.416,1.416,0,0,1,1.417,1.417v8.5a1.416,1.416,0,0,1-1.417,1.417H99.043a1.418,1.418,0,0,0-1,2.42L112.892,93.72a1.419,1.419,0,0,0,2.005,0l15.991-15.991a1.416,1.416,0,0,1,2,0l6.013,6.012a1.418,1.418,0,0,1,0,2l-15.992,15.991a1.419,1.419,0,0,0,0,2.005l5.726,5.726c.009.009.021.012.03.021l7.835,7.834a1.419,1.419,0,0,1-.1,2.087,52.388,52.388,0,0,0-5.836,5.837,1.418,1.418,0,0,1-2.087.1l-13.227-13.227v0l-.36-.36a1.417,1.417,0,0,0-2.005,0L96.9,127.751A1.417,1.417,0,0,1,94.9,127.751Zm11.9,31.165a62.866,62.866,0,0,1,10.3-34.543,1.416,1.416,0,0,1,2.183-.21l6.163,6.162a1.415,1.415,0,0,1,.2,1.739,51.89,51.89,0,0,0,32,77.28,1.415,1.415,0,0,1,1.087,1.37v8.711a1.416,1.416,0,0,1-1.693,1.393A63.368,63.368,0,0,1,106.8,158.916Zm94.4,97.649a1.418,1.418,0,0,1-1.418,1.418H177.172a1.418,1.418,0,0,0-1.418,1.417v22.561a1.416,1.416,0,0,1-1.417,1.417h-8.5a1.416,1.416,0,0,1-1.417-1.417V259.4A1.418,1.418,0,0,0,163,257.983H140.383a1.417,1.417,0,0,1-1.417-1.418v-8.5a1.416,1.416,0,0,1,1.417-1.417H163a1.418,1.418,0,0,0,1.418-1.418V223.21c0-.018-.009-.033-.01-.051V212.1a1.418,1.418,0,0,1,1.546-1.407q2.046.166,4.133.17c1.387,0,2.76-.059,4.119-.168a1.417,1.417,0,0,1,1.545,1.407v20.387h0v12.738a1.418,1.418,0,0,0,1.418,1.418h22.614a1.417,1.417,0,0,1,1.418,1.417Zm-19.785-37.137v-8.71a1.416,1.416,0,0,1,1.087-1.371,51.888,51.888,0,0,0,31.981-77.34,1.413,1.413,0,0,1,.2-1.74l6.159-6.16a1.417,1.417,0,0,1,2.183.209,63.2,63.2,0,0,1-39.918,96.5A1.414,1.414,0,0,1,181.419,219.428ZM263.89,107.7a1.418,1.418,0,0,1-1.418,1.418h-8.5a1.417,1.417,0,0,1-1.417-1.418V87.888a1.418,1.418,0,0,0-2.42-1L222.788,114.23l-.041-.042-11.105,11.106a1.418,1.418,0,0,1-2.086-.1,52.55,52.55,0,0,0-5.843-5.829,1.419,1.419,0,0,1-.1-2.088l7.627-7.626a1.357,1.357,0,0,0,.282-.193l30.593-30.592a1.418,1.418,0,0,0-1-2.42H221.3a1.416,1.416,0,0,1-1.417-1.417v-8.5a1.416,1.416,0,0,1,1.417-1.417h41.175a1.417,1.417,0,0,1,1.418,1.417Z"/>
      </g>
    </g>
</svg>
