<svg xmlns="http://www.w3.org/2000/svg" width="120mm" height="120mm" viewBox="0 0 340.157 340.157">
  <g id="Schilder">
      <g id="H-01-M">
        <path fill="#D4AF37" stroke="none" d="M337.323,0H2.835A2.835,2.835,0,0,0,0,2.835V337.323a2.834,2.834,0,0,0,2.835,2.834H337.323a2.834,2.834,0,0,0,2.834-2.834V2.835A2.834,2.834,0,0,0,337.323,0ZM275.986,207.289a15.722,15.722,0,0,1-15.422,11.961H79.581a15.909,15.909,0,0,1-7.666-29.85,5.846,5.846,0,0,1,.992-.434l88.68-29.57.165-.062a2.323,2.323,0,0,0,1.636-2.161v-.809a7.427,7.427,0,0,0-4.341-6.7,24.726,24.726,0,0,1,8.428-47.113q.925-.07,1.845-.069A24.9,24.9,0,0,1,190.9,115a6,6,0,1,1-10.433,5.929,12.655,12.655,0,0,0-12.079-6.411,12.726,12.726,0,0,0-4.312,24.249,19.461,19.461,0,0,1,11.318,17.6v.728a14.287,14.287,0,0,1-9.721,13.59L77.247,200.168l-.291.244a3.928,3.928,0,0,0,2.625,6.838H260.564a3.944,3.944,0,0,0,2.679-6.822l-.308-.267-71.722-22.928a6,6,0,0,1,3.653-11.43l72.306,23.115a6,6,0,0,1,1.065.458A15.721,15.721,0,0,1,275.986,207.289Z"/>
      </g>
    </g>
</svg>
