<svg xmlns="http://www.w3.org/2000/svg" width="120mm" height="120mm" viewBox="0 0 340.157 340.157">
  <g id="Schilder">
      <g id="H-02-R">
        <path fill="#A0552B" stroke="none" d="M337.323,0H2.835A2.835,2.835,0,0,0,0,2.835V337.323a2.834,2.834,0,0,0,2.835,2.834H337.323a2.834,2.834,0,0,0,2.834-2.834V2.835A2.834,2.834,0,0,0,337.323,0ZM165.147,248.839a15.586,15.586,0,1,1,15.586-15.586A15.6,15.6,0,0,1,165.147,248.839Zm29.042-48.871a44.183,44.183,0,0,0-58.084,0l-10.331-10.331a58.765,58.765,0,0,1,78.747,0Zm29.147-29.146a85.347,85.347,0,0,0-116.378,0L96.64,160.5a99.932,99.932,0,0,1,137.015,0ZM252.46,141.7a126.384,126.384,0,0,0-174.626,0L67.518,131.381a141.1,141.1,0,0,1,195.258,0Z"/>
      </g>
    </g>
</svg>
