<svg xmlns="http://www.w3.org/2000/svg" width="120mm" height="120mm" viewBox="0 0 340.157 340.157">
  <g id="Schilder">
      <g id="H-03-E">
        <path fill="#A09f9d" stroke="none" d="M337.323,0H2.835A2.834,2.834,0,0,0,0,2.834V337.323a2.834,2.834,0,0,0,2.835,2.834H337.323a2.834,2.834,0,0,0,2.834-2.834V2.834A2.834,2.834,0,0,0,337.323,0ZM172.994,75.074a23.244,23.244,0,0,1,7.923-11.466.518.518,0,0,1,.816.535,23.541,23.541,0,0,0,3.49,18.341c2.432,3.631,4.666,6.784,5.521,11.182a23.119,23.119,0,0,1-8.564,22.806.518.518,0,0,1-.818-.529,23.513,23.513,0,0,0-2.86-17.765c-2.286-3.744-4.806-6.706-5.912-11.08A22.3,22.3,0,0,1,172.994,75.074Zm-26.629,0a23.244,23.244,0,0,1,7.923-11.466.518.518,0,0,1,.816.535,23.536,23.536,0,0,0,3.49,18.341c2.431,3.631,4.665,6.784,5.521,11.182a23.117,23.117,0,0,1-8.565,22.806.519.519,0,0,1-.818-.529,23.509,23.509,0,0,0-2.859-17.765c-2.286-3.744-4.807-6.706-5.913-11.08A22.3,22.3,0,0,1,146.365,75.074Zm-34.913,53.972H225.686a1.417,1.417,0,0,1,1.4,1.623q-4.74,32.184-9.481,64.37c-1.222,8.3-1.872,16.7-6.083,24.177l-.066.116a18.861,18.861,0,0,1-16.448,9.413H142.128a18.864,18.864,0,0,1-16.448-9.412l-.066-.117c-4.212-7.477-4.861-15.88-6.083-24.177q-4.74-32.185-9.481-64.37A1.416,1.416,0,0,1,111.452,129.046ZM234.414,237.855a8.5,8.5,0,0,1-8.5,8.5H111.229a8.5,8.5,0,0,1-8.5-8.5v-1.626a1.414,1.414,0,0,1,1.414-1.415H233a1.418,1.418,0,0,1,1.417,1.417Zm-7.741-34.746h-3.637a1.412,1.412,0,0,1-1.4-1.617l.876-5.953a1.41,1.41,0,0,1,1.4-1.206h2.91c10.916,0,20.279-8.334,20.952-19.229a20.535,20.535,0,0,0-17.636-21.6,1.414,1.414,0,0,1-1.2-1.609l.866-5.887a1.435,1.435,0,0,1,1.634-1.2,29.34,29.34,0,0,1,25.148,29.538C256.3,190.417,242.751,203.109,226.673,203.109Z"/>
      </g>
    </g>
</svg>
