<svg xmlns="http://www.w3.org/2000/svg" width="120mm" height="120mm" viewBox="0 0 340.157 340.157">
  <g id="Schilder">
      <g id="H-04-M">
        <path fill="#D4AF37" stroke="none" d="M0,2.835V337.323a2.834,2.834,0,0,0,2.835,2.834H337.323a2.834,2.834,0,0,0,2.834-2.834V2.835A2.834,2.834,0,0,0,337.323,0H2.835A2.835,2.835,0,0,0,0,2.835Zm129.893,240.37H96.839a3.542,3.542,0,0,1-3.527-3.865l3.779-41.256a3.541,3.541,0,0,1,3.527-3.219h7.448V114.113h10.6v80.752h7.447a3.541,3.541,0,0,1,3.527,3.219l3.779,41.256A3.542,3.542,0,0,1,129.893,243.205Zm52.561,1.571a1.506,1.506,0,0,1-2.634-.826,1.407,1.407,0,0,1,.38-1.083c2.649-2.866,4.168-7.884,4.168-16.393,0-16.182-4.627-32.093-9.52-38.989a.421.421,0,0,0-.757.331c.587,2.677,1.183,6.39,1.77,11.552a296.008,296.008,0,0,1,1.787,30.478c0,11.223-1.092,16.26-3.35,18.365a1.5,1.5,0,0,1-2.5-1.134h0a1.581,1.581,0,0,1,.454-1.153c1.337-1.273,2.4-5.022,2.4-16.077,0-16.5-2.092-37.644-4.168-44.208a.421.421,0,0,0-.8,0c-2.075,6.564-4.168,27.706-4.168,44.208,0,11.056,1.06,14.8,2.4,16.077a1.582,1.582,0,0,1,.454,1.154,1.5,1.5,0,0,1-2.5,1.134c-2.258-2.105-3.35-7.142-3.35-18.365a296.008,296.008,0,0,1,1.787-30.478c.587-5.162,1.183-8.876,1.77-11.552a.421.421,0,0,0-.757-.331c-4.892,6.9-9.52,22.807-9.52,38.989,0,8.508,1.52,13.527,4.168,16.393a1.435,1.435,0,0,1,.3.5h0a1.624,1.624,0,0,1-2.857,1.062c-2.765-3.346-4.615-8.88-4.615-17.953a101.258,101.258,0,0,1,4.7-29.271c1.632-5,4.052-10.639,7.29-13.8V114.113h10.6v69.293c3.239,3.158,5.659,8.795,7.291,13.8a101.291,101.291,0,0,1,4.7,29.271C187.368,235.871,185.384,241.471,182.454,244.776Zm43.619-.7c-13.948-.067-25.2-12.4-25.124-27.534,0-.92.7-1.8,1.973-2.595a4.176,4.176,0,0,0-.526,1.954l0,.024c0,3.353,10.661,6.07,23.811,6.07s23.811-2.717,23.811-6.07h0a4.161,4.161,0,0,0-.524-1.973c1.265.8,1.965,1.672,1.965,2.59,0,.082,0,.245,0,.245h0C251.389,231.923,240.022,244.14,226.073,244.073Zm-5.181-40v-88.5h10.6V210c-1.7-.1-3.469-.152-5.286-.152s-3.6.054-5.314.153V204.07Zm31.53-98.288H87.735v-10.6H252.422Z"/>
      </g>
    </g>
</svg>
