<svg xmlns="http://www.w3.org/2000/svg" width="120mm" height="120mm" viewBox="0 0 340.157 340.157">
  <g id="Schilder">
      <g id="H-05-M">
        <path fill="#D4AF37" stroke="none" d="M0,2.835V337.323a2.834,2.834,0,0,0,2.835,2.834H337.323a2.834,2.834,0,0,0,2.834-2.834V2.835A2.834,2.834,0,0,0,337.323,0H2.835A2.835,2.835,0,0,0,0,2.835ZM161.692,128.314V115.293h16.774v13.021c30.768,1.279,54.508,9.487,54.508,19.428H107.183C107.183,137.8,130.923,129.593,161.692,128.314Zm84.175,36.109H232.974v81.929H107.183V164.423H94.29V152.858H245.867Z"/>
      </g>
    </g>
</svg>
