<svg xmlns="http://www.w3.org/2000/svg" width="120mm" height="120mm" viewBox="0 0 340.158 340.157">
  <g id="Schilder">
      <g id="H-06-M">
        <path fill="#D4AF37" stroke="none" d="M337.323,0H2.835A2.835,2.835,0,0,0,0,2.835V337.323a2.834,2.834,0,0,0,2.835,2.834H337.323a2.834,2.834,0,0,0,2.835-2.834V2.835A2.835,2.835,0,0,0,337.323,0ZM195.873,115.334l15.63,42.943-56.72,20.645-15.63-42.943ZM234.58,225.189l-70.472,25.65a2.83,2.83,0,0,1-3.626-1.691l-1.925-5.29a1.387,1.387,0,0,0-2.594-.042,25.73,25.73,0,1,1-11.592-31.825,1.387,1.387,0,0,0,1.972-1.691L102.915,90.983a1.419,1.419,0,0,0-1.817-.848L79.644,97.944a1.417,1.417,0,0,1-1.817-.847l-2.36-6.486a1.417,1.417,0,0,1,.847-1.817l30.544-11.117a1.418,1.418,0,0,1,1.817.847l58.972,162.025,64.04-23.309a1.418,1.418,0,0,1,1.816.848l1.924,5.285A1.417,1.417,0,0,1,234.58,225.189Zm-61.966,3.3-15.63-42.943,81.284-29.585L253.9,198.9Z"/>
      </g>
    </g>
</svg>
