<svg xmlns="http://www.w3.org/2000/svg" width="120mm" height="120mm" viewBox="0 0 340.157 340.157">
  <g id="Schilder">
      <g id="H-07-R">
        <path fill="#A0552B" stroke="none" d="M337.323,0H2.835A2.835,2.835,0,0,0,0,2.835V337.323a2.834,2.834,0,0,0,2.835,2.834H337.323a2.834,2.834,0,0,0,2.834-2.834V2.835A2.834,2.834,0,0,0,337.323,0ZM90.017,194.345a2.4,2.4,0,0,1-2.4,2.4h-10.3a2.4,2.4,0,0,1-2.4-2.4V146.6a2.4,2.4,0,0,1,2.4-2.4h10.3a2.4,2.4,0,0,1,2.4,2.4Zm21.821,27.663a2.4,2.4,0,0,1-2.4,2.4h-10.3a2.4,2.4,0,0,1-2.4-2.4v-100.3a2.4,2.4,0,0,1,2.4-2.4h10.3a2.4,2.4,0,0,1,2.4,2.4Zm109.835-44.236H118.479v-15.1H221.673Zm21.681,44.236a2.4,2.4,0,0,1-2.4,2.4h-10.3a2.4,2.4,0,0,1-2.4-2.4v-100.3a2.4,2.4,0,0,1,2.4-2.4h10.3a2.4,2.4,0,0,1,2.4,2.4Zm21.821-27.663a2.4,2.4,0,0,1-2.4,2.4h-10.3a2.4,2.4,0,0,1-2.4-2.4V146.6a2.4,2.4,0,0,1,2.4-2.4h10.3a2.4,2.4,0,0,1,2.4,2.4Z"/>
      </g>
    </g>
</svg>
