<svg xmlns="http://www.w3.org/2000/svg" width="120mm" height="120mm" viewBox="0 0 340.158 340.157">
  <g id="Schilder">
      <g id="H-09-E">
        <path fill="#A09f9d" stroke="none" d="M337.323,0H2.835A2.834,2.834,0,0,0,0,2.834V337.323a2.834,2.834,0,0,0,2.835,2.834H337.323a2.834,2.834,0,0,0,2.835-2.834V2.834A2.834,2.834,0,0,0,337.323,0ZM129.316,108.852a22.677,22.677,0,0,1,45.31-1.417H163.243a11.339,11.339,0,0,0-22.589,1.417v30.962h53.89V108.852a22.677,22.677,0,0,1,45.31-1.417H228.472a11.339,11.339,0,0,0-22.59,1.417V193.14a151.85,151.85,0,0,1-33.5-13.271q-4.572-2.421-9.095-4.523h31.255V151.152h-53.89v15.535q-5.721-1.7-11.338-2.874ZM263.765,241.268l-2.774,1.182c-17.3,7.373-46.776,11.479-88.91-10.837-46.627-24.7-80.446-20.368-101.357-11.572V203.01c17.676-8.26,50.43-14.947,97.679,10.078,45.26,23.972,77.212,18.843,95.362,11.109Zm0-25.7-2.773,1.182c-17.305,7.373-46.777,11.479-88.911-10.837-46.626-24.7-80.445-20.368-101.357-11.572V177.306c17.676-8.26,50.431-14.947,97.68,10.078,45.259,23.971,77.212,18.843,95.361,11.109Z"/>
      </g>
    </g>
</svg>
