<svg xmlns="http://www.w3.org/2000/svg" width="240mm" height="120mm" viewBox="0 0 680.315 340.158">
  <g id="Schilder">
      <g id="H-108-M">
        <path fill="#D4AF37" stroke="none" d="M677.481,0H2.834A2.834,2.834,0,0,0,0,2.834V337.323a2.836,2.836,0,0,0,2.834,2.835H677.48a2.835,2.835,0,0,0,2.835-2.835V2.834A2.834,2.834,0,0,0,677.481,0ZM101.27,205.866a29.477,29.477,0,0,1-9.142,9.851,39.733,39.733,0,0,1-12.9,5.6,61.725,61.725,0,0,1-14.74,1.771,60.627,60.627,0,0,1-16.3-2.126,38.124,38.124,0,0,1-13.322-6.519,31.861,31.861,0,0,1-9.066-11.27,37.491,37.491,0,0,1-3.544-16.228H39.971a22.623,22.623,0,0,0,1.984,9.921,17.9,17.9,0,0,0,5.528,6.733,23.507,23.507,0,0,0,8.149,3.826,39.371,39.371,0,0,0,9.993,1.2,32.063,32.063,0,0,0,9.921-1.346,20.062,20.062,0,0,0,6.661-3.473,12.558,12.558,0,0,0,3.685-4.89,14.651,14.651,0,0,0,1.134-5.6,22.731,22.731,0,0,0-.144-2.556,14.227,14.227,0,0,0-.371-2,11.052,11.052,0,0,0-.9-2.341,7.535,7.535,0,0,0-1.2-1.682,15.028,15.028,0,0,0-5.74-3.9A120.343,120.343,0,0,0,66.121,177.1q-8.847-2.213-17.646-4.607a37.862,37.862,0,0,1-10.843-4.464,25.855,25.855,0,0,1-6.874-6.166,21.68,21.68,0,0,1-3.614-7.228,29.006,29.006,0,0,1-1.063-7.8,26.332,26.332,0,0,1,3.189-13.251A28.378,28.378,0,0,1,37.7,124.3a37.1,37.1,0,0,1,11.906-5.456,52.139,52.139,0,0,1,13.464-1.772,52.991,52.991,0,0,1,14.953,2.055,36.9,36.9,0,0,1,12.331,6.166,29.249,29.249,0,0,1,11.551,24.094H84.191a29.806,29.806,0,0,0-.648-4.378,18.888,18.888,0,0,0-1.088-3.345,15.3,15.3,0,0,0-2.134-3.528,12.9,12.9,0,0,0-2.791-2.568,20.36,20.36,0,0,0-3.315-1.825,24.674,24.674,0,0,0-3.951-1.332,28.317,28.317,0,0,0-3.622-.644,38.437,38.437,0,0,0-4.277-.238,33.068,33.068,0,0,0-6.378.638,20.158,20.158,0,0,0-5.953,2.126,13.047,13.047,0,0,0-4.465,4.039,12.353,12.353,0,0,0,1.559,14.811,21.533,21.533,0,0,0,8.717,4.606q2.235.591,4.465,1.205,4.355,1.185,8.716,2.339,4.712,1.246,9.425,2.48,3.3.854,6.591,1.771a29.653,29.653,0,0,1,8.646,4.252,27.322,27.322,0,0,1,6.165,6.165,25.541,25.541,0,0,1,3.685,7.442,27.3,27.3,0,0,1,1.2,7.936A28.635,28.635,0,0,1,101.27,205.866Zm84.259,14.811-33.165-48.33-14.457,14.315v34.015H120.191V119.48h17.716v46.063l45.071-46.063h21.827l-40.394,40.394,43.229,60.8Zm49.465,0H217.277V119.48h17.717Zm88.3,0a16.5,16.5,0,0,1-2.338-7.228q-.35-3.818-.354-7.654a73.071,73.071,0,0,0-.85-11.976,20.912,20.912,0,0,0-3.119-8.362,13.216,13.216,0,0,0-6.165-4.89,27.225,27.225,0,0,0-9.992-1.559H282.9V165.543h20.55a31.975,31.975,0,0,0,3.814-.229,20.93,20.93,0,0,0,3.037-.6,16.909,16.909,0,0,0,3.439-1.366,12.584,12.584,0,0,0,2.61-1.847,11.723,11.723,0,0,0,2.014-2.427,14.115,14.115,0,0,0,1.46-3.142,17.246,17.246,0,0,0,.665-2.892,26.306,26.306,0,0,0,.255-3.657,18.761,18.761,0,0,0-1.418-7.866,11.484,11.484,0,0,0-3.9-4.748,14.347,14.347,0,0,0-5.67-2.268,37.619,37.619,0,0,0-6.59-.567H274.4v86.74H256.679V119.48h48.33a68.834,68.834,0,0,1,7.39.4,44.169,44.169,0,0,1,5.834,1.032,34.433,34.433,0,0,1,6.854,2.491,23.4,23.4,0,0,1,8.806,7.484,23.043,23.043,0,0,1,2.657,4.915,25.576,25.576,0,0,1,1.388,4.968,35.641,35.641,0,0,1,.52,6.066,29.363,29.363,0,0,1-2.126,11.977,26.128,26.128,0,0,1-4.96,7.653,19.388,19.388,0,0,1-5.6,4.182q-1.977.948-4.04,1.7v.283a18.14,18.14,0,0,1,4.891,1.417,14.487,14.487,0,0,1,4.889,3.615,19.716,19.716,0,0,1,3.756,6.448,28.534,28.534,0,0,1,1.488,9.922A89.625,89.625,0,0,0,338.1,210.26q.288,1.563.687,3.1.317,1.212.741,2.391a20.066,20.066,0,0,0,1.369,3,10.385,10.385,0,0,0,1.384,1.922Zm101.071,0-9.5-26.787H383.481l4.767-13.465h21.941l-15.165-43.511H394.6l-5.062,14.39-24.56,69.373H346.693l38.835-101.2h18.85l38.977,101.2Zm108.55-36.425a44.518,44.518,0,0,1-2.976,17.008,32.766,32.766,0,0,1-8.434,12.118,35.167,35.167,0,0,1-13.11,7.3,61.244,61.244,0,0,1-34.016,0,35.131,35.131,0,0,1-13.11-7.3,32.724,32.724,0,0,1-8.433-12.118,44.481,44.481,0,0,1-2.977-17.008V119.48h17.717v58.961q0,5.182.5,10.347a23.589,23.589,0,0,0,2.835,9.424A18.036,18.036,0,0,0,478,205.086a15.459,15.459,0,0,0,2.751,1.226,25.715,25.715,0,0,0,3.766.946q1.525.261,3.07.379,1.9.144,3.806.143t3.806-.147q1.542-.12,3.07-.381a25.817,25.817,0,0,0,3.767-.944,15.514,15.514,0,0,0,2.751-1.222,18.056,18.056,0,0,0,7.087-6.874,23.645,23.645,0,0,0,2.834-9.424q.49-5.159.5-10.347V119.48h17.717ZM658.06,220.677H641.194V142.583h-.283l-28.063,78.094h-14.6l-28.063-78.094H569.9v78.094H553.037V119.48h24.944L605.9,198.708h.283L633.4,119.48h24.66Z"/>
      </g>
    </g>
</svg>
