<svg xmlns="http://www.w3.org/2000/svg" width="240mm" height="120mm" viewBox="0 0 680.315 340.158">
  <g id="Schilder">
      <g id="H-106-E">
        <path fill="#A09f9d" stroke="none" d="M677.48,0H2.835A2.834,2.834,0,0,0,0,2.834H0V337.323a2.835,2.835,0,0,0,2.835,2.835H677.48a2.835,2.835,0,0,0,2.835-2.835V2.834A2.834,2.834,0,0,0,677.48,0ZM65.324,207.563a11.8,11.8,0,0,1-1.155-2.517,12.9,12.9,0,0,1-.577-2.838q-.132-1.463-.2-2.93-.063-1.368-.063-2.739,0-2.568-.182-5.129-.133-1.881-.448-3.744a19.706,19.706,0,0,0-.963-3.589,12.265,12.265,0,0,0-1.348-2.606,9.565,9.565,0,0,0-1.964-2.112,10.419,10.419,0,0,0-2.6-1.51,13.588,13.588,0,0,0-2.956-.81,28.785,28.785,0,0,0-4.446-.345H37.6v-9.975H50.624a23.6,23.6,0,0,0,2.825-.17,15.363,15.363,0,0,0,2.249-.442,12.465,12.465,0,0,0,2.547-1.012,9.284,9.284,0,0,0,1.933-1.369,8.721,8.721,0,0,0,1.492-1.8,10.486,10.486,0,0,0,1.082-2.328,12.855,12.855,0,0,0,.493-2.143,19.469,19.469,0,0,0,.189-2.708,19.708,19.708,0,0,0-.312-3.5,9.571,9.571,0,0,0-2.03-4.385A7.676,7.676,0,0,0,59.5,145.4a9.931,9.931,0,0,0-1.929-1.031,11.571,11.571,0,0,0-2.271-.649q-1.183-.21-2.382-.313-1.248-.106-2.5-.107H29.1v64.259H15.974V132.594H51.779a50.825,50.825,0,0,1,5.475.3,32.8,32.8,0,0,1,4.322.764,25.555,25.555,0,0,1,5.078,1.845,17.336,17.336,0,0,1,6.521,5.545,17.068,17.068,0,0,1,1.969,3.642,18.965,18.965,0,0,1,1.029,3.681,26.328,26.328,0,0,1,.386,4.493,30.073,30.073,0,0,1-.463,5.256,15.416,15.416,0,0,1-1.112,3.616,24.651,24.651,0,0,1-1.821,3.35,14.9,14.9,0,0,1-1.854,2.32,18.945,18.945,0,0,1-2.237,1.96,10.645,10.645,0,0,1-1.91,1.138q-1.025.472-2.065.91-.457.192-.928.35v.21a10.734,10.734,0,0,1,1.646.34,16.747,16.747,0,0,1,1.977.71,9.145,9.145,0,0,1,1.8,1.038,12.809,12.809,0,0,1,1.82,1.639,11.566,11.566,0,0,1,1.455,1.981,18.394,18.394,0,0,1,1.327,2.8,14.771,14.771,0,0,1,.778,3,29.341,29.341,0,0,1,.325,4.352q0,3.3.273,6.6.226,2.729.725,5.426a26.95,26.95,0,0,0,1.5,5.163,8.487,8.487,0,0,0,1.6,2.554Zm75.074,0h-54.7V132.594h53.97v11.34H98.819v19.635h37.8v10.71h-37.8v21.945H140.4Zm65.22-15.629a17.414,17.414,0,0,1-1.853,4.657,22.521,22.521,0,0,1-3,4.066,21.755,21.755,0,0,1-3.773,3.232A27.218,27.218,0,0,1,192.6,206.3a32.19,32.19,0,0,1-5.164,1.739,45.5,45.5,0,0,1-5.4.982,46.331,46.331,0,0,1-5.523.331,49.014,49.014,0,0,1-6.349-.413,41.351,41.351,0,0,1-5.726-1.163,31.559,31.559,0,0,1-5.429-2.062,25.66,25.66,0,0,1-4.441-2.767,22.319,22.319,0,0,1-3.717-3.649,25.6,25.6,0,0,1-3-4.7,22.857,22.857,0,0,1-1.844-5.258,34.125,34.125,0,0,1-.781-6.764h13.125a21.509,21.509,0,0,0,.417,4.212,13.175,13.175,0,0,0,1.053,3.138,13.915,13.915,0,0,0,1.781,2.787,12.936,12.936,0,0,0,2.315,2.2,16.158,16.158,0,0,0,2.764,1.651,18.954,18.954,0,0,0,3.273,1.184,25.762,25.762,0,0,0,3.438.655,33.246,33.246,0,0,0,3.964.238,31.8,31.8,0,0,0,4.262-.288,17.488,17.488,0,0,0,3.089-.71,19.27,19.27,0,0,0,2.916-1.228,11.265,11.265,0,0,0,2.018-1.344,10.483,10.483,0,0,0,1.659-1.742,8.523,8.523,0,0,0,1.072-1.881,11.541,11.541,0,0,0,.633-2.089,10.314,10.314,0,0,0,.207-2.058,16.851,16.851,0,0,0-.107-1.893,10.609,10.609,0,0,0-.275-1.479,8.229,8.229,0,0,0-.67-1.735,5.587,5.587,0,0,0-.891-1.246,12.935,12.935,0,0,0-2.11-1.791,9.741,9.741,0,0,0-2.143-1.1q-1.989-.734-4.021-1.341-2.618-.785-5.271-1.442t-5.31-1.349q-3.886-1.016-7.763-2.063a36.761,36.761,0,0,1-4.7-1.572,21.037,21.037,0,0,1-3.336-1.736,23.217,23.217,0,0,1-2.99-2.272,16,16,0,0,1-2.1-2.295,17.31,17.31,0,0,1-1.635-2.647,15.086,15.086,0,0,1-1.042-2.708,21.584,21.584,0,0,1-.788-5.775,23.492,23.492,0,0,1,.652-5.5,16.558,16.558,0,0,1,1.711-4.323,21.26,21.26,0,0,1,6.248-6.877,25.652,25.652,0,0,1,4.066-2.335,29.835,29.835,0,0,1,4.754-1.708,39.415,39.415,0,0,1,4.979-.985,38.279,38.279,0,0,1,5-.327,42.87,42.87,0,0,1,5.816.4,36.488,36.488,0,0,1,5.261,1.125,30.053,30.053,0,0,1,4.978,1.956,25.3,25.3,0,0,1,4.157,2.611,22.369,22.369,0,0,1,3.517,3.4,22.86,22.86,0,0,1,2.73,4.113,19.152,19.152,0,0,1,1.679,4.62,26.288,26.288,0,0,1,.631,5.723H191.112a22.2,22.2,0,0,0-.479-3.245,13.921,13.921,0,0,0-.807-2.477,11.28,11.28,0,0,0-1.58-2.613,9.547,9.547,0,0,0-2.069-1.9,15.119,15.119,0,0,0-2.456-1.352,18.286,18.286,0,0,0-2.927-.987,21.02,21.02,0,0,0-2.683-.477,28.429,28.429,0,0,0-3.169-.176q-1.15,0-2.3.114-1.221.123-2.426.358a16.221,16.221,0,0,0-2.353.646,13.982,13.982,0,0,0-2.058.929,9.66,9.66,0,0,0-1.818,1.3,9.882,9.882,0,0,0-1.489,1.694,6.6,6.6,0,0,0-.942,2,10.169,10.169,0,0,0-.371,2.721,11.588,11.588,0,0,0,.152,1.869,8.264,8.264,0,0,0,.405,1.531,7.383,7.383,0,0,0,.79,1.545,7.254,7.254,0,0,0,1.121,1.3,12.835,12.835,0,0,0,2.674,1.885,20,20,0,0,0,3.783,1.528c.151.038.3.077.453.118q1.428.385,2.855.774,1.407.384,2.815.762,1.821.489,3.643.971,1.917.507,3.836,1.012,1.572.414,3.146.825,1.675.44,3.348.888.768.207,1.535.425a25.028,25.028,0,0,1,3.539,1.418,19.263,19.263,0,0,1,2.865,1.732,21.732,21.732,0,0,1,2.544,2.179,19.056,19.056,0,0,1,2.024,2.388,19.625,19.625,0,0,1,1.609,2.687,18.345,18.345,0,0,1,1.121,2.826,21.216,21.216,0,0,1,.674,2.979,19.428,19.428,0,0,1,.219,2.9A26.264,26.264,0,0,1,205.618,191.934ZM243.3,207.563H230.172V143.934H206.441v-11.34h60.691v11.34H243.3Zm69.613,0-7.035-19.844h-20.9l3.536-9.975h13.9l-11.234-32.235h-.316l-7.732,21.981-.006,0-14.207,40.076H255.37l28.77-74.969h13.965l28.875,74.969Zm75.6-26.984a41.257,41.257,0,0,1-.619,7.121,26.255,26.255,0,0,1-4.306,10.466,23.01,23.01,0,0,1-3.528,3.99,24.02,24.02,0,0,1-4.346,3.1,28.778,28.778,0,0,1-5.367,2.309,35.908,35.908,0,0,1-5.747,1.3,48.851,48.851,0,0,1-13.7,0,35.92,35.92,0,0,1-5.748-1.3,28.8,28.8,0,0,1-5.372-2.312,23.961,23.961,0,0,1-4.34-3.095,22.99,22.99,0,0,1-3.524-3.984A26.22,26.22,0,0,1,327.6,187.7a41.257,41.257,0,0,1-.619-7.121V132.594H340.1v43.679q0,1.9.091,3.788.093,1.942.277,3.877a19.5,19.5,0,0,0,.737,3.771,16.02,16.02,0,0,0,1.363,3.212,11.9,11.9,0,0,0,2.1,2.735,15.52,15.52,0,0,0,3.148,2.358,12.4,12.4,0,0,0,3.68,1.373,31.656,31.656,0,0,0,12.484,0,12.445,12.445,0,0,0,3.681-1.374,15.516,15.516,0,0,0,3.151-2.361,11.872,11.872,0,0,0,2.1-2.732,16.012,16.012,0,0,0,1.361-3.208,19.483,19.483,0,0,0,.739-3.775q.185-1.945.277-3.9.09-1.882.091-3.768V132.594H388.51Zm58.168,26.984a11.8,11.8,0,0,1-1.155-2.517,12.953,12.953,0,0,1-.577-2.838q-.131-1.463-.2-2.93-.065-1.368-.064-2.739,0-2.568-.181-5.129-.135-1.881-.449-3.744a19.546,19.546,0,0,0-.963-3.589,12.261,12.261,0,0,0-1.347-2.606,9.593,9.593,0,0,0-1.965-2.112,10.413,10.413,0,0,0-2.6-1.51,13.6,13.6,0,0,0-2.957-.81,28.776,28.776,0,0,0-4.446-.345H418.958v-9.975h13.02a23.62,23.62,0,0,0,2.826-.17,15.35,15.35,0,0,0,2.248-.442A12.465,12.465,0,0,0,439.6,165.1a9.29,9.29,0,0,0,1.934-1.369,8.721,8.721,0,0,0,1.492-1.8,10.527,10.527,0,0,0,1.081-2.328,12.659,12.659,0,0,0,.493-2.143,19.47,19.47,0,0,0,.19-2.708,19.709,19.709,0,0,0-.313-3.5,9.583,9.583,0,0,0-2.029-4.385,7.657,7.657,0,0,0-1.6-1.464,9.931,9.931,0,0,0-1.929-1.031,11.571,11.571,0,0,0-2.271-.649q-1.183-.21-2.382-.313-1.247-.106-2.5-.107H410.454v64.259H397.329V132.594h35.805a50.839,50.839,0,0,1,5.475.3,32.759,32.759,0,0,1,4.321.764,25.51,25.51,0,0,1,5.078,1.845,17.329,17.329,0,0,1,6.522,5.545,17.109,17.109,0,0,1,1.968,3.642,18.9,18.9,0,0,1,1.03,3.681,26.328,26.328,0,0,1,.386,4.493,30.073,30.073,0,0,1-.463,5.256,15.464,15.464,0,0,1-1.112,3.616,24.761,24.761,0,0,1-1.821,3.35,15.013,15.013,0,0,1-1.854,2.32,19.106,19.106,0,0,1-2.237,1.96,10.689,10.689,0,0,1-1.911,1.138q-1.024.472-2.064.91-.457.192-.929.35v.21a10.771,10.771,0,0,1,1.647.34,16.668,16.668,0,0,1,1.976.71,9.181,9.181,0,0,1,1.8,1.038,12.747,12.747,0,0,1,1.819,1.639,11.566,11.566,0,0,1,1.455,1.981,18.3,18.3,0,0,1,1.328,2.8,14.769,14.769,0,0,1,.777,3,29.207,29.207,0,0,1,.325,4.352q0,3.3.273,6.6.227,2.729.725,5.426a26.95,26.95,0,0,0,1.5,5.163,8.509,8.509,0,0,0,1.6,2.554Zm73.394,0-7.035-19.844h-20.9l3.537-9.975h13.9l-11.234-32.235h-.316L490.29,167.49l0,0-7.173,20.231h0l-7.035,19.844H462.532l28.77-74.969h13.965l28.875,74.969Zm79.38,0h-13.86l-34.125-55.125h-.315v55.125h-12.5V132.594h13.86l34.23,55.23h.21v-55.23h12.5Zm67.723-63.629H643.34v63.629H630.215V143.934h-23.73v-11.34h60.69Z"/>
      </g>
    </g>
</svg>
