<svg xmlns="http://www.w3.org/2000/svg" width="120mm" height="120mm" viewBox="0 0 340.157 340.157">
  <g id="Schilder">
      <g id="H-10-M">
        <path fill="#D4AF37" stroke="none" d="M337.323,0H2.834A2.834,2.834,0,0,0,0,2.834V337.323a2.834,2.834,0,0,0,2.834,2.834H337.323a2.834,2.834,0,0,0,2.834-2.834V2.834A2.834,2.834,0,0,0,337.323,0ZM218.868,150.064l-.677,3.2c-.126,0-.249-.022-.375-.022h-30.93l1.458-16.663h21.389C215.834,136.578,220.32,143.2,218.868,150.064ZM180.021,81.3a25.7,25.7,0,0,1,8.762-12.68.573.573,0,0,1,.9.591,26.041,26.041,0,0,0,3.859,20.285c2.69,4.015,5.161,7.5,6.106,12.365a25.564,25.564,0,0,1-9.471,25.222.573.573,0,0,1-.905-.585,26,26,0,0,0-3.162-19.647c-2.528-4.14-5.316-7.416-6.538-12.254A24.648,24.648,0,0,1,180.021,81.3ZM178.9,136.578l-1.458,16.663h-37.47l-1.458-16.663ZM149.547,81.3a25.7,25.7,0,0,1,8.763-12.68.572.572,0,0,1,.9.591,26.041,26.041,0,0,0,3.86,20.285c2.689,4.015,5.16,7.5,6.106,12.365a25.57,25.57,0,0,1-9.471,25.222.573.573,0,0,1-.905-.585,26.007,26.007,0,0,0-3.162-19.647c-2.529-4.14-5.316-7.416-6.539-12.254A24.658,24.658,0,0,1,149.547,81.3Zm-30.474.369a25.7,25.7,0,0,1,8.763-12.681.573.573,0,0,1,.9.592,26.034,26.034,0,0,0,3.86,20.284c2.689,4.016,5.159,7.5,6.106,12.367a25.567,25.567,0,0,1-9.472,25.221.574.574,0,0,1-.905-.585,26,26,0,0,0-3.162-19.647c-2.528-4.14-5.316-7.416-6.539-12.254A24.667,24.667,0,0,1,119.073,81.666Zm-10.758,54.912h20.763l1.458,16.663h-30.3c-.127,0-.25.017-.375.022l-.677-3.2C97.729,143.2,102.214,136.578,108.315,136.578Zm19.34,113.155c-4.332,0-8.1-3.427-9.134-8.3l-12.7-60.012H133l5.977,68.311Zm4.865-73.811H103.155a3.261,3.261,0,0,1-3.184-2.359l-2.922-10.911a3.171,3.171,0,0,1,3.184-3.911H217.816A3.171,3.171,0,0,1,221,162.652l-2.922,10.911a3.261,3.261,0,0,1-3.184,2.359H132.52Zm79.71,5.5-9.739,46.013H180.4l4.025-46.013Zm-69.789,0H174.98l-4.025,46.013H146.467ZM243.11,128.2l-24.8,116.968-.014,0a36.26,36.26,0,0,1-69.952-.4,7.5,7.5,0,0,1,7.295-9.351h49.774a6.269,6.269,0,0,0,6.133-4.97L233.65,126.193a4.655,4.655,0,0,1,5.517-3.589l.357.076A4.651,4.651,0,0,1,243.11,128.2Z"/>
      </g>
    </g>
</svg>
