<svg xmlns="http://www.w3.org/2000/svg" width="240mm" height="120mm" viewBox="0 0 680.315 340.157">
  <g id="Schilder">
      <g id="H-105-R">
        <path fill="#A0552B" stroke="none" d="M677.48,0H2.835A2.835,2.835,0,0,0,0,2.835V337.323a2.834,2.834,0,0,0,2.835,2.834H677.48a2.834,2.834,0,0,0,2.835-2.834V2.835A2.835,2.835,0,0,0,677.48,0ZM78.9,207.435a11.592,11.592,0,0,1-1.191-2.507,12.294,12.294,0,0,1-.585-2.8q-.13-1.447-.186-2.9-.075-1.968-.076-3.937,0-2.09-.15-4.175-.124-1.722-.4-3.43a17.082,17.082,0,0,0-.87-3.292,12.4,12.4,0,0,0-1.323-2.577A9.725,9.725,0,0,0,72.2,179.7a11.982,11.982,0,0,0-2.7-1.662,12.765,12.765,0,0,0-3.062-.926,28.584,28.584,0,0,0-4.772-.4H45.947v-9.952H63.914a25.21,25.21,0,0,0,2.814-.158,16.367,16.367,0,0,0,2.238-.409,13.148,13.148,0,0,0,2.585-.961,9.285,9.285,0,0,0,1.936-1.286,8.76,8.76,0,0,0,1.6-1.827,10.375,10.375,0,0,0,1.156-2.383,12.658,12.658,0,0,0,.526-2.207,19.69,19.69,0,0,0-.076-6.123,9.671,9.671,0,0,0-.661-2.227,8.952,8.952,0,0,0-1.178-1.975,7.4,7.4,0,0,0-1.512-1.445,9.474,9.474,0,0,0-1.849-1.029A12.87,12.87,0,0,0,69.137,144a22.455,22.455,0,0,0-2.473-.372q-1.476-.138-2.959-.138H42.03v63.945H28.66V132.823H65.115a48.475,48.475,0,0,1,5.083.267,41.008,41.008,0,0,1,4.606.755,25.413,25.413,0,0,1,4.4,1.412,20.573,20.573,0,0,1,3.647,2.007,16.545,16.545,0,0,1,3.076,2.749,18.243,18.243,0,0,1,2.434,3.578,15.991,15.991,0,0,1,1.452,4.073,27.336,27.336,0,0,1,.585,5.625,24.708,24.708,0,0,1-.816,6.3,18.23,18.23,0,0,1-2.161,5.005,14.425,14.425,0,0,1-1.806,2.327,16.871,16.871,0,0,1-2.408,2.09,19.437,19.437,0,0,1-2.414,1.474,26.633,26.633,0,0,1-3.034,1.33v.205a13.773,13.773,0,0,1,3.006.69,9.617,9.617,0,0,1,2.3,1.172,12.708,12.708,0,0,1,1.969,1.693,11.953,11.953,0,0,1,1.53,2.008,15.278,15.278,0,0,1,1.133,2.272,17.281,17.281,0,0,1,.8,2.575,24.422,24.422,0,0,1,.451,2.674,24.1,24.1,0,0,1,.15,2.685q0,2.952.185,5.9.135,2.163.455,4.308.212,1.419.529,2.82.247,1.094.6,2.159a16.974,16.974,0,0,0,1.181,2.74,8.522,8.522,0,0,0,1.228,1.722Zm85.558,0H108.734V132.823h54.944V144.1H122.105v19.546H160.6v10.666H122.105v21.842h42.357Zm75.476,0h-62.57V196.769l44.5-52.667H180.815V132.823h58.078v9.9l-44.5,53.431h45.543Zm71.039,0H255.25V132.823h54.944V144.1H268.62v19.546h38.493v10.666H268.62v21.842h42.357Zm75.577-45.784a20.423,20.423,0,0,1-3.664,8.459,18.028,18.028,0,0,1-2.989,3.158,19.927,19.927,0,0,1-3.653,2.4,24.9,24.9,0,0,1-4.547,1.783,33.224,33.224,0,0,1-4.828.987,45.268,45.268,0,0,1-5.748.366h-16.4V168.14h15.617a21.2,21.2,0,0,0,2.848-.192,15.069,15.069,0,0,0,2.348-.509,13.006,13.006,0,0,0,2.506-1.055,11.25,11.25,0,0,0,2.064-1.461,9.939,9.939,0,0,0,1.643-1.885,10.581,10.581,0,0,0,1.165-2.3,12.151,12.151,0,0,0,.577-2.235,17.58,17.58,0,0,0,.219-2.768,20.95,20.95,0,0,0-.264-3.318,11.743,11.743,0,0,0-.65-2.4,10.684,10.684,0,0,0-1.153-2.178,8.429,8.429,0,0,0-1.458-1.623A9.206,9.206,0,0,0,368.365,145a11.666,11.666,0,0,0-2.3-.875,17.763,17.763,0,0,0-2.453-.463,25.79,25.79,0,0,0-3-.175h-19.8v63.945H327.437V132.823h33.688a44.146,44.146,0,0,1,5.79.381,32.065,32.065,0,0,1,4.838,1.023,25.715,25.715,0,0,1,4.554,1.825,20.4,20.4,0,0,1,3.646,2.411,17.832,17.832,0,0,1,2.984,3.16,20.162,20.162,0,0,1,2.292,4.01,20.847,20.847,0,0,1,1.335,4.447,32.2,32.2,0,0,1-.01,11.571ZM453.843,144.1H429.557v63.333H416.186V144.1H392.005V132.823h61.838Zm27.063,63.333H467.535V132.823h13.371Zm91.786-29.246a41.566,41.566,0,0,1-1.765,6.919,39.44,39.44,0,0,1-2.946,6.489,35.761,35.761,0,0,1-3.895,5.555,33.181,33.181,0,0,1-4.9,4.675A36.313,36.313,0,0,1,553.2,205.6a31.262,31.262,0,0,1-6.625,2.426,39.893,39.893,0,0,1-7.894,1.095V198.5a24.7,24.7,0,0,0,5.534-1.035,17.044,17.044,0,0,0,4.232-1.975,22.346,22.346,0,0,0,3.663-2.963,21.773,21.773,0,0,0,2.918-3.621,26.777,26.777,0,0,0,2.177-4.144,31.076,31.076,0,0,0,1.558-4.787,43.848,43.848,0,0,0,.882-4.985,42.259,42.259,0,0,0,.293-4.966,42.89,42.89,0,0,0-.331-5.313,41.106,41.106,0,0,0-.975-5.124,29.454,29.454,0,0,0-1.726-4.884,25.474,25.474,0,0,0-2.4-4.175,21.07,21.07,0,0,0-3.192-3.564,22.239,22.239,0,0,0-4.016-2.84,17.613,17.613,0,0,0-4.562-1.748,26.357,26.357,0,0,0-5.936-.677,26.954,26.954,0,0,0-4.072.31,20.04,20.04,0,0,0-3.422.839,22.4,22.4,0,0,0-3.236,1.394,18.881,18.881,0,0,0-2.718,1.744,20.516,20.516,0,0,0-2.4,2.166,21.325,21.325,0,0,0-2.068,2.555,27.058,27.058,0,0,0-1.7,2.826,28.426,28.426,0,0,0-1.381,3.094q-.6,1.59-1.038,3.233-.452,1.695-.738,3.427t-.431,3.479q-.144,1.753-.144,3.513,0,1.656.13,3.308.132,1.683.393,3.351t.674,3.3q.4,1.561.945,3.079a28.26,28.26,0,0,0,1.261,2.955,27.145,27.145,0,0,0,1.559,2.735,22.733,22.733,0,0,0,1.89,2.511,22.071,22.071,0,0,0,2.184,2.184,18.354,18.354,0,0,0,2.485,1.817,20.751,20.751,0,0,0,2.92,1.475,18.871,18.871,0,0,0,3.116.971,25.388,25.388,0,0,0,3.753.534v10.615a40.393,40.393,0,0,1-8.042-1.114,30.963,30.963,0,0,1-6.661-2.458,35.682,35.682,0,0,1-6-3.831,32.512,32.512,0,0,1-4.865-4.742,35.934,35.934,0,0,1-3.841-5.63,40.1,40.1,0,0,1-2.9-6.594,43.424,43.424,0,0,1-1.723-7.012,48.46,48.46,0,0,1-.6-7.609,49.162,49.162,0,0,1,.289-5.329,44.417,44.417,0,0,1,2.234-9.884,39.6,39.6,0,0,1,1.864-4.435,36.631,36.631,0,0,1,2.408-4.162,35.225,35.225,0,0,1,2.894-3.748,33.188,33.188,0,0,1,3.376-3.311,34.162,34.162,0,0,1,3.857-2.838,32.266,32.266,0,0,1,4.22-2.251,36.722,36.722,0,0,1,4.789-1.73,34.9,34.9,0,0,1,4.985-1.032,42.958,42.958,0,0,1,5.644-.371,42.335,42.335,0,0,1,8.527.867,31.233,31.233,0,0,1,6.985,2.322,36.114,36.114,0,0,1,6.325,3.805,33.072,33.072,0,0,1,5.165,4.82,35.9,35.9,0,0,1,4.082,5.788,40.254,40.254,0,0,1,3.073,6.842,44.564,44.564,0,0,1,1.819,7.3,50,50,0,0,1,.636,7.956A45.555,45.555,0,0,1,572.692,178.189Zm78.963,29.246h-14.1l-34.784-54.861h-.313v54.861H589.712V132.823h14.154L638.7,187.787h.209V132.823h12.744Z"/>
      </g>
    </g>
</svg>
