<svg xmlns="http://www.w3.org/2000/svg" width="120mm" height="120mm" viewBox="0 0 340.157 340.158">
  <g id="Schilder">
      <g id="H-11-E">
        <path fill="#A09f9d" stroke="none" d="M337.323,0H2.835A2.835,2.835,0,0,0,0,2.835V337.323a2.835,2.835,0,0,0,2.835,2.835H337.323a2.834,2.834,0,0,0,2.834-2.835V2.835A2.834,2.834,0,0,0,337.323,0ZM193.632,265.617,191,280.563a3.227,3.227,0,0,1-3.738,2.618L83.88,264.952a3.226,3.226,0,0,1-2.617-3.738L83.9,246.268a9.681,9.681,0,0,1,11.215-7.852l40.051,7.062L168.728,55.131a5.363,5.363,0,0,1,10.563,1.863L145.728,247.341,185.78,254.4A9.681,9.681,0,0,1,193.632,265.617Zm45.03-5.746a3.576,3.576,0,0,1-3.566,3.308h-34.89A16.11,16.11,0,0,0,186.9,248.047l-8.938-1.576-5.23-69.729h3.426c1.574,16.042,15.657,28.635,32.742,28.635s31.169-12.593,32.743-28.635H244.9Zm9.58-88.974H235.8v2.848c0,14.136-12.066,25.638-26.9,25.638s-26.894-11.5-26.894-25.638V170.9H168.15v-3.575a3.574,3.574,0,0,1,3.575-3.575h72.941a3.575,3.575,0,0,1,3.576,3.575Z"/>
      </g>
    </g>
</svg>
