<svg xmlns="http://www.w3.org/2000/svg" width="120mm" height="120mm" viewBox="0 0 340.157 340.157">
  <g id="Schilder">
      <g id="H-12">
        <path fill="#000000" stroke="none" d="M337.323,0H2.835A2.835,2.835,0,0,0,0,2.835V337.323a2.834,2.834,0,0,0,2.835,2.834H337.323a2.834,2.834,0,0,0,2.834-2.834V2.835A2.834,2.834,0,0,0,337.323,0Zm-82.2,188.213a2.854,2.854,0,0,1-2.855,2.854h-61.2v61.2a2.854,2.854,0,0,1-2.854,2.855H151.945a2.855,2.855,0,0,1-2.855-2.855v-61.2h-61.2a2.855,2.855,0,0,1-2.855-2.854V151.945a2.855,2.855,0,0,1,2.855-2.855h61.2v-61.2a2.855,2.855,0,0,1,2.855-2.855h36.268a2.855,2.855,0,0,1,2.854,2.855v61.2h61.2a2.855,2.855,0,0,1,2.855,2.855Z"/>
      </g>
    </g>
</svg>
