<svg xmlns="http://www.w3.org/2000/svg" width="120mm" height="120mm" viewBox="0 0 340.157 340.157">
  <g id="Schilder">
      <g id="H-13">
        <path fill="#000000" stroke="none" d="M337.323,0H2.834A2.834,2.834,0,0,0,0,2.834V337.323a2.834,2.834,0,0,0,2.834,2.834H337.323a2.834,2.834,0,0,0,2.834-2.834V2.834A2.834,2.834,0,0,0,337.323,0Zm-202.3,101.288a6.19,6.19,0,0,1,6.183-6.182h57.741a6.19,6.19,0,0,1,6.183,6.182V118.31a6.19,6.19,0,0,1-6.183,6.182H141.208a6.19,6.19,0,0,1-6.183-6.182ZM199.24,158.4A2.763,2.763,0,0,1,202,161.162v12.566a2.763,2.763,0,0,1-2.763,2.762H179.125v20.116a2.764,2.764,0,0,1-2.764,2.763H163.8a2.763,2.763,0,0,1-2.763-2.763V176.49H140.917a2.763,2.763,0,0,1-2.763-2.762V161.162a2.763,2.763,0,0,1,2.763-2.763h20.116V138.283a2.763,2.763,0,0,1,2.763-2.763h12.565a2.764,2.764,0,0,1,2.764,2.763V158.4Zm63.874,63.129a9.35,9.35,0,0,1-9.349,9.35H86.392a9.35,9.35,0,0,1-9.349-9.35V113.36a9.349,9.349,0,0,1,9.349-9.349h43.577a.935.935,0,0,1,.935.935V118.31a10.3,10.3,0,0,0,10.3,10.3h14.854a.935.935,0,0,1,.315,1.815,39.46,39.46,0,1,0,27.386-.007.934.934,0,0,1,.333-1.808h14.853a10.3,10.3,0,0,0,10.3-10.3V104.946a.935.935,0,0,1,.935-.935h43.577a9.349,9.349,0,0,1,9.349,9.349Z"/>
      </g>
    </g>
</svg>
