<svg xmlns="http://www.w3.org/2000/svg" width="120mm" height="120mm" viewBox="0 0 340.157 340.157">
  <g id="Schilder">
      <g id="H-14-M">
        <path fill="#D4AF37" stroke="none" d="M337.323,0H2.834A2.834,2.834,0,0,0,0,2.834V337.322a2.834,2.834,0,0,0,2.834,2.835H337.323a2.834,2.834,0,0,0,2.834-2.835V2.834A2.834,2.834,0,0,0,337.323,0Zm-202.3,108.375a6.19,6.19,0,0,1,6.183-6.183h57.741a6.19,6.19,0,0,1,6.183,6.183V125.4a6.19,6.19,0,0,1-6.183,6.183H141.208a6.19,6.19,0,0,1-6.183-6.183ZM106.43,237.965H86.392a9.35,9.35,0,0,1-9.349-9.35V120.447a9.349,9.349,0,0,1,9.349-9.349H106.43Zm118.924,0H114.8V111.1h15.166a.935.935,0,0,1,.935.934V125.4a10.3,10.3,0,0,0,10.3,10.3h57.741a10.3,10.3,0,0,0,10.3-10.3V112.032a.935.935,0,0,1,.935-.934h15.166Zm37.76-9.35a9.35,9.35,0,0,1-9.349,9.35H233.728V111.1h20.037a9.349,9.349,0,0,1,9.349,9.349Z"/>
      </g>
    </g>
</svg>
