<svg xmlns="http://www.w3.org/2000/svg" width="120mm" height="120mm" viewBox="0 0 340.158 340.157">
  <g id="Schilder">
      <g id="H-15-M">
        <path fill="#D4AF37" stroke="none" d="M337.323,0H2.835A2.835,2.835,0,0,0,0,2.835V337.323a2.834,2.834,0,0,0,2.835,2.834H337.323a2.835,2.835,0,0,0,2.835-2.834V2.835A2.835,2.835,0,0,0,337.323,0ZM139.868,91.114H200.29v53.708H139.868ZM126.44,261.192l13.428-54.917H200.29l13.427,54.917Zm131.529-52.1A10.271,10.271,0,0,1,247.7,219.363H210.805l-3.613-14.776-1.325-5.417H134.29l-1.324,5.417-3.613,14.776H92.46a10.272,10.272,0,0,1-10.272-10.272V162.5A10.272,10.272,0,0,1,92.46,152.227h8.825v6.09a2.705,2.705,0,0,0,5.41,0v-6.09h5v6.09a2.705,2.705,0,0,0,5.41,0v-6.09H247.7A10.271,10.271,0,0,1,257.969,162.5Z"/>
      </g>
    </g>
</svg>
