<svg xmlns="http://www.w3.org/2000/svg" width="120mm" height="120mm" viewBox="0 0 340.157 340.157">
  <g id="Schilder">
      <g id="H-16-M">
        <path fill="#D4AF37" stroke="none" d="M337.323,0H2.834A2.834,2.834,0,0,0,0,2.835V337.323a2.834,2.834,0,0,0,2.834,2.834H337.323a2.834,2.834,0,0,0,2.834-2.834V2.835A2.834,2.834,0,0,0,337.323,0ZM176.356,241.556H130.232c-4.368,0-8.026-3.025-8.461-7L106.464,94.719c-.5-4.573,3.431-8.542,8.462-8.542H215.187c5.031,0,8.962,3.969,8.462,8.542L216,164.629l-6.208,7.057c-.189.215-2.233,2.548-5.223,6.282l3.141-28.693c-8.118,3.459-22.409,5.753-42.651-4.968-21.132-11.193-35.782-8.2-43.687-4.508l10.146,92.693h44.873A45.576,45.576,0,0,0,176.356,241.556Zm40.813,26.6c-13.862,0-26.094-8.4-29.94-21.91A32.816,32.816,0,0,1,186,237.056v-.077c.079-11.869,6.037-23.551,12.166-33.246,3.609-5.712,7.459-11.038,10.746-15.334l0,0q.75-.979,1.456-1.884l.012-.016c.94-1.2,1.815-2.3,2.6-3.278L213,183.2c2.537-3.138,4.185-5.012,4.185-5.012s31.433,35.773,31.433,56.851S234.54,268.154,217.169,268.154Z"/>
      </g>
    </g>
</svg>
