<svg xmlns="http://www.w3.org/2000/svg" width="120mm" height="120mm" viewBox="0 0 340.158 340.158">
  <g id="Schilder">
      <g id="H-17">
        <path fill="#000000" stroke="none" d="M337.323,0H2.835A2.835,2.835,0,0,0,0,2.835V337.323a2.835,2.835,0,0,0,2.835,2.835H337.323a2.835,2.835,0,0,0,2.835-2.835V2.835A2.835,2.835,0,0,0,337.323,0ZM134.849,253.129H70.866a7.086,7.086,0,0,1-6.122-10.656L163.957,72.331a7.087,7.087,0,0,1,12.244,0l28.036,48.079H187.83L170.079,89.969,83.2,238.956h58.215Zm8.143-48.14,40.482-75.411H209.5l-34.055,53.457h32.662l-63.343,70.5L167.35,204.8Zm132.445,44.584a7.088,7.088,0,0,1-6.145,3.556H157.455l12.734-14.173h86.767l-50.785-87.091,8.567-13.447,60.676,104.055A7.092,7.092,0,0,1,275.437,249.573Z"/>
      </g>
    </g>
</svg>
