<svg xmlns="http://www.w3.org/2000/svg" width="120mm" height="120mm" viewBox="0 0 340.158 340.158">
  <g id="Schilder">
      <g id="H-18-R">
        <path fill="#A0552B" stroke="none" d="M337.323,0H2.835A2.835,2.835,0,0,0,0,2.835V337.323a2.835,2.835,0,0,0,2.835,2.835H337.323a2.835,2.835,0,0,0,2.835-2.835V2.835A2.835,2.835,0,0,0,337.323,0ZM163.572,127.559a6,6,0,0,1-6,6,36.52,36.52,0,0,0,0,73.04,6,6,0,0,1,6,6v42.519a6,6,0,0,1-12,0V218.229a48.284,48.284,0,0,1-23.785-9.88l-26.105,26.105a6,6,0,1,1-8.485-8.486l26.11-26.109a48.277,48.277,0,0,1-9.873-23.78h-36.9a6,6,0,1,1,0-12h36.906a47.973,47.973,0,0,1,9.907-23.742L93.2,114.19a6,6,0,1,1,8.485-8.485l26.139,26.138a47.991,47.991,0,0,1,23.751-9.914V85.04a6,6,0,0,1,12,0Zm97.57,18.75a6,6,0,0,1-.687,11.96,6.17,6.17,0,0,1-.7-.04l-27.667-3.224-26.107,15.074,26.514,15.308,27.2-3.45a6,6,0,0,1,1.51,11.9L249.67,195.3l20.955,12.1a6,6,0,1,1-6,10.392l-20.96-12.1,4.494,10.711a6,6,0,1,1-11.066,4.642l-10.6-25.268-26.513-15.308v30.141L216.6,232.967a6,6,0,1,1-9.629,7.161l-7-9.407v24.4a6,6,0,0,1-12,0V85.04a6,6,0,1,1,12,0v24.4l7-9.407a6,6,0,0,1,9.629,7.161l-16.625,22.354v30.142l26.107-15.074,11.031-25.558a6,6,0,1,1,11.018,4.755l-4.641,10.753,21.131-12.2a6,6,0,1,1,6,10.392l-21.126,12.2Z"/>
      </g>
    </g>
</svg>
