<svg xmlns="http://www.w3.org/2000/svg" width="120mm" height="120mm" viewBox="0 0 340.158 340.157">
  <g id="Schilder">
      <g id="H-19-M">
        <path fill="#D4AF37" stroke="none" d="M337.323,0H2.835A2.834,2.834,0,0,0,0,2.834V337.323a2.834,2.834,0,0,0,2.835,2.834H337.323a2.835,2.835,0,0,0,2.835-2.834V2.834A2.835,2.835,0,0,0,337.323,0ZM220.959,70.874a3.484,3.484,0,0,1-2.54,3.354L184.6,83.765a1.744,1.744,0,0,0-1.27,1.678v1.182a1.745,1.745,0,0,0,1.086,1.615l34.372,13.988a3.487,3.487,0,0,1,2.172,3.229v1.618a1.742,1.742,0,0,1-2.289,1.655L184.855,97.579a1.162,1.162,0,0,0-1.526,1.1v9.1a2.325,2.325,0,0,0,1.746,2.251l8.656,2.222a16.267,16.267,0,0,1,12.22,15.756V256.08a16.3,16.3,0,0,1-16.3,16.3h-30.1a16.3,16.3,0,0,1-16.3-16.3V128.013a16.267,16.267,0,0,1,12.22-15.756l8.656-2.222a2.324,2.324,0,0,0,1.745-2.251V99.252a1.162,1.162,0,0,0-1.162-1.162h-4.457A30.859,30.859,0,0,0,129.4,128.949V246.277c0,1.118-2.283,2.023-5.1,2.023s-5.1-.905-5.1-2.023V127.708a39.814,39.814,0,0,1,39.814-39.814h5.7a1.162,1.162,0,0,0,1.162-1.162V82.461a4.648,4.648,0,0,1,3.715-4.553l49.278-10.092a1.743,1.743,0,0,1,2.093,1.707Z"/>
      </g>
    </g>
</svg>
