<svg xmlns="http://www.w3.org/2000/svg" width="120mm" height="120mm" viewBox="0 0 340.157 340.157">
  <g id="Schilder">
      <g id="H-20-E">
        <path fill="#A09f9d" stroke="none" d="M337.323,0H2.835A2.834,2.834,0,0,0,0,2.834V337.323a2.834,2.834,0,0,0,2.835,2.834H337.323a2.834,2.834,0,0,0,2.834-2.834V2.834A2.834,2.834,0,0,0,337.323,0ZM212.891,270a8.529,8.529,0,0,1-8.5,8.5h-7.45v7.086a2.844,2.844,0,0,1-2.835,2.835H182.763a2.843,2.843,0,0,1-2.834-2.835V278.5H132.467v7.086a2.844,2.844,0,0,1-2.835,2.835H118.294a2.844,2.844,0,0,1-2.835-2.835V278.5h-7.45a8.529,8.529,0,0,1-8.5-8.5V140.545h11.7V250.182a4.252,4.252,0,1,0,8.5,0V140.545h93.18Zm0-136.623h-93.18V82.261a4.252,4.252,0,1,0-8.5,0v51.116h-11.7V60.236a8.529,8.529,0,0,1,8.5-8.5h96.378a8.529,8.529,0,0,1,8.5,8.5Zm50.2-11.664a3.519,3.519,0,0,1-.4,7.014,3.581,3.581,0,0,1-.412-.023l-16.226-1.891-15.311,8.84,15.549,8.978,15.953-2.023a3.519,3.519,0,1,1,.885,6.982l-6.763.858,12.289,7.095a3.519,3.519,0,1,1-3.519,6.094l-12.292-7.1,2.635,6.281a3.519,3.519,0,1,1-6.49,2.723l-6.217-14.819-15.549-8.978v17.677l9.75,13.111a3.519,3.519,0,1,1-5.647,4.2l-4.1-5.518v14.309a3.519,3.519,0,1,1-7.038,0V85.78a3.519,3.519,0,1,1,7.038,0v14.309l4.1-5.517a3.519,3.519,0,0,1,5.647,4.2l-9.75,13.111v17.677l15.311-8.84,6.47-14.99a3.519,3.519,0,1,1,6.461,2.789l-2.722,6.306,12.393-7.155a3.519,3.519,0,0,1,3.519,6.095l-12.39,7.153Z"/>
      </g>
    </g>
</svg>
