<svg xmlns="http://www.w3.org/2000/svg" width="120mm" height="120mm" viewBox="0 0 340.157 340.157">
  <g id="Schilder">
      <g id="H-21">
        <path fill="#000000" stroke="none" d="M337.323,0H2.835A2.835,2.835,0,0,0,0,2.835V337.323a2.834,2.834,0,0,0,2.835,2.834H337.323a2.834,2.834,0,0,0,2.834-2.834V2.835A2.834,2.834,0,0,0,337.323,0ZM129.957,40.162a30.669,30.669,0,1,1-30.67,30.669A30.669,30.669,0,0,1,129.957,40.162Zm18.954,80.862v56.852a.569.569,0,0,1-.166.4l-36.774,36.774a.567.567,0,0,1-.968-.4V121.024a.566.566,0,0,1,.567-.566h36.774A.566.566,0,0,1,148.911,121.024Zm0,178.4a.567.567,0,0,1-.567.567H111.57a.567.567,0,0,1-.567-.567v-56.9a.57.57,0,0,1,.166-.4l36.774-36.774a.567.567,0,0,1,.968.4Zm20.68-110.2,1-6.022v0a.567.567,0,0,1,.655-.462,87.467,87.467,0,0,1,22.649,7.19h0a.567.567,0,0,1,.264.757l-2.656,5.5a.567.567,0,0,1-.753.266,80.185,80.185,0,0,0-20.7-6.571A.567.567,0,0,1,169.591,189.225Zm90.276,110.2v0a.567.567,0,0,1-.571.563,80.287,80.287,0,0,1-79.717-79.718v0a.566.566,0,0,1,.566-.567H259.3a.567.567,0,0,1,.567.567Zm-62.147-99.9,3.124-5.243,0,0a.567.567,0,0,1,.779-.191A87.443,87.443,0,0,1,220.1,209.027l0,0a.566.566,0,0,1-.03.8l-4.474,4.153a.567.567,0,0,1-.8-.027A80.21,80.21,0,0,0,197.913,200.3.566.566,0,0,1,197.72,199.524Zm62.249,12.385a.568.568,0,0,1-.66.456l-6-1.1a.566.566,0,0,1-.455-.66l14.272-77.859a.566.566,0,0,1,.66-.455l6,1.1a.567.567,0,0,1,.455.66ZM299.6,45.678,45.678,299.6a.566.566,0,0,1-.8,0l-4.317-4.316a.568.568,0,0,1,0-.8L294.48,40.559a.568.568,0,0,1,.8,0l4.316,4.317A.566.566,0,0,1,299.6,45.678Z"/>
      </g>
    </g>
</svg>
