<svg xmlns="http://www.w3.org/2000/svg" width="120mm" height="120mm" viewBox="0 0 340.157 340.157">
  <g id="Schilder">
      <g id="H-22-E">
        <path fill="#A09f9d" stroke="none" d="M337.323,0H2.835A2.835,2.835,0,0,0,0,2.835V337.323a2.834,2.834,0,0,0,2.835,2.834H337.323a2.834,2.834,0,0,0,2.834-2.834V2.835A2.834,2.834,0,0,0,337.323,0ZM198.2,42.6a1.419,1.419,0,0,1,2.67.1,64.471,64.471,0,0,0,34.138,38.063c3.49,1.633,6.86,3.181,10.1,4.831l-28.187,28.187a49.447,49.447,0,0,1-5.007-4.325A61.066,61.066,0,0,1,195.849,80.7,63.644,63.644,0,0,1,198.2,42.6ZM40.158,213.191V183.659a.567.567,0,0,1,.567-.567H147.614l-30.666,30.666H40.725A.567.567,0,0,1,40.158,213.191Zm198.513,0a.567.567,0,0,1-.567.567H143.219l30.666-30.666H238.1a.567.567,0,0,1,.567.567Zm30.664,0a.567.567,0,0,1-.567.567H250.95a.567.567,0,0,1-.567-.567V183.659a.567.567,0,0,1,.567-.567h17.818a.567.567,0,0,1,.567.567Zm6.632-48.432a1.419,1.419,0,0,1-2.666-.084,64.392,64.392,0,0,0-31.844-37.6c-2.619-1.363-5.2-2.593-7.745-3.8l27.1-27.1c1.006.943,1.994,1.939,2.96,3.006a63.309,63.309,0,0,1,12.193,65.59ZM300,213.191a.567.567,0,0,1-.567.567H281.614a.567.567,0,0,1-.567-.567V183.659a.567.567,0,0,1,.567-.567h17.818a.567.567,0,0,1,.567.567ZM305.163,43.8,256.454,92.506h0l-28.138,28.138h0L51.242,297.718a.568.568,0,0,1-.8,0L46.124,293.4a.565.565,0,0,1,0-.8l78.842-78.842h0l30.666-30.666L300.044,38.679a.568.568,0,0,1,.8,0L305.163,43A.567.567,0,0,1,305.163,43.8Z"/>
      </g>
    </g>
</svg>
