<svg xmlns="http://www.w3.org/2000/svg" width="120mm" height="120mm" viewBox="0 0 340.157 340.157">
  <g id="Schilder">
      <g id="H-23-R">
        <path fill="#A0552B" stroke="none" d="M337.323,0H2.835A2.835,2.835,0,0,0,0,2.835V337.323a2.834,2.834,0,0,0,2.835,2.834H337.323a2.834,2.834,0,0,0,2.834-2.834V2.835A2.834,2.834,0,0,0,337.323,0ZM238.671,213.191a.567.567,0,0,1-.567.567H40.725a.567.567,0,0,1-.567-.567V183.659a.567.567,0,0,1,.567-.567H238.1a.567.567,0,0,1,.567.567Zm30.664,0a.567.567,0,0,1-.567.567H250.95a.567.567,0,0,1-.567-.567V183.659a.567.567,0,0,1,.567-.567h17.818a.567.567,0,0,1,.567.567Zm6.632-48.432a1.419,1.419,0,0,1-2.666-.084,64.392,64.392,0,0,0-31.844-37.6c-10.657-5.543-20.758-8.921-29.541-17.611A61.074,61.074,0,0,1,195.849,80.7,63.644,63.644,0,0,1,198.2,42.6a1.419,1.419,0,0,1,2.67.1,64.471,64.471,0,0,0,34.138,38.063c10.839,5.073,20.538,9.3,28.767,18.4a63.309,63.309,0,0,1,12.193,65.59ZM300,213.191a.567.567,0,0,1-.567.567H281.614a.567.567,0,0,1-.567-.567V183.659a.567.567,0,0,1,.567-.567h17.818a.567.567,0,0,1,.567.567Z"/>
      </g>
    </g>
</svg>
