<svg xmlns="http://www.w3.org/2000/svg" width="120mm" height="120mm" viewBox="0 0 340.157 340.157">
  <g id="Schilder">
      <g id="H-24-R">
        <path fill="#A0552B" stroke="none" d="M0,2.835V337.323a2.834,2.834,0,0,0,2.835,2.834H337.323a2.834,2.834,0,0,0,2.834-2.834V2.835A2.834,2.834,0,0,0,337.323,0H2.835A2.835,2.835,0,0,0,0,2.835ZM226.046,71.044a1.278,1.278,0,0,1,1.278-1.278h13.107a1.28,1.28,0,0,1,1.2.843l3.645,11.63-19.233,19.233Zm-183.86,45.9,8.417-8.417a1.279,1.279,0,0,1,1.808,0L75.886,132a1.276,1.276,0,0,0,.9.374H195.142l-67.378,67.379H104.9a1.28,1.28,0,0,0-1.25,1.01l-6.684,29.788L66,261.514V143.1a1.279,1.279,0,0,0-.375-.905L42.186,118.751A1.277,1.277,0,0,1,42.186,116.943Zm211.171,82.811v63.265a1.278,1.278,0,0,1-1.278,1.278H231.236a1.278,1.278,0,0,1-1.278-1.278V201.032a1.279,1.279,0,0,0-1.279-1.278H154.035l65.283-65.283,33.665,33.665a1.282,1.282,0,0,1,.374.9Zm44.989-40.091a1.278,1.278,0,0,1-1.278,1.278h-34.3a1.278,1.278,0,0,1-.9-.374l-34.321-34.321,24-24,.041.133a1.282,1.282,0,0,0,.5.633l45.68,30.012a1.277,1.277,0,0,1,.576,1.068ZM299.6,46.174,249.635,96.137h0l-23.589,23.589h0L213.4,132.375h0l-67.378,67.379h0L91.685,254.087h0L81.474,264.3h0l-35.8,35.8a.567.567,0,0,1-.8,0l-4.317-4.316a.568.568,0,0,1,0-.8L71.238,264.3h0l23.408-23.408h0l41.135-41.135h0l67.378-67.379h0l22.886-22.886h0l21.146-21.146h0L294.48,41.056a.565.565,0,0,1,.8,0l4.317,4.316A.568.568,0,0,1,299.6,46.174Z"/>
      </g>
    </g>
</svg>
