<svg xmlns="http://www.w3.org/2000/svg" width="120mm" height="120mm" viewBox="0 0 340.157 340.158">
  <g id="Schilder">
      <g id="H-25-M">
        <path fill="#D4AF37" stroke="none" d="M337.323,0H2.834A2.834,2.834,0,0,0,0,2.834V337.323a2.835,2.835,0,0,0,2.834,2.835H337.323a2.835,2.835,0,0,0,2.834-2.835V2.834A2.834,2.834,0,0,0,337.323,0ZM253.5,199.817v63.309a1.28,1.28,0,0,1-1.28,1.28H231.361a1.28,1.28,0,0,1-1.279-1.28V201.1a1.28,1.28,0,0,0-1.28-1.28H104.938a1.278,1.278,0,0,0-1.251,1.011L89.647,263.4a1.28,1.28,0,0,1-1.251,1.011h-21.1a1.28,1.28,0,0,1-1.279-1.28v-120a1.282,1.282,0,0,0-.374-.905l-23.461-23.46a1.28,1.28,0,0,1,0-1.809l8.424-8.424a1.28,1.28,0,0,1,1.809,0L75.9,132.018a1.282,1.282,0,0,0,.905.374h140a1.278,1.278,0,0,1,.9.375l35.411,35.41a1.281,1.281,0,0,1,.375.905Zm45.02-40.118a1.279,1.279,0,0,1-1.279,1.279H262.916a1.284,1.284,0,0,1-.9-.374l-35.469-35.47a1.279,1.279,0,0,1-.375-.905V71.018a1.28,1.28,0,0,1,1.28-1.279h13.116a1.278,1.278,0,0,1,1.2.844l9.963,31.787a1.276,1.276,0,0,0,.5.633l45.712,30.033a1.281,1.281,0,0,1,.577,1.069Z"/>
      </g>
    </g>
</svg>
