<svg xmlns="http://www.w3.org/2000/svg" width="120mm" height="120mm" viewBox="0 0 340.158 340.157">
  <g id="Schilder">
      <g id="H-26">
        <path fill="#000000" stroke="none" d="M337.323,0H2.835A2.835,2.835,0,0,0,0,2.835V337.323a2.834,2.834,0,0,0,2.835,2.834H337.323a2.834,2.834,0,0,0,2.835-2.834V2.835A2.835,2.835,0,0,0,337.323,0ZM105.758,59.592a19.117,19.117,0,0,1,19.116-19.116h90.41A19.116,19.116,0,0,1,234.4,59.592V92.579l-8.1,8.1V59.592a11.015,11.015,0,0,0-11.015-11.015H203.57a2.1,2.1,0,0,0-2.1,2.1v1.146a5.733,5.733,0,0,1-5.733,5.733h-50.77a5.733,5.733,0,0,1-5.733-5.733V50.673a2.1,2.1,0,0,0-2.1-2.1H124.874a11.015,11.015,0,0,0-11.016,11.015V213.12l-8.1,8.1ZM234.4,280.566a19.115,19.115,0,0,1-19.115,19.115h-90.41a19.116,19.116,0,0,1-19.116-19.115V247.579l8.1-8.1v41.087a11.016,11.016,0,0,0,11.016,11.015h90.41A11.016,11.016,0,0,0,226.3,280.566V127.038l8.1-8.1ZM299.6,45.678l-65.2,65.2-8.1,8.1L113.858,231.417l-8.1,8.1h0L45.678,299.6a.568.568,0,0,1-.8,0l-4.317-4.316a.568.568,0,0,1,0-.8l65.2-65.2h0l8.1-8.1h0L226.3,108.74l8.1-8.1L294.48,40.559a.568.568,0,0,1,.8,0l4.316,4.317A.568.568,0,0,1,299.6,45.678Z"/>
      </g>
    </g>
</svg>
