<svg xmlns="http://www.w3.org/2000/svg" width="120mm" height="120mm" viewBox="0 0 340.158 340.158">
  <g id="Schilder">
      <g id="H-27-E">
        <path fill="#A09f9d" stroke="none" d="M338.741,0H1.417A1.418,1.418,0,0,0,0,1.417V338.74a1.418,1.418,0,0,0,1.417,1.418h193.6a1.417,1.417,0,0,0,1.417-1.418V293.705a1.418,1.418,0,0,1,1.418-1.417h45.722A1.417,1.417,0,0,0,245,290.871h0V245.516a1.417,1.417,0,0,1,1.418-1.417h45.721a1.417,1.417,0,0,0,1.417-1.417h0V194.493a1.418,1.418,0,0,1,1.418-1.418h43.772a1.417,1.417,0,0,0,1.417-1.417h0V1.417A1.418,1.418,0,0,0,338.741,0ZM153.071,59.653h34.015v115.6H153.071Zm34.015,166.622H153.071V192.26h34.015Z"/>
      </g>
    </g>
</svg>
