<svg xmlns="http://www.w3.org/2000/svg" width="120mm" height="120mm" viewBox="0 0 340.157 340.157">
  <g id="Schilder">
      <g id="H-28-R">
        <path fill="#A0552B" stroke="none" d="M339.324.834a2.817,2.817,0,0,0-2-.834H2.834a2.815,2.815,0,0,0-2,.834A2.875,2.875,0,0,0,0,2.859v333.9a3.4,3.4,0,0,0,3.4,3.4H336.756a3.4,3.4,0,0,0,3.4-3.4V2.859A2.874,2.874,0,0,0,339.324.834Zm-90.6,102.694a.665.665,0,0,1,.537-.556.682.682,0,0,1,.713.324,30.3,30.3,0,0,0,8.36,9.149,30.716,30.716,0,0,0,11.4,5.087q2.871.641,5.723,1.356,1.118.28,2.213.638a30.2,30.2,0,0,1,4.02,1.635,23.655,23.655,0,0,1,3.292,1.969,30.8,30.8,0,0,1,5.524,5.07,29.933,29.933,0,0,1,4.067,6.178,30.312,30.312,0,0,1,2.795,8.836,30.7,30.7,0,0,1,0,9.332.679.679,0,0,1-.542.564.667.667,0,0,1-.705-.323,30.218,30.218,0,0,0-7.853-8.965,30.735,30.735,0,0,0-10.792-5.3q-1.984-.533-3.994-.968t-3.991-.984a34.739,34.739,0,0,1-4.3-1.5,22.334,22.334,0,0,1-3.239-1.7,27.3,27.3,0,0,1-5.857-4.989,30.8,30.8,0,0,1-4.555-6.787,30.267,30.267,0,0,1-2.786-8.78A30.8,30.8,0,0,1,248.725,103.528Zm-17.073,28.177a.885.885,0,0,1,.714-.74.907.907,0,0,1,.948.431,40.307,40.307,0,0,0,11.121,12.169,40.841,40.841,0,0,0,15.158,6.766q3.817.851,7.612,1.8,1.485.373,2.942.847a40.519,40.519,0,0,1,5.347,2.175,31.556,31.556,0,0,1,4.378,2.62,40.845,40.845,0,0,1,7.347,6.743,39.779,39.779,0,0,1,5.41,8.218,40.264,40.264,0,0,1,3.718,11.751,40.871,40.871,0,0,1,0,12.413.9.9,0,0,1-.722.749.886.886,0,0,1-.937-.43A40.231,40.231,0,0,0,284.246,185.3a40.93,40.93,0,0,0-14.354-7.045q-2.64-.707-5.313-1.287t-5.307-1.309a46.2,46.2,0,0,1-5.721-1.992,29.78,29.78,0,0,1-4.308-2.258,36.371,36.371,0,0,1-7.791-6.636,40.993,40.993,0,0,1-6.057-9.027,40.248,40.248,0,0,1-3.706-11.678A40.973,40.973,0,0,1,231.652,131.705Zm-172.2,89.077a2.774,2.774,0,0,1-.8,1.955,2.719,2.719,0,0,1-1.931.805H44.973a2.719,2.719,0,0,1-1.931-.805,2.774,2.774,0,0,1-.8-1.955V105.534a2.776,2.776,0,0,1,.8-1.955,2.719,2.719,0,0,1,1.931-.8H56.711a2.719,2.719,0,0,1,1.931.8,2.776,2.776,0,0,1,.8,1.955Zm21.965-18.826a6.548,6.548,0,0,1-1.9,4.611,6.418,6.418,0,0,1-4.557,1.9h0a6.416,6.416,0,0,1-4.556-1.9,6.548,6.548,0,0,1-1.9-4.611v-77.6a6.546,6.546,0,0,1,1.9-4.61,6.417,6.417,0,0,1,4.556-1.9h0a6.419,6.419,0,0,1,4.557,1.9,6.546,6.546,0,0,1,1.9,4.61Zm20.894,0a6.548,6.548,0,0,1-1.9,4.611,6.417,6.417,0,0,1-4.557,1.9h0a6.417,6.417,0,0,1-4.557-1.9,6.548,6.548,0,0,1-1.9-4.611v-77.6a6.546,6.546,0,0,1,1.9-4.61,6.418,6.418,0,0,1,4.557-1.9h0a6.418,6.418,0,0,1,4.557,1.9,6.546,6.546,0,0,1,1.9,4.61Zm20.895,0a6.549,6.549,0,0,1-1.9,4.611,6.416,6.416,0,0,1-4.556,1.9h0a6.418,6.418,0,0,1-4.557-1.9,6.548,6.548,0,0,1-1.9-4.611v-77.6a6.546,6.546,0,0,1,1.9-4.61,6.419,6.419,0,0,1,4.557-1.9h0a6.417,6.417,0,0,1,4.556,1.9,6.547,6.547,0,0,1,1.9,4.61Zm26.271,18.779a2.928,2.928,0,0,1-.848,2.06,2.869,2.869,0,0,1-2.037.848h-2.978l-2,26.02a4.037,4.037,0,0,1-1.271,2.644,3.961,3.961,0,0,1-5.406,0,4.041,4.041,0,0,1-1.272-2.644l-2-26.02h-2.839a2.865,2.865,0,0,1-2.036-.848,2.925,2.925,0,0,1-.849-2.06V218.5a2.923,2.923,0,0,1,.849-2.06,2.865,2.865,0,0,1,2.036-.848h2.354V124.362a6.552,6.552,0,0,1,1.9-4.612l.038-.038a6.42,6.42,0,0,1,9.078.038,6.552,6.552,0,0,1,1.9,4.612V215.6h2.492a2.869,2.869,0,0,1,2.037.848,2.926,2.926,0,0,1,.848,2.06Zm15.517-18.779a6.545,6.545,0,0,1-1.9,4.611,6.416,6.416,0,0,1-4.556,1.9h0a6.416,6.416,0,0,1-4.556-1.9,6.549,6.549,0,0,1-1.9-4.611v-77.6a6.547,6.547,0,0,1,1.9-4.61,6.417,6.417,0,0,1,4.556-1.9h0a6.417,6.417,0,0,1,4.556,1.9,6.543,6.543,0,0,1,1.9,4.61Zm25.7,18.826a2.774,2.774,0,0,1-.8,1.955,2.719,2.719,0,0,1-1.931.805H176.214a2.719,2.719,0,0,1-1.931-.805,2.774,2.774,0,0,1-.8-1.955V105.534a2.776,2.776,0,0,1,.8-1.955,2.719,2.719,0,0,1,1.931-.8h11.738a2.719,2.719,0,0,1,1.931.8,2.776,2.776,0,0,1,.8,1.955Zm106.605,31.234a1.212,1.212,0,0,1-.969,1.006,1.191,1.191,0,0,1-1.259-.577,54.009,54.009,0,0,0-14.031-16.017,54.956,54.956,0,0,0-19.28-9.464q-3.548-.95-7.137-1.729t-7.13-1.758A62.093,62.093,0,0,1,239.8,220.8a39.874,39.874,0,0,1-5.787-3.032,48.83,48.83,0,0,1-10.465-8.915,55.14,55.14,0,0,1-8.138-12.126,54.087,54.087,0,0,1-4.977-15.687,55.036,55.036,0,0,1-.05-16.6,1.188,1.188,0,0,1,.959-.994,1.22,1.22,0,0,1,1.274.578,54.127,54.127,0,0,0,14.938,16.347,54.878,54.878,0,0,0,20.361,9.088q2.838.633,5.675,1.275.731.165,1.458.34,2.023.486,4.03,1.04,1.518.42,3.015.907a54.162,54.162,0,0,1,7.182,2.922,42.276,42.276,0,0,1,5.881,3.519,54.866,54.866,0,0,1,9.869,9.057,53.431,53.431,0,0,1,7.267,11.039,54.084,54.084,0,0,1,4.994,15.786A54.858,54.858,0,0,1,297.293,252.016Z"/>
      </g>
    </g>
</svg>
