<svg xmlns="http://www.w3.org/2000/svg" width="120mm" height="120mm" viewBox="0 0 340.157 340.157">
  <g id="Schilder">
      <g id="H-29-R">
        <path fill="#A0552B" stroke="none" d="M336.756,0H3.4A3.4,3.4,0,0,0,0,3.4V336.756a3.4,3.4,0,0,0,3.4,3.4H336.756a3.4,3.4,0,0,0,3.4-3.4V3.4A3.4,3.4,0,0,0,336.756,0Zm-172.8,72.331a7.088,7.088,0,0,1,12.245,0l71.438,122.51-16.4.015L170.079,89.969l-36.842,63.179-19.187,4.769Zm-63.6,109.079,10.468-2.6-1.967-7.916h0a2.836,2.836,0,0,1,2.068-3.435l77.383-19.23a2.387,2.387,0,0,1,.29-.054,3.313,3.313,0,0,1,.345-.024c.061,0,.122,0,.183,0s.14.01.21.019l.056,0a.341.341,0,0,1,.055.005c.083.013.165.031.246.052s.166.047.247.076c.022.008.044.017.065.027l.063.029q.1.04.195.087c.046.022.092.046.136.071l.018.011.139.091c.049.033.1.067.145.1s.077.059.114.09l.067.058.079.075q.054.053.1.108c.038.042.076.085.112.129s.056.069.084.1a.546.546,0,0,1,.036.048c.028.039.055.079.079.12.036.059.07.119.1.179q.019.039.042.075a.788.788,0,0,1,.04.076c.04.087.076.175.108.265a2.443,2.443,0,0,1,.073.239l8.831,35.538a2.827,2.827,0,0,1-.646,2.582,2.721,2.721,0,0,1-.408.373,2.808,2.808,0,0,1-.473.286,2.753,2.753,0,0,1-.263.11c-.091.032-.183.06-.277.083l-31.85,7.915,1.709,6.235,67.836-.06h0l16.4-.015,8.284,14.2h-.006l-92.312.076h-.043l-.588-.025c-.092,0-.185-.007-.277-.009s-.184-.006-.276-.014l-.018,0-.576-.072q-.141-.018-.282-.033c-.094-.009-.188-.022-.281-.038l-.017,0-.557-.117c-.092-.02-.185-.038-.277-.056s-.185-.037-.277-.061l-.039-.011c-.179-.052-.357-.106-.535-.159-.087-.026-.174-.051-.262-.075s-.175-.051-.261-.081l-.039-.014-.517-.2-.253-.095c-.085-.031-.168-.064-.251-.1l-.045-.021-.5-.242c-.08-.038-.159-.076-.24-.113s-.159-.076-.237-.118l-.012-.006-.482-.284-.241-.139c-.081-.045-.161-.093-.239-.143l-.018-.012-.463-.325c-.073-.052-.148-.1-.222-.153s-.149-.1-.22-.157-.144-.114-.214-.174-.14-.119-.21-.177l-.432-.357-.014-.012q-.082-.074-.159-.153c-.052-.052-.1-.1-.158-.155q-.2-.192-.4-.387c-.031-.03-.062-.061-.091-.092-.051-.054-.1-.108-.146-.165s-.095-.111-.144-.166q-.184-.207-.368-.416l-.088-.105c-.045-.055-.087-.112-.128-.17s-.083-.115-.126-.172l-.34-.453c-.029-.04-.057-.079-.084-.119-.016-.024-.032-.049-.046-.074s-.03-.05-.046-.074q-.3-.459-.575-.94c-.167-.3-.322-.6-.465-.909-.017-.037-.033-.075-.048-.113s-.029-.076-.046-.114q-.222-.5-.409-1.02-.169-.471-.3-.953l-1.845-6.727-32.02,7.957a2.423,2.423,0,0,1-.29.054,3.333,3.333,0,0,1-.345.024c-.061,0-.122,0-.183,0s-.141-.01-.211-.019l-.055,0a.353.353,0,0,1-.056,0c-.082-.013-.164-.031-.245-.052s-.166-.047-.247-.076c-.022-.008-.044-.017-.065-.027l-.063-.029c-.065-.027-.13-.056-.194-.086-.047-.023-.093-.047-.138-.073l-.023-.014-.132-.087c-.051-.033-.1-.068-.148-.1s-.076-.058-.112-.089-.045-.039-.067-.059l-.08-.074c-.036-.036-.072-.072-.106-.11s-.074-.084-.11-.127-.057-.07-.084-.105l-.037-.048c-.027-.039-.054-.079-.079-.12-.035-.059-.069-.119-.1-.179q-.021-.039-.042-.075c-.015-.025-.028-.051-.041-.077q-.059-.129-.108-.264a2.438,2.438,0,0,1-.072-.239l-1.911-7.692-10.566,2.626-.025-.1-4.9-19.729-.025-.1Zm175.085,68.162a7.085,7.085,0,0,1-6.145,3.557H70.866a7.086,7.086,0,0,1-6.122-10.656l29.39-50.4,2.82,11.344,2.051,8.253.127-.032L83.2,238.956H256.955l-7.522-12.9,11.456-.009,4.943,0,9.581,16.431A7.085,7.085,0,0,1,275.436,249.572Z"/>
      </g>
    </g>
</svg>
