<svg xmlns="http://www.w3.org/2000/svg" width="120mm" height="120mm" viewBox="0 0 340.157 340.158">
  <g id="Schilder">
      <g id="H-30-E">
        <path fill="#A09f9d" stroke="none" d="M337.323,0H2.835A2.835,2.835,0,0,0,0,2.835V337.323a2.835,2.835,0,0,0,2.835,2.835H337.323a2.834,2.834,0,0,0,2.834-2.835V2.835A2.834,2.834,0,0,0,337.323,0ZM123.77,260.788l5.845-20.674h73.136l5.846,20.674Zm111.567-53.757a4.059,4.059,0,0,1-4.058,4.059h-51.87L181.059,228a1.946,1.946,0,0,1-1.938,2.134H151.688A1.946,1.946,0,0,1,149.751,228L151.4,211.09H99.638a4.059,4.059,0,0,1-4.058-4.059v-14.5H235.337Zm24.8-44.528h-6.2V96.914H126.583v18.061h104.7a4.058,4.058,0,0,1,4.058,4.059v49.227h24.8v14.5a4.059,4.059,0,0,1-4.058,4.059H233v-.054h-3.863V121.18H101.784v65.59h-6.2V119.034a4.058,4.058,0,0,1,4.058-4.059h20.74V94.768a4.059,4.059,0,0,1,4.059-4.059h131.64a4.058,4.058,0,0,1,4.058,4.059Z"/>
      </g>
    </g>
</svg>
