<svg xmlns="http://www.w3.org/2000/svg" width="120mm" height="120mm" viewBox="0 0 340.157 340.158">
  <g id="Schilder">
      <g id="H-31-M">
        <path fill="#D4AF37" stroke="none" d="M337.323,0H2.835A2.835,2.835,0,0,0,0,2.835V337.323a2.835,2.835,0,0,0,2.835,2.835H337.323a2.834,2.834,0,0,0,2.834-2.835V2.835A2.834,2.834,0,0,0,337.323,0ZM176.39,249.03a6.089,6.089,0,0,1-6.089,6.088h-8.467v-5.19a2.366,2.366,0,1,0-4.731,0v5.19h-4.37v-5.19a2.366,2.366,0,1,0-4.731,0v5.19H78.285A6.089,6.089,0,0,1,72.2,249.03V235.172a6.089,6.089,0,0,1,6.089-6.089H170.3a6.089,6.089,0,0,1,6.089,6.089Zm0-38.363a6.089,6.089,0,0,1-6.089,6.089h-8.467v-5.19a2.366,2.366,0,1,0-4.731,0v5.19h-4.37v-5.19a2.366,2.366,0,1,0-4.731,0v5.19H78.285a6.089,6.089,0,0,1-6.089-6.089V196.81a6.089,6.089,0,0,1,6.089-6.089H170.3a6.089,6.089,0,0,1,6.089,6.089Zm0-38.361a6.089,6.089,0,0,1-6.089,6.088h-8.467V173.2a2.366,2.366,0,1,0-4.731,0v5.19h-4.37V173.2a2.366,2.366,0,1,0-4.731,0v5.19H78.285a6.089,6.089,0,0,1-6.089-6.088V158.448a6.089,6.089,0,0,1,6.089-6.089H170.3a6.089,6.089,0,0,1,6.089,6.089ZM230.765,223.6H194.989v-12h35.776a36.6,36.6,0,0,0,12.157-71.127l-3.83-1.343-.178-4.056A46.071,46.071,0,0,0,155.2,110.62l-2.915,4.15-4.577-2.183a26.785,26.785,0,0,0-11.62-2.611,27.174,27.174,0,0,0-26.973,24.171H97.068a39.161,39.161,0,0,1,51.223-34.23,58.074,58.074,0,0,1,102.308,30.7A48.6,48.6,0,0,1,230.765,223.6Z"/>
      </g>
    </g>
</svg>
