<svg xmlns="http://www.w3.org/2000/svg" width="120mm" height="120mm" viewBox="0 0 340.157 340.157">
  <g id="Schilder">
      <g id="H-32-R">
        <path fill="#A0552B" stroke="none" d="M337.323,0H2.834A2.834,2.834,0,0,0,0,2.834V337.323a2.834,2.834,0,0,0,2.834,2.834H337.323a2.834,2.834,0,0,0,2.834-2.834V2.834A2.834,2.834,0,0,0,337.323,0ZM107.36,94.5a96.654,96.654,0,0,1,135.229,4.658c-1.328,4.841-2.634,10.306-3.769,16.421a83.1,83.1,0,0,0-131.46-1.256ZM87.626,155.232c0,3.727.142,80.243.185,103.209a6.456,6.456,0,1,1-12.912,0c.043-22.966.186-99.481.186-103.209,0-14.655-11.23-11.114-11.23-24.079V75.019A3.5,3.5,0,0,1,67.7,71.535a3.6,3.6,0,0,1,3.157,3.633v45.7a3.5,3.5,0,0,0,3.5,3.5h0a3.5,3.5,0,0,0,3.5-3.5V75.019A3.5,3.5,0,0,1,81.7,71.535a3.6,3.6,0,0,1,3.156,3.634v45.7a3.5,3.5,0,0,0,3.5,3.5h0a3.5,3.5,0,0,0,3.5-3.5v-45.7a3.6,3.6,0,0,1,3.156-3.634,3.5,3.5,0,0,1,3.844,3.484v56.134C98.856,144.118,87.626,140.577,87.626,155.232Zm158.992,72.749a96.653,96.653,0,0,1-150.365-2.869q-.027-14.782-.048-26.462a83.138,83.138,0,0,0,150.413,5.007Zm22.1-56.283v88.435a6.8,6.8,0,1,1-13.592,0V177.607c0-11.022-11.337-11.847-11.337-22.039,0-42.941,11.446-66.391,14.534-78.24a5.4,5.4,0,0,1,4.864-4.094,5.262,5.262,0,0,1,5.531,5.255Z"/>
      </g>
    </g>
</svg>
