<svg xmlns="http://www.w3.org/2000/svg" width="120mm" height="120mm" viewBox="0 0 340.157 340.158">
  <g id="Schilder">
      <g id="H-33-M">
        <path fill="#D4AF37" stroke="none" d="M337.323,0H2.835A2.834,2.834,0,0,0,0,2.834V337.323a2.835,2.835,0,0,0,2.835,2.835H337.323a2.835,2.835,0,0,0,2.834-2.835V2.834A2.834,2.834,0,0,0,337.323,0ZM240.178,252.127V133.315a6.446,6.446,0,0,0-12.69-1.6c-3.711,14.458-17.854,43.209-17.854,96.041,0,12.487,13.89,13.5,13.89,27V263.4a105.611,105.611,0,0,1-39.353,12.349c-.13-20.247-.24-39.525-.24-46.314,0-17.955,13.758-13.617,13.758-29.5V131.158a4.288,4.288,0,1,0-8.576,0v56.178a4.288,4.288,0,0,1-4.288,4.289h0a4.289,4.289,0,0,1-4.289-4.289V131.158a4.288,4.288,0,1,0-8.576,0v56.178a4.288,4.288,0,0,1-4.288,4.289h0a4.288,4.288,0,0,1-4.288-4.289V131.158a4.289,4.289,0,0,0-4.289-4.289h0a4.288,4.288,0,0,0-4.288,4.289v68.776c0,15.883,13.759,11.545,13.759,29.5,0,6.849-.113,26.409-.244,46.851a106.28,106.28,0,1,1,71.856-24.158Z"/>
      </g>
    </g>
</svg>
