<svg xmlns="http://www.w3.org/2000/svg" width="120mm" height="120mm" viewBox="0 0 340.157 340.157">
  <g id="Schilder">
      <g id="H-34-M">
        <path fill="#D4AF37" stroke="none" d="M337.323,0H2.835A2.834,2.834,0,0,0,0,2.834V337.323a2.834,2.834,0,0,0,2.835,2.834H337.323a2.834,2.834,0,0,0,2.834-2.834V2.834A2.834,2.834,0,0,0,337.323,0ZM201.985,71.065a20.959,20.959,0,0,1,7.141-10.333.467.467,0,0,1,.735.482,21.219,21.219,0,0,0,3.145,16.53c2.192,3.272,4.205,6.114,4.976,10.077a20.834,20.834,0,0,1-7.718,20.554.467.467,0,0,1-.737-.478,21.2,21.2,0,0,0-2.577-16.01c-2.061-3.374-4.332-6.043-5.328-9.985A20.1,20.1,0,0,1,201.985,71.065Zm-24,0a20.959,20.959,0,0,1,7.141-10.333.467.467,0,0,1,.735.482,21.215,21.215,0,0,0,3.146,16.53c2.191,3.272,4.2,6.114,4.975,10.077a20.84,20.84,0,0,1-7.718,20.554.467.467,0,0,1-.737-.478,21.2,21.2,0,0,0-2.577-16.01c-2.061-3.374-4.332-6.043-5.329-9.985A20.107,20.107,0,0,1,177.986,71.065Zm-31.464,48.642H249.473a1.276,1.276,0,0,1,1.263,1.462q-4.272,29.005-8.545,58.011c-1.1,7.478-1.686,15.051-5.482,21.789l-.059.105a17,17,0,0,1-14.824,8.484h-7.68a111.849,111.849,0,0,0-8.958-13.133c-2.259-2.87-4.695-5.527-7.05-8.1-1.036-1.131-2.108-2.3-3.139-3.46a7.648,7.648,0,0,0-3.075-2.09,7.653,7.653,0,0,0-3.333-6.3,90.137,90.137,0,0,0-37.335-14.6l-6-40.716A1.276,1.276,0,0,1,146.522,119.707ZM107.455,238.453c-10.373,4.638-20.33,9.967-28.85,17.638-.892.8-1.7,1.7-2.576,2.517A9.453,9.453,0,0,1,65.6,260.7a9.253,9.253,0,0,1-6.311-8.294,53.179,53.179,0,0,1,2.081-18.232c4.6-16.784,13.673-30.9,26.081-42.968.314-.307.679-.561,1.46-1.2,3.223,5.374,6.625,10.343,9.3,15.677,3.826,7.626,7.155,15.5,10.607,23.313a23.371,23.371,0,0,1,1.223,4.559C110.783,237.022,110.738,236.985,107.455,238.453Zm52.454-4.921a2.633,2.633,0,0,1-2.437,2.627c-11.657,2.657-23.312,3.114-35.035.428-4.249-.973-4.2-.892-5.09-5.149-2.167-10.338-6.729-19.727-11.9-28.811-3.561-6.257-7.544-12.274-11.333-18.4-.267-.433-.488-.894-.722-1.326,27.124-19.644,63.907-18.537,90.87-.091-2.784,4.414-5.664,8.778-8.343,13.263-6.132,10.266-11.786,20.769-14.986,32.394A31.447,31.447,0,0,0,159.909,233.532Zm52.235,27.009c-3.843,1.681-7.647,1.16-10.628-1.862-8.139-8.253-18.008-13.845-28.285-18.85a28.68,28.68,0,0,0-4.139-1.754,2.442,2.442,0,0,1-1.813-3.439c1.263-4.23,2.358-8.54,4.012-12.619,4.384-10.815,10.318-20.821,16.657-30.59a15.1,15.1,0,0,1,1.322-1.468c3.385,3.81,6.853,7.34,9.895,11.206,9.234,11.732,15.879,24.728,18.213,39.633a75.048,75.048,0,0,1,.775,10.756A9.257,9.257,0,0,1,212.144,260.541Zm45.194-42.773a7.663,7.663,0,0,1-7.664,7.663H221.429a87.393,87.393,0,0,0-4.351-10.4h38.983a1.277,1.277,0,0,1,1.277,1.277Zm-5.558-31.314H248.5A1.273,1.273,0,0,1,247.242,185l.79-5.366a1.271,1.271,0,0,1,1.258-1.087h2.623a18.774,18.774,0,0,0,18.882-17.33A18.506,18.506,0,0,0,254.9,141.747a1.276,1.276,0,0,1-1.084-1.45l.781-5.306a1.294,1.294,0,0,1,1.473-1.083,26.442,26.442,0,0,1,22.664,26.62C278.476,175.015,266.27,186.454,251.78,186.454Z"/>
      </g>
    </g>
</svg>
