<svg xmlns="http://www.w3.org/2000/svg" width="120mm" height="120mm" viewBox="0 0 340.157 340.158">
  <g id="Schilder">
      <g id="H-35-E">
        <path fill="#A09f9d" stroke="none" d="M337.323,0H2.834A2.834,2.834,0,0,0,0,2.834V337.323a2.835,2.835,0,0,0,2.834,2.835H337.323a2.835,2.835,0,0,0,2.834-2.835V2.834A2.834,2.834,0,0,0,337.323,0ZM117.335,131.039a86.947,86.947,0,0,0,4.955-28.932V93.86a5.212,5.212,0,0,1-1.7-3.856V67.977a5.234,5.234,0,0,1,5.234-5.234h15.209a5.233,5.233,0,0,1,5.233,5.234V90a5.214,5.214,0,0,1-1.7,3.856v8.247a86.945,86.945,0,0,0,5.091,29.317c.715,1.994,1.385,4,2.027,6.022h-8.529a11.326,11.326,0,0,0-19.449,0h-8.515Q116.215,134.227,117.335,131.039Zm44.7,138.023a8.722,8.722,0,0,1-8.715,8.353h-39a8.723,8.723,0,0,1-8.71-8.26l-3.922-73.7a87.356,87.356,0,0,1,3.6-24.806l6.379-21.538H123.7a11.326,11.326,0,0,0,19.449,0h12.042l3.433,11.589h-6.933a9.384,9.384,0,0,0-6.635,16.019l20.054,20.055Zm75.355-96.356L196.952,213.14v55.076h21.283v7.429H168.241v-7.429h21.282V213.165l-40.459-40.459a3.918,3.918,0,0,1-.363-.423,3.715,3.715,0,0,1,2.99-5.919h44.046l-2.409,7.428H160.659l14.089,14.089,20.75.01,21.408-66.036,7.066,2.291L203.305,187.9l8.383,0,14.105-14.106H214.616l2.409-7.428H234.76a3.715,3.715,0,0,1,2.627,6.341Z"/>
      </g>
    </g>
</svg>
