<svg xmlns="http://www.w3.org/2000/svg" width="120mm" height="120mm" viewBox="0 0 340.157 340.157">
  <g id="Schilder">
      <g id="H-36-R">
        <path fill="#A0552B" stroke="none" d="M337.323,0H2.834A2.834,2.834,0,0,0,0,2.834V337.323a2.834,2.834,0,0,0,2.834,2.834H337.323a2.834,2.834,0,0,0,2.834-2.834V2.834A2.834,2.834,0,0,0,337.323,0ZM95.444,267.019V170.136a29.965,29.965,0,0,1,5.886-17.868l3.712-4.992q.9-1.212,1.706-2.483a41.218,41.218,0,0,0,6.327-19.871l2.6-48.667a2.587,2.587,0,0,1,.238-4.46l.218-4.084a2.579,2.579,0,0,1,.26-4.876l0-.092h20.5l.011.215a2.587,2.587,0,0,1,.244,4.577l.24,4.492a2.588,2.588,0,0,1,.548,3.562,2.666,2.666,0,0,1-.337.389l2.623,49.174c.03.549.072,1.095.122,1.64.011.114.026.227.037.341q.069.674.158,1.344c.012.088.025.177.038.265q.1.732.233,1.46c.007.042.015.085.023.128a41.128,41.128,0,0,0,5.032,13.562h0q.459.779.953,1.537l.133.2c.342.518.691,1.031,1.057,1.534l3.764,5.173c.3.408.578.824.852,1.245.064.1.125.2.188.293.017.028.033.057.05.084.1.157.19.316.286.474.133.218.27.433.4.654l.037.064a30.1,30.1,0,0,1,3.9,14.809v97.054a10.277,10.277,0,0,1-10.154,10.4H105.6A10.277,10.277,0,0,1,95.444,267.019Zm119.4,3.89a6.431,6.431,0,0,1-6.354,6.506H163.243v-3.7a17.585,17.585,0,0,0,1.319-6.693V171.775c4.321-1.644,11.539-2.468,21.57,2.845,10.383,5.5,17.754,4.424,22.015,2.67V161.76a7.322,7.322,0,0,0-7.322-7.322H161.148c-.433-.943-.894-1.875-1.4-2.77l-.027-.048-.038-.065c-.125-.219-.254-.43-.384-.641l-.095-.156-.1-.167-.182-.3-.011-.018-.061-.1-.035-.056-.035-.055-.048-.076-.175-.271c-.362-.557-.71-1.065-1.055-1.54L153.736,143c-.03-.041-.063-.09-.093-.132,2.127-4.5,7.242-7.68,13.214-7.68a16.249,16.249,0,0,1,4.455.611,22.709,22.709,0,0,1,16.274-6.566c10.889,0,19.876,7.03,21.055,16.221,6.335,2.436,10.5,7.895,10.5,13.953a14.054,14.054,0,0,1-4.3,9.946Zm29.87-39.3c0,13.568-10.781,24.606-24.033,24.606H219.1v-9.776h1.583a14.677,14.677,0,0,0,14.484-14.83V197.882a14.677,14.677,0,0,0-14.484-14.83H219.1v-9.777h1.583c13.252,0,24.033,11.039,24.033,24.607Z"/>
      </g>
    </g>
</svg>
