<svg xmlns="http://www.w3.org/2000/svg" width="120mm" height="120mm" viewBox="0 0 340.158 340.158">
  <g id="Schilder">
      <g id="H-37-R">
        <path fill="#A0552B" stroke="none" d="M337.323,0H2.835A2.835,2.835,0,0,0,0,2.835V337.323a2.835,2.835,0,0,0,2.835,2.835H337.323a2.835,2.835,0,0,0,2.835-2.835V2.835A2.835,2.835,0,0,0,337.323,0ZM262.5,205.955a1.662,1.662,0,0,1,1.248,1.542v7.756a1.418,1.418,0,0,1-1.417,1.418H240.2c-15.684,0-29.474,4.4-39.313,13.326-3.29,2.985-2.006,7.64,10.5,7.445,4,0,33.162,0,46.7,0a5.663,5.663,0,0,1,5.663,5.669v3.969c0,16.547-15.572,15.014-28.289,15.243-1.13.02-59.828.011-78.32.007a2.481,2.481,0,0,1-1.843-4.137C204.929,202.767,218.826,205.914,262.5,205.955ZM95.577,242.947V83.3a8.515,8.515,0,0,1,8.515-8.515h7.316v9.172a2.329,2.329,0,0,0,2.011,2.358,2.243,2.243,0,0,0,2.474-2.23v-9.3h4.142v9.172a2.328,2.328,0,0,0,2.01,2.358,2.242,2.242,0,0,0,2.474-2.23v-9.3H232.784A8.515,8.515,0,0,1,241.3,83.3V198.907c-8.991.213-17.34.963-25.741,3.373a57.309,57.309,0,0,0,8.817-19.032h.009v-.041a57.618,57.618,0,0,0-35.113-67.934l-.04-.015c-.72-.277-1.447-.537-2.18-.785-.139-.048-.278-.1-.418-.142q-.974-.321-1.964-.608c-.232-.068-.466-.134-.7-.2q-.891-.248-1.794-.467c-.312-.076-.625-.146-.939-.217-.546-.122-1.093-.241-1.646-.348-.384-.075-.772-.14-1.159-.207-.5-.086-1-.174-1.5-.246-.464-.068-.932-.122-1.4-.178-.442-.053-.881-.112-1.326-.155-.574-.056-1.152-.093-1.73-.132-.352-.023-.7-.056-1.055-.074-.94-.045-1.885-.071-2.836-.071a57.57,57.57,0,1,0,8.275,114.538c-7.465,6.747-15.673,15.123-25.042,25.495H104.092A8.515,8.515,0,0,1,95.577,242.947Zm71.19-75.3c-20.616-10.918-36.512-11.527-47.565-9.129A50.484,50.484,0,0,1,219.069,169c0,1.567-.082,3.114-.222,4.645-.109.1-.218.2-.327.321-.69.75-1.357,1.522-2.029,2.29C205.394,179.21,188.769,179.3,166.767,167.646Zm91.986,111.9H156.707a5.669,5.669,0,1,1,0-11.338H258.753a5.669,5.669,0,1,1,0,11.338Z"/>
      </g>
    </g>
</svg>
