<svg xmlns="http://www.w3.org/2000/svg" width="120mm" height="120mm" viewBox="0 0 340.157 340.157">
  <g id="Schilder">
    <g id="H-38-M">
      <path fill="#D4AF37" stroke="none" d="M337.323,0H2.834A2.834,2.834,0,0,0,0,2.834V337.323a2.834,2.834,0,0,0,2.834,2.834H337.323a2.834,2.834,0,0,0,2.834-2.834V2.834A2.834,2.834,0,0,0,337.323,0Zm-119.8,157.869a1.745,1.745,0,0,1,1.627,1.427,1.687,1.687,0,0,1-.325,1.3,1.817,1.817,0,0,0-.017,2.067l6.526,10.2a1.007,1.007,0,0,1-.951,1.547c-3.241-.342-11.244-1.372-30.989-1.372s-27.748,1.03-30.99,1.372a1.007,1.007,0,0,1-.951-1.547l6.569-10.266a1.708,1.708,0,0,0-.038-1.972,1.693,1.693,0,0,1,1.2-2.743c2.422-.172,8.574-.39,24.206-.39C208.865,157.485,215.05,157.7,217.523,157.869Zm-90.376-91.5a5.59,5.59,0,0,1,5.284-5.586c2.258-.124,5.481-.213,10.081-.213s7.823.089,10.081.213a5.589,5.589,0,0,1,5.283,5.586v4.965a5.594,5.594,0,0,1-5.594,5.594h-19.54a5.6,5.6,0,0,1-5.595-5.594Zm-5.653,205.9a14.415,14.415,0,0,1-14.415-14.415V165.6a17.929,17.929,0,0,1,3.3-10.388A15.162,15.162,0,0,0,111.5,139.48,34.708,34.708,0,0,1,117.754,99.3a43.436,43.436,0,0,0,9.056-13.449,5.544,5.544,0,0,1,5.113-3.335h21.164a5.548,5.548,0,0,1,5.117,3.345,42.287,42.287,0,0,0,8.964,13.287,34.793,34.793,0,0,1,6.347,40.349,15.077,15.077,0,0,0-1.066,10.958c-1.614.053-2.927.113-3.908.183a9.077,9.077,0,0,0-8.011,8.925c0,.086.008.172.01.258a5.007,5.007,0,0,1-.733,2.246l-4.353,6.8a7.836,7.836,0,0,0-1.218,4.025,8.167,8.167,0,0,0,.01,1.128,20.015,20.015,0,0,1-.415,4.6,8.361,8.361,0,0,0-.122,1.429l.01.075c0,.052-.01.1-.01.156v69.543a8.717,8.717,0,0,0,.941,3.922,8.085,8.085,0,0,0,.836,6.969l5.16,8.064a8.813,8.813,0,0,0-.012,2.756c.038.247.087.49.145.728ZM225.334,256.9l-6.569,10.266a1.708,1.708,0,0,0,.038,1.972,1.678,1.678,0,0,1,.368,1.051,1.7,1.7,0,0,1-1.572,1.693c-2.422.172-8.574.389-24.2.389-15.472,0-21.657-.213-24.13-.384a1.744,1.744,0,0,1-1.627-1.427,1.689,1.689,0,0,1,.325-1.294,1.818,1.818,0,0,0,.017-2.068l-6.526-10.2a1.007,1.007,0,0,1,.951-1.547c3.242.343,11.244,1.372,30.99,1.372s27.748-1.029,30.989-1.372A1.007,1.007,0,0,1,225.334,256.9Zm.658-7.068a1.674,1.674,0,0,1-1.325,1.644c-2.53.527-9.885,1.293-31.273,1.293s-28.744-.766-31.273-1.293a1.674,1.674,0,0,1-1.326-1.644V180.29a1.681,1.681,0,0,1,1.215-1.617c2.423-.7,9.674-1.756,31.384-1.756s28.96,1.053,31.383,1.756a1.681,1.681,0,0,1,1.215,1.617Z"/>
    </g>
  </g>
</svg>
