<svg xmlns="http://www.w3.org/2000/svg" width="120mm" height="128.18mm" viewBox="0 0 340.157 363.345">
  <g id="Schilder">
      <g id="H-42-R">
        <path fill="#A0552B" stroke="none" d="M79.827,244.534H1.417A1.417,1.417,0,0,1,0,243.117V2.835A2.835,2.835,0,0,1,2.835,0H337.323a2.834,2.834,0,0,1,2.834,2.835V337.323a2.835,2.835,0,0,1-2.834,2.835H287.829v.157l-52.292,22.909a1.418,1.418,0,0,1-1.986-1.3V277.652l12.163-5.328v-5.251L233.551,272.4V182.151a2.832,2.832,0,0,1,1.7-2.6l51.286-22.469H181.256a2.834,2.834,0,0,0-2.834,2.835v177.4a2.835,2.835,0,0,1-2.835,2.835H2.835A2.835,2.835,0,0,1,0,337.323V276.617A1.417,1.417,0,0,1,1.417,275.2h78.41a1.417,1.417,0,0,1,1.417,1.417v20.94a1.418,1.418,0,0,0,2.126,1.228l65.282-37.69a1.418,1.418,0,0,0,0-2.455L83.37,220.949a1.418,1.418,0,0,0-2.126,1.228v20.94A1.417,1.417,0,0,1,79.827,244.534Z"/>
      </g>
    </g>
</svg>
