<svg xmlns="http://www.w3.org/2000/svg" width="120mm" height="128.18mm" viewBox="0 0 340.157 363.345">
  <g id="Schilder">
      <g id="H-43">
        <path fill="#000000" stroke="none" d="M260.331,244.534H338.74a1.416,1.416,0,0,0,1.417-1.417V2.835A2.834,2.834,0,0,0,337.323,0H2.835A2.835,2.835,0,0,0,0,2.835V337.323a2.835,2.835,0,0,0,2.835,2.835H52.329v.157l52.291,22.909a1.418,1.418,0,0,0,1.986-1.3V277.652l-12.163-5.328v-5.251l12.163,5.329V182.151a2.833,2.833,0,0,0-1.7-2.6L53.623,157.086H158.9a2.835,2.835,0,0,1,2.835,2.835v177.4a2.835,2.835,0,0,0,2.834,2.835H337.323a2.835,2.835,0,0,0,2.834-2.835V276.617a1.416,1.416,0,0,0-1.417-1.417H260.331a1.416,1.416,0,0,0-1.417,1.417v20.94a1.418,1.418,0,0,1-2.126,1.228L191.506,261.1a1.417,1.417,0,0,1,0-2.455l65.282-37.691a1.418,1.418,0,0,1,2.126,1.228v20.94A1.416,1.416,0,0,0,260.331,244.534Z"/>
      </g>
    </g>
</svg>
