<svg xmlns="http://www.w3.org/2000/svg" width="120mm" height="120mm" viewBox="0 0 340.157 340.157">
  <g id="Schilder">
      <g id="H-44-M">
        <path fill="#D4AF37" stroke="none" d="M337.323,0H2.834A2.834,2.834,0,0,0,0,2.835V337.323a2.834,2.834,0,0,0,2.834,2.834H337.323a2.834,2.834,0,0,0,2.834-2.834V2.835A2.834,2.834,0,0,0,337.323,0Zm-267,69.773h63.275v43.662H195.34v54.581H173.508V135.268H111.761V91.605H70.319Zm198.175,87.362H228.58V200.8H166.832v43.663H105.085V277.21H83.252V222.629H145V178.967h61.748V135.3h61.747Z"/>
      </g>
    </g>
</svg>
