<svg xmlns="http://www.w3.org/2000/svg" width="120mm" height="120mm" viewBox="0 0 340.157 340.157">
  <g id="Schilder">
      <g id="H-46">
        <path fill="#000000" stroke="none" d="M337.323,0H2.835A2.834,2.834,0,0,0,0,2.834V337.323a2.834,2.834,0,0,0,2.835,2.834H337.323a2.834,2.834,0,0,0,2.834-2.834V2.834A2.834,2.834,0,0,0,337.323,0ZM230.006,195.613a33.582,33.582,0,0,1-9.218,12.76,38.134,38.134,0,0,1-14.259,7.447,65.956,65.956,0,0,1-18.391,2.407H165.29V199.246h21.486q10.714,0,16.983-5.722t6.267-16.348A28.724,28.724,0,0,0,208.436,167a16.717,16.717,0,0,0-4.541-6.766,17.648,17.648,0,0,0-7.175-3.723,36.577,36.577,0,0,0-9.49-1.136H152.809v113.8h-23.25V136.4h58.579a64.079,64.079,0,0,1,18.482,2.5,39.211,39.211,0,0,1,14.259,7.538,33.177,33.177,0,0,1,9.173,12.76,46.948,46.948,0,0,1,3.224,18.164A46.59,46.59,0,0,1,230.006,195.613ZM275.187,123.9a1.752,1.752,0,0,1-2.535,1.567L170.862,74.568a1.75,1.75,0,0,0-1.567,0l-101.79,50.9A1.752,1.752,0,0,1,64.97,123.9v-19.61a1.753,1.753,0,0,1,.968-1.567L169.3,51.041a1.75,1.75,0,0,1,1.567,0l103.357,51.678a1.753,1.753,0,0,1,.968,1.567Z"/>
      </g>
    </g>
</svg>
