<svg xmlns="http://www.w3.org/2000/svg" width="119.999mm" height="120mm" viewBox="0 0 340.155 340.158">
  <g id="Schilder">
      <g id="H-51">
        <path fill="#000000" stroke="none" d="M337.32,0H2.835A2.835,2.835,0,0,0,0,2.835V337.323a2.835,2.835,0,0,0,2.835,2.835H337.32a2.835,2.835,0,0,0,2.835-2.835V2.835A2.836,2.836,0,0,0,337.32,0ZM70.719,147.046a17.007,17.007,0,0,1,17.007-17.007H196.89A17.007,17.007,0,0,1,213.9,147.046v51.748a2.834,2.834,0,0,1-2.834,2.834H73.553a2.834,2.834,0,0,1-2.834-2.834ZM219.537,227.2H213.9V240.61a4.854,4.854,0,0,1-4.853,4.854h-7.281a4.854,4.854,0,0,1-4.853-4.854V227.2H87.706V240.61a4.854,4.854,0,0,1-4.854,4.854h-7.28a4.854,4.854,0,0,1-4.853-4.854V227.2H65.08a19.842,19.842,0,0,1-19.842-19.843V172.475a8.494,8.494,0,1,1,16.987,0v29.234a8.5,8.5,0,0,0,8.5,8.5H213.888a8.5,8.5,0,0,0,8.5-8.5V172.475a8.494,8.494,0,0,1,8.493-8.494h0a8.493,8.493,0,0,1,8.493,8.494v34.883A19.842,19.842,0,0,1,219.537,227.2Zm59.742,18.263H242.611a4.374,4.374,0,0,1-4.414-3.835,4.252,4.252,0,0,1,4.231-4.669H256.6V137.286h8.5V236.96H279.1a4.375,4.375,0,0,1,4.415,3.834A4.253,4.253,0,0,1,279.279,245.464ZM285.828,129H235.882a2.834,2.834,0,0,1-2.792-3.323l8.929-51.024a2.836,2.836,0,0,1,2.793-2.346H276.9a2.836,2.836,0,0,1,2.793,2.346l8.929,51.024A2.835,2.835,0,0,1,285.828,129Z"/>
      </g>
    </g>
</svg>
