<svg xmlns="http://www.w3.org/2000/svg" width="120mm" height="120mm" viewBox="0 0 340.158 340.157">
  <g id="Schilder">
      <g id="H-54-M">
        <path fill="#D4AF37" stroke="none" d="M337.323,0H2.835A2.835,2.835,0,0,0,0,2.835V337.323a2.835,2.835,0,0,0,2.835,2.834H337.323a2.833,2.833,0,0,0,2.835-2.834h0V2.835A2.835,2.835,0,0,0,337.323,0ZM137.045,75.653h0a2.834,2.834,0,0,1,2.834-2.834h15.787a11.657,11.657,0,1,1,23.313,0h15.787a2.834,2.834,0,0,1,2.834,2.834V90.169h0A2.834,2.834,0,0,1,194.766,93H139.879a2.834,2.834,0,0,1-2.834-2.835Zm-29.64,159.506V82.5a8.5,8.5,0,0,1,8.5-8.5h13.062V90.169a10.908,10.908,0,0,0,10.908,10.909h54.887a10.909,10.909,0,0,0,10.908-10.909h0V73.992h13.2a8.5,8.5,0,0,1,8.5,8.5v94.66H158.424a22.184,22.184,0,0,1-1.476-1.91,24.289,24.289,0,0,1-1.323-2.149c-.1-.174-.187-.35-.276-.527-.123-.247-.244-.5-.36-.746l14.751.048a5.6,5.6,0,0,0,2.007-.372,4.665,4.665,0,0,0,1.571-1,4.561,4.561,0,0,0,1.044-1.533,4.962,4.962,0,0,0,.377-1.9,4.806,4.806,0,0,0-.385-1.884,4.112,4.112,0,0,0-1.036-1.449,4.729,4.729,0,0,0-1.558-.925,6.015,6.015,0,0,0-2.02-.349l-17.108-.055q-.072-.861-.11-1.725-.034-.776-.034-1.553,0-.408.01-.816.012-.453.034-.905l17.208.055a5.792,5.792,0,0,0,2.014-.361,4.673,4.673,0,0,0,1.564-.962,4.332,4.332,0,0,0,1.04-1.491,4.883,4.883,0,0,0,0-3.782,4.332,4.332,0,0,0-1.04-1.491,4.692,4.692,0,0,0-1.564-.963,5.814,5.814,0,0,0-2.014-.36L154.564,148q.236-.564.494-1.117c.132-.285.273-.566.42-.844a23.652,23.652,0,0,1,3.6-5.056,22.328,22.328,0,0,1,4.678-3.815A21.108,21.108,0,0,1,169.3,134.8a25.2,25.2,0,0,1,6.522-.859,17.97,17.97,0,0,1,2.809.22,18.535,18.535,0,0,1,2.779.662,22.141,22.141,0,0,1,2.663,1.05,19.457,19.457,0,0,1,2.336,1.3,7.216,7.216,0,0,0,1.813.622,5.139,5.139,0,0,0,1.618.064,3.673,3.673,0,0,0,1.481-.509,4.4,4.4,0,0,0,1.264-1.157,5.6,5.6,0,0,0,1.078-2,4.879,4.879,0,0,0,.147-2.118,4.7,4.7,0,0,0-.3-1.091,3.912,3.912,0,0,0-.515-.9,4.039,4.039,0,0,0-.7-.718,5.534,5.534,0,0,0-.98-.628,26.594,26.594,0,0,0-3.461-1.889,29.418,29.418,0,0,0-7.953-2.327,28.472,28.472,0,0,0-4.074-.293,36.242,36.242,0,0,0-7.009.684,30.545,30.545,0,0,0-6.175,1.914,32.685,32.685,0,0,0-5.656,3.134,31.42,31.42,0,0,0-8.737,9.125,35.943,35.943,0,0,0-3.055,6.071q-.249.642-.47,1.293-.255.754-.479,1.517l-5.079-.016a5.826,5.826,0,0,0-2.016.36,4.683,4.683,0,0,0-1.562.963,4.315,4.315,0,0,0-1.04,1.489,4.88,4.88,0,0,0,0,3.786,4.3,4.3,0,0,0,1.039,1.489,4.665,4.665,0,0,0,1.562.962,5.8,5.8,0,0,0,2.016.361l3.565.011c-.012.309-.021.619-.028.928-.006.275-.008.55-.008.825q0,.752.026,1.5.03.875.087,1.747l-3.642-.012a6.033,6.033,0,0,0-2.023.35,4.672,4.672,0,0,0-1.555.925,4.11,4.11,0,0,0-1.036,1.445,4.821,4.821,0,0,0-.385,1.887,4.954,4.954,0,0,0,.378,1.9,4.526,4.526,0,0,0,1.043,1.531,4.634,4.634,0,0,0,1.568,1,5.616,5.616,0,0,0,2.01.372l5.348.018q.213.669.447,1.331.178.505.38,1a36.806,36.806,0,0,0,1.819,3.854,31.474,31.474,0,0,0,2.1,3.338v62.345H115.909A8.5,8.5,0,0,1,107.405,235.159Zm99.054,7.966h-6.317a2.834,2.834,0,0,1-2.835-2.834v-6.318h0a2.835,2.835,0,0,1,2.835-2.835h6.317a2.835,2.835,0,0,1,2.835,2.835v6.318h0A2.834,2.834,0,0,1,206.459,243.125Zm2.835,8.893v6.317h0a2.834,2.834,0,0,1-2.835,2.834h-6.317a2.835,2.835,0,0,1-2.835-2.835v-6.317a2.835,2.835,0,0,1,2.835-2.835h6.317A2.835,2.835,0,0,1,209.294,252.018Zm-2.771-26.809h-6.317a2.835,2.835,0,0,1-2.835-2.835v-6.318h0a2.834,2.834,0,0,1,2.835-2.834h6.317a2.834,2.834,0,0,1,2.835,2.834v6.318h0A2.835,2.835,0,0,1,206.523,225.209Zm-42.644-17.981h0a2.834,2.834,0,0,1-2.834-2.834V192.082a2.834,2.834,0,0,1,2.834-2.834H224.14a2.834,2.834,0,0,1,2.834,2.834v12.312a2.834,2.834,0,0,1-2.835,2.834Zm24.6,35.929h-6.318a2.834,2.834,0,0,1-2.835-2.834v-6.318a2.835,2.835,0,0,1,2.835-2.835h6.318a2.835,2.835,0,0,1,2.834,2.835v6.318h0A2.834,2.834,0,0,1,188.479,243.157Zm2.834,8.893v6.318a2.834,2.834,0,0,1-2.834,2.834h-6.318a2.834,2.834,0,0,1-2.835-2.834V252.05h0a2.835,2.835,0,0,1,2.835-2.835h6.318A2.834,2.834,0,0,1,191.313,252.05Zm-2.834-26.841h-6.318a2.835,2.835,0,0,1-2.835-2.835v-6.318h0a2.834,2.834,0,0,1,2.835-2.834h6.318a2.834,2.834,0,0,1,2.834,2.834v6.318h0A2.834,2.834,0,0,1,188.479,225.209ZM170.5,243.189H164.18a2.833,2.833,0,0,1-2.834-2.834v-6.318h0a2.834,2.834,0,0,1,2.834-2.835H170.5a2.836,2.836,0,0,1,2.835,2.835v6.318A2.835,2.835,0,0,1,170.5,243.189Zm2.835,8.893V258.4h0a2.835,2.835,0,0,1-2.835,2.834H164.18a2.834,2.834,0,0,1-2.834-2.834v-6.318h0a2.834,2.834,0,0,1,2.834-2.835H170.5A2.835,2.835,0,0,1,173.333,252.082ZM170.5,225.209H164.18a2.834,2.834,0,0,1-2.834-2.835v-6.318h0a2.834,2.834,0,0,1,2.834-2.834H170.5a2.835,2.835,0,0,1,2.835,2.834v6.318h0A2.835,2.835,0,0,1,170.5,225.209Zm44.79,15.05v-6.318h0a2.834,2.834,0,0,1,2.834-2.835h6.318a2.834,2.834,0,0,1,2.834,2.835V258.3h0a2.834,2.834,0,0,1-2.834,2.834h-6.318a2.834,2.834,0,0,1-2.834-2.835Zm9.248-15.05h-6.318a2.834,2.834,0,0,1-2.834-2.835v-6.318h0a2.834,2.834,0,0,1,2.834-2.834h6.318a2.834,2.834,0,0,1,2.835,2.834v6.318h0A2.835,2.835,0,0,1,224.536,225.209Zm20.3,42.447h0A11.339,11.339,0,0,1,233.5,279H154.919a11.339,11.339,0,0,1-11.338-11.339v-18h5.669v18a5.67,5.67,0,0,0,5.669,5.67H233.5a5.67,5.67,0,0,0,5.669-5.67V182.825a5.669,5.669,0,0,0-5.669-5.669h-.128v-5.669h.128a11.338,11.338,0,0,1,11.338,11.338Z"/>
      </g>
    </g>
</svg>
