<svg xmlns="http://www.w3.org/2000/svg" width="120mm" height="120mm" viewBox="0 0 340.157 340.157">
  <g id="Schilder">
      <g id="H-62">
        <path fill="#000000" stroke="none" d="M0,2.835V337.323a2.834,2.834,0,0,0,2.835,2.834H337.323a2.834,2.834,0,0,0,2.834-2.834V2.835A2.834,2.834,0,0,0,337.323,0H2.835A2.835,2.835,0,0,0,0,2.835ZM70.045,166.386A17.756,17.756,0,0,1,66.175,173a19.213,19.213,0,0,1-6.885,4.635,26.821,26.821,0,0,1-10.26,1.756H42.684v-10.98H45.16a29.6,29.6,0,0,0,4.681-.36,10.9,10.9,0,0,0,3.961-1.4,7.6,7.6,0,0,0,2.745-2.925,12.352,12.352,0,0,0,0-9.9,7.619,7.619,0,0,0-2.745-2.925,10.915,10.915,0,0,0-3.961-1.395,29.714,29.714,0,0,0-4.681-.361H34.18v53.28H20.05V138.171H49.03a26.772,26.772,0,0,1,10.26,1.755,19.178,19.178,0,0,1,6.885,4.635,17.824,17.824,0,0,1,3.87,6.57C71.742,156.194,72.261,161.5,70.045,166.386ZM121.3,202.432a24.866,24.866,0,0,1-1.441-7.29q-.268-4.231-.81-8.1-.722-5.041-3.06-7.38t-7.65-2.341h-5.626v-10.08h6.976q4.86,0,7.29-2.161t2.43-7.02q0-4.678-2.43-6.794t-7.29-2.115H94.209v53.281H80.079V138.171h34.65a20.711,20.711,0,0,1,7.785,1.4,17.944,17.944,0,0,1,5.939,3.825,16.645,16.645,0,0,1,3.781,5.625,18.061,18.061,0,0,1,1.3,6.885,19.33,19.33,0,0,1-2.384,9.81,14.979,14.979,0,0,1-7.786,6.3v.179a10.91,10.91,0,0,1,4.321,2.2,12.259,12.259,0,0,1,2.791,3.51,16.4,16.4,0,0,1,1.575,4.455,38.813,38.813,0,0,1,.674,4.861q.09,1.53.181,3.6t.315,4.231a27.976,27.976,0,0,0,.72,4.094,9.426,9.426,0,0,0,1.485,3.286H121.3Zm37.888,0h-14.13V138.171h14.129v64.261Zm26.37,0-20.79-64.261h14.49l14.31,45.181h.18l14.49-45.181h14.58l-21.33,64.261h-15.93Zm80.01,0-4.859-14.31H245.7l3.711-10.53h7.607l-8.1-23.581h-.18l-17.1,48.421h-14.22l24.3-64.261h14.489l24.03,64.261H265.568Zm59.579-52.38H305.888v52.38h-14.13v-52.38H272.5V138.171h52.648v11.88Z"/>
      </g>
    </g>
</svg>
