<svg xmlns="http://www.w3.org/2000/svg" width="120mm" height="120mm" viewBox="0 0 340.157 340.157">
  <g id="Schilder">
      <g id="H-63-R">
        <path fill="#A0552B" stroke="none" d="M0,2.835V337.323a2.834,2.834,0,0,0,2.835,2.834H337.323a2.834,2.834,0,0,0,2.834-2.834V2.835A2.834,2.834,0,0,0,337.323,0H2.835A2.835,2.835,0,0,0,0,2.835ZM65.33,202.392H19.88V138.131H34.01v52.38H65.33v11.88Zm55.619,0-4.86-14.311H101.075l3.707-10.529H112.4l-8.1-23.581h-.18l-17.1,48.421H72.8l24.3-64.261h14.49l24.029,64.261Zm77.129,0h-9l-1.44-7.29a21.191,21.191,0,0,1-8.37,6.795,23.726,23.726,0,0,1-9.27,1.934,32.961,32.961,0,0,1-13.275-2.564,28.439,28.439,0,0,1-9.945-7.066,31.242,31.242,0,0,1-6.21-10.575,38.8,38.8,0,0,1-2.161-13.095,40.18,40.18,0,0,1,2.161-13.365,32.094,32.094,0,0,1,6.21-10.754,28.4,28.4,0,0,1,9.945-7.2A32.467,32.467,0,0,1,170,136.6a31.268,31.268,0,0,1,9.585,1.484,27.189,27.189,0,0,1,8.369,4.366,23.6,23.6,0,0,1,9.136,16.83h-13.5a13.52,13.52,0,0,0-4.861-8.1,14.136,14.136,0,0,0-8.729-2.7,16.49,16.49,0,0,0-8.1,1.845,15.287,15.287,0,0,0-5.4,4.95,21.659,21.659,0,0,0-3.015,7.065,35.186,35.186,0,0,0-.945,8.19,32.7,32.7,0,0,0,.945,7.875,21.226,21.226,0,0,0,3.015,6.885,15.409,15.409,0,0,0,5.4,4.905,16.468,16.468,0,0,0,8.1,1.845q7.02,0,10.845-3.555t4.454-10.3h-14.22V167.651h27v34.741Zm60.209,0H209.508V138.131h48.059V150.01h-33.93v13.77h31.14v10.981h-31.14v15.75h34.65v11.88Zm50.76,0a24.806,24.806,0,0,1-1.438-7.29q-.274-4.23-.812-8.1-.72-5.039-3.06-7.38t-7.651-2.34h-5.624V167.2h6.976q4.857,0,7.29-2.16t2.429-7.02q0-4.679-2.429-6.795t-7.29-2.115H281.956v53.281H267.827V138.131h34.649a20.692,20.692,0,0,1,7.785,1.4,17.956,17.956,0,0,1,5.942,3.825,16.674,16.674,0,0,1,3.781,5.625,18.118,18.118,0,0,1,1.3,6.885,19.33,19.33,0,0,1-2.384,9.81,14.993,14.993,0,0,1-7.785,6.3v.179a10.922,10.922,0,0,1,4.319,2.2,12.218,12.218,0,0,1,2.789,3.51,16.3,16.3,0,0,1,1.575,4.455,38.846,38.846,0,0,1,.677,4.861q.087,1.53.18,3.6t.315,4.23a28.013,28.013,0,0,0,.72,4.095,9.425,9.425,0,0,0,1.483,3.285H309.047Z"/>
      </g>
    </g>
</svg>
