<svg xmlns="http://www.w3.org/2000/svg" width="120mm" height="120mm" viewBox="0 0 340.157 340.157">
  <g id="Schilder">
      <g id="H-64-R">
        <path fill="#A0552B" stroke="none" d="M0,2.835V337.323a2.834,2.834,0,0,0,2.835,2.834H337.323a2.834,2.834,0,0,0,2.834-2.834V2.835A2.834,2.834,0,0,0,337.323,0H2.835A2.835,2.835,0,0,0,0,2.835ZM112.374,120.4h11.664v10.53H112.374Zm-17.8,0H106.24v10.53H94.576ZM60.8,202.392,42.219,173.5l-7.776,8.19v20.7H20.878V138.131H34.443v26.64l24.106-26.64H75.483l-24.106,25.38,26.439,38.881H60.8Zm74.821-24.3q0,13.05-7,19.394t-19.354,6.344q-12.528,0-19.4-6.3T83,178.091v-39.96H96.563v39.961a30.208,30.208,0,0,0,.432,5.13,10.63,10.63,0,0,0,1.815,4.455,10.068,10.068,0,0,0,3.845,3.149,15.044,15.044,0,0,0,6.609,1.215q7.258,0,10.022-3.375t2.765-10.574V138.131h13.565v39.961Zm63.763,10.439a26.079,26.079,0,0,1-5.7,8.28,24.052,24.052,0,0,1-8.295,5.22,29.325,29.325,0,0,1-10.454,1.8,30.534,30.534,0,0,1-12.744-2.565,27.345,27.345,0,0,1-9.547-7.065,31.563,31.563,0,0,1-5.961-10.576,40.264,40.264,0,0,1-2.074-13.094,41.665,41.665,0,0,1,2.074-13.366,32.452,32.452,0,0,1,5.961-10.754,27.344,27.344,0,0,1,9.547-7.2,31.841,31.841,0,0,1,22.378-1.08,25.8,25.8,0,0,1,8.121,4.455,23.88,23.88,0,0,1,5.919,7.245,26.681,26.681,0,0,1,2.937,9.9H188.406a11.875,11.875,0,0,0-1.555-4.455,14.078,14.078,0,0,0-3.024-3.555,13.856,13.856,0,0,0-4.1-2.385,13.619,13.619,0,0,0-4.794-.856,15.314,15.314,0,0,0-7.776,1.845,14.922,14.922,0,0,0-5.185,4.95,22.17,22.17,0,0,0-2.894,7.065,36.578,36.578,0,0,0-.907,8.19,34,34,0,0,0,.907,7.875,21.691,21.691,0,0,0,2.894,6.885,15.042,15.042,0,0,0,5.185,4.905,15.3,15.3,0,0,0,7.776,1.845q6.222,0,9.72-3.961a18.707,18.707,0,0,0,4.277-10.439h13.133A33.759,33.759,0,0,1,199.379,188.531ZM263.4,202.392H249.836V174.671h-24.97v27.721H211.3V138.131h13.564v24.66h24.97v-24.66H263.4v64.261Zm58.751,0H275.324V138.131h46.138V150.01H288.889v13.77h29.894v10.981H288.889v15.75h33.264v11.88Z"/>
      </g>
    </g>
</svg>
