<svg xmlns="http://www.w3.org/2000/svg" width="120mm" height="120mm" viewBox="0 0 340.158 340.157">
  <g id="Schilder">
      <g id="H-65">
        <path fill="#000000" stroke="none" d="M337.323,0H2.835A2.835,2.835,0,0,0,0,2.835V337.323a2.834,2.834,0,0,0,2.835,2.834H337.323a2.834,2.834,0,0,0,2.835-2.834V2.835A2.835,2.835,0,0,0,337.323,0ZM119.644,196.864a20.042,20.042,0,0,1-6.215,7.095,27.5,27.5,0,0,1-8.91,4.07,40.168,40.168,0,0,1-10.285,1.32H81.948v-13.42h9.976a23.052,23.052,0,0,0,4.84-.5,11.883,11.883,0,0,0,4.07-1.65,8.326,8.326,0,0,0,2.8-3.135,10.8,10.8,0,0,0,1.045-5.06q0-6.048-3.41-8.635a14.562,14.562,0,0,0-9.02-2.585H81.948V162.6h8.986a12.414,12.414,0,0,0,7.59-2.2q2.97-2.2,2.97-7.15a9.134,9.134,0,0,0-.99-4.51,7.333,7.333,0,0,0-2.64-2.75,11.156,11.156,0,0,0-3.8-1.375,25.241,25.241,0,0,0-4.455-.385H73.444v65.12H56.174v-78.54h36.96a48.914,48.914,0,0,1,10.23.99,22.112,22.112,0,0,1,7.92,3.245,15.106,15.106,0,0,1,5.115,5.995,21.071,21.071,0,0,1,1.815,9.24,17.208,17.208,0,0,1-2.695,9.9,19.579,19.579,0,0,1-7.975,6.49q7.26,2.091,10.835,7.315a24.008,24.008,0,0,1,1.265,22.88Zm64.569,12.485-5.94-17.49H157.9l4.523-12.87h11.337l-9.9-28.82h-.22l-20.9,59.18h-17.38l29.7-78.54h17.71l29.371,78.54Zm97.57-23.87a34.875,34.875,0,0,1-6.655,12.54,31.183,31.183,0,0,1-11.11,8.305,37.58,37.58,0,0,1-15.675,3.025h-8.106v-14.52h6.9a22.157,22.157,0,0,0,7.26-1.21,15.981,15.981,0,0,0,6.27-4.015,20.184,20.184,0,0,0,4.4-7.315,32.177,32.177,0,0,0,1.65-11,45.794,45.794,0,0,0-1.155-10.725,21.4,21.4,0,0,0-3.8-8.195,16.846,16.846,0,0,0-6.985-5.225,27.9,27.9,0,0,0-10.725-1.815h-12.32v64.02h-17.27v-78.54h33.88a40.453,40.453,0,0,1,14.135,2.42,30.709,30.709,0,0,1,11.33,7.26,33.545,33.545,0,0,1,7.48,12.1,48.962,48.962,0,0,1,2.695,17.05A54.433,54.433,0,0,1,281.783,185.479Z"/>
      </g>
    </g>
</svg>
