<svg xmlns="http://www.w3.org/2000/svg" width="120mm" height="120mm" viewBox="0 0 340.157 340.157">
  <g id="Schilder">
      <g id="H-66-R">
        <path fill="#A0552B" stroke="none" d="M337.323,0H2.834A2.834,2.834,0,0,0,0,2.835V337.323a2.834,2.834,0,0,0,2.834,2.834H337.323a2.834,2.834,0,0,0,2.834-2.834V2.835A2.834,2.834,0,0,0,337.323,0ZM60.835,181.349a25.249,25.249,0,0,1-4.59,9.062,21.45,21.45,0,0,1-7.851,6.035,26.724,26.724,0,0,1-11.27,2.188H30.209V190.47H33.3a26.216,26.216,0,0,0,8.945-1.329,13.973,13.973,0,0,0,5.879-3.906,15.368,15.368,0,0,0,3.223-6.386,40.241,40.241,0,0,0,0-17.618,15.212,15.212,0,0,0-3.223-6.367A13.932,13.932,0,0,0,42.241,151a26.6,26.6,0,0,0-8.945-1.309H23.452v48.946h-10v-57.11H37.124a26.739,26.739,0,0,1,11.27,2.188,21.563,21.563,0,0,1,7.851,6.015,25.058,25.058,0,0,1,4.59,9.063,41.256,41.256,0,0,1,1.484,11.289A41.044,41.044,0,0,1,60.835,181.349Zm53.362-3.262a25.3,25.3,0,0,1-1.679,9.59,18.36,18.36,0,0,1-4.727,6.855,19.809,19.809,0,0,1-7.363,4.1,34.389,34.389,0,0,1-19.2,0,20.354,20.354,0,0,1-7.442-4.1,18.255,18.255,0,0,1-4.805-6.836,24.536,24.536,0,0,1-1.66-9.609V141.524h10v33.282q0,2.188.117,4.355a19.026,19.026,0,0,0,.665,4.121,11.425,11.425,0,0,0,1.757,3.633,10.648,10.648,0,0,0,3.36,2.93,15.833,15.833,0,0,0,7.578,1.523,16.735,16.735,0,0,0,6.953-1.211,9.572,9.572,0,0,0,4.062-3.379,12.807,12.807,0,0,0,1.915-5.234,44.808,44.808,0,0,0,.468-6.738V141.524h10Zm45.9,17.734Q153.848,200,143.965,200t-16.172-4.883q-6.954-5.351-7.109-15.508h10q0,6.25,4.023,9.219a16.688,16.688,0,0,0,10.273,3.008q6.249,0,9.219-2.461a7.624,7.624,0,0,0,3.008-5.977q.038-3.476-1.445-5.039a9.6,9.6,0,0,0-3.907-2.461q-2.422-.858-6.406-1.875-4.064-1.014-8.867-2.265a24.807,24.807,0,0,1-7.227-2.852,13.573,13.573,0,0,1-6.523-12.109,14.147,14.147,0,0,1,6.211-12.266,25.45,25.45,0,0,1,15.039-4.375,24.567,24.567,0,0,1,15.234,4.8q6.328,4.8,6.329,13.437h-10q-.7-10.077-12.344-10.078-6.72,0-9.492,3.828a7.1,7.1,0,0,0-1.016,4.063,5.535,5.535,0,0,0,1.914,4.3,12.311,12.311,0,0,0,4.922,2.617q9.375,2.343,16.484,4.375a15.659,15.659,0,0,1,8.2,5.664,14.926,14.926,0,0,1,2.891,8.828A15.51,15.51,0,0,1,160.1,195.821Zm55.587-2.265Q209.005,200,198.654,200q-12.462,0-19.922-8.594-7.422-8.592-7.422-21.25t7.266-21.133a26.027,26.027,0,0,1,8.593-6.484,24.187,24.187,0,0,1,10.7-2.383q10.7,0,17.382,5.234a20.1,20.1,0,0,1,7.657,14.3h-10q-2.071-8.085-8.75-10.547a19.293,19.293,0,0,0-6.211-.82,14.472,14.472,0,0,0-7.188,1.836,15.778,15.778,0,0,0-5.39,4.922q-4.182,6.133-4.063,15a33.155,33.155,0,0,0,.977,8.008q2.146,8.438,8.476,11.914a14.984,14.984,0,0,0,7.305,1.836q7.03,0,10.742-4.18a18.758,18.758,0,0,0,4.414-10.781h9.766Q222.365,187.306,215.685,193.556Zm58.948,5.078h-10V172.891H238.657v25.743h-10v-57.11h10v22.7h25.976v-22.7h10Zm52.072,0h-41.68v-57.11h41.094v8.633H295.025v14.961h28.789v8.164H295.025V190h31.68Z"/>
      </g>
    </g>
</svg>
