<svg xmlns="http://www.w3.org/2000/svg" width="120mm" height="120mm" viewBox="0 0 340.157 340.157">
  <g id="Schilder">
      <g id="H-67-M">
        <path fill="#D4AF37" stroke="none" d="M339.327.83a2.83,2.83,0,0,0-2-.83H2.835A2.834,2.834,0,0,0,0,2.834V337.323a2.834,2.834,0,0,0,2.835,2.834H337.323a2.834,2.834,0,0,0,2.834-2.834V2.834A2.834,2.834,0,0,0,339.327.83ZM65.006,188.254a16.429,16.429,0,0,1-1.406,3.965,16.021,16.021,0,0,1-2.432,3.529,20.009,20.009,0,0,1-3.619,3.131,23.608,23.608,0,0,1-3.918,2.115,29.634,29.634,0,0,1-4.744,1.554,34.793,34.793,0,0,1-4.288.734,47.736,47.736,0,0,1-5.1.273,40.88,40.88,0,0,1-5.163-.327,30.253,30.253,0,0,1-4.361-.885,26.608,26.608,0,0,1-4.635-1.782,23.274,23.274,0,0,1-3.933-2.469,20.024,20.024,0,0,1-3.55-3.516,19.1,19.1,0,0,1-2.495-4.187,21.112,21.112,0,0,1-1.345-4.311,29.791,29.791,0,0,1-.564-5.336H24.641a19.052,19.052,0,0,0,.273,3.217,12.541,12.541,0,0,0,.71,2.52,10.731,10.731,0,0,0,1.453,2.552,10.346,10.346,0,0,0,2.065,2.025,15.077,15.077,0,0,0,2.509,1.52,17.351,17.351,0,0,0,2.953,1.1,19.575,19.575,0,0,0,2.766.545,26.6,26.6,0,0,0,3.266.2q1.521,0,3.036-.147a19.532,19.532,0,0,0,2.369-.378,14.734,14.734,0,0,0,2.894-.968,8.991,8.991,0,0,0,2.015-1.26,11.181,11.181,0,0,0,1.463-1.464,8.312,8.312,0,0,0,.993-1.5,7.914,7.914,0,0,0,.662-1.764,8.756,8.756,0,0,0,.247-1.962,12.843,12.843,0,0,0-.5-3.677,4.738,4.738,0,0,0-1.12-1.96,9.171,9.171,0,0,0-1.838-1.525,12.8,12.8,0,0,0-2.533-1.229q-1.355-.48-2.736-.884-2.2-.646-4.431-1.213-2.286-.572-4.568-1.155-2.677-.684-5.352-1.38A45.393,45.393,0,0,1,26,170.25a15.44,15.44,0,0,1-2.845-1.482,18.1,18.1,0,0,1-3.285-2.725,14.1,14.1,0,0,1-2.207-3.055,14.282,14.282,0,0,1-1.317-3.5,18.886,18.886,0,0,1-.49-4.27,19.9,19.9,0,0,1,.46-4.256,15.064,15.064,0,0,1,1.239-3.512,14.675,14.675,0,0,1,2.121-3.15,18.015,18.015,0,0,1,3.129-2.8,25.115,25.115,0,0,1,3.779-2.2,26.906,26.906,0,0,1,4.24-1.571,29.316,29.316,0,0,1,4.107-.828,36.926,36.926,0,0,1,4.7-.3,33.979,33.979,0,0,1,4.769.336,27.676,27.676,0,0,1,4.209.933,26.011,26.011,0,0,1,8.066,4.107,18.706,18.706,0,0,1,3.2,3.094,16.343,16.343,0,0,1,2.2,3.537A17.364,17.364,0,0,1,63.3,152.4a23.485,23.485,0,0,1,.457,4.611H52.567a17.459,17.459,0,0,0-.41-2.728,11.71,11.71,0,0,0-.724-2.149,10.075,10.075,0,0,0-1.329-2.178,9.382,9.382,0,0,0-1.777-1.7,10.34,10.34,0,0,0-1.985-1.145,14.655,14.655,0,0,0-2.591-.858,18.149,18.149,0,0,0-2.235-.371,27.058,27.058,0,0,0-2.759-.141,22.864,22.864,0,0,0-3.337.245,13.826,13.826,0,0,0-2.528.62,10.854,10.854,0,0,0-2.767,1.437,8.772,8.772,0,0,0-1.988,1.981,5.477,5.477,0,0,0-.8,1.766A11.468,11.468,0,0,0,27,154.564a6.461,6.461,0,0,0,2.142,4.807,10.98,10.98,0,0,0,2.275,1.609,17.289,17.289,0,0,0,3.231,1.32q5.224,1.3,10.429,2.687,4.017,1.067,8.014,2.207a20.727,20.727,0,0,1,5.439,2.679,15.429,15.429,0,0,1,3.739,3.658,17.106,17.106,0,0,1,3.234,9.877A22.052,22.052,0,0,1,65.006,188.254Zm54.129,13.771-5.988-16.913H92.663l3.015-8.522h14.5l-9.571-27.445h-.263l-18.7,52.88H70.1l24.517-63.893H106.5l24.605,63.893Zm72.03-22.987a34.949,34.949,0,0,1-.522,6.014,23.046,23.046,0,0,1-1.357,4.715,22.648,22.648,0,0,1-2.323,4.3,19.059,19.059,0,0,1-2.965,3.37,20.206,20.206,0,0,1-3.662,2.613,24.676,24.676,0,0,1-4.576,1.975,30.489,30.489,0,0,1-4.895,1.116,41.362,41.362,0,0,1-11.668,0,30.777,30.777,0,0,1-4.917-1.117,25.326,25.326,0,0,1-4.6-1.97,20.94,20.94,0,0,1-3.723-2.618,19.234,19.234,0,0,1-3.027-3.377,22.177,22.177,0,0,1-3.709-8.967,34.227,34.227,0,0,1-.5-6.055V138.132H149.91v37.235q0,1.222.033,2.446t.1,2.426a22.918,22.918,0,0,0,.259,2.411,19.7,19.7,0,0,0,.484,2.2,12.552,12.552,0,0,0,.794,2.1,13.052,13.052,0,0,0,1.173,1.966,9.86,9.86,0,0,0,1.532,1.682,14.384,14.384,0,0,0,2.226,1.6,11.406,11.406,0,0,0,3.236,1.183,26.6,26.6,0,0,0,5.242.522,27.728,27.728,0,0,0,4.761-.412,12.2,12.2,0,0,0,3.019-.943,12.073,12.073,0,0,0,2.651-1.676,9.852,9.852,0,0,0,1.894-2.1,12.117,12.117,0,0,0,1.294-2.554,17.169,17.169,0,0,0,.847-3.3q.262-1.711.382-3.441.143-2.044.143-4.1V138.132h11.187Zm66.481,22.987h-11.8l-29.106-46.98h-.262v46.98H205.815V138.132h11.843l29.15,47.068h.175V138.132h10.663Zm57.085,0-5.988-16.913H288.259l3.015-8.522h14.5l-9.57-27.445h-.263l-18.7,52.88H265.7l24.517-63.893H302.1l24.6,63.893Z"/>
      </g>
    </g>
</svg>
