<svg xmlns="http://www.w3.org/2000/svg" width="120mm" height="120mm" viewBox="0 0 340.157 340.157">
  <g id="Schilder">
      <g id="H-68-R">
        <path fill="#A0552B" stroke="none" d="M337.323,0H2.834A2.834,2.834,0,0,0,0,2.834V337.323a2.834,2.834,0,0,0,2.834,2.834H337.323a2.834,2.834,0,0,0,2.834-2.834V2.834A2.834,2.834,0,0,0,337.323,0ZM131.744,118.364h11.377v10.791H131.744Zm-17.237,0h11.426v10.791H114.507ZM85.616,195.61a16.4,16.4,0,0,1-2.93,5.2,17.6,17.6,0,0,1-4.394,3.735,25.257,25.257,0,0,1-5.445,2.441,35.2,35.2,0,0,1-6.128,1.343,49.407,49.407,0,0,1-6.372.415H45.753V198.54h16.4a16.774,16.774,0,0,0,4.956-.684,10.03,10.03,0,0,0,3.784-2.075,9.228,9.228,0,0,0,2.417-3.515,13.235,13.235,0,0,0,.855-4.956,13,13,0,0,0-.855-4.956,8.78,8.78,0,0,0-2.441-3.418,10.4,10.4,0,0,0-3.785-2,18.274,18.274,0,0,0-4.931-.708h-16.4v-8.985H60.445a10.784,10.784,0,0,0,7.69-2.637q2.808-2.636,2.808-7.568,0-5.127-2.686-7.275t-7.812-2.2H40.083v61.182h-12.5V137.358H62.251a34.134,34.134,0,0,1,8.2.953,19.051,19.051,0,0,1,6.762,3.076,15.036,15.036,0,0,1,4.59,5.468,17.649,17.649,0,0,1,1.636,8.179q0,10.94-10.156,15.235v.195a18.224,18.224,0,0,1,5.786,2.319,14.925,14.925,0,0,1,4.2,3.931,17.029,17.029,0,0,1,2.539,5.4,24.887,24.887,0,0,1,.855,6.714A20.373,20.373,0,0,1,85.616,195.61Zm72.592-12.548a31.611,31.611,0,0,1-2.1,11.987,22.936,22.936,0,0,1-5.908,8.569,24.765,24.765,0,0,1-9.2,5.127,42.981,42.981,0,0,1-24,0,25.441,25.441,0,0,1-9.3-5.127,22.819,22.819,0,0,1-6.006-8.545,30.647,30.647,0,0,1-2.075-12.011v-45.7h12.5v41.6q0,2.736.146,5.444a23.823,23.823,0,0,0,.83,5.152,14.289,14.289,0,0,0,2.2,4.541,13.3,13.3,0,0,0,4.2,3.662q3.467,1.9,9.472,1.9a20.916,20.916,0,0,0,8.692-1.514,11.972,11.972,0,0,0,5.078-4.223,16.008,16.008,0,0,0,2.393-6.543,56.008,56.008,0,0,0,.585-8.423v-41.6h12.5Zm63.877,25.683a11.434,11.434,0,0,1-1.66-5.078q-.245-2.782-.244-6.543a47.192,47.192,0,0,0-.513-7.275,14.078,14.078,0,0,0-2.05-5.616,9.983,9.983,0,0,0-4.322-3.613,17.827,17.827,0,0,0-7.324-1.269h-12.69v-9.522h14.79q12.206,0,12.207-11.523a13.688,13.688,0,0,0-.879-5.3,7.643,7.643,0,0,0-2.515-3.272,10.164,10.164,0,0,0-3.93-1.684,24.492,24.492,0,0,0-5.079-.489H187.613v61.182h-12.5V137.358H209.2a40.612,40.612,0,0,1,9.057.977,21,21,0,0,1,7.52,3.271,16.271,16.271,0,0,1,5.151,6.055,22.908,22.908,0,0,1-.879,20.093q-2.783,4.566-9.033,6.909v.195a10.517,10.517,0,0,1,4.956,1.783,11.52,11.52,0,0,1,3.272,3.54,15.65,15.65,0,0,1,1.806,4.638,23.714,23.714,0,0,1,.562,5.127q0,14.456,3.906,18.8Zm88.267-21.362a35.849,35.849,0,0,1-6.4,11.523,32.2,32.2,0,0,1-10.181,8.081,31.75,31.75,0,0,1-12.571,3.307V200.1a18.2,18.2,0,0,0,8.128-2.782,20.648,20.648,0,0,0,6.152-6.3,27.687,27.687,0,0,0,3.491-8.545,41.971,41.971,0,0,0,1.1-9.522,40.807,40.807,0,0,0-1.221-9.985A26.377,26.377,0,0,0,295,154.3a20.139,20.139,0,0,0-6.739-6.128,19.632,19.632,0,0,0-9.814-2.32,21.179,21.179,0,0,0-7.007,1.1,19.065,19.065,0,0,0-5.566,3,19.739,19.739,0,0,0-4.175,4.517,26.471,26.471,0,0,0-2.881,5.664,34.224,34.224,0,0,0-1.66,6.372,41.888,41.888,0,0,0-.049,13.061,33.372,33.372,0,0,0,1.514,6.1,26.672,26.672,0,0,0,2.636,5.444,21.063,21.063,0,0,0,3.809,4.492,17.975,17.975,0,0,0,5.054,3.15,19.5,19.5,0,0,0,5.417,1.336v10.2a31.32,31.32,0,0,1-22.9-11.559,36.292,36.292,0,0,1-6.3-11.694,44.558,44.558,0,0,1-2.172-13.989,45.786,45.786,0,0,1,1.049-9.888,40.514,40.514,0,0,1,3.052-8.911,34.332,34.332,0,0,1,4.956-7.568,31.363,31.363,0,0,1,15.186-9.693,35.458,35.458,0,0,1,9.936-1.343,33.079,33.079,0,0,1,14.5,3.052,32.06,32.06,0,0,1,10.742,8.252,36.28,36.28,0,0,1,6.69,12.085,45.871,45.871,0,0,1,2.3,14.6A42.316,42.316,0,0,1,310.352,187.383Z"/>
      </g>
    </g>
</svg>
