<svg xmlns="http://www.w3.org/2000/svg" width="120mm" height="120mm" viewBox="0 0 340.158 340.158">
  <g id="Schilder">
      <g id="H-69-M">
        <path fill="#D4AF37" stroke="none" d="M337.323,0H2.835A2.834,2.834,0,0,0,0,2.834V337.323a2.835,2.835,0,0,0,2.835,2.835H337.323a2.835,2.835,0,0,0,2.835-2.835V2.834A2.834,2.834,0,0,0,337.323,0ZM62.653,166.209a17.842,17.842,0,0,1-3.793,6.615,18.794,18.794,0,0,1-6.747,4.635,25.77,25.77,0,0,1-10.055,1.755H33.174v-10.98h5.092a28.443,28.443,0,0,0,4.586-.36,10.529,10.529,0,0,0,3.881-1.395,7.547,7.547,0,0,0,2.69-2.925,12.589,12.589,0,0,0,0-9.9,7.554,7.554,0,0,0-2.69-2.925,10.565,10.565,0,0,0-3.881-1.4,28.557,28.557,0,0,0-4.586-.36H27.505v19.26h0v10.98h0v23.04H13.658v-64.26h28.4a25.77,25.77,0,0,1,10.055,1.755,18.806,18.806,0,0,1,6.747,4.635,17.908,17.908,0,0,1,3.793,6.57,25.04,25.04,0,0,1,0,15.255Zm46.26,36.045a25.311,25.311,0,0,1-1.411-7.29q-.265-4.228-.794-8.1-.707-5.04-3-7.38t-7.5-2.34H88.034v-10.08h9.5q4.762,0,7.144-2.16t2.382-7.02q0-4.679-2.382-6.795t-7.144-2.115H82.365v6.869h0v34.24h0v12.171H68.517v-64.26h33.957a19.918,19.918,0,0,1,7.63,1.4,17.558,17.558,0,0,1,5.821,3.825,16.643,16.643,0,0,1,3.7,5.625,18.374,18.374,0,0,1,1.279,6.885,19.644,19.644,0,0,1-2.337,9.81,14.753,14.753,0,0,1-7.63,6.3v.18a10.621,10.621,0,0,1,4.234,2.2,12.181,12.181,0,0,1,2.734,3.51,16.568,16.568,0,0,1,1.544,4.455,39.707,39.707,0,0,1,.661,4.86q.087,1.531.177,3.6t.309,4.23a28.653,28.653,0,0,0,.705,4.095,9.511,9.511,0,0,0,1.455,3.285Zm63.414,0-4.763-14.31H150.028l3.644-10.53h10.276l-7.938-23.58h-.176l-8.2,23.58h.042l-3.644,10.53h-.014l-4.895,14.182-.044.128H125.14l23.815-64.26h14.2l23.549,64.26Zm59.712,0-13.76-22.23-14.023,22.23H188.732l21.962-33.66-20.286-30.6H206.46l12.349,20.52,12.789-20.52h15.17l-20.2,30.69,21.962,33.57Zm35.455,0H253.647v-64.26h13.847Zm57.33-10.89a17.737,17.737,0,0,1-4.983,6.525,23.76,23.76,0,0,1-8.2,4.275,38.05,38.05,0,0,1-11.333,1.53,39.067,39.067,0,0,1-10.1-1.3,25.152,25.152,0,0,1-8.644-4.095,20.093,20.093,0,0,1-5.953-7.11,21.573,21.573,0,0,1-2.117-10.26H286.9a11.977,11.977,0,0,0,1.147,5.49,10.159,10.159,0,0,0,3.043,3.645,13.023,13.023,0,0,0,4.454,2.07,20.65,20.65,0,0,0,5.292.675,26.9,26.9,0,0,0,3.969-.315,13.609,13.609,0,0,0,3.969-1.215,8.672,8.672,0,0,0,3.087-2.475,6.3,6.3,0,0,0,1.235-4,5.7,5.7,0,0,0-1.632-4.23,12.908,12.908,0,0,0-4.278-2.7,42.077,42.077,0,0,0-6-1.89q-3.354-.81-6.791-1.8a59.156,59.156,0,0,1-6.88-2.205,23.419,23.419,0,0,1-6-3.375,15.243,15.243,0,0,1-5.909-12.69,17.087,17.087,0,0,1,2.073-8.595,19,19,0,0,1,5.424-6.075,23.426,23.426,0,0,1,7.585-3.6,31.661,31.661,0,0,1,8.467-1.17,39.314,39.314,0,0,1,9.482,1.125,23.472,23.472,0,0,1,8.07,3.645,18.345,18.345,0,0,1,5.6,6.435,20.089,20.089,0,0,1,2.072,9.495H310.977a11.585,11.585,0,0,0-1.191-4.77,7.907,7.907,0,0,0-2.69-2.97,11.258,11.258,0,0,0-3.837-1.53,23.23,23.23,0,0,0-4.718-.45,15.972,15.972,0,0,0-3.352.36,8.876,8.876,0,0,0-3.043,1.26,7.716,7.716,0,0,0-2.249,2.25,6.136,6.136,0,0,0-.882,3.42,5.861,5.861,0,0,0,.706,3.06,6.308,6.308,0,0,0,2.778,2.16,34.9,34.9,0,0,0,5.733,1.98q3.658.992,9.57,2.52,1.762.36,4.895,1.3a23.317,23.317,0,0,1,6.218,3.015,19.022,19.022,0,0,1,5.336,5.535,16,16,0,0,1,2.249,8.865A20,20,0,0,1,324.824,191.364Z"/>
      </g>
    </g>
</svg>
