<svg xmlns="http://www.w3.org/2000/svg" width="120mm" height="120mm" viewBox="0 0 340.157 340.157">
  <g id="Schilder">
      <g id="H-70-M">
        <path fill="#D4AF37" stroke="none" d="M337.323,0H2.835A2.835,2.835,0,0,0,0,2.835V337.323a2.834,2.834,0,0,0,2.835,2.834H337.323a2.834,2.834,0,0,0,2.834-2.834V2.835A2.834,2.834,0,0,0,337.323,0ZM115.061,208.692q-9.377,6.271-24.2,6.27T66.6,207.637q-10.431-8.026-10.665-23.261h15q0,9.375,6.036,13.828,6.035,4.513,15.41,4.511t13.828-3.691a11.439,11.439,0,0,0,4.512-8.965q.057-5.214-2.168-7.558a14.371,14.371,0,0,0-5.86-3.692q-3.633-1.287-9.609-2.812-6.094-1.524-13.3-3.4a37.211,37.211,0,0,1-10.84-4.277q-9.786-6.328-9.785-18.164t9.317-18.4q9.315-6.561,22.558-6.562,13.3,0,22.852,7.207,9.492,7.208,9.492,20.156h-15q-1.055-15.117-18.516-15.117-10.078,0-14.238,5.742a10.658,10.658,0,0,0-1.523,6.094,8.3,8.3,0,0,0,2.871,6.445,18.447,18.447,0,0,0,7.382,3.926q14.063,3.516,24.727,6.563a23.491,23.491,0,0,1,12.3,8.5,22.4,22.4,0,0,1,4.336,13.242Q125.841,201.428,115.061,208.692Zm85.045-35.01a24.592,24.592,0,0,1-9.2,4.805,42.569,42.569,0,0,1-11.865,1.553H162.061V167.794h16.1q6.913,0,10.957-3.692t4.043-10.547a18.533,18.533,0,0,0-1.025-6.562,10.774,10.774,0,0,0-2.93-4.365,11.382,11.382,0,0,0-4.629-2.4,23.611,23.611,0,0,0-6.123-.732H156.249v73.418h-15V127.247h37.793a41.344,41.344,0,0,1,11.924,1.611,25.3,25.3,0,0,1,9.2,4.863,21.4,21.4,0,0,1,5.918,8.233,33.995,33.995,0,0,1-.029,23.5A21.67,21.67,0,0,1,200.106,173.682Zm68.058,39.229-8.028-22.676H231.788l4.043-11.426h20.321l-12.832-36.8h-.352l-25.078,70.9H202.421l32.871-85.664H251.23l32.988,85.664Z"/>
      </g>
    </g>
</svg>
