<svg xmlns="http://www.w3.org/2000/svg" width="120mm" height="120mm" viewBox="0 0 340.157 340.157">
  <g id="Schilder">
      <g id="H-72-M">
        <path fill="#D4AF37" stroke="none" d="M337.323,0H2.835A2.835,2.835,0,0,0,0,2.835V337.323a2.834,2.834,0,0,0,2.835,2.834H337.323a2.834,2.834,0,0,0,2.834-2.834V2.835A2.834,2.834,0,0,0,337.323,0Zm-42.41,113.506h16.172l-17.051,17.11h-9.961ZM84.21,216.983q-10.02,9.667-25.547,9.668-18.691,0-29.883-12.891-11.133-12.889-11.133-31.875t10.9-31.7a39.036,39.036,0,0,1,12.89-9.726,36.258,36.258,0,0,1,16.055-3.575q16.055,0,26.074,7.852T95.05,166.182h-15q-3.106-12.129-13.125-15.82a28.91,28.91,0,0,0-9.317-1.231,21.716,21.716,0,0,0-10.781,2.754,23.666,23.666,0,0,0-8.086,7.383q-6.27,9.2-6.094,22.5a49.785,49.785,0,0,0,1.465,12.012q3.222,12.656,12.715,17.871a22.476,22.476,0,0,0,10.957,2.754q10.547,0,16.113-6.27t6.621-16.171H95.167Q94.228,207.608,84.21,216.983ZM164.6,224.6l-8.027-22.676H129.642l4.043-11.425h18.9l-12.832-36.8h-.352l-25.078,70.9H98.858l32.871-85.664h15.938L180.655,224.6Zm83.379-72.715H203.858v22.442h38.731v12.246H203.858V224.6h-15V138.936h59.121ZM322.51,224.6H259.991V138.936h61.641v12.949H274.991v22.442h43.184v12.246H274.991v25.078H322.51Z"/>
      </g>
    </g>
</svg>
