<svg xmlns="http://www.w3.org/2000/svg" width="120mm" height="120mm" viewBox="0 0 340.157 340.157">
  <g id="Schilder">
      <g id="H-74-E">
        <path fill="#A09f9d" stroke="none" d="M337.323,0H2.835A2.834,2.834,0,0,0,0,2.834V337.323a2.834,2.834,0,0,0,2.835,2.834H337.323a2.834,2.834,0,0,0,2.834-2.834V2.834A2.834,2.834,0,0,0,337.323,0ZM121.241,197.149a19.677,19.677,0,0,1-3.516,6.24,21.121,21.121,0,0,1-5.273,4.483,30.382,30.382,0,0,1-6.533,2.929,42.317,42.317,0,0,1-7.354,1.612,59.375,59.375,0,0,1-7.646.5H73.831V200.665H93.087a20.142,20.142,0,0,0,5.947-.821,12.065,12.065,0,0,0,4.541-2.49,11.1,11.1,0,0,0,2.9-4.219,15.875,15.875,0,0,0,1.026-5.947,15.6,15.6,0,0,0-1.026-5.947,10.526,10.526,0,0,0-2.929-4.1,12.494,12.494,0,0,0-4.541-2.4,21.921,21.921,0,0,0-5.918-.85H73.831V163.106h17.2q5.859,0,9.228-3.164t3.369-9.082q0-6.153-3.222-8.731t-9.375-2.636H66.6v73.418h-15V127.247H93.2a40.946,40.946,0,0,1,9.843,1.142,22.875,22.875,0,0,1,8.116,3.692,18.059,18.059,0,0,1,5.508,6.562,21.173,21.173,0,0,1,1.962,9.815q0,13.125-12.187,18.281v.234a21.874,21.874,0,0,1,6.943,2.783,17.888,17.888,0,0,1,5.039,4.717,20.424,20.424,0,0,1,3.047,6.475A29.84,29.84,0,0,1,122.5,189,24.445,24.445,0,0,1,121.241,197.149Zm70.576,15.762-8.027-22.676H156.859l4.043-11.426h18.9l-12.832-36.8h-.351l-25.078,70.9H126.075l32.871-85.664h15.937l32.989,85.664Zm80.625,0a13.718,13.718,0,0,1-1.992-6.094q-.294-3.341-.293-7.852a56.679,56.679,0,0,0-.615-8.73,16.919,16.919,0,0,0-2.461-6.738,11.973,11.973,0,0,0-5.186-4.336,21.38,21.38,0,0,0-8.789-1.524H238.3V166.211h17.322q14.648,0,14.648-13.828a16.429,16.429,0,0,0-1.055-6.357A9.168,9.168,0,0,0,266.2,142.1a12.172,12.172,0,0,0-4.717-2.021,29.378,29.378,0,0,0-6.094-.586H231.075v73.418h-15V127.247h40.9a48.685,48.685,0,0,1,10.869,1.171,25.2,25.2,0,0,1,9.024,3.926,19.528,19.528,0,0,1,6.181,7.266,27.492,27.492,0,0,1-1.054,24.111q-3.34,5.481-10.84,8.291v.235a12.608,12.608,0,0,1,5.947,2.138,13.832,13.832,0,0,1,3.926,4.248,18.816,18.816,0,0,1,2.168,5.567,28.42,28.42,0,0,1,.674,6.152q0,17.346,4.687,22.559Z"/>
      </g>
    </g>
</svg>
