<svg xmlns="http://www.w3.org/2000/svg" width="120mm" height="120mm" viewBox="0 0 340.157 340.157">
  <g id="Schilder">
      <g id="H-77">
        <path fill="#000000" stroke="none" d="M337.323,0H2.835A2.835,2.835,0,0,0,0,2.835V337.323a2.834,2.834,0,0,0,2.835,2.834H337.323a2.834,2.834,0,0,0,2.834-2.834V2.835A2.834,2.834,0,0,0,337.323,0ZM73.808,205.821h-12.5V173.643H28.837v32.178h-12.5V134.434h12.5V162.8H61.308V134.434h12.5Zm73.369-21.362a35.88,35.88,0,0,1-6.4,11.523,32.213,32.213,0,0,1-10.181,8.081,31.435,31.435,0,0,1-11.862,3.262v-10.24a17.865,17.865,0,0,0,7.419-2.69,20.651,20.651,0,0,0,6.152-6.3,27.693,27.693,0,0,0,3.492-8.545,42.024,42.024,0,0,0,1.1-9.521,40.807,40.807,0,0,0-1.221-9.985,26.356,26.356,0,0,0-3.857-8.667,20.145,20.145,0,0,0-6.738-6.128,19.636,19.636,0,0,0-9.815-2.32,21.179,21.179,0,0,0-7.007,1.1,19.031,19.031,0,0,0-5.566,3,19.736,19.736,0,0,0-4.175,4.516,26.479,26.479,0,0,0-2.881,5.665,34.224,34.224,0,0,0-1.66,6.372,41.888,41.888,0,0,0-.049,13.061,33.556,33.556,0,0,0,1.514,6.1,26.728,26.728,0,0,0,2.637,5.444,21.108,21.108,0,0,0,3.808,4.492,17.989,17.989,0,0,0,5.054,3.15,19,19,0,0,0,4.709,1.261v10.23a31.3,31.3,0,0,1-22.189-11.516,36.294,36.294,0,0,1-6.3-11.694,44.53,44.53,0,0,1-2.173-13.989,45.786,45.786,0,0,1,1.05-9.888,40.444,40.444,0,0,1,3.052-8.911,34.3,34.3,0,0,1,4.956-7.569,31.362,31.362,0,0,1,15.185-9.692,35.424,35.424,0,0,1,9.937-1.343,33.085,33.085,0,0,1,14.5,3.052,32.079,32.079,0,0,1,10.742,8.252,36.278,36.278,0,0,1,6.689,12.085,45.871,45.871,0,0,1,2.295,14.6A42.342,42.342,0,0,1,147.177,184.459Zm60.575-39.234H185.047v60.6h-12.5v-60.6H149.939V134.434h57.813Zm58.4,60.6h-52.1V134.434H265.42v10.791H226.552v18.7h35.987v10.205H226.552v20.9h39.6Zm57.668,0H275.041V134.434h12.5v60.6H323.82Z"/>
      </g>
    </g>
</svg>
