<svg xmlns="http://www.w3.org/2000/svg" width="120mm" height="120mm" viewBox="0 0 340.157 340.157">
  <g id="Schilder">
      <g id="H-78-R">
        <path fill="#A0552B" stroke="none" d="M337.323,0H2.834A2.834,2.834,0,0,0,0,2.835V337.323a2.834,2.834,0,0,0,2.834,2.834H337.323a2.834,2.834,0,0,0,2.834-2.834V2.835A2.834,2.834,0,0,0,337.323,0ZM63.775,205.821H15V134.434H27.5v60.6h36.28Zm64.971-21.363a35.859,35.859,0,0,1-6.4,11.523,32.2,32.2,0,0,1-10.181,8.082,31.435,31.435,0,0,1-11.862,3.262v-10.24a17.86,17.86,0,0,0,7.419-2.69,20.651,20.651,0,0,0,6.152-6.3,27.671,27.671,0,0,0,3.491-8.544,42,42,0,0,0,1.1-9.522,40.821,40.821,0,0,0-1.221-9.986,26.351,26.351,0,0,0-3.857-8.666,20.148,20.148,0,0,0-6.738-6.129,19.646,19.646,0,0,0-9.815-2.319,21.179,21.179,0,0,0-7.007,1.1,19.033,19.033,0,0,0-5.566,3,19.756,19.756,0,0,0-4.175,4.516,26.517,26.517,0,0,0-2.881,5.664,34.234,34.234,0,0,0-1.66,6.373,41.881,41.881,0,0,0-.049,13.06,33.372,33.372,0,0,0,1.514,6.1,26.709,26.709,0,0,0,2.637,5.445,21.079,21.079,0,0,0,3.808,4.492,17.986,17.986,0,0,0,5.054,3.149,19,19,0,0,0,4.709,1.263v10.229a31.309,31.309,0,0,1-22.19-11.516,36.3,36.3,0,0,1-6.3-11.695,44.524,44.524,0,0,1-2.173-13.988,45.733,45.733,0,0,1,1.05-9.889,40.434,40.434,0,0,1,3.051-8.91,34.35,34.35,0,0,1,4.956-7.569A31.363,31.363,0,0,1,86.8,134.067a35.461,35.461,0,0,1,9.937-1.342,33.085,33.085,0,0,1,14.5,3.051,32.073,32.073,0,0,1,10.743,8.252,36.3,36.3,0,0,1,6.689,12.086,45.871,45.871,0,0,1,2.295,14.6A42.31,42.31,0,0,1,128.746,184.458Zm67.631,8.228a16.394,16.394,0,0,1-2.929,5.2,17.625,17.625,0,0,1-4.4,3.737,25.346,25.346,0,0,1-5.444,2.441,35.109,35.109,0,0,1-6.128,1.342,49.433,49.433,0,0,1-6.372.416H157.932v-10.2h14.983a16.836,16.836,0,0,0,4.956-.684,10.036,10.036,0,0,0,3.785-2.076,9.246,9.246,0,0,0,2.417-3.515,13.232,13.232,0,0,0,.854-4.956,13.017,13.017,0,0,0-.854-4.957,8.787,8.787,0,0,0-2.442-3.418,10.413,10.413,0,0,0-3.784-2,18.288,18.288,0,0,0-4.932-.707H157.932v-8.985h13.274a10.787,10.787,0,0,0,7.691-2.637q2.807-2.636,2.807-7.568,0-5.127-2.685-7.275t-7.813-2.2H150.845v61.182h-12.5V134.434h34.668a34.177,34.177,0,0,1,8.2.951,19.075,19.075,0,0,1,6.763,3.077,15.054,15.054,0,0,1,4.59,5.468,17.639,17.639,0,0,1,1.635,8.18q0,10.936-10.156,15.234v.2a18.237,18.237,0,0,1,5.786,2.318,14.928,14.928,0,0,1,4.2,3.932,17.026,17.026,0,0,1,2.54,5.394,24.89,24.89,0,0,1,.854,6.715A20.352,20.352,0,0,1,196.377,192.686Zm68.362,0a16.4,16.4,0,0,1-2.93,5.2,17.607,17.607,0,0,1-4.4,3.737,25.324,25.324,0,0,1-5.444,2.441,35.109,35.109,0,0,1-6.128,1.342,49.409,49.409,0,0,1-6.372.416H226.293v-10.2h14.984a16.845,16.845,0,0,0,4.956-.684,10.032,10.032,0,0,0,3.784-2.076,9.246,9.246,0,0,0,2.417-3.515,13.232,13.232,0,0,0,.854-4.956,13.017,13.017,0,0,0-.854-4.957,8.787,8.787,0,0,0-2.442-3.418,10.413,10.413,0,0,0-3.784-2,18.287,18.287,0,0,0-4.931-.707H226.293v-8.985h13.275a10.784,10.784,0,0,0,7.69-2.637q2.808-2.636,2.808-7.568,0-5.127-2.686-7.275t-7.812-2.2H219.206v61.182h-12.5V134.434h34.668a34.171,34.171,0,0,1,8.2.951,19.066,19.066,0,0,1,6.763,3.077,15.044,15.044,0,0,1,4.59,5.468,17.651,17.651,0,0,1,1.636,8.18q0,10.936-10.157,15.234v.2a18.243,18.243,0,0,1,5.787,2.318,14.928,14.928,0,0,1,4.2,3.932,17.024,17.024,0,0,1,2.539,5.394,24.89,24.89,0,0,1,.854,6.715A20.378,20.378,0,0,1,264.739,192.686Zm39.432-14.843v27.978h-12.5V177.843l-26.806-43.409h14.5l18.9,31.983,18.6-31.983h13.965Z"/>
      </g>
    </g>
</svg>
