<svg xmlns="http://www.w3.org/2000/svg" width="120mm" height="120mm" viewBox="0 0 340.157 340.157">
  <g id="Schilder">
      <g id="H-79-E">
        <path fill="#A09f9d" stroke="none" d="M337.323,0H2.835A2.835,2.835,0,0,0,0,2.835V337.323a2.834,2.834,0,0,0,2.835,2.834H337.323a2.834,2.834,0,0,0,2.834-2.834V2.835A2.834,2.834,0,0,0,337.323,0ZM50.755,198.426H9.78V138.461h10.5v50.9H50.755Zm52.9-17.944a30.129,30.129,0,0,1-5.373,9.679,27.044,27.044,0,0,1-8.552,6.788A25.773,25.773,0,0,1,81.5,199.5v-8.771a14.3,14.3,0,0,0,4.5-1.9,17.343,17.343,0,0,0,5.168-5.291,23.265,23.265,0,0,0,2.932-7.177,35.252,35.252,0,0,0,.923-8,34.316,34.316,0,0,0-1.025-8.388,22.149,22.149,0,0,0-3.24-7.28,16.924,16.924,0,0,0-5.66-5.148,16.49,16.49,0,0,0-8.245-1.948,17.78,17.78,0,0,0-5.885.923,16,16,0,0,0-4.676,2.522,16.563,16.563,0,0,0-3.507,3.794,22.274,22.274,0,0,0-2.42,4.758,28.6,28.6,0,0,0-1.394,5.353,34.984,34.984,0,0,0-.452,5.619,35.344,35.344,0,0,0,.411,5.352,28.022,28.022,0,0,0,1.271,5.127,22.425,22.425,0,0,0,2.215,4.573,17.735,17.735,0,0,0,3.2,3.774,15.14,15.14,0,0,0,4.245,2.645,15.53,15.53,0,0,0,3.139.913v8.657a26.048,26.048,0,0,1-9.291-2.7,26.617,26.617,0,0,1-8.531-6.89A30.448,30.448,0,0,1,49.88,180.2a37.416,37.416,0,0,1-1.826-11.751,38.4,38.4,0,0,1,.882-8.306,33.982,33.982,0,0,1,2.564-7.485,28.778,28.778,0,0,1,4.163-6.358,26.345,26.345,0,0,1,12.756-8.141,29.748,29.748,0,0,1,8.346-1.128,27.779,27.779,0,0,1,12.182,2.563,26.933,26.933,0,0,1,9.023,6.932,30.513,30.513,0,0,1,5.62,10.151,38.534,38.534,0,0,1,1.927,12.264A35.55,35.55,0,0,1,103.651,180.482Zm56.706-3.63a26.56,26.56,0,0,1-1.764,10.069,19.271,19.271,0,0,1-4.963,7.2,20.817,20.817,0,0,1-7.731,4.307,36.093,36.093,0,0,1-20.159,0,21.38,21.38,0,0,1-7.814-4.307,19.175,19.175,0,0,1-5.045-7.177,25.767,25.767,0,0,1-1.743-10.09V138.461h10.5v34.945q0,2.3.123,4.574a19.939,19.939,0,0,0,.7,4.327,12.011,12.011,0,0,0,1.846,3.814,11.185,11.185,0,0,0,3.527,3.077,16.627,16.627,0,0,0,7.957,1.6,17.594,17.594,0,0,0,7.3-1.271,10.074,10.074,0,0,0,4.266-3.548,13.48,13.48,0,0,0,2.01-5.5,47.009,47.009,0,0,0,.492-7.076V138.461h10.5Zm56.649,21.574H205.932l-27.317-44.092h-.246v44.092H168.361V138.461h11.116l27.357,44.174H207V138.461h10.008Zm61.141,0H271.42l-1.6-7.055a25.168,25.168,0,0,1-8.409,6.645,25.493,25.493,0,0,1-10.295,1.846,27.337,27.337,0,0,1-26.127-19.237,36.946,36.946,0,0,1-1.968-12.14q0-13.248,7.629-22.149a27.312,27.312,0,0,1,9.023-6.808,25.173,25.173,0,0,1,11.156-2.5q16.939,0,23.789,11.607a22.422,22.422,0,0,1,2.83,8.9H267.2a12.494,12.494,0,0,0-5.127-8.777,16.213,16.213,0,0,0-9.762-3.158q-9.721,0-14.233,6.767a30.672,30.672,0,0,0,0,32.157q4.554,6.767,13.659,6.767,7.916.165,12.263-4.183t4.553-12.264H252.594v-8h25.553Zm52.231,0H286.614V138.461h43.148v9.065H297.114v15.709h30.229v8.572H297.114v17.555h33.264Z"/>
      </g>
    </g>
</svg>
