<svg xmlns="http://www.w3.org/2000/svg" width="120mm" height="120mm" viewBox="0 0 340.157 340.157">
  <g id="Schilder">
      <g id="H-81-M">
        <path fill="#D4AF37" stroke="none" d="M0,2.835V337.323a2.834,2.834,0,0,0,2.835,2.834H337.323a2.834,2.834,0,0,0,2.834-2.834V2.835A2.834,2.834,0,0,0,337.323,0H2.835A2.835,2.835,0,0,0,0,2.835Zm106.885,206.22H47.265v-78.54h58.741v14.52H64.535v16.83H102.6v13.42H64.535v19.25h42.35v14.52Zm63.029,0-17.16-27.17-17.49,27.17H115.9l27.39-41.14-25.3-37.4h20.021l15.4,25.08,15.95-25.08h18.92l-25.191,37.51,27.39,41.03H169.914Zm50.27,0H202.913v-78.54h17.271Zm78.869-64.02h-23.54v64.02H258.244v-64.02H234.7v-14.52h64.35Z"/>
      </g>
    </g>
</svg>
