<svg xmlns="http://www.w3.org/2000/svg" width="120mm" height="120mm" viewBox="0 0 340.157 340.157">
  <g id="Schilder">
      <g id="H-85-M">
        <path fill="#D4AF37" stroke="none" d="M337.323,0H2.834A2.834,2.834,0,0,0,0,2.834H0V337.323a2.834,2.834,0,0,0,2.834,2.834H337.323a2.834,2.834,0,0,0,2.834-2.834V2.835A2.834,2.834,0,0,0,337.323,0ZM53.982,151.4H36.957v45.45H27.582V151.4H10.631v-8.1H53.982Zm45.3,45.45H60.206V143.3H98.755v8.1H69.581v14.024h27v7.65h-27v15.676h29.7Zm51.579-15.7a23.092,23.092,0,0,1-1.367,4.072,22.675,22.675,0,0,1-2.1,3.738,20.775,20.775,0,0,1-2.662,3.124,20.4,20.4,0,0,1-3.227,2.533,22.131,22.131,0,0,1-3.823,1.929,21.838,21.838,0,0,1-4.128,1.156,27.654,27.654,0,0,1-4.8.42,29.119,29.119,0,0,1-5.866-.6,22.225,22.225,0,0,1-4.9-1.616,24.81,24.81,0,0,1-4.43-2.647,23.058,23.058,0,0,1-3.633-3.39,25.526,25.526,0,0,1-2.871-4.074,29.056,29.056,0,0,1-2.191-4.852,31.075,31.075,0,0,1-1.3-5.177,35.651,35.651,0,0,1-.458-5.7,34.809,34.809,0,0,1,.456-5.62,31.227,31.227,0,0,1,1.307-5.179,29.115,29.115,0,0,1,2.192-4.853,25.522,25.522,0,0,1,2.87-4.072,23.337,23.337,0,0,1,3.628-3.4,25.347,25.347,0,0,1,4.435-2.679,21.973,21.973,0,0,1,4.9-1.644,28.674,28.674,0,0,1,5.864-.606,30.8,30.8,0,0,1,4.449.323,26.3,26.3,0,0,1,4.026.914,24.015,24.015,0,0,1,3.809,1.557,20.433,20.433,0,0,1,3.2,2.043,18.9,18.9,0,0,1,4.913,5.738,17.8,17.8,0,0,1,1.478,3.5,22.766,22.766,0,0,1,.846,4.223H142.1a20.59,20.59,0,0,0-.73-2.273,17.737,17.737,0,0,0-.919-2,12.253,12.253,0,0,0-1.209-1.825,11.753,11.753,0,0,0-1.492-1.55A11.325,11.325,0,0,0,136,151.434a13.087,13.087,0,0,0-2.1-.968,12.3,12.3,0,0,0-2.252-.568,19.1,19.1,0,0,0-2.886-.22,18.246,18.246,0,0,0-4.151.479,12.574,12.574,0,0,0-3.236,1.247,14.963,14.963,0,0,0-2.832,2.033,14.4,14.4,0,0,0-2.231,2.579,19.155,19.155,0,0,0-1.664,3.015,22.9,22.9,0,0,0-1.224,3.547,30.1,30.1,0,0,0-.7,3.706,30.639,30.639,0,0,0,0,7.591,30.019,30.019,0,0,0,.7,3.7,22.814,22.814,0,0,0,1.225,3.551,19.121,19.121,0,0,0,1.663,3.012,14.329,14.329,0,0,0,2.23,2.58,14.97,14.97,0,0,0,2.833,2.033A12.523,12.523,0,0,0,124.6,190a18.272,18.272,0,0,0,4.154.479,15.988,15.988,0,0,0,3.086-.3,11.163,11.163,0,0,0,2.464-.788,12.778,12.778,0,0,0,2.24-1.3,12.242,12.242,0,0,0,1.885-1.7,13.444,13.444,0,0,0,1.517-2.042,15.021,15.021,0,0,0,1.183-2.421,19.833,19.833,0,0,0,.793-2.589,23.452,23.452,0,0,0,.483-2.886h9.149A28.173,28.173,0,0,1,150.86,181.157Zm50.643,15.7h-9.375V172.7H167.753v24.151h-9.375V143.3h9.375v21.3h24.375V143.3H201.5Zm52.8,0h-9.9l-24.375-39.375H219.8v39.375h-8.925V143.3h9.9l24.45,39.451h.15V143.3H254.3Zm18.975,0H263.9V143.3h9.375Zm44.55,0-17.551-25.575-7.65,7.575v18h-9.375V143.3h9.375v24.375l23.85-24.375h11.55l-21.375,21.375,22.875,32.176Z"/>
      </g>
    </g>
</svg>
