<svg xmlns="http://www.w3.org/2000/svg" width="120mm" height="120mm" viewBox="0 0 340.157 340.157">
  <g id="Schilder">
    <g  id="K-02-M">
      <path fill="#D4AF37" stroke="none" d="M0,340.157V2.835A2.835,2.835,0,0,1,2.835,0H337.323a2.834,2.834,0,0,1,2.834,2.835V337.323a2.834,2.834,0,0,1-2.834,2.834H0m91.092-32.063a5.669,5.669,0,1,0,11.338.008V231.559a5.669,5.669,0,0,0-11.338-.008v76.543Zm29.145,0a5.669,5.669,0,0,0,11.338,0V231.559a5.669,5.669,0,0,0-11.338-.008v76.543Zm78.05-169.311,13.979,10a5.669,5.669,0,0,0,6.6-9.221l-13.979-10a5.669,5.669,0,1,0-6.6,9.221Zm68.168,62.477a5.67,5.67,0,0,0,0-11.339H148.014a5.67,5.67,0,1,0,0,11.339ZM154.521,115.172a28.648,28.648,0,0,0-1.472-9.065A30.173,30.173,0,0,0,142.03,91.152a29,29,0,0,0-8.225-4.117,5.669,5.669,0,0,0-3.4,10.816,17.981,17.981,0,0,1,5.079,2.539,18.556,18.556,0,0,1,6.792,9.2,17.634,17.634,0,0,1,.908,5.584,28.676,28.676,0,0,0,1.471,9.065,30.186,30.186,0,0,0,11.02,14.955,28.969,28.969,0,0,0,8.224,4.116,5.669,5.669,0,0,0,3.4-10.816,17.975,17.975,0,0,1-5.079-2.537,18.554,18.554,0,0,1-6.792-9.2,17.634,17.634,0,0,1-.908-5.584M100.249,94.618a106.683,106.683,0,0,0,10.459-6q4.5-2.871,8.993-5.753.633-.406,1.26-.823,2.855-1.9,5.625-3.918,2.152-1.569,4.212-3.257a32.64,32.64,0,0,0,6.256-6.794A30.682,30.682,0,0,0,141,60.027a28.981,28.981,0,0,0,1.373-9.084,27.775,27.775,0,0,0-1.539-8.862,29.205,29.205,0,0,0-4.1-7.779,30.4,30.4,0,0,0-14.309-10.6,28.874,28.874,0,0,0-17.525-.536,30.369,30.369,0,0,0-15.2,9.99A28.846,28.846,0,0,0,85.172,40.9a29.17,29.17,0,0,0-1.5,16.065,29.572,29.572,0,0,0,7.289,14.522,6.025,6.025,0,0,0,1.864,1.371,4.817,4.817,0,0,0,2.016.46,5.377,5.377,0,0,0,2.051-.394,6.522,6.522,0,0,0,3.346-3.074,5.349,5.349,0,0,0,.567-2.01,4.792,4.792,0,0,0-.287-2.051,6.028,6.028,0,0,0-1.21-1.975,18.237,18.237,0,0,1-4.49-8.929,17.8,17.8,0,0,1,3.724-14.631,18.76,18.76,0,0,1,9.378-6.165,18.021,18.021,0,0,1,15.711,2.88,18.686,18.686,0,0,1,6.5,8.843,16.645,16.645,0,0,1,.924,5.506,17.444,17.444,0,0,1-.948,5.629,19.236,19.236,0,0,1-2.493,4.863,22.054,22.054,0,0,1-3.988,4.284q-1.941,1.59-3.971,3.067-2.639,1.914-5.36,3.715c-.119.078-.239.156-.36.233q-4.681,2.993-9.365,5.982A96.6,96.6,0,0,1,95.4,84.374a46.224,46.224,0,0,1-6.778,2.778,28.776,28.776,0,0,0-8.153,4.119A29.971,29.971,0,0,0,69.6,106.146a28.8,28.8,0,0,0-1.451,9.026V216.527a6.022,6.022,0,0,0,.445,2.272,4.8,4.8,0,0,0,1.174,1.7,5.324,5.324,0,0,0,1.775,1.1,6.519,6.519,0,0,0,4.544,0,5.328,5.328,0,0,0,1.778-1.1,4.815,4.815,0,0,0,1.177-1.7,6.028,6.028,0,0,0,.446-2.273V115.172a18.068,18.068,0,0,1,12.584-17.22A57.057,57.057,0,0,0,100.249,94.618Zm54.027,67.153a15.879,15.879,0,0,1-.686-4.618,5.669,5.669,0,0,0-11.338-.073c0,.024,0,.049,0,.073a27.238,27.238,0,0,0,1.175,7.913,19.88,19.88,0,0,0,2.781,5.689,20.731,20.731,0,0,0,10.205,7.648,20.045,20.045,0,0,0,6.244,1.084h49.655a19.917,19.917,0,0,0,6.239-1,20.75,20.75,0,0,0,10.291-7.517,19.911,19.911,0,0,0,2.849-5.635,26.513,26.513,0,0,1,1.609-3.919,58.006,58.006,0,0,1,3.131-5.421l3.76-5.891.012-.018q1.093-1.655,2.258-3.261c.595-.821,1.217-1.624,1.857-2.408a11.592,11.592,0,0,1,2.163-2.029,9.7,9.7,0,0,1,2.4-1.265,8.572,8.572,0,0,1,2.822-.506,8.182,8.182,0,0,1,2.761.452,9.4,9.4,0,0,1,4.415,3.278,9.02,9.02,0,0,1,1.751,5.1,9.191,9.191,0,0,1-5.846,8.851,9.508,9.508,0,0,1-3.321.76,8.46,8.46,0,0,1-3.182-.47,5.669,5.669,0,0,0-3.76,10.7,19.928,19.928,0,0,0,7.281,1.116,20.457,20.457,0,0,0,7.284-1.611,19.944,19.944,0,0,0,5.351-3.135,20.968,20.968,0,0,0,6.887-10.5,20.182,20.182,0,0,0,.753-6.163,19.859,19.859,0,0,0-1.146-5.957,21,21,0,0,0-7.349-9.846,20.3,20.3,0,0,0-5.392-2.824,19.37,19.37,0,0,0-11.993-.24,22.083,22.083,0,0,0-10.653,7.114q-1.062,1.294-2.05,2.649-1.269,1.737-2.46,3.527-.308.462-.608.93-1.765,2.751-3.525,5.507a67.965,67.965,0,0,0-3.847,6.713,37.528,37.528,0,0,0-2.166,5.323,9,9,0,0,1-8.578,6.269H162.736A9,9,0,0,1,154.276,161.771Z"/>
    </g>
  </g>
</svg>
