<svg xmlns="http://www.w3.org/2000/svg" width="120mm" height="119.998mm" viewBox="0 0 340.157 340.153">
  <g id="Schilder">
      <g id="K-03-E">
        <path fill="#A09f9d" stroke="none" d="M339.327.83a2.835,2.835,0,0,0-2-.83H2.835A2.834,2.834,0,0,0,0,2.835V337.318a2.836,2.836,0,0,0,2.835,2.835H79.126a4.252,4.252,0,0,0,4.252-4.252V214.488a4.252,4.252,0,0,1,4.252-4.252H128.8a4.252,4.252,0,0,1,4.252,4.252V335.9a4.254,4.254,0,0,0,4.252,4.252H337.323a2.836,2.836,0,0,0,2.834-2.835V2.835A2.834,2.834,0,0,0,339.327.83ZM125.762,191.256a24.813,24.813,0,1,1,7.267-17.545A24.813,24.813,0,0,1,125.762,191.256Zm30.207,41.4a4.252,4.252,0,0,1,4.252-4.252H208.33a4.252,4.252,0,0,1,4.252,4.252v14.136a4.251,4.251,0,0,1-4.252,4.252H160.221a4.251,4.251,0,0,1-4.252-4.252ZM259.238,271.1H155.969v-10.03H259.238Zm0-38.376a18.317,18.317,0,0,1-18.317,18.317h0a18.317,18.317,0,1,1,18.317-18.317Z"/>
      </g>
    </g>
</svg>
