<svg xmlns="http://www.w3.org/2000/svg" width="120mm" height="120mm" viewBox="0 0 340.157 340.157">
  <g id="Schilder">
      <g id="K-04-M">
        <path fill="#D4AF37" stroke="none" d="M0,2.835V337.323a2.834,2.834,0,0,0,2.835,2.834H337.323a2.834,2.834,0,0,0,2.834-2.834V2.835A2.834,2.834,0,0,0,337.323,0H2.835A2.835,2.835,0,0,0,0,2.835ZM176.38,150.952a8.056,8.056,0,0,1,8.129-7.352h33.935a8.431,8.431,0,0,0,4.878-1.554l7.731-5.484a7.877,7.877,0,0,1,9.114,12.849l-11.445,8.118A9.9,9.9,0,0,1,223,159.353H184.239A7.876,7.876,0,0,1,176.38,150.952ZM88.157,75.669a20.9,20.9,0,1,1,22.917,22.919A20.959,20.959,0,0,1,88.157,75.669ZM173.1,130.975a6.4,6.4,0,0,1-6.4,6.4H146.079a5.568,5.568,0,0,1-3.318-1.1l-11.822-8.78a.885.885,0,0,0-1.413.71v10.412h.01a2.312,2.312,0,0,0,.1.626L151.873,206.7a3.047,3.047,0,0,1-2.894,4H128.887v64.564a8.006,8.006,0,0,1-10.594,7.569,7.883,7.883,0,0,1-5.363-7.557V210.7h-7.978v64.564a8.007,8.007,0,0,1-10.595,7.569,7.883,7.883,0,0,1-5.364-7.558V210.7H68.9a3.044,3.044,0,0,1-2.894-4L88.24,139.249a2.458,2.458,0,0,0,.1-1.05h.016V114.75a8.509,8.509,0,0,1,8.509-8.51h24.15a8.453,8.453,0,0,1,4.465,1.276l.008-.011.119.088a8.495,8.495,0,0,1,.936.695l20.418,15.163a5.692,5.692,0,0,0,3.392,1.122h16.337a6.4,6.4,0,0,1,6.4,6.4Zm95.936,44.592h-87.4a5.273,5.273,0,0,1,0-10.545h87.4a5.273,5.273,0,0,1,0,10.545ZM258.476,140.3A15.827,15.827,0,1,1,274.3,124.47,15.827,15.827,0,0,1,258.476,140.3Z"/>
      </g>
    </g>
</svg>
