<svg xmlns="http://www.w3.org/2000/svg" width="120mm" height="120mm" viewBox="0 0 340.157 340.158">
  <g id="Schilder">
      <g id="L-01-E">
        <path fill="#A09f9d" stroke="none" d="M339.327.83a2.836,2.836,0,0,0-2-.83H2.834A2.834,2.834,0,0,0,0,2.835V337.323a2.836,2.836,0,0,0,2.834,2.835H337.323a2.836,2.836,0,0,0,2.834-2.835V2.835A2.834,2.834,0,0,0,339.327.83ZM226.49,89.084a19.786,19.786,0,0,1,14.084,5.89,20.446,20.446,0,0,1,0,28.717,19.782,19.782,0,0,1-28.167,0,20.446,20.446,0,0,1,0-28.717A19.784,19.784,0,0,1,226.49,89.084ZM226.066,189.8a.547.547,0,0,0,.849,0l3.591-4.435-1.658-48.051h23.787v53.018l-9.987,85.775H210.333l-9.987-85.775V137.313h23.787l-1.658,48.051ZM178.06,49.324a.6.6,0,0,1,.521-.3h8.894a.6.6,0,0,0,.6-.6V21.26H201.1V48.422a.6.6,0,0,0,.6.6H210.6a.6.6,0,0,1,.521.9L195.109,77.652a.6.6,0,0,1-1.042,0L178.06,49.927A.6.6,0,0,1,178.06,49.324Zm-49.02-.038,16.007-27.725a.6.6,0,0,1,1.043,0L162.1,49.286a.6.6,0,0,1-.522.9h-8.893a.6.6,0,0,0-.6.6V77.953H139.057V50.791a.6.6,0,0,0-.6-.6h-8.893a.6.6,0,0,1-.522-.9ZM94.452,137.313h16.159l.26.469.266.455.272.442.277.43.282.416.287.4.293.389.3.375.3.361.307.346.311.331.316.317.318.3.323.287.326.271.33.255.332.24.336.224.338.208.342.192.343.175.345.159.348.143.348.127.351.109.352.094.353.076.354.059.354.043.355.026.355.009.355-.008.354-.024.355-.042.354-.058.352-.076.353-.091.351-.109.348-.125.348-.141.346-.159.343-.174.341-.19.339-.207.335-.223.334-.239.329-.254.327-.27.323-.285.319-.3.315-.316.312-.33.306-.346.3-.359.3-.374.293-.388.288-.4.282-.415.278-.429.272-.441.266-.455.26-.467.019-.035h16.16l-9.987,20.258,16.916,32.76L120.6,276.106,87.522,190.331l16.917-32.76ZM134.68,94.974a20.446,20.446,0,0,1,0,28.717,19.782,19.782,0,0,1-28.167,0,20.446,20.446,0,0,1,0-28.717,19.782,19.782,0,0,1,28.167,0ZM296.221,296.22H43.936V43.937h67.806V55.275H55.275V284.881H284.882V55.275H228.415V43.937h67.806Z"/>
      </g>
    </g>
</svg>
