<svg xmlns="http://www.w3.org/2000/svg" width="120mm" height="120mm" viewBox="0 0 340.157 340.158">
  <g id="Schilder">
      <g id="L-02">
        <path fill="#000000" stroke="none" d="M339.327.83a2.838,2.838,0,0,0-2-.83H2.834A2.834,2.834,0,0,0,0,2.835V337.323a2.836,2.836,0,0,0,2.834,2.835H337.323a2.836,2.836,0,0,0,2.834-2.835V2.835A2.839,2.839,0,0,0,339.327.83ZM216.19,91.527a19.6,19.6,0,0,1,29.291,9.99,18.605,18.605,0,0,1-1.242,15.171,22.388,22.388,0,0,1-5.41,6.518q-1.746,1.431-3.546,2.8-1.078.819-2.206,1.568-.485.323-.977.631-1,.63-2.016,1.247-1.185.723-2.366,1.457-.879.548-1.751,1.1l-.005,0q-1.791,1.164-3.657,2.2t-3.812,1.956q-1.349.635-2.729,1.2-.918.375-1.864.678l-.091.029a10.919,10.919,0,0,0-2.765,1.363,10.94,10.94,0,0,0-4.765,9.034V213.3a4.243,4.243,0,1,1-8.485.006V148.472a19.42,19.42,0,0,1,13.523-18.509q.678-.216,1.336-.488,1.126-.465,2.23-.984,1.674-.789,3.291-1.691,1.647-.919,3.231-1.948.961-.615,1.932-1.218,1.238-.771,2.484-1.531.889-.543,1.773-1.095.4-.249.786-.507.954-.633,1.865-1.328,1.65-1.256,3.255-2.571a13.71,13.71,0,0,0,3.237-3.861,10.29,10.29,0,0,0,1.285-4.173,10.162,10.162,0,0,0-.551-4.25,11.354,11.354,0,0,0-3.941-5.368,10.947,10.947,0,0,0-6.173-2.159c-.061,0-.122,0-.183,0l-.195,0a11.1,11.1,0,0,0-10.345,7.042l-.044.11a11.565,11.565,0,0,0-.667,2.646,10.2,10.2,0,0,0,.629,5.053,11.446,11.446,0,0,0,1.294,2.4c.144.2.294.4.451.6s.325.389.5.576a4.243,4.243,0,0,1-6.247,5.744q-.445-.486-.86-1t-.776-1.029a19.273,19.273,0,0,1-2.183-18.183A19.545,19.545,0,0,1,216.19,91.527Zm28.158,51.538a11.109,11.109,0,0,0-6.3-5.083,4.243,4.243,0,0,1,1.277-8.29,4.29,4.29,0,0,1,.64.049,4.236,4.236,0,0,1,.63.147,19.61,19.61,0,0,1,4.132,1.85,19.638,19.638,0,0,1,7,7.136,19.362,19.362,0,0,1,2.546,9.6V213.3a4.241,4.241,0,0,1-2.617,3.921,4.241,4.241,0,0,1-4.625-.917,4.24,4.24,0,0,1-1.244-3V148.473A10.883,10.883,0,0,0,244.348,143.065ZM239.6,222.912v48.953a4.244,4.244,0,0,1-8.487,0V222.913a4.244,4.244,0,0,1,8.487,0Zm-18.641,0v48.953a4.243,4.243,0,0,1-8.486,0V222.913a4.243,4.243,0,0,1,8.486,0ZM178.06,49.325a.6.6,0,0,1,.521-.3h8.894a.6.6,0,0,0,.6-.6V21.26H201.1V48.422a.6.6,0,0,0,.6.6H210.6a.6.6,0,0,1,.521.9L195.11,77.652a.6.6,0,0,1-1.043,0L178.06,49.927A.6.6,0,0,1,178.06,49.325ZM163.6,211.947a4.249,4.249,0,0,1-8.306.693l-.156-.546q-2.56-8.914-5.111-17.833-.919-3.211-1.828-6.426-2.308-8.168-4.473-16.375-1.047-3.969-1.946-7.976-.551-2.451-1.038-4.916-.591-2.988-1.119-5.988-.281-1.6-.549-3.2-.654-3.9-1.294-7.8l-.015-.091a6.61,6.61,0,0,0-.3-1.176,5.445,5.445,0,0,0-.473-.993,5.8,5.8,0,0,0-.627-.843,8.278,8.278,0,0,0-.912-.874c-.131-.107-.265-.209-.4-.309s-.276-.2-.418-.288a4.248,4.248,0,0,1,1.879-7.79,4.1,4.1,0,0,1,.443-.024,4.188,4.188,0,0,1,1.2.175,4.3,4.3,0,0,1,1.111.515c.271.175.537.359.8.549s.525.4.779.6a15.418,15.418,0,0,1,3.544,4.158,14.357,14.357,0,0,1,1.773,4.96q.63,3.833,1.271,7.662.261,1.561.535,3.121.52,2.971,1.1,5.932.471,2.383,1,4.754.879,3.915,1.9,7.795,2.2,8.31,4.537,16.583.909,3.214,1.828,6.425,2.556,8.937,5.122,17.87A4.248,4.248,0,0,1,163.6,211.947ZM136.482,272.6a4.251,4.251,0,0,1-4.171,3.449c-.135,0-.269-.007-.4-.019s-.267-.031-.4-.056A4.25,4.25,0,0,1,128.136,271l9.4-49.027a4.255,4.255,0,0,1,2.93-3.264,4.182,4.182,0,0,1,1.237-.187c.133,0,.265.007.4.019s.274.032.409.058a4.252,4.252,0,0,1,3.373,4.974h0ZM129.041,49.286l16.007-27.725a.6.6,0,0,1,1.042,0L162.1,49.286a.6.6,0,0,1-.522.9h-8.893a.6.6,0,0,0-.6.6V77.953H139.057V50.791a.6.6,0,0,0-.6-.6h-8.893a.6.6,0,0,1-.521-.9ZM125.686,88.3a19.437,19.437,0,0,1,18.006,13.272,19.828,19.828,0,0,1,.682,2.489,20.179,20.179,0,0,1,.357,2.568,18.955,18.955,0,0,1-7.981,16.907q-5.25,3.681-10.662,7.122-4.149,2.637-8.448,5.026l-1.276.545-.135.075q-.357.258-.707.527c-.134.1-.265.21-.394.319l-.4.3q-.366.244-.709.523t-.652.585a7.458,7.458,0,0,0-.686.789,5.043,5.043,0,0,0-.451.719,4.8,4.8,0,0,0-.326.809,6.671,6.671,0,0,0-.216,1l-.06.387q-.63,3.9-1.274,7.792-.264,1.594-.541,3.185-.519,2.982-1.1,5.952-.486,2.472-1.036,4.93-.9,4.028-1.957,8.021-2.18,8.268-4.509,16.494-.915,3.23-1.839,6.457-2.573,8.984-5.156,17.965a4.248,4.248,0,0,1-4.084,3.074,4.239,4.239,0,0,1-1.174-.165,4.251,4.251,0,0,1-2.908-5.258l.03-.1q2.538-8.829,5.068-17.662.924-3.227,1.839-6.456,2.325-8.219,4.507-16.478,1.019-3.856,1.89-7.747.537-2.4,1.009-4.806.582-2.966,1.1-5.944.27-1.558.527-3.119.637-3.864,1.262-7.728a14.232,14.232,0,0,1,1.377-4.384,14.382,14.382,0,0,1,2.713-3.738q.551-.547,1.149-1.044.626-.517,1.292-.98.395-.325.8-.632.584-.438,1.178-.857l.556-.351,1.424-.57q4.059-2.265,7.981-4.764,5.126-3.264,10.1-6.754a10.909,10.909,0,0,0,2.033-1.86,10.043,10.043,0,0,0,2.223-4.726,11.042,11.042,0,0,0,.143-2.759,11.535,11.535,0,0,0-.589-2.884l-.042-.126a10.866,10.866,0,0,0-3.872-5.309A10.984,10.984,0,0,0,125.5,96.8a11.755,11.755,0,0,0-6.64,1.922,10.989,10.989,0,0,0-4.212,5.191,10.69,10.69,0,0,0-.692,5.561,11.063,11.063,0,0,0,2.232,5.247q.145.186.3.366c.106.124.213.246.323.366a4.243,4.243,0,0,1-1.656,6.858,4.307,4.307,0,0,1-1.645.26,4.24,4.24,0,0,1-2.951-1.365q-.279-.3-.544-.614t-.524-.642a19.617,19.617,0,0,1-3.96-9.3,18.981,18.981,0,0,1,1.218-9.869,19.536,19.536,0,0,1,7.439-9.178A20.046,20.046,0,0,1,125.686,88.3Zm-4.337,184.533a4.26,4.26,0,0,1-.69,1.509h0a4.23,4.23,0,0,1-1.212,1.127,4.281,4.281,0,0,1-1.556.58c-.112.018-.224.031-.337.04s-.227.013-.34.013a4.245,4.245,0,0,1-4.192-3.573L105.126,223.5a4.252,4.252,0,0,1,3.522-4.87c.114-.019.229-.033.344-.042s.229-.014.344-.014a4.138,4.138,0,0,1,1.283.2,4.274,4.274,0,0,1,2.318,1.818,4.252,4.252,0,0,1,.579,1.554l7.893,49.028A4.232,4.232,0,0,1,121.349,272.836ZM296.221,296.22H43.937V43.937h62.136a5.669,5.669,0,1,1,0,11.338h-50.8V284.881H284.882V55.275h-50.8a5.669,5.669,0,0,1,0-11.338h62.137Z"/>
      </g>
    </g>
</svg>
