<svg xmlns="http://www.w3.org/2000/svg" width="120mm" height="120mm" viewBox="0 0 340.157 340.158">
  <g id="Schilder">
      <g id="L-03">
        <path fill="#000000" stroke="none" d="M339.327.83a2.835,2.835,0,0,0-2-.83H2.834A2.834,2.834,0,0,0,0,2.835V337.323a2.836,2.836,0,0,0,2.834,2.835H337.323a2.836,2.836,0,0,0,2.834-2.835V2.835A2.834,2.834,0,0,0,339.327.83ZM234.149,149.272a20.632,20.632,0,1,1,6.043-14.589A20.633,20.633,0,0,1,234.149,149.272Zm14.544,18.8a4.252,4.252,0,0,1,4.252,4.252v99.534a4.251,4.251,0,0,1-4.252,4.252H190.425a4.251,4.251,0,0,1-4.252-4.252V172.32a4.252,4.252,0,0,1,4.252-4.252ZM178.06,49.325a.6.6,0,0,1,.521-.3h8.894a.6.6,0,0,0,.6-.6V21.26H201.1V48.422a.6.6,0,0,0,.6.6H210.6a.6.6,0,0,1,.521.9L195.11,77.652a.6.6,0,0,1-1.042,0L178.06,49.927A.6.6,0,0,1,178.06,49.325Zm-49.019-.039,16.007-27.725a.6.6,0,0,1,1.043,0L162.1,49.286a.6.6,0,0,1-.522.9h-8.893a.6.6,0,0,0-.6.6V77.953H139.057V50.791a.6.6,0,0,0-.6-.6h-8.893a.6.6,0,0,1-.521-.9Zm25.083,225.443a3.4,3.4,0,0,1-2.733,1.377H89.806a3.4,3.4,0,0,1-3.254-4.394l30.793-100.98a3.4,3.4,0,0,1,6.507,0l30.792,100.98A3.4,3.4,0,0,1,154.124,274.729ZM135.188,120.094a20.631,20.631,0,1,1-14.59-6.044A20.632,20.632,0,0,1,135.188,120.094ZM296.221,296.22H43.937V43.937h67.805V55.275H55.275V284.881H284.882V55.275H228.416V43.937h67.805Z"/>
      </g>
    </g>
</svg>
