<svg xmlns="http://www.w3.org/2000/svg" width="120mm" height="120mm" viewBox="0 0 340.158 340.158">
  <g id="Schilder">
      <g id="L-05-M">
        <path fill="#D4AF37" stroke="none" d="M339.328.83a2.839,2.839,0,0,0-2-.83H2.835A2.834,2.834,0,0,0,0,2.835V337.323a2.836,2.836,0,0,0,2.835,2.835H337.323a2.836,2.836,0,0,0,2.835-2.835V2.835A2.839,2.839,0,0,0,339.328.83ZM227.417,88.8A20.811,20.811,0,1,1,212.7,94.9,20.808,20.808,0,0,1,227.417,88.8Zm17.775,119.957v67.349h-9.824V208.757Zm-25.726,0v67.349h-9.824V208.757ZM178.06,49.324a.6.6,0,0,1,.522-.3h8.893a.6.6,0,0,0,.6-.6V21.26H201.1V48.422a.6.6,0,0,0,.6.6H210.6a.6.6,0,0,1,.521.9L195.11,77.652a.6.6,0,0,1-1.042,0L178.06,49.927A.606.606,0,0,1,178.06,49.324Zm21.757,88.724V205.4h-9.824V138.048ZM129.041,49.286l16.007-27.725a.6.6,0,0,1,1.043,0L162.1,49.286a.6.6,0,0,1-.521.9h-8.894a.6.6,0,0,0-.6.6V77.953H139.057V50.791a.6.6,0,0,0-.6-.6h-8.894a.6.6,0,0,1-.521-.9ZM175.4,201.336,166.17,204.7l-23.035-63.287,9.232-3.36ZM140.076,94.9A20.813,20.813,0,1,1,125.36,88.8,20.81,20.81,0,0,1,140.076,94.9Zm3.059,113.862v67.349h-9.824V208.757Zm-35.551,0h9.824v67.349h-9.824ZM84.55,204.7l-9.232-3.359,23.034-63.288,9.232,3.36ZM296.221,296.22H43.937V43.937h67.805V55.275H55.276V284.881H284.882V55.275H228.416V43.937h67.805Zm-41.2-90.824V138.048h9.824V205.4Z"/>
      </g>
    </g>
</svg>
