<svg xmlns="http://www.w3.org/2000/svg" width="120mm" height="120mm" viewBox="0 0 340.157 340.158">
  <g id="Schilder">
      <g id="L-06-R">
        <path fill="#A0552B" stroke="none" d="M339.327.83a2.838,2.838,0,0,0-2-.83H2.835A2.834,2.834,0,0,0,0,2.835V337.323a2.836,2.836,0,0,0,2.835,2.835H337.323a2.836,2.836,0,0,0,2.834-2.835V2.835A2.834,2.834,0,0,0,339.327.83ZM225.94,90.217A17.838,17.838,0,0,1,238.4,95.292a16.844,16.844,0,0,1,0,24.1,17.833,17.833,0,0,1-24.922,0,16.844,16.844,0,0,1,0-24.1A17.838,17.838,0,0,1,225.94,90.217Zm23.628,63.041a2.1,2.1,0,0,0-2.938,0,1.984,1.984,0,0,0-.6,1.42V267.925a8.039,8.039,0,0,1-2.42,5.754,8.515,8.515,0,0,1-11.9.007,8.046,8.046,0,0,1-2.427-5.751V208.461a3.213,3.213,0,0,0-.967-2.3,3.4,3.4,0,0,0-4.758,0,3.214,3.214,0,0,0-.97,2.3v59.468a8.043,8.043,0,0,1-2.42,5.754,8.517,8.517,0,0,1-11.9.006,8.044,8.044,0,0,1-2.425-5.752V154.679a1.988,1.988,0,0,0-.6-1.421,2.106,2.106,0,0,0-2.939,0,1.992,1.992,0,0,0-.6,1.42v38.294a5.2,5.2,0,0,1-1.57,3.722,5.509,5.509,0,0,1-7.7,0,5.206,5.206,0,0,1-1.568-3.72V148.132a16.841,16.841,0,0,1,5.074-12.049,17.83,17.83,0,0,1,12.458-5.074h35.065a17.83,17.83,0,0,1,12.458,5.074,16.842,16.842,0,0,1,5.075,12.049v44.841a5.2,5.2,0,0,1-1.566,3.724,5.508,5.508,0,0,1-7.7,0,5.2,5.2,0,0,1-1.571-3.722v-38.3A1.984,1.984,0,0,0,249.568,153.258ZM178.06,49.324a.6.6,0,0,1,.521-.3h8.893a.6.6,0,0,0,.6-.6V21.26H201.1V48.422a.6.6,0,0,0,.6.6H210.6a.6.6,0,0,1,.522.9L195.11,77.652a.6.6,0,0,1-1.043,0L178.06,49.927A.6.6,0,0,1,178.06,49.324Zm-11.2,144.551a5.405,5.405,0,0,1-3.145,2.665h0a5.556,5.556,0,0,1-4.157-.3,5.311,5.311,0,0,1-2.685-3.065L144.6,156.8a2.033,2.033,0,0,0-1.026-1.171,2.121,2.121,0,0,0-1.587-.116,2.061,2.061,0,0,0-1.2,1.018,1.969,1.969,0,0,0-.116,1.534l18.66,55.29a2.433,2.433,0,0,1-.145,1.9,2.565,2.565,0,0,1-1.881,1.351,2.586,2.586,0,0,1-.4.031H140.034v52.925a6.427,6.427,0,0,1-1.935,4.6,6.812,6.812,0,0,1-9.517.007,6.432,6.432,0,0,1-1.942-4.6V216.636h-6.7v52.925a6.432,6.432,0,0,1-1.936,4.6,6.811,6.811,0,0,1-9.518.007,6.435,6.435,0,0,1-1.941-4.6V216.636H89.685a2.6,2.6,0,0,1-1.817-.738,2.452,2.452,0,0,1-.741-1.756,2.511,2.511,0,0,1,.032-.4,2.447,2.447,0,0,1,.1-.388l18.66-55.29a1.969,1.969,0,0,0-.116-1.534,2.067,2.067,0,0,0-1.2-1.018,2.123,2.123,0,0,0-1.588.116,2.028,2.028,0,0,0-1.025,1.171L89.711,193.171a5.307,5.307,0,0,1-2.694,3.056,5.557,5.557,0,0,1-4.158.291,5.4,5.4,0,0,1-3.129-2.659,5.156,5.156,0,0,1-.31-4l15.892-47.088a17.073,17.073,0,0,1,6.324-8.483,17.907,17.907,0,0,1,10.328-3.279h22.655a17.907,17.907,0,0,1,10.328,3.279,17.073,17.073,0,0,1,6.324,8.483l15.892,47.088A5.16,5.16,0,0,1,166.859,193.875ZM129.04,49.286l16.008-27.725a.6.6,0,0,1,1.042,0L162.1,49.286a.6.6,0,0,1-.521.9h-8.893a.6.6,0,0,0-.6.6V77.953H139.057V50.791a.6.6,0,0,0-.6-.6h-8.893a.6.6,0,0,1-.522-.9Zm6.713,46.007a16.843,16.843,0,0,1,0,24.1,17.836,17.836,0,0,1-24.923,0,16.844,16.844,0,0,1,0-24.1,17.834,17.834,0,0,1,24.923,0ZM296.221,296.22H43.937V43.937h62.136a5.669,5.669,0,1,1,0,11.338h-50.8V284.881H284.882V55.275h-50.8a5.669,5.669,0,0,1,0-11.338h62.137Z"/>
      </g>
    </g>
</svg>
