<svg xmlns="http://www.w3.org/2000/svg" width="120mm" height="120mm" viewBox="0 0 340.158 340.157">
  <g id="Schilder">
      <g id="M-01-M">
        <path fill="#D4AF37" stroke="none" d="M0,2.835V337.323a2.834,2.834,0,0,0,2.835,2.834H337.323a2.834,2.834,0,0,0,2.834-2.834V2.835A2.835,2.835,0,0,0,337.323,0H2.835A2.835,2.835,0,0,0,0,2.835Zm257.336,98.109a23.119,23.119,0,1,1-23.119,23.119A23.118,23.118,0,0,1,257.336,100.944Zm-30.262,55.067h27.533l-1.919,46.357,4.156,5.064a.636.636,0,0,0,.983,0l4.156-5.064-1.919-46.357H287.6v56.621H227.074Zm-59.48-55.067a23.119,23.119,0,1,1-23.119,23.119A23.119,23.119,0,0,1,167.594,100.944Zm-30.261,55.067h18.7l.3.534.308.52.314.5.321.491.327.475.332.46.339.444.344.428.35.412.355.4.36.379.365.361.369.345.373.327.378.309.381.292.385.274.389.256.392.237.394.219.4.2.4.182.4.163.4.144.406.125.407.106.409.088.409.067.41.049.411.03.411.01.411-.009.411-.028.41-.047.409-.067.409-.086.407-.1.406-.124.4-.143.4-.162.4-.18.4-.2.4-.218.392-.236.388-.255.386-.272.382-.29.377-.309.374-.326.37-.343.365-.36.36-.378.355-.394.35-.411.345-.426.339-.443.333-.459.328-.474.321-.49.315-.5.308-.519.3-.533.022-.039h18.7L186.3,179.139l17.533,33.493h-72.47l17.533-33.493Zm-59.48-55.067a23.119,23.119,0,1,1-23.119,23.119A23.118,23.118,0,0,1,77.853,100.944ZM47.591,156.011H75.124l-1.919,46.357,4.156,5.064a.636.636,0,0,0,.983,0l4.156-5.064-1.919-46.357h27.533v56.621H47.591Zm271.153,74.358H21.413V219.983H318.744Z"/>
      </g>
    </g>
</svg>
