<svg xmlns="http://www.w3.org/2000/svg" width="120mm" height="120mm" viewBox="0 0 340.157 340.157">
  <g id="Schilder">
      <g id="M-02-R">
        <path fill="#A0552B" stroke="none" d="M0,2.835V337.323a2.834,2.834,0,0,0,2.835,2.834H337.323a2.834,2.834,0,0,0,2.834-2.834V2.835A2.834,2.834,0,0,0,337.323,0H2.835A2.835,2.835,0,0,0,0,2.835Zm297.99,168.8v38.52h-9.857v-38.52a12.68,12.68,0,0,0-6.279-10.969,12.891,12.891,0,0,0-2.713-1.215,4.928,4.928,0,0,1,2.958-9.4,22.715,22.715,0,0,1,15.891,21.586Zm-65.6,0a22.477,22.477,0,0,1,15.708-21.5,40.139,40.139,0,0,0,4.141-1.71,64.037,64.037,0,0,0,7.575-4.226c2.25-1.438,3.844-2.41,5.129-3.193,1.167-.712,2.088-1.274,2.973-1.861a70.738,70.738,0,0,0,5.946-4.529,13.73,13.73,0,0,0,5.252-9.331,11.709,11.709,0,0,0-.641-4.936,13.027,13.027,0,0,0-11.746-8.743c-.147,0-.293-.008-.44-.008a12.911,12.911,0,0,0-12.015,8.179l-.051.128a12.226,12.226,0,0,0,1.46,11.727,13.253,13.253,0,0,0,1.1,1.361,4.929,4.929,0,0,1-7.257,6.672,23.743,23.743,0,0,1-1.9-2.354,22.322,22.322,0,0,1-2.535-21.119,22.744,22.744,0,0,1,42.688.9,21.671,21.671,0,0,1,1.158,9.027,23.546,23.546,0,0,1-8.884,16.165,81.671,81.671,0,0,1-6.681,5.068c-1.132.751-2.156,1.376-3.475,2.18-1.256.766-2.749,1.676-4.783,2.975l0,0a73.139,73.139,0,0,1-8.675,4.832,45.334,45.334,0,0,1-5.335,2.179l-.106.033a12.719,12.719,0,0,0-3.211,1.584,12.53,12.53,0,0,0-5.534,10.492v38.52h-9.856Zm-26.7,0v38.52h-9.857v-38.52a12.682,12.682,0,0,0-6.278-10.969,12.922,12.922,0,0,0-2.714-1.215,4.928,4.928,0,0,1,2.958-9.4,22.711,22.711,0,0,1,15.891,21.586Zm-65.6,0a22.477,22.477,0,0,1,15.708-21.5,40.043,40.043,0,0,0,4.141-1.71,64.037,64.037,0,0,0,7.575-4.226c2.251-1.438,3.845-2.41,5.129-3.193,1.167-.712,2.088-1.274,2.973-1.861a70.738,70.738,0,0,0,5.946-4.529,13.735,13.735,0,0,0,5.253-9.331,11.724,11.724,0,0,0-.641-4.936,13.03,13.03,0,0,0-11.747-8.743c-.147,0-.293-.008-.44-.008a12.91,12.91,0,0,0-12.014,8.179l-.052.128a12.226,12.226,0,0,0,1.46,11.727,13.253,13.253,0,0,0,1.1,1.361,4.929,4.929,0,0,1-7.257,6.672,23.732,23.732,0,0,1-1.9-2.354,22.32,22.32,0,0,1-2.536-21.119,22.744,22.744,0,0,1,42.688.9,21.671,21.671,0,0,1,1.158,9.027,23.549,23.549,0,0,1-8.883,16.165,81.829,81.829,0,0,1-6.682,5.068c-1.132.751-2.156,1.376-3.475,2.18-1.256.766-2.749,1.676-4.783,2.975l0,0a73.139,73.139,0,0,1-8.675,4.832,45.334,45.334,0,0,1-5.335,2.179l-.1.033a12.709,12.709,0,0,0-3.212,1.584,12.53,12.53,0,0,0-5.534,10.492v38.52H140.1Zm-26.7,0v38.52h-9.857v-38.52a12.682,12.682,0,0,0-6.278-10.969,12.922,12.922,0,0,0-2.714-1.215,4.928,4.928,0,0,1,2.958-9.4A22.711,22.711,0,0,1,113.4,171.631Zm-65.6,0a22.475,22.475,0,0,1,15.707-21.5,40.043,40.043,0,0,0,4.141-1.71,64.037,64.037,0,0,0,7.575-4.226c2.251-1.438,3.845-2.41,5.13-3.193,1.166-.712,2.087-1.274,2.972-1.861a70.569,70.569,0,0,0,5.946-4.529,13.732,13.732,0,0,0,5.253-9.331,11.724,11.724,0,0,0-.641-4.936A13.03,13.03,0,0,0,82.136,111.6c-.147,0-.293-.008-.44-.008a12.91,12.91,0,0,0-12.014,8.179l-.052.128a12.226,12.226,0,0,0,1.46,11.727,13.253,13.253,0,0,0,1.1,1.361,4.929,4.929,0,0,1-7.256,6.672,23.6,23.6,0,0,1-1.9-2.354A22.32,22.32,0,0,1,60.5,116.19a22.745,22.745,0,0,1,42.689.9,21.7,21.7,0,0,1,1.158,9.027,23.55,23.55,0,0,1-8.884,16.165,81.829,81.829,0,0,1-6.682,5.068c-1.132.751-2.155,1.376-3.475,2.18-1.256.766-2.749,1.676-4.783,2.975l0,0a73.139,73.139,0,0,1-8.675,4.832,45.334,45.334,0,0,1-5.335,2.179l-.105.033a12.686,12.686,0,0,0-3.211,1.584,12.528,12.528,0,0,0-5.535,10.492v38.52H47.8ZM313.551,227.9H26.606a5.193,5.193,0,0,1,0-10.386H313.551a5.193,5.193,0,1,1,0,10.386Z"/>
      </g>
    </g>
</svg>
