<svg xmlns="http://www.w3.org/2000/svg" width="120mm" height="120mm" viewBox="0 0 340.157 340.157">
  <g id="Schilder">
      <g id="M-03-R">
        <path fill="#A0552B" stroke="none" d="M339.327.83a2.835,2.835,0,0,0-2-.83H2.835A2.834,2.834,0,0,0,0,2.835V337.323a2.834,2.834,0,0,0,2.835,2.834H337.323a2.834,2.834,0,0,0,2.834-2.834V2.835A2.834,2.834,0,0,0,339.327.83ZM240.8,122.9a21.366,21.366,0,1,1,6.258,15.109A21.365,21.365,0,0,1,240.8,122.9Zm-13.387,38.917a4.251,4.251,0,0,1,4.252-4.252h60.5a4.252,4.252,0,0,1,4.252,4.252v50.816h-69Zm-77.423-38.363a21.368,21.368,0,1,1,6.259,15.109,21.367,21.367,0,0,1-6.259-15.109Zm-13.077,38.363a4.251,4.251,0,0,1,4.252-4.252h60.5a4.252,4.252,0,0,1,4.252,4.252v50.816h-69ZM59.758,122.9a21.366,21.366,0,1,1,6.258,15.109A21.365,21.365,0,0,1,59.758,122.9ZM46.415,161.816a4.251,4.251,0,0,1,4.252-4.252h60.5a4.252,4.252,0,0,1,4.252,4.252v50.816h-69Zm272.329,68.561H21.413V219.991H318.744Z"/>
      </g>
    </g>
</svg>
