<svg xmlns="http://www.w3.org/2000/svg" width="120mm" height="120mm" viewBox="0 0 340.157 340.157">
  <g id="Schilder">
      <g id="M-05-R">
        <path fill="#A0552B" stroke="none" d="M0,2.835V337.323a2.834,2.834,0,0,0,2.835,2.834H337.323a2.834,2.834,0,0,0,2.834-2.834V2.835A2.834,2.834,0,0,0,337.323,0H2.835A2.835,2.835,0,0,0,0,2.835ZM297.292,156.964h10.941v55.668H297.292Zm-30.739-54.849a23.178,23.178,0,1,1-23.177,23.178A23.178,23.178,0,0,1,266.553,102.115Zm-41.679,54.849h10.941v55.668H224.874Zm-23.626,0h10.941v55.668H201.248ZM170.51,102.115a23.178,23.178,0,1,1-23.178,23.178A23.178,23.178,0,0,1,170.51,102.115Zm-41.68,54.849h10.941v55.668H128.83Zm-21.352,0h10.941v55.668H107.478ZM76.74,102.115a23.178,23.178,0,1,1-23.178,23.178A23.177,23.177,0,0,1,76.74,102.115ZM35.06,156.964H46v55.668H35.06Zm283.684,73.413H21.413V219.991H318.744Z"/>
      </g>
    </g>
</svg>
