<svg xmlns="http://www.w3.org/2000/svg" width="120mm" height="120mm" viewBox="0 0 340.157 340.157">
  <g id="Schilder">
      <g id="M-06-E">
        <path fill="#A09f9d" stroke="none" d="M2.835,0A2.835,2.835,0,0,0,0,2.835V337.323a2.834,2.834,0,0,0,2.835,2.834H337.323a2.834,2.834,0,0,0,2.834-2.834V2.835A2.834,2.834,0,0,0,337.323,0Zm256.5,111.644a18.706,18.706,0,1,1-18.706,18.706A18.706,18.706,0,0,1,259.338,111.644Zm-37.4,63.259a18.7,18.7,0,0,1,18.7-18.7h37.4a18.7,18.7,0,0,1,18.7,18.7v37.729H285.183V182.054a2.207,2.207,0,0,0-4.414,0v30.578H237.907V182.054a2.208,2.208,0,0,0-4.415,0v30.578H221.934Zm-50.346-63.259a18.706,18.706,0,1,1-18.706,18.706A18.706,18.706,0,0,1,171.588,111.644Zm-37.4,63.259a18.7,18.7,0,0,1,18.7-18.7h37.4a18.7,18.7,0,0,1,18.7,18.7v37.729H197.433V182.054a2.207,2.207,0,0,0-4.414,0v30.578H150.157V182.054a2.208,2.208,0,0,0-4.415,0v30.578H134.184ZM83.838,111.644A18.706,18.706,0,1,1,65.132,130.35,18.706,18.706,0,0,1,83.838,111.644ZM46.434,174.9a18.7,18.7,0,0,1,18.7-18.7h37.4a18.7,18.7,0,0,1,18.7,18.7v37.729H109.683V182.054a2.207,2.207,0,0,0-4.414,0v30.578H62.407V182.054a2.208,2.208,0,0,0-4.415,0v30.578H46.434Zm267.117,55.474H26.829a5.342,5.342,0,0,1-5.391-4.682,5.194,5.194,0,0,1,5.168-5.7h288.27a2.771,2.771,0,0,1,2.086.911C320.839,225.3,317.788,230.377,313.551,230.377Z"/>
      </g>
    </g>
</svg>
