<svg xmlns="http://www.w3.org/2000/svg" width="106.3mm" height="138.076mm" viewBox="0 0 301.323 391.397">
  <g id="Hausnummern">
      <g id="N-01-6">
        <path fill="#000000" stroke="none" d="M71.937,373.756q-34.483-17.634-53.206-48.51T0,255.787q0-48.5,42.348-106.946L141.16,11.025A43.479,43.479,0,0,1,149.3,2.756Q153.1.005,160.162,0H211.74a9.757,9.757,0,0,1,7.873,3.583,12.966,12.966,0,0,1,2.986,8.545,12.834,12.834,0,0,1-2.172,7.166L144.418,125.688q8.679-2.2,22.8-2.2A138.228,138.228,0,0,1,234.272,141.4a133.253,133.253,0,0,1,48.862,47.133q18.184,29.768,18.189,66.152,0,37.494-18.189,68.632t-52.12,49.613q-33.937,18.477-78.995,18.468Q106.413,391.4,71.937,373.756Zm130.574-65.324q21.174-19.02,21.173-52.645,0-33.077-20.9-52.095t-51.849-19.019q-30.413,0-51.307,19.019t-20.9,52.1q0,33.632,20.9,52.645t51.307,19.019Q181.334,327.451,202.511,308.432Z"/>
      </g>
    </g>
</svg>
