<svg xmlns="http://www.w3.org/2000/svg" width="105.988mm" height="140.021mm" viewBox="0 0 300.438 396.909">
  <g id="Hausnummern">
      <g id="N-01-0">
        <path fill="#000000" stroke="none" d="M39.967,356.115Q3.855,315.327.551,249.171,0,234.287,0,198.454q0-36.382.551-51.818Q3.3,81.595,40.242,40.793T149.944,0q72.765,0,109.7,40.793t39.691,105.843q1.1,30.879,1.1,51.818,0,20.958-1.1,50.717-3.308,66.15-39.416,106.944T149.944,396.909Q76.066,396.909,39.967,356.115Zm161.244-46.03q17.081-22.326,18.191-63.671.544-15.981.552-49.062t-.552-47.96q-1.11-40.233-18.191-62.844T149.944,63.4q-34.188.556-51.268,23.153T80.484,149.392q-.555,14.885-.551,47.96t.551,49.062q1.1,41.346,18.192,63.671t51.268,22.326Q184.117,332.411,201.211,310.085Z"/>
      </g>
    </g>
</svg>
