<svg xmlns="http://www.w3.org/2000/svg" width="105.793mm" height="138.076mm" viewBox="0 0 299.886 391.396">
  <g id="Hausnummern">
      <g id="N-01-9">
        <path fill="#000000" stroke="none" d="M74.42,387.813a12.158,12.158,0,0,1-3.307-8.544,12.56,12.56,0,0,1,2.756-7.166l81.036-111.356a102.9,102.9,0,0,1-23.154,2.2q-36.383-1.1-66.427-18.467A132.411,132.411,0,0,1,17.64,198.179Q-.009,169.238,0,133.957A131.845,131.845,0,0,1,17.089,68.632q17.081-30.6,50.716-49.613Q101.423,0,148.841,0,196.8,0,230.979,17.916t51.543,47.959a129.345,129.345,0,0,1,17.364,65.876A124.142,124.142,0,0,1,292.72,174.2a182.3,182.3,0,0,1-16.262,34.453q-9.1,14.615-25.634,37.762L154.353,380.371a43.765,43.765,0,0,1-8.269,8.27q-3.863,2.763-10.474,2.755H82.689A10.765,10.765,0,0,1,74.42,387.813ZM200.108,184.4q20.388-19.019,20.4-50.44,0-31.965-20.4-50.992T149.392,63.946q-29.769,0-50.165,19.019t-20.4,50.992q0,31.422,20.121,50.44t50.44,19.019Q179.7,203.416,200.108,184.4Z"/>
      </g>
    </g>
</svg>
