<svg xmlns="http://www.w3.org/2000/svg" width="102.682mm" height="138.465mm" viewBox="0 0 291.066 392.499">
  <g id="Hausnummern">
      <g id="N-01-2-M">
        <path fill="#D4AF37" stroke="none" d="M3.859,388.641A12.74,12.74,0,0,1,0,379.269V350.6q0-15.429,13.782-25.911S145.99,201.856,160.142,188.807s24.712-25.082,31.7-36.107,10.473-21.862,10.473-32.525q0-25.9-13.781-40.793T146.636,64.5q-27.571,0-43.274,16.262t-19.57,42.172q-1.655,6.614-6.339,9.647a18.406,18.406,0,0,1-10.2,3.031H17.641A11.3,11.3,0,0,1,6.064,124.034,126.093,126.093,0,0,1,23.98,63.119Q40.789,34.733,72.216,17.365T146.085,0q44.1,0,74.972,15.16t46.305,41.62Q282.79,83.24,282.8,116.868a115.481,115.481,0,0,1-20.672,66.978C248.344,203.881,121.278,325.8,121.278,325.8H277.285a13.217,13.217,0,0,1,13.781,13.782v39.691a12.538,12.538,0,0,1-3.858,9.647,13.986,13.986,0,0,1-9.923,3.583H13.23A12.736,12.736,0,0,1,3.859,388.641Z"/>
      </g>
    </g>
</svg>
