<svg xmlns="http://www.w3.org/2000/svg" width="92.958mm" height="105.016mm" viewBox="0 0 263.503 297.682">
  <g id="Hausnummern">
      <g id="N-01-A-M">
        <path fill="#D4AF37" stroke="none" d="M50.44,286.381Q27,275.089,13.506,255.786A72.367,72.367,0,0,1,0,213.338q0-37.48,30.319-60.638t83.241-31.422l75.523-11.026V98.676q0-23.7-12.128-35.832-12.132-12.119-38.588-12.128-18.192,0-29.217,6.616A92.684,92.684,0,0,0,91.234,70.837l-9.1,9.1q-2.209,6.615-8.269,6.615h-43a12.161,12.161,0,0,1-8.545-3.307,11.4,11.4,0,0,1-3.583-8.821q.542-13.771,13.506-31.146Q45.194,25.91,72.215,12.955,99.218.008,138.918,0q65.04,0,94.817,29.217T263.5,105.842v173.1a13.272,13.272,0,0,1-3.583,9.372,12.533,12.533,0,0,1-9.647,3.858H204.519a13.172,13.172,0,0,1-13.231-13.23v-21.5q-12.132,17.649-34.179,28.941t-55.126,11.3Q73.87,297.682,50.44,286.381Zm119.9-61.465q19.29-19.846,19.294-57.332V156.559l-55.126,8.82q-63.4,9.923-63.4,42.448,0,17.648,14.608,27.287t35.006,9.647Q151.038,244.761,170.34,224.916Z"/>
      </g>
    </g>
</svg>
