<svg xmlns="http://www.w3.org/2000/svg" width="106.3mm" height="138.076mm" viewBox="0 0 301.323 391.397">
  <g id="Hausnummern">
      <g id="N-01-3-R">
        <path fill="#A0552B" stroke="none" d="M68.084,375.961Q34.452,360.535,17.773,337.1T0,288.862a11.263,11.263,0,0,1,3.281-8.269,11.083,11.083,0,0,1,8.2-3.307H61.8q12.023,0,16.406,11.025,12.021,39.149,72.186,39.14,33.35,0,52.226-15.436t18.866-44.1q0-28.657-17.226-41.621-17.226-12.945-50.585-12.954H97.342a12.583,12.583,0,0,1-9.3-3.859,12.783,12.783,0,0,1-3.828-9.371V176.4q0-10.466,7.109-16.537l97.342-95.92H32.812a13.243,13.243,0,0,1-9.844-3.859,12.785,12.785,0,0,1-3.828-9.372V13.782a13.488,13.488,0,0,1,3.828-9.923A13.273,13.273,0,0,1,32.812,0H267.964a13.3,13.3,0,0,1,9.844,3.859,13.523,13.523,0,0,1,3.827,9.923V47.409a19.4,19.4,0,0,1-7.108,15.435l-94.062,97.573,6.563.552q52.5,4.419,83.4,31.973,30.889,27.573,30.9,78.831,0,36.384-19.414,63.395t-53.593,41.621q-34.184,14.6-77.928,14.608Q101.709,391.4,68.084,375.961Z"/>
      </g>
    </g>
</svg>
