<svg xmlns="http://www.w3.org/2000/svg" width="72.733mm" height="136.131mm" viewBox="0 0 206.172 385.884">
  <g id="Hausnummern">
      <g id="N-01-1">
        <path fill="#000000" stroke="none" d="M132.3,382.026a12.739,12.739,0,0,1-3.859-9.372V88.2L45.2,152.149a12.452,12.452,0,0,1-8.269,2.756,12.127,12.127,0,0,1-10.475-5.512l-23.7-30.871A13.166,13.166,0,0,1,0,110.8q0-6.615,6.064-11.025L129.547,3.859A25.141,25.141,0,0,1,143.328,0h49.613a12.8,12.8,0,0,1,9.372,3.859,12.8,12.8,0,0,1,3.859,9.371V372.654a13.174,13.174,0,0,1-13.231,13.23H141.674A12.733,12.733,0,0,1,132.3,382.026Z"/>
      </g>
    </g>
</svg>
