<svg xmlns="http://www.w3.org/2000/svg" width="105.404mm" height="138.27mm" viewBox="0 0 298.784 391.948">
  <g id="Hausnummern">
      <g id="N-01-5-M">
        <path fill="#D4AF37" stroke="none" d="M68.632,376.513q-33.359-15.427-50.44-40.794Q1.1,310.371,0,281.144v-1.1A9.383,9.383,0,0,1,3.583,272.6a12.082,12.082,0,0,1,7.994-3.032h52.37q12.673,0,15.987,11.025,7.713,24.264,25.633,35.832T147.739,328q30.865,0,50.991-18.743t20.122-51.818q0-29.769-20.122-48.235t-50.991-18.468q-16.539,0-27.012,4.41a90.7,90.7,0,0,0-20.4,12.128,52.665,52.665,0,0,0-4.961,3.308,29.769,29.769,0,0,1-6.891,3.859,18.3,18.3,0,0,1-6.34,1.1H30.32a11.638,11.638,0,0,1-8.545-3.584,11.632,11.632,0,0,1-3.583-8.543L36.935,15.436a16.01,16.01,0,0,1,5.237-11.3A16.477,16.477,0,0,1,53.473,0H260.747q6.06,0,9.648,3.583t3.583,9.647V50.716a13.274,13.274,0,0,1-3.583,9.372,12.535,12.535,0,0,1-9.648,3.859H101.433l-8.821,89.3a119.1,119.1,0,0,1,29.217-13.5q16.538-5.234,43-5.238,35.829,0,66.428,15.16a122.253,122.253,0,0,1,49.062,43.55q18.463,28.4,18.467,65.876,0,40.245-18.742,70.285T227.12,375.686q-34.186,16.254-79.381,16.262Q101.976,391.948,68.632,376.513Z"/>
      </g>
    </g>
</svg>
