<svg xmlns="http://www.w3.org/2000/svg" width="97.626mm" height="140.021mm" viewBox="0 0 276.734 396.909">
  <g id="Hausnummern">
      <g id="N-01-B-R">
        <path fill="#A0552B" stroke="none" d="M71.113,357.77v20.4a12.768,12.768,0,0,1-3.859,9.372,13.429,13.429,0,0,1-9.922,3.858H13.23a12.734,12.734,0,0,1-9.371-3.858A12.737,12.737,0,0,1,0,378.166V13.23A12.532,12.532,0,0,1,3.859,3.583,13.269,13.269,0,0,1,13.23,0H61.19q6.06,0,9.647,3.583T74.42,13.23V135.61q30.867-36.383,84.343-36.383,55.674,0,85.722,36.108t31.7,94.541q.543,6.615.552,18.192,0,11.034-.552,18.192-2.21,59.537-31.973,95.093t-85.446,35.556Q101.424,396.909,71.113,357.77ZM200.66,264.606q.541-5.5.55-16.538t-.55-16.538q-3.864-72.766-62.844-72.766-30.324,0-46.306,19.294T74.42,224.915q-.555,6.615-.551,21.5,0,14.343.551,20.948,1.1,29.226,16.538,49.614t46.858,20.4Q196.8,337.373,200.66,264.606Z"/>
      </g>
    </g>
</svg>
