<svg xmlns="http://www.w3.org/2000/svg" width="105.299mm" height="136.131mm" viewBox="0 0 298.486 385.884">
  <g id="Hausnummern">
      <g id="N-01-4-R">
        <path fill="#A0552B" stroke="none" d="M185.776,382.026a12.735,12.735,0,0,1-3.859-9.372V302.092L13.23,302.1a12.733,12.733,0,0,1-9.371-3.859A12.733,12.733,0,0,1,0,288.869v-46.43A26.276,26.276,0,0,1,6.063,225.9L162.623,9.372a18.209,18.209,0,0,1,8.268-6.891A29.2,29.2,0,0,1,183.019,0h60.639q6.06,0,9.647,3.583t3.583,9.647V236.492H285.25c4.039,0,8.67,1.2,11.064,3.584s2.167,5.606,2.167,9.646v39.14c0,3.678.22,6.8-2.167,9.372s-7.025,3.858-11.064,3.858H256.888v70.562a13.273,13.273,0,0,1-3.583,9.372,12.53,12.53,0,0,1-9.647,3.858H195.147A12.733,12.733,0,0,1,185.776,382.026ZM71.665,238.7H183.571V80.484Z"/>
      </g>
    </g>
</svg>
