<svg xmlns="http://www.w3.org/2000/svg" width="106.3mm" height="140.021mm" viewBox="0 0 301.323 396.909">
  <g id="Hausnummern">
      <g id="N-01-8-E">
        <path fill="#A09f9d" stroke="none" d="M69.515,381.749Q35.7,366.595,17.852,339.578T0,277.836q0-30.865,14.877-54.851a97.921,97.921,0,0,1,40.3-36.658,87.252,87.252,0,0,1-30.836-32.8Q13.516,133.41,13.525,107.5q0-48.5,35.975-78Q85.47.008,150.391,0T251.012,29.217q35.7,29.225,35.7,77.728,0,25.919-10.55,46.03A89.382,89.382,0,0,1,245.6,186.327a97.257,97.257,0,0,1,40.845,36.658q14.873,23.982,14.876,55.4,0,34.73-17.852,61.466t-51.933,41.9q-34.083,15.156-81.147,15.16T69.515,381.749Zm134.162-59.261q21.364-16.537,21.369-44.1t-21.369-44.1Q182.3,217.75,150.391,217.749q-31.926,0-53.015,16.262t-21.1,44.377q0,27.572,21.1,44.1t53.015,16.538Q182.3,339.026,203.677,322.488Zm-6.492-175.026q18.664-14.056,18.664-37.21,0-23.7-18.394-38.037T150.391,57.882q-28.134,0-46.524,14.333T85.474,110.252q0,23.709,18.393,37.762t46.524,14.057Q178.513,161.528,197.185,147.462Z"/>
      </g>
    </g>
</svg>
