<svg xmlns="http://www.w3.org/2000/svg" width="95.097mm" height="136.131mm" viewBox="0 0 269.567 385.884">
  <g id="Hausnummern">
      <g id="N-01-7-R">
        <path fill="#A0552B" stroke="none" d="M55.677,382.3a12.159,12.159,0,0,1-3.307-8.545,17.284,17.284,0,0,1,1.1-4.961l132.3-302.643H13.23a12.733,12.733,0,0,1-9.371-3.859A12.732,12.732,0,0,1,0,52.921V13.782A13.988,13.988,0,0,1,3.583,3.859,12.535,12.535,0,0,1,13.23,0H255.785a13.462,13.462,0,0,1,9.923,3.859,13.464,13.464,0,0,1,3.859,9.923V48.511a57.126,57.126,0,0,1-5.512,23.7l-131.2,300.438a37.607,37.607,0,0,1-7.166,9.647q-3.864,3.593-10.474,3.583H63.946A10.765,10.765,0,0,1,55.677,382.3Z"/>
      </g>
    </g>
</svg>
