<svg xmlns="http://www.w3.org/2000/svg" width="97.864mm" height="138.109mm" viewBox="0 0 277.409 391.49">
  <g id="Hausnummern">
      <g id="N-02-5">
        <path fill="#000000" stroke="none" d="M240.977,164.848c-24-22.6-57.677-34.055-100.093-34.055a164.356,164.356,0,0,0-23.528,1.8l-.118.018A199.394,199.394,0,0,0,77.271,142.88a5.659,5.659,0,0,1-7.629-5.8l5.175-59.159a5.669,5.669,0,0,1,5.648-5.176H185.208a98.609,98.609,0,0,1,15.189.992c8.666,1.627,12.593,5.571,13.532,13.582l1.869,18.538a5.67,5.67,0,0,0,5.641,5.1h27.18a5.669,5.669,0,0,0,5.617-4.9L267.865,6.438A5.669,5.669,0,0,0,262.248,0H40.145A5.67,5.67,0,0,0,34.49,5.262L20.514,199.379a5.669,5.669,0,0,0,8.168,5.489l7.307-3.615c28.777-14.236,57.712-21.453,86-21.453,20.691,0,37.031,7,49.954,21.394,13.032,14.522,19.641,35.466,19.641,62.248a127.67,127.67,0,0,1-5.789,39.426c-10.658,32.687-33.59,48.577-70.1,48.577-12.106,0-22.693-1.272-31.7-3.8a5.65,5.65,0,0,1-2.756-9.119,40.907,40.907,0,0,0,10.4-27.491c0-13.845-4.522-25.389-13.444-34.315s-21.077-13.44-36.128-13.44c-10.234,0-19.9,4.482-28.743,13.32A44.263,44.263,0,0,0,0,308.978c0,25.221,12.665,45.749,37.644,61.014,23.343,14.265,50.418,21.5,80.473,21.5,46.144,0,84.474-12.1,113.925-35.973,30.1-24.4,45.367-58.391,45.367-101.036C277.409,217.769,265.151,187.612,240.977,164.848Z"/>
      </g>
    </g>
</svg>
