<svg xmlns="http://www.w3.org/2000/svg" width="104.5mm" height="138.224mm" viewBox="0 0 296.22 391.815">
  <g id="Hausnummern">
      <g id="N-02-9">
        <path fill="#000000" stroke="none" d="M40.505,234.482c42.961,35.928,110.548,38.088,157.451,8.336a5.789,5.789,0,0,1,8.809,5.7c-5.233,40.87-19.87,91.389-62.474,102.943a76.571,76.571,0,0,1-32.434,1.772,5.869,5.869,0,0,1-4.218-8.125c6.566-15.717,1.282-36-11.158-47.168-13.4-12.036-37.442-15.016-52.728-5.2-16.88,10.845-23.236,33.2-17.251,52.109C31.531,360.735,44.98,371.8,59.369,378.8c17.522,8.521,37.171,11.884,56.453,12.8,23.062,1.1,45.878-2.06,67.42-10.67,36.9-14.746,65.484-43.166,84.624-77.957,19.705-35.82,28.152-76.732,28.351-117.507.191-39.3-6.628-79.748-26.847-113.84-18.867-31.812-48.7-56.34-84.263-66.119C148.114-4.662,106.715-.91,73.08,18.082,39.383,37.109,12.81,69.672,3.9,107.963c-8.379,36-3.73,77.669,18.674,107.732A108.921,108.921,0,0,0,40.505,234.482ZM144.94,219.826c-13.7,0-29.142-4.185-39.272-13.859-9.712-9.274-15.012-22.284-18.012-35.221C83.45,152.607,82.837,133.2,84.492,114.7c1.55-17.314,5.753-35.053,15.3-49.739,8.875-13.654,22.589-22.233,38.689-23.766,16.175-1.54,32.5,2.788,44.142,14.642,11.667,11.881,17.694,28.623,20.7,44.794a184.3,184.3,0,0,1,.957,57.887c-2.134,15.666-6.62,32.143-17.18,44.254C176.769,214.615,160.273,219.826,144.94,219.826Z"/>
      </g>
    </g>
</svg>
