<svg xmlns="http://www.w3.org/2000/svg" width="104.5mm" height="138.204mm" viewBox="0 0 296.22 391.761">
  <g id="Hausnummern">
      <g id="N-02-0-M">
        <path fill="#D4AF37" stroke="none" d="M254.583,55.545C231.18,24.428,196.651,3.292,158.068.371A126.3,126.3,0,0,0,65.014,31.264C9.221,79.794-6.057,160.292,2.01,231.7,9.579,298.712,47.117,370,115.41,387.647a130.909,130.909,0,0,0,103.9-17.021c29.094-19.075,49.837-49.444,61.905-82.21,14.4-39.094,17.469-82.647,13.288-123.971C290.544,125.356,278.3,86.854,254.583,55.545ZM209.436,239.726c-2.572,40.338-11.178,115.123-65.807,111.073-24.554-1.82-37.683-21.9-45.206-43.83-9.063-26.424-11.229-55.259-12.209-83.054-1.091-30.91-.777-61.967,2.269-92.759,2.219-22.432,6.121-46.7,18.07-66.117,8.426-13.7,21.324-22.932,37.313-24.124,20.728-1.546,37.653,9.026,47.581,27.391,11.994,22.187,15.393,49.3,17.479,74.165C211.629,174.688,211.466,207.466,209.436,239.726Z"/>
      </g>
    </g>
</svg>
