<svg xmlns="http://www.w3.org/2000/svg" width="96.753mm" height="138.109mm" viewBox="0 0 274.26 391.49">
  <g id="Hausnummern">
      <g id="N-02-2-E">
        <path fill="#A09f9d" stroke="none" d="M242.152,277.446a5.669,5.669,0,0,0-5.566,4.595l-.73,3.779c-5.89,30.5-18.7,30.5-23.52,30.5H129.822a5.669,5.669,0,0,1-3.4-10.206l14.121-10.584.089-.068c22.129-16.961,44.714-37.661,67.135-61.533,40.586-43.325,61.165-85.864,61.165-126.436,0-35.35-12.935-62.588-38.447-80.958C206.028,8.929,174.946,0,138.1,0c-36.68,0-68.694,8.772-95.151,26.072l-.129.086C15.371,44.7,1.453,66.726,1.453,91.63c0,14.023,4.568,25.537,13.575,34.221,8.9,8.583,21.255,12.936,36.724,12.936,9.986,0,19.58-4,28.516-11.885A39.662,39.662,0,0,0,94.3,96.027a46,46,0,0,0-2.528-15.362l-.087-.238a43.344,43.344,0,0,0-13.168-18.74,5.657,5.657,0,0,1,.315-9.06c12.3-8.44,27.948-12.582,47.278-12.582,14.965,0,27.32,4.88,37.771,14.917,10.187,9.786,15.353,27.33,15.353,52.146,0,41.564-21.35,88.029-63.462,138.114a664.391,664.391,0,0,1-76.7,77.544L2.082,353A5.668,5.668,0,0,0,0,357.387v28.434a5.669,5.669,0,0,0,5.669,5.669H268.591a5.669,5.669,0,0,0,5.669-5.669V283.115a5.669,5.669,0,0,0-5.669-5.669Z"/>
      </g>
    </g>
</svg>
