<svg xmlns="http://www.w3.org/2000/svg" width="104.5mm" height="138.224mm" viewBox="0 0 296.22 391.815">
  <g id="Hausnummern">
      <g id="N-02-6-E">
        <path fill="#A09f9d" stroke="none" d="M255.716,157.333C212.754,121.405,145.168,119.246,98.264,149a5.789,5.789,0,0,1-8.809-5.7c5.234-40.87,19.871-91.39,62.475-102.944a76.586,76.586,0,0,1,32.434-1.772,5.869,5.869,0,0,1,4.217,8.125c-6.566,15.717-1.282,36,11.159,47.169,13.4,12.035,37.442,15.015,52.727,5.2,16.881-10.845,23.237-33.2,17.251-52.108-5.028-15.883-18.478-26.952-32.866-33.95C219.329,4.492,199.68,1.129,180.4.21c-23.063-1.1-45.879,2.061-67.42,10.67-36.9,14.746-65.485,43.166-84.624,77.958C8.65,124.657.2,165.57,0,206.344c-.192,39.3,6.627,79.749,26.846,113.84,18.867,31.812,48.7,56.34,84.264,66.119,36.993,10.174,78.391,6.422,112.026-12.57,33.7-19.026,60.271-51.59,69.183-89.881,8.38-36,3.731-77.668-18.674-107.732A108.951,108.951,0,0,0,255.716,157.333ZM151.28,171.99c13.7,0,29.143,4.185,39.272,13.858,9.712,9.275,15.012,22.285,18.012,35.222,4.206,18.139,4.82,37.541,3.164,56.044-1.549,17.314-5.752,35.053-15.3,49.739-8.875,13.655-22.59,22.234-38.689,23.766-16.176,1.54-32.5-2.787-44.143-14.642-11.666-11.88-17.694-28.622-20.7-44.794a184.319,184.319,0,0,1-.957-57.886c2.134-15.667,6.62-32.143,17.18-44.255C119.451,177.2,135.947,171.99,151.28,171.99Z"/>
      </g>
    </g>
</svg>
