<svg xmlns="http://www.w3.org/2000/svg" width="104.5mm" height="140.005mm" viewBox="0 0 296.22 396.866">
  <g id="Hausnummern">
      <g id="N-02-8-R">
        <path fill="#A0552B" stroke="none" d="M270.439,216.355l0,0c-10.881-11.932-24.753-23.681-41.422-35.1a5.655,5.655,0,0,1,.228-9.49,137.006,137.006,0,0,0,28.989-23.786c16.967-18.174,25.57-38.637,25.57-60.821,0-29.07-12.951-51.378-38.5-66.307C221.6,7.015,190.59,0,153.137,0c-39.6,0-72.936,8.641-99.09,25.683-27.622,18-41.628,44.021-41.628,77.328,0,23.633,7.306,44.186,21.71,61.083,8.809,10.347,20.086,20.459,33.682,30.221a5.662,5.662,0,0,1-.467,9.5c-16.811,9.712-30.8,20.513-41.774,32.266C8.6,254.256,0,275.949,0,300.561c0,33.953,13.557,59.036,40.29,74.548,24.853,14.437,58.443,21.757,99.837,21.757,27.012,0,52.486-4.191,75.714-12.456,23.781-8.464,43.185-21.107,57.676-37.582,15.065-17.139,22.7-38.039,22.7-62.12C296.22,258.125,287.546,235.127,270.439,216.355Zm-74.2-91.5a76.758,76.758,0,0,1-16.536,22.153,5.66,5.66,0,0,1-6.745.7c-22.311-13.209-39.321-24.837-50.644-34.627C111.2,103.472,105.8,92.4,105.8,79.233c0-10.619,4.191-19.252,12.812-26.393l0,0c9.155-7.59,21.965-11.438,38.073-11.438,15.942,0,27.671,4.02,35.856,12.287,8.125,8.215,12.075,19.962,12.075,35.912A79.289,79.289,0,0,1,196.243,124.852ZM93.427,254.356a93.442,93.442,0,0,1,22.766-26.66,5.674,5.674,0,0,1,6.32-.45c17.37,9.919,31.179,18.3,41.128,24.971a113.887,113.887,0,0,1,27.967,26.588,52.914,52.914,0,0,1,10.644,32.731c0,13.814-4.622,24.2-14.13,31.749h0c-10.176,8.082-24.135,12.18-41.49,12.18-20.781,0-36.5-5.544-48.074-16.954-11.444-11.27-17.007-25.48-17.007-43.438C81.55,281.6,85.546,267.9,93.427,254.356Z"/>
      </g>
    </g>
</svg>
