<svg xmlns="http://www.w3.org/2000/svg" width="73.328mm" height="144.165mm" viewBox="0 0 207.86 408.656">
  <g id="Hausnummern">
      <g id="N-02-1">
        <path fill="#000000" stroke="none" d="M207.86,374.763a5.669,5.669,0,0,0-5.669-5.669H177.532c-4.57,0-16.311,0-22.541-25.959a97.777,97.777,0,0,1-2.6-22.814v-8.307h0V5.669A5.67,5.67,0,0,0,146.724,0h-6.04a5.672,5.672,0,0,0-2.625.644L3.044,71.206a5.67,5.67,0,0,0-2.78,6.732l5.272,16.7a5.67,5.67,0,0,0,7.3,3.638L53.182,84q6.352-2.812,10.234.706C66,87.061,67.3,90.347,67.3,94.582V320.319a97.683,97.683,0,0,1-2.6,22.814c-6.23,25.958-17.97,25.958-22.54,25.958H17.5a5.669,5.669,0,0,0-5.669,5.67v28.222a5.669,5.669,0,0,0,5.669,5.669h6.683v0H195.749v0h6.442a5.669,5.669,0,0,0,5.669-5.669Z"/>
      </g>
    </g>
</svg>
