<svg xmlns="http://www.w3.org/2000/svg" width="100.357mm" height="97.457mm" viewBox="0 0 284.476 276.256">
  <g id="Hausnummern">
      <g id="N-02-A-E">
        <path fill="#A09f9d" stroke="none" d="M262.077,218.54a4.958,4.958,0,0,0-7.106.821l-3.39,4.461c-.544.715-1.139,1.457-1.775,2.188a4.962,4.962,0,0,1-8.728-3.217h0V90.94c0-28.53-10.085-51.195-29.975-67.364C191.854,7.932,162.525,0,123.93,0A171.477,171.477,0,0,0,79.193,6.459c-16.2,4.409-29.934,10.944-40.852,19.45a61.9,61.9,0,0,0-14.793,16.4c-4.054,6.659-6.109,14.961-6.109,24.676,0,10.725,4.473,20.348,12.936,27.831,8.212,7.259,19.4,10.939,33.245,10.939,8.9,0,17.635-3.493,25.963-10.382,8.79-7.271,13.436-16.969,13.436-28.048a36.317,36.317,0,0,0-2.815-14.7l-.186-.4q-.9-1.824-1.895-3.5a4.975,4.975,0,0,1,3.338-7.474,114.625,114.625,0,0,1,20.774-1.688,49.2,49.2,0,0,1,17.921,3.119c4.755,1.855,8.866,5.153,12.569,10.082,1.561,2.08,5.195,9.233,5.195,30.693V118.33a4.957,4.957,0,0,1-6.846,4.577c-14.751-5.99-31.407-9.012-49.79-9.012-28.832,0-52.923,6.9-71.6,20.511C9.986,148.755,0,168.678,0,193.622c0,24.83,10.074,45.185,29.94,60.5,19.047,14.686,41.95,22.133,68.074,22.133,26.977,0,49.977-7.376,68.621-21.965a4.98,4.98,0,0,1,6.911.721,54.283,54.283,0,0,0,13.107,11.324c10.581,6.582,21.34,9.92,31.98,9.92,28.477,0,49.486-10.144,62.445-30.148l2.6-4.017a4.957,4.957,0,0,0-1-6.515Zm-103.431-9.857a5.023,5.023,0,0,1-1.364,3.417,74.618,74.618,0,0,1-5.451,5.292c-11.562,9.73-23.146,14.459-35.409,14.459a39.288,39.288,0,0,1-12.084-1.922l-.181-.057C95.974,227.4,85.1,221.005,85.1,194.228c0-13.891,3.049-23.774,9.06-29.373,6.225-5.8,16.243-8.735,29.774-8.735,11.737,0,22.544,4.165,32.874,12.7a5.017,5.017,0,0,1,1.842,3.861Z"/>
      </g>
    </g>
</svg>
