<svg xmlns="http://www.w3.org/2000/svg" width="98.718mm" height="138.194mm" viewBox="0 0 279.831 391.732">
  <g id="Hausnummern">
      <g id="N-02-3-M">
        <path fill="#D4AF37" stroke="none" d="M246.684,196.218a108.306,108.306,0,0,0-29.241-17.337A5.667,5.667,0,0,1,216.175,169a109.1,109.1,0,0,0,16.395-14.236c17.378-18.428,26.189-39.36,26.189-62.215,0-28.363-11.644-51.307-34.61-68.193C202.163,8.2,171.052,0,131.681,0A174.547,174.547,0,0,0,74.407,9.678c-18.72,6.485-34.277,15.281-46.24,26.143A70.333,70.333,0,0,0,12.675,54.679,51.369,51.369,0,0,0,6.54,79.856c0,10.034,3.725,19.651,11.07,28.584,7.842,9.542,20.226,14.38,36.806,14.38,10.953,0,20.858-4.178,29.442-12.418,8.7-8.353,13.106-19.417,13.106-32.885,0-8.089-3.1-16.154-9.223-23.972-.162-.207-.326-.411-.491-.615a5.662,5.662,0,0,1,2.941-9.06,110.792,110.792,0,0,1,27.684-3.1c36.907,0,53.366,16.635,53.366,53.938,0,21.2-7.118,38.1-21.762,51.681-14.659,13.6-36.293,20.491-64.3,20.491H80.512a5.67,5.67,0,0,0-5.67,5.669v28.707a5.669,5.669,0,0,0,5.669,5.669H111.82c23.2,0,41.946,6.872,57.308,21.006,15.113,13.908,22.459,30.99,22.459,52.222,0,21.667-5.62,38.612-17.178,51.8-11.207,12.788-27.006,19-48.3,19a242.5,242.5,0,0,1-26.877-1.139,80.547,80.547,0,0,1-14.8-3.118,5.655,5.655,0,0,1-2.8-8.828q.974-1.259,1.865-2.6a49.755,49.755,0,0,0,8.137-27.989c0-11.193-4.522-21.393-13.444-30.318s-21.077-13.441-36.128-13.441c-10.234,0-19.9,4.482-28.743,13.32A44.263,44.263,0,0,0,0,309.22c0,25.389,12.628,45.961,37.531,61.14,23.257,14.182,50.859,21.372,82.039,21.372,46.106,0,84.5-10.925,114.106-32.475,30.627-22.289,46.155-53.5,46.155-92.768C279.831,238.185,268.679,214.542,246.684,196.218Z"/>
      </g>
    </g>
</svg>
