<svg xmlns="http://www.w3.org/2000/svg" width="95.817mm" height="138.024mm" viewBox="0 0 271.607 391.248">
  <g id="Hausnummern">
      <g id="N-02-7">
        <path fill="#000000" stroke="none" d="M17.177,4.844.061,121.231a5.67,5.67,0,0,0,5.609,6.494H33.557a5.67,5.67,0,0,0,5.481-4.222l4.3-16.289c1.214-4.558,2.3-8.453,3.237-11.582C49.584,87.1,54,81.406,60.069,78.225c6.945-3.637,16.374-5.482,28.025-5.482h99.784a5.662,5.662,0,0,1,4.557,9.033,685.714,685.714,0,0,0-39.982,60.893,628.306,628.306,0,0,0-50.116,106.893,441.331,441.331,0,0,0-16.493,58.784c-4.136,20.08-6.147,35.814-6.147,48.1,0,11.843.166,20.071.508,25.156l.292,4.353a5.67,5.67,0,0,0,5.657,5.289H174.42a5.67,5.67,0,0,0,5.638-6.268l-.548-5.157c-1.087-10.238-1.638-25.313-1.638-44.808,0-19.347,2-42.59,5.941-69.076,12.8-85.654,41.787-164.067,86.152-233.061l.741-1.153a5.669,5.669,0,0,0,.9-3.066V5.669A5.669,5.669,0,0,0,265.938,0H22.786A5.67,5.67,0,0,0,17.177,4.844Z"/>
      </g>
    </g>
</svg>
