<svg xmlns="http://www.w3.org/2000/svg" width="104.263mm" height="146.946mm" viewBox="0 0 295.548 416.54">
  <g id="Hausnummern">
      <g id="N-02-B">
        <path fill="#000000" stroke="none" d="M259.921,187.674a104.8,104.8,0,0,0-38.965-23.908,127.974,127.974,0,0,0-41.58-7.46c-25.579,0-47.245,4.816-64.781,14.364a5.666,5.666,0,0,1-8.423-4.932V5.669A5.669,5.669,0,0,0,100.5,0H5.669A5.669,5.669,0,0,0,0,5.669V30.246a5.669,5.669,0,0,0,5.669,5.669h13.9a5.67,5.67,0,0,1,5.669,5.67v330.77a5.669,5.669,0,0,1-5.669,5.67H5.669A5.669,5.669,0,0,0,0,383.694v26.943a5.669,5.669,0,0,0,5.669,5.669H100.5a5.669,5.669,0,0,0,5.669-5.669v-6.519l.59.253c18.827,8.075,39.63,12.169,61.833,12.169,35.168,0,65.408-11.876,89.883-35.3,24.6-23.541,37.07-56.205,37.07-97.085C295.548,243.328,283.579,210.884,259.921,187.674ZM128.539,206.9c9.483-5.921,18.982-8.8,29.04-8.8,10.014,0,18.167,1.806,24.291,5.4,18.615,10.765,28.053,39.014,28.053,83.962,0,88.917-38.516,88.917-51.172,88.917a83.5,83.5,0,0,1-14.645-1.352l-.134-.023c-14.019-2.313-25.861-6.723-35.317-13.139a5.678,5.678,0,0,1-2.483-4.7V230.4a5.608,5.608,0,0,1,1.006-3.233A73.878,73.878,0,0,1,128.539,206.9Z"/>
      </g>
    </g>
</svg>
