<svg xmlns="http://www.w3.org/2000/svg" width="104.454mm" height="138.023mm" viewBox="0 0 296.091 391.248">
  <g id="Hausnummern">
      <g id="N-02-4">
        <path fill="#000000" stroke="none" d="M266.42,351.686c-5.169,0-19.775,0-24.4-40.889a5.849,5.849,0,0,1-.037-.662v-9.859a5.67,5.67,0,0,1,5.669-5.67H289.74a5.669,5.669,0,0,0,5.668-5.541l.681-30.16a5.669,5.669,0,0,0-5.667-5.8h-42.77a5.669,5.669,0,0,1-5.669-5.669V5.669A5.669,5.669,0,0,0,236.313,0H185.727A5.67,5.67,0,0,0,181.1,2.39L1.044,256.345A5.671,5.671,0,0,0,0,259.624v29.313a5.669,5.669,0,0,0,5.669,5.669H153.587a5.67,5.67,0,0,1,5.669,5.67v9.858a6.12,6.12,0,0,1-.037.662c-4.625,40.889-19.232,40.889-24.4,40.889H111a5.671,5.671,0,0,0-5.67,5.67v28.222a5.67,5.67,0,0,0,5.67,5.669l179.231,0a5.67,5.67,0,0,0,5.669-5.67V357.356a5.669,5.669,0,0,0-5.669-5.669H266.42ZM63.2,244.2l85.738-123.157a5.669,5.669,0,0,1,10.322,3.239V247.439a5.669,5.669,0,0,1-5.669,5.669H67.849A5.669,5.669,0,0,1,63.2,244.2Z"/>
      </g>
    </g>
</svg>
