<svg xmlns="http://www.w3.org/2000/svg" width="142.58mm" height="196.949mm" viewBox="0 0 404.162 558.28">
  <g id="Hausnummern">
      <g id="N-03-6-E">
        <path fill="#A09f9d" stroke="none" d="M93.964,532.725q-46-25.542-69.982-68.8Q-.012,420.69,0,369.567q0-67.619,54.255-144.682L204.44,15.726c.517-.516,1.966-2.359,4.325-5.5a25.248,25.248,0,0,1,9.043-7.47A27.785,27.785,0,0,1,230.388,0h38.53a14.223,14.223,0,0,1,11.4,5.111A18.312,18.312,0,0,1,284.643,17.3q0,3.944-3.931,10.222l-114.8,160.407a203.144,203.144,0,0,1,45.607-4.718q57.387,0,101.04,25.555t67.622,67.623q23.979,42.075,23.982,92.391a192.042,192.042,0,0,1-23.982,93.965q-23.993,43.639-69.587,69.588-45.612,25.95-107.725,25.948Q139.951,558.28,93.964,532.725Zm171.809-53.862A110.558,110.558,0,0,0,312.165,436.8q17.286-27.9,17.3-67.229,0-38.519-17.692-66.444a116.018,116.018,0,0,0-46.786-42.461,138.782,138.782,0,0,0-62.9-14.547,138.717,138.717,0,0,0-62.906,14.547,113.209,113.209,0,0,0-46.392,42.461q-17.3,27.918-17.3,66.444,0,39.327,17.3,67.229a110.417,110.417,0,0,0,46.392,42.067,141.84,141.84,0,0,0,62.906,14.154Q236.672,493.017,265.773,478.863Z"/>
      </g>
    </g>
</svg>
