<svg xmlns="http://www.w3.org/2000/svg" width="125.936mm" height="194.175mm" viewBox="0 0 356.985 550.417">
  <g id="Hausnummern">
      <g id="N-03-7-M">
        <path fill="#D4AF37" stroke="none" d="M83.743,545.306a18.223,18.223,0,0,1-4.325-12.188l1.572-7.076L277.567,66.05H18.085A17.486,17.486,0,0,1,0,47.965V18.872Q0,10.229,4.718,5.111T18.085,0H338.9q8.642,0,13.367,5.111t4.718,13.761V45.607q0,14.153-6.291,30.665L156.475,530.76a59.467,59.467,0,0,1-8.648,14.154q-4.719,5.51-13.369,5.5H95.144A14.164,14.164,0,0,1,83.743,545.306Z"/>
      </g>
    </g>
</svg>
