<svg xmlns="http://www.w3.org/2000/svg" width="134.258mm" height="197.226mm" viewBox="0 0 380.574 559.066">
  <g id="Hausnummern">
      <g id="N-03-2-R">
        <path fill="#A0552B" stroke="none" d="M5.111,553.955A17.532,17.532,0,0,1,0,540.981V517.392q0-18.08,19.657-34.6S256.6,252.147,271.277,231.175s22.017-43.248,22.017-66.836q0-46.388-25.948-72.734T191.859,65.263q-47.177,0-74.7,27.521T83.348,166.7a20.6,20.6,0,0,1-7.863,13.366q-6.3,4.719-12.581,4.718H25.162a16,16,0,0,1-11.795-4.718,15.069,15.069,0,0,1-4.718-11.007q1.568-41.668,22.41-80.6Q51.884,49.537,92.784,24.769,133.66,0,191.859,0q88.054,0,132.493,46,44.415,46,44.427,116.767,0,49.537-23.983,89.246C328.8,278.489,114.8,493.017,114.8,493.017H362.488q8.644,0,13.368,4.717t4.718,13.367v29.88a17.488,17.488,0,0,1-18.086,18.085H18.085A17.532,17.532,0,0,1,5.111,553.955Z"/>
      </g>
    </g>
</svg>
