<svg xmlns="http://www.w3.org/2000/svg" width="140.638mm" height="199.723mm" viewBox="0 0 398.659 566.143">
  <g id="Hausnummern">
      <g id="N-03-0-M">
        <path fill="#D4AF37" stroke="none" d="M50.717,506.777Q3.924,447.416.787,351.48L0,283.858l.787-69.982q2.359-95.131,49.93-154.51Q98.284.005,198.937,0,300.37,0,347.942,59.366t49.931,154.51q.774,22.023.786,69.982,0,46.4-.786,67.622-3.153,95.941-49.931,155.3-46.791,59.378-149,59.366Q97.5,566.143,50.717,506.777Zm239.431-46q30.668-40.1,32.239-113.228.774-22.8.787-65.264,0-43.235-.787-64.477-1.584-72.336-32.632-112.836-31.071-40.489-90.818-40.495-59.766,0-90.426,40.495T76.272,217.808l-.787,64.477.787,65.264q1.567,73.125,32.239,113.228t90.426,40.1Q259.476,500.879,290.148,460.777Z"/>
      </g>
    </g>
</svg>
