<svg xmlns="http://www.w3.org/2000/svg" width="140.639mm" height="196.949mm" viewBox="0 0 398.66 558.28">
  <g id="Hausnummern">
      <g id="N-03-3-M">
        <path fill="#D4AF37" stroke="none" d="M92.786,538.229q-44.82-20.051-68.017-52.289T0,419.1a14.743,14.743,0,0,1,4.718-11.4,16.836,16.836,0,0,1,11.8-4.323H51.9q8.645,0,14.154,3.538,5.49,3.537,8.649,13.761,10.211,40.1,44.426,56.613t80.6,16.512q56.613,0,90.031-27.128t33.419-77.45q0-95.924-117.16-95.93H132.1a17.486,17.486,0,0,1-18.084-18.086V254.765a27.94,27.94,0,0,1,8.648-20.445L276,64.477H43.248A18.371,18.371,0,0,1,30.273,59.76q-5.124-4.719-5.111-12.581V18.872q0-8.643,5.111-13.761A17.584,17.584,0,0,1,43.248,0H354.626q8.645,0,13.761,5.111T373.5,18.872V44.82q0,8.663-7.863,18.085l-153.33,172.2h12.581q80.2,2.358,126.988,41.674t46.786,114.8q0,51.9-25.555,89.246t-71.161,57.4q-45.612,20.052-103.007,20.051Q137.605,558.28,92.786,538.229Z"/>
      </g>
    </g>
</svg>
