<svg xmlns="http://www.w3.org/2000/svg" width="125.691mm" height="149.792mm" viewBox="0 0 356.288 424.607">
  <g id="Hausnummern">
      <g id="N-03-C">
        <path fill="#000000" stroke="none" d="M50.323,377.035Q3.144,329.47.786,243.755L0,212.3l.786-31.453Q3.144,95.156,50.323,47.572,97.5.005,181.638,0q56.613,0,95.536,20.051t58.187,49.931q19.257,29.892,20.837,59.759.774,7.077-5.111,12.581t-12.974,5.5h-34.6q-7.869,0-11.794-3.538-3.945-3.537-7.863-12.974Q269.7,92.8,244.935,76.665q-24.768-16.106-62.512-16.119-49.538,0-78.63,30.666T72.34,184.782L71.554,212.3l.786,27.521Q74.7,302.741,103.793,333.4t78.63,30.666q38.517,0,62.906-16.12,24.363-16.107,38.529-54.648,3.924-9.435,7.863-12.975,3.924-3.537,11.794-3.538h34.6q7.077,0,12.974,5.5t5.111,12.581q-1.584,29.1-20.837,58.973-19.278,29.892-58.187,50.323t-95.536,20.444Q97.489,424.607,50.323,377.035Z"/>
      </g>
    </g>
</svg>
