<svg xmlns="http://www.w3.org/2000/svg" width="153.675mm" height="194.175mm" viewBox="0 0 435.615 550.417">
  <g id="Hausnummern">
      <g id="N-03-4-E">
        <path fill="#A09f9d" stroke="none" d="M278.747,545.306a17.532,17.532,0,0,1-5.111-12.974v-114.8H18.085A17.488,17.488,0,0,1,0,399.445V370.352q0-11,8.649-23.589l236.68-333.4a25.972,25.972,0,0,1,11.794-9.828A41.645,41.645,0,0,1,274.422,0h53.47q8.642,0,13.366,4.718t4.718,13.367v333.4h71.555a17.485,17.485,0,0,1,18.084,18.087v29.878a17.486,17.486,0,0,1-18.084,18.086H345.976v114.8a17.485,17.485,0,0,1-18.084,18.085H291.721A17.532,17.532,0,0,1,278.747,545.306ZM81.776,353.053H274.422V79.418Z"/>
      </g>
    </g>
</svg>
