<svg xmlns="http://www.w3.org/2000/svg" width="89.598mm" height="194.175mm" viewBox="0 0 253.978 550.417">
  <g id="Hausnummern">
      <g id="N-03-1">
        <path fill="#000000" stroke="none" d="M184.783,545.306a18.369,18.369,0,0,1-4.718-12.974V88.853L47.965,190.287a17.844,17.844,0,0,1-11.794,4.718q-7.077,0-13.368-7.863L3.932,162.767A18.775,18.775,0,0,1,0,151.758q0-8.643,7.863-14.154L178.492,5.5Q187.137.013,198.937,0h36.956a17.486,17.486,0,0,1,18.085,18.085V532.332a17.486,17.486,0,0,1-18.085,18.085H197.364Q189.5,550.417,184.783,545.306Z"/>
      </g>
    </g>
</svg>
