<svg xmlns="http://www.w3.org/2000/svg" width="122.608mm" height="149.792mm" viewBox="0 0 347.549 424.607">
  <g id="Hausnummern">
      <g id="N-03-A-M">
        <path fill="#D4AF37" stroke="none" d="M71.16,408.881q-32.637-15.72-51.9-42.854A101.48,101.48,0,0,1,0,305.874q0-51.9,42.46-84.921T158.048,176.92L276,160.407V137.6q0-80.978-93.572-80.99-36.175,0-58.186,14.547T92,105.365q-3.15,7.871-6.683,10.616c-2.358,1.843-5.639,2.752-9.829,2.752H44.819a16.6,16.6,0,0,1-12.188-5.111,16.6,16.6,0,0,1-5.111-12.188q0-18.079,16.907-42.067T96.715,17.692Q132.1,0,183.21,0q88.054,0,126.2,40.888,38.13,40.895,38.136,102.22V398.66a17.485,17.485,0,0,1-18.086,18.084h-34.6q-7.869,0-12.581-5.11a18.371,18.371,0,0,1-4.718-12.974v-34.6q-17.3,25.948-50.324,43.246t-84.921,17.3Q103.787,424.607,71.16,408.881ZM242.969,333.4Q275.995,299.6,276,235.107V213.09l-92,13.368q-56.615,7.869-85.708,26.733T69.195,300.37q0,32.251,26.342,49.538,26.334,17.3,62.511,17.3Q209.945,367.207,242.969,333.4Z"/>
      </g>
    </g>
</svg>
