<svg xmlns="http://www.w3.org/2000/svg" width="139.251mm" height="196.949mm" viewBox="0 0 394.728 558.28">
  <g id="Hausnummern">
      <g id="N-03-9-E">
        <path fill="#A09f9d" stroke="none" d="M110.477,553.169a18.8,18.8,0,0,1-1.179-22.41L230.389,362.488q-18.872,4.719-44.033,4.718-56.616-.773-99.075-26.34Q44.819,315.323,22.41,274.028A182.578,182.578,0,0,1,0,185.569,189.378,189.378,0,0,1,22.41,95.93q22.412-42.462,66.836-69.2T196.578,0q62.9,0,107.724,25.948t67.623,68.015A186.142,186.142,0,0,1,394.728,184q0,43.252-15.334,76.272T338.9,328.677L186.356,542.553a76.281,76.281,0,0,1-10.616,11.4q-5.124,4.33-14.547,4.325H121.879A14.168,14.168,0,0,1,110.477,553.169ZM258.7,290.148a113.473,113.473,0,0,0,44.819-42.067q16.513-27.129,16.512-62.512,0-36.157-16.512-63.692A112.733,112.733,0,0,0,258.7,79.417q-28.308-14.928-62.119-14.94a127.181,127.181,0,0,0-60.94,14.94,113.411,113.411,0,0,0-44.426,42.46Q74.7,149.411,74.7,185.569q0,35.384,16.512,62.512a114.892,114.892,0,0,0,44.033,42.067q27.516,14.946,61.333,14.94Q230.378,305.088,258.7,290.148Z"/>
      </g>
    </g>
</svg>
