<svg xmlns="http://www.w3.org/2000/svg" width="138.419mm" height="196.949mm" viewBox="0 0 392.37 558.28">
  <g id="Hausnummern">
      <g id="N-03-5-E">
        <path fill="#A09f9d" stroke="none" d="M90.426,537.05q-43.252-21.229-66.049-55.435Q1.561,447.412,0,408.1v-1.572A12.7,12.7,0,0,1,4.718,396.3a16.685,16.685,0,0,1,11.008-3.931H54.255q16.513,0,21.232,17.3,11.795,42.459,43.639,63.3t73.52,20.837q53.465,0,88.853-32.631t35.384-90.032q0-52.673-35.384-83.742-35.383-31.053-88.853-31.06-28.308,0-45.6,7.077a165.536,165.536,0,0,0-35.385,20.444,127.867,127.867,0,0,1-16.9,11.4A30.657,30.657,0,0,1,80.205,298.8H42.461a17.919,17.919,0,0,1-12.581-5.111A13.783,13.783,0,0,1,25.162,281.5L49.539,19.658Q51.9.012,69.2,0H341.26q8.642,0,13.366,4.718t4.718,13.367V47.179q0,7.869-5.11,12.581a18.413,18.413,0,0,1-12.974,4.717H114.8L100.649,222.526q37.742-26.722,101.433-26.735,52.67,0,95.929,20.837a164.879,164.879,0,0,1,68.8,60.94q25.541,40.1,25.555,95.144,0,58.2-25.555,100.253-25.563,42.075-70.769,63.691-45.225,21.618-103.4,21.624Q133.675,558.28,90.426,537.05Z"/>
      </g>
    </g>
</svg>
