<svg xmlns="http://www.w3.org/2000/svg" width="129.543mm" height="199.723mm" viewBox="0 0 367.208 566.143">
  <g id="Hausnummern">
      <g id="N-03-B">
        <path fill="#000000" stroke="none" d="M69.2,506.383V540.2A17.486,17.486,0,0,1,51.111,558.28H18.086A17.488,17.488,0,0,1,0,540.2V18.085Q0,9.442,5.112,4.717A18.373,18.373,0,0,1,18.086,0H53.47A17.485,17.485,0,0,1,71.554,18.085V199.722q44.029-58.181,127.383-58.187,82.563,0,123.844,53.863t43.64,134.852q.774,8.661.787,23.589,0,14.946-.787,23.59-2.359,80.994-43.64,134.851T198.937,566.143Q114.016,566.143,69.2,506.383ZM266.56,469.426q25.948-35.383,28.306-92.784.775-7.849.787-22.8,0-150.972-111.656-150.971-53.481,0-82.17,34.99-28.713,35-30.273,82.956-.792,8.662-.785,30.666,0,21.231.785,29.88,1.567,50.329,29.488,86.888,27.9,36.563,82.955,36.562Q240.613,504.81,266.56,469.426Z"/>
      </g>
    </g>
</svg>
