<svg xmlns="http://www.w3.org/2000/svg" width="120mm" height="120mm" viewBox="0 0 340.158 340.157">
  <g id="Schilder">
      <g id="O-01">
        <path fill="#000000" stroke="none" d="M339.327.83a2.835,2.835,0,0,0-2-.83H2.834A2.834,2.834,0,0,0,0,2.834V337.323a2.834,2.834,0,0,0,2.834,2.834H337.323a2.834,2.834,0,0,0,2.834-2.834V2.834A2.835,2.835,0,0,0,339.327.83ZM230.784,107.716a23.117,23.117,0,1,1-6.772,16.347A23.115,23.115,0,0,1,230.784,107.716Zm-13.915,48.3H244.4l-1.92,46.357,4.157,5.064a.636.636,0,0,0,.982,0l4.156-5.064-1.919-46.357h27.534v56.621H216.869ZM51.191,113.5a3.622,3.622,0,0,1,3.622-3.622H172.268a3.622,3.622,0,0,1,3.621,3.622v60.485l-5.535-.049V115.417H56.728v58.522H51.191Zm0,65.574h124.7v12.941a3.622,3.622,0,0,1-3.621,3.621h-46.28l1.471,15.089a1.735,1.735,0,0,1-1.728,1.9H101.254a1.735,1.735,0,0,1-1.728-1.9L101,195.639H54.813a3.622,3.622,0,0,1-3.622-3.621Zm267.553,51.292H21.413V219.983H318.744Z"/>
      </g>
    </g>
</svg>
