<svg xmlns="http://www.w3.org/2000/svg" width="120mm" height="120mm" viewBox="0 0 340.157 340.158">
  <g id="Schilder">
      <g id="O-02-M">
        <path fill="#D4AF37" stroke="none" d="M339.327.83a2.835,2.835,0,0,0-2-.83H2.834A2.834,2.834,0,0,0,0,2.835V337.323a2.834,2.834,0,0,0,2.834,2.835H337.323a2.836,2.836,0,0,0,2.834-2.835V2.835A2.834,2.834,0,0,0,339.327.83ZM281,160.483a22.488,22.488,0,0,1,2.957,11.148v38.52H274.1v-38.52a12.642,12.642,0,0,0-1.67-6.281,12.943,12.943,0,0,0-4.608-4.688,13.1,13.1,0,0,0-1.326-.688,12.9,12.9,0,0,0-1.388-.527,4.928,4.928,0,0,1,1.483-9.629,4.876,4.876,0,0,1,.744.057,4.938,4.938,0,0,1,.731.17A22.761,22.761,0,0,1,281,160.483ZM218.36,171.63a22.551,22.551,0,0,1,15.707-21.5q.789-.252,1.555-.569,1.306-.538,2.586-1.14,1.947-.918,3.826-1.967,1.913-1.066,3.749-2.26,1.136-.725,2.279-1.437,1.42-.885,2.851-1.756,1.035-.631,2.063-1.275.459-.288.909-.586,1.107-.735,2.164-1.54,1.917-1.461,3.782-2.989a15.917,15.917,0,0,0,3.76-4.484,11.958,11.958,0,0,0,1.493-4.846,11.785,11.785,0,0,0-.641-4.937,13.18,13.18,0,0,0-4.577-6.234,12.717,12.717,0,0,0-7.17-2.509l-.22,0c-.073,0-.146,0-.219,0a12.886,12.886,0,0,0-12.015,8.178l-.052.128a13.468,13.468,0,0,0-.774,3.074,11.843,11.843,0,0,0,.731,5.869,13.294,13.294,0,0,0,1.5,2.784q.249.354.522.692t.578.67a4.928,4.928,0,0,1-7.256,6.671q-.518-.562-1-1.157t-.9-1.2a22.385,22.385,0,0,1-2.535-21.119,22.751,22.751,0,0,1,21.955-14.437A22.215,22.215,0,0,1,259.659,103a23.1,23.1,0,0,1,10.92,8.087,22.712,22.712,0,0,1,3.168,6,21.579,21.579,0,0,1,.262,13.606,22.866,22.866,0,0,1-1.9,4.4,23.951,23.951,0,0,1-2.617,3.762,27.153,27.153,0,0,1-3.476,3.423q-2.03,1.662-4.12,3.248-1.253.95-2.562,1.82-.571.379-1.153.744-1.156.726-2.322,1.436-1.381.843-2.755,1.7-1.017.633-2.027,1.278l-.006,0q-2.079,1.352-4.248,2.56t-4.427,2.272q-1.565.737-3.165,1.39-1.07.436-2.17.789l-.1.034a12.7,12.7,0,0,0-3.211,1.583,12.7,12.7,0,0,0-5.535,10.492v38.52H218.36ZM54.711,111.021a3.622,3.622,0,0,1,3.622-3.621H175.788a3.622,3.622,0,0,1,3.621,3.621v60.486l-5.536-.049V112.936H60.248v58.522H54.711Zm0,65.575h124.7v12.941a3.621,3.621,0,0,1-3.621,3.621h-46.28l1.471,15.088a1.737,1.737,0,0,1-1.728,1.905H104.774a1.737,1.737,0,0,1-1.728-1.905l1.471-15.088H58.333a3.622,3.622,0,0,1-3.622-3.621Zm262.512,49.779a5.191,5.191,0,0,1-3.672,1.521H26.606a5.193,5.193,0,0,1,0-10.386H313.551a5.193,5.193,0,0,1,3.672,8.865Z"/>
      </g>
    </g>
</svg>
