<svg xmlns="http://www.w3.org/2000/svg" width="120mm" height="120mm" viewBox="0 0 340.158 340.158">
  <g id="Schilder">
      <g id="O-03-E">
        <path fill="#A09f9d" stroke="none" d="M339.327.83a2.835,2.835,0,0,0-2-.83H2.835A2.834,2.834,0,0,0,0,2.835V337.323a2.836,2.836,0,0,0,2.835,2.835H337.323a2.837,2.837,0,0,0,2.835-2.835V2.835A2.835,2.835,0,0,0,339.327.83ZM233.715,122.9a21.366,21.366,0,1,1,6.258,15.109,21.365,21.365,0,0,1-6.258-15.109Zm-13.387,38.917a4.251,4.251,0,0,1,4.252-4.252h60.5a4.251,4.251,0,0,1,4.252,4.252v50.816h-69ZM51.989,113.5a3.622,3.622,0,0,1,3.622-3.621H173.066a3.622,3.622,0,0,1,3.621,3.621v60.486l-5.536-.049V115.417H57.525v58.522H51.989Zm0,65.575h124.7v12.941a3.621,3.621,0,0,1-3.621,3.621h-46.28l1.471,15.089a1.735,1.735,0,0,1-1.728,1.9H102.052a1.737,1.737,0,0,1-1.729-1.9l1.472-15.089H55.611a3.621,3.621,0,0,1-3.622-3.621Zm266.755,51.3H21.414V219.992h297.33Z"/>
      </g>
    </g>
</svg>
