<svg xmlns="http://www.w3.org/2000/svg" width="120mm" height="120mm" viewBox="0 0 340.158 340.158">
  <g id="Schilder">
      <g id="O-05">
        <path fill="#000000" stroke="none" d="M339.327.83a2.835,2.835,0,0,0-2-.83H2.835A2.834,2.834,0,0,0,0,2.835V337.323a2.836,2.836,0,0,0,2.835,2.835H337.323a2.837,2.837,0,0,0,2.835-2.835V2.835A2.835,2.835,0,0,0,339.327.83Zm-60.46,156.134h10.941v55.668H278.867ZM231.739,108.9a23.179,23.179,0,1,1-6.788,16.389A23.18,23.18,0,0,1,231.739,108.9Zm-25.29,48.06H217.39v55.668H206.449ZM48.9,113.5a3.621,3.621,0,0,1,3.621-3.621H169.977A3.622,3.622,0,0,1,173.6,113.5v60.486l-5.537-.049V115.417H54.437v58.522H48.9Zm0,65.575H173.6v12.941a3.622,3.622,0,0,1-3.622,3.621H123.7l1.472,15.089a1.735,1.735,0,0,1-1.729,1.9H98.963a1.735,1.735,0,0,1-1.728-1.9l1.471-15.089H52.522a3.622,3.622,0,0,1-3.621-3.621Zm269.843,51.3H21.414V219.992h297.33Z"/>
      </g>
    </g>
</svg>
