<svg xmlns="http://www.w3.org/2000/svg" width="120.226mm" height="120.226mm" viewBox="0 0 340.798 340.799">
  <g id="Schilder">
      <g id="O-06">
        <path fill="#000000" stroke="none" d="M339.972,1.476a2.83,2.83,0,0,0-2-.834L3.482,0A2.834,2.834,0,0,0,.642,2.829L0,337.317a2.834,2.834,0,0,0,2.829,2.84l334.488.642a2.837,2.837,0,0,0,2.84-2.83L340.8,3.482A2.83,2.83,0,0,0,339.972,1.476Zm-101.943,116.1a18.707,18.707,0,1,1-5.5,13.216A18.7,18.7,0,0,1,238.029,117.574Zm-24.288,57.732a18.7,18.7,0,0,1,18.738-18.667l37.4.072a18.7,18.7,0,0,1,18.667,18.739l-.072,37.73-11.559-.023.059-30.578a2.208,2.208,0,0,0-4.415-.009l-.059,30.579-42.862-.082.059-30.579a2.207,2.207,0,0,0-4.414-.008l-.059,30.578-11.558-.022ZM59.876,113.836a3.622,3.622,0,0,1,3.628-3.615l117.455.226a3.621,3.621,0,0,1,3.614,3.628l-.116,60.485-5.536-.059.113-58.522-113.626-.218L65.3,174.283l-5.536-.01ZM59.75,179.41l124.7.239-.024,12.941a3.621,3.621,0,0,1-3.629,3.614l-46.28-.088,1.443,15.091a1.736,1.736,0,0,1-1.732,1.9l-24.477-.047a1.737,1.737,0,0,1-1.725-1.908l1.5-15.085-46.184-.089a3.622,3.622,0,0,1-3.614-3.628Zm258.928,48.059a5.192,5.192,0,0,1-4.922,3.5l-286.722-.55a5.632,5.632,0,0,1-3.688-1.386,5,5,0,0,1-1.694-3.307,5.2,5.2,0,0,1,5.18-5.693l288.269.553a2.942,2.942,0,0,1,1.173.247,2.6,2.6,0,0,1,.911.667,8.266,8.266,0,0,1,1,1.41,6.227,6.227,0,0,1,.57,1.38,5.6,5.6,0,0,1,.2,1.629A5.124,5.124,0,0,1,318.678,227.469Z"/>
      </g>
    </g>
</svg>
