<svg xmlns="http://www.w3.org/2000/svg" width="60mm" height="120mm" viewBox="0 0 170.079 340.157">
  <g id="Schilder">
      <g id="P-02-M">
        <path fill="#D4AF37" stroke="none" d="M0,2.835V241.7a2.834,2.834,0,0,0,2.835,2.834H66.789a1.417,1.417,0,0,0,1.418-1.417v-20.94a1.418,1.418,0,0,1,2.126-1.228l65.281,37.691a1.416,1.416,0,0,1,0,2.454L70.333,298.785a1.417,1.417,0,0,1-2.126-1.228v-20.94a1.418,1.418,0,0,0-1.418-1.417H2.835A2.835,2.835,0,0,0,0,278.035v59.288a2.834,2.834,0,0,0,2.835,2.834H167.244a2.834,2.834,0,0,0,2.835-2.834V2.835A2.835,2.835,0,0,0,167.244,0H2.835A2.835,2.835,0,0,0,0,2.835Z"/>
      </g>
    </g>
</svg>
