<svg xmlns="http://www.w3.org/2000/svg" width="60mm" height="120mm" viewBox="0 0 170.079 340.157">
  <g id="Schilder">
      <g id="P-03-R">
        <path fill="#A0552B" stroke="none" d="M170.079,2.835V241.7a2.834,2.834,0,0,1-2.835,2.834H103.289a1.417,1.417,0,0,1-1.417-1.417v-20.94a1.418,1.418,0,0,0-2.126-1.228L34.465,258.64a1.416,1.416,0,0,0,0,2.454l65.281,37.691a1.417,1.417,0,0,0,2.126-1.228v-20.94a1.418,1.418,0,0,1,1.417-1.417h63.955a2.835,2.835,0,0,1,2.835,2.835v59.288a2.834,2.834,0,0,1-2.835,2.834H2.835A2.834,2.834,0,0,1,0,337.323V2.835A2.835,2.835,0,0,1,2.835,0H167.244A2.835,2.835,0,0,1,170.079,2.835Z"/>
      </g>
    </g>
</svg>
