<svg xmlns="http://www.w3.org/2000/svg" width="60mm" height="120mm" viewBox="0 0 170.079 340.157">
  <g id="Schilder">
      <g id="P-04-R">
        <path fill="#A0552B" stroke="none" d="M9.236,246.145a28.343,28.343,0,0,1,14.173,3.8l46,26.557a1.417,1.417,0,0,1,.519,1.936L59.456,296.57a1.417,1.417,0,0,0,1.227,2.126h75.381a1.418,1.418,0,0,0,1.228-2.126L99.6,231.288a1.417,1.417,0,0,0-2.455,0l-10.47,18.135a1.417,1.417,0,0,1-1.936.519L31.626,219.276a28.353,28.353,0,0,0-14.173-3.8H2.835A2.835,2.835,0,0,1,0,212.644V2.834A2.834,2.834,0,0,1,2.834,0h164.41a2.834,2.834,0,0,1,2.835,2.834V337.323a2.834,2.834,0,0,1-2.835,2.834H2.834A2.834,2.834,0,0,1,0,337.323V248.979a2.834,2.834,0,0,1,2.835-2.834Z"/>
      </g>
    </g>
</svg>
