<svg xmlns="http://www.w3.org/2000/svg" width="60mm" height="120mm" viewBox="0 0 170.079 340.157">
  <g id="Schilder">
      <g id="P-05-E">
        <path fill="#A09f9d" stroke="none" d="M160.842,246.145a28.349,28.349,0,0,0-14.173,3.8l-46,26.557a1.417,1.417,0,0,0-.518,1.936l10.47,18.135A1.417,1.417,0,0,1,109.4,298.7H34.015a1.417,1.417,0,0,1-1.228-2.126l37.691-65.282a1.417,1.417,0,0,1,2.455,0L83.4,249.423a1.417,1.417,0,0,0,1.936.519l53.114-30.666a28.352,28.352,0,0,1,14.172-3.8h14.619a2.835,2.835,0,0,0,2.835-2.835V2.834A2.834,2.834,0,0,0,167.244,0H2.834A2.834,2.834,0,0,0,0,2.834V337.323a2.834,2.834,0,0,0,2.834,2.834h164.41a2.834,2.834,0,0,0,2.835-2.834V248.979a2.835,2.835,0,0,0-2.835-2.834Z"/>
      </g>
    </g>
</svg>
