<svg xmlns="http://www.w3.org/2000/svg" width="60mm" height="120mm" viewBox="0 0 170.079 340.157">
  <g id="Schilder">
      <g id="P-06-R">
        <path fill="#A0552B" stroke="none" d="M9.236,268.094a28.344,28.344,0,0,0,14.173-3.8l46-26.557a1.417,1.417,0,0,0,.519-1.936l-10.47-18.135a1.417,1.417,0,0,1,1.227-2.126h75.381a1.418,1.418,0,0,1,1.228,2.126L99.6,282.95a1.417,1.417,0,0,1-2.455,0l-10.47-18.135a1.416,1.416,0,0,0-1.936-.518L31.626,294.962a28.343,28.343,0,0,1-14.173,3.8H2.835A2.835,2.835,0,0,0,0,301.594v35.729a2.834,2.834,0,0,0,2.834,2.834h164.41a2.834,2.834,0,0,0,2.835-2.834V2.834A2.834,2.834,0,0,0,167.244,0H2.834A2.834,2.834,0,0,0,0,2.834V265.259a2.835,2.835,0,0,0,2.835,2.835Z"/>
      </g>
    </g>
</svg>
