<svg xmlns="http://www.w3.org/2000/svg" width="60mm" height="120mm" viewBox="0 0 170.079 340.157">
  <g id="Schilder">
      <g id="P-07-E">
        <path fill="#A09f9d" stroke="none" d="M160.842,268.094a28.35,28.35,0,0,1-14.173-3.8l-46-26.557a1.417,1.417,0,0,1-.518-1.936l10.47-18.135a1.417,1.417,0,0,0-1.227-2.126H34.015a1.417,1.417,0,0,0-1.228,2.126L70.478,282.95a1.417,1.417,0,0,0,2.455,0L83.4,264.815a1.416,1.416,0,0,1,1.936-.518l53.114,30.665a28.342,28.342,0,0,0,14.172,3.8h14.619a2.836,2.836,0,0,1,2.835,2.835v35.729a2.834,2.834,0,0,1-2.835,2.834H2.834A2.834,2.834,0,0,1,0,337.323V2.834A2.834,2.834,0,0,1,2.834,0h164.41a2.834,2.834,0,0,1,2.835,2.834V265.259a2.835,2.835,0,0,1-2.835,2.835Z"/>
      </g>
    </g>
</svg>
