<svg xmlns="http://www.w3.org/2000/svg" width="60mm" height="120mm" viewBox="0 0 170.079 340.157">
  <g id="Schilder">
      <g id="P-08-R">
        <path fill="#A0552B" stroke="none" d="M167.244,0H2.835A2.835,2.835,0,0,0,0,2.835V265.26a2.834,2.834,0,0,0,2.835,2.834H67.159a2.834,2.834,0,0,0,2.834-2.834V237.735a1.417,1.417,0,0,0-1.417-1.417H47.636a1.418,1.418,0,0,1-1.228-2.126L84.1,168.911a1.417,1.417,0,0,1,2.455,0l37.69,65.281a1.417,1.417,0,0,1-1.227,2.126H102.076a1.418,1.418,0,0,0-1.417,1.417v44.017A17.008,17.008,0,0,1,83.651,298.76H2.835A2.834,2.834,0,0,0,0,301.594v35.729a2.834,2.834,0,0,0,2.835,2.834H167.244a2.834,2.834,0,0,0,2.835-2.834V2.835A2.835,2.835,0,0,0,167.244,0Z"/>
      </g>
    </g>
</svg>
