<svg xmlns="http://www.w3.org/2000/svg" width="60mm" height="120mm" viewBox="0 0 170.079 340.157">
  <g id="Schilder">
      <g id="P-09-R">
        <path fill="#A0552B" stroke="none" d="M2.835,0H167.244a2.835,2.835,0,0,1,2.835,2.835V265.26a2.834,2.834,0,0,1-2.835,2.834H102.921a2.834,2.834,0,0,1-2.835-2.834V237.735a1.417,1.417,0,0,1,1.417-1.417h20.94a1.418,1.418,0,0,0,1.228-2.126l-37.69-65.281a1.418,1.418,0,0,0-2.456,0l-37.69,65.281a1.417,1.417,0,0,0,1.228,2.126H68a1.417,1.417,0,0,1,1.417,1.417v44.017A17.008,17.008,0,0,0,86.428,298.76h80.816a2.834,2.834,0,0,1,2.835,2.834v35.729a2.834,2.834,0,0,1-2.835,2.834H2.835A2.834,2.834,0,0,1,0,337.323V2.835A2.835,2.835,0,0,1,2.835,0Z"/>
      </g>
    </g>
</svg>
