<svg xmlns="http://www.w3.org/2000/svg" width="120.223mm" height="120.223mm" viewBox="0 0 340.791 340.791">
  <g id="Schilder">
      <g id="P-12-M">
        <path fill="#D4AF37" stroke="none" d="M340.791,337.317,340.157,2.829A2.835,2.835,0,0,0,337.317,0L2.829.634A2.834,2.834,0,0,0,0,3.474L.634,337.961a2.835,2.835,0,0,0,2.84,2.83l334.487-.634A2.835,2.835,0,0,0,340.791,337.317ZM162.17,271.886l-.676-178.212a2.834,2.834,0,0,0-4.844-1.988L71.686,177.134a2.836,2.836,0,0,1-4.009.012l-8.04-7.995a2.836,2.836,0,0,1-.012-4.009L168.063,56.086a2.835,2.835,0,0,1,4.009-.011L281.128,164.512a2.835,2.835,0,0,1,.012,4.009l-8,8.04a2.834,2.834,0,0,1-4.008.012l-85.8-85.316a2.835,2.835,0,0,0-4.833,2.021l.677,178.543a2.835,2.835,0,0,1-2.824,2.846l-11.339.043A2.834,2.834,0,0,1,162.17,271.886Z"/>
      </g>
    </g>
</svg>
