<svg xmlns="http://www.w3.org/2000/svg" width="120mm" height="120mm" viewBox="0 0 340.157 340.157">
  <g id="Schilder">
      <g id="P-13-M">
        <path fill="#D4AF37" stroke="none" d="M0,2.834V337.323a2.834,2.834,0,0,0,2.835,2.834H337.323a2.834,2.834,0,0,0,2.834-2.834V2.834A2.834,2.834,0,0,0,337.323,0H2.835A2.834,2.834,0,0,0,0,2.834Zm94.177,98.951,8.041-7.995a2.834,2.834,0,0,1,4.008.012L232.117,220.41a2.835,2.835,0,0,0,4.845-1.993l.229-121a2.835,2.835,0,0,1,2.84-2.829l11.339.022a2.834,2.834,0,0,1,2.829,2.84l-.292,153.792a2.834,2.834,0,0,1-2.84,2.829L97.276,253.78a2.834,2.834,0,0,1-2.829-2.84l.021-11.338a2.835,2.835,0,0,1,2.84-2.83l120.5.229a2.834,2.834,0,0,0,2.015-4.833L94.166,105.794A2.835,2.835,0,0,1,94.177,101.785Z"/>
      </g>
    </g>
</svg>
