<svg xmlns="http://www.w3.org/2000/svg" width="120mm" height="120mm" viewBox="0 0 340.157 340.157">
  <g id="Schilder">
      <g id="P-14-R">
        <path fill="#A0552B" stroke="none" d="M337.323,0H2.834A2.834,2.834,0,0,0,0,2.834V337.323a2.834,2.834,0,0,0,2.834,2.834H337.323a2.834,2.834,0,0,0,2.834-2.834V2.834A2.834,2.834,0,0,0,337.323,0ZM245.992,105.794,120.334,232.168A2.835,2.835,0,0,0,122.35,237l120.5-.229a2.835,2.835,0,0,1,2.84,2.83l.022,11.338a2.834,2.834,0,0,1-2.829,2.84l-153.792.292a2.834,2.834,0,0,1-2.84-2.829L85.958,97.451a2.835,2.835,0,0,1,2.83-2.84l11.338-.022a2.834,2.834,0,0,1,2.84,2.829l.23,121a2.835,2.835,0,0,0,4.845,1.993L233.931,93.8a2.835,2.835,0,0,1,4.009-.012l8.04,7.995A2.836,2.836,0,0,1,245.992,105.794Z"/>
      </g>
    </g>
</svg>
