<svg xmlns="http://www.w3.org/2000/svg" width="120mm" height="120mm" viewBox="0 0 340.157 340.157">
  <g id="Schilder">
      <g id="P-15-E">
        <path fill="#A09f9d" stroke="none" d="M337.323,0H2.834A2.834,2.834,0,0,0,0,2.834V337.323a2.834,2.834,0,0,0,2.834,2.834H337.323a2.834,2.834,0,0,0,2.834-2.834V2.834A2.834,2.834,0,0,0,337.323,0Zm-65.77,178.5-178.212.338a2.834,2.834,0,0,0-2,4.841L176.63,268.8a2.834,2.834,0,0,1,0,4.009l-8.009,8.025a2.835,2.835,0,0,1-4.009,0L55.765,172.194a2.835,2.835,0,0,1,0-4.009L164.405,59.334a2.836,2.836,0,0,1,4.009,0l8.025,8.009a2.835,2.835,0,0,1,0,4.009L90.965,156.99a2.835,2.835,0,0,0,2.012,4.837l178.544-.339a2.834,2.834,0,0,1,2.84,2.829l.022,11.339A2.835,2.835,0,0,1,271.553,178.5Z"/>
      </g>
    </g>
</svg>
