<svg xmlns="http://www.w3.org/2000/svg" width="120mm" height="120mm" viewBox="0 0 340.157 340.157">
  <g id="Schilder">
      <g id="R-02-M">
        <path fill="#D4AF37" stroke="none" d="M337.323,0H2.835A2.835,2.835,0,0,0,0,2.835V337.323a2.834,2.834,0,0,0,2.835,2.834H337.323a2.834,2.834,0,0,0,2.834-2.834V2.835A2.834,2.834,0,0,0,337.323,0ZM280.982,139.032v38.52h-9.857v-38.52a12.68,12.68,0,0,0-6.278-10.968,12.871,12.871,0,0,0-2.714-1.215,4.928,4.928,0,0,1,2.958-9.4,22.711,22.711,0,0,1,15.891,21.585Zm-65.6,0a22.478,22.478,0,0,1,15.708-21.5,39.947,39.947,0,0,0,4.141-1.709,63.9,63.9,0,0,0,7.575-4.227c2.25-1.437,3.844-2.409,5.129-3.193,1.167-.711,2.088-1.273,2.973-1.86a70.967,70.967,0,0,0,5.946-4.529,13.74,13.74,0,0,0,5.253-9.331,11.707,11.707,0,0,0-.642-4.936,13.027,13.027,0,0,0-11.746-8.743c-.147-.006-.293-.008-.44-.008a12.907,12.907,0,0,0-12.014,8.179l-.052.128a12.226,12.226,0,0,0,1.46,11.727,13.472,13.472,0,0,0,1.1,1.361,4.929,4.929,0,0,1-7.257,6.671,23.617,23.617,0,0,1-1.9-2.354,22.317,22.317,0,0,1-2.536-21.118,22.744,22.744,0,0,1,42.688.9,21.669,21.669,0,0,1,1.158,9.027,23.551,23.551,0,0,1-8.883,16.165,82.008,82.008,0,0,1-6.682,5.067c-1.132.752-2.156,1.376-3.475,2.181-1.256.766-2.749,1.676-4.783,2.974l0,0a73,73,0,0,1-8.675,4.833,45.454,45.454,0,0,1-5.335,2.178l-.106.034a12.686,12.686,0,0,0-3.211,1.584,12.527,12.527,0,0,0-5.534,10.491v38.52h-9.856ZM21.413,190.1a5.193,5.193,0,0,1,5.193-5.192H55.737c-.869,3.138-1.835,6.577-2.914,10.386H26.606A5.193,5.193,0,0,1,21.413,190.1Zm36.231,44.475a5.451,5.451,0,0,1-5.236-6.958l.038-.132C62.3,193.215,66.8,177.572,69.515,165.468c1.873-8.359,3.048-15.637,5-27.707a18.454,18.454,0,0,1,5.247-10.42,23.106,23.106,0,0,1,3.131-2.6c1.034-.85,2.1-1.6,2.544-1.91l.712-.45,1.828-.731a269.672,269.672,0,0,0,23.2-14.777,13.183,13.183,0,0,0,5.645-11.99,14.856,14.856,0,0,0-.757-3.7l-.053-.161a14.062,14.062,0,0,0-12.991-9.546A14.641,14.641,0,0,0,89.094,90.6a13.8,13.8,0,0,0,1.975,13.866q.376.477.8.939a5.45,5.45,0,0,1-8.021,7.381c-.474-.513-.934-1.056-1.369-1.612A24.811,24.811,0,0,1,78.958,86.59a25.516,25.516,0,0,1,24.3-16.01,24.992,24.992,0,0,1,23.1,17.028,25.765,25.765,0,0,1,1.333,6.487,24.441,24.441,0,0,1-10.239,21.69,275.683,275.683,0,0,1-24.518,15.586l-1.636.7-.174.095c-.57.414-1.1.823-1.412,1.087l-.507.385a11.75,11.75,0,0,0-1.748,1.423,6.857,6.857,0,0,0-2.153,4.252l-.077.5c-1.961,12.118-3.144,19.433-5.074,28.043-2.785,12.425-7.024,27.165-17.268,62.783A5.476,5.476,0,0,1,57.644,234.579Zm39.163,74.68h0a5.421,5.421,0,0,1-3.552,2.19,5.613,5.613,0,0,1-.868.069,5.5,5.5,0,0,1-5.379-4.585l-10.127-62.9a5.457,5.457,0,0,1,4.518-6.247,5.387,5.387,0,0,1,4.043.956,5.424,5.424,0,0,1,2.2,3.559L97.77,305.2A5.413,5.413,0,0,1,96.807,309.259Zm32.361-65.133h0l-12.06,62.9a5.459,5.459,0,0,1-5.352,4.425,5.541,5.541,0,0,1-1.028-.1,5.458,5.458,0,0,1-4.328-6.379l12.06-62.9a5.456,5.456,0,0,1,5.346-4.426,5.566,5.566,0,0,1,1.033.1A5.459,5.459,0,0,1,129.168,244.126Zm22.085-12.894a5.415,5.415,0,0,1-3.264,2.6,5.485,5.485,0,0,1-4.145-.47,5.415,5.415,0,0,1-2.6-3.265l-.2-.7c-10.158-35.371-14.362-50.012-17.137-62.363-1.924-8.567-3.132-15.92-5.131-28.1l-.02-.116a7.664,7.664,0,0,0-2.968-4.985,12.32,12.32,0,0,0-1.05-.766,5.451,5.451,0,0,1,1.838-9.9,5.531,5.531,0,0,1,1.141-.121,5.409,5.409,0,0,1,2.96.885A22.854,22.854,0,0,1,122.7,125.4a19.072,19.072,0,0,1,6.82,11.7c1.976,12.032,3.169,19.295,5.022,27.543,2.7,12.041,6.941,26.8,17.179,62.443A5.416,5.416,0,0,1,151.253,231.232Zm162.3-35.934H151.47c-1.085-3.825-2.053-7.266-2.919-10.386h165a5.193,5.193,0,1,1,0,10.386ZM179.614,162.863a4.4,4.4,0,1,1,5.741,0,14.98,14.98,0,0,1,12.109,14.7H167.505A14.979,14.979,0,0,1,179.614,162.863Z"/>
      </g>
    </g>
</svg>
