<svg xmlns="http://www.w3.org/2000/svg" width="120mm" height="120mm" viewBox="0 0 340.158 340.157">
  <g id="Schilder">
      <g id="R-03">
        <path fill="#000000" stroke="none" d="M339.327.83a2.835,2.835,0,0,0-2-.83H2.835A2.834,2.834,0,0,0,0,2.834V337.323a2.834,2.834,0,0,0,2.835,2.834H337.323a2.834,2.834,0,0,0,2.834-2.834V2.834A2.835,2.835,0,0,0,339.327.83ZM236.1,84.017a21.366,21.366,0,1,1,6.258,15.108A21.365,21.365,0,0,1,236.1,84.017Zm-13.387,38.917a4.251,4.251,0,0,1,4.252-4.252h60.5a4.252,4.252,0,0,1,4.252,4.252V173.75h-69ZM170.924,164.2a14.947,14.947,0,0,1,8.69-5.171,4.441,4.441,0,0,1-1.212-1.695,4.382,4.382,0,0,1,1.28-5.016,4.395,4.395,0,0,1,6.713,5.4,4.458,4.458,0,0,1-1.04,1.316,14.968,14.968,0,0,1,12.109,14.7H167.505A14.985,14.985,0,0,1,170.924,164.2ZM76.646,75.356A27.068,27.068,0,1,1,68.718,94.5,27.068,27.068,0,0,1,76.646,75.356ZM21.413,181.079H72.932l-3.209,10.386H21.413ZM137.242,278.3a4.255,4.255,0,0,1-3.422,1.728H57.752a4.253,4.253,0,0,1-4.063-5.508L91.714,147.852a4.252,4.252,0,0,1,8.145,0l38.024,126.667A4.257,4.257,0,0,1,137.242,278.3Zm181.5-86.834h-196.9l-3.209-10.386h200.1Z"/>
      </g>
    </g>
</svg>
