<svg xmlns="http://www.w3.org/2000/svg" width="120mm" height="120mm" viewBox="0 0 340.158 340.157">
  <g id="Schilder">
      <g id="R-05-E">
        <path fill="#A09f9d" stroke="none" d="M337.323,0H2.835A2.834,2.834,0,0,0,0,2.834V337.323a2.834,2.834,0,0,0,2.835,2.834H337.323a2.834,2.834,0,0,0,2.834-2.834V2.834A2.835,2.835,0,0,0,337.323,0ZM288.074,107.025h10.941v55.668H288.074ZM257.335,52.176a23.178,23.178,0,1,1-23.177,23.178A23.177,23.177,0,0,1,257.335,52.176Zm-41.679,54.849H226.6v55.668H215.656Zm-36.042,42.792a4.4,4.4,0,1,1,5.741,0,14.98,14.98,0,0,1,12.109,14.7H167.505A14.98,14.98,0,0,1,179.614,149.817Zm-18.565,57.4-11.178,4.067-27.887-76.621,11.177-4.068,18.8,51.655h0ZM67.765,130.6l11.178,4.068L51.055,211.286l-11.178-4.067Zm23.072,85.608v81.538H78.943V216.205ZM75.267,96.168a25.2,25.2,0,1,1,25.2,25.2A25.2,25.2,0,0,1,75.267,96.168Zm46.717,120.037v81.538H110.09V216.205ZM21.413,171.866H43.7l-3.78,10.386h-18.5Zm297.331,10.386H161.011l-3.78-10.386H318.744Z"/>
      </g>
    </g>
</svg>
