<svg xmlns="http://www.w3.org/2000/svg" width="120mm" height="120mm" viewBox="0 0 340.157 340.157">
  <g id="Schilder">
      <g id="R-06-E">
        <path fill="#A09f9d" stroke="none" d="M337.323,0H2.835A2.835,2.835,0,0,0,0,2.835V337.323a2.834,2.834,0,0,0,2.835,2.834H337.323a2.834,2.834,0,0,0,2.834-2.834V2.835A2.834,2.834,0,0,0,337.323,0ZM250.834,79.368a18.706,18.706,0,1,1-18.706,18.706A18.705,18.705,0,0,1,250.834,79.368Zm-37.4,63.258a18.7,18.7,0,0,1,18.7-18.7h37.4a18.7,18.7,0,0,1,18.7,18.7v37.73H276.679V149.777a2.207,2.207,0,0,0-4.414,0v30.579H229.4V149.777a2.208,2.208,0,0,0-4.415,0v30.579H213.43Zm-30.224,23.032a4.4,4.4,0,1,1,5.742,0,14.98,14.98,0,0,1,12.108,14.7H171.1A14.979,14.979,0,0,1,183.206,165.658ZM84.647,88.164a21.06,21.06,0,1,1,21.061,21.061A21.061,21.061,0,0,1,84.647,88.164ZM45.333,198.1h-18.5a5.343,5.343,0,0,1-5.391-4.683,5.194,5.194,0,0,1,5.168-5.7H45.333Zm108.919-.249a6.507,6.507,0,0,1-8.216-4.143l-14.742-44.725a2.485,2.485,0,0,0-4.721,1.556l22.411,67.992a3.073,3.073,0,0,1-2.917,4.033H125.815v65.081a8.043,8.043,0,1,1-16.086.014v-65.1h-8.043v65.081a8.044,8.044,0,0,1-16.087.081V222.565H65.347a3.072,3.072,0,0,1-2.917-4.033L84.841,150.54a2.485,2.485,0,1,0-4.72-1.556L65.38,193.709a6.507,6.507,0,1,1-12.359-4.074l19.085-57.9a21.056,21.056,0,0,1,20-14.465h27.208a21.056,21.056,0,0,1,20,14.465l19.086,57.9A6.507,6.507,0,0,1,154.252,197.852Zm159.3.249H166.083V187.715H314.876a2.774,2.774,0,0,1,2.086.91C320.839,193.028,317.788,198.1,313.551,198.1Z"/>
      </g>
    </g>
</svg>
