<svg xmlns="http://www.w3.org/2000/svg" width="69.545mm" height="109.609mm" viewBox="0 0 197.136 310.704">
  <g id="Schilder">
      <g id="SB-03">
        <path fill="#000000" stroke="none" d="M197.136,212.141v92.893a5.67,5.67,0,0,1-5.67,5.67H144.525a10.335,10.335,0,0,1-8.022-16.87A84.986,84.986,0,0,0,16.87,174.2,10.335,10.335,0,0,1,0,166.179V119.243a5.67,5.67,0,0,1,5.669-5.67h92.9A98.568,98.568,0,0,1,197.136,212.141ZM70.866,168.972a70.866,70.866,0,1,0,70.866,70.866A70.866,70.866,0,0,0,70.866,168.972ZM48.5,0a39.685,39.685,0,1,1-39.7,39.685A39.686,39.686,0,0,1,48.5,0Z"/>
      </g>
    </g>
</svg>
