<svg xmlns="http://www.w3.org/2000/svg" width="93mm" height="122.897mm" viewBox="0 0 263.622 348.37">
  <g id="Schilder">
      <g id="SB-06-M">
        <path fill="#D4AF37" stroke="none" d="M262.7,310.933v-.016L236.25,238.243a44.73,44.73,0,0,0-42.031-29.429H146.493A14.912,14.912,0,0,1,131.582,193.9V115.687a22.361,22.361,0,0,0-22.36-22.362h-.016a22.361,22.361,0,0,0-22.359,22.362v82.557a44.737,44.737,0,0,0,44.734,44.74H189.62a22.333,22.333,0,0,1,14.566,5.409,2.338,2.338,0,0,1,.731,2.433l0,.013c-2.106,7.152-3.715,14.068-6.93,20.864-24.867,52.556-95.547,68.63-140.132,31.029-35.068-29.576-43.16-83.526-17.019-121.5a91.109,91.109,0,0,1,16.389-18.046c5.361-4.506,12.572-7.712,12.557-15.683a12.522,12.522,0,0,0-7.332-11.29c-9.153-4.152-17.058,4.306-23.128,9.63a116.356,116.356,0,0,0-38.231,70.77c-6.166,43.468,14.324,87.877,50.541,112.4,40.315,27.3,95.518,25.487,134.232-4.013a116.509,116.509,0,0,0,31.456-36.591l1.2-2.2a1.416,1.416,0,0,1,2.573.193l1.15,3.161q5.8,15.93,11.589,31.856a.015.015,0,0,1,0,.011,15.359,15.359,0,0,0,28.349,1.248h0A15.381,15.381,0,0,0,262.7,310.933ZM108.218,0a39.685,39.685,0,1,1-39.7,39.685A39.685,39.685,0,0,1,108.218,0Z"/>
      </g>
    </g>
</svg>
