<svg xmlns="http://www.w3.org/2000/svg" width="63.704mm" height="148.367mm" viewBox="0 0 180.578 420.568">
  <g id="Schilder">
      <g id="SD-06">
        <path fill="#000000" stroke="none" d="M179.975,225.889,144.947,119.633a38.644,38.644,0,0,0-36.7-26.543l-19.3.055a5.669,5.669,0,0,0-5.668,5.669v303.3a17.847,17.847,0,0,0,1.41,6.962,18.937,18.937,0,0,0,10.207,10.137,17.642,17.642,0,0,0,6.962,1.335,18.319,18.319,0,0,0,6.939-1.462,18.8,18.8,0,0,0,9.982-10.024,17.987,17.987,0,0,0,1.395-6.932V286.313H157.35a5.337,5.337,0,0,0,2.484-.614,5.876,5.876,0,0,0,3.064-4.233,5.361,5.361,0,0,0-.194-2.552L121.573,154.148a4.325,4.325,0,0,1-.195-1.8,4.744,4.744,0,0,1,1.784-3.247,4.344,4.344,0,0,1,1.62-.8,4.558,4.558,0,0,1,5.455,2.988l27.054,82.068a11.942,11.942,0,0,0,15.08,7.6h0A11.938,11.938,0,0,0,179.975,225.889ZM69.892,98.814a5.669,5.669,0,0,0-5.668-5.669H38.636a37.707,37.707,0,0,0-14.584,2.937A39.461,39.461,0,0,0,2.934,117.2,37.7,37.7,0,0,0,0,131.786V232.974a11.939,11.939,0,0,0,23.878,0V146.756a4.9,4.9,0,0,1,1.358-3.389A4.411,4.411,0,0,1,28.417,142,4.563,4.563,0,0,1,33,146.56V402.129a18.447,18.447,0,1,0,36.894-.016ZM76.659,0a39.685,39.685,0,1,1-39.7,39.685A39.685,39.685,0,0,1,76.659,0Z"/>
      </g>
    </g>
</svg>
