<svg xmlns="http://www.w3.org/2000/svg" width="137.289mm" height="148.698mm" viewBox="0 0 389.166 421.506">
  <g id="Schilder">
      <g id="SK-06-R">
        <path fill="#A0552B" stroke="none" d="M205.41,175.635c.5-7.78,7.311-13.663,15.107-13.663h63.068a15.676,15.676,0,0,0,9.067-2.889l14.368-10.192a14.638,14.638,0,0,1,16.937,23.879l-21.27,15.087a18.388,18.388,0,0,1-10.64,3.391H220.016A14.639,14.639,0,0,1,205.41,175.635Zm-6.1-37.127a11.9,11.9,0,0,0-11.9-11.9H157.043a10.578,10.578,0,0,1-6.305-2.086l-37.946-28.18a15.847,15.847,0,0,0-1.739-1.291l-.22-.164-.016.021a15.711,15.711,0,0,0-8.3-2.371H57.636a15.814,15.814,0,0,0-15.814,15.814v43.58h-.03a4.546,4.546,0,0,1-.189,1.953L.285,279.241a5.661,5.661,0,0,0,5.379,7.435H43V406.687a14.654,14.654,0,0,0,9.969,14.047,14.88,14.88,0,0,0,19.69-14.067V286.676H87.489V406.688a14.652,14.652,0,0,0,9.968,14.046,14.88,14.88,0,0,0,19.689-14.067V286.676h37.339a5.666,5.666,0,0,0,5.379-7.435L118.546,153.886a4.332,4.332,0,0,1-.2-1.164h-.018V133.371a1.645,1.645,0,0,1,2.625-1.32l21.972,16.317a10.338,10.338,0,0,0,6.167,2.04h38.309a11.9,11.9,0,0,0,11.9-11.9Zm189.861-13.856a31.181,31.181,0,1,0-31.181,31.181A31.181,31.181,0,0,0,389.166,124.652ZM387.4,215.958h0a14.174,14.174,0,0,0-14.174-14.173H219.551a14.173,14.173,0,0,0-14.173,14.173h0a14.173,14.173,0,0,0,14.173,14.174H373.225A14.174,14.174,0,0,0,387.4,215.958ZM80.094,0A39.685,39.685,0,1,1,40.4,39.685,39.686,39.686,0,0,1,80.094,0Z"/>
      </g>
    </g>
</svg>
