<svg xmlns="http://www.w3.org/2000/svg" width="126.189mm" height="127.259mm" viewBox="0 0 357.7 360.734">
  <g id="Schilder">
      <g id="ST-03">
        <path fill="#000000" stroke="none" d="M4.53,360.734H144.745a4.7,4.7,0,0,0,4.325-6.124L78.962,117.618a4.472,4.472,0,0,0-8.649,0L.205,354.61A4.7,4.7,0,0,0,4.53,360.734ZM357.7,356.2V123.849a4.526,4.526,0,0,0-4.526-4.527H213.023a4.527,4.527,0,0,0-4.526,4.527V356.207a4.527,4.527,0,0,0,4.526,4.527H353.165A4.535,4.535,0,0,0,357.7,356.2ZM74.651,0a39.685,39.685,0,1,1-39.7,39.685A39.685,39.685,0,0,1,74.651,0ZM283.112,0a39.685,39.685,0,1,1-39.7,39.685A39.686,39.686,0,0,1,283.112,0Z"/>
      </g>
    </g>
</svg>
