<svg xmlns="http://www.w3.org/2000/svg" width="142.166mm" height="148.365mm" viewBox="0 0 402.99 420.562">
  <g id="Schilder">
      <g id="ST-06-E">
        <path fill="#A09f9d" stroke="none" d="M186.409,240.989a11.945,11.945,0,0,1-15.083-7.6l-27.057-82.079a4.562,4.562,0,0,0-8.666,2.855L176.74,278.944a5.641,5.641,0,0,1-5.355,7.4H134.209V405.787a14.764,14.764,0,0,1-29.527.021V286.345H89.92V405.787a14.765,14.765,0,0,1-29.529.021V286.345H23.216a5.634,5.634,0,0,1-5.354-7.4L59,154.162a4.562,4.562,0,0,0-8.666-2.854h0l-27.058,82.08A11.943,11.943,0,0,1,.587,225.912L35.619,119.643A38.651,38.651,0,0,1,72.328,93.1h49.944a38.648,38.648,0,0,1,36.709,26.547l35.032,106.269a11.939,11.939,0,0,1-7.6,15.076h0Zm216.581-8.046a11.94,11.94,0,0,1-23.88.015V146.517a4.562,4.562,0,0,0-9.123,0V402.1a18.449,18.449,0,1,1-36.9.021h0V267.9a7.38,7.38,0,0,0-14.759-.006V402.1a18.45,18.45,0,1,1-36.9.018v-255.6a4.561,4.561,0,0,0-9.121,0h0v86.426a11.941,11.941,0,0,1-23.881,0v-101.2A38.643,38.643,0,0,1,287.069,93.1h77.279a38.643,38.643,0,0,1,38.642,38.643v101.2ZM97.313,0a39.685,39.685,0,1,1-39.7,39.685A39.686,39.686,0,0,1,97.313,0ZM325.726,0a39.685,39.685,0,1,1-39.7,39.685A39.686,39.686,0,0,1,325.726,0Z"/>
      </g>
    </g>
</svg>
