<svg xmlns="http://www.w3.org/2000/svg" width="116.725mm" height="138.833mm" viewBox="0 0 330.873 393.541">
  <g id="Schilder">
      <g id="ST-01-E">
        <path fill="#A09f9d" stroke="none" d="M68.4,391.184.1,212.133a1.415,1.415,0,0,1,.065-1.173l35.767-68.3a1.416,1.416,0,0,0,.012-1.292L15.8,101.083a1.417,1.417,0,0,1,1.268-2.051H49.549l.56.993.572.966.584.939.6.911.608.884.619.854.629.825.64.8.651.765.66.735.668.7.678.672.686.641.7.608.7.575.709.542.716.509.722.476.728.441.734.407.739.373.743.338.748.3.751.268.754.233.756.2.759.162.762.126.762.09.764.056.764.019.764-.016.763-.053.763-.088.761-.124.76-.159.756-.194.754-.231.752-.265.747-.3.744-.336.739-.369.734-.405.728-.439.723-.473.716-.506.71-.54.7-.572.7-.606.689-.637.678-.67.67-.7.66-.733.652-.763.64-.794.631-.823.62-.852.608-.882.6-.909.585-.937.573-.964.56-.991.04-.073h32.482a1.417,1.417,0,0,1,1.267,2.051l-20.141,40.282a1.419,1.419,0,0,0,.013,1.292l35.767,68.3a1.415,1.415,0,0,1,.064,1.173l-68.3,179.051A2.835,2.835,0,0,1,68.4,391.184ZM330.863,211.5,309.545,392.29a1.418,1.418,0,0,1-1.408,1.251H241.162a1.417,1.417,0,0,1-1.407-1.251L218.436,211.5a1.525,1.525,0,0,1-.01-.166V100.259a1.417,1.417,0,0,1,1.418-1.417h48.27a1.418,1.418,0,0,1,1.417,1.467l-3.516,100.558,7.722,9.418a1.18,1.18,0,0,0,1.661.164,1.156,1.156,0,0,0,.164-.164l7.722-9.418-3.515-100.558a1.417,1.417,0,0,1,1.416-1.467h48.271a1.417,1.417,0,0,1,1.417,1.417V211.331A1.309,1.309,0,0,1,330.863,211.5ZM274.663,0a39.685,39.685,0,1,1-39.7,39.685A39.686,39.686,0,0,1,274.663,0ZM71.05,0a39.685,39.685,0,1,1-39.7,39.685A39.685,39.685,0,0,1,71.05,0Z"/>
      </g>
    </g>
</svg>
