<svg xmlns="http://www.w3.org/2000/svg" width="156.907mm" height="75mm" viewBox="0 0 444.777 212.598">
  <g id="Schilder">
      <g id="SW-01-E">
        <path fill="#A09f9d" stroke="none" d="M200.719,208.362h-30.6a2.4,2.4,0,0,1-2.317-1.771L129.62,66.06a2.4,2.4,0,0,0-4.632-.007L86.339,206.6a2.4,2.4,0,0,1-2.315,1.764H53.405a2.4,2.4,0,0,1-2.325-1.8l-51-199a2.4,2.4,0,0,1,2.326-3H33.778a2.4,2.4,0,0,1,2.337,1.849L66.157,133.879a4.8,4.8,0,0,0,9.309.147L109.859,6.34a2.4,2.4,0,0,1,2.318-1.776h31.7a2.4,2.4,0,0,1,2.32,1.783l34.052,128.021a4.8,4.8,0,0,0,9.3-.095L220.769,6.4A2.4,2.4,0,0,1,223.1,4.564h30.851a2.4,2.4,0,0,1,2.319,3.021l-53.233,199A2.4,2.4,0,0,1,200.719,208.362ZM443.3,136.7q-.7,3.816-1.555,7.6-1.147,5.1-2.625,10.121-1.212,4.111-2.746,8.117c-4.55,11.872-11.557,22.825-21.727,30.64a93.192,93.192,0,0,1-16.272,10.032,91.575,91.575,0,0,1-17.828,6.428,98.977,98.977,0,0,1-17.562,2.7,129.372,129.372,0,0,1-20.314-.325,85.545,85.545,0,0,1-69.742-48.568,117.726,117.726,0,0,1-10.212-35.122,206.961,206.961,0,0,1-1.736-21.233q0-.1,0-.195a162.8,162.8,0,0,1,4.326-33.574q.843-3.7,1.846-7.366c.022-.081.048-.161.077-.24a153.237,153.237,0,0,1,6.789-15.838,101.491,101.491,0,0,1,7.147-12.174,86.894,86.894,0,0,1,10.447-12.544C306.376,10.5,327.16,2.338,347.678.461A110.384,110.384,0,0,1,378.35,1.935a94.054,94.054,0,0,1,13.038,3.47,86,86,0,0,1,13.267,5.867,70.332,70.332,0,0,1,30.033,31.776,85.14,85.14,0,0,1,4.59,12.091q2.135,7.236,3.6,14.644a2.41,2.41,0,0,1-2.371,2.859H409.994a2.393,2.393,0,0,1-2.3-1.729q-.692-2.361-1.47-4.695-.819-2.454-1.792-4.852-1.211-2.979-2.709-5.828a47.091,47.091,0,0,0-2.813-4.668,43.511,43.511,0,0,0-18.121-14.909A49.949,49.949,0,0,0,370.6,32.594a64.407,64.407,0,0,0-34.45,2.128A51.892,51.892,0,0,0,315.92,47.8a55.744,55.744,0,0,0-6.95,8.984,72.081,72.081,0,0,0-5.809,11.538A83.713,83.713,0,0,0,299.7,79.18a107.358,107.358,0,0,0-2.314,12.692,123.408,123.408,0,0,0-.478,24.261,96.1,96.1,0,0,0,4.474,22.791,80.807,80.807,0,0,0,4.725,11.322c6.926,13.591,18.64,24.584,33.446,28.894a64.9,64.9,0,0,0,24.209,2.079,50.66,50.66,0,0,0,21.353-6.869,43.75,43.75,0,0,0,8.851-7.04,49.744,49.744,0,0,0,11.287-19.452,70.991,70.991,0,0,0,2.2-8.715q1.059-5.677,1.718-11.42a2.387,2.387,0,0,1,2.369-2.127h30.823a2.408,2.408,0,0,1,2.378,2.789Q444.065,132.552,443.3,136.7Z"/>
      </g>
    </g>
</svg>
