<svg xmlns="http://www.w3.org/2000/svg" width="120mm" height="120mm" viewBox="0 0 340.157 340.157">
  <g id="Schilder">
      <g id="T-01_M-R">
        <path fill="#A0552B" stroke="none" d="M0,2.835V337.323a2.834,2.834,0,0,0,2.835,2.834H337.323a2.834,2.834,0,0,0,2.834-2.834V2.835A2.834,2.834,0,0,0,337.323,0H2.835A2.835,2.835,0,0,0,0,2.835ZM170.079,26.206a30.67,30.67,0,1,1-30.67,30.669,30.669,30.669,0,0,1,30.67-30.669Zm40.145,153.353L194.889,309.478H145.268L129.934,179.559v-80.3h36.525l-2.546,72.779,5.514,6.718a.844.844,0,0,0,1.187.117.986.986,0,0,0,.116-.117l5.514-6.718L173.7,99.257h36.526Z"/>
      </g>
    </g>
</svg>
