<svg xmlns="http://www.w3.org/2000/svg" width="260mm" height="120mm" viewBox="0 0 737.008 340.157">
  <g id="Schilder">
      <g id="T-01_M">
        <path fill="#000000" stroke="none" d="M396.85,2.835V337.323a2.835,2.835,0,0,0,2.835,2.834H734.173a2.834,2.834,0,0,0,2.835-2.834V2.835A2.835,2.835,0,0,0,734.173,0H399.685A2.835,2.835,0,0,0,396.85,2.835ZM566.929,26.206A30.67,30.67,0,1,1,536.26,56.875a30.67,30.67,0,0,1,30.669-30.669Zm40.145,153.353L591.74,309.478H542.119L526.784,179.559v-80.3H563.31l-2.546,72.779,5.513,6.718a.844.844,0,0,0,1.187.117.924.924,0,0,0,.117-.117l5.513-6.718-2.546-72.779h36.526Z"/>
      </g>
      <g id="T-01_W">
        <path fill="#000000" stroke="none" d="M0,2.835V337.323a2.834,2.834,0,0,0,2.835,2.834H337.323a2.834,2.834,0,0,0,2.834-2.834V2.835A2.834,2.834,0,0,0,337.323,0H2.835A2.835,2.835,0,0,0,0,2.835ZM170.079,26.206a30.67,30.67,0,1,1-30.67,30.669,30.669,30.669,0,0,1,30.67-30.669Zm0,283.272L119.293,179.559l25.975-49.619L129.934,99.258h24.812l.4.708.408.69.417.67.425.651.433.631.442.61.449.589.457.568.464.546.471.525.477.5.484.48.489.457.5.434.5.411.506.387.511.363.515.339.52.315.523.291.528.266.531.24.533.216.536.192.538.166.54.141.542.115.543.09.544.065.546.04.545.013.545-.012.544-.037.545-.063.543-.088.542-.114.54-.139.539-.164.536-.189.533-.215.531-.24.528-.264.524-.288.52-.314.514-.337.511-.36.507-.386.5-.408.5-.432.49-.456.484-.478.478-.5.47-.525.465-.545.457-.566.45-.588.442-.608.435-.629.426-.648.418-.668.408-.689.4-.707.029-.052h24.813l-15.335,30.682,25.975,49.619Z"/>
      </g>
    </g>
</svg>
