<svg xmlns="http://www.w3.org/2000/svg" width="120mm" height="120mm" viewBox="0 0 340.157 340.155">
    <g id="Schilder">
      <g id="T-02_M-M">
        <path fill="#D4AF37" stroke="none" d="M337.323,0H0V337.32a2.835,2.835,0,0,0,2.835,2.835H337.323a2.834,2.834,0,0,0,2.834-2.835V2.835A2.834,2.834,0,0,0,337.323,0ZM158.891,310.255a5.67,5.67,0,1,1-11.339,0V233.72a5.67,5.67,0,0,1,11.339,0ZM155.6,97.229a61.213,61.213,0,0,1-7.066,2.886l0,0a18.056,18.056,0,0,0-12.579,17.217V218.688a5.67,5.67,0,0,1-11.339,0V117.334a29.4,29.4,0,0,1,20.472-28.019,54.652,54.652,0,0,0,5.692-2.347,86.362,86.362,0,0,0,10.23-5.7l.024-.016.024-.014c5.754-3.673,8.439-5.162,10.951-6.831a97.474,97.474,0,0,0,8.081-6.152A19.459,19.459,0,0,0,187.5,55.029a16.853,16.853,0,0,0-.917-7.058,18.313,18.313,0,0,0-34.389-.782l-.007.019a17.5,17.5,0,0,0,2.018,16.836,19.005,19.005,0,0,0,1.559,1.93,5.67,5.67,0,0,1-8.35,7.674,30.439,30.439,0,0,1-2.478-3.071,29.163,29.163,0,0,1-3.305-27.516,29.747,29.747,0,0,1,28.627-18.827h.006a29.793,29.793,0,0,1,27.023,20l0,.008a28.414,28.414,0,0,1,1.506,11.75,30.842,30.842,0,0,1-11.527,21.024l-.012.009a109.683,109.683,0,0,1-8.987,6.823c-2.984,1.982-5.548,3.384-11.1,6.928A96.967,96.967,0,0,1,155.6,97.229Zm32.441,213.026a5.669,5.669,0,0,1-11.338,0V233.72a5.669,5.669,0,0,1,11.338,0Zm22.947-91.567a5.67,5.67,0,1,1-11.339,0V117.334a18.272,18.272,0,0,0-12.78-17.321,5.669,5.669,0,0,1,3.4-10.816,29.613,29.613,0,0,1,20.717,28.137Z"/>
      </g>
  </svg>
