<svg xmlns="http://www.w3.org/2000/svg" width="260mm" height="120mm" viewBox="0 0 737.008 340.156">
  <g id="Schilder" >
    <g id="T-02_M-R">
      <path fill="#A0552B" stroke="none" d="M734.173,0H396.85V337.32a2.835,2.835,0,0,0,2.835,2.835H734.173a2.835,2.835,0,0,0,2.835-2.835V2.835A2.835,2.835,0,0,0,734.173,0ZM555.741,310.255a5.669,5.669,0,1,1-11.338,0V233.72a5.669,5.669,0,0,1,11.338,0Zm-3.3-213.026a61.271,61.271,0,0,1-7.065,2.886l0,0A18.059,18.059,0,0,0,532.8,117.334V218.688a5.669,5.669,0,0,1-11.338,0V117.334a29.4,29.4,0,0,1,20.471-28.019,54.562,54.562,0,0,0,5.692-2.347,86.2,86.2,0,0,0,10.23-5.7l.024-.016.024-.014c5.755-3.673,8.439-5.162,10.952-6.831a97.818,97.818,0,0,0,8.081-6.152,19.467,19.467,0,0,0,7.422-13.224,16.869,16.869,0,0,0-.917-7.058,18.314,18.314,0,0,0-34.39-.782l-.007.019a17.5,17.5,0,0,0,2.019,16.836,19,19,0,0,0,1.558,1.93,5.67,5.67,0,1,1-8.35,7.674,30.579,30.579,0,0,1-2.478-3.071,29.16,29.16,0,0,1-3.3-27.516,29.745,29.745,0,0,1,28.626-18.827h.007a29.79,29.79,0,0,1,27.022,20l0,.008a28.381,28.381,0,0,1,1.506,11.75,30.842,30.842,0,0,1-11.527,21.024l-.011.009a109.661,109.661,0,0,1-8.988,6.823c-2.983,1.982-5.548,3.384-11.1,6.928A96.98,96.98,0,0,1,552.445,97.229Zm32.442,213.026a5.67,5.67,0,0,1-11.339,0V233.72a5.67,5.67,0,0,1,11.339,0Zm22.946-91.567a5.67,5.67,0,1,1-11.339,0V117.334a18.273,18.273,0,0,0-12.779-17.321,5.669,5.669,0,0,1,3.4-10.816,29.613,29.613,0,0,1,20.717,28.137Z"/>
    </g>
    <g id="T-02_W-R">
      <path fill="#A0552B" stroke="none" d="M337.323,0H2.835A2.835,2.835,0,0,0,0,2.835V337.321a2.835,2.835,0,0,0,2.835,2.835H337.323a2.834,2.834,0,0,0,2.834-2.835V2.835A2.834,2.834,0,0,0,337.323,0ZM114.464,221.636h0a5.668,5.668,0,0,1-3.881-7.015h0c12.464-43.337,17.579-61.181,20.829-75.684,2.277-10.157,3.676-18.818,6.091-33.753a21.412,21.412,0,0,1,6.113-12.165A26.337,26.337,0,0,1,147.3,89.97c1.209-1,2.418-1.853,3.136-2.356l.546-.382,2.314-.915A332.105,332.105,0,0,0,181.71,68.222a17.019,17.019,0,0,0,7.28-15.448,19.053,19.053,0,0,0-1-4.826l-.008-.026-.009-.026a18.06,18.06,0,0,0-16.712-12.328A18.683,18.683,0,0,0,153.392,47.3l-.017.044c-.006.015-.013.029-.019.044a17.549,17.549,0,0,0,2.583,17.71q.48.615,1.019,1.2a5.669,5.669,0,1,1-8.341,7.679q-.85-.922-1.613-1.9a29.117,29.117,0,0,1-4.156-28.95,30.058,30.058,0,0,1,28.661-18.893,29.426,29.426,0,0,1,27.212,20.052,30.479,30.479,0,0,1,1.577,7.666,28.634,28.634,0,0,1-12.054,25.54l0,0-.006,0a340.913,340.913,0,0,1-29.756,18.911l-.323.179-1.753.694c-.645.461-1.449,1.063-2.017,1.544l-.235.2-.255.172a15.279,15.279,0,0,0-2.263,1.842,9.34,9.34,0,0,0-2.905,5.753l-.009.07-.011.069c-2.421,14.972-3.867,23.94-6.231,34.487-3.37,15.038-8.532,33-21,76.338A5.67,5.67,0,0,1,114.464,221.636ZM159.207,315.4h0a5.668,5.668,0,0,1-6.5-4.695h0l-12.322-76.535a5.67,5.67,0,0,1,11.169-1.959c.009.053.017.106.025.158L163.9,308.9A5.668,5.668,0,0,1,159.207,315.4Zm42.9-81.148-14.674,76.534a5.669,5.669,0,1,1-11.148-2.067l.013-.067,14.674-76.535a5.67,5.67,0,0,1,11.135,2.135Zm23.582-13.27a5.67,5.67,0,0,1-7.014-3.884c-12.546-43.686-17.693-61.586-21.083-76.68-2.34-10.418-3.807-19.361-6.249-34.238l0-.013,0-.015a10.212,10.212,0,0,0-3.952-6.666,15.182,15.182,0,0,0-1.368-1,5.669,5.669,0,0,1,6.18-9.506,26.626,26.626,0,0,1,2.38,1.738,22.23,22.23,0,0,1,7.955,13.636c2.441,14.869,3.865,23.527,6.121,33.577,3.271,14.566,8.372,32.348,20.918,76.035A5.669,5.669,0,0,1,225.692,220.984Z"/>
    </g>
  </g>
</svg>
