<svg xmlns="http://www.w3.org/2000/svg" width="120mm" height="120mm" viewBox="0 0 340.157 340.156">
  <g id="Schilder">
    <g id="T-02_W-M">
      <path fill="#D4AF37" stroke="none" d="M337.323,0H2.835A2.834,2.834,0,0,0,0,2.834V337.321a2.835,2.835,0,0,0,2.835,2.835H337.323a2.834,2.834,0,0,0,2.834-2.835V2.834A2.834,2.834,0,0,0,337.323,0ZM116.376,222.677a6.636,6.636,0,0,1-6.332-8.414l.046-.159c17.664-62.878,19.157-62.062,26.683-108.5A23,23,0,0,1,146.9,89.866c1.25-1.028,23.8-14.316,34.2-21.606a16.387,16.387,0,0,0,5.846-19.167c-5.192-15.267-26.732-15.156-32.542-.509a16.679,16.679,0,0,0,2.388,16.767c7.252,6.591-1.671,16.668-8.735,10.06a30.109,30.109,0,0,1-5.911-31.681c10.366-26.047,48.2-25.693,57.316,1.231a29.772,29.772,0,0,1-10.769,34.072c-11.123,7.8-34.156,21.586-34.156,21.586a9.761,9.761,0,0,0-4.81,7.462c-7.725,47.29-8.857,45.2-27.015,109.826A6.623,6.623,0,0,1,116.376,222.677Zm47.355,90.3h0c-3.311,4.733-10.986,2.9-11.848-2.812l-12.246-76.058c-1.021-5.635,5.753-9.862,10.353-6.4a6.56,6.56,0,0,1,2.662,4.3L164.9,308.071A6.545,6.545,0,0,1,163.731,312.978Zm39.13-78.757h0l-14.583,76.055a6.592,6.592,0,0,1-12.948-2.481l14.583-76.056a6.551,6.551,0,0,1,2.775-4.214C197.385,224.205,204.053,228.583,202.861,234.221Zm26.705-15.592a6.652,6.652,0,0,1-12.344-2.221c-18.073-64.358-19.1-62.137-26.928-109.387a9.285,9.285,0,0,0-3.612-6.168c-1.863-1.265-3.733-2.721-4.129-5.086a6.636,6.636,0,0,1,6.462-7.962c2.338-.064,4.279,1.449,6.027,2.856a23.071,23.071,0,0,1,8.248,14.146c7.809,47.077,8.666,44.021,26.844,108.811A6.54,6.54,0,0,1,229.566,218.629Z"/>
    </g>
  </g>
</svg>
