<svg xmlns="http://www.w3.org/2000/svg" width="120mm" height="120.001mm" viewBox="0 0 340.157 340.161">
  <g id="Schilder">
      <g id="T-03_W-M">
        <path fill="#D4AF37" stroke="none" d="M339.327.83a2.835,2.835,0,0,0-2-.83H2.835A2.834,2.834,0,0,0,0,2.835V337.326a2.834,2.834,0,0,0,2.835,2.835H207.083a4.252,4.252,0,0,0,4.063-3L246.3,223.389a4.252,4.252,0,0,1,8.125,0l35.156,113.776a4.251,4.251,0,0,0,4.062,3h43.677a2.834,2.834,0,0,0,2.834-2.834V2.835A2.834,2.834,0,0,0,339.327.83ZM275.178,173.714a24.813,24.813,0,1,1-7.269-17.546,24.813,24.813,0,0,1,7.269,17.546Z"/>
      </g>
    </g>
</svg>
