<svg xmlns="http://www.w3.org/2000/svg" width="120mm" height="119.998mm" viewBox="0 0 340.157 340.153">
  <g id="Schilder">
      <g id="T-03_M-E">
        <path fill="#A09f9d" stroke="none" d="M339.327.83a2.835,2.835,0,0,0-2-.83H2.835A2.834,2.834,0,0,0,0,2.835V337.318a2.836,2.836,0,0,0,2.835,2.835H45.394a4.254,4.254,0,0,0,4.252-4.252V214.488a4.252,4.252,0,0,1,4.252-4.252h71.786a4.252,4.252,0,0,1,4.252,4.252V335.9a4.254,4.254,0,0,0,4.252,4.252H337.323a2.836,2.836,0,0,0,2.834-2.835V2.835A2.834,2.834,0,0,0,339.327.83ZM114.6,173.712a24.811,24.811,0,0,1-24.812,24.812h0A24.813,24.813,0,1,1,114.6,173.711Z"/>
      </g>
    </g>
</svg>
