<svg xmlns="http://www.w3.org/2000/svg" width="260mm" height="120.001mm" viewBox="0 0 737.008 340.161">
  <g id="Schilder">
      <g id="T-03_M-E">
        <path fill="#A09f9d" stroke="none" d="M736.177.835a2.831,2.831,0,0,0-2-.831H399.685a2.837,2.837,0,0,0-2.835,2.835V337.322a2.836,2.836,0,0,0,2.835,2.835h42.559a4.251,4.251,0,0,0,4.252-4.252V214.492a4.252,4.252,0,0,1,4.252-4.252h71.786a4.252,4.252,0,0,1,4.252,4.252V335.905a4.252,4.252,0,0,0,4.252,4.252H734.173a2.836,2.836,0,0,0,2.835-2.835V2.839A2.831,2.831,0,0,0,736.177.835ZM511.454,173.716a24.811,24.811,0,0,1-24.812,24.812h0a24.812,24.812,0,1,1,24.812-24.812Z"/>
      </g>
      <g id="T-03_W-E">
        <path fill="#A09f9d" stroke="none" d="M339.327.83a2.835,2.835,0,0,0-2-.83H2.835A2.834,2.834,0,0,0,0,2.835V337.326a2.834,2.834,0,0,0,2.835,2.835H207.083a4.252,4.252,0,0,0,4.063-3L246.3,223.389a4.252,4.252,0,0,1,8.125,0l35.156,113.776a4.251,4.251,0,0,0,4.062,3h43.677a2.834,2.834,0,0,0,2.834-2.834V2.835A2.834,2.834,0,0,0,339.327.83ZM275.178,173.714a24.813,24.813,0,1,1-7.269-17.546,24.813,24.813,0,0,1,7.269,17.546Z"/>
      </g>
    </g>
</svg>
