<svg xmlns="http://www.w3.org/2000/svg" width="120mm" height="120mm" viewBox="0 0 340.157 340.158">
  <g id="Schilder">
      <g id="T-04_W-M">
        <path fill="#D4AF37" stroke="none" d="M337.323,0H2.835A2.835,2.835,0,0,0,0,2.835V337.323a2.835,2.835,0,0,0,2.835,2.835H337.323a2.834,2.834,0,0,0,2.834-2.835V2.835A2.834,2.834,0,0,0,337.323,0ZM53.579,80.829h31.75l25.309,107.123L96.2,242.7Zm79.25,178.5H107l41.843-158.654,13.067,49.892Zm26-178.5h27.25l27.5,107.268-12.847,52.742Zm78.5,178.5H211.348l43.481-178.5h31.75Z"/>
      </g>
    </g>
</svg>
