<svg xmlns="http://www.w3.org/2000/svg" width="120mm" height="120mm" viewBox="0 0 340.157 340.157">
  <g id="Schilder">
      <g id="T-04_M-R">
        <path fill="#A0552B" stroke="none" d="M337.323,0H2.835A2.835,2.835,0,0,0,0,2.835V337.323a2.834,2.834,0,0,0,2.835,2.834H337.323a2.834,2.834,0,0,0,2.834-2.834V2.835A2.834,2.834,0,0,0,337.323,0ZM107.2,259.329H77.454V80.829h0l29.75,82.789ZM93.06,80.829h28.394l41.639,118.153-13.476,39.235Zm125.207,80.228-35.313,98.272h-25.06L218.267,83.554ZM262.7,259.329h-29.75V80.829H262.7Z"/>
      </g>
    </g>
</svg>
