<svg xmlns="http://www.w3.org/2000/svg" width="260mm" height="120mm" viewBox="0 0 737.008 340.158">
  <g id="Schilder">
      <g id="T-04_M">
        <path fill="#000000" stroke="none" d="M734.173,0H399.685a2.835,2.835,0,0,0-2.835,2.835V337.323a2.835,2.835,0,0,0,2.835,2.834H734.173a2.834,2.834,0,0,0,2.835-2.834V2.835A2.835,2.835,0,0,0,734.173,0ZM504.054,259.329H474.3V80.829h0l29.75,82.789Zm-14.143-178.5H518.3l41.639,118.153-13.475,39.235Zm125.207,80.228L579.8,259.329H554.745L615.118,83.554Zm44.436,98.272H629.8V80.829h29.75Z"/>
      </g>
      <g id="T-04_W">
        <path fill="#000000" stroke="none" d="M337.323,0H2.835A2.835,2.835,0,0,0,0,2.835V337.323a2.835,2.835,0,0,0,2.835,2.835H337.323a2.834,2.834,0,0,0,2.834-2.835V2.835A2.834,2.834,0,0,0,337.323,0ZM53.579,80.829h31.75l25.309,107.123L96.2,242.7Zm79.25,178.5H107l41.843-158.654,13.067,49.892Zm26-178.5h27.25l27.5,107.268-12.847,52.742Zm78.5,178.5H211.348l43.481-178.5h31.75Z"/>
      </g>
    </g>
</svg>
