<svg xmlns="http://www.w3.org/2000/svg" width="120mm" height="120.001mm" viewBox="0 0 340.157 340.161">
  <g id="Schilder">
      <g id="T-05_M-E">
        <path fill="#A09f9d" stroke="none" d="M337.323,0H0V337.327a2.834,2.834,0,0,0,2.835,2.834H337.323a2.834,2.834,0,0,0,2.834-2.834V2.835A2.834,2.834,0,0,0,337.323,0ZM137.175,200.775H125.463V120.484h11.712Zm23.425,92H148.888v-80.29H160.6Zm30.669,0H179.557v-80.29h11.712Zm3.62-210.2a24.811,24.811,0,1,1-24.812-24.81,24.811,24.811,0,0,1,24.812,24.81Zm19.8,118.2H202.982V120.484h11.712Z"/>
      </g>
    </g>
</svg>
