<svg xmlns="http://www.w3.org/2000/svg" width="260mm" height="120.001mm" viewBox="0 0 737.008 340.161">
  <g id="Schilder">
      <g id="T-05_M-R">
        <path fill="#A0552B" stroke="none" d="M734.173,0H396.85V337.327a2.835,2.835,0,0,0,2.835,2.834H734.173a2.834,2.834,0,0,0,2.835-2.834V2.835A2.835,2.835,0,0,0,734.173,0ZM534.026,200.775H522.314V120.484h11.712Zm23.424,92H545.738v-80.29H557.45Zm30.67,0H576.408v-80.29H588.12Zm3.619-210.2a24.811,24.811,0,1,1-24.811-24.81,24.81,24.81,0,0,1,24.811,24.81Zm19.8,118.2H599.832V120.484h11.712Z"/>
      </g>
      <g id="T-05_W-R">
        <path fill="#A0552B" stroke="none" d="M337.323,0H2.835A2.835,2.835,0,0,0,0,2.835V337.326a2.835,2.835,0,0,0,2.835,2.835H337.323a2.834,2.834,0,0,0,2.834-2.835V2.835A2.834,2.834,0,0,0,337.323,0Zm-226.9,192.592,27.461-75.449,11.006,4L121.427,196.6Zm50.179,89.14H148.888V201.441H160.6ZM145.269,83.24a24.81,24.81,0,1,1,24.81,24.811A24.809,24.809,0,0,1,145.269,83.24Zm46,198.492H179.558V201.441H191.27ZM218.731,196.6l-27.461-75.45,11.006-4,27.461,75.449Z"/>
      </g>
    </g>
</svg>
