<svg xmlns="http://www.w3.org/2000/svg" width="120mm" height="120.015mm" viewBox="0 0 340.157 340.2">
  <g id="Schilder">
      <g id="T-06_M-E">
        <path fill="#A09f9d" stroke="none" d="M0,2.835v334.53A2.835,2.835,0,0,0,2.835,340.2H337.323a2.834,2.834,0,0,0,2.834-2.835V2.835A2.834,2.834,0,0,0,337.323,0H2.835A2.835,2.835,0,0,0,0,2.835Zm170.079,30.1a25.274,25.274,0,1,1-25.271,25.277v0a25.272,25.272,0,0,1,25.27-25.274ZM220.61,184.583A7.808,7.808,0,1,1,205,184.67v-56.6a2.982,2.982,0,1,0-5.963,0V295.2a12.064,12.064,0,0,1-24.128,0V207.44a4.825,4.825,0,0,0-9.65-.069V295.2a12.064,12.064,0,0,1-24.128.106V128.068a2.982,2.982,0,0,0-5.964-.054v56.569a7.808,7.808,0,1,1-15.615.087V118.407a25.268,25.268,0,0,1,25.266-25.27h50.53a25.268,25.268,0,0,1,25.266,25.27v66.176Z"/>
      </g>
    </g>
</svg>
