<svg xmlns="http://www.w3.org/2000/svg" width="120mm" height="120mm" viewBox="0 0 340.157 340.157">
  <g id="Schilder">
      <g id="T-06_W-E">
        <path fill="#A09f9d" stroke="none" d="M0,2.835V337.323a2.834,2.834,0,0,0,2.835,2.834H337.323a2.834,2.834,0,0,0,2.834-2.834V2.835A2.834,2.834,0,0,0,337.323,0H2.835A2.835,2.835,0,0,0,0,2.835Zm170.079,30.1a25.271,25.271,0,1,1-25.271,25.271v0A25.271,25.271,0,0,1,170.079,32.936ZM228.33,189.824a7.808,7.808,0,0,1-9.859-4.971l-17.689-53.667a2.983,2.983,0,0,0-5.666,1.867h0l26.893,81.585a3.686,3.686,0,0,1-3.5,4.84h-24.3v78.094a9.652,9.652,0,0,1-19.3.016v-78.11h-9.65v78.094a9.652,9.652,0,0,1-19.3.1q0-.048,0-.1V219.478h-24.3a3.684,3.684,0,0,1-3.5-4.84l26.891-81.585a2.982,2.982,0,0,0-5.664-1.867l-17.688,53.667a7.807,7.807,0,0,1-14.83-4.888l22.9-69.482a25.266,25.266,0,0,1,24-17.357H186.4a25.268,25.268,0,0,1,24,17.357l22.9,69.482A7.808,7.808,0,0,1,228.33,189.824Z"/>
      </g>
    </g>
</svg>
