<svg xmlns="http://www.w3.org/2000/svg" width="260mm" height="120.015mm" viewBox="0 0 737.008 340.2">
  <g id="Schilder">
      <g id="T-06_M-M">
        <path fill="#D4AF37" stroke="none" d="M396.85,2.835v334.53a2.835,2.835,0,0,0,2.835,2.835H734.173a2.835,2.835,0,0,0,2.835-2.835V2.835A2.835,2.835,0,0,0,734.173,0H399.685A2.835,2.835,0,0,0,396.85,2.835Zm170.079,30.1a25.274,25.274,0,1,1-25.271,25.277v0a25.272,25.272,0,0,1,25.27-25.274Zm50.532,151.645a7.808,7.808,0,1,1-15.615.087v-56.6a2.982,2.982,0,1,0-5.964,0V295.2a12.064,12.064,0,1,1-24.128,0V207.44a4.825,4.825,0,0,0-9.65-.069V295.2a12.064,12.064,0,1,1-24.127.106q0-.054,0-.108V128.068a2.982,2.982,0,0,0-5.964-.054v56.569a7.808,7.808,0,1,1-15.615.087V118.407a25.268,25.268,0,0,1,25.266-25.27h50.53a25.268,25.268,0,0,1,25.266,25.27v66.176Z"/>
      </g>
      <g id="T-06_W-M">
        <path fill="#D4AF37" stroke="none" d="M0,2.835V337.323a2.834,2.834,0,0,0,2.835,2.834H337.323a2.834,2.834,0,0,0,2.834-2.834V2.835A2.834,2.834,0,0,0,337.323,0H2.835A2.835,2.835,0,0,0,0,2.835Zm170.079,30.1a25.271,25.271,0,1,1-25.271,25.271v0A25.271,25.271,0,0,1,170.079,32.936ZM228.33,189.824a7.808,7.808,0,0,1-9.859-4.971l-17.689-53.667a2.983,2.983,0,0,0-5.666,1.867h0l26.893,81.585a3.686,3.686,0,0,1-3.5,4.84h-24.3v78.094a9.652,9.652,0,0,1-19.3.016v-78.11h-9.65v78.094a9.652,9.652,0,0,1-19.3.1q0-.048,0-.1V219.478h-24.3a3.684,3.684,0,0,1-3.5-4.84l26.891-81.585a2.982,2.982,0,0,0-5.664-1.867l-17.688,53.667a7.807,7.807,0,0,1-14.83-4.888l22.9-69.482a25.266,25.266,0,0,1,24-17.357H186.4a25.268,25.268,0,0,1,24,17.357l22.9,69.482A7.808,7.808,0,0,1,228.33,189.824Z"/>
      </g>
    </g>
</svg>
