<svg xmlns="http://www.w3.org/2000/svg" width="120mm" height="120mm" viewBox="0 0 340.158 340.157">
  <g id="Schilder">
      <g id="T-07_W-M">
        <path fill="#D4AF37" stroke="none" d="M337.323,0H2.835A2.835,2.835,0,0,0,0,2.834V337.323a2.835,2.835,0,0,0,2.835,2.834H337.323a2.834,2.834,0,0,0,2.835-2.834V2.834A2.834,2.834,0,0,0,337.323,0ZM201.2,234.305a1.417,1.417,0,0,1-1.417,1.418H177.166a1.417,1.417,0,0,0-1.418,1.417V259.7a1.417,1.417,0,0,1-1.417,1.417h-8.5a1.416,1.416,0,0,1-1.417-1.417V237.14a1.417,1.417,0,0,0-1.418-1.417H140.377a1.418,1.418,0,0,1-1.417-1.418v-8.5a1.417,1.417,0,0,1,1.417-1.417h22.615a1.418,1.418,0,0,0,1.418-1.418V200.951c0-.01,0-.017,0-.026V189.84a1.416,1.416,0,0,1,1.546-1.406c1.362.11,2.738.169,4.128.169s2.763-.059,4.123-.169a1.418,1.418,0,0,1,1.546,1.407v33.125a1.418,1.418,0,0,0,1.418,1.418h22.615A1.416,1.416,0,0,1,201.2,225.8Zm-19.781-37.138v-8.712a1.414,1.414,0,0,1,1.086-1.369,51.948,51.948,0,1,0-24.854,0,1.416,1.416,0,0,1,1.086,1.371v8.708a1.416,1.416,0,0,1-1.693,1.394,63.283,63.283,0,1,1,26.068,0A1.415,1.415,0,0,1,181.417,197.167Z"/>
      </g>
    </g>
</svg>
