<svg xmlns="http://www.w3.org/2000/svg" width="260mm" height="120.782mm" viewBox="0 0 737.007 342.375">
  <g id="Schilder">
      <g id="T-07_M">
        <path fill="#000000" stroke="none" d="M734.172,2.217H399.684a2.835,2.835,0,0,0-2.835,2.835V339.54a2.835,2.835,0,0,0,2.835,2.835H734.172a2.835,2.835,0,0,0,2.835-2.835V5.052A2.835,2.835,0,0,0,734.172,2.217ZM614.888,190.44a63.377,63.377,0,1,1-28.672-55.859,1.414,1.414,0,0,1,.21,2.181l-6.16,6.161a1.414,1.414,0,0,1-1.739.2A52.017,52.017,0,1,0,596.1,160.7a1.415,1.415,0,0,1,.2-1.74l6.16-6.16a1.416,1.416,0,0,1,2.182.211A62.906,62.906,0,0,1,614.888,190.44Zm29.167-52.678h-8.5a1.417,1.417,0,0,1-1.417-1.418V116.529a1.418,1.418,0,0,0-2.42-1l-30.593,30.593c-.007.007-.008.016-.015.022l-7.842,7.842a1.418,1.418,0,0,1-2.087-.1,52.286,52.286,0,0,0-5.835-5.836,1.418,1.418,0,0,1-.1-2.087l9.437-9.438L623.7,107.509a1.418,1.418,0,0,0-1-2.42H602.88a1.417,1.417,0,0,1-1.418-1.417v-8.5a1.418,1.418,0,0,1,1.418-1.418h41.175a1.417,1.417,0,0,1,1.417,1.418v41.175A1.418,1.418,0,0,1,644.055,137.762Z"/>
      </g>
      <g id="T-07_W">
        <path fill="#000000" stroke="none" d="M337.323,0H2.835A2.835,2.835,0,0,0,0,2.834V337.323a2.835,2.835,0,0,0,2.835,2.834H337.323a2.834,2.834,0,0,0,2.835-2.834V2.834A2.834,2.834,0,0,0,337.323,0ZM201.2,234.305a1.417,1.417,0,0,1-1.417,1.418H177.166a1.417,1.417,0,0,0-1.418,1.417V259.7a1.417,1.417,0,0,1-1.417,1.417h-8.5a1.416,1.416,0,0,1-1.417-1.417V237.14a1.417,1.417,0,0,0-1.418-1.417H140.377a1.418,1.418,0,0,1-1.417-1.418v-8.5a1.417,1.417,0,0,1,1.417-1.417h22.615a1.418,1.418,0,0,0,1.418-1.418V200.951c0-.01,0-.017,0-.026V189.84a1.416,1.416,0,0,1,1.546-1.406c1.362.11,2.738.169,4.128.169s2.763-.059,4.123-.169a1.418,1.418,0,0,1,1.546,1.407v33.125a1.418,1.418,0,0,0,1.418,1.418h22.615A1.416,1.416,0,0,1,201.2,225.8Zm-19.781-37.138v-8.712a1.414,1.414,0,0,1,1.086-1.369,51.948,51.948,0,1,0-24.854,0,1.416,1.416,0,0,1,1.086,1.371v8.708a1.416,1.416,0,0,1-1.693,1.394,63.283,63.283,0,1,1,26.068,0A1.415,1.415,0,0,1,181.417,197.167Z"/>
      </g>
    </g>
</svg>
