<svg xmlns="http://www.w3.org/2000/svg" width="120mm" height="120mm" viewBox="0 0 340.158 340.158">
  <g id="Schilder">
      <g id="T-07_M-R">
        <path fill="#A0552B" stroke="none" d="M337.323,0H2.835A2.835,2.835,0,0,0,0,2.835V337.323a2.835,2.835,0,0,0,2.835,2.835H337.323a2.835,2.835,0,0,0,2.835-2.835V2.835A2.835,2.835,0,0,0,337.323,0ZM218.04,188.223a63.378,63.378,0,1,1-28.673-55.86,1.416,1.416,0,0,1,.211,2.182l-6.161,6.16a1.413,1.413,0,0,1-1.739.2,52.014,52.014,0,1,0,17.576,17.578,1.413,1.413,0,0,1,.2-1.739l6.16-6.16a1.416,1.416,0,0,1,2.182.21A62.917,62.917,0,0,1,218.04,188.223Zm29.167-52.679h-8.5a1.416,1.416,0,0,1-1.417-1.417V114.312a1.418,1.418,0,0,0-2.42-1L204.273,143.9c-.006.007-.008.016-.015.023l-7.842,7.842a1.417,1.417,0,0,1-2.086-.1,52.474,52.474,0,0,0-5.836-5.837,1.418,1.418,0,0,1-.1-2.087l9.437-9.437,29.015-29.015a1.418,1.418,0,0,0-1-2.42H206.031a1.418,1.418,0,0,1-1.418-1.417v-8.5a1.417,1.417,0,0,1,1.418-1.417h41.175a1.417,1.417,0,0,1,1.418,1.417v41.176A1.417,1.417,0,0,1,247.207,135.544Z"/>
      </g>
    </g>
</svg>
