<svg xmlns="http://www.w3.org/2000/svg" width="120mm" height="120mm" viewBox="0 0 340.157 340.157">
  <g id="Schilder">
      <g id="W-01-M">
        <path fill="#D4AF37" stroke="none" d="M0,2.835V337.323a2.834,2.834,0,0,0,2.835,2.834H337.323a2.834,2.834,0,0,0,2.834-2.834V2.835A2.834,2.834,0,0,0,337.323,0H2.835A2.835,2.835,0,0,0,0,2.835ZM157.175,230.6H139.1a1.417,1.417,0,0,1-1.368-1.045L115.2,146.584a1.418,1.418,0,0,0-2.735,0L89.643,229.56a1.418,1.418,0,0,1-1.367,1.041H70.2a1.417,1.417,0,0,1-1.373-1.065L38.712,112.044a1.418,1.418,0,0,1,1.373-1.769H58.61a1.417,1.417,0,0,1,1.38,1.092l17.737,75.258a2.835,2.835,0,0,0,5.5.087l20.307-75.388a1.416,1.416,0,0,1,1.368-1.049h18.716a1.417,1.417,0,0,1,1.37,1.053l20.105,75.586a2.835,2.835,0,0,0,5.493-.057l18.431-75.5a1.417,1.417,0,0,1,1.376-1.081H188.6a1.417,1.417,0,0,1,1.369,1.784L158.544,229.55A1.418,1.418,0,0,1,157.175,230.6ZM300.4,188.293q-.415,2.253-.918,4.49-.678,3.012-1.55,5.975-.716,2.429-1.622,4.793c-2.686,7.009-6.823,13.476-12.828,18.09a55.023,55.023,0,0,1-9.607,5.923,54.06,54.06,0,0,1-10.526,3.8,58.5,58.5,0,0,1-10.369,1.594,76.472,76.472,0,0,1-11.993-.192,50.509,50.509,0,0,1-41.177-28.676,69.513,69.513,0,0,1-6.03-20.736,122.335,122.335,0,0,1-1.024-12.536c0-.039,0-.077,0-.116a96.11,96.11,0,0,1,2.554-19.822q.5-2.185,1.09-4.349c.013-.048.028-.095.045-.142a90.373,90.373,0,0,1,4.009-9.351,59.866,59.866,0,0,1,4.219-7.188,51.238,51.238,0,0,1,6.169-7.406c8.714-8.659,20.986-13.478,33.1-14.586a65.148,65.148,0,0,1,18.109.87,55.615,55.615,0,0,1,7.7,2.049,50.8,50.8,0,0,1,7.833,3.464A41.53,41.53,0,0,1,295.314,133a50.243,50.243,0,0,1,2.71,7.139q1.26,4.272,2.125,8.645a1.423,1.423,0,0,1-1.4,1.689H280.734a1.413,1.413,0,0,1-1.355-1.021q-.408-1.394-.868-2.772-.483-1.449-1.058-2.865-.714-1.758-1.6-3.441a27.9,27.9,0,0,0-1.661-2.756,25.69,25.69,0,0,0-10.7-8.8,29.439,29.439,0,0,0-6.017-1.988,38.032,38.032,0,0,0-20.34,1.256,30.644,30.644,0,0,0-11.946,7.724,32.9,32.9,0,0,0-4.1,5.305,42.54,42.54,0,0,0-3.43,6.811,49.478,49.478,0,0,0-2.043,6.409,63.46,63.46,0,0,0-1.367,7.493,72.958,72.958,0,0,0-.282,14.325,56.776,56.776,0,0,0,2.642,13.456,47.811,47.811,0,0,0,2.789,6.684c4.09,8.025,11.006,14.515,19.748,17.06a38.319,38.319,0,0,0,14.293,1.227,29.9,29.9,0,0,0,12.607-4.055,25.831,25.831,0,0,0,5.226-4.157,29.355,29.355,0,0,0,6.664-11.485,41.752,41.752,0,0,0,1.3-5.145q.626-3.353,1.014-6.742a1.408,1.408,0,0,1,1.4-1.256h18.2a1.422,1.422,0,0,1,1.4,1.646Q300.85,185.841,300.4,188.293Z"/>
      </g>
    </g>
</svg>
