<svg xmlns="http://www.w3.org/2000/svg" width="120mm" height="120mm" viewBox="0 0 340.157 340.157">
  <g id="Schilder">
      <g id="W-02-M">
        <path fill="#D4AF37" stroke="none" d="M210.22,243.117v-20.94a1.418,1.418,0,0,1,2.126-1.228l65.282,37.691a1.416,1.416,0,0,1,0,2.454l-65.282,37.691a1.418,1.418,0,0,1-2.126-1.228v-20.94A1.416,1.416,0,0,0,208.8,275.2H2.835A2.835,2.835,0,0,0,0,278.035v59.288a2.834,2.834,0,0,0,2.835,2.834H337.323a2.834,2.834,0,0,0,2.834-2.834V2.835A2.834,2.834,0,0,0,337.323,0H2.835A2.835,2.835,0,0,0,0,2.835V241.7a2.834,2.834,0,0,0,2.835,2.834H208.8A1.416,1.416,0,0,0,210.22,243.117Zm-13.754-149.2a53.546,53.546,0,0,1,28.866-33.927,62.232,62.232,0,0,1,49.179,0,44.326,44.326,0,0,1,25.63,36.339,1.414,1.414,0,0,1-1.417,1.523H280.7a1.427,1.427,0,0,1-1.4-1.228,27.5,27.5,0,0,0-29.4-23.181.786.786,0,0,1-.1,0,33.528,33.528,0,0,0-34.127,27.967c0,.024-.01.049-.016.073a62.874,62.874,0,0,0,5.493,45.779c.027.05.057.1.088.148a32.89,32.89,0,0,0,53.529,1.986,1.934,1.934,0,0,0,.125-.185,38.51,38.51,0,0,0,5.348-18.689,1.424,1.424,0,0,1,1.415-1.408H299.7a1.416,1.416,0,0,1,1.421,1.393,49.819,49.819,0,0,1-45.874,49.962,58.52,58.52,0,0,1-17.489-.566,52.936,52.936,0,0,1-44.153-47.648A94.691,94.691,0,0,1,196.466,93.914Zm-83.934.042-22.82,82.98a1.417,1.417,0,0,1-1.366,1.042H70.268a1.418,1.418,0,0,1-1.373-1.066L38.782,59.421a1.417,1.417,0,0,1,1.373-1.769H58.68a1.416,1.416,0,0,1,1.379,1.092L77.8,134a2.835,2.835,0,0,0,5.5.087L103.6,58.7a1.418,1.418,0,0,1,1.369-1.048h18.716a1.417,1.417,0,0,1,1.369,1.053l20.106,75.585a2.835,2.835,0,0,0,5.493-.056l18.43-75.5a1.417,1.417,0,0,1,1.377-1.081h18.215a1.416,1.416,0,0,1,1.369,1.783l-31.43,117.492a1.417,1.417,0,0,1-1.369,1.051H139.175a1.418,1.418,0,0,1-1.368-1.046L115.266,93.96A1.417,1.417,0,0,0,112.532,93.956Z"/>
      </g>
    </g>
</svg>
