<svg xmlns="http://www.w3.org/2000/svg" width="120mm" height="120mm" viewBox="0 0 340.157 340.157">
  <g id="Schilder">
      <g id="W-06-M">
        <path fill="#D4AF37" stroke="none" d="M337.323,0H2.835A2.835,2.835,0,0,0,0,2.835V267.1a2.835,2.835,0,0,0,2.835,2.835H124.021a28.344,28.344,0,0,0,14.173-3.8l46-26.556a1.418,1.418,0,0,0,.518-1.937l-10.47-18.134a1.418,1.418,0,0,1,1.228-2.126h75.381a1.417,1.417,0,0,1,1.227,2.126l-37.69,65.281a1.417,1.417,0,0,1-2.455,0l-10.47-18.135a1.417,1.417,0,0,0-1.936-.518L146.411,296.8a28.351,28.351,0,0,1-14.174,3.8H2.835A2.834,2.834,0,0,0,0,303.434v33.889a2.834,2.834,0,0,0,2.835,2.834H337.323a2.834,2.834,0,0,0,2.834-2.834V2.835A2.834,2.834,0,0,0,337.323,0ZM190.192,59.435,158.763,176.927a1.418,1.418,0,0,1-1.369,1.051h-18.07a1.418,1.418,0,0,1-1.368-1.046L115.416,93.96a1.418,1.418,0,0,0-2.735,0l-22.819,82.98a1.418,1.418,0,0,1-1.367,1.042H70.417a1.418,1.418,0,0,1-1.373-1.066L38.931,59.421A1.417,1.417,0,0,1,40.3,57.652H58.829a1.417,1.417,0,0,1,1.38,1.092L77.946,134a2.835,2.835,0,0,0,5.5.087L103.749,58.7a1.416,1.416,0,0,1,1.368-1.048h18.716a1.417,1.417,0,0,1,1.37,1.053l20.1,75.585a2.835,2.835,0,0,0,5.493-.056l18.431-75.5a1.416,1.416,0,0,1,1.377-1.081h18.214A1.416,1.416,0,0,1,190.192,59.435Zm65.2,121.031a58.519,58.519,0,0,1-17.489-.566,52.938,52.938,0,0,1-44.154-47.648,94.674,94.674,0,0,1,2.862-38.338,53.547,53.547,0,0,1,28.865-33.927,62.232,62.232,0,0,1,49.179,0,44.327,44.327,0,0,1,25.631,36.339,1.414,1.414,0,0,1-1.417,1.523H280.849a1.427,1.427,0,0,1-1.4-1.228,27.5,27.5,0,0,0-29.4-23.181.776.776,0,0,1-.1,0,33.529,33.529,0,0,0-34.128,27.967.636.636,0,0,1-.016.073,62.879,62.879,0,0,0,5.493,45.779c.027.05.057.1.089.148a32.892,32.892,0,0,0,53.529,1.986,1.934,1.934,0,0,0,.125-.185,38.5,38.5,0,0,0,5.347-18.689,1.425,1.425,0,0,1,1.415-1.408h18.047a1.416,1.416,0,0,1,1.421,1.393A49.818,49.818,0,0,1,255.4,180.466Z"/>
      </g>
    </g>
</svg>
