<svg xmlns="http://www.w3.org/2000/svg" width="120mm" height="120mm" viewBox="0 0 340.157 340.157">
  <g id="Schilder">
      <g id="W-08-M">
        <path fill="#D4AF37" stroke="none" d="M337.323,0H2.835A2.835,2.835,0,0,0,0,2.835V337.323a2.834,2.834,0,0,0,2.835,2.834H337.323a2.834,2.834,0,0,0,2.834-2.834V2.835A2.834,2.834,0,0,0,337.323,0ZM257.838,74.015h42.72V84.576H270.4V96.815h27.68v9.761H270.4v14h30.8v10.56H257.838Zm-53.36,0h46.8V84.576H234.158v46.56H221.6V84.576h-17.12Zm-16.6,37.84a11.74,11.74,0,0,0-3.88-2.4,38.79,38.79,0,0,0-5.44-1.681q-3.042-.719-6.161-1.6a54.66,54.66,0,0,1-6.239-1.96,21.379,21.379,0,0,1-5.44-3,14.138,14.138,0,0,1-3.881-4.6,13.965,13.965,0,0,1-1.48-6.681,14.95,14.95,0,0,1,1.881-7.639,17.018,17.018,0,0,1,4.92-5.4,21.47,21.47,0,0,1,6.88-3.2,29.323,29.323,0,0,1,7.68-1.04,36.371,36.371,0,0,1,8.6,1,21.509,21.509,0,0,1,7.321,3.24,16.419,16.419,0,0,1,5.08,5.721,17.541,17.541,0,0,1,1.88,8.439H187.438a10.1,10.1,0,0,0-1.08-4.24,7.054,7.054,0,0,0-2.439-2.639,10.353,10.353,0,0,0-3.481-1.361,21.546,21.546,0,0,0-4.279-.4,14.8,14.8,0,0,0-3.04.319,8.175,8.175,0,0,0-2.761,1.12,6.948,6.948,0,0,0-2.04,2,5.377,5.377,0,0,0-.8,3.04,5.124,5.124,0,0,0,.64,2.721,5.709,5.709,0,0,0,2.52,1.92,32.064,32.064,0,0,0,5.2,1.76q3.318.88,8.68,2.24,1.6.319,4.44,1.159a21.326,21.326,0,0,1,5.64,2.681,17.057,17.057,0,0,1,4.84,4.92,14,14,0,0,1,2.04,7.88,17.461,17.461,0,0,1-1.52,7.28,15.825,15.825,0,0,1-4.52,5.8,21.72,21.72,0,0,1-7.44,3.8,35.164,35.164,0,0,1-10.28,1.361,36.14,36.14,0,0,1-9.16-1.16,23.033,23.033,0,0,1-7.84-3.64,17.972,17.972,0,0,1-5.4-6.32,18.878,18.878,0,0,1-1.92-9.12H165.6a10.46,10.46,0,0,0,1.04,4.879A9.061,9.061,0,0,0,169.4,120.3a11.97,11.97,0,0,0,4.04,1.84,19.1,19.1,0,0,0,4.8.6,24.976,24.976,0,0,0,3.6-.279,12.54,12.54,0,0,0,3.6-1.08,7.861,7.861,0,0,0,2.8-2.2,5.524,5.524,0,0,0,1.119-3.56A5.015,5.015,0,0,0,187.879,111.855Zm-60.92-53.6h10.8v9.36h-10.8Zm-16.48,0h10.8v9.36h-10.8Zm7.36,15.759h12.88l21.36,57.121h-13.04l-4.32-12.72H119.358l3.29-9.361h8.791l-7.2-20.959h-.16l-3.891,10.959-.031-.011-11.278,32.092H96.239ZM40.96,90.935a28.545,28.545,0,0,1,5.52-9.559,25.24,25.24,0,0,1,8.84-6.4,28.872,28.872,0,0,1,11.8-2.32,27.787,27.787,0,0,1,8.52,1.32,24.17,24.17,0,0,1,7.44,3.88,20.981,20.981,0,0,1,8.12,14.96h-12a12.022,12.022,0,0,0-4.32-7.2,12.559,12.559,0,0,0-7.76-2.4,14.672,14.672,0,0,0-7.2,1.639,13.592,13.592,0,0,0-4.8,4.4,19.27,19.27,0,0,0-2.68,6.28,31.254,31.254,0,0,0-.84,7.279,29.061,29.061,0,0,0,.84,7,18.885,18.885,0,0,0,2.68,6.12,13.718,13.718,0,0,0,4.8,4.361,14.661,14.661,0,0,0,7.2,1.639q6.24,0,9.64-3.16t3.96-9.159H68.08v-9.36h24v30.88h-8l-1.28-6.481a18.8,18.8,0,0,1-7.44,6.04,21.043,21.043,0,0,1-8.24,1.721,29.3,29.3,0,0,1-11.8-2.28,25.264,25.264,0,0,1-8.84-6.281,27.8,27.8,0,0,1-5.52-9.4,34.509,34.509,0,0,1-1.92-11.641A35.7,35.7,0,0,1,40.96,90.935Zm149.013,72.856L158.544,281.282a1.419,1.419,0,0,1-1.37,1.052H139.1a1.418,1.418,0,0,1-1.368-1.046L115.2,198.316a1.418,1.418,0,0,0-2.735,0l-22.819,82.98a1.418,1.418,0,0,1-1.367,1.042H70.2a1.418,1.418,0,0,1-1.373-1.066L38.712,163.777a1.418,1.418,0,0,1,1.373-1.77H58.61a1.418,1.418,0,0,1,1.38,1.093l17.737,75.257a2.835,2.835,0,0,0,5.5.087l20.307-75.388a1.416,1.416,0,0,1,1.368-1.049h18.716a1.418,1.418,0,0,1,1.37,1.053l20.105,75.586a2.835,2.835,0,0,0,5.493-.056l18.431-75.5a1.417,1.417,0,0,1,1.376-1.082H188.6A1.417,1.417,0,0,1,189.973,163.791Zm111.279,71.322q-.4,2.46-.852,4.912-.415,2.253-.918,4.49-.678,3.012-1.55,5.976-.716,2.427-1.622,4.792c-2.686,7.009-6.823,13.476-12.828,18.09a54.963,54.963,0,0,1-9.607,5.923,54,54,0,0,1-10.526,3.8,58.408,58.408,0,0,1-10.369,1.594,76.472,76.472,0,0,1-11.993-.192,50.505,50.505,0,0,1-41.177-28.676,69.5,69.5,0,0,1-6.03-20.736,122.312,122.312,0,0,1-1.024-12.536c0-.039,0-.077,0-.116a96.11,96.11,0,0,1,2.554-19.822q.5-2.185,1.09-4.349c.013-.048.028-.095.045-.142a90.466,90.466,0,0,1,4.009-9.351,59.866,59.866,0,0,1,4.219-7.188,51.35,51.35,0,0,1,6.168-7.406c8.715-8.659,20.987-13.477,33.1-14.586a65.186,65.186,0,0,1,18.109.87,55.615,55.615,0,0,1,7.7,2.049,50.8,50.8,0,0,1,7.833,3.464,41.53,41.53,0,0,1,17.732,18.761,50.289,50.289,0,0,1,2.71,7.139q1.26,4.272,2.125,8.646a1.422,1.422,0,0,1-1.4,1.688H280.734a1.413,1.413,0,0,1-1.355-1.021q-.408-1.393-.868-2.772-.483-1.449-1.058-2.864-.714-1.759-1.6-3.442a27.767,27.767,0,0,0-1.661-2.755,25.692,25.692,0,0,0-10.7-8.8,29.439,29.439,0,0,0-6.017-1.988,38.032,38.032,0,0,0-20.34,1.256,30.644,30.644,0,0,0-11.946,7.724,32.9,32.9,0,0,0-4.1,5.305,42.508,42.508,0,0,0-3.43,6.812,49.415,49.415,0,0,0-2.043,6.408,63.477,63.477,0,0,0-1.367,7.494,72.947,72.947,0,0,0-.282,14.324,56.767,56.767,0,0,0,2.642,13.456,47.761,47.761,0,0,0,2.789,6.684c4.09,8.025,11.006,14.516,19.748,17.06a38.319,38.319,0,0,0,14.293,1.227,29.9,29.9,0,0,0,12.607-4.055,25.861,25.861,0,0,0,5.226-4.156,29.362,29.362,0,0,0,6.664-11.485,41.813,41.813,0,0,0,1.3-5.146q.626-3.353,1.014-6.742a1.409,1.409,0,0,1,1.4-1.256h18.2A1.422,1.422,0,0,1,301.252,235.113Z"/>
      </g>
    </g>
</svg>
