<svg xmlns="http://www.w3.org/2000/svg" width="120mm" height="120mm" viewBox="0 0 340.157 340.158">
  <g id="Schilder">
      <g id="W-10-M">
        <path fill="#D4AF37" stroke="none" d="M337.323,0H2.835A2.835,2.835,0,0,0,0,2.835V337.323a2.835,2.835,0,0,0,2.835,2.835H87.62a2.835,2.835,0,0,0,2.746-3.539L61.416,223.665a1.418,1.418,0,0,1,1.373-1.769H81.314a1.417,1.417,0,0,1,1.38,1.092l17.737,75.258a2.835,2.835,0,0,0,5.5.087l17.055-63.316a1.417,1.417,0,0,1,2.736,0l7.767,28.557a1.417,1.417,0,0,1,0,.748l-19.869,72.252a2.834,2.834,0,0,0,2.733,3.587h40.109a2.835,2.835,0,0,0,2.736-3.578L128.512,223.685a1.418,1.418,0,0,1,1.368-1.789h16.438a1.417,1.417,0,0,1,1.37,1.053l20.105,75.586a2.835,2.835,0,0,0,5.493-.057l18.431-75.5a1.416,1.416,0,0,1,1.377-1.081h18.214a1.417,1.417,0,0,1,1.369,1.784l-30.2,112.91a2.835,2.835,0,0,0,2.738,3.568h51.737a2.834,2.834,0,0,0,1.626-5.152,50.522,50.522,0,0,1-16.06-19.3,69.482,69.482,0,0,1-6.029-20.736,121.951,121.951,0,0,1-1.025-12.533v-.119a96.11,96.11,0,0,1,2.554-19.822q.5-2.185,1.09-4.349l.046-.145a90.628,90.628,0,0,1,4.008-9.348,59.866,59.866,0,0,1,4.219-7.188,51.292,51.292,0,0,1,6.169-7.406c8.714-8.66,20.986-13.478,33.1-14.586a65.148,65.148,0,0,1,18.109.87,55.475,55.475,0,0,1,7.7,2.049,50.8,50.8,0,0,1,7.833,3.463,41.537,41.537,0,0,1,17.732,18.762,50.243,50.243,0,0,1,2.71,7.139q1.26,4.272,2.125,8.646a1.422,1.422,0,0,1-1.4,1.688H303.438a1.413,1.413,0,0,1-1.355-1.021q-.408-1.393-.868-2.772-.483-1.449-1.058-2.865-.714-1.758-1.6-3.441a27.9,27.9,0,0,0-1.661-2.756,25.69,25.69,0,0,0-10.7-8.8,29.483,29.483,0,0,0-6.017-1.989,38.048,38.048,0,0,0-20.339,1.257,30.636,30.636,0,0,0-11.946,7.724,32.944,32.944,0,0,0-4.1,5.3,42.592,42.592,0,0,0-3.43,6.812,49.478,49.478,0,0,0-2.043,6.409,63.457,63.457,0,0,0-1.366,7.493,72.879,72.879,0,0,0-.283,14.325,56.776,56.776,0,0,0,2.642,13.456,47.761,47.761,0,0,0,2.789,6.684c4.09,8.025,11.006,14.515,19.748,17.06a38.339,38.339,0,0,0,14.293,1.227,29.925,29.925,0,0,0,12.607-4.055,25.831,25.831,0,0,0,5.226-4.157,29.366,29.366,0,0,0,6.664-11.484,42.043,42.043,0,0,0,1.3-5.146q.624-3.352,1.014-6.742a1.407,1.407,0,0,1,1.4-1.256h18.2a1.422,1.422,0,0,1,1.4,1.646q-.4,2.46-.852,4.912-.416,2.253-.918,4.489-.678,3.013-1.55,5.976-.716,2.428-1.622,4.792c-2.686,7.01-6.823,13.476-12.827,18.091q-1.745,1.341-3.59,2.537l-.059.038a2.34,2.34,0,0,0,1.24,4.321h33.545a2.834,2.834,0,0,0,2.834-2.835V2.835A2.834,2.834,0,0,0,337.323,0Z"/>
      </g>
    </g>
</svg>
