<svg xmlns="http://www.w3.org/2000/svg" width="120mm" height="120mm" viewBox="0 0 340.157 340.157">
  <g id="Schilder">
      <g id="W-13-E">
        <path fill="#A09f9d" stroke="none" d="M339.327.83a2.835,2.835,0,0,0-2-.83H2.835A2.835,2.835,0,0,0,0,2.835H0V337.323a2.834,2.834,0,0,0,2.835,2.834H337.323a2.834,2.834,0,0,0,2.834-2.834h0V2.835A2.834,2.834,0,0,0,339.327.83ZM48.379,244.351a16.576,16.576,0,0,1-.578,2.467,11.932,11.932,0,0,1-1.005,2.3,11.646,11.646,0,0,1-1.449,2.015,10.58,10.58,0,0,1-1.858,1.64,14.2,14.2,0,0,1-2.509,1.387,12.57,12.57,0,0,1-2.752.817,21.7,21.7,0,0,1-3.756.328h-3.75V248.14h1.3q.771,0,1.539-.061.718-.057,1.429-.174a7.754,7.754,0,0,0,1.376-.358A6.052,6.052,0,0,0,37.5,247a4.533,4.533,0,0,0,.956-.8,5.477,5.477,0,0,0,.785-1.114A4.746,4.746,0,0,0,39.7,243.8a9.758,9.758,0,0,0,0-3.892,4.741,4.741,0,0,0-.461-1.286,5.432,5.432,0,0,0-.784-1.112,4.543,4.543,0,0,0-.957-.8,6.043,6.043,0,0,0-1.132-.551,7.824,7.824,0,0,0-1.38-.36q-.714-.117-1.438-.174-.764-.061-1.53-.061H25.052v34.782H16.09V228.4H34.472a21.7,21.7,0,0,1,3.756.328,12.573,12.573,0,0,1,2.752.818,14.17,14.17,0,0,1,2.509,1.386,10.615,10.615,0,0,1,1.858,1.639,11.914,11.914,0,0,1,1.454,2.017,11.794,11.794,0,0,1,1,2.272,16.1,16.1,0,0,1,.575,2.442,16.773,16.773,0,0,1,.2,2.552A16.206,16.206,0,0,1,48.379,244.351Zm36.728,26H54.166V228.4H84.65v7.755H63.129v8.99H82.88v7.168H63.129v10.281H85.107Zm4.138-78.311a1.419,1.419,0,0,1-.859.29H70.308a1.418,1.418,0,0,1-1.373-1.066L38.822,73.771a1.393,1.393,0,0,1-.045-.352A1.417,1.417,0,0,1,40.2,72H58.72A1.416,1.416,0,0,1,60.1,73.094l17.738,75.257a2.835,2.835,0,0,0,5.5.087L103.639,73.05A1.418,1.418,0,0,1,105.008,72h18.716a1.419,1.419,0,0,1,1.37,1.053L145.2,148.64a2.835,2.835,0,0,0,5.493-.056l18.43-75.5A1.417,1.417,0,0,1,170.5,72h18.215a1.417,1.417,0,0,1,1.369,1.783l-31.43,117.492a1.416,1.416,0,0,1-1.369,1.051H139.215a1.418,1.418,0,0,1-1.368-1.046L115.306,108.31a1.417,1.417,0,0,0-2.734,0l-22.82,82.98A1.412,1.412,0,0,1,89.245,192.038ZM117.3,270.349a12.779,12.779,0,0,1-.568-2.031,21.57,21.57,0,0,1-.345-2.728q-.086-1.377-.219-2.753-.123-1.269-.3-2.535a13.166,13.166,0,0,0-.829-3.108,5.291,5.291,0,0,0-1.112-1.71,3.919,3.919,0,0,0-.926-.7,5.972,5.972,0,0,0-1.339-.531,7.784,7.784,0,0,0-1.124-.211,13,13,0,0,0-1.463-.082H105.79v-6.58h4.149a10,10,0,0,0,2.915-.435,4.456,4.456,0,0,0,1.709-.976,3.739,3.739,0,0,0,.71-.879,5.4,5.4,0,0,0,.53-1.241,7.107,7.107,0,0,0,.217-1.071,11.558,11.558,0,0,0,.085-1.392,10.515,10.515,0,0,0-.087-1.35,6.636,6.636,0,0,0-.22-1.042,5.16,5.16,0,0,0-.525-1.187,3.765,3.765,0,0,0-.71-.856,4.46,4.46,0,0,0-1.7-.954,10.193,10.193,0,0,0-2.919-.427H100.12v34.782H91.158V228.4h21.978a14.808,14.808,0,0,1,2.69.246,11.225,11.225,0,0,1,2.248.664,12.325,12.325,0,0,1,2.072,1.1,10.692,10.692,0,0,1,1.7,1.393,10.984,10.984,0,0,1,2.4,3.673,11.336,11.336,0,0,1,.612,2.129,13.03,13.03,0,0,1,.216,2.365,15.623,15.623,0,0,1-.418,3.592,10.892,10.892,0,0,1-1.095,2.813,8.143,8.143,0,0,1-1.891,2.276,11.767,11.767,0,0,1-3.047,1.837v.117a8.182,8.182,0,0,1,1.569.627,5.851,5.851,0,0,1,1.172.812,7.9,7.9,0,0,1,.98,1.055,8.1,8.1,0,0,1,.789,1.237,10.12,10.12,0,0,1,.582,1.359,11.84,11.84,0,0,1,.417,1.549q.156.793.265,1.6.106.785.163,1.576.029.5.053,1,.033.673.062,1.348t.076,1.341q.051.711.123,1.421t.19,1.4q.109.641.267,1.272a7.565,7.565,0,0,0,.414,1.215,5.2,5.2,0,0,0,.528.929Zm46.527-9.636a12.4,12.4,0,0,1-.8,2.527,11.32,11.32,0,0,1-1.337,2.278A12.214,12.214,0,0,1,159.8,267.5a12.918,12.918,0,0,1-2.282,1.529,18.386,18.386,0,0,1-3.027,1.262,19.416,19.416,0,0,1-3.216.719,30.521,30.521,0,0,1-4.12.28,25.8,25.8,0,0,1-3.333-.217,24.553,24.553,0,0,1-3.2-.636,17.629,17.629,0,0,1-3.035-1.122,15.1,15.1,0,0,1-2.56-1.551,12.742,12.742,0,0,1-2.153-2.05,13.816,13.816,0,0,1-1.7-2.591,11.6,11.6,0,0,1-1.015-2.916,17.542,17.542,0,0,1-.355-3.783h8.678a10.175,10.175,0,0,0,.211,2.067,6.088,6.088,0,0,0,.53,1.517,7.184,7.184,0,0,0,.884,1.35,6.2,6.2,0,0,0,1.086,1.03,7.576,7.576,0,0,0,1.292.773,9.545,9.545,0,0,0,1.591.579,12.879,12.879,0,0,0,1.673.328,13.682,13.682,0,0,0,1.752.112q.6,0,1.2-.048.688-.054,1.371-.158a8.987,8.987,0,0,0,1.337-.305,8.374,8.374,0,0,0,1.232-.488,5.829,5.829,0,0,0,1.1-.7,5.574,5.574,0,0,0,.9-.914,3.447,3.447,0,0,0,.574-1.105,5.18,5.18,0,0,0,.225-1.509,4.44,4.44,0,0,0-.292-1.583,3.382,3.382,0,0,0-.764-1.179,6.74,6.74,0,0,0-1.148-.921,10.375,10.375,0,0,0-1.621-.841q-.853-.351-1.734-.632-1.064-.338-2.148-.6t-2.187-.559q-1.107-.3-2.208-.616-1.143-.294-2.266-.657-1.106-.357-2.187-.782a16.267,16.267,0,0,1-2.086-1,14.384,14.384,0,0,1-1.8-1.208,9.956,9.956,0,0,1-1.532-1.5A10.864,10.864,0,0,1,132.231,245a8.317,8.317,0,0,1-.758-2.1,13.4,13.4,0,0,1,.071-5.943,9.553,9.553,0,0,1,.972-2.475,12.676,12.676,0,0,1,1.557-2.187,12.391,12.391,0,0,1,1.953-1.779,14.368,14.368,0,0,1,2.277-1.361,16.089,16.089,0,0,1,2.633-.989,21.218,21.218,0,0,1,2.768-.576,19.68,19.68,0,0,1,2.712-.188,26.666,26.666,0,0,1,3.171.189,24.249,24.249,0,0,1,2.966.545,16.384,16.384,0,0,1,2.824.988,14.06,14.06,0,0,1,2.4,1.392,11.74,11.74,0,0,1,2.033,1.862,12.416,12.416,0,0,1,1.592,2.338,10.454,10.454,0,0,1,.962,2.652,16.729,16.729,0,0,1,.38,3.548h-8.677a10.251,10.251,0,0,0-.281-1.835,5.59,5.59,0,0,0-1.272-2.4,4.762,4.762,0,0,0-.959-.821,6.551,6.551,0,0,0-1.13-.588,8.088,8.088,0,0,0-1.353-.411,12.714,12.714,0,0,0-1.413-.215c-.545-.053-1.093-.079-1.641-.079a9.9,9.9,0,0,0-1.075.058,10.668,10.668,0,0,0-1.095.177,6.017,6.017,0,0,0-1.041.327,5.584,5.584,0,0,0-.928.5,5.106,5.106,0,0,0-.809.664,5.053,5.053,0,0,0-.647.8,3.136,3.136,0,0,0-.406.93,5.252,5.252,0,0,0-.164,1.3,5.376,5.376,0,0,0,.135,1.2,2.744,2.744,0,0,0,.321.8,2.355,2.355,0,0,0,.567.643,6.61,6.61,0,0,0,1.232.767,12.973,12.973,0,0,0,1.369.567q1.158.4,2.341.725,1.2.327,2.4.647,1.9.5,3.795,1,.575.12,1.142.272,1.018.273,2.026.58a13.284,13.284,0,0,1,1.954.77,17.274,17.274,0,0,1,2.071,1.2,11.172,11.172,0,0,1,1.815,1.533,13.871,13.871,0,0,1,1.638,2.08,8.018,8.018,0,0,1,1.035,2.386,13.981,13.981,0,0,1,.421,3.4A14.205,14.205,0,0,1,163.83,260.713Zm43.537-6.642a24.082,24.082,0,0,1-1.01,4.028,22.4,22.4,0,0,1-1.711,3.773A19.275,19.275,0,0,1,202.417,265,17.516,17.516,0,0,1,199.6,267.6a19.191,19.191,0,0,1-3.457,2.02,16.65,16.65,0,0,1-2.557.91,21.744,21.744,0,0,1-3.057.583V263.28a9.541,9.541,0,0,0,1.238-.386,7.919,7.919,0,0,0,1.065-.506,10.154,10.154,0,0,0,1.916-1.412,9.828,9.828,0,0,0,1.509-1.79,13.2,13.2,0,0,0,1.116-2.083,15.274,15.274,0,0,0,.8-2.412,21.442,21.442,0,0,0,.447-2.516,22.575,22.575,0,0,0,.153-2.625,24.606,24.606,0,0,0-.153-2.741,22.976,22.976,0,0,0-.447-2.6,15.864,15.864,0,0,0-.8-2.5,13.116,13.116,0,0,0-1.111-2.115,9.879,9.879,0,0,0-1.512-1.814,10.052,10.052,0,0,0-1.913-1.417,8.244,8.244,0,0,0-2.2-.865,12.879,12.879,0,0,0-5.871,0,8.237,8.237,0,0,0-2.2.865,10.022,10.022,0,0,0-1.914,1.418,9.86,9.86,0,0,0-1.511,1.813,13.161,13.161,0,0,0-1.11,2.112,15.869,15.869,0,0,0-.8,2.5,22.752,22.752,0,0,0-.446,2.6,24.607,24.607,0,0,0-.154,2.741,22.575,22.575,0,0,0,.153,2.625,21.442,21.442,0,0,0,.447,2.516,15.278,15.278,0,0,0,.8,2.415,13.2,13.2,0,0,0,1.115,2.08,9.857,9.857,0,0,0,1.508,1.79,10.193,10.193,0,0,0,1.917,1.412,8.049,8.049,0,0,0,1.065.507,9.6,9.6,0,0,0,1.239.385v7.825a21.91,21.91,0,0,1-3.027-.582,17.028,17.028,0,0,1-2.559-.908,19.117,19.117,0,0,1-3.483-2.023A17.344,17.344,0,0,1,172.961,265a19.3,19.3,0,0,1-2.23-3.133,22.369,22.369,0,0,1-1.709-3.771,23.843,23.843,0,0,1-1.01-4.026,28.549,28.549,0,0,1-.36-4.523,29.925,29.925,0,0,1,.362-4.641,24.378,24.378,0,0,1,1.008-4.083A23,23,0,0,1,170.731,237a19.819,19.819,0,0,1,2.23-3.191,17.491,17.491,0,0,1,2.829-2.643,19.054,19.054,0,0,1,3.479-2.057,17.739,17.739,0,0,1,3.839-1.245,23.114,23.114,0,0,1,4.582-.459,23.42,23.42,0,0,1,4.634.463,17.4,17.4,0,0,1,3.814,1.241,19.011,19.011,0,0,1,3.453,2.054,17.663,17.663,0,0,1,2.826,2.646,19.733,19.733,0,0,1,2.229,3.189,23.066,23.066,0,0,1,1.711,3.833,24.523,24.523,0,0,1,1.008,4.085,29.909,29.909,0,0,1,.362,4.639A28.642,28.642,0,0,1,207.367,254.071Zm40.891,16.278H239.3L222.34,242.265h-.113v28.084h-8.393V228.4h8.906l17.012,28.143h.114V228.4h8.392Zm34.137,0-3.082-9.342H269.99l2.389-6.874h4.593l-5.138-15.393h-.114l-3.26,9.452-.017-.006-7.7,22.163h-8.888l15.413-41.95h9.191l15.242,41.95ZM292.7,172.974q-.69,1.144-1.449,2.244-.826,1.2-1.741,2.329t-1.91,2.191q-.927.986-1.931,1.9t-2.078,1.734A54.873,54.873,0,0,1,276.5,188q-1.24.679-2.513,1.294t-2.554,1.152q-1.291.543-2.61,1.018t-2.66.882q-1.341.407-2.7.743-1.275.315-2.562.572t-2.587.458q-1.3.2-2.6.34t-2.616.223q-1.5.094-3,.129t-3,.011q-1.5-.024-3-.107t-2.993-.225a52.263,52.263,0,0,1-12.9-2.905,50.051,50.051,0,0,1-21.122-14.7,51.4,51.4,0,0,1-7.155-11.068,64.2,64.2,0,0,1-3.7-9.72q-.787-2.706-1.369-5.465t-.956-5.552q-.208-1.558-.377-3.123t-.3-3.131q-.255-3.137-.351-6.282v-.115q.09-2.733.311-5.457t.57-5.436q.289-2.253.709-4.488t.963-4.442q.126-.549.256-1.1t.267-1.087q.135-.543.277-1.083t.29-1.082l.011-.038.011-.035.011-.034.013-.036q.435-1.2.9-2.379t.97-2.352q.5-1.172,1.036-2.327t1.1-2.293q.465-.933.961-1.851t1.024-1.816q.528-.9,1.087-1.78t1.148-1.74q.681-1,1.409-1.959t1.5-1.889q.772-.928,1.587-1.818t1.671-1.74a44.886,44.886,0,0,1,6.843-5.576q2-1.328,4.117-2.468t4.323-2.084q2.088-.892,4.241-1.617t4.354-1.275q2.271-.569,4.581-.961t4.642-.606q2.273-.207,4.555-.257t4.562.06q2.263.109,4.515.376t4.477.692q.98.186,1.951.408t1.935.478q.963.257,1.917.547t1.895.616q1.012.35,2.011.741t1.978.825q.981.434,1.942.908t1.9.989a42.314,42.314,0,0,1,10.436,8.053,40.866,40.866,0,0,1,7.3,10.709q.407.864.779,1.745t.712,1.773q.339.892.644,1.8t.576,1.821q.313,1.068.6,2.142t.556,2.156q.265,1.082.507,2.168t.457,2.18a1.4,1.4,0,0,1-.3,1.17,1.432,1.432,0,0,1-1.1.518H280.844a1.4,1.4,0,0,1-.844-.282,1.434,1.434,0,0,1-.511-.739c-.068-.231-.137-.463-.207-.693s-.142-.464-.214-.695-.146-.463-.221-.694-.15-.46-.226-.69-.163-.481-.247-.721-.171-.481-.26-.72-.178-.477-.27-.714-.185-.473-.281-.709q-.178-.441-.369-.876t-.389-.865q-.2-.429-.41-.855t-.432-.845c-.125-.238-.253-.473-.384-.707s-.268-.466-.406-.7-.28-.457-.425-.683-.294-.449-.445-.67a23.93,23.93,0,0,0-4.545-4.964,27.852,27.852,0,0,0-6.154-3.839q-.723-.329-1.462-.618t-1.493-.538q-.755-.249-1.52-.457t-1.542-.375q-.873-.187-1.754-.332t-1.769-.249q-.886-.1-1.778-.163t-1.784-.079q-1.727-.034-3.451.083t-3.431.385q-1.626.255-3.224.659t-3.149.952a30.842,30.842,0,0,0-6.456,3.174,30.242,30.242,0,0,0-5.49,4.551q-.579.608-1.126,1.246t-1.061,1.3q-.515.665-.993,1.354t-.923,1.4q-.5.811-.971,1.643t-.9,1.686q-.429.852-.82,1.723t-.742,1.76q-.31.783-.593,1.575t-.538,1.594q-.255.8-.484,1.613t-.428,1.627q-.228.924-.426,1.856t-.37,1.87q-.171.938-.314,1.879t-.257,1.888q-.21,1.745-.334,3.5t-.157,3.511q-.072,3.662.209,7.315.137,1.773.376,3.536t.583,3.507q.319,1.628.741,3.233t.942,3.18q.284.861.6,1.71t.666,1.686q.349.837.73,1.659t.792,1.63a36.4,36.4,0,0,0,8.639,11.021,29.678,29.678,0,0,0,11.108,6.039q1.653.48,3.347.8t3.408.463q1.881.16,3.77.153t3.769-.186a32.046,32.046,0,0,0,3.4-.51,31.642,31.642,0,0,0,3.329-.875,28.007,28.007,0,0,0,5.874-2.671q.717-.432,1.4-.909t1.343-1q.656-.522,1.276-1.084t1.2-1.164a25.754,25.754,0,0,0,3.777-4.994,33.135,33.135,0,0,0,2.887-6.491q.2-.633.386-1.271c.122-.425.238-.853.346-1.281s.21-.86.305-1.292.183-.866.264-1.3q.156-.838.3-1.68t.268-1.682q.128-.843.239-1.688t.209-1.693a1.423,1.423,0,0,1,.464-.9,1.4,1.4,0,0,1,.935-.359h18.2a1.421,1.421,0,0,1,1.405,1.647q-.1.612-.2,1.223t-.21,1.23q-.107.615-.217,1.231t-.223,1.227q-.1.563-.212,1.122t-.224,1.127c-.077.375-.156.751-.236,1.125s-.162.745-.246,1.116q-.169.755-.351,1.505t-.375,1.5q-.194.747-.4,1.492t-.424,1.483q-.177.6-.368,1.207t-.394,1.2q-.2.6-.418,1.2c-.143.4-.29.792-.441,1.185q-.526,1.374-1.131,2.717t-1.283,2.651Q293.39,171.829,292.7,172.974Zm31.367,97.375h-28.83V228.4H304.2v34.194h19.867Z"/>
      </g>
    </g>
</svg>
