<svg xmlns="http://www.w3.org/2000/svg" width="120mm" height="120mm" viewBox="0 0 340.157 340.157">
  <g id="Zimmernummer">
      <g id="Z-03-341-R">
        <path fill="#A0552B" stroke="none" d="M337.323,0H2.835A2.835,2.835,0,0,0,0,2.835V337.323a2.834,2.834,0,0,0,2.834,2.834H54.468a2.835,2.835,0,0,0,1.6-5.173q-9.4-6.655-14-19a57.88,57.88,0,0,1-3.179-18.618H60.139q-.273,11.9,5.9,19.8t17.71,7.9q11.534,0,18.709-5.994t7.175-17.256q0-13.623-10.808-18.89-7.629-3.724-23.25-3.27v-15.8q19.345.636,26.338-10.353,2.453-4.087,2.452-11.262a15.676,15.676,0,0,0-5.631-12.17,18.692,18.692,0,0,0-12.9-5.086q-17.71-.089-22.16,16.893a32.541,32.541,0,0,0-1.09,9.718H41.339q.725-18.983,12.17-31.606t30.97-12.624a47.992,47.992,0,0,1,28.7,8.991q12.441,9.083,12.442,25.793,0,21.344-18.436,27.882v.364a27.2,27.2,0,0,1,17.437,11.08,33.6,33.6,0,0,1,6.267,19.8q-.093,19.709-13.623,30.607A48.879,48.879,0,0,1,113,334.956a2.828,2.828,0,0,0,1.546,5.2h83.164a2.834,2.834,0,0,0,2.835-2.834V235.248h-.454l-39.053,57.308h32.7v16.711H144.689v-20.98l55.854-78.378h20.071v82.647h16.711v16.711H220.614v28.056a2.834,2.834,0,0,0,2.835,2.834h51.737a2.834,2.834,0,0,0,2.835-2.834V248.235H246.052V231.524q22.887,0,33.148-11.534a20.286,20.286,0,0,0,4.723-10.081h17.348V337.323a2.834,2.834,0,0,0,2.834,2.834h33.218a2.834,2.834,0,0,0,2.834-2.834V2.834A2.834,2.834,0,0,0,337.323,0Z"/>
      </g>
    </g>
</svg>
