<svg xmlns="http://www.w3.org/2000/svg" width="120mm" height="120mm" viewBox="0 0 340.157 340.158">
  <g id="Zimmernummer">
      <g id="Z-03-622-M">
        <path fill="#D4AF37" stroke="none" d="M337.323,0H2.834A2.834,2.834,0,0,0,0,2.834V337.323a2.835,2.835,0,0,0,2.835,2.835H40.356a2.835,2.835,0,0,0,1.6-5.168q-1.365-.972-2.617-2.053a38.645,38.645,0,0,1-8.718-10.807,62.3,62.3,0,0,1-5.405-13.487,89.981,89.981,0,0,1-2.769-15.258q-.774-7.99-.773-15.984a144.437,144.437,0,0,1,.954-16.484A97.333,97.333,0,0,1,25.856,244.8a70.948,70.948,0,0,1,6.04-14.622,46.7,46.7,0,0,1,9.309-11.9,40.7,40.7,0,0,1,13.123-7.992,48.639,48.639,0,0,1,17.483-2.907,38.918,38.918,0,0,1,26.338,10.081,37.131,37.131,0,0,1,8.355,11.216,35.79,35.79,0,0,1,3.542,14.214H88.885a24.076,24.076,0,0,0-1.725-6.9,19.239,19.239,0,0,0-3.633-5.722,16.475,16.475,0,0,0-5.4-3.859A16.753,16.753,0,0,0,71.175,225q-16.8,0-22.977,15.893a76.762,76.762,0,0,0-4.269,16.847,129.849,129.849,0,0,0-1.271,18.119q0,6.63.59,12.941t1.589,12.125a56.031,56.031,0,0,0,2.543,9.309,27.241,27.241,0,0,0,4.315,7.721,19.037,19.037,0,0,0,6.629,5.221,21.654,21.654,0,0,0,9.491,1.908,22.693,22.693,0,0,0,10.444-2.271,21.689,21.689,0,0,0,7.357-5.994,25.079,25.079,0,0,0,4.313-8.673,37.152,37.152,0,0,0,1.408-10.218,35.513,35.513,0,0,0-1.453-10.218,24.813,24.813,0,0,0-4.359-8.491,20.988,20.988,0,0,0-7.266-5.766,22.875,22.875,0,0,0-10.172-2.135,22.653,22.653,0,0,0-10.262,2.27,21.742,21.742,0,0,0-7.992,7.175q-.273-4.086-.273-8.083,0-2.814.137-5.5t.317-5.4a29.123,29.123,0,0,1,9.944-5.4,40.237,40.237,0,0,1,12.216-1.771,40.493,40.493,0,0,1,16.939,3.406,37.209,37.209,0,0,1,12.669,9.264,41.005,41.005,0,0,1,7.946,13.759,50.969,50.969,0,0,1,2.771,16.983,50.183,50.183,0,0,1-3.134,18.027,41.817,41.817,0,0,1-8.809,14.168,38.374,38.374,0,0,1-5.593,4.82,2.83,2.83,0,0,0,1.661,5.126H123.3a2.822,2.822,0,0,0,2.822-2.659q1.536-28.178,28.52-46.657,6.356-4.632,13.26-8.991,25.521-16.164,25.975-33.785,0-9.264-3.27-13.805a24.436,24.436,0,0,0-7.538-6.9A21.826,21.826,0,0,0,172.258,225q-6.63,0-10.807,2.543-11.172,6.811-11.807,30.061H128.392q0-22.251,11.807-36.237t33.058-13.987q21.252,0,32.877,13.714,8.991,10.989,8.991,26.247,0,20.073-18.254,35.511A149.676,149.676,0,0,1,178.8,296.2q-9.446,5.994-14.168,9.536-10.809,8.083-13.169,15.439h63.484v16.147a2.834,2.834,0,0,0,2.834,2.835h8.872a2.821,2.821,0,0,0,2.822-2.659q1.537-28.178,28.521-46.657,6.356-4.632,13.259-8.991,25.521-16.164,25.975-33.785,0-9.264-3.269-13.805a24.439,24.439,0,0,0-7.539-6.9A21.822,21.822,0,0,0,275.612,225q-6.63,0-10.808,2.543Q253.634,234.353,253,257.6H231.746q0-22.251,11.806-36.237t33.059-13.987q21.252,0,32.877,13.714,8.991,10.989,8.991,26.247,0,20.073-18.255,35.511A149.665,149.665,0,0,1,282.151,296.2q-9.447,5.994-14.168,9.536-10.809,8.083-13.169,15.439H318.3v16.147a2.835,2.835,0,0,0,2.835,2.835h16.191a2.834,2.834,0,0,0,2.834-2.835V2.834A2.834,2.834,0,0,0,337.323,0Z"/>
      </g>
    </g>
</svg>
