<svg xmlns="http://www.w3.org/2000/svg" width="120mm" height="120mm" viewBox="0 0 340.158 340.157">
  <g id="Zimmernummer">
      <g id="Z-03-329-M">
        <path fill="#D4AF37" stroke="none" d="M337.323,0H2.834A2.834,2.834,0,0,0,0,2.834V337.323a2.834,2.834,0,0,0,2.834,2.834H39.353a2.835,2.835,0,0,0,1.6-5.17q-9.372-6.652-13.964-18.967A57.918,57.918,0,0,1,23.812,297.4H45.064q-.273,11.9,5.9,19.8t17.71,7.9q11.533,0,18.709-5.995t7.175-17.255q0-13.623-10.807-18.891-7.629-3.723-23.25-3.27v-15.8q19.344.635,26.337-10.354,2.453-4.086,2.453-11.262A15.674,15.674,0,0,0,83.663,230.1a18.69,18.69,0,0,0-12.9-5.086q-17.709-.09-22.16,16.892a32.545,32.545,0,0,0-1.09,9.718H26.264q.726-18.981,12.17-31.606T69.4,207.4a47.99,47.99,0,0,1,28.7,8.992q12.443,9.081,12.443,25.793,0,21.342-18.437,27.881v.364a27.205,27.205,0,0,1,17.438,11.08,33.611,33.611,0,0,1,6.266,19.8q-.092,19.707-13.623,30.606a48.744,48.744,0,0,1-4.218,3.044,2.829,2.829,0,0,0,1.548,5.2h22.737a2.821,2.821,0,0,0,2.822-2.658q1.545-28.163,28.519-46.637,6.356-4.632,13.26-8.991,25.519-16.164,25.974-33.785,0-9.264-3.269-13.805a24.447,24.447,0,0,0-7.538-6.9,21.829,21.829,0,0,0-10.808-2.361q-6.63,0-10.808,2.543-11.171,6.811-11.806,30.061H127.351q0-22.251,11.806-36.237T172.216,207.4q21.252,0,32.877,13.714,8.991,10.989,8.991,26.247,0,20.073-18.255,35.511a149.744,149.744,0,0,1-18.073,13.351q-9.447,5.994-14.168,9.536-10.809,8.084-13.169,15.439H213.9v16.127a2.835,2.835,0,0,0,2.835,2.834H239.1a2.831,2.831,0,0,0,1.672-5.115q-1.452-1.083-2.8-2.312a37.068,37.068,0,0,1-8.356-11.216,35.772,35.772,0,0,1-3.542-14.213h21.161a24.069,24.069,0,0,0,1.726,6.9,19.2,19.2,0,0,0,3.633,5.722,16.467,16.467,0,0,0,5.4,3.86,16.751,16.751,0,0,0,6.947,1.407q16.8,0,22.978-15.893a76.728,76.728,0,0,0,4.268-16.848,129.8,129.8,0,0,0,1.272-18.118q0-6.629-.59-12.942t-1.59-12.124a56.1,56.1,0,0,0-2.543-9.31,27.265,27.265,0,0,0-4.314-7.719,19.043,19.043,0,0,0-6.63-5.222,21.65,21.65,0,0,0-9.49-1.908,22.707,22.707,0,0,0-10.445,2.271,21.68,21.68,0,0,0-7.356,5.994A25.092,25.092,0,0,0,246.193,242a37,37,0,0,0-1.408,10.263,35.445,35.445,0,0,0,1.453,10.216,24.754,24.754,0,0,0,4.36,8.493,20.966,20.966,0,0,0,7.265,5.767,22.875,22.875,0,0,0,10.172,2.134A22.644,22.644,0,0,0,278.3,276.6a21.764,21.764,0,0,0,7.992-7.175q.273,4.086.273,8.083,0,2.815-.137,5.494t-.317,5.4a29.128,29.128,0,0,1-9.945,5.4,43.49,43.49,0,0,1-29.154-1.634,37.252,37.252,0,0,1-12.669-9.264,41.015,41.015,0,0,1-7.947-13.76,50.964,50.964,0,0,1-2.77-16.983,50.24,50.24,0,0,1,3.133-18.028,41.843,41.843,0,0,1,8.81-14.168,39.621,39.621,0,0,1,13.668-9.264,45.815,45.815,0,0,1,17.71-3.315,50.8,50.8,0,0,1,17.211,2.634,39.709,39.709,0,0,1,12.624,7.22,38.739,38.739,0,0,1,8.719,10.809,62.462,62.462,0,0,1,5.4,13.486,90.216,90.216,0,0,1,2.77,15.258q.771,7.992.772,15.984a144.841,144.841,0,0,1-.953,16.439,97.534,97.534,0,0,1-3.224,16.166,71.091,71.091,0,0,1-6.04,14.622,46.764,46.764,0,0,1-9.309,11.9,37.906,37.906,0,0,1-3.8,3.061,2.837,2.837,0,0,0,1.586,5.183h44.621a2.834,2.834,0,0,0,2.835-2.834V2.834A2.834,2.834,0,0,0,337.323,0Z"/>
      </g>
    </g>
</svg>
