<svg xmlns="http://www.w3.org/2000/svg" width="120mm" height="120mm" viewBox="0 0 340.157 340.157">
  <g id="Zimmernummer">
      <g id="Z-03-047-R">
        <path fill="#A0552B" stroke="none" d="M337.323,0H2.834A2.834,2.834,0,0,0,0,2.834V337.323a2.834,2.834,0,0,0,2.834,2.834h167.1a2.835,2.835,0,0,0,2.835-2.834V235.309h-.455l-39.052,57.308h32.695v16.711H116.913v-20.98l55.855-78.378h20.071v82.647H209.55v16.711H192.839v28a2.834,2.834,0,0,0,2.835,2.834H237a2.839,2.839,0,0,0,2.821-2.6q3.805-43.281,31.211-84.17a235.512,235.512,0,0,1,18.8-24.43H222.356V209.97H311.45v17.71q-32.514,36.51-43.412,79.377a188.017,188.017,0,0,0-4.931,30.037,2.834,2.834,0,0,0,2.829,3.063h71.387a2.834,2.834,0,0,0,2.834-2.834V2.834A2.834,2.834,0,0,0,337.323,0Z"/>
      </g>
    </g>
</svg>
