<svg xmlns="http://www.w3.org/2000/svg" width="120mm" height="120mm" viewBox="0 0 340.157 340.157">
  <g id="Zimmernummer">
      <g id="Z-03-048">
        <path fill="#000000" stroke="none" d="M337.323,0H2.835A2.835,2.835,0,0,0,0,2.835V337.323a2.834,2.834,0,0,0,2.834,2.834H167.783a2.834,2.834,0,0,0,2.835-2.834V235.309h-.454l-39.053,57.308h32.7v16.711H114.763v-20.98l55.855-78.378h20.071v82.647H207.4v16.711H190.689v28a2.834,2.834,0,0,0,2.835,2.834H234.8a2.829,2.829,0,0,0,1.561-5.192,39.889,39.889,0,0,1-3.444-2.524,36.425,36.425,0,0,1-9.9-12.8,41.059,41.059,0,0,1-3.633-17.756,36.574,36.574,0,0,1,1.681-11.352,31.191,31.191,0,0,1,4.768-9.264,29.018,29.018,0,0,1,7.538-6.948,32.941,32.941,0,0,1,9.9-4.223v-.363a26.969,26.969,0,0,1-18.436-26.792,38.868,38.868,0,0,1,2.724-15.122,29.356,29.356,0,0,1,7.675-10.853A34.832,34.832,0,0,1,247,210.243a52.684,52.684,0,0,1,14.985-2.725v16.8a20.709,20.709,0,0,0-12.487,6.312q-4.588,5.04-4.587,13.305,0,8.173,4.5,13.123t12.578,5.949v16.166a26.893,26.893,0,0,0-8.764,2.271,21.31,21.31,0,0,0-6.72,4.768,21.087,21.087,0,0,0-4.315,6.993,27.353,27.353,0,0,0,.319,18.982,21.837,21.837,0,0,0,5.131,7.492,22.121,22.121,0,0,0,7.81,4.723,30.787,30.787,0,0,0,19.8,0,22.619,22.619,0,0,0,7.856-4.723,21.481,21.481,0,0,0,5.177-7.538,27.865,27.865,0,0,0,.363-19.026,19.7,19.7,0,0,0-4.314-6.949,22.438,22.438,0,0,0-6.721-4.722,26.574,26.574,0,0,0-8.809-2.271V263.009q8.082-1,12.533-5.857t4.45-13.033q0-8.263-4.5-13.442T268.8,224.32v-16.8a51.249,51.249,0,0,1,15.848,2.952,33.4,33.4,0,0,1,11.67,7.129,29.78,29.78,0,0,1,7.175,10.9,39.888,39.888,0,0,1,2.452,14.44,28.809,28.809,0,0,1-4.677,16.483A27.458,27.458,0,0,1,287.5,269.73v.363a33.188,33.188,0,0,1,9.763,4.178,30.117,30.117,0,0,1,12.4,15.621,31.554,31.554,0,0,1,1.725,10.535,45.238,45.238,0,0,1-3.451,18.255A36.971,36.971,0,0,1,294.445,335a2.83,2.83,0,0,0,1.622,5.156h41.256a2.834,2.834,0,0,0,2.834-2.834V2.834A2.834,2.834,0,0,0,337.323,0Z"/>
      </g>
    </g>
</svg>
