<svg xmlns="http://www.w3.org/2000/svg" width="120mm" height="120mm" viewBox="0 0 340.157 340.157">
  <g id="Zimmernummer">
      <g id="Z-03-113-M">
        <path fill="#D4AF37" stroke="none" d="M337.323,0H2.835A2.835,2.835,0,0,0,0,2.835V337.323a2.834,2.834,0,0,0,2.835,2.834h68.24a2.834,2.834,0,0,0,2.835-2.834V248.556H41.941V231.845q22.887,0,33.15-11.534a20.288,20.288,0,0,0,4.722-10.082H97.16V337.323A2.834,2.834,0,0,0,100,340.157h55.834a2.834,2.834,0,0,0,2.834-2.834V248.556H126.7V231.845q22.887,0,33.149-11.534a20.3,20.3,0,0,0,4.723-10.082h17.346V337.323a2.835,2.835,0,0,0,2.835,2.834h37.7a2.828,2.828,0,0,0,1.657-5.122q-9.141-6.627-13.66-18.727a57.918,57.918,0,0,1-3.179-18.619h21.252q-.271,11.9,5.9,19.8t17.71,7.9q11.532,0,18.709-5.994t7.174-17.256q0-13.623-10.807-18.891-7.629-3.723-23.25-3.27v-15.8q19.344.636,26.338-10.354,2.451-4.086,2.452-11.261a15.674,15.674,0,0,0-5.631-12.17,18.689,18.689,0,0,0-12.9-5.086q-17.71-.09-22.161,16.892a32.544,32.544,0,0,0-1.089,9.718H209.723q.724-18.981,12.169-31.6t30.97-12.624a47.987,47.987,0,0,1,28.7,8.991Q294,225.759,294,242.471q0,21.342-18.437,27.882v.363a27.2,27.2,0,0,1,17.438,11.08,33.6,33.6,0,0,1,6.266,19.8q-.092,19.707-13.623,30.606-1.842,1.483-3.788,2.764a2.828,2.828,0,0,0,1.558,5.192h53.9a2.834,2.834,0,0,0,2.834-2.834V2.834A2.834,2.834,0,0,0,337.323,0Z"/>
      </g>
    </g>
</svg>
