<svg xmlns="http://www.w3.org/2000/svg" width="120mm" height="120mm" viewBox="0 0 340.157 340.158">
  <g id="Zimmernummer">
      <g id="Z-03-422">
        <path fill="#000000" stroke="none" d="M337.323,0H2.835A2.835,2.835,0,0,0,0,2.835V337.323a2.835,2.835,0,0,0,2.835,2.835H73.79a2.835,2.835,0,0,0,2.835-2.835V235.26h-.454L37.118,292.568h32.7v16.711H20.77V288.3l55.855-78.378H96.7v82.647h16.711v16.711H96.7v28.044a2.835,2.835,0,0,0,2.835,2.835h24.674a2.821,2.821,0,0,0,2.822-2.659q1.537-28.178,28.521-46.657,6.356-4.632,13.259-8.991,25.521-16.164,25.975-33.785,0-9.264-3.27-13.805a24.425,24.425,0,0,0-7.538-6.9A21.822,21.822,0,0,0,173.167,225q-6.63,0-10.808,2.543-11.171,6.811-11.807,30.061H129.3q0-22.251,11.806-36.237t33.059-13.987q21.252,0,32.877,13.714,8.991,10.989,8.991,26.247,0,20.073-18.255,35.511A149.665,149.665,0,0,1,179.706,296.2q-9.447,5.994-14.168,9.536-10.809,8.083-13.169,15.439h63.483v16.147a2.835,2.835,0,0,0,2.835,2.835h8.871a2.822,2.822,0,0,0,2.823-2.659q1.536-28.178,28.52-46.657,6.355-4.632,13.26-8.991,25.521-16.164,25.974-33.785,0-9.264-3.269-13.805a24.436,24.436,0,0,0-7.538-6.9A21.826,21.826,0,0,0,276.52,225q-6.63,0-10.807,2.543-11.172,6.811-11.807,30.061H232.654q0-22.251,11.807-36.237t33.058-13.987q21.252,0,32.877,13.714,8.991,10.989,8.991,26.247,0,20.073-18.254,35.511A149.676,149.676,0,0,1,283.059,296.2q-9.447,5.994-14.168,9.536-10.809,8.083-13.169,15.439h63.484v16.147a2.834,2.834,0,0,0,2.834,2.835h15.283a2.834,2.834,0,0,0,2.834-2.835V2.834A2.834,2.834,0,0,0,337.323,0Z"/>
      </g>
    </g>
</svg>
