<svg xmlns="http://www.w3.org/2000/svg" width="120mm" height="120mm" viewBox="0 0 340.157 340.157">
  <g id="Zimmernummer">
      <g id="Z-03-613">
        <path fill="#000000" stroke="none" d="M337.323,0H2.834A2.834,2.834,0,0,0,0,2.834V337.323a2.834,2.834,0,0,0,2.834,2.834h46.14a2.834,2.834,0,0,0,1.6-5.167q-1.365-.972-2.616-2.053a38.666,38.666,0,0,1-8.719-10.807,62.35,62.35,0,0,1-5.4-13.487,90.08,90.08,0,0,1-2.77-15.258q-.773-7.99-.772-15.984a144.208,144.208,0,0,1,.954-16.484A97.333,97.333,0,0,1,34.475,244.8a70.892,70.892,0,0,1,6.04-14.622,46.694,46.694,0,0,1,9.308-11.9,40.718,40.718,0,0,1,13.123-7.992,48.649,48.649,0,0,1,17.484-2.907,38.923,38.923,0,0,1,26.338,10.081,37.131,37.131,0,0,1,8.355,11.216,35.807,35.807,0,0,1,3.542,14.214H97.5a24.045,24.045,0,0,0-1.726-6.9,19.237,19.237,0,0,0-3.632-5.722,16.468,16.468,0,0,0-5.405-3.859A16.748,16.748,0,0,0,79.794,225q-16.8,0-22.978,15.893a76.762,76.762,0,0,0-4.268,16.847,129.7,129.7,0,0,0-1.272,18.119q0,6.63.59,12.941t1.59,12.125A55.934,55.934,0,0,0,56,310.232a27.239,27.239,0,0,0,4.314,7.721,19.055,19.055,0,0,0,6.629,5.221,21.659,21.659,0,0,0,9.492,1.908,22.693,22.693,0,0,0,10.444-2.271,21.676,21.676,0,0,0,7.356-5.994,25.08,25.08,0,0,0,4.314-8.673,37.19,37.19,0,0,0,1.408-10.218A35.513,35.513,0,0,0,98.5,287.708a24.831,24.831,0,0,0-4.359-8.491,21,21,0,0,0-7.266-5.766,22.875,22.875,0,0,0-10.172-2.135,22.66,22.66,0,0,0-10.263,2.27,21.757,21.757,0,0,0-7.992,7.175q-.271-4.086-.272-8.083,0-2.814.136-5.5t.318-5.4a29.114,29.114,0,0,1,9.944-5.4,40.237,40.237,0,0,1,12.216-1.771,40.488,40.488,0,0,1,16.938,3.406,37.2,37.2,0,0,1,12.669,9.264,40.99,40.99,0,0,1,7.947,13.759,50.994,50.994,0,0,1,2.77,16.983,50.183,50.183,0,0,1-3.134,18.027,41.8,41.8,0,0,1-8.808,14.168,38.427,38.427,0,0,1-5.592,4.82,2.83,2.83,0,0,0,1.661,5.125h61.173a2.834,2.834,0,0,0,2.835-2.834V248.248H137.283V231.537q22.887,0,33.15-11.535a20.285,20.285,0,0,0,4.722-10.081H192.5v127.4a2.834,2.834,0,0,0,2.835,2.834h38.089a2.835,2.835,0,0,0,1.6-5.172q-9.389-6.654-13.987-18.985a57.918,57.918,0,0,1-3.179-18.619h21.252q-.271,11.9,5.9,19.8t17.71,7.9q11.532,0,18.709-6t7.174-17.255q0-13.623-10.807-18.891-7.629-3.724-23.25-3.27v-15.8q19.344.634,26.338-10.354,2.451-4.086,2.452-11.262a15.674,15.674,0,0,0-5.631-12.17,18.694,18.694,0,0,0-12.9-5.085q-17.709-.09-22.16,16.892a32.577,32.577,0,0,0-1.09,9.718H220.312q.726-18.981,12.169-31.606t30.97-12.624a47.981,47.981,0,0,1,28.7,8.992q12.442,9.081,12.443,25.793,0,21.342-18.437,27.881v.364a27.2,27.2,0,0,1,17.438,11.08,33.611,33.611,0,0,1,6.266,19.8q-.09,19.707-13.623,30.606a48.838,48.838,0,0,1-4.248,3.064,2.828,2.828,0,0,0,1.546,5.2h43.788a2.834,2.834,0,0,0,2.834-2.834V2.834A2.834,2.834,0,0,0,337.323,0Z"/>
      </g>
    </g>
</svg>
