<svg xmlns="http://www.w3.org/2000/svg" width="120mm" height="120mm" viewBox="0 0 340.158 340.157">
  <g id="Zimmernummer">
      <g id="Z-03-531-E">
        <path fill="#A09f9d" stroke="none" d="M337.323,0H2.835A2.835,2.835,0,0,0,0,2.835V337.323a2.834,2.834,0,0,0,2.834,2.834H52.669a2.831,2.831,0,0,0,1.524-5.215,40.78,40.78,0,0,1-3.316-2.413Q38.162,322.268,37.436,303.1H58.6q.9,10.716,7.265,16.347t16.711,5.631q23.793,0,24.248-28.609,0-18.344-13.713-24.975a24.493,24.493,0,0,0-11.08-2.18q-16.62,0-20.98,11.9H39.8l13.986-71.293h67.3V228.9h-51.5l-6.721,33.151.364.363q8.81-9.9,25.611-9.9a39.509,39.509,0,0,1,15.713,3.269q14.985,6.452,20.707,22.979a50.887,50.887,0,0,1,2.724,16.529q0,18.71-10.535,31.969a42.825,42.825,0,0,1-8.055,7.8,2.839,2.839,0,0,0,1.727,5.1h44.417a2.835,2.835,0,0,0,1.6-5.172q-9.39-6.654-13.988-18.985a57.909,57.909,0,0,1-3.177-18.619h21.252q-.273,11.9,5.9,19.8t17.711,7.9q11.531,0,18.709-5.994t7.174-17.256q0-13.623-10.807-18.891-7.629-3.723-23.25-3.269v-15.8q19.346.636,26.338-10.353,2.452-4.088,2.451-11.262a15.671,15.671,0,0,0-5.631-12.17,18.686,18.686,0,0,0-12.9-5.086q-17.71-.09-22.16,16.893a32.6,32.6,0,0,0-1.09,9.716H142.424q.726-18.981,12.17-31.6t30.97-12.623a47.994,47.994,0,0,1,28.7,8.99q12.442,9.083,12.441,25.793,0,21.344-18.435,27.883v.363a27.2,27.2,0,0,1,17.437,11.08,33.6,33.6,0,0,1,6.266,19.8Q231.882,321,218.35,331.893a49.218,49.218,0,0,1-4.249,3.064,2.828,2.828,0,0,0,1.546,5.2h60.991a2.834,2.834,0,0,0,2.835-2.834V248.248H247.5V231.537q22.887,0,33.148-11.535a20.287,20.287,0,0,0,4.723-10.08h17.348v127.4a2.834,2.834,0,0,0,2.834,2.834h31.766a2.835,2.835,0,0,0,2.835-2.835V2.835A2.835,2.835,0,0,0,337.323,0Z"/>
      </g>
    </g>
</svg>
