<svg xmlns="http://www.w3.org/2000/svg" width="120mm" height="120mm" viewBox="0 0 340.158 340.157">
  <g id="Zimmernummer">
      <g id="Z-03-238-M">
        <path fill="#D4AF37" stroke="none" d="M337.323,0H2.835A2.835,2.835,0,0,0,0,2.835V337.323a2.834,2.834,0,0,0,2.834,2.834h23.42c1.491,0-4.353-1.157-4.265-2.645q1.662-27.975,28.5-46.36,6.355-4.632,13.26-8.991Q89.262,266,89.718,248.376q0-9.264-3.269-13.805a24.447,24.447,0,0,0-7.538-6.9A21.829,21.829,0,0,0,68.1,225.308q-6.631,0-10.808,2.543-11.171,6.811-11.806,30.061H24.237q0-22.251,11.806-36.237T69.1,207.688q21.252,0,32.877,13.714,8.991,10.991,8.991,26.247,0,20.073-18.255,35.511a149.665,149.665,0,0,1-18.073,13.351q-9.447,5.994-14.168,9.536-10.809,8.085-13.169,15.439h63.484v15.837a2.834,2.834,0,0,0,2.834,2.834h22.451a2.828,2.828,0,0,0,1.657-5.122q-9.138-6.627-13.657-18.725a57.891,57.891,0,0,1-3.179-18.619h21.252q-.273,11.9,5.9,19.8t17.71,7.9q11.534,0,18.709-6t7.175-17.255q0-13.623-10.808-18.891-7.629-3.723-23.25-3.27v-15.8q19.345.636,26.338-10.354,2.452-4.086,2.452-11.262a15.673,15.673,0,0,0-5.63-12.169,18.692,18.692,0,0,0-12.9-5.086q-17.71-.09-22.16,16.892a32.545,32.545,0,0,0-1.09,9.718H123.347q.726-18.981,12.17-31.606t30.97-12.624a47.99,47.99,0,0,1,28.7,8.992q12.441,9.081,12.442,25.793,0,21.342-18.436,27.881v.364a27.2,27.2,0,0,1,17.437,11.08,33.6,33.6,0,0,1,6.267,19.8Q212.8,321.3,199.273,332.2q-1.842,1.484-3.786,2.762a2.829,2.829,0,0,0,1.559,5.192H240.2a2.832,2.832,0,0,0,1.546-5.2q-1.577-1.057-3.036-2.252a36.425,36.425,0,0,1-9.9-12.805,41.058,41.058,0,0,1-3.633-17.755,36.576,36.576,0,0,1,1.681-11.353,31.212,31.212,0,0,1,4.767-9.264,29.038,29.038,0,0,1,7.539-6.948,32.955,32.955,0,0,1,9.9-4.223v-.363A26.969,26.969,0,0,1,230.627,243.2a38.868,38.868,0,0,1,2.725-15.122,29.333,29.333,0,0,1,7.675-10.852,34.817,34.817,0,0,1,11.761-6.721,52.719,52.719,0,0,1,14.985-2.725v16.8q-7.9,1.274-12.487,6.313T250.7,244.2q0,8.173,4.5,13.123t12.578,5.95v16.166a26.867,26.867,0,0,0-8.764,2.27,21.285,21.285,0,0,0-6.72,4.769,21.056,21.056,0,0,0-4.315,6.992,27.36,27.36,0,0,0,.318,18.982,21.856,21.856,0,0,0,5.131,7.492,22.134,22.134,0,0,0,7.811,4.723,30.787,30.787,0,0,0,19.8,0,22.619,22.619,0,0,0,7.856-4.723,21.481,21.481,0,0,0,5.177-7.538,27.865,27.865,0,0,0,.363-19.026,19.7,19.7,0,0,0-4.314-6.948,22.423,22.423,0,0,0-6.721-4.723,26.549,26.549,0,0,0-8.81-2.27V263.271q8.084-1,12.534-5.858t4.45-13.033q0-8.263-4.5-13.442t-12.489-6.357v-16.8a51.25,51.25,0,0,1,15.849,2.952,33.4,33.4,0,0,1,11.67,7.129,29.8,29.8,0,0,1,7.175,10.9,39.892,39.892,0,0,1,2.452,14.44,28.82,28.82,0,0,1-4.677,16.484,27.46,27.46,0,0,1-13.76,10.308v.363a33.209,33.209,0,0,1,9.764,4.178,30.117,30.117,0,0,1,12.4,15.621,31.558,31.558,0,0,1,1.725,10.535,45.238,45.238,0,0,1-3.451,18.255,37.455,37.455,0,0,1-9.581,13.306,37.9,37.9,0,0,1-3.544,2.767,2.83,2.83,0,0,0,1.641,5.141h35.079a2.835,2.835,0,0,0,2.835-2.834V2.835A2.835,2.835,0,0,0,337.323,0Z"/>
      </g>
    </g>
</svg>
