<svg xmlns="http://www.w3.org/2000/svg" width="120mm" height="120mm" viewBox="0 0 340.158 340.157">
  <g id="Zimmernummer">
      <g id="Z-03-638-R">
        <path fill="#A0552B" stroke="none" d="M337.323,0H2.835A2.835,2.835,0,0,0,0,2.835V337.323a2.834,2.834,0,0,0,2.834,2.834H39.673a2.834,2.834,0,0,0,1.6-5.167q-1.364-.972-2.614-2.052a38.68,38.68,0,0,1-8.719-10.807,62.409,62.409,0,0,1-5.4-13.488,89.981,89.981,0,0,1-2.769-15.258Q21,285.4,21,277.4a144.188,144.188,0,0,1,.953-16.483A97.314,97.314,0,0,1,25.176,244.8a70.9,70.9,0,0,1,6.039-14.623,46.694,46.694,0,0,1,9.308-11.9,40.722,40.722,0,0,1,13.123-7.992,48.658,48.658,0,0,1,17.485-2.907,38.933,38.933,0,0,1,26.338,10.08,37.152,37.152,0,0,1,8.355,11.217,35.805,35.805,0,0,1,3.541,14.213H88.205a24.086,24.086,0,0,0-1.726-6.9,19.234,19.234,0,0,0-3.633-5.721,16.454,16.454,0,0,0-5.405-3.859A16.729,16.729,0,0,0,70.494,225q-16.8,0-22.976,15.892a76.786,76.786,0,0,0-4.27,16.848,129.839,129.839,0,0,0-1.271,18.119q0,6.63.589,12.941t1.59,12.125a56.031,56.031,0,0,0,2.543,9.309,27.255,27.255,0,0,0,4.315,7.721,19.046,19.046,0,0,0,6.629,5.22,21.656,21.656,0,0,0,9.492,1.909,22.688,22.688,0,0,0,10.443-2.272,21.669,21.669,0,0,0,7.358-5.994,25.063,25.063,0,0,0,4.312-8.672,37.127,37.127,0,0,0,1.408-10.219A35.471,35.471,0,0,0,89.2,287.709a24.836,24.836,0,0,0-4.359-8.492,20.985,20.985,0,0,0-7.266-5.765,22.859,22.859,0,0,0-10.172-2.135,22.661,22.661,0,0,0-10.261,2.269,21.747,21.747,0,0,0-7.993,7.176q-.272-4.086-.273-8.084,0-2.812.137-5.494t.318-5.4a29.134,29.134,0,0,1,9.943-5.4,40.244,40.244,0,0,1,12.217-1.771,40.488,40.488,0,0,1,16.938,3.406,37.223,37.223,0,0,1,12.67,9.264,40.981,40.981,0,0,1,7.945,13.758,50.945,50.945,0,0,1,2.771,16.984,50.2,50.2,0,0,1-3.134,18.027,41.817,41.817,0,0,1-8.809,14.168,38.4,38.4,0,0,1-5.59,4.819,2.829,2.829,0,0,0,1.661,5.125h43.425a2.835,2.835,0,0,0,1.6-5.172q-9.389-6.654-13.987-18.985a57.909,57.909,0,0,1-3.177-18.619h21.252q-.273,11.9,5.9,19.8t17.711,7.9q11.531,0,18.709-6t7.174-17.255q0-13.625-10.807-18.891-7.629-3.725-23.25-3.27v-15.8q19.346.635,26.338-10.354,2.452-4.086,2.451-11.262a15.673,15.673,0,0,0-5.631-12.17A18.689,18.689,0,0,0,170.76,225q-17.71-.092-22.16,16.892a32.607,32.607,0,0,0-1.09,9.717H126.258q.726-18.981,12.17-31.606t30.97-12.623a47.988,47.988,0,0,1,28.7,8.991q12.442,9.081,12.441,25.793,0,21.342-18.435,27.882v.364a27.2,27.2,0,0,1,17.437,11.08,33.6,33.6,0,0,1,6.266,19.8q-.091,19.707-13.623,30.6a48.441,48.441,0,0,1-4.237,3.051,2.843,2.843,0,0,0,1.578,5.213h43.131a2.829,2.829,0,0,0,1.55-5.2,39.713,39.713,0,0,1-3.515-2.566,36.42,36.42,0,0,1-9.9-12.8,41.061,41.061,0,0,1-3.633-17.755,36.583,36.583,0,0,1,1.68-11.354,31.212,31.212,0,0,1,4.767-9.264,29.066,29.066,0,0,1,7.539-6.947,32.955,32.955,0,0,1,9.9-4.223v-.363a26.97,26.97,0,0,1-18.436-26.793,38.862,38.862,0,0,1,2.725-15.121,29.334,29.334,0,0,1,7.674-10.853,34.839,34.839,0,0,1,11.762-6.721,52.712,52.712,0,0,1,14.984-2.725v16.8a20.714,20.714,0,0,0-12.488,6.312q-4.586,5.04-4.586,13.305,0,8.173,4.5,13.123t12.578,5.949v16.166a26.867,26.867,0,0,0-8.764,2.27,21.276,21.276,0,0,0-6.72,4.77,21.046,21.046,0,0,0-4.315,6.992,27.375,27.375,0,0,0,.318,18.982,21.875,21.875,0,0,0,5.131,7.492,22.143,22.143,0,0,0,7.811,4.723,30.787,30.787,0,0,0,19.8,0,22.6,22.6,0,0,0,7.855-4.723,21.47,21.47,0,0,0,5.178-7.539,27.863,27.863,0,0,0,.363-19.025,19.7,19.7,0,0,0-4.314-6.949,22.428,22.428,0,0,0-6.721-4.723,26.549,26.549,0,0,0-8.809-2.27V262.961q8.084-1,12.534-5.857t4.449-13.033q0-8.265-4.5-13.442t-12.487-6.357v-16.8a51.248,51.248,0,0,1,15.848,2.953,33.4,33.4,0,0,1,11.67,7.129,29.774,29.774,0,0,1,7.176,10.9,39.883,39.883,0,0,1,2.451,14.439,28.808,28.808,0,0,1-4.678,16.485,27.456,27.456,0,0,1-13.758,10.308v.363a33.148,33.148,0,0,1,9.762,4.178,30.121,30.121,0,0,1,12.4,15.621,31.579,31.579,0,0,1,1.724,10.535,45.233,45.233,0,0,1-3.451,18.254,36.96,36.96,0,0,1-13.525,16.34,2.831,2.831,0,0,0,1.575,5.184h33.564a2.834,2.834,0,0,0,2.835-2.834V2.834A2.834,2.834,0,0,0,337.323,0Z"/>
      </g>
    </g>
</svg>
