<svg xmlns="http://www.w3.org/2000/svg" width="120mm" height="120mm" viewBox="0 0 340.158 340.157">
  <g id="Zimmernummer">
      <g id="Z-03-036-M">
        <path fill="#D4AF37" stroke="none" d="M337.323,0H2.835A2.835,2.835,0,0,0,0,2.835V337.323a2.834,2.834,0,0,0,2.835,2.834h129.28a2.828,2.828,0,0,0,1.647-5.129q-9.218-6.635-13.762-18.805a57.918,57.918,0,0,1-3.178-18.619h21.251q-.272,11.9,5.9,19.8t17.71,7.9q11.532,0,18.709-5.994t7.175-17.256q0-13.623-10.808-18.891-7.629-3.723-23.25-3.269v-15.8q19.344.636,26.338-10.354,2.452-4.086,2.452-11.261a15.671,15.671,0,0,0-5.631-12.17,18.689,18.689,0,0,0-12.9-5.086q-17.711-.09-22.161,16.892a32.577,32.577,0,0,0-1.089,9.718H119.274q.726-18.981,12.17-31.6T162.413,207.6a47.993,47.993,0,0,1,28.7,8.991q12.441,9.081,12.442,25.793,0,21.342-18.437,27.882v.363a27.206,27.206,0,0,1,17.438,11.08,33.607,33.607,0,0,1,6.267,19.8q-.092,19.707-13.624,30.606a48.42,48.42,0,0,1-3.935,2.856,2.831,2.831,0,0,0,1.58,5.185h46.244a2.831,2.831,0,0,0,1.7-5.1q-1.242-.9-2.406-1.9a38.7,38.7,0,0,1-8.719-10.806,62.43,62.43,0,0,1-5.4-13.488,90.062,90.062,0,0,1-2.77-15.258q-.772-7.99-.772-15.984a144.406,144.406,0,0,1,.954-16.483A97.435,97.435,0,0,1,224.9,245.02a70.878,70.878,0,0,1,6.04-14.623,46.711,46.711,0,0,1,9.308-11.9,40.713,40.713,0,0,1,13.124-7.992,48.64,48.64,0,0,1,17.483-2.906,38.91,38.91,0,0,1,26.338,10.081,37.114,37.114,0,0,1,8.355,11.215,35.811,35.811,0,0,1,3.542,14.214H287.927a24.045,24.045,0,0,0-1.726-6.9,19.237,19.237,0,0,0-3.632-5.722,16.489,16.489,0,0,0-5.4-3.859,16.756,16.756,0,0,0-6.948-1.408q-16.8,0-22.977,15.893a76.72,76.72,0,0,0-4.269,16.847A129.7,129.7,0,0,0,241.7,276.08q0,6.63.591,12.941t1.589,12.125a55.908,55.908,0,0,0,2.543,9.309,27.2,27.2,0,0,0,4.315,7.721,19.037,19.037,0,0,0,6.629,5.221,21.651,21.651,0,0,0,9.491,1.908,22.693,22.693,0,0,0,10.444-2.271,21.676,21.676,0,0,0,7.356-5.994,25.091,25.091,0,0,0,4.315-8.673,37.228,37.228,0,0,0,1.407-10.218,35.5,35.5,0,0,0-1.453-10.217,24.826,24.826,0,0,0-4.359-8.492,21.008,21.008,0,0,0-7.266-5.766,22.875,22.875,0,0,0-10.172-2.135,22.647,22.647,0,0,0-10.263,2.271,21.745,21.745,0,0,0-7.992,7.174q-.271-4.086-.272-8.083,0-2.814.137-5.5t.317-5.4A29.1,29.1,0,0,1,259,256.6a43.473,43.473,0,0,1,29.154,1.634,37.2,37.2,0,0,1,12.668,9.264,41.009,41.009,0,0,1,7.948,13.759,51.024,51.024,0,0,1,2.769,16.983,50.214,50.214,0,0,1-3.133,18.028,41.837,41.837,0,0,1-8.809,14.168,38.208,38.208,0,0,1-5.3,4.605,2.829,2.829,0,0,0,1.672,5.116h41.348a2.835,2.835,0,0,0,2.835-2.834V2.834A2.835,2.835,0,0,0,337.323,0Z"/>
      </g>
    </g>
</svg>
