<svg xmlns="http://www.w3.org/2000/svg" width="120mm" height="120mm" viewBox="0 0 340.157 340.158">
  <g id="Zimmernummer">
      <g id="Z-03-527-M">
        <path fill="#D4AF37" stroke="none" d="M337.323,0H2.835A2.835,2.835,0,0,0,0,2.835V337.323a2.835,2.835,0,0,0,2.835,2.835H37.412a2.831,2.831,0,0,0,1.525-5.215,40.873,40.873,0,0,1-3.317-2.414Q22.9,322.266,22.178,303.1H43.339q.908,10.717,7.265,16.348t16.711,5.631q23.795,0,24.25-28.608,0-18.345-13.715-24.976a24.528,24.528,0,0,0-11.08-2.18q-16.62,0-20.978,11.9H24.54l13.986-71.3h67.3V228.9H54.329l-6.721,33.148.363.364q8.808-9.9,25.612-9.9a39.5,39.5,0,0,1,15.711,3.27q14.985,6.447,20.707,22.976a50.9,50.9,0,0,1,2.724,16.529q0,18.713-10.535,31.969a42.785,42.785,0,0,1-8.053,7.8,2.84,2.84,0,0,0,1.728,5.1h27.659a2.823,2.823,0,0,0,2.823-2.659q1.535-28.178,28.519-46.656,6.357-4.632,13.26-8.992,25.52-16.162,25.974-33.785,0-9.264-3.269-13.805a24.457,24.457,0,0,0-7.537-6.9A21.828,21.828,0,0,0,172.485,225q-6.63,0-10.807,2.543-11.171,6.811-11.806,30.062H128.62q0-22.251,11.807-36.238t33.058-13.987q21.252,0,32.877,13.715,8.991,10.989,8.99,26.246,0,20.075-18.254,35.512a149.59,149.59,0,0,1-18.074,13.35q-9.445,5.994-14.168,9.537-10.807,8.082-13.168,15.439h63.483v16.146a2.834,2.834,0,0,0,2.834,2.835h25.523a2.838,2.838,0,0,0,2.82-2.606q3.8-43.308,31.217-84.219a235.352,235.352,0,0,1,18.8-24.429H228.885V209.921h89.094v17.711q-32.514,36.51-43.412,79.377a188.206,188.206,0,0,0-4.935,30.086,2.835,2.835,0,0,0,2.829,3.063h64.862a2.834,2.834,0,0,0,2.834-2.835V2.835A2.834,2.834,0,0,0,337.323,0Z"/>
      </g>
    </g>
</svg>
