<svg xmlns="http://www.w3.org/2000/svg" width="120mm" height="120mm" viewBox="0 0 340.157 340.157">
  <g id="Zimmernummer">
      <g id="Z-03-248-M">
        <path fill="#D4AF37" stroke="none" d="M337.323,0H2.835A2.835,2.835,0,0,0,0,2.835V337.323a2.834,2.834,0,0,0,2.834,2.834H22.616a2.822,2.822,0,0,0,2.82-2.6c1.447-19.688,10.894-34.741,28.389-46.723q6.355-4.63,13.26-8.991,25.52-16.164,25.974-33.785,0-9.264-3.269-13.805a24.447,24.447,0,0,0-7.538-6.9,21.829,21.829,0,0,0-10.808-2.361q-6.63,0-10.807,2.543-11.172,6.812-11.807,30.061H27.578q0-22.251,11.807-36.237t33.058-13.986q21.252,0,32.877,13.713,8.991,10.99,8.991,26.248,0,20.072-18.254,35.51a149.57,149.57,0,0,1-18.074,13.351q-9.447,5.994-14.168,9.536-10.809,8.085-13.169,15.439H114.13v16.155a2.834,2.834,0,0,0,2.834,2.834h56.815a2.834,2.834,0,0,0,2.834-2.834V235.252h-.454L137.107,292.56H169.8v16.711H120.759V288.292l55.854-78.378h20.072V292.56H213.4v16.711H196.685v28.052a2.834,2.834,0,0,0,2.834,2.834h38.908a2.829,2.829,0,0,0,1.562-5.19,41.566,41.566,0,0,1-3.517-2.583,36.419,36.419,0,0,1-9.9-12.8,41.051,41.051,0,0,1-3.633-17.756,36.581,36.581,0,0,1,1.68-11.353,31.2,31.2,0,0,1,4.768-9.263,29.02,29.02,0,0,1,7.538-6.949,32.945,32.945,0,0,1,9.9-4.222v-.364a26.969,26.969,0,0,1-18.437-26.792,38.849,38.849,0,0,1,2.725-15.122,29.331,29.331,0,0,1,7.674-10.852,34.817,34.817,0,0,1,11.761-6.721,52.754,52.754,0,0,1,14.986-2.725v16.8q-7.9,1.273-12.488,6.313t-4.587,13.3q0,8.175,4.5,13.123t12.579,5.95v16.166a26.873,26.873,0,0,0-8.765,2.27,21.308,21.308,0,0,0-6.72,4.769,21.063,21.063,0,0,0-4.314,6.992,27.36,27.36,0,0,0,.318,18.982,21.842,21.842,0,0,0,5.131,7.493,22.142,22.142,0,0,0,7.81,4.722,30.787,30.787,0,0,0,19.8,0,22.631,22.631,0,0,0,7.856-4.722,21.481,21.481,0,0,0,5.177-7.539,27.85,27.85,0,0,0,.363-19.026,19.7,19.7,0,0,0-4.314-6.948,22.431,22.431,0,0,0-6.72-4.723,26.555,26.555,0,0,0-8.81-2.27V262.953q8.082-1,12.533-5.858t4.45-13.033q0-8.264-4.5-13.441t-12.488-6.358v-16.8a51.248,51.248,0,0,1,15.848,2.953,33.392,33.392,0,0,1,11.671,7.128,29.794,29.794,0,0,1,7.174,10.9,39.892,39.892,0,0,1,2.453,14.44,28.813,28.813,0,0,1-4.678,16.484,27.452,27.452,0,0,1-13.759,10.308v.364a33.186,33.186,0,0,1,9.763,4.177,30.117,30.117,0,0,1,12.4,15.621,31.535,31.535,0,0,1,1.726,10.536,45.254,45.254,0,0,1-3.451,18.254,36.97,36.97,0,0,1-13.538,16.348,2.83,2.83,0,0,0,1.573,5.184h37.8a2.834,2.834,0,0,0,2.834-2.834V2.834A2.834,2.834,0,0,0,337.323,0Z"/>
      </g>
    </g>
</svg>
