<svg xmlns="http://www.w3.org/2000/svg" width="120mm" height="120mm" viewBox="0 0 340.157 340.157">
  <g id="Zimmernummer">
      <g id="Z-03-230">
        <path fill="#000000" stroke="none" d="M337.323,0H2.835A2.835,2.835,0,0,0,0,2.835V337.323a2.834,2.834,0,0,0,2.835,2.834H19.819a2.822,2.822,0,0,0,2.822-2.645q1.662-27.975,28.5-46.36,6.355-4.632,13.259-8.991Q89.916,266,90.37,248.376q0-9.264-3.27-13.805a24.436,24.436,0,0,0-7.538-6.9,21.822,21.822,0,0,0-10.807-2.361q-6.63,0-10.808,2.543-11.171,6.811-11.807,30.061H24.888q0-22.251,11.807-36.237t33.059-13.987q21.252,0,32.877,13.714,8.991,10.991,8.991,26.247,0,20.073-18.255,35.511a149.665,149.665,0,0,1-18.073,13.351q-9.447,5.994-14.168,9.536-10.809,8.085-13.169,15.439H111.44v15.837a2.834,2.834,0,0,0,2.835,2.834h22.451a2.828,2.828,0,0,0,1.657-5.122q-9.138-6.627-13.658-18.725a57.918,57.918,0,0,1-3.178-18.619H142.8q-.273,11.9,5.9,19.8t17.71,7.9q11.532,0,18.709-6t7.175-17.255q0-13.623-10.808-18.891-7.629-3.723-23.25-3.27v-15.8q19.345.636,26.338-10.354,2.453-4.086,2.452-11.262a15.671,15.671,0,0,0-5.631-12.169,18.688,18.688,0,0,0-12.9-5.086q-17.711-.09-22.16,16.892a32.545,32.545,0,0,0-1.09,9.718H124q.726-18.981,12.17-31.606t30.969-12.624a47.993,47.993,0,0,1,28.7,8.992q12.443,9.081,12.442,25.793,0,21.342-18.436,27.881v.364a27.2,27.2,0,0,1,17.437,11.08,33.6,33.6,0,0,1,6.267,19.8q-.091,19.707-13.623,30.606-1.842,1.484-3.786,2.762a2.829,2.829,0,0,0,1.558,5.192h47.51a2.837,2.837,0,0,0,1.694-5.107,33.633,33.633,0,0,1-3.269-2.893,42.844,42.844,0,0,1-8.22-11.761,75.665,75.665,0,0,1-5.131-14.3,105.335,105.335,0,0,1-2.68-15.531q-.771-7.946-.771-15.485,0-6.993.681-14.531a105.937,105.937,0,0,1,2.407-14.85,78.452,78.452,0,0,1,4.677-13.94A44.266,44.266,0,0,1,242.179,220a37.732,37.732,0,0,1,11.08-8.4,38.569,38.569,0,0,1,15.167-3.815v17.8q-20.434,3.36-20.435,49.77,0,3.9.182,9.172a103.951,103.951,0,0,0,.953,10.808,79.6,79.6,0,0,0,2.316,10.944,37.566,37.566,0,0,0,4.178,9.627,22.07,22.07,0,0,0,6.63,6.857,17.086,17.086,0,0,0,9.627,2.634q23.7,0,23.7-50.042,0-46.229-20.344-49.77v-17.8a38.582,38.582,0,0,1,15.167,3.815,36.8,36.8,0,0,1,11.034,8.446,46.674,46.674,0,0,1,7.584,11.807,76.363,76.363,0,0,1,4.723,13.941,106.314,106.314,0,0,1,2.406,14.849q.681,7.539.682,14.531,0,7.629-.773,15.667a100.139,100.139,0,0,1-2.724,15.575,74.984,74.984,0,0,1-5.222,14.214,42.767,42.767,0,0,1-8.31,11.67,35.96,35.96,0,0,1-3.2,2.815,2.828,2.828,0,0,0,1.76,5.048h38.96a2.834,2.834,0,0,0,2.834-2.834V2.834A2.834,2.834,0,0,0,337.323,0Z"/>
      </g>
    </g>
</svg>
