<svg xmlns="http://www.w3.org/2000/svg" width="120.001mm" height="120.001mm" viewBox="0 0 340.16 340.16">
  <g id="Zimmernummer">
      <g id="Z-03-104-R">
        <path fill="#A0552B" stroke="none" d="M337.325,0H2.834A2.834,2.834,0,0,0,0,2.834V337.325a2.834,2.834,0,0,0,2.834,2.835H67.8a2.834,2.834,0,0,0,2.834-2.835V248.43H38.6V231.67a74.307,74.307,0,0,0,13.03-1.12,40.581,40.581,0,0,0,11.46-3.72,29.29,29.29,0,0,0,8.75-6.71,20.519,20.519,0,0,0,4.75-10.05H93.9V337.325a2.834,2.834,0,0,0,2.834,2.835h37.687a1.286,1.286,0,0,0,.68-2.379c-.61-.37-1.2-.76-1.771-1.181a44.118,44.118,0,0,1-13.78-16.391,72.81,72.81,0,0,1-6.7-21.879,151.492,151.492,0,0,1,0-46.18,72.994,72.994,0,0,1,6.7-21.88,44.091,44.091,0,0,1,13.78-16.38q7.56-5.49,18.86-6.27a1.282,1.282,0,0,1,1.37,1.29v15.27a1.279,1.279,0,0,1-1.05,1.279,15.8,15.8,0,0,0-8.01,3.7,27.546,27.546,0,0,0-7.26,10.89,66.028,66.028,0,0,0-3.82,15.92,158.188,158.188,0,0,0-1.12,19.27,160.48,160.48,0,0,0,1.12,19.37,64.663,64.663,0,0,0,3.82,15.92,27.636,27.636,0,0,0,7.26,10.8,18.791,18.791,0,0,0,23.18,0,27.076,27.076,0,0,0,7.36-10.8,64.663,64.663,0,0,0,3.82-15.92,160.545,160.545,0,0,0,1.11-19.37,158.257,158.257,0,0,0-1.11-19.27,66.028,66.028,0,0,0-3.82-15.92,26.991,26.991,0,0,0-7.36-10.89,16.15,16.15,0,0,0-7.873-3.68,1.346,1.346,0,0,1-1.1-1.271v-15.3a1.287,1.287,0,0,1,1.37-1.29q11.3.8,18.87,6.27a44.184,44.184,0,0,1,13.78,16.38,73.281,73.281,0,0,1,6.7,21.88,151.492,151.492,0,0,1,0,46.18,73.1,73.1,0,0,1-6.7,21.879,44.211,44.211,0,0,1-13.78,16.391c-.569.419-1.167.808-1.766,1.177a1.287,1.287,0,0,0,.675,2.383h87.711a2.844,2.844,0,0,0,2.835-2.835V235.26h-.38l-39.1,57.36h34.33v16.75h-50.72V288.33l55.87-78.39h20.11v82.68h16.75v16.75h-16.75v27.955a2.834,2.834,0,0,0,2.834,2.835h45.972a2.835,2.835,0,0,0,2.835-2.835V2.834A2.834,2.834,0,0,0,337.325,0Z"/>
      </g>
    </g>
</svg>
