<svg xmlns="http://www.w3.org/2000/svg" width="120.001mm" height="119.997mm" viewBox="0 0 340.16 340.15">
  <g id="Zimmernummer">
      <g id="Z-03-210-M">
        <path fill="#D4AF37" stroke="none" d="M0,2.835v334.48a2.835,2.835,0,0,0,2.835,2.835H30.429a2.839,2.839,0,0,0,2.833-2.739c.012-.336.024-.623.036-.8a51.757,51.757,0,0,1,7.678-24.626,71.51,71.51,0,0,1,20.86-21.05q6.329-4.65,13.219-9.03a104.384,104.384,0,0,0,12.661-9.4,50.207,50.207,0,0,0,9.5-10.89,25.936,25.936,0,0,0,3.91-13.5,36.955,36.955,0,0,0-.84-7.55,20.017,20.017,0,0,0-3.26-7.44,19.276,19.276,0,0,0-6.7-5.78,22.964,22.964,0,0,0-10.672-2.317,20.812,20.812,0,0,0-11.028,2.507,18.854,18.854,0,0,0-6.7,6.89,34.094,34.094,0,0,0-3.72,10.33,74.226,74.226,0,0,0-1.4,12.85H35.576a66.466,66.466,0,0,1,2.89-20.01,44.187,44.187,0,0,1,8.66-15.92,40.273,40.273,0,0,1,13.919-10.53,47.048,47.048,0,0,1,20.2-3.805c6.521.072,13.219,1.015,19.131,3.905a38.111,38.111,0,0,1,12.94,9.87,36.094,36.094,0,0,1,6.989,12.94c2.6,8.882,2.979,18.714-.379,27.46a45.357,45.357,0,0,1-6.51,11.64,66.6,66.6,0,0,1-9.31,9.78q-5.22,4.47-10.8,8.38t-11.179,7.44q-5.58,3.54-10.33,7.08a60.319,60.319,0,0,0-8.29,7.36,20.8,20.8,0,0,0-4.84,8.1h63.5v16.02A2.834,2.834,0,0,0,125,340.15h41.49a2.835,2.835,0,0,0,2.835-2.835v-88.89h-32.03v-16.76a75.283,75.283,0,0,0,13.03-1.11,40.91,40.91,0,0,0,11.46-3.73,29.261,29.261,0,0,0,8.75-6.7,20.553,20.553,0,0,0,4.75-10.06H192.6v127.25a2.835,2.835,0,0,0,2.835,2.835h46.986a1.28,1.28,0,0,0,.663-2.357c-.615-.382-1.21-.775-1.784-1.2a44.091,44.091,0,0,1-13.78-16.38,73.212,73.212,0,0,1-6.71-21.88,151.492,151.492,0,0,1,0-46.18,73.122,73.122,0,0,1,6.71-21.88,44.122,44.122,0,0,1,13.78-16.39q7.545-5.49,18.86-6.27a1.293,1.293,0,0,1,1.37,1.29v15.27a1.282,1.282,0,0,1-1.05,1.28,15.879,15.879,0,0,0-8.01,3.7,27.554,27.554,0,0,0-7.26,10.89,65.676,65.676,0,0,0-3.82,15.92,156.372,156.372,0,0,0-1.12,19.28,158.294,158.294,0,0,0,1.12,19.36,64.106,64.106,0,0,0,3.82,15.92,27.49,27.49,0,0,0,7.26,10.8,18.754,18.754,0,0,0,23.18,0,27.036,27.036,0,0,0,7.36-10.8,64.122,64.122,0,0,0,3.81-15.92,158.294,158.294,0,0,0,1.12-19.36,156.372,156.372,0,0,0-1.12-19.28,65.689,65.689,0,0,0-3.81-15.92,27.1,27.1,0,0,0-7.36-10.89,16.244,16.244,0,0,0-7.94-3.69,1.269,1.269,0,0,1-1.03-1.26v-15.3a1.293,1.293,0,0,1,1.37-1.29q11.295.8,18.87,6.27a44.216,44.216,0,0,1,13.78,16.39,73.4,73.4,0,0,1,6.7,21.88,151.492,151.492,0,0,1,0,46.18,73.49,73.49,0,0,1-6.7,21.88,44.184,44.184,0,0,1-13.78,16.38c-.58.42-1.17.81-1.78,1.19a1.28,1.28,0,0,0,.658,2.365h51.532a2.835,2.835,0,0,0,2.835-2.835V2.835A2.835,2.835,0,0,0,337.325,0H2.835A2.835,2.835,0,0,0,0,2.835Z"/>
      </g>
    </g>
</svg>
