<svg xmlns="http://www.w3.org/2000/svg" width="120mm" height="120mm" viewBox="0 0 340.157 340.157">
  <g id="Zimmernummer">
      <g id="Z-03-145-E">
        <path fill="#A09f9d" stroke="none" d="M337.323,0H2.835A2.835,2.835,0,0,0,0,2.835V337.323a2.834,2.834,0,0,0,2.834,2.834H63.426a2.834,2.834,0,0,0,2.834-2.834V248.237H34.292V231.526q22.885,0,33.149-11.533a20.3,20.3,0,0,0,4.723-10.082H89.51V337.323a2.834,2.834,0,0,0,2.835,2.834h66.831a2.834,2.834,0,0,0,2.834-2.834V235.251h-.454L122.5,292.558h32.7v16.711H106.156V288.29l55.854-78.379h20.072v82.647h16.71v16.711h-16.71v28.054a2.834,2.834,0,0,0,2.834,2.834h45.651a2.83,2.83,0,0,0,1.524-5.215,40.964,40.964,0,0,1-3.331-2.423q-12.717-10.263-13.442-29.426h21.161q.907,10.716,7.266,16.347t16.711,5.631q23.793,0,24.249-28.607,0-18.346-13.714-24.977a24.55,24.55,0,0,0-11.08-2.179q-16.62,0-20.979,11.9H217.68l13.986-71.3h67.3v18.983H247.469l-6.721,33.148.363.363q8.808-9.9,25.612-9.9a39.525,39.525,0,0,1,15.712,3.269q14.985,6.448,20.707,22.977a50.9,50.9,0,0,1,2.724,16.529q0,18.713-10.535,31.969a42.808,42.808,0,0,1-8.066,7.805,2.84,2.84,0,0,0,1.727,5.1h48.331a2.834,2.834,0,0,0,2.834-2.834V2.834A2.834,2.834,0,0,0,337.323,0Z"/>
      </g>
    </g>
</svg>
