<svg xmlns="http://www.w3.org/2000/svg" width="120mm" height="120mm" viewBox="0 0 340.157 340.158">
  <g id="Zimmernummer">
      <g id="Z-03-247-M">
        <path fill="#D4AF37" stroke="none" d="M337.323,0H2.835A2.835,2.835,0,0,0,0,2.835V337.323a2.835,2.835,0,0,0,2.835,2.835H23.708a2.821,2.821,0,0,0,2.819-2.58c1.6-20.035,11.038-34.892,28.343-46.744q6.355-4.63,13.259-8.991Q93.648,265.679,94.1,248.058q0-9.264-3.27-13.805a24.436,24.436,0,0,0-7.538-6.9,21.822,21.822,0,0,0-10.807-2.361q-6.632,0-10.808,2.543-11.17,6.812-11.807,30.061H28.622q0-22.251,11.807-36.237t33.059-13.986q21.252,0,32.877,13.713,8.991,10.99,8.991,26.248,0,20.072-18.255,35.51a149.638,149.638,0,0,1-18.073,13.351q-9.447,5.994-14.168,9.536-10.809,8.085-13.169,15.439h63.483v16.155a2.835,2.835,0,0,0,2.835,2.835h56.672a2.835,2.835,0,0,0,2.835-2.835V235.252h-.454L138.009,292.56h32.7v16.711H121.662V288.292l55.854-78.378h20.071V292.56H214.3v16.711H197.587v28.052a2.835,2.835,0,0,0,2.835,2.835H239.7a2.837,2.837,0,0,0,2.818-2.584c2.879-30.427,13.186-57.72,30.967-84.248a235.28,235.28,0,0,1,18.8-24.431H224.8V209.914H313.9v17.71Q281.382,264.133,270.484,307a176.705,176.705,0,0,0-4.772,30.085,2.843,2.843,0,0,0,2.827,3.073h68.784a2.834,2.834,0,0,0,2.834-2.835V2.835A2.834,2.834,0,0,0,337.323,0Z"/>
      </g>
    </g>
</svg>
