<svg xmlns="http://www.w3.org/2000/svg" width="120.001mm" height="119.997mm" viewBox="0 0 340.16 340.15">
  <g id="Zimmernummer">
      <g id="Z-03-016-R">
        <path fill="#A0552B" stroke="none" d="M340.16,2.835v334.48a2.835,2.835,0,0,1-2.835,2.835H290.33a1.281,1.281,0,0,1-.57-2.43,40.329,40.329,0,0,0,12.89-10.43c6.66-8.23,9.72-18.72,9.72-29.22a50.957,50.957,0,0,0-4.09-20.57,38.337,38.337,0,0,0-25.61-21.81c-11.36-2.87-25.06-1.53-33.91,6.79a1.319,1.319,0,0,0-.41.83c-.17,1.83-.32,3.66-.48,5.49-.2,4.2-.17,8.42.02,12.63a.515.515,0,0,0,.96.23c4.96-8.08,14.38-11.83,23.76-10.21,18.92,3.27,23.14,29.21,14.04,43.36-4.87,7.56-13.37,11.05-22.17,9.79a22.707,22.707,0,0,1-18.21-16.67,30.508,30.508,0,0,1-.88-3.54,124.966,124.966,0,0,1-2.33-17.46,150.093,150.093,0,0,1-.34-18.49c.69-7.1,1.28-14.09,3.12-21.02,1.52-5.69,3.65-11.45,7.73-15.84a21.119,21.119,0,0,1,14.35-6.75c5.1-.32,10.4.69,14.34,4.14a20.379,20.379,0,0,1,6.46,13.66h21.23a37.609,37.609,0,0,0-1.18-7.83,37.17,37.17,0,0,0-18.22-22.73c-9.41-5.12-20.62-6.15-31.01-3.82-20.59,4.6-32.02,24.75-35.83,44.05a131.366,131.366,0,0,0-1.78,34.8c.74,10.65,2.24,21.51,6.74,31.29,3.95,8.58,10.34,15.86,18.94,19.99l.05.02a.921.921,0,0,1-.4,1.75h-49a2.834,2.834,0,0,1-2.834-2.835V210.07H178.12a20.561,20.561,0,0,1-4.75,10.05,29.454,29.454,0,0,1-8.75,6.71,40.9,40.9,0,0,1-11.46,3.72,75.279,75.279,0,0,1-13.03,1.12v16.76h32.03v88.885a2.835,2.835,0,0,1-2.835,2.835H2.835A2.835,2.835,0,0,1,0,337.315V2.835A2.835,2.835,0,0,1,2.835,0h334.49A2.835,2.835,0,0,1,340.16,2.835Z"/>
      </g>
    </g>
</svg>
