<svg xmlns="http://www.w3.org/2000/svg" width="120mm" height="120mm" viewBox="0 0 340.157 340.158">
  <g id="Zimmernummer">
      <g id="Z-03-432-R">
        <path fill="#A0552B" stroke="none" d="M337.323,0H2.835A2.835,2.835,0,0,0,0,2.835V337.323a2.835,2.835,0,0,0,2.835,2.835H73.79a2.835,2.835,0,0,0,2.835-2.835V235.26h-.454L37.118,292.568h32.7v16.711H20.77V288.3l55.855-78.378H96.7v82.647h16.711v16.711H96.7v28.044a2.835,2.835,0,0,0,2.835,2.835h41.431a2.835,2.835,0,0,0,1.6-5.172q-9.39-6.656-13.988-18.986a57.918,57.918,0,0,1-3.179-18.619h21.252q-.271,11.9,5.9,19.8t17.709,7.9q11.534,0,18.709-6t7.175-17.255q0-13.623-10.807-18.891-7.629-3.724-23.25-3.27v-15.8q19.344.634,26.338-10.354,2.451-4.086,2.452-11.262a15.674,15.674,0,0,0-5.631-12.17,18.694,18.694,0,0,0-12.9-5.085q-17.709-.09-22.16,16.892a32.577,32.577,0,0,0-1.09,9.718H127.847q.728-18.981,12.17-31.606t30.97-12.624a47.984,47.984,0,0,1,28.7,8.992q12.442,9.081,12.443,25.793,0,21.342-18.437,27.881v.364a27.205,27.205,0,0,1,17.438,11.08,33.611,33.611,0,0,1,6.266,19.8q-.09,19.707-13.623,30.606a48.7,48.7,0,0,1-4.249,3.064,2.829,2.829,0,0,0,1.547,5.2h26.487a2.822,2.822,0,0,0,2.823-2.659q1.536-28.178,28.52-46.657,6.355-4.632,13.26-8.991,25.521-16.164,25.974-33.785,0-9.264-3.269-13.805a24.436,24.436,0,0,0-7.538-6.9A21.826,21.826,0,0,0,276.52,225q-6.63,0-10.807,2.543-11.172,6.811-11.807,30.061H232.654q0-22.251,11.807-36.237t33.058-13.987q21.252,0,32.877,13.714,8.991,10.989,8.991,26.247,0,20.073-18.254,35.511A149.676,149.676,0,0,1,283.059,296.2q-9.447,5.994-14.168,9.536-10.809,8.083-13.169,15.439h63.484v16.147a2.834,2.834,0,0,0,2.834,2.835h15.283a2.834,2.834,0,0,0,2.834-2.835V2.834A2.834,2.834,0,0,0,337.323,0Z"/>
      </g>
    </g>
</svg>
