<svg xmlns="http://www.w3.org/2000/svg" width="120.001mm" height="120.001mm" viewBox="0 0 340.16 340.16">
  <g id="Zimmernummer">
      <g id="Z-03-211-E">
        <path fill="#A09f9d" stroke="none" d="M0,2.835v334.49a2.835,2.835,0,0,0,2.835,2.835h39.1a2.834,2.834,0,0,0,2.832-2.715c.038-.9.083-1.8.127-2.293A51.291,51.291,0,0,1,52.456,312a71.507,71.507,0,0,1,20.86-21.049q6.328-4.651,13.219-9.031a104.384,104.384,0,0,0,12.661-9.4,50.207,50.207,0,0,0,9.5-10.89,25.936,25.936,0,0,0,3.91-13.5,37.025,37.025,0,0,0-.84-7.55,20.017,20.017,0,0,0-3.26-7.44,19.276,19.276,0,0,0-6.7-5.78,22.946,22.946,0,0,0-10.672-2.316,20.8,20.8,0,0,0-11.028,2.506,18.854,18.854,0,0,0-6.7,6.89,34.094,34.094,0,0,0-3.72,10.33,74.226,74.226,0,0,0-1.4,12.85H47.056a66.466,66.466,0,0,1,2.89-20.01,44.187,44.187,0,0,1,8.66-15.92,40.258,40.258,0,0,1,13.919-10.529,47.034,47.034,0,0,1,20.2-3.806c6.521.073,13.219,1.016,19.131,3.905a38.111,38.111,0,0,1,12.94,9.87,36.1,36.1,0,0,1,6.989,12.94c2.6,8.883,2.979,18.714-.379,27.46a45.357,45.357,0,0,1-6.51,11.64,66.658,66.658,0,0,1-9.31,9.781q-5.22,4.468-10.8,8.379t-11.179,7.44q-5.58,3.54-10.33,7.08a60.385,60.385,0,0,0-8.29,7.36,20.812,20.812,0,0,0-4.84,8.1h63.5v16.02a2.834,2.834,0,0,0,2.834,2.835h45.776a2.835,2.835,0,0,0,2.835-2.835v-89.02h-32.03v-16.76a75.283,75.283,0,0,0,13.03-1.11,40.91,40.91,0,0,0,11.46-3.73,29.425,29.425,0,0,0,8.75-6.7,20.553,20.553,0,0,0,4.75-10.06h17.31v127.38a2.835,2.835,0,0,0,2.835,2.835h55.971A2.834,2.834,0,0,0,270,337.325v-89.02h-32.03v-16.76a75.283,75.283,0,0,0,13.03-1.11,40.91,40.91,0,0,0,11.46-3.73,29.425,29.425,0,0,0,8.75-6.7,20.553,20.553,0,0,0,4.75-10.06h17.31v127.38a2.835,2.835,0,0,0,2.835,2.835h41.219a2.835,2.835,0,0,0,2.835-2.835V2.835A2.835,2.835,0,0,0,337.325,0H2.835A2.835,2.835,0,0,0,0,2.835Z"/>
      </g>
    </g>
</svg>
