<svg xmlns="http://www.w3.org/2000/svg" width="120mm" height="120mm" viewBox="0 0 340.158 340.157">
  <g id="Zimmernummer">
      <g id="Z-03-243-E">
        <path fill="#A09f9d" stroke="none" d="M337.323,0H2.835A2.835,2.835,0,0,0,0,2.835V337.323a2.834,2.834,0,0,0,2.834,2.834H23.3a2.82,2.82,0,0,0,2.822-2.658q1.539-28.176,28.521-46.655Q61,286.212,67.9,281.853q25.521-16.164,25.975-33.785,0-9.264-3.27-13.805a24.425,24.425,0,0,0-7.538-6.9A21.822,21.822,0,0,0,72.262,225q-6.632,0-10.808,2.542Q50.284,234.354,49.647,257.6H28.4q0-22.251,11.806-36.237T73.261,207.38q21.252,0,32.877,13.714,8.991,10.989,8.991,26.247,0,20.073-18.255,35.511A149.744,149.744,0,0,1,78.8,296.2q-9.447,5.994-14.168,9.536-10.809,8.084-13.169,15.439h63.483v16.145a2.834,2.834,0,0,0,2.835,2.834h58.09a2.835,2.835,0,0,0,2.835-2.834V235.262h-.455L139.2,292.57h32.7v16.711H122.852V288.3l55.855-78.378h20.071V292.57h16.711v16.711H198.778v28.042a2.834,2.834,0,0,0,2.834,2.834h37.709a2.835,2.835,0,0,0,1.6-5.172q-9.387-6.654-13.985-18.984a57.907,57.907,0,0,1-3.179-18.618h21.252q-.271,11.9,5.9,19.8t17.71,7.9q11.532,0,18.709-5.994t7.174-17.256q0-13.623-10.807-18.89-7.629-3.725-23.25-3.27v-15.8q19.344.635,26.338-10.354,2.451-4.087,2.452-11.262a15.677,15.677,0,0,0-5.631-12.17,18.694,18.694,0,0,0-12.9-5.085q-17.709-.09-22.16,16.892a32.577,32.577,0,0,0-1.09,9.718H226.209q.726-18.981,12.17-31.606t30.97-12.624a47.984,47.984,0,0,1,28.7,8.992q12.442,9.081,12.443,25.793,0,21.342-18.437,27.881v.364a27.205,27.205,0,0,1,17.438,11.08,33.611,33.611,0,0,1,6.266,19.8Q315.667,321,302.135,331.9a48.771,48.771,0,0,1-4.245,3.062,2.828,2.828,0,0,0,1.547,5.2h37.886a2.835,2.835,0,0,0,2.835-2.834V2.835A2.835,2.835,0,0,0,337.323,0Z"/>
      </g>
    </g>
</svg>
