<svg xmlns="http://www.w3.org/2000/svg" width="120mm" height="120mm" viewBox="0 0 340.157 340.158">
  <g id="Zimmernummer">
      <g id="Z-03-200-R">
        <path fill="#A0552B" stroke="none" d="M337.322,0H2.834A2.834,2.834,0,0,0,0,2.834V337.323a2.835,2.835,0,0,0,2.835,2.835h20.4a2.826,2.826,0,0,0,2.817-2.569c1.843-20.559,11.265-35.1,28.272-46.747q6.357-4.632,13.26-8.991Q93.1,265.686,93.559,248.065q0-9.263-3.27-13.8a24.44,24.44,0,0,0-7.538-6.9A21.822,21.822,0,0,0,71.944,225q-6.632,0-10.808,2.543Q49.966,234.352,49.329,257.6H28.077q0-22.251,11.807-36.238t33.059-13.986q21.252,0,32.877,13.714,8.991,10.989,8.991,26.247,0,20.073-18.255,35.511A149.736,149.736,0,0,1,78.483,296.2q-9.447,5.994-14.168,9.536-10.809,8.085-13.169,15.44h63.483v16.147a2.835,2.835,0,0,0,2.835,2.835H143.57a2.834,2.834,0,0,0,1.685-5.109,35.073,35.073,0,0,1-3.649-3.2,42.893,42.893,0,0,1-8.219-11.761,75.536,75.536,0,0,1-5.131-14.3,105.158,105.158,0,0,1-2.68-15.531q-.772-7.945-.772-15.484,0-6.995.682-14.532a106.067,106.067,0,0,1,2.406-14.849,78.465,78.465,0,0,1,4.678-13.941,44.242,44.242,0,0,1,7.583-11.76,37.765,37.765,0,0,1,11.08-8.4,38.578,38.578,0,0,1,15.167-3.814v17.8q-20.435,3.36-20.434,49.769,0,3.906.181,9.173a104.257,104.257,0,0,0,.954,10.808,79.635,79.635,0,0,0,2.316,10.944,37.63,37.63,0,0,0,4.177,9.627,22.089,22.089,0,0,0,6.63,6.856,17.089,17.089,0,0,0,9.627,2.634q23.7,0,23.7-50.042,0-46.227-20.343-49.769v-17.8a38.587,38.587,0,0,1,15.167,3.814,36.833,36.833,0,0,1,11.034,8.446A46.692,46.692,0,0,1,207,231.536a76.294,76.294,0,0,1,4.722,13.942,106.178,106.178,0,0,1,2.407,14.848q.681,7.54.681,14.531,0,7.629-.772,15.667a100.388,100.388,0,0,1-2.724,15.576,75.068,75.068,0,0,1-5.222,14.213,42.752,42.752,0,0,1-8.31,11.67,35.685,35.685,0,0,1-3.519,3.056,2.836,2.836,0,0,0,1.675,5.119H243.2a2.834,2.834,0,0,0,1.684-5.109,35.062,35.062,0,0,1-3.648-3.2,42.871,42.871,0,0,1-8.219-11.761,75.607,75.607,0,0,1-5.132-14.3,105.288,105.288,0,0,1-2.679-15.531q-.773-7.945-.772-15.484,0-6.995.681-14.532a106.069,106.069,0,0,1,2.407-14.849,78.543,78.543,0,0,1,4.677-13.941,44.269,44.269,0,0,1,7.584-11.76,37.765,37.765,0,0,1,11.08-8.4,38.573,38.573,0,0,1,15.167-3.814v17.8Q245.6,228.63,245.6,275.039q0,3.906.182,9.173a103.982,103.982,0,0,0,.954,10.808,79.487,79.487,0,0,0,2.316,10.944,37.56,37.56,0,0,0,4.177,9.627,22.089,22.089,0,0,0,6.63,6.856,17.089,17.089,0,0,0,9.627,2.634q23.7,0,23.7-50.042,0-46.227-20.344-49.769v-17.8a38.578,38.578,0,0,1,15.167,3.814,36.825,36.825,0,0,1,11.035,8.446,46.692,46.692,0,0,1,7.584,11.807,76.37,76.37,0,0,1,4.722,13.942,106.178,106.178,0,0,1,2.407,14.848q.681,7.54.681,14.531,0,7.629-.772,15.667a100.388,100.388,0,0,1-2.724,15.576,75,75,0,0,1-5.223,14.213,42.709,42.709,0,0,1-8.31,11.67,35.559,35.559,0,0,1-3.518,3.056,2.836,2.836,0,0,0,1.675,5.119h41.754a2.834,2.834,0,0,0,2.834-2.835V2.835A2.835,2.835,0,0,0,337.322,0Z"/>
      </g>
    </g>
</svg>
