<svg xmlns="http://www.w3.org/2000/svg" width="120mm" height="120mm" viewBox="0 0 340.157 340.157">
  <g id="Zimmernummer">
      <g id="Z-03-543-M">
        <path fill="#D4AF37" stroke="none" d="M337.323,0H2.834A2.834,2.834,0,0,0,0,2.834V337.323a2.834,2.834,0,0,0,2.834,2.834H36.367a2.831,2.831,0,0,0,1.525-5.215,40.862,40.862,0,0,1-3.317-2.413Q21.858,322.266,21.133,303.1H42.294q.908,10.717,7.266,16.348t16.711,5.631q23.793,0,24.249-28.609,0-18.344-13.714-24.975a24.507,24.507,0,0,0-11.08-2.18q-16.62,0-20.979,11.9H23.5l13.986-71.294h67.3V228.9H53.284l-6.721,33.149.363.364q8.808-9.9,25.612-9.9a39.509,39.509,0,0,1,15.712,3.27q14.985,6.448,20.707,22.977a50.891,50.891,0,0,1,2.724,16.529q0,18.711-10.535,31.969a42.8,42.8,0,0,1-8.055,7.8,2.839,2.839,0,0,0,1.728,5.1h80.6a2.834,2.834,0,0,0,2.834-2.834V235.26H177.8l-39.052,57.308h32.695v16.711H122.4V288.3l55.854-78.378h20.072v82.647h16.711v16.711H198.324v28.044a2.834,2.834,0,0,0,2.834,2.834h41.431a2.835,2.835,0,0,0,1.6-5.172Q234.8,328.331,230.2,316a57.918,57.918,0,0,1-3.179-18.619h21.252q-.273,11.9,5.9,19.8t17.71,7.9q11.534,0,18.709-6t7.175-17.255q0-13.623-10.808-18.891-7.629-3.724-23.25-3.27v-15.8q19.345.634,26.338-10.354,2.452-4.086,2.452-11.262a15.676,15.676,0,0,0-5.63-12.17,18.694,18.694,0,0,0-12.9-5.085q-17.71-.09-22.16,16.892a32.545,32.545,0,0,0-1.09,9.718H229.475q.726-18.981,12.17-31.606t30.97-12.624a47.986,47.986,0,0,1,28.7,8.992q12.442,9.081,12.442,25.793,0,21.342-18.436,27.881v.364a27.2,27.2,0,0,1,17.437,11.08,33.6,33.6,0,0,1,6.267,19.8q-.091,19.707-13.623,30.606a48.838,48.838,0,0,1-4.248,3.064,2.828,2.828,0,0,0,1.546,5.2h34.624a2.834,2.834,0,0,0,2.834-2.834V2.834A2.834,2.834,0,0,0,337.323,0Z"/>
      </g>
    </g>
</svg>
