<svg xmlns="http://www.w3.org/2000/svg" width="120mm" height="120mm" viewBox="0 0 340.157 340.158">
  <g id="Zimmernummer">
      <g id="Z-03-447-M">
        <path fill="#D4AF37" stroke="none" d="M337.323,0H2.835A2.835,2.835,0,0,0,0,2.835V337.323a2.835,2.835,0,0,0,2.835,2.835h76.9a2.835,2.835,0,0,0,2.835-2.835V235.261h-.454L43.061,292.568h32.7v16.711H26.713V288.3l55.855-78.379h20.071v82.647H119.35v16.711H102.639v28.044a2.835,2.835,0,0,0,2.835,2.835h77.613a2.834,2.834,0,0,0,2.834-2.835V235.261h-.454l-39.052,57.307h32.7v16.711H130.067V288.3l55.854-78.379h20.072v82.647H222.7v16.711H205.993v28.044a2.834,2.834,0,0,0,2.834,2.835h30.164a2.838,2.838,0,0,0,2.821-2.606q3.8-43.308,31.217-84.219a235.222,235.222,0,0,1,18.8-24.429h-67.48V209.921h89.1v17.711q-32.514,36.51-43.412,79.377A188.092,188.092,0,0,0,265.1,337.1a2.834,2.834,0,0,0,2.829,3.063h69.4a2.834,2.834,0,0,0,2.834-2.835V2.835A2.834,2.834,0,0,0,337.323,0Z"/>
      </g>
    </g>
</svg>
