<svg xmlns="http://www.w3.org/2000/svg" width="120mm" height="120mm" viewBox="0 0 340.157 340.157">
  <g id="Zimmernummer">
      <g id="Z-03-219">
        <path fill="#000000" stroke="none" d="M337.323,0H2.835A2.835,2.835,0,0,0,0,2.835V337.323a2.834,2.834,0,0,0,2.834,2.834H33.066a2.821,2.821,0,0,0,2.821-2.645q1.662-27.977,28.5-46.362,6.356-4.632,13.259-8.991Q103.163,266,103.617,248.374q0-9.264-3.27-13.805a24.436,24.436,0,0,0-7.538-6.9A21.825,21.825,0,0,0,82,225.306q-6.63,0-10.808,2.543Q60.024,234.66,59.387,257.91H38.135q0-22.251,11.807-36.237T83,207.687q21.252,0,32.877,13.713,8.991,10.99,8.991,26.247,0,20.073-18.255,35.511a149.744,149.744,0,0,1-18.073,13.351q-9.447,5.994-14.168,9.536Q63.564,314.13,61.2,321.484h63.483v15.839a2.834,2.834,0,0,0,2.835,2.834h40.584a2.834,2.834,0,0,0,2.834-2.834V248.556H138.971V231.845q22.887,0,33.15-11.534a20.288,20.288,0,0,0,4.722-10.082H194.19V337.323a2.834,2.834,0,0,0,2.835,2.834h35.36a2.83,2.83,0,0,0,1.766-5.05q-1.293-.989-2.5-2.088A37.066,37.066,0,0,1,223.3,321.8a35.739,35.739,0,0,1-3.543-14.213h21.162a23.993,23.993,0,0,0,1.724,6.9,19.219,19.219,0,0,0,3.633,5.722,16.488,16.488,0,0,0,5.4,3.86,16.756,16.756,0,0,0,6.948,1.407q16.8,0,22.978-15.893a76.728,76.728,0,0,0,4.268-16.848,129.956,129.956,0,0,0,1.271-18.118q0-6.628-.59-12.942t-1.589-12.124a56.193,56.193,0,0,0-2.543-9.31,27.3,27.3,0,0,0-4.314-7.719,19.043,19.043,0,0,0-6.63-5.222,21.656,21.656,0,0,0-9.49-1.908,22.71,22.71,0,0,0-10.445,2.271,21.68,21.68,0,0,0-7.356,5.994,25.093,25.093,0,0,0-4.314,8.628,36.96,36.96,0,0,0-1.408,10.263,35.456,35.456,0,0,0,1.453,10.217,24.791,24.791,0,0,0,4.359,8.492,20.969,20.969,0,0,0,7.266,5.767,24.81,24.81,0,0,0,20.435-.136,21.764,21.764,0,0,0,7.992-7.175q.273,4.086.272,8.083,0,2.815-.136,5.494t-.317,5.4a29.138,29.138,0,0,1-9.945,5.405,43.5,43.5,0,0,1-29.154-1.635,37.252,37.252,0,0,1-12.669-9.264,41.015,41.015,0,0,1-7.947-13.76,50.939,50.939,0,0,1-2.77-16.983,50.218,50.218,0,0,1,3.133-18.028,41.858,41.858,0,0,1,8.81-14.168A39.615,39.615,0,0,1,242.914,211a45.8,45.8,0,0,1,17.709-3.314,50.8,50.8,0,0,1,17.211,2.633,39.709,39.709,0,0,1,12.624,7.22,38.718,38.718,0,0,1,8.718,10.809,62.413,62.413,0,0,1,5.4,13.486,90.117,90.117,0,0,1,2.77,15.258q.771,7.992.773,15.984a145.077,145.077,0,0,1-.954,16.439,97.534,97.534,0,0,1-3.224,16.166A71.146,71.146,0,0,1,297.9,320.3a46.706,46.706,0,0,1-9.31,11.9,37.824,37.824,0,0,1-3.489,2.842,2.829,2.829,0,0,0,1.672,5.114h50.545a2.834,2.834,0,0,0,2.834-2.834V2.834A2.834,2.834,0,0,0,337.323,0Z"/>
      </g>
    </g>
</svg>
