<svg xmlns="http://www.w3.org/2000/svg" width="120mm" height="120mm" viewBox="0 0 340.157 340.157">
  <g id="Zimmernummer">
      <g id="Z-03-431-E">
        <path fill="#A09f9d" stroke="none" d="M337.323,0H2.835A2.835,2.835,0,0,0,0,2.835V337.323a2.834,2.834,0,0,0,2.834,2.834H91.271a2.834,2.834,0,0,0,2.835-2.834V235.26h-.454L54.6,292.567h32.7v16.711H38.251V288.3l55.855-78.378h20.071v82.646h16.711v16.711H114.177v28.045a2.834,2.834,0,0,0,2.835,2.834h41.431a2.835,2.835,0,0,0,1.6-5.172q-9.39-6.656-13.988-18.986a57.907,57.907,0,0,1-3.179-18.618h21.252q-.271,11.9,5.9,19.8t17.71,7.9q11.533,0,18.709-5.994t7.175-17.256q0-13.623-10.807-18.891-7.629-3.723-23.25-3.269v-15.8q19.344.636,26.338-10.353,2.451-4.087,2.452-11.262a15.673,15.673,0,0,0-5.631-12.17A18.69,18.69,0,0,0,189.83,225q-17.709-.089-22.16,16.893a32.567,32.567,0,0,0-1.09,9.717H145.328q.727-18.981,12.17-31.6t30.97-12.624a47.989,47.989,0,0,1,28.7,8.991q12.442,9.083,12.443,25.793,0,21.344-18.437,27.882v.363a27.209,27.209,0,0,1,17.438,11.08,33.615,33.615,0,0,1,6.266,19.8q-.09,19.709-13.623,30.607a49.064,49.064,0,0,1-4.249,3.064,2.828,2.828,0,0,0,1.546,5.2h57.271a2.834,2.834,0,0,0,2.834-2.834V248.247H246.688V231.536q22.887,0,33.149-11.534a20.3,20.3,0,0,0,4.723-10.081h17.346v127.4a2.835,2.835,0,0,0,2.835,2.834h32.582a2.834,2.834,0,0,0,2.834-2.834V2.834A2.834,2.834,0,0,0,337.323,0Z"/>
      </g>
    </g>
</svg>
