<svg xmlns="http://www.w3.org/2000/svg" width="120mm" height="120mm" viewBox="0 0 340.157 340.157">
  <g id="Zimmernummer">
      <g id="Z-03-528-R">
        <path fill="#A0552B" stroke="none" d="M337.323,0H2.834A2.834,2.834,0,0,0,0,2.834V337.323a2.834,2.834,0,0,0,2.834,2.834H38.226a2.831,2.831,0,0,0,1.524-5.215q-1.721-1.125-3.316-2.412Q23.72,322.267,22.993,303.1H44.155q.906,10.718,7.266,16.348t16.711,5.631q23.791,0,24.248-28.61,0-18.342-13.713-24.974a24.486,24.486,0,0,0-11.08-2.18q-16.62,0-20.981,11.9H25.354l13.987-71.293h67.3V228.9h-51.5l-6.72,33.15.363.364q8.81-9.9,25.611-9.9a39.51,39.51,0,0,1,15.713,3.27q14.985,6.45,20.707,22.978a50.861,50.861,0,0,1,2.725,16.529q0,18.484-10.283,31.649a2.965,2.965,0,0,1-.58.561l-10.252,7.536a2.834,2.834,0,0,0,1.679,5.118H120.62a2.82,2.82,0,0,0,2.822-2.658q1.536-28.178,28.52-46.657,6.357-4.632,13.259-8.99,25.521-16.165,25.975-33.785,0-9.264-3.269-13.805a24.435,24.435,0,0,0-7.538-6.9A21.824,21.824,0,0,0,169.581,225q-6.63,0-10.807,2.543-11.171,6.811-11.806,30.06H125.716q0-22.251,11.806-36.236t33.059-13.987q21.252,0,32.877,13.713,8.991,10.989,8.99,26.248,0,20.071-18.254,35.51A149.684,149.684,0,0,1,176.12,296.2q-9.445,5.994-14.168,9.535-10.807,8.085-13.168,15.439h63.482v16.147a2.834,2.834,0,0,0,2.835,2.834h26.861a2.834,2.834,0,0,0,1.324-5.341l-4.31-2.275a3.018,3.018,0,0,1-.525-.35,36.481,36.481,0,0,1-9.655-12.6,41.061,41.061,0,0,1-3.633-17.755,36.583,36.583,0,0,1,1.681-11.354,31.215,31.215,0,0,1,4.768-9.264,29.01,29.01,0,0,1,7.537-6.947,32.989,32.989,0,0,1,9.9-4.223v-.363a26.969,26.969,0,0,1-18.438-26.793,38.844,38.844,0,0,1,2.725-15.121,29.348,29.348,0,0,1,7.675-10.853,34.829,34.829,0,0,1,11.76-6.721,52.726,52.726,0,0,1,14.987-2.725v16.8a20.714,20.714,0,0,0-12.489,6.312q-4.587,5.04-4.586,13.305,0,8.173,4.5,13.123t12.579,5.949v16.166A26.854,26.854,0,0,0,259,281.4a21.292,21.292,0,0,0-6.721,4.77,21.059,21.059,0,0,0-4.314,6.992,27.345,27.345,0,0,0,.318,18.982,21.847,21.847,0,0,0,5.131,7.492,22.121,22.121,0,0,0,7.81,4.723,30.787,30.787,0,0,0,19.8,0,22.609,22.609,0,0,0,7.856-4.723,21.51,21.51,0,0,0,5.178-7.539,27.863,27.863,0,0,0,.363-19.025,19.736,19.736,0,0,0-4.315-6.949,22.461,22.461,0,0,0-6.72-4.723,26.561,26.561,0,0,0-8.811-2.27V262.961q8.084-1,12.533-5.857t4.451-13.033q0-8.265-4.5-13.442t-12.488-6.357v-16.8a51.261,51.261,0,0,1,15.85,2.953,33.413,33.413,0,0,1,11.67,7.129,29.78,29.78,0,0,1,7.173,10.9,39.882,39.882,0,0,1,2.454,14.439,28.824,28.824,0,0,1-4.678,16.485,27.462,27.462,0,0,1-13.76,10.308v.363a33.205,33.205,0,0,1,9.764,4.178,30.1,30.1,0,0,1,12.4,15.621,31.5,31.5,0,0,1,1.727,10.535,45.25,45.25,0,0,1-3.451,18.254,37.483,37.483,0,0,1-9.582,13.307,42.435,42.435,0,0,1-3.981,3.067,2.83,2.83,0,0,0,1.629,5.15h35.543a2.834,2.834,0,0,0,2.834-2.834V2.834A2.834,2.834,0,0,0,337.323,0Z"/>
      </g>
    </g>
</svg>
