<svg xmlns="http://www.w3.org/2000/svg" width="120mm" height="120mm" viewBox="0 0 340.157 340.157">
  <g id="Zimmernummer">
      <g id="Z-03-032-E">
        <path fill="#A09f9d" stroke="none" d="M337.323,0H2.834A2.834,2.834,0,0,0,0,2.834V337.323a2.834,2.834,0,0,0,2.834,2.834h130.75a2.828,2.828,0,0,0,1.647-5.129q-9.217-6.635-13.761-18.805a57.891,57.891,0,0,1-3.179-18.619h21.252q-.273,11.9,5.9,19.8t17.71,7.9q11.534,0,18.709-5.994t7.175-17.256q0-13.623-10.808-18.891-7.629-3.723-23.25-3.269v-15.8q19.345.636,26.338-10.354,2.453-4.086,2.452-11.261a15.673,15.673,0,0,0-5.63-12.17,18.692,18.692,0,0,0-12.9-5.086q-17.711-.09-22.16,16.892a32.545,32.545,0,0,0-1.09,9.718H120.743q.726-18.981,12.17-31.6t30.97-12.624a47.989,47.989,0,0,1,28.7,8.991q12.441,9.081,12.442,25.793,0,21.342-18.436,27.882v.363a27.2,27.2,0,0,1,17.437,11.08,33.607,33.607,0,0,1,6.267,19.8q-.093,19.707-13.623,30.606-1.9,1.532-3.914,2.847a2.828,2.828,0,0,0,1.555,5.194h26.163a2.822,2.822,0,0,0,2.822-2.649q1.628-28.032,28.5-46.443,6.355-4.63,13.26-8.991,25.518-16.164,25.974-33.785,0-9.264-3.269-13.8a24.447,24.447,0,0,0-7.538-6.9,21.829,21.829,0,0,0-10.808-2.361q-6.632,0-10.808,2.543-11.171,6.811-11.806,30.061H225.55q0-22.251,11.806-36.237T270.415,207.6q21.252,0,32.877,13.713,8.991,10.99,8.991,26.247,0,20.073-18.255,35.511a149.638,149.638,0,0,1-18.073,13.351q-9.447,5.994-14.168,9.536-10.809,8.085-13.169,15.439H312.1v15.924a2.834,2.834,0,0,0,2.834,2.834h22.387a2.834,2.834,0,0,0,2.834-2.834V2.834A2.834,2.834,0,0,0,337.323,0Z"/>
      </g>
    </g>
</svg>
