<svg xmlns="http://www.w3.org/2000/svg" width="120mm" height="120mm" viewBox="0 0 340.157 340.158">
  <g id="Zimmernummer">
      <g id="Z-03-069">
        <path fill="#000000" stroke="none" d="M337.322,0H2.834A2.834,2.834,0,0,0,0,2.834V337.323a2.835,2.835,0,0,0,2.835,2.835h136.7a2.835,2.835,0,0,0,1.443-5.272,20.385,20.385,0,0,1-2.694-1.95,38.7,38.7,0,0,1-8.719-10.807,62.391,62.391,0,0,1-5.4-13.487,90.08,90.08,0,0,1-2.77-15.258q-.773-7.99-.772-15.985a144.406,144.406,0,0,1,.954-16.483A97.333,97.333,0,0,1,124.8,244.8a70.945,70.945,0,0,1,6.039-14.622,46.742,46.742,0,0,1,9.309-11.9,40.747,40.747,0,0,1,13.124-7.992,48.662,48.662,0,0,1,17.483-2.906,38.923,38.923,0,0,1,26.338,10.081,37.119,37.119,0,0,1,8.355,11.216,35.8,35.8,0,0,1,3.542,14.214H187.829a24.116,24.116,0,0,0-1.725-6.9,19.254,19.254,0,0,0-3.633-5.721,16.492,16.492,0,0,0-5.4-3.86A16.772,16.772,0,0,0,170.119,225q-16.8,0-22.977,15.894a76.712,76.712,0,0,0-4.269,16.846,129.718,129.718,0,0,0-1.271,18.119q0,6.63.59,12.942t1.589,12.125a55.923,55.923,0,0,0,2.543,9.308,27.249,27.249,0,0,0,4.314,7.721,19.046,19.046,0,0,0,6.63,5.222,21.666,21.666,0,0,0,9.491,1.907,22.705,22.705,0,0,0,10.444-2.27,21.68,21.68,0,0,0,7.357-6,25.11,25.11,0,0,0,4.314-8.672,37.19,37.19,0,0,0,1.407-10.218,35.508,35.508,0,0,0-1.453-10.218,24.831,24.831,0,0,0-4.359-8.491,21,21,0,0,0-7.266-5.767,22.875,22.875,0,0,0-10.172-2.135,22.637,22.637,0,0,0-10.262,2.271,21.743,21.743,0,0,0-7.993,7.175q-.272-4.087-.272-8.083,0-2.814.136-5.5t.318-5.4a29.107,29.107,0,0,1,9.945-5.4,43.48,43.48,0,0,1,29.153,1.635,37.2,37.2,0,0,1,12.67,9.263,41.025,41.025,0,0,1,7.946,13.759,50.979,50.979,0,0,1,2.77,16.984,50.209,50.209,0,0,1-3.133,18.027,41.852,41.852,0,0,1-8.809,14.168,38.343,38.343,0,0,1-5.6,4.821,2.83,2.83,0,0,0,1.66,5.126h43.921a2.831,2.831,0,0,0,1.671-5.115q-1.469-1.093-2.83-2.334a37.053,37.053,0,0,1-8.355-11.217,35.751,35.751,0,0,1-3.542-14.213h21.161a24.042,24.042,0,0,0,1.725,6.9,19.214,19.214,0,0,0,3.633,5.721,16.484,16.484,0,0,0,5.4,3.861,16.772,16.772,0,0,0,6.948,1.407q16.8,0,22.977-15.894a76.79,76.79,0,0,0,4.269-16.847,129.977,129.977,0,0,0,1.271-18.118q0-6.629-.59-12.943t-1.589-12.124a56.084,56.084,0,0,0-2.543-9.309,27.289,27.289,0,0,0-4.314-7.719,19.067,19.067,0,0,0-6.63-5.223,21.669,21.669,0,0,0-9.491-1.907,22.715,22.715,0,0,0-10.444,2.27,21.674,21.674,0,0,0-7.357,6,25.114,25.114,0,0,0-4.314,8.627,37,37,0,0,0-1.407,10.263,35.451,35.451,0,0,0,1.453,10.217,24.773,24.773,0,0,0,4.359,8.492,20.972,20.972,0,0,0,7.266,5.768,22.869,22.869,0,0,0,10.172,2.134,22.63,22.63,0,0,0,10.262-2.271,21.758,21.758,0,0,0,7.993-7.175q.272,4.088.272,8.083,0,2.816-.136,5.494t-.318,5.405a29.126,29.126,0,0,1-9.945,5.4,43.5,43.5,0,0,1-29.153-1.635,37.25,37.25,0,0,1-12.67-9.263,41.032,41.032,0,0,1-7.946-13.76,50.949,50.949,0,0,1-2.77-16.984,50.222,50.222,0,0,1,3.133-18.028,41.876,41.876,0,0,1,8.809-14.168,39.625,39.625,0,0,1,13.669-9.264,45.807,45.807,0,0,1,17.71-3.314,50.785,50.785,0,0,1,17.21,2.634,39.726,39.726,0,0,1,12.624,7.219,38.735,38.735,0,0,1,8.719,10.809,62.5,62.5,0,0,1,5.4,13.486,90.315,90.315,0,0,1,2.77,15.258q.771,7.992.772,15.985a144.828,144.828,0,0,1-.954,16.438,97.33,97.33,0,0,1-3.224,16.166,71.144,71.144,0,0,1-6.039,14.622,46.791,46.791,0,0,1-9.309,11.9,38.1,38.1,0,0,1-3.834,3.082,2.837,2.837,0,0,0,1.585,5.184h44.3a2.834,2.834,0,0,0,2.834-2.834V2.835A2.835,2.835,0,0,0,337.322,0Z"/>
      </g>
    </g>
</svg>
