<svg xmlns="http://www.w3.org/2000/svg" width="120mm" height="120mm" viewBox="0 0 340.157 340.157">
  <g id="Zimmernummer">
      <g id="Z-03-335-M">
        <path fill="#D4AF37" stroke="none" d="M337.323,0H2.835A2.835,2.835,0,0,0,0,2.835V337.323a2.834,2.834,0,0,0,2.834,2.834H40.308a2.835,2.835,0,0,0,1.6-5.17q-9.37-6.652-13.964-18.967A57.891,57.891,0,0,1,24.767,297.4H46.019q-.273,11.9,5.9,19.8t17.71,7.9q11.532,0,18.709-5.995t7.175-17.255q0-13.623-10.808-18.891-7.629-3.723-23.25-3.27v-15.8q19.344.635,26.338-10.354,2.452-4.086,2.452-11.262A15.671,15.671,0,0,0,84.617,230.1a18.689,18.689,0,0,0-12.9-5.086q-17.711-.09-22.16,16.892a32.545,32.545,0,0,0-1.09,9.718H27.219q.726-18.981,12.17-31.606T70.358,207.4a47.993,47.993,0,0,1,28.7,8.992q12.441,9.081,12.442,25.793,0,21.342-18.437,27.881v.364a27.2,27.2,0,0,1,17.438,11.08,33.6,33.6,0,0,1,6.267,19.8q-.092,19.707-13.623,30.606a48.9,48.9,0,0,1-4.218,3.044,2.828,2.828,0,0,0,1.547,5.2h39.467a2.835,2.835,0,0,0,1.6-5.17q-9.372-6.652-13.964-18.967A57.918,57.918,0,0,1,124.4,297.4h21.252q-.273,11.9,5.9,19.8t17.71,7.9q11.534,0,18.709-5.995t7.175-17.255q0-13.623-10.808-18.891-7.629-3.723-23.25-3.27v-15.8q19.345.635,26.338-10.354,2.452-4.086,2.452-11.262A15.671,15.671,0,0,0,184.25,230.1a18.688,18.688,0,0,0-12.9-5.086q-17.711-.09-22.16,16.892a32.545,32.545,0,0,0-1.09,9.718H126.852q.726-18.981,12.17-31.606t30.97-12.624a47.992,47.992,0,0,1,28.7,8.992q12.441,9.081,12.442,25.793,0,21.342-18.436,27.881v.364a27.2,27.2,0,0,1,17.437,11.08,33.6,33.6,0,0,1,6.267,19.8q-.091,19.707-13.623,30.606a48.9,48.9,0,0,1-4.218,3.044,2.828,2.828,0,0,0,1.547,5.2h39.947a2.83,2.83,0,0,0,1.525-5.214q-1.706-1.118-3.287-2.394-12.715-10.263-13.441-29.426h21.161q.907,10.717,7.266,16.348t16.711,5.631q23.793,0,24.249-28.609,0-18.344-13.714-24.975a24.51,24.51,0,0,0-11.08-2.18q-16.62,0-20.98,11.9H227.212L241.2,209.941h67.3v18.982H257l-6.72,33.149.363.364q8.808-9.9,25.611-9.9a39.505,39.505,0,0,1,15.712,3.27q14.987,6.448,20.707,22.977a50.865,50.865,0,0,1,2.725,16.529q0,18.711-10.535,31.969a42.792,42.792,0,0,1-8.031,7.779,2.839,2.839,0,0,0,1.729,5.1h38.761a2.834,2.834,0,0,0,2.834-2.834V2.834A2.834,2.834,0,0,0,337.323,0Z"/>
      </g>
    </g>
</svg>
