<svg xmlns="http://www.w3.org/2000/svg" width="120.001mm" height="120.001mm" viewBox="0 0 340.16 340.16">
  <g id="Zimmernummer">
      <g id="Z-03-108-E">
        <path fill="#A09f9d" stroke="none" d="M337.325,0H2.835A2.835,2.835,0,0,0,0,2.835v334.49a2.835,2.835,0,0,0,2.835,2.835H67.091a2.835,2.835,0,0,0,2.835-2.835V248.43H37.9V231.67a74.326,74.326,0,0,0,13.031-1.12,40.591,40.591,0,0,0,11.46-3.72,29.29,29.29,0,0,0,8.75-6.71,20.519,20.519,0,0,0,4.75-10.05H93.2V337.325a2.835,2.835,0,0,0,2.835,2.835h37.686a1.286,1.286,0,0,0,.681-2.379c-.611-.37-1.2-.76-1.772-1.181a44.12,44.12,0,0,1-13.779-16.39,72.827,72.827,0,0,1-6.7-21.88,151.576,151.576,0,0,1,0-46.18,72.988,72.988,0,0,1,6.7-21.879,44.084,44.084,0,0,1,13.779-16.381q7.56-5.49,18.86-6.27a1.282,1.282,0,0,1,1.37,1.29v15.27a1.28,1.28,0,0,1-1.049,1.28,15.788,15.788,0,0,0-8.01,3.7,27.566,27.566,0,0,0-7.261,10.89,66.029,66.029,0,0,0-3.819,15.92,157.987,157.987,0,0,0-1.12,19.27,160.276,160.276,0,0,0,1.12,19.37,64.665,64.665,0,0,0,3.819,15.92,27.649,27.649,0,0,0,7.261,10.8,18.789,18.789,0,0,0,23.179,0,27.077,27.077,0,0,0,7.361-10.8,64.665,64.665,0,0,0,3.819-15.92,160.545,160.545,0,0,0,1.11-19.37,158.257,158.257,0,0,0-1.11-19.27,66.029,66.029,0,0,0-3.819-15.92,27,27,0,0,0-7.361-10.89,16.149,16.149,0,0,0-7.874-3.68,1.346,1.346,0,0,1-1.095-1.27v-15.3a1.287,1.287,0,0,1,1.369-1.29q11.3.8,18.87,6.27a44.17,44.17,0,0,1,13.78,16.381,73.246,73.246,0,0,1,6.7,21.879,151.492,151.492,0,0,1,0,46.18,73.083,73.083,0,0,1-6.7,21.88,44.206,44.206,0,0,1-13.78,16.39c-.568.419-1.167.808-1.765,1.178a1.286,1.286,0,0,0,.675,2.382H234.88a1.161,1.161,0,0,0,.43-2.24s-.85-.42-1.27-.63a40.141,40.141,0,0,1-7.87-5.29,36.942,36.942,0,0,1-9.59-12.94,41.143,41.143,0,0,1-3.44-17.13q0-12.3,6.42-20.67a30.749,30.749,0,0,1,17.41-11.18v-.37a27.789,27.789,0,0,1-13.69-10.33,28.646,28.646,0,0,1-4.74-16.48q0-16.755,10.52-26.16,9.435-8.445,26.14-9.31a1.3,1.3,0,0,1,1.35,1.3v14.36a1.284,1.284,0,0,1-1.13,1.27,20.817,20.817,0,0,0-10.81,4.85q-5.97,5.13-5.96,14.81,0,9.3,5.77,14.24a20.528,20.528,0,0,0,10.99,4.69,1.3,1.3,0,0,1,1.14,1.28v13.71a1.282,1.282,0,0,1-1.16,1.28,25.169,25.169,0,0,0-13.95,5.85q-7.08,6.06-7.08,16.86,0,11.55,7.08,17.87t17.69,6.33q10.62,0,17.69-6.33t7.07-17.87q0-10.8-7.07-16.86a25.169,25.169,0,0,0-13.95-5.85,1.291,1.291,0,0,1-1.17-1.28V264.23a1.3,1.3,0,0,1,1.15-1.28,20.528,20.528,0,0,0,10.99-4.69q5.775-4.935,5.77-14.24,0-9.69-5.96-14.81a20.888,20.888,0,0,0-10.81-4.85,1.293,1.293,0,0,1-1.14-1.27V208.73a1.305,1.305,0,0,1,1.36-1.3q16.695.87,26.14,9.31,10.515,9.4,10.52,26.16a28.578,28.578,0,0,1-4.75,16.48,27.718,27.718,0,0,1-13.68,10.33v.37a30.782,30.782,0,0,1,17.41,11.18q6.42,8.37,6.42,20.67a41.3,41.3,0,0,1-3.44,17.13A37.065,37.065,0,0,1,292.09,332a40.231,40.231,0,0,1-8.41,5.56l-.87.42a1.131,1.131,0,0,0,.42,2.18h54.095a2.835,2.835,0,0,0,2.835-2.835V2.834A2.834,2.834,0,0,0,337.325,0Z"/>
      </g>
    </g>
</svg>
