<svg xmlns="http://www.w3.org/2000/svg" width="120mm" height="120mm" viewBox="0 0 340.158 340.157">
  <g id="Zimmernummer">
      <g id="Z-03-222-M">
        <path fill="#D4AF37" stroke="none" d="M337.323,0H2.835A2.835,2.835,0,0,0,0,2.835V337.322a2.835,2.835,0,0,0,2.835,2.835h18.6a2.821,2.821,0,0,0,2.821-2.645q1.662-27.977,28.5-46.361,6.357-4.632,13.26-8.991Q91.529,266,91.984,248.375q0-9.264-3.27-13.805a24.447,24.447,0,0,0-7.538-6.9,21.829,21.829,0,0,0-10.808-2.361q-6.63,0-10.807,2.543-11.171,6.811-11.807,30.061H26.5q0-22.251,11.807-36.237t33.058-13.986q21.252,0,32.877,13.713,8.993,10.99,8.992,26.247,0,20.073-18.255,35.511A149.823,149.823,0,0,1,76.908,296.51q-9.447,5.994-14.168,9.536-10.809,8.085-13.169,15.439h63.483v15.838a2.834,2.834,0,0,0,2.835,2.834H122a2.822,2.822,0,0,0,2.822-2.645q1.662-27.977,28.495-46.361,6.356-4.632,13.26-8.991Q192.091,266,192.547,248.375q0-9.264-3.269-13.805a24.459,24.459,0,0,0-7.538-6.9,21.832,21.832,0,0,0-10.808-2.361q-6.631,0-10.808,2.543-11.171,6.811-11.806,30.061H127.066q0-22.251,11.806-36.237t33.059-13.986q21.252,0,32.877,13.713,8.991,10.99,8.991,26.247,0,20.073-18.255,35.511a149.744,149.744,0,0,1-18.073,13.351q-9.447,5.994-14.168,9.536-10.809,8.085-13.169,15.439h63.483v15.838a2.835,2.835,0,0,0,2.835,2.834h6.108a2.821,2.821,0,0,0,2.821-2.645q1.662-27.977,28.5-46.361,6.357-4.632,13.26-8.991Q292.655,266,293.111,248.375q0-9.264-3.27-13.805a24.447,24.447,0,0,0-7.538-6.9,21.829,21.829,0,0,0-10.808-2.361q-6.63,0-10.807,2.543-11.17,6.811-11.807,30.061H227.629q0-22.251,11.807-36.237t33.058-13.986q21.252,0,32.877,13.713,8.993,10.99,8.992,26.247,0,20.073-18.255,35.511a149.755,149.755,0,0,1-18.074,13.351q-9.445,5.994-14.167,9.536-10.81,8.085-13.169,15.439h63.483v15.838a2.834,2.834,0,0,0,2.835,2.834h20.307a2.834,2.834,0,0,0,2.835-2.834V2.834A2.834,2.834,0,0,0,337.323,0Z"/>
      </g>
    </g>
</svg>
