<svg xmlns="http://www.w3.org/2000/svg" width="120mm" height="120mm" viewBox="0 0 340.158 340.157">
  <g id="Zimmernummer">
      <g id="Z-03-338-R">
        <path fill="#A0552B" stroke="none" d="M337.323,0H2.834A2.834,2.834,0,0,0,0,2.834V337.323a2.834,2.834,0,0,0,2.834,2.834H40.975a2.835,2.835,0,0,0,1.6-5.17q-9.372-6.654-13.965-18.968A57.918,57.918,0,0,1,25.433,297.4H46.685q-.273,11.9,5.9,19.8t17.71,7.9q11.533,0,18.709-6t7.175-17.255q0-13.623-10.807-18.891-7.629-3.723-23.25-3.27v-15.8q19.344.636,26.337-10.354,2.452-4.086,2.453-11.262A15.674,15.674,0,0,0,85.284,230.1a18.692,18.692,0,0,0-12.9-5.086q-17.709-.09-22.16,16.892a32.545,32.545,0,0,0-1.09,9.718H27.885q.726-18.981,12.17-31.606T71.025,207.4a47.99,47.99,0,0,1,28.7,8.992q12.443,9.081,12.442,25.793,0,21.342-18.436,27.881v.364a27.2,27.2,0,0,1,17.437,11.08,33.6,33.6,0,0,1,6.267,19.8q-.091,19.707-13.623,30.606a48.558,48.558,0,0,1-4.219,3.045,2.828,2.828,0,0,0,1.547,5.2h39.47a2.835,2.835,0,0,0,1.6-5.17q-9.374-6.654-13.965-18.968a57.918,57.918,0,0,1-3.18-18.619h21.252q-.273,11.9,5.9,19.8t17.709,7.9q11.535,0,18.709-6t7.176-17.255q0-13.623-10.809-18.891-7.629-3.723-23.25-3.27v-15.8q19.345.636,26.338-10.354,2.452-4.086,2.453-11.262a15.674,15.674,0,0,0-5.631-12.169,18.689,18.689,0,0,0-12.9-5.086q-17.71-.09-22.16,16.892a32.48,32.48,0,0,0-1.09,9.718H127.519q.725-18.981,12.17-31.606T170.658,207.4a47.99,47.99,0,0,1,28.7,8.992Q211.8,225.47,211.8,242.182q0,21.342-18.437,27.881v.364a27.2,27.2,0,0,1,17.437,11.08,33.606,33.606,0,0,1,6.268,19.8q-.093,19.707-13.623,30.606a48.572,48.572,0,0,1-4.22,3.045,2.829,2.829,0,0,0,1.548,5.2H240.16a2.829,2.829,0,0,0,1.56-5.192,40.156,40.156,0,0,1-3.488-2.554,36.4,36.4,0,0,1-9.9-12.805,41.058,41.058,0,0,1-3.632-17.755A36.577,36.577,0,0,1,226.38,290.5a31.215,31.215,0,0,1,4.768-9.264,29.038,29.038,0,0,1,7.539-6.948,32.96,32.96,0,0,1,9.9-4.223V269.7a26.971,26.971,0,0,1-18.435-26.792,38.849,38.849,0,0,1,2.725-15.122,29.34,29.34,0,0,1,7.673-10.852,34.822,34.822,0,0,1,11.762-6.721,52.712,52.712,0,0,1,14.984-2.725v16.8a20.712,20.712,0,0,0-12.487,6.313q-4.585,5.038-4.587,13.3,0,8.173,4.5,13.123t12.578,5.949v16.167a26.868,26.868,0,0,0-8.763,2.27,21.3,21.3,0,0,0-6.721,4.769,21.053,21.053,0,0,0-4.314,6.992,27.375,27.375,0,0,0,.318,18.982,21.828,21.828,0,0,0,5.131,7.492,22.138,22.138,0,0,0,7.81,4.723,30.787,30.787,0,0,0,19.8,0,22.614,22.614,0,0,0,7.857-4.723,21.466,21.466,0,0,0,5.176-7.538,27.858,27.858,0,0,0,.364-19.026,19.689,19.689,0,0,0-4.315-6.948,22.418,22.418,0,0,0-6.72-4.723,26.556,26.556,0,0,0-8.809-2.27V262.979q8.082-1,12.533-5.857t4.449-13.033q0-8.263-4.5-13.442t-12.487-6.357v-16.8a51.249,51.249,0,0,1,15.848,2.952,33.413,33.413,0,0,1,11.67,7.129,29.776,29.776,0,0,1,7.175,10.9,39.892,39.892,0,0,1,2.451,14.44,28.812,28.812,0,0,1-4.676,16.484A27.462,27.462,0,0,1,292.816,269.7v.363a33.237,33.237,0,0,1,9.763,4.178,30.117,30.117,0,0,1,12.4,15.621A31.558,31.558,0,0,1,316.7,300.4a45.255,45.255,0,0,1-3.451,18.255A37,37,0,0,1,299.714,335a2.831,2.831,0,0,0,1.621,5.157h35.988a2.835,2.835,0,0,0,2.835-2.834V2.835A2.835,2.835,0,0,0,337.323,0Z"/>
      </g>
    </g>
</svg>
