<svg xmlns="http://www.w3.org/2000/svg" width="120mm" height="120mm" viewBox="0 0 340.157 340.157">
  <g id="Zimmernummer">
      <g id="Z-03-525-M">
        <path fill="#D4AF37" stroke="none" d="M337.323,0H2.835A2.835,2.835,0,0,0,0,2.835V337.323a2.834,2.834,0,0,0,2.834,2.834H36.687a2.831,2.831,0,0,0,1.524-5.215,40.824,40.824,0,0,1-3.318-2.414Q22.176,322.267,21.452,303.1h21.16q.909,10.716,7.266,16.347t16.711,5.631q23.795,0,24.25-28.608,0-18.345-13.715-24.976a24.52,24.52,0,0,0-11.08-2.18q-16.62,0-20.979,11.9H23.813L37.8,209.921h67.3V228.9H53.6l-6.72,33.15.363.363q8.807-9.9,25.611-9.9a39.5,39.5,0,0,1,15.711,3.269q14.985,6.45,20.707,22.978A50.865,50.865,0,0,1,112,295.292q0,18.711-10.535,31.969a42.8,42.8,0,0,1-8.055,7.8,2.839,2.839,0,0,0,1.728,5.1H122.8a2.821,2.821,0,0,0,2.822-2.659q1.536-28.176,28.519-46.656,6.358-4.632,13.26-8.991,25.521-16.165,25.975-33.786,0-9.263-3.27-13.8a24.448,24.448,0,0,0-7.537-6.9A21.826,21.826,0,0,0,171.759,225q-6.63,0-10.807,2.543-11.171,6.811-11.807,30.062H127.893q0-22.251,11.807-36.238t33.059-13.986q21.252,0,32.876,13.714,8.993,10.989,8.991,26.247,0,20.073-18.254,35.511A149.747,149.747,0,0,1,178.3,296.2q-9.445,5.994-14.168,9.536-10.807,8.085-13.168,15.44h63.482v16.147a2.834,2.834,0,0,0,2.835,2.834h26.115a2.831,2.831,0,0,0,1.524-5.215,40.824,40.824,0,0,1-3.318-2.414q-12.717-10.262-13.441-29.425h21.16q.909,10.716,7.266,16.347t16.711,5.631q23.795,0,24.25-28.608,0-18.345-13.715-24.976a24.52,24.52,0,0,0-11.08-2.18q-16.62,0-20.979,11.9H230.52l13.987-71.294h67.3V228.9H260.309l-6.72,33.15.363.363q8.806-9.9,25.611-9.9a39.5,39.5,0,0,1,15.711,3.269q14.985,6.45,20.707,22.978a50.865,50.865,0,0,1,2.725,16.529q0,18.711-10.535,31.969a42.8,42.8,0,0,1-8.055,7.8,2.839,2.839,0,0,0,1.728,5.1h35.479a2.834,2.834,0,0,0,2.834-2.834V2.834A2.834,2.834,0,0,0,337.323,0Z"/>
      </g>
    </g>
</svg>
