<svg xmlns="http://www.w3.org/2000/svg" width="120mm" height="120mm" viewBox="0 0 340.157 340.157">
  <g id="Zimmernummer">
      <g id="Z-03-511-E">
        <path fill="#A09f9d" stroke="none" d="M337.323,0H2.834A2.834,2.834,0,0,0,0,2.834V337.323a2.834,2.834,0,0,0,2.834,2.834H65.689a2.831,2.831,0,0,0,1.524-5.215,40.78,40.78,0,0,1-3.316-2.413Q51.18,322.268,50.456,303.1H71.617q.906,10.716,7.265,16.347t16.711,5.631q23.795,0,24.249-28.609,0-18.344-13.714-24.975a24.491,24.491,0,0,0-11.08-2.18q-16.62,0-20.979,11.9H52.817L66.8,209.922h67.3V228.9H82.606l-6.721,33.151.364.363q8.808-9.9,25.611-9.9a39.5,39.5,0,0,1,15.712,3.269q14.985,6.452,20.707,22.979A50.887,50.887,0,0,1,141,295.293q0,18.71-10.535,31.969a42.82,42.82,0,0,1-8.054,7.8,2.839,2.839,0,0,0,1.727,5.1h54.722a2.834,2.834,0,0,0,2.835-2.834V248.248H149.729V231.537q22.887,0,33.149-11.535a20.287,20.287,0,0,0,4.723-10.08h17.347v127.4a2.834,2.834,0,0,0,2.834,2.834h55.835a2.834,2.834,0,0,0,2.835-2.834V248.248H234.483V231.537q22.887,0,33.149-11.535a20.3,20.3,0,0,0,4.723-10.08H289.7v127.4a2.834,2.834,0,0,0,2.834,2.834h44.787a2.834,2.834,0,0,0,2.834-2.834V2.835A2.834,2.834,0,0,0,337.323,0Z"/>
      </g>
    </g>
</svg>
