<svg xmlns="http://www.w3.org/2000/svg" width="120mm" height="120mm" viewBox="0 0 340.157 340.157">
  <g id="Zimmernummer">
      <g id="Z-03-065-E">
        <path fill="#A09f9d" stroke="none" d="M337.323,0H2.834A2.834,2.834,0,0,0,0,2.834V337.323a2.834,2.834,0,0,0,2.834,2.834H134.193a2.834,2.834,0,0,0,1.6-5.167q-1.363-.972-2.613-2.051a38.7,38.7,0,0,1-8.719-10.806,62.44,62.44,0,0,1-5.4-13.487,89.883,89.883,0,0,1-2.77-15.258q-.773-7.99-.772-15.985a144.4,144.4,0,0,1,.953-16.483A97.334,97.334,0,0,1,119.7,244.8a70.945,70.945,0,0,1,6.039-14.622,46.72,46.72,0,0,1,9.309-11.9,40.753,40.753,0,0,1,13.123-7.992,48.664,48.664,0,0,1,17.484-2.906,38.928,38.928,0,0,1,26.338,10.081,37.119,37.119,0,0,1,8.355,11.216,35.836,35.836,0,0,1,3.542,14.214H182.727a24.084,24.084,0,0,0-1.726-6.9,19.232,19.232,0,0,0-3.632-5.721,16.507,16.507,0,0,0-5.405-3.86A16.767,16.767,0,0,0,165.017,225q-16.8,0-22.977,15.894a76.712,76.712,0,0,0-4.269,16.846,129.718,129.718,0,0,0-1.271,18.119q0,6.63.589,12.942t1.59,12.125a55.923,55.923,0,0,0,2.543,9.308,27.249,27.249,0,0,0,4.314,7.721,19.046,19.046,0,0,0,6.63,5.222,21.66,21.66,0,0,0,9.491,1.907,22.7,22.7,0,0,0,10.444-2.271,21.666,21.666,0,0,0,7.357-5.994,25.1,25.1,0,0,0,4.313-8.673,37.183,37.183,0,0,0,1.408-10.217,35.5,35.5,0,0,0-1.453-10.218,24.866,24.866,0,0,0-4.359-8.491,21,21,0,0,0-7.266-5.767,22.875,22.875,0,0,0-10.172-2.135,22.637,22.637,0,0,0-10.262,2.271,21.735,21.735,0,0,0-7.993,7.175q-.272-4.088-.272-8.083,0-2.814.136-5.5t.318-5.4a29.112,29.112,0,0,1,9.944-5.4,43.467,43.467,0,0,1,29.154,1.635,37.2,37.2,0,0,1,12.67,9.263,41.041,41.041,0,0,1,7.946,13.759,50.979,50.979,0,0,1,2.77,16.984,50.23,50.23,0,0,1-3.133,18.027,41.855,41.855,0,0,1-8.81,14.168,38.375,38.375,0,0,1-5.588,4.817,2.83,2.83,0,0,0,1.661,5.125h43.913a2.829,2.829,0,0,0,1.543-5.2,40.468,40.468,0,0,1-3.339-2.423q-12.715-10.263-13.441-29.426h21.161q.908,10.717,7.266,16.348t16.711,5.631q23.793,0,24.249-28.608,0-18.345-13.714-24.976a24.526,24.526,0,0,0-11.08-2.18q-16.62,0-20.98,11.9H221.507l13.987-71.294h67.3v18.981H251.3l-6.72,33.15.363.363q8.808-9.9,25.611-9.9a39.508,39.508,0,0,1,15.712,3.269q14.985,6.45,20.707,22.978a50.861,50.861,0,0,1,2.725,16.529q0,18.711-10.535,31.969a42.86,42.86,0,0,1-8.052,7.794,2.839,2.839,0,0,0,1.727,5.1h44.489a2.834,2.834,0,0,0,2.834-2.834V2.834A2.834,2.834,0,0,0,337.323,0Z"/>
      </g>
    </g>
</svg>
