<svg xmlns="http://www.w3.org/2000/svg" width="120mm" height="120mm" viewBox="0 0 340.157 340.157">
  <g id="Zimmernummer">
      <g id="Z-03-326-R">
        <path fill="#A0552B" stroke="none" d="M337.323,0H2.834A2.834,2.834,0,0,0,0,2.834V337.323a2.834,2.834,0,0,0,2.834,2.834h38.38a2.835,2.835,0,0,0,1.6-5.17q-9.37-6.652-13.963-18.967A57.864,57.864,0,0,1,25.673,297.4H46.925q-.273,11.9,5.9,19.8t17.71,7.9q11.534,0,18.709-5.995t7.175-17.255q0-13.623-10.808-18.891-7.629-3.723-23.25-3.27v-15.8q19.345.635,26.338-10.354,2.453-4.086,2.452-11.262A15.674,15.674,0,0,0,85.523,230.1a18.688,18.688,0,0,0-12.9-5.086q-17.71-.09-22.16,16.892a32.545,32.545,0,0,0-1.09,9.718H28.125q.724-18.981,12.17-31.606T71.265,207.4a47.992,47.992,0,0,1,28.7,8.992q12.441,9.081,12.442,25.793,0,21.342-18.436,27.881v.364a27.2,27.2,0,0,1,17.437,11.08,33.6,33.6,0,0,1,6.267,19.8q-.093,19.707-13.623,30.606a48.9,48.9,0,0,1-4.218,3.044,2.828,2.828,0,0,0,1.547,5.2h22.737a2.82,2.82,0,0,0,2.822-2.658q1.545-28.163,28.519-46.637,6.355-4.632,13.26-8.991,25.52-16.164,25.974-33.785,0-9.264-3.269-13.805a24.436,24.436,0,0,0-7.538-6.9,21.826,21.826,0,0,0-10.808-2.361q-6.63,0-10.807,2.543-11.172,6.811-11.807,30.061H129.211q0-22.251,11.807-36.237T174.076,207.4q21.252,0,32.877,13.714,8.991,10.989,8.991,26.247,0,20.073-18.255,35.511a149.587,149.587,0,0,1-18.073,13.351q-9.447,5.994-14.168,9.536-10.809,8.084-13.169,15.439h63.484v16.127a2.834,2.834,0,0,0,2.834,2.834h25.536a2.835,2.835,0,0,0,1.6-5.167q-1.35-.963-2.589-2.033a38.68,38.68,0,0,1-8.718-10.807,62.352,62.352,0,0,1-5.405-13.487,89.981,89.981,0,0,1-2.769-15.258q-.774-7.99-.773-15.984a144.635,144.635,0,0,1,.954-16.483,97.427,97.427,0,0,1,3.224-16.122,70.948,70.948,0,0,1,6.04-14.622,46.7,46.7,0,0,1,9.309-11.9,40.691,40.691,0,0,1,13.124-7.992,48.634,48.634,0,0,1,17.482-2.907,38.918,38.918,0,0,1,26.338,10.081,37.151,37.151,0,0,1,8.356,11.216,35.823,35.823,0,0,1,3.542,14.214H292.691a24.076,24.076,0,0,0-1.725-6.9,19.219,19.219,0,0,0-3.633-5.722,16.471,16.471,0,0,0-5.4-3.859,16.761,16.761,0,0,0-6.949-1.408q-16.8,0-22.977,15.893a76.762,76.762,0,0,0-4.269,16.847,129.849,129.849,0,0,0-1.271,18.119q0,6.63.591,12.941t1.589,12.125a55.933,55.933,0,0,0,2.542,9.309,27.241,27.241,0,0,0,4.315,7.721,19.031,19.031,0,0,0,6.63,5.221,21.65,21.65,0,0,0,9.49,1.908,22.69,22.69,0,0,0,10.444-2.271,21.689,21.689,0,0,0,7.357-5.994,25.1,25.1,0,0,0,4.314-8.673,37.19,37.19,0,0,0,1.408-10.218,35.5,35.5,0,0,0-1.454-10.217,24.791,24.791,0,0,0-4.359-8.492,20.978,20.978,0,0,0-7.266-5.766,24.8,24.8,0,0,0-20.434.135,21.75,21.75,0,0,0-7.992,7.175q-.273-4.086-.273-8.083,0-2.814.137-5.5t.317-5.4a29.123,29.123,0,0,1,9.946-5.4,43.48,43.48,0,0,1,29.153,1.635,37.2,37.2,0,0,1,12.669,9.264,41.024,41.024,0,0,1,7.947,13.759,50.994,50.994,0,0,1,2.77,16.983,50.2,50.2,0,0,1-3.133,18.027,41.835,41.835,0,0,1-8.81,14.168,38.379,38.379,0,0,1-5.563,4.8,2.83,2.83,0,0,0,1.663,5.124h36.861a2.834,2.834,0,0,0,2.834-2.834V2.834A2.834,2.834,0,0,0,337.323,0Z"/>
      </g>
    </g>
</svg>
