<svg xmlns="http://www.w3.org/2000/svg" width="120mm" height="120mm" viewBox="0 0 340.157 340.157">
  <g id="Zimmernummer">
      <g id="Z-03-445-M">
        <path fill="#D4AF37" stroke="none" d="M337.323,0H2.835A2.835,2.835,0,0,0,0,2.835V337.323a2.834,2.834,0,0,0,2.834,2.834H75.286a2.834,2.834,0,0,0,2.835-2.834V235.261h-.454L38.614,292.567h32.7v16.711H22.267V288.3l55.854-78.379H98.192v82.646H114.9v16.711H98.192v28.045a2.834,2.834,0,0,0,2.835,2.834H178.64a2.835,2.835,0,0,0,2.835-2.834V235.261h-.454l-39.053,57.306h32.7v16.711H125.62V288.3l55.855-78.379h20.071v82.646h16.711v16.711H201.546v28.045a2.834,2.834,0,0,0,2.835,2.834h38.2a2.831,2.831,0,0,0,1.524-5.215,40.983,40.983,0,0,1-3.317-2.414q-12.716-10.262-13.441-29.425H248.5q.906,10.716,7.266,16.347t16.71,5.631q23.794,0,24.249-28.607,0-18.346-13.713-24.977a24.55,24.55,0,0,0-11.08-2.18q-16.621,0-20.98,11.9H229.7l13.986-71.3h67.3V228.9H259.493l-6.721,33.149.364.363q8.808-9.9,25.611-9.9a39.5,39.5,0,0,1,15.712,3.269q14.985,6.448,20.707,22.977a50.9,50.9,0,0,1,2.725,16.529q0,18.713-10.536,31.969a42.759,42.759,0,0,1-8.054,7.8,2.84,2.84,0,0,0,1.728,5.1h36.294a2.834,2.834,0,0,0,2.834-2.834V2.834A2.834,2.834,0,0,0,337.323,0Z"/>
      </g>
    </g>
</svg>
