<svg xmlns="http://www.w3.org/2000/svg" width="120mm" height="120mm" viewBox="0 0 340.157 340.157">
  <g id="Zimmernummer">
      <g id="Z-03-446-R">
        <path fill="#A0552B" stroke="none" d="M337.323,0H2.835A2.835,2.835,0,0,0,0,2.835V337.323a2.834,2.834,0,0,0,2.834,2.834H73.427a2.834,2.834,0,0,0,2.834-2.834V235.26h-.454L36.754,292.568h32.7v16.711H20.407V288.3l55.854-78.377H96.333v82.646h16.71v16.711H96.333v28.044a2.834,2.834,0,0,0,2.834,2.834H176.78a2.834,2.834,0,0,0,2.835-2.834V235.26h-.454l-39.053,57.308H172.8v16.711H123.76V288.3l55.855-78.377h20.071v82.646H216.4v16.711H199.686v28.044a2.834,2.834,0,0,0,2.835,2.834h46.043a2.834,2.834,0,0,0,1.4-5.3l-3.106-1.77a3.012,3.012,0,0,1-.5-.355,38.683,38.683,0,0,1-8.487-10.6,62.4,62.4,0,0,1-5.4-13.488,89.981,89.981,0,0,1-2.769-15.258q-.774-7.989-.773-15.985a144.389,144.389,0,0,1,.954-16.482,97.312,97.312,0,0,1,3.224-16.121,70.956,70.956,0,0,1,6.04-14.623,46.7,46.7,0,0,1,9.309-11.9,40.714,40.714,0,0,1,13.123-7.992,48.662,48.662,0,0,1,17.483-2.906,38.928,38.928,0,0,1,26.338,10.08,37.123,37.123,0,0,1,8.355,11.217,35.8,35.8,0,0,1,3.542,14.213H296.137a24.091,24.091,0,0,0-1.725-6.9,19.229,19.229,0,0,0-3.633-5.72,16.477,16.477,0,0,0-5.4-3.86A16.753,16.753,0,0,0,278.427,225q-16.8,0-22.977,15.893a76.791,76.791,0,0,0-4.269,16.847,129.86,129.86,0,0,0-1.271,18.119q0,6.63.59,12.942t1.589,12.125a55.923,55.923,0,0,0,2.543,9.308,27.241,27.241,0,0,0,4.315,7.721,19.06,19.06,0,0,0,6.629,5.221,21.669,21.669,0,0,0,9.491,1.908,22.705,22.705,0,0,0,10.444-2.271,21.657,21.657,0,0,0,7.357-6,25.078,25.078,0,0,0,4.313-8.671,37.165,37.165,0,0,0,1.408-10.219,35.5,35.5,0,0,0-1.453-10.217,24.836,24.836,0,0,0-4.359-8.492,21,21,0,0,0-7.266-5.766,24.8,24.8,0,0,0-20.434.135,21.746,21.746,0,0,0-7.993,7.176q-.272-4.088-.272-8.084,0-2.812.137-5.494t.317-5.405a29.136,29.136,0,0,1,9.944-5.4,43.47,43.47,0,0,1,29.155,1.635,37.194,37.194,0,0,1,12.669,9.263,41.02,41.02,0,0,1,7.946,13.758,50.981,50.981,0,0,1,2.77,16.985,50.187,50.187,0,0,1-3.133,18.027,41.837,41.837,0,0,1-8.809,14.168,42.968,42.968,0,0,1-5.636,4.822,2.83,2.83,0,0,0,1.665,5.122h33.486a2.834,2.834,0,0,0,2.834-2.834V2.834A2.834,2.834,0,0,0,337.323,0Z"/>
      </g>
    </g>
</svg>
