<svg xmlns="http://www.w3.org/2000/svg" width="120mm" height="120mm" viewBox="0 0 340.157 340.157">
  <g id="Zimmernummer">
      <g id="Z-03-049-R">
        <path fill="#A0552B" stroke="none" d="M337.323,0H2.835A2.835,2.835,0,0,0,0,2.835V337.323a2.834,2.834,0,0,0,2.834,2.834H169.886a2.834,2.834,0,0,0,2.835-2.834V235.309h-.454l-39.053,57.308h32.695v16.711H116.866v-20.98l55.855-78.378h20.071v82.647H209.5v16.711H192.792v28a2.834,2.834,0,0,0,2.835,2.834h41.84a2.831,2.831,0,0,0,1.681-5.108q-1.432-1.077-2.762-2.29a37.041,37.041,0,0,1-8.355-11.217,35.734,35.734,0,0,1-3.542-14.212H245.65a24.044,24.044,0,0,0,1.725,6.9,19.2,19.2,0,0,0,3.633,5.722,16.5,16.5,0,0,0,5.4,3.86,16.772,16.772,0,0,0,6.948,1.407q16.8,0,22.977-15.893a76.8,76.8,0,0,0,4.269-16.848,129.956,129.956,0,0,0,1.271-18.118q0-6.629-.59-12.943T289.7,249.3a56.182,56.182,0,0,0-2.543-9.309,27.289,27.289,0,0,0-4.314-7.719,19.076,19.076,0,0,0-6.63-5.223,21.672,21.672,0,0,0-9.491-1.907,22.7,22.7,0,0,0-10.444,2.271,21.651,21.651,0,0,0-7.357,5.994,25.11,25.11,0,0,0-4.314,8.628,36.99,36.99,0,0,0-1.407,10.262,35.412,35.412,0,0,0,1.453,10.217A24.738,24.738,0,0,0,249.01,271a20.963,20.963,0,0,0,7.266,5.768,22.869,22.869,0,0,0,10.172,2.134,22.63,22.63,0,0,0,10.262-2.271,21.744,21.744,0,0,0,7.992-7.174q.273,4.086.273,8.083,0,2.814-.136,5.494t-.318,5.4a29.11,29.11,0,0,1-9.945,5.4,43.48,43.48,0,0,1-29.153-1.635,37.231,37.231,0,0,1-12.67-9.263,41.031,41.031,0,0,1-7.947-13.76,50.973,50.973,0,0,1-2.77-16.983,50.228,50.228,0,0,1,3.134-18.029,41.876,41.876,0,0,1,8.809-14.168,39.627,39.627,0,0,1,13.669-9.263,45.808,45.808,0,0,1,17.71-3.315,50.789,50.789,0,0,1,17.21,2.634,39.709,39.709,0,0,1,12.624,7.22,38.734,38.734,0,0,1,8.719,10.808,62.544,62.544,0,0,1,5.4,13.487,90.285,90.285,0,0,1,2.77,15.257q.77,7.993.772,15.985a144.814,144.814,0,0,1-.954,16.438,97.412,97.412,0,0,1-3.224,16.166,71.091,71.091,0,0,1-6.04,14.622,46.747,46.747,0,0,1-9.309,11.9,37.881,37.881,0,0,1-3.767,3.035,2.836,2.836,0,0,0,1.587,5.18h46.173a2.834,2.834,0,0,0,2.834-2.834V2.834A2.834,2.834,0,0,0,337.323,0Z"/>
      </g>
    </g>
</svg>
