<svg xmlns="http://www.w3.org/2000/svg" width="120.001mm" height="120.001mm" viewBox="0 0 340.16 340.16">
  <g id="Zimmernummer">
      <g id="Z-03-004">
        <path fill="#000000" stroke="none" d="M340.16,2.835v334.49a2.835,2.835,0,0,1-2.835,2.835H297.164a2.834,2.834,0,0,1-2.834-2.835V309.37h16.75V292.62H294.33V209.94H274.22l-55.87,78.39v21.04h50.72V292.62H234.74l39.1-57.36h.38V337.325a2.844,2.844,0,0,1-2.835,2.835H2.835A2.835,2.835,0,0,1,0,337.325V2.835A2.835,2.835,0,0,1,2.835,0h334.49A2.835,2.835,0,0,1,340.16,2.835Z"/>
      </g>
    </g>
</svg>
