<svg xmlns="http://www.w3.org/2000/svg" width="120.001mm" height="120mm" viewBox="0 0 340.159 340.158">
  <g id="Zimmernummer">
      <g id="Z-03-307-R">
        <path fill="#A0552B" stroke="none" d="M337.325,0H2.835A2.835,2.835,0,0,0,0,2.835V337.32a2.835,2.835,0,0,0,2.835,2.835h45.6a1.192,1.192,0,0,0,.506-2.255l-.06-.03c-.28-.14-.57-.29-.85-.43a36.469,36.469,0,0,1-9.31-7.02,39.762,39.762,0,0,1-8.66-14.34,58.277,58.277,0,0,1-3.16-18.62h21.22q-.375,11.91,5.87,19.83T72.7,325.2q10.62,0,17.79-6.05t7.17-17.22q0-7.635-2.98-12.11a19.383,19.383,0,0,0-7.82-6.79,31.722,31.722,0,0,0-10.9-2.89,103.289,103.289,0,0,0-12.38-.369V263.94a48.9,48.9,0,0,0,10.43-.74,29.085,29.085,0,0,0,9.31-3.26,18.179,18.179,0,0,0,6.61-6.43,18.922,18.922,0,0,0,2.51-10.05q0-8.385-5.68-13.41t-14.62-5.029a19.209,19.209,0,0,0-16.47,8.29,26.973,26.973,0,0,0-4.01,8.569,32.256,32.256,0,0,0-1.12,9.77H29.324a53.547,53.547,0,0,1,3.53-17.589A44.283,44.283,0,0,1,41.514,220a38.376,38.376,0,0,1,13.32-9.31,44.4,44.4,0,0,1,17.69-3.36,51.321,51.321,0,0,1,14.99,2.24,43.785,43.785,0,0,1,13.22,6.52,31.333,31.333,0,0,1,12.94,26.06,32.5,32.5,0,0,1-4.47,17.23q-4.47,7.35-13.97,10.71v.37a26.9,26.9,0,0,1,17.41,11.08q6.24,8.85,6.24,21.51a36.394,36.394,0,0,1-3.72,16.66,37.951,37.951,0,0,1-10.06,12.48,44.508,44.508,0,0,1-7.95,5.121c-.43.21-.86.419-1.29.619l-.06.03a1.16,1.16,0,0,0,.491,2.195H150.33a1.284,1.284,0,0,0,.65-2.374c-.611-.37-1.2-.76-1.772-1.181a44.122,44.122,0,0,1-13.78-16.39,72.826,72.826,0,0,1-6.7-21.88,155.632,155.632,0,0,1,0-46.18,72.987,72.987,0,0,1,6.7-21.879,44.086,44.086,0,0,1,13.78-16.381q7.56-5.49,18.86-6.27a1.282,1.282,0,0,1,1.37,1.29v15.27a1.281,1.281,0,0,1-1.05,1.28,15.8,15.8,0,0,0-8.01,3.7,27.554,27.554,0,0,0-7.26,10.89,66.028,66.028,0,0,0-3.82,15.92,159.9,159.9,0,0,0,0,38.64,64.663,64.663,0,0,0,3.82,15.92c2.278,5.733,6.209,11.573,12.258,13.733,5.962,2.128,13.319,1.256,18.182-2.933a27.076,27.076,0,0,0,7.36-10.8,64.663,64.663,0,0,0,3.82-15.92,159.946,159.946,0,0,0,0-38.64c-1.175-9.435-3.632-20.33-11.18-26.81a16.149,16.149,0,0,0-7.874-3.68,1.347,1.347,0,0,1-1.1-1.27v-15.3a1.287,1.287,0,0,1,1.37-1.29q11.295.8,18.87,6.27a44.179,44.179,0,0,1,13.78,16.381,73.275,73.275,0,0,1,6.7,21.879,156.78,156.78,0,0,1,0,46.18,73.112,73.112,0,0,1-6.7,21.88,44.216,44.216,0,0,1-13.78,16.39c-.568.419-1.167.808-1.765,1.177a1.284,1.284,0,0,0,.643,2.378h44.849a2.176,2.176,0,0,0,2.168-1.995v-.009a155.7,155.7,0,0,1,5.14-28.4,187.052,187.052,0,0,1,10.8-29.24,201.135,201.135,0,0,1,15.36-27.18,231.659,231.659,0,0,1,18.8-24.4h-67.59V209.94h89.19v17.69a234.429,234.429,0,0,0-18.62,23.93,174.609,174.609,0,0,0-14.61,26.25,177.894,177.894,0,0,0-10.15,29.33,189.9,189.9,0,0,0-5.028,30.744v.009a2.094,2.094,0,0,0,2.087,2.262l71.918,0a2.139,2.139,0,0,0,2.138-2.139V2.835A2.834,2.834,0,0,0,337.325,0Z"/>
      </g>
    </g>
</svg>
