<svg xmlns="http://www.w3.org/2000/svg" width="120mm" height="120mm" viewBox="0 0 340.157 340.157">
  <g id="Zimmernummer">
      <g id="Z-03-117-M">
        <path fill="#D4AF37" stroke="none" d="M337.323,0H2.835A2.835,2.835,0,0,0,0,2.835V337.323a2.834,2.834,0,0,0,2.834,2.834H71.519a2.834,2.834,0,0,0,2.834-2.834V248.556H42.384V231.845q22.887,0,33.15-11.534a20.3,20.3,0,0,0,4.723-10.082H97.6V337.323a2.834,2.834,0,0,0,2.835,2.834h55.834a2.834,2.834,0,0,0,2.835-2.834V248.556H127.138V231.845q22.887,0,33.149-11.534a20.3,20.3,0,0,0,4.723-10.082h17.347V337.323a2.834,2.834,0,0,0,2.834,2.834h38.014a2.838,2.838,0,0,0,2.821-2.6q3.864-43.148,31.185-83.915a235.272,235.272,0,0,1,18.8-24.431H208.531V210.229h89.095v17.71q-32.515,36.51-43.412,79.377a187.7,187.7,0,0,0-4.907,29.775,2.834,2.834,0,0,0,2.829,3.066h85.187a2.834,2.834,0,0,0,2.834-2.834V2.835A2.834,2.834,0,0,0,337.323,0Z"/>
      </g>
    </g>
</svg>
