<svg xmlns="http://www.w3.org/2000/svg" width="120mm" height="120mm" viewBox="0 0 340.158 340.157">
  <g id="Zimmernummer">
      <g id="Z-03-318">
        <path fill="#000000" stroke="none" d="M337.323,0H2.835A2.835,2.835,0,0,0,0,2.835V337.323a2.834,2.834,0,0,0,2.834,2.834h42.19a2.828,2.828,0,0,0,1.673-5.111q-9.015-6.613-13.494-18.6a57.906,57.906,0,0,1-3.179-18.617H51.276q-.273,11.9,5.9,19.8t17.71,7.9q11.534,0,18.709-5.994t7.175-17.256q0-13.623-10.808-18.89-7.629-3.724-23.25-3.27v-15.8q19.345.636,26.338-10.353,2.453-4.088,2.452-11.262a15.676,15.676,0,0,0-5.63-12.17,18.7,18.7,0,0,0-12.9-5.086q-17.71-.087-22.16,16.893a32.544,32.544,0,0,0-1.09,9.719H32.476q.726-18.982,12.17-31.606t30.97-12.625a47.992,47.992,0,0,1,28.7,8.992q12.441,9.083,12.442,25.793,0,21.344-18.436,27.881v.364a27.2,27.2,0,0,1,17.437,11.08,33.606,33.606,0,0,1,6.267,19.8q-.092,19.709-13.623,30.608-1.746,1.406-3.586,2.629a2.829,2.829,0,0,0,1.563,5.189H162.97a2.834,2.834,0,0,0,2.834-2.834V248.692H133.835V231.981q22.887,0,33.149-11.533a20.289,20.289,0,0,0,4.723-10.082h17.347V337.323a2.834,2.834,0,0,0,2.835,2.834h41.06a2.833,2.833,0,0,0,1.554-5.2q-1.471-1-2.839-2.12a36.43,36.43,0,0,1-9.9-12.805,41.056,41.056,0,0,1-3.633-17.756,36.568,36.568,0,0,1,1.681-11.351,31.194,31.194,0,0,1,4.769-9.264,29,29,0,0,1,7.537-6.949,32.947,32.947,0,0,1,9.9-4.223v-.363a26.968,26.968,0,0,1-18.437-26.791,38.873,38.873,0,0,1,2.724-15.123,29.353,29.353,0,0,1,7.675-10.852,34.825,34.825,0,0,1,11.761-6.72,52.691,52.691,0,0,1,14.986-2.725v16.8q-7.9,1.273-12.488,6.312t-4.586,13.305q0,8.174,4.5,13.123t12.579,5.949v16.166a26.918,26.918,0,0,0-8.765,2.272,21.318,21.318,0,0,0-6.72,4.767,21.078,21.078,0,0,0-4.314,6.993,27.345,27.345,0,0,0,.318,18.982,21.832,21.832,0,0,0,5.131,7.492,22.125,22.125,0,0,0,7.811,4.723,30.787,30.787,0,0,0,19.8,0,22.623,22.623,0,0,0,7.855-4.723,21.455,21.455,0,0,0,5.177-7.537,27.853,27.853,0,0,0,.363-19.027,19.713,19.713,0,0,0-4.313-6.948,22.445,22.445,0,0,0-6.721-4.722,26.611,26.611,0,0,0-8.81-2.272V263.4q8.082-1,12.533-5.857t4.451-13.033q0-8.262-4.5-13.442t-12.488-6.357v-16.8a51.249,51.249,0,0,1,15.848,2.951A33.409,33.409,0,0,1,295.056,218a29.807,29.807,0,0,1,7.174,10.9,39.893,39.893,0,0,1,2.453,14.441,28.806,28.806,0,0,1-4.678,16.482,27.448,27.448,0,0,1-13.759,10.309v.363a33.215,33.215,0,0,1,9.763,4.178,30.117,30.117,0,0,1,12.4,15.621,31.529,31.529,0,0,1,1.726,10.535,45.26,45.26,0,0,1-3.451,18.256,37.035,37.035,0,0,1-12.918,15.927,2.829,2.829,0,0,0,1.617,5.151h41.943a2.835,2.835,0,0,0,2.835-2.834V2.835A2.835,2.835,0,0,0,337.323,0Z"/>
      </g>
    </g>
</svg>
