<svg xmlns="http://www.w3.org/2000/svg" width="120mm" height="120mm" viewBox="0 0 340.158 340.157">
  <g id="Zimmernummer">
      <g id="Z-03-603-R">
        <path fill="#A0552B" stroke="none" d="M337.323,0H2.834A2.834,2.834,0,0,0,0,2.834V337.323a2.834,2.834,0,0,0,2.834,2.834h36.84a2.834,2.834,0,0,0,1.6-5.167q-1.365-.972-2.616-2.053a38.666,38.666,0,0,1-8.719-10.807,62.35,62.35,0,0,1-5.4-13.487,89.981,89.981,0,0,1-2.769-15.258Q21,285.395,21,277.4a144.208,144.208,0,0,1,.954-16.484A97.333,97.333,0,0,1,25.175,244.8a70.948,70.948,0,0,1,6.04-14.622,46.716,46.716,0,0,1,9.308-11.9,40.718,40.718,0,0,1,13.123-7.992,48.649,48.649,0,0,1,17.484-2.907,38.923,38.923,0,0,1,26.338,10.081,37.131,37.131,0,0,1,8.355,11.216,35.807,35.807,0,0,1,3.542,14.214H88.2a24.076,24.076,0,0,0-1.725-6.9,19.259,19.259,0,0,0-3.633-5.722,16.468,16.468,0,0,0-5.405-3.859A16.745,16.745,0,0,0,70.494,225q-16.8,0-22.977,15.893a76.762,76.762,0,0,0-4.269,16.847,129.7,129.7,0,0,0-1.271,18.119q0,6.63.589,12.941t1.59,12.125a55.934,55.934,0,0,0,2.543,9.309,27.241,27.241,0,0,0,4.315,7.721,19.037,19.037,0,0,0,6.629,5.221,21.651,21.651,0,0,0,9.491,1.908,22.693,22.693,0,0,0,10.444-2.271,21.689,21.689,0,0,0,7.357-5.994,25.079,25.079,0,0,0,4.313-8.673,37.152,37.152,0,0,0,1.408-10.218A35.513,35.513,0,0,0,89.2,287.708a24.831,24.831,0,0,0-4.359-8.491,21,21,0,0,0-7.266-5.766,22.875,22.875,0,0,0-10.172-2.135,22.653,22.653,0,0,0-10.262,2.27,21.752,21.752,0,0,0-7.993,7.175q-.272-4.086-.272-8.083,0-2.814.137-5.5t.317-5.4a29.123,29.123,0,0,1,9.944-5.4,40.237,40.237,0,0,1,12.216-1.771,40.493,40.493,0,0,1,16.939,3.406,37.219,37.219,0,0,1,12.669,9.264,41.005,41.005,0,0,1,7.946,13.759,50.969,50.969,0,0,1,2.77,16.983,50.2,50.2,0,0,1-3.133,18.027,41.817,41.817,0,0,1-8.809,14.168,42.993,42.993,0,0,1-5.638,4.823,2.83,2.83,0,0,0,1.665,5.122H143.54a2.835,2.835,0,0,0,1.7-5.1,37.915,37.915,0,0,1-3.63-3.208,42.884,42.884,0,0,1-8.219-11.761,75.526,75.526,0,0,1-5.131-14.3,105.326,105.326,0,0,1-2.68-15.532q-.771-7.944-.771-15.484,0-6.993.681-14.531a105.913,105.913,0,0,1,2.407-14.85,78.452,78.452,0,0,1,4.677-13.94,44.288,44.288,0,0,1,7.583-11.761,37.758,37.758,0,0,1,11.08-8.4,38.582,38.582,0,0,1,15.167-3.815v17.8q-20.435,3.36-20.434,49.77,0,3.9.181,9.172a104.24,104.24,0,0,0,.955,10.808,79.6,79.6,0,0,0,2.315,10.944,37.566,37.566,0,0,0,4.178,9.627,22.081,22.081,0,0,0,6.63,6.857,17.089,17.089,0,0,0,9.627,2.634q23.7,0,23.7-50.042,0-46.229-20.344-49.77v-17.8a38.587,38.587,0,0,1,15.167,3.815,36.821,36.821,0,0,1,11.035,8.446A46.671,46.671,0,0,1,207,231.537a76.363,76.363,0,0,1,4.723,13.941,106.463,106.463,0,0,1,2.407,14.849q.68,7.539.681,14.531,0,7.629-.773,15.667a100.257,100.257,0,0,1-2.724,15.575,74.94,74.94,0,0,1-5.222,14.214,42.767,42.767,0,0,1-8.31,11.67,37.915,37.915,0,0,1-3.486,3.061,2.838,2.838,0,0,0,1.687,5.112h46.746a2.835,2.835,0,0,0,1.6-5.172q-9.388-6.654-13.987-18.985a57.918,57.918,0,0,1-3.179-18.619h21.252q-.273,11.9,5.9,19.8t17.71,7.9q11.534,0,18.709-6t7.175-17.255q0-13.623-10.807-18.891-7.629-3.724-23.25-3.27v-15.8q19.344.634,26.337-10.354,2.452-4.086,2.453-11.262a15.674,15.674,0,0,0-5.631-12.17,18.694,18.694,0,0,0-12.9-5.085q-17.709-.09-22.16,16.892a32.545,32.545,0,0,0-1.09,9.718H229.611q.728-18.981,12.17-31.606t30.97-12.624a47.984,47.984,0,0,1,28.7,8.992q12.443,9.081,12.443,25.793,0,21.342-18.437,27.881v.364a27.205,27.205,0,0,1,17.438,11.08,33.611,33.611,0,0,1,6.266,19.8q-.09,19.707-13.623,30.606a48.838,48.838,0,0,1-4.248,3.064,2.828,2.828,0,0,0,1.546,5.2h34.488a2.835,2.835,0,0,0,2.835-2.835V2.834A2.834,2.834,0,0,0,337.323,0Z"/>
      </g>
    </g>
</svg>
