<svg xmlns="http://www.w3.org/2000/svg" width="120mm" height="120mm" viewBox="0 0 340.158 340.158">
  <g id="Zimmernummer">
      <g id="Z-03-637-M">
        <path fill="#D4AF37" stroke="none" d="M337.323,0H2.835A2.835,2.835,0,0,0,0,2.835V337.323a2.835,2.835,0,0,0,2.835,2.835H40.719a2.835,2.835,0,0,0,1.6-5.168q-1.365-.972-2.616-2.053a38.652,38.652,0,0,1-8.719-10.807,62.393,62.393,0,0,1-5.4-13.486,90.08,90.08,0,0,1-2.77-15.258q-.773-7.992-.771-15.984A144.223,144.223,0,0,1,23,260.917,97.355,97.355,0,0,1,26.22,244.8a70.826,70.826,0,0,1,6.039-14.621,46.738,46.738,0,0,1,9.308-11.9,40.757,40.757,0,0,1,13.123-7.992,48.658,48.658,0,0,1,17.485-2.907A38.922,38.922,0,0,1,98.513,217.46a37.143,37.143,0,0,1,8.355,11.215,35.806,35.806,0,0,1,3.541,14.215H89.249a24.03,24.03,0,0,0-1.727-6.9,19.222,19.222,0,0,0-3.632-5.723,16.483,16.483,0,0,0-5.405-3.859A16.764,16.764,0,0,0,71.538,225q-16.8,0-22.976,15.894a76.683,76.683,0,0,0-4.27,16.846,129.86,129.86,0,0,0-1.271,18.119q0,6.63.589,12.941t1.59,12.125a56.031,56.031,0,0,0,2.543,9.309,27.227,27.227,0,0,0,4.315,7.721,19.028,19.028,0,0,0,6.629,5.222,21.656,21.656,0,0,0,9.492,1.907,22.688,22.688,0,0,0,10.443-2.27,21.7,21.7,0,0,0,7.357-5.994,25.057,25.057,0,0,0,4.313-8.674A37.14,37.14,0,0,0,91.7,297.927a35.485,35.485,0,0,0-1.453-10.219,24.826,24.826,0,0,0-4.359-8.49,20.99,20.99,0,0,0-7.266-5.767,22.886,22.886,0,0,0-10.172-2.135,22.643,22.643,0,0,0-10.262,2.271,21.746,21.746,0,0,0-7.992,7.174q-.271-4.086-.273-8.082,0-2.815.137-5.5t.318-5.4a29.1,29.1,0,0,1,9.943-5.405,40.244,40.244,0,0,1,12.217-1.771,40.492,40.492,0,0,1,16.938,3.406,37.223,37.223,0,0,1,12.67,9.264,40.991,40.991,0,0,1,7.945,13.76,50.967,50.967,0,0,1,2.771,16.982,50.2,50.2,0,0,1-3.134,18.027,41.817,41.817,0,0,1-8.809,14.168,38.374,38.374,0,0,1-5.593,4.82,2.83,2.83,0,0,0,1.661,5.126h43.429a2.835,2.835,0,0,0,1.6-5.172q-9.39-6.656-13.988-18.986a57.917,57.917,0,0,1-3.177-18.618H146.1q-.273,11.9,5.9,19.8t17.711,7.9q11.53,0,18.709-6t7.174-17.255q0-13.623-10.807-18.891-7.629-3.724-23.25-3.27v-15.8q19.344.634,26.338-10.354,2.452-4.086,2.451-11.262a15.676,15.676,0,0,0-5.631-12.17A18.691,18.691,0,0,0,171.8,225q-17.71-.089-22.16,16.892a32.613,32.613,0,0,0-1.09,9.719H127.3q.726-18.981,12.17-31.606t30.97-12.625a47.99,47.99,0,0,1,28.7,8.993q12.443,9.081,12.441,25.793,0,21.342-18.436,27.88v.364a27.206,27.206,0,0,1,17.438,11.08,33.606,33.606,0,0,1,6.266,19.8q-.091,19.707-13.623,30.607a48.43,48.43,0,0,1-4.237,3.05,2.844,2.844,0,0,0,1.579,5.214h43.093a2.838,2.838,0,0,0,2.82-2.606q3.8-43.308,31.217-84.219A235.368,235.368,0,0,1,296.5,228.9h-67.48V209.921h89.1v17.711Q285.6,264.142,274.7,307.009a188.2,188.2,0,0,0-4.937,30.086,2.835,2.835,0,0,0,2.829,3.063h64.727a2.835,2.835,0,0,0,2.835-2.835V2.835A2.835,2.835,0,0,0,337.323,0Z"/>
      </g>
    </g>
</svg>
