<svg xmlns="http://www.w3.org/2000/svg" width="120mm" height="120mm" viewBox="0 0 340.157 340.157">
  <g id="Zimmernummer">
      <g id="Z-03-526-R">
        <path fill="#A0552B" stroke="none" d="M337.323,0H2.834A2.834,2.834,0,0,0,0,2.834V337.323a2.834,2.834,0,0,0,2.834,2.834H36.686a2.831,2.831,0,0,0,1.524-5.215,40.8,40.8,0,0,1-3.317-2.413Q22.176,322.268,21.452,303.1h21.16q.909,10.716,7.266,16.347t16.711,5.631q23.795,0,24.25-28.609,0-18.344-13.715-24.975a24.493,24.493,0,0,0-11.08-2.18q-16.62,0-20.979,11.9H23.813L37.8,209.922h67.3V228.9H53.6l-6.72,33.151.363.363q8.807-9.9,25.611-9.9a39.5,39.5,0,0,1,15.711,3.269q14.985,6.452,20.707,22.979A50.861,50.861,0,0,1,112,295.293q0,18.483-10.283,31.649a2.96,2.96,0,0,1-.58.56l-10.252,7.537a2.834,2.834,0,0,0,1.679,5.118H122.8a2.82,2.82,0,0,0,2.822-2.658q1.536-28.178,28.519-46.657,6.358-4.632,13.26-8.99,25.521-16.167,25.975-33.786,0-9.263-3.27-13.8a24.436,24.436,0,0,0-7.537-6.9A21.826,21.826,0,0,0,171.759,225q-6.63,0-10.807,2.543-11.171,6.811-11.807,30.061H127.893q0-22.251,11.807-36.237t33.059-13.986q21.252,0,32.876,13.713,8.993,10.989,8.991,26.248,0,20.071-18.254,35.51A149.755,149.755,0,0,1,178.3,296.2q-9.445,5.994-14.168,9.535-10.807,8.087-13.168,15.44h63.482v16.147a2.834,2.834,0,0,0,2.835,2.834H247.52a2.834,2.834,0,0,0,1.4-5.3l-3.105-1.77a3.02,3.02,0,0,1-.5-.355,38.661,38.661,0,0,1-8.486-10.6,62.351,62.351,0,0,1-5.405-13.488,90.08,90.08,0,0,1-2.769-15.258q-.774-7.989-.774-15.985a144.166,144.166,0,0,1,.956-16.482,97.309,97.309,0,0,1,3.222-16.121,71.07,71.07,0,0,1,6.041-14.623,46.7,46.7,0,0,1,9.309-11.9,40.693,40.693,0,0,1,13.123-7.992,48.66,48.66,0,0,1,17.482-2.906,38.918,38.918,0,0,1,26.338,10.08,37.11,37.11,0,0,1,8.356,11.217,35.819,35.819,0,0,1,3.543,14.213H295.093a24.124,24.124,0,0,0-1.725-6.9,19.229,19.229,0,0,0-3.633-5.72,16.467,16.467,0,0,0-5.4-3.86A16.748,16.748,0,0,0,277.384,225q-16.806,0-22.979,15.893a76.79,76.79,0,0,0-4.268,16.847,129.708,129.708,0,0,0-1.271,18.119q0,6.63.59,12.942t1.59,12.125a55.73,55.73,0,0,0,2.543,9.308,27.214,27.214,0,0,0,4.314,7.721,19.06,19.06,0,0,0,6.629,5.221,21.667,21.667,0,0,0,9.49,1.908,22.714,22.714,0,0,0,10.446-2.271,21.659,21.659,0,0,0,7.355-6,25.1,25.1,0,0,0,4.314-8.671,37.2,37.2,0,0,0,1.409-10.219,35.57,35.57,0,0,0-1.453-10.217,24.82,24.82,0,0,0-4.36-8.492,20.993,20.993,0,0,0-7.265-5.766,24.807,24.807,0,0,0-20.436.135,21.759,21.759,0,0,0-7.992,7.176q-.273-4.088-.272-8.084,0-2.812.137-5.494t.316-5.405a29.145,29.145,0,0,1,9.946-5.4,43.467,43.467,0,0,1,29.154,1.635,37.19,37.19,0,0,1,12.668,9.263,41.022,41.022,0,0,1,7.947,13.758,51.006,51.006,0,0,1,2.77,16.985,50.187,50.187,0,0,1-3.133,18.027,41.821,41.821,0,0,1-8.809,14.168,42.968,42.968,0,0,1-5.636,4.822,2.829,2.829,0,0,0,1.665,5.122h34.53a2.834,2.834,0,0,0,2.834-2.834V2.834A2.834,2.834,0,0,0,337.323,0Z"/>
      </g>
    </g>
</svg>
