<svg xmlns="http://www.w3.org/2000/svg" width="120mm" height="120mm" viewBox="0 0 340.157 340.157">
  <g id="Zimmernummer">
      <g id="Z-03-127-R">
        <path fill="#A0552B" stroke="none" d="M337.323,0H2.834A2.834,2.834,0,0,0,0,2.834V337.323a2.834,2.834,0,0,0,2.834,2.834H62.59a2.834,2.834,0,0,0,2.835-2.834V248.839H33.456V232.128q22.887,0,33.149-11.534a20.3,20.3,0,0,0,4.723-10.081H88.675v126.81a2.834,2.834,0,0,0,2.834,2.834h21.383a2.82,2.82,0,0,0,2.82-2.633q1.774-27.793,28.472-46.09,6.355-4.632,13.26-8.992,25.52-16.164,25.974-33.785,0-9.264-3.269-13.8a24.439,24.439,0,0,0-7.538-6.9,21.829,21.829,0,0,0-10.808-2.361q-6.63,0-10.808,2.543-11.171,6.811-11.806,30.061H117.937q0-22.251,11.806-36.237T162.8,207.97q21.252,0,32.877,13.714,8.991,10.989,8.991,26.247,0,20.071-18.255,35.51a149.559,149.559,0,0,1-18.073,13.351q-9.447,5.994-14.168,9.536-10.809,8.085-13.169,15.44h63.484v15.555a2.834,2.834,0,0,0,2.834,2.834h29.3a2.838,2.838,0,0,0,2.82-2.595q3.927-43,31.155-83.637a235.386,235.386,0,0,1,18.8-24.431H221.923V210.513h89.094v17.71Q278.5,264.732,267.605,307.6a187.542,187.542,0,0,0-4.878,29.488,2.832,2.832,0,0,0,2.827,3.069h71.769a2.834,2.834,0,0,0,2.834-2.834V2.834A2.834,2.834,0,0,0,337.323,0Z"/>
      </g>
    </g>
</svg>
