<svg xmlns="http://www.w3.org/2000/svg" width="120mm" height="120mm" viewBox="0 0 340.158 340.158">
  <g id="Zimmernummer">
      <g id="Z-03-649-E">
        <path fill="#A09f9d" stroke="none" d="M337.323,0H2.835A2.835,2.835,0,0,0,0,2.835V337.323a2.835,2.835,0,0,0,2.835,2.835H39.992a2.834,2.834,0,0,0,1.6-5.167q-1.365-.974-2.616-2.053a38.666,38.666,0,0,1-8.719-10.807,62.383,62.383,0,0,1-5.4-13.486,90.08,90.08,0,0,1-2.77-15.258q-.773-7.992-.772-15.985a144.2,144.2,0,0,1,.954-16.484A97.353,97.353,0,0,1,25.493,244.8a70.884,70.884,0,0,1,6.04-14.621,46.739,46.739,0,0,1,9.308-11.9,40.771,40.771,0,0,1,13.123-7.992,48.671,48.671,0,0,1,17.484-2.906,38.917,38.917,0,0,1,26.338,10.082,37.114,37.114,0,0,1,8.355,11.215,35.8,35.8,0,0,1,3.542,14.215H88.522a24.043,24.043,0,0,0-1.726-6.9,19.237,19.237,0,0,0-3.632-5.722,16.5,16.5,0,0,0-5.405-3.86A16.78,16.78,0,0,0,70.812,225q-16.8,0-22.978,15.9a76.744,76.744,0,0,0-4.268,16.845,129.73,129.73,0,0,0-1.272,18.119q0,6.63.59,12.942t1.59,12.125a55.923,55.923,0,0,0,2.543,9.308,27.189,27.189,0,0,0,4.315,7.721,19.048,19.048,0,0,0,6.628,5.223,21.674,21.674,0,0,0,9.492,1.906,22.692,22.692,0,0,0,10.444-2.27,21.676,21.676,0,0,0,7.356-5.994,25.072,25.072,0,0,0,4.314-8.673,37.183,37.183,0,0,0,1.408-10.217,35.51,35.51,0,0,0-1.453-10.219,24.826,24.826,0,0,0-4.359-8.49,21,21,0,0,0-7.266-5.768,22.889,22.889,0,0,0-10.172-2.135,22.635,22.635,0,0,0-10.263,2.272,21.745,21.745,0,0,0-7.992,7.174q-.272-4.088-.272-8.082,0-2.815.136-5.5t.318-5.4a29.107,29.107,0,0,1,9.944-5.4,40.206,40.206,0,0,1,12.216-1.772,40.481,40.481,0,0,1,16.939,3.407,37.19,37.19,0,0,1,12.668,9.263,41.015,41.015,0,0,1,7.947,13.76,51,51,0,0,1,2.77,16.983A50.187,50.187,0,0,1,109,316.045a41.819,41.819,0,0,1-8.808,14.168,38.374,38.374,0,0,1-5.593,4.82,2.829,2.829,0,0,0,1.66,5.125h79.612a2.835,2.835,0,0,0,2.835-2.834V235.262h-.455L139.2,292.568h32.7v16.711H122.852V288.3l55.855-78.379h20.071v82.646h16.711v16.711H198.778v28.045a2.834,2.834,0,0,0,2.834,2.834H243.54a2.831,2.831,0,0,0,1.663-5.122,35.453,35.453,0,0,1-2.831-2.325,37.056,37.056,0,0,1-8.356-11.217,35.751,35.751,0,0,1-3.542-14.213h21.161a24.043,24.043,0,0,0,1.726,6.9,19.212,19.212,0,0,0,3.633,5.722,16.446,16.446,0,0,0,5.4,3.86,16.748,16.748,0,0,0,6.947,1.408q16.8,0,22.978-15.895a76.733,76.733,0,0,0,4.268-16.847,129.815,129.815,0,0,0,1.272-18.118q0-6.629-.59-12.943t-1.59-12.123a56,56,0,0,0-2.543-9.31,27.279,27.279,0,0,0-4.314-7.719A19.075,19.075,0,0,0,282.2,227a21.675,21.675,0,0,0-9.491-1.906,22.729,22.729,0,0,0-10.445,2.269,21.671,21.671,0,0,0-7.356,6,25.11,25.11,0,0,0-4.314,8.628,37,37,0,0,0-1.408,10.262,35.446,35.446,0,0,0,1.453,10.217,24.749,24.749,0,0,0,4.36,8.492,20.957,20.957,0,0,0,7.265,5.768,24.8,24.8,0,0,0,20.435-.137,21.743,21.743,0,0,0,7.992-7.174q.273,4.087.272,8.082,0,2.815-.136,5.494t-.318,5.405a29.148,29.148,0,0,1-9.944,5.4,43.483,43.483,0,0,1-29.154-1.635,37.236,37.236,0,0,1-12.669-9.264,41.02,41.02,0,0,1-7.947-13.759,50.969,50.969,0,0,1-2.77-16.983,50.2,50.2,0,0,1,3.134-18.029,41.848,41.848,0,0,1,8.808-14.168,39.644,39.644,0,0,1,13.669-9.264,45.811,45.811,0,0,1,17.71-3.314,50.794,50.794,0,0,1,17.211,2.635,39.689,39.689,0,0,1,12.623,7.218,38.732,38.732,0,0,1,8.719,10.809,62.454,62.454,0,0,1,5.4,13.486,90.352,90.352,0,0,1,2.77,15.258q.771,7.992.772,15.985a144.6,144.6,0,0,1-.954,16.439,97.451,97.451,0,0,1-3.223,16.166A71.105,71.105,0,0,1,308.625,320a46.774,46.774,0,0,1-9.309,11.9,38.025,38.025,0,0,1-3.83,3.079,2.837,2.837,0,0,0,1.585,5.184h40.252a2.835,2.835,0,0,0,2.835-2.835V2.835A2.835,2.835,0,0,0,337.323,0Z"/>
      </g>
    </g>
</svg>
