<svg xmlns="http://www.w3.org/2000/svg" width="120mm" height="120mm" viewBox="0 0 340.157 340.157">
  <g id="Zimmernummer">
      <g id="Z-03-403">
        <path fill="#000000" stroke="none" d="M337.323,0H2.835A2.835,2.835,0,0,0,0,2.835V337.323a2.834,2.834,0,0,0,2.834,2.834H74.969a2.834,2.834,0,0,0,2.834-2.834V235.26h-.454L38.3,292.568h32.7v16.711H21.949V288.3L77.8,209.921H97.875v82.647h16.711v16.711H97.875v28.044a2.834,2.834,0,0,0,2.834,2.834h45.629a2.834,2.834,0,0,0,1.685-5.108,35.1,35.1,0,0,1-3.648-3.2,42.887,42.887,0,0,1-8.22-11.761,75.665,75.665,0,0,1-5.131-14.3,105.457,105.457,0,0,1-2.68-15.532q-.771-7.944-.771-15.484,0-6.993.682-14.531a105.911,105.911,0,0,1,2.406-14.85,78.374,78.374,0,0,1,4.678-13.94,44.263,44.263,0,0,1,7.583-11.761,37.745,37.745,0,0,1,11.08-8.4,38.578,38.578,0,0,1,15.167-3.815v17.8q-20.435,3.36-20.435,49.77,0,3.9.182,9.172a103.958,103.958,0,0,0,.954,10.808,79.749,79.749,0,0,0,2.315,10.944,37.6,37.6,0,0,0,4.178,9.627,22.081,22.081,0,0,0,6.63,6.857,17.089,17.089,0,0,0,9.627,2.634q23.7,0,23.7-50.042,0-46.229-20.344-49.77v-17.8a38.582,38.582,0,0,1,15.167,3.815,36.809,36.809,0,0,1,11.035,8.446,46.671,46.671,0,0,1,7.583,11.807,76.287,76.287,0,0,1,4.723,13.941,106.463,106.463,0,0,1,2.407,14.849q.679,7.539.681,14.531,0,7.629-.773,15.667a100.139,100.139,0,0,1-2.724,15.575,74.94,74.94,0,0,1-5.222,14.214,42.785,42.785,0,0,1-8.309,11.67,35.966,35.966,0,0,1-3.518,3.055,2.835,2.835,0,0,0,1.675,5.118h43.069a2.835,2.835,0,0,0,1.6-5.172q-9.39-6.654-13.988-18.985a57.918,57.918,0,0,1-3.178-18.619H247.46q-.273,11.9,5.9,19.8t17.71,7.9q11.532,0,18.709-6t7.175-17.255q0-13.623-10.808-18.891-7.629-3.724-23.25-3.27v-15.8q19.346.634,26.338-10.354,2.452-4.086,2.452-11.262a15.674,15.674,0,0,0-5.631-12.17,18.691,18.691,0,0,0-12.9-5.085q-17.71-.09-22.16,16.892a32.545,32.545,0,0,0-1.09,9.718H228.66q.726-18.981,12.17-31.606t30.97-12.624a47.986,47.986,0,0,1,28.7,8.992q12.442,9.081,12.442,25.793,0,21.342-18.436,27.881v.364a27.2,27.2,0,0,1,17.437,11.08,33.6,33.6,0,0,1,6.267,19.8q-.091,19.707-13.623,30.606a48.838,48.838,0,0,1-4.248,3.064,2.828,2.828,0,0,0,1.546,5.2h35.439a2.834,2.834,0,0,0,2.834-2.834V2.835A2.834,2.834,0,0,0,337.323,0Z"/>
      </g>
    </g>
</svg>
