<svg xmlns="http://www.w3.org/2000/svg" width="120mm" height="120mm" viewBox="0 0 340.157 340.157">
  <g id="Zimmernummer">
      <g id="Z-03-141-R">
        <path fill="#A0552B" stroke="none" d="M337.323,0H2.834A2.834,2.834,0,0,0,0,2.834V337.323a2.834,2.834,0,0,0,2.834,2.834H81.27a2.834,2.834,0,0,0,2.834-2.834V248.239H52.136V231.528q22.887,0,33.149-11.534a20.3,20.3,0,0,0,4.723-10.081h17.346v127.41a2.835,2.835,0,0,0,2.835,2.834H180.74a2.834,2.834,0,0,0,2.835-2.834V235.252h-.454L144.068,292.56h32.695v16.711H127.72v-20.98l55.855-78.378h20.071V292.56h16.711v16.711H203.646v28.052a2.834,2.834,0,0,0,2.835,2.834h55.456a2.834,2.834,0,0,0,2.834-2.834V248.239H232.8V231.528q22.887,0,33.149-11.534a20.3,20.3,0,0,0,4.723-10.081h17.346v127.41a2.835,2.835,0,0,0,2.835,2.834h46.467a2.834,2.834,0,0,0,2.834-2.834V2.834A2.834,2.834,0,0,0,337.323,0Z"/>
      </g>
    </g>
</svg>
