<svg xmlns="http://www.w3.org/2000/svg" width="120mm" height="120mm" viewBox="0 0 340.157 340.158">
  <g id="Zimmernummer">
      <g id="Z-03-627-E">
        <path fill="#A09f9d" stroke="none" d="M337.322,0H2.834A2.834,2.834,0,0,0,0,2.834V337.323a2.835,2.835,0,0,0,2.835,2.835H40.719a2.835,2.835,0,0,0,1.6-5.168q-1.365-.972-2.616-2.053a38.634,38.634,0,0,1-8.719-10.807,62.344,62.344,0,0,1-5.405-13.486,90.08,90.08,0,0,1-2.769-15.258q-.774-7.992-.772-15.984A144.226,144.226,0,0,1,23,260.917,97.352,97.352,0,0,1,26.219,244.8a70.994,70.994,0,0,1,6.04-14.621,46.742,46.742,0,0,1,9.309-11.9,40.714,40.714,0,0,1,13.123-7.992,48.647,48.647,0,0,1,17.483-2.907A38.912,38.912,0,0,1,98.512,217.46a37.13,37.13,0,0,1,8.356,11.215,35.824,35.824,0,0,1,3.542,14.215H89.249a24.094,24.094,0,0,0-1.726-6.9,19.224,19.224,0,0,0-3.633-5.723,16.479,16.479,0,0,0-5.4-3.859A16.764,16.764,0,0,0,71.539,225q-16.8,0-22.978,15.894a76.739,76.739,0,0,0-4.269,16.846,129.86,129.86,0,0,0-1.271,18.119q0,6.63.59,12.941t1.59,12.125a55.838,55.838,0,0,0,2.543,9.309,27.2,27.2,0,0,0,4.314,7.721,19.028,19.028,0,0,0,6.629,5.222,21.658,21.658,0,0,0,9.491,1.907,22.7,22.7,0,0,0,10.445-2.27,21.709,21.709,0,0,0,7.356-5.994,25.057,25.057,0,0,0,4.313-8.674A37.141,37.141,0,0,0,91.7,297.927a35.554,35.554,0,0,0-1.453-10.219,24.81,24.81,0,0,0-4.36-8.49,20.987,20.987,0,0,0-7.265-5.767,22.892,22.892,0,0,0-10.172-2.135,22.641,22.641,0,0,0-10.263,2.271,21.754,21.754,0,0,0-7.992,7.174q-.273-4.086-.273-8.082,0-2.815.137-5.5t.317-5.4a29.113,29.113,0,0,1,9.945-5.405,40.233,40.233,0,0,1,12.216-1.771,40.492,40.492,0,0,1,16.938,3.406,37.209,37.209,0,0,1,12.669,9.264,40.993,40.993,0,0,1,7.946,13.76,50.967,50.967,0,0,1,2.771,16.982,50.183,50.183,0,0,1-3.134,18.027,41.8,41.8,0,0,1-8.809,14.168,38.313,38.313,0,0,1-5.593,4.82,2.83,2.83,0,0,0,1.661,5.126H123.66a2.821,2.821,0,0,0,2.822-2.659q1.537-28.176,28.52-46.656,6.357-4.632,13.26-8.992,25.521-16.162,25.975-33.785,0-9.264-3.27-13.805a24.449,24.449,0,0,0-7.538-6.9A21.822,21.822,0,0,0,172.622,225q-6.63,0-10.808,2.543-11.171,6.811-11.807,30.062H128.755q0-22.251,11.807-36.238t33.059-13.987q21.252,0,32.877,13.715,8.991,10.989,8.991,26.246,0,20.075-18.255,35.512a149.736,149.736,0,0,1-18.073,13.35q-9.447,5.994-14.168,9.537-10.809,8.082-13.169,15.439h63.483v16.146a2.835,2.835,0,0,0,2.835,2.835h25.521a2.838,2.838,0,0,0,2.821-2.606q3.795-43.308,31.217-84.219A235.352,235.352,0,0,1,296.5,228.9H229.021V209.921h89.1v17.711Q285.6,264.142,274.7,307.009a187.98,187.98,0,0,0-4.936,30.086,2.834,2.834,0,0,0,2.829,3.063h64.726a2.834,2.834,0,0,0,2.834-2.835V2.835A2.835,2.835,0,0,0,337.322,0Z"/>
      </g>
    </g>
</svg>
