<svg xmlns="http://www.w3.org/2000/svg" width="120mm" height="120mm" viewBox="0 0 340.157 340.157">
  <g id="Zimmernummer">
      <g id="Z-03-436">
        <path fill="#000000" stroke="none" d="M337.323,0H2.835A2.835,2.835,0,0,0,0,2.835V337.323a2.834,2.834,0,0,0,2.834,2.834H73.427a2.834,2.834,0,0,0,2.834-2.834V235.26h-.454L36.755,292.568h32.7v16.711H20.407V288.3l55.854-78.377H96.333v82.646h16.711v16.711H96.333v28.044a2.834,2.834,0,0,0,2.834,2.834H140.6a2.835,2.835,0,0,0,1.6-5.172q-9.39-6.654-13.987-18.985a57.908,57.908,0,0,1-3.179-18.619h21.252q-.273,11.9,5.9,19.8t17.71,7.9q11.534,0,18.709-5.994t7.175-17.256q0-13.623-10.808-18.891-7.629-3.723-23.25-3.269v-15.8q19.345.636,26.338-10.353,2.452-4.088,2.452-11.262a15.673,15.673,0,0,0-5.63-12.17,18.69,18.69,0,0,0-12.9-5.086q-17.71-.09-22.16,16.893a32.531,32.531,0,0,0-1.09,9.716H127.484q.728-18.981,12.17-31.6t30.97-12.623a47.989,47.989,0,0,1,28.7,8.99q12.442,9.083,12.442,25.793,0,21.344-18.436,27.883v.363a27.2,27.2,0,0,1,17.437,11.08,33.6,33.6,0,0,1,6.267,19.8q-.09,19.546-13.4,30.427a2.937,2.937,0,0,1-.468.313L198,334.832a2.834,2.834,0,0,0,1.354,5.325h49.21a2.834,2.834,0,0,0,1.4-5.3l-3.106-1.77a3.054,3.054,0,0,1-.5-.355,38.661,38.661,0,0,1-8.486-10.6,62.351,62.351,0,0,1-5.405-13.488,90.08,90.08,0,0,1-2.769-15.258q-.774-7.989-.773-15.985a144.163,144.163,0,0,1,.955-16.482,97.208,97.208,0,0,1,3.223-16.121,71.012,71.012,0,0,1,6.04-14.623,46.7,46.7,0,0,1,9.309-11.9,40.714,40.714,0,0,1,13.123-7.992,48.666,48.666,0,0,1,17.483-2.906,38.923,38.923,0,0,1,26.338,10.08,37.143,37.143,0,0,1,8.356,11.217,35.819,35.819,0,0,1,3.542,14.213H296.137a24.091,24.091,0,0,0-1.725-6.9,19.209,19.209,0,0,0-3.633-5.72,16.467,16.467,0,0,0-5.4-3.86A16.753,16.753,0,0,0,278.427,225q-16.8,0-22.977,15.893a76.791,76.791,0,0,0-4.269,16.847,129.86,129.86,0,0,0-1.271,18.119q0,6.63.59,12.942t1.59,12.125a55.826,55.826,0,0,0,2.543,9.308,27.214,27.214,0,0,0,4.314,7.721,19.06,19.06,0,0,0,6.629,5.221,21.672,21.672,0,0,0,9.491,1.908,22.7,22.7,0,0,0,10.444-2.271,21.657,21.657,0,0,0,7.357-6,25.078,25.078,0,0,0,4.313-8.671,37.165,37.165,0,0,0,1.409-10.219,35.5,35.5,0,0,0-1.454-10.217,24.8,24.8,0,0,0-4.359-8.492,20.978,20.978,0,0,0-7.266-5.766,24.8,24.8,0,0,0-20.434.135,21.744,21.744,0,0,0-7.992,7.176q-.273-4.088-.273-8.084,0-2.812.137-5.494t.317-5.405a29.14,29.14,0,0,1,9.945-5.4,43.467,43.467,0,0,1,29.154,1.635,37.194,37.194,0,0,1,12.669,9.263,41,41,0,0,1,7.946,13.758,50.981,50.981,0,0,1,2.771,16.985,50.187,50.187,0,0,1-3.134,18.027,41.821,41.821,0,0,1-8.809,14.168,42.96,42.96,0,0,1-5.635,4.822,2.829,2.829,0,0,0,1.664,5.122h33.486a2.834,2.834,0,0,0,2.834-2.834V2.834A2.834,2.834,0,0,0,337.323,0Z"/>
      </g>
    </g>
</svg>
