<svg xmlns="http://www.w3.org/2000/svg" width="120mm" height="120mm" viewBox="0 0 340.158 340.157">
  <g id="Zimmernummer">
      <g id="Z-03-026-M">
        <path fill="#D4AF37" stroke="none" d="M337.323,0H2.835A2.835,2.835,0,0,0,0,2.835V337.323a2.834,2.834,0,0,0,2.834,2.834H115.623a2.821,2.821,0,0,0,2.821-2.649q1.627-28.032,28.5-46.443,6.357-4.63,13.26-8.991,25.52-16.164,25.975-33.785,0-9.264-3.27-13.8a24.447,24.447,0,0,0-7.538-6.9,21.829,21.829,0,0,0-10.808-2.361q-6.63,0-10.807,2.543-11.171,6.811-11.807,30.061H120.7q0-22.251,11.807-36.237T165.564,207.6q21.252,0,32.877,13.713,8.993,10.99,8.992,26.247,0,20.073-18.255,35.511A149.57,149.57,0,0,1,171.1,296.424q-9.446,5.994-14.167,9.536-10.811,8.085-13.169,15.439h63.483v15.924a2.834,2.834,0,0,0,2.835,2.834h29.026a2.819,2.819,0,0,0,1.6-5.13q-1.226-.889-2.359-1.867a38.7,38.7,0,0,1-8.719-10.806,62.43,62.43,0,0,1-5.4-13.488,90.062,90.062,0,0,1-2.77-15.258q-.772-7.99-.772-15.984a144.406,144.406,0,0,1,.954-16.483,97.435,97.435,0,0,1,3.224-16.121,70.933,70.933,0,0,1,6.04-14.623,46.693,46.693,0,0,1,9.309-11.9,40.7,40.7,0,0,1,13.123-7.992,48.64,48.64,0,0,1,17.483-2.906,38.91,38.91,0,0,1,26.338,10.081,37.134,37.134,0,0,1,8.356,11.215,35.845,35.845,0,0,1,3.542,14.214H287.9a24.076,24.076,0,0,0-1.725-6.9,19.219,19.219,0,0,0-3.633-5.722,16.489,16.489,0,0,0-5.4-3.859,16.756,16.756,0,0,0-6.948-1.408q-16.8,0-22.977,15.893a76.777,76.777,0,0,0-4.269,16.847,129.849,129.849,0,0,0-1.271,18.119q0,6.63.59,12.941t1.59,12.125a55.811,55.811,0,0,0,2.543,9.309,27.223,27.223,0,0,0,4.313,7.721,19.05,19.05,0,0,0,6.63,5.221,21.651,21.651,0,0,0,9.491,1.908,22.693,22.693,0,0,0,10.444-2.271,21.689,21.689,0,0,0,7.357-5.994,25.107,25.107,0,0,0,4.314-8.673,37.19,37.19,0,0,0,1.408-10.218,35.5,35.5,0,0,0-1.454-10.217,24.826,24.826,0,0,0-4.359-8.492,20.99,20.99,0,0,0-7.266-5.766,22.871,22.871,0,0,0-10.171-2.135,22.641,22.641,0,0,0-10.263,2.271,21.738,21.738,0,0,0-7.992,7.174q-.273-4.086-.273-8.083,0-2.814.136-5.5t.318-5.4a29.109,29.109,0,0,1,9.945-5.4,43.471,43.471,0,0,1,29.153,1.634A37.194,37.194,0,0,1,300.8,267.5a41.024,41.024,0,0,1,7.947,13.759,51,51,0,0,1,2.77,16.983,50.214,50.214,0,0,1-3.134,18.028,41.837,41.837,0,0,1-8.809,14.168,38.258,38.258,0,0,1-5.294,4.605,2.83,2.83,0,0,0,1.672,5.116h41.375a2.834,2.834,0,0,0,2.835-2.834V2.834A2.834,2.834,0,0,0,337.323,0Z"/>
      </g>
    </g>
</svg>
