<svg xmlns="http://www.w3.org/2000/svg" width="120mm" height="120mm" viewBox="0 0 340.157 340.158">
  <g id="Zimmernummer">
      <g id="Z-03-617">
        <path fill="#000000" stroke="none" d="M337.323,0H2.835A2.835,2.835,0,0,0,0,2.835V337.323a2.835,2.835,0,0,0,2.835,2.835H50.019a2.835,2.835,0,0,0,1.6-5.168q-1.365-.972-2.617-2.053a38.631,38.631,0,0,1-8.718-10.807,62.293,62.293,0,0,1-5.4-13.486,89.981,89.981,0,0,1-2.769-15.258q-.774-7.992-.773-15.984a144.454,144.454,0,0,1,.954-16.485A97.353,97.353,0,0,1,35.519,244.8a70.939,70.939,0,0,1,6.04-14.621,46.72,46.72,0,0,1,9.309-11.9,40.714,40.714,0,0,1,13.123-7.992,48.643,48.643,0,0,1,17.483-2.907,38.912,38.912,0,0,1,26.338,10.082,37.127,37.127,0,0,1,8.355,11.215,35.79,35.79,0,0,1,3.542,14.215H98.548a24.06,24.06,0,0,0-1.725-6.9,19.224,19.224,0,0,0-3.633-5.723,16.489,16.489,0,0,0-5.4-3.859A16.769,16.769,0,0,0,80.838,225q-16.8,0-22.977,15.894a76.739,76.739,0,0,0-4.269,16.846,129.86,129.86,0,0,0-1.271,18.119q0,6.63.59,12.941T54.5,300.923a56.031,56.031,0,0,0,2.543,9.309,27.227,27.227,0,0,0,4.315,7.721,19.028,19.028,0,0,0,6.629,5.222,21.658,21.658,0,0,0,9.491,1.907,22.69,22.69,0,0,0,10.444-2.27,21.712,21.712,0,0,0,7.357-5.994,25.075,25.075,0,0,0,4.313-8.674A37.14,37.14,0,0,0,101,297.927a35.52,35.52,0,0,0-1.453-10.219,24.808,24.808,0,0,0-4.359-8.49,20.981,20.981,0,0,0-7.266-5.767,22.886,22.886,0,0,0-10.172-2.135,22.64,22.64,0,0,0-10.262,2.271,21.739,21.739,0,0,0-7.992,7.174q-.273-4.086-.273-8.082,0-2.815.137-5.5t.317-5.4a29.1,29.1,0,0,1,9.945-5.405,40.226,40.226,0,0,1,12.215-1.771,40.493,40.493,0,0,1,16.939,3.406,37.209,37.209,0,0,1,12.669,9.264,41.01,41.01,0,0,1,7.946,13.76,50.967,50.967,0,0,1,2.771,16.982,50.183,50.183,0,0,1-3.134,18.027,41.817,41.817,0,0,1-8.809,14.168,37.063,37.063,0,0,1-5.623,4.81,2.83,2.83,0,0,0,1.648,5.136h61.218a2.834,2.834,0,0,0,2.834-2.835V248.248H138.328V231.537q22.886,0,33.149-11.534a20.3,20.3,0,0,0,4.723-10.082h17.346v127.4a2.835,2.835,0,0,0,2.835,2.835h37.982a2.838,2.838,0,0,0,2.821-2.606q3.8-43.308,31.217-84.219A235.222,235.222,0,0,1,287.2,228.9h-67.48V209.921h89.095v17.711Q276.3,264.142,265.4,307.009a188.092,188.092,0,0,0-4.936,30.086,2.834,2.834,0,0,0,2.829,3.063h74.025a2.835,2.835,0,0,0,2.835-2.835V2.834A2.834,2.834,0,0,0,337.323,0Z"/>
      </g>
    </g>
</svg>
