<svg xmlns="http://www.w3.org/2000/svg" width="120mm" height="120mm" viewBox="0 0 340.157 340.158">
  <g id="Zimmernummer">
      <g id="Z-03-524-M">
        <path fill="#D4AF37" stroke="none" d="M337.323,0H2.835A2.835,2.835,0,0,0,0,2.835V337.323a2.834,2.834,0,0,0,2.834,2.835H36.686a2.831,2.831,0,0,0,1.525-5.215q-1.722-1.126-3.318-2.414Q22.176,322.268,21.452,303.1h21.16q.909,10.716,7.266,16.347t16.711,5.631q23.795,0,24.25-28.609,0-18.344-13.715-24.975a24.493,24.493,0,0,0-11.08-2.18q-16.62,0-20.979,11.9H23.813L37.8,209.922h67.3V228.9H53.6l-6.72,33.151.363.363q8.807-9.9,25.611-9.9a39.5,39.5,0,0,1,15.711,3.269q14.985,6.452,20.707,22.979A50.861,50.861,0,0,1,112,295.293q0,18.71-10.535,31.969a42.794,42.794,0,0,1-8.055,7.8,2.84,2.84,0,0,0,1.728,5.1H122.8a2.821,2.821,0,0,0,2.822-2.659q1.536-28.176,28.519-46.657,6.358-4.632,13.26-8.99,25.521-16.167,25.975-33.786,0-9.263-3.27-13.8a24.436,24.436,0,0,0-7.537-6.9A21.826,21.826,0,0,0,171.759,225q-6.63,0-10.807,2.543-11.171,6.811-11.807,30.061H127.893q0-22.251,11.807-36.237t33.059-13.986q21.252,0,32.876,13.713,8.993,10.989,8.991,26.248,0,20.071-18.254,35.51A149.755,149.755,0,0,1,178.3,296.2q-9.445,5.994-14.168,9.535-10.807,8.087-13.168,15.44h63.482v16.147a2.835,2.835,0,0,0,2.835,2.835H279.09a2.835,2.835,0,0,0,2.835-2.835V235.26h-.456l-39.052,57.308h32.7v16.711H226.069V288.3l55.856-78.377H302v82.646h16.711v16.711H302v28.044a2.835,2.835,0,0,0,2.835,2.835h32.493a2.834,2.834,0,0,0,2.834-2.835V2.835A2.834,2.834,0,0,0,337.323,0Z"/>
      </g>
    </g>
</svg>
