<svg xmlns="http://www.w3.org/2000/svg" width="120mm" height="120mm" viewBox="0 0 340.157 340.158">
  <g id="Zimmernummer">
      <g id="Z-03-544">
        <path fill="#000000" stroke="none" d="M337.322,0H2.834A2.834,2.834,0,0,0,0,2.834V337.323a2.834,2.834,0,0,0,2.834,2.835H36.686a2.831,2.831,0,0,0,1.524-5.215,40.873,40.873,0,0,1-3.317-2.414Q22.176,322.268,21.451,303.1H42.612q.907,10.716,7.266,16.347t16.711,5.631q23.793,0,24.249-28.609,0-18.344-13.714-24.975a24.493,24.493,0,0,0-11.08-2.18q-16.62,0-20.98,11.9H23.812L37.8,209.922h67.3V228.9H53.6l-6.721,33.151.363.363q8.808-9.9,25.611-9.9a39.5,39.5,0,0,1,15.712,3.269q14.987,6.452,20.707,22.979A50.861,50.861,0,0,1,112,295.293q0,18.71-10.535,31.969a42.794,42.794,0,0,1-8.055,7.8,2.84,2.84,0,0,0,1.727,5.1h80.6a2.834,2.834,0,0,0,2.834-2.835V235.26h-.454l-39.053,57.308h32.7v16.711H122.716V288.3l55.854-78.377h20.072v82.646h16.711v16.711H198.642v28.044a2.834,2.834,0,0,0,2.834,2.835h77.613a2.835,2.835,0,0,0,2.835-2.835V235.26h-.454l-39.053,57.308h32.7v16.711H226.069V288.3l55.855-78.377H302v82.646h16.711v16.711H302v28.044a2.835,2.835,0,0,0,2.835,2.835h32.493a2.834,2.834,0,0,0,2.834-2.835V2.835A2.835,2.835,0,0,0,337.322,0Z"/>
      </g>
    </g>
</svg>
