<svg xmlns="http://www.w3.org/2000/svg" width="120mm" height="120mm" viewBox="0 0 340.158 340.157">
  <g id="Zimmernummer">
      <g id="Z-03-023-R">
        <path fill="#A0552B" stroke="none" d="M337.323,0H2.835A2.835,2.835,0,0,0,0,2.835V337.323a2.834,2.834,0,0,0,2.834,2.834H114.986a2.822,2.822,0,0,0,2.822-2.649q1.626-28.032,28.5-46.443,6.355-4.63,13.26-8.991,25.521-16.164,25.974-33.785,0-9.264-3.269-13.8a24.436,24.436,0,0,0-7.538-6.9,21.826,21.826,0,0,0-10.808-2.361q-6.63,0-10.807,2.543-11.172,6.811-11.807,30.061H120.062q0-22.251,11.807-36.237T164.927,207.6q21.252,0,32.877,13.713,8.991,10.99,8.991,26.248,0,20.072-18.254,35.51a149.57,149.57,0,0,1-18.074,13.351q-9.447,5.994-14.168,9.536Q145.49,314.045,143.13,321.4h63.484v15.924a2.834,2.834,0,0,0,2.834,2.834H234.8a2.828,2.828,0,0,0,1.647-5.129q-9.216-6.635-13.761-18.805A57.918,57.918,0,0,1,219.51,297.6h21.252q-.272,11.9,5.9,19.8t17.709,7.9q11.534,0,18.709-5.994t7.175-17.256q0-13.623-10.807-18.891-7.629-3.723-23.25-3.269v-15.8q19.344.636,26.338-10.354,2.451-4.086,2.452-11.261a15.671,15.671,0,0,0-5.631-12.17,18.69,18.69,0,0,0-12.9-5.086q-17.709-.09-22.16,16.892a32.577,32.577,0,0,0-1.09,9.718H221.962q.728-18.981,12.17-31.6T265.1,207.6a47.989,47.989,0,0,1,28.7,8.991q12.443,9.081,12.443,25.793,0,21.342-18.437,27.882v.363a27.209,27.209,0,0,1,17.438,11.08,33.613,33.613,0,0,1,6.266,19.8q-.09,19.707-13.623,30.606-1.9,1.532-3.914,2.847a2.829,2.829,0,0,0,1.556,5.194h41.793a2.835,2.835,0,0,0,2.835-2.835V2.834A2.834,2.834,0,0,0,337.323,0Z"/>
      </g>
    </g>
</svg>
