<svg xmlns="http://www.w3.org/2000/svg" width="120mm" height="120mm" viewBox="0 0 340.157 340.157">
  <g id="Zimmernummer">
      <g id="Z-03-319-E">
        <path fill="#A09f9d" stroke="none" d="M337.323,0H2.835A2.835,2.835,0,0,0,0,2.835V337.323a2.834,2.834,0,0,0,2.834,2.834H47.813a2.828,2.828,0,0,0,1.672-5.111q-9.015-6.613-13.493-18.6a57.88,57.88,0,0,1-3.179-18.618H54.065q-.271,11.9,5.9,19.8t17.71,7.9q11.534,0,18.709-5.994t7.175-17.256q0-13.623-10.807-18.89-7.629-3.724-23.25-3.27v-15.8q19.344.636,26.338-10.353,2.451-4.088,2.452-11.262a15.676,15.676,0,0,0-5.631-12.17,18.7,18.7,0,0,0-12.9-5.086q-17.709-.089-22.16,16.893a32.573,32.573,0,0,0-1.09,9.718H35.265q.726-18.982,12.17-31.606t30.97-12.624a47.989,47.989,0,0,1,28.7,8.991q12.441,9.083,12.443,25.793,0,21.344-18.437,27.882v.364a27.205,27.205,0,0,1,17.438,11.08,33.61,33.61,0,0,1,6.266,19.8q-.091,19.708-13.623,30.607-1.746,1.406-3.586,2.629a2.829,2.829,0,0,0,1.564,5.189h56.589a2.835,2.835,0,0,0,2.835-2.834v-88.63H136.624V231.982q22.887,0,33.149-11.534a20.3,20.3,0,0,0,4.723-10.081h17.347V337.323a2.834,2.834,0,0,0,2.834,2.834h37.976a2.829,2.829,0,0,0,1.768-5.045q-1.2-.93-2.327-1.956a37.058,37.058,0,0,1-8.355-11.217,35.751,35.751,0,0,1-3.542-14.212h21.161a24.045,24.045,0,0,0,1.726,6.9,19.2,19.2,0,0,0,3.633,5.722,16.486,16.486,0,0,0,5.4,3.86,16.767,16.767,0,0,0,6.947,1.407q16.8,0,22.978-15.893a76.742,76.742,0,0,0,4.268-16.848,129.815,129.815,0,0,0,1.272-18.118q0-6.629-.59-12.943t-1.59-12.124a55.987,55.987,0,0,0-2.543-9.309,27.287,27.287,0,0,0-4.313-7.719,19.085,19.085,0,0,0-6.63-5.223,21.673,21.673,0,0,0-9.492-1.907,22.7,22.7,0,0,0-10.444,2.271,21.656,21.656,0,0,0-7.356,5.994,25.092,25.092,0,0,0-4.314,8.628,36.99,36.99,0,0,0-1.408,10.262,35.446,35.446,0,0,0,1.453,10.217,24.764,24.764,0,0,0,4.359,8.492,20.981,20.981,0,0,0,7.266,5.768,22.872,22.872,0,0,0,10.172,2.134,22.637,22.637,0,0,0,10.263-2.271,21.746,21.746,0,0,0,7.992-7.175q.273,4.088.272,8.084,0,2.814-.135,5.494t-.319,5.4a29.1,29.1,0,0,1-9.944,5.4,43.48,43.48,0,0,1-29.153-1.635,37.231,37.231,0,0,1-12.67-9.263,41,41,0,0,1-7.947-13.76,50.973,50.973,0,0,1-2.77-16.983,50.228,50.228,0,0,1,3.134-18.029,41.86,41.86,0,0,1,8.809-14.168,39.632,39.632,0,0,1,13.668-9.263,45.811,45.811,0,0,1,17.71-3.315,50.8,50.8,0,0,1,17.211,2.634,39.709,39.709,0,0,1,12.624,7.22,38.734,38.734,0,0,1,8.719,10.808,62.491,62.491,0,0,1,5.4,13.487,90.385,90.385,0,0,1,2.771,15.257q.77,7.994.771,15.985a144.824,144.824,0,0,1-.953,16.438,97.413,97.413,0,0,1-3.225,16.166,71.033,71.033,0,0,1-6.039,14.622,46.769,46.769,0,0,1-9.309,11.9,37.858,37.858,0,0,1-3.307,2.708,2.829,2.829,0,0,0,1.676,5.11h49.915a2.834,2.834,0,0,0,2.834-2.834V2.835A2.834,2.834,0,0,0,337.323,0Z"/>
      </g>
    </g>
</svg>
