<svg xmlns="http://www.w3.org/2000/svg" width="120mm" height="120mm" viewBox="0 0 340.158 340.157">
  <g id="Zimmernummer">
      <g id="Z-03-240-E">
        <path fill="#A09f9d" stroke="none" d="M337.323,0H2.835A2.835,2.835,0,0,0,0,2.835V337.323a2.834,2.834,0,0,0,2.834,2.834H21.949a2.822,2.822,0,0,0,2.822-2.645q1.662-27.975,28.495-46.36,6.355-4.632,13.259-8.991Q92.045,266,92.5,248.376q0-9.264-3.27-13.805a24.436,24.436,0,0,0-7.538-6.9,21.825,21.825,0,0,0-10.807-2.361q-6.632,0-10.808,2.543-11.17,6.811-11.807,30.061H27.019q0-22.251,11.806-36.237t33.059-13.987q21.252,0,32.877,13.714,8.991,10.991,8.991,26.247,0,20.073-18.255,35.511a149.744,149.744,0,0,1-18.073,13.351q-9.447,5.994-14.168,9.536-10.809,8.085-13.169,15.439H113.57v15.837a2.834,2.834,0,0,0,2.835,2.834h59.02a2.834,2.834,0,0,0,2.835-2.834V235.57h-.454l-39.053,57.308h32.7v16.711H122.405v-20.98l55.855-78.378h20.071v82.647h16.711v16.711H198.331v27.734a2.834,2.834,0,0,0,2.835,2.834h42.45a2.837,2.837,0,0,0,1.694-5.107,33.633,33.633,0,0,1-3.269-2.893,42.866,42.866,0,0,1-8.22-11.761,75.665,75.665,0,0,1-5.131-14.3,105.2,105.2,0,0,1-2.679-15.531q-.772-7.946-.772-15.485,0-6.993.681-14.531a106.083,106.083,0,0,1,2.407-14.85A78.533,78.533,0,0,1,233,231.756,44.291,44.291,0,0,1,240.588,220a37.745,37.745,0,0,1,11.08-8.4,38.573,38.573,0,0,1,15.167-3.815v17.8Q246.4,228.94,246.4,275.35q0,3.9.182,9.172a103.951,103.951,0,0,0,.953,10.808,79.607,79.607,0,0,0,2.317,10.944,37.53,37.53,0,0,0,4.177,9.627,22.07,22.07,0,0,0,6.63,6.857,17.086,17.086,0,0,0,9.627,2.634q23.7,0,23.7-50.042,0-46.229-20.344-49.77v-17.8a38.578,38.578,0,0,1,15.167,3.815,36.821,36.821,0,0,1,11.035,8.446,46.7,46.7,0,0,1,7.584,11.807,76.36,76.36,0,0,1,4.722,13.941,106.316,106.316,0,0,1,2.407,14.849q.681,7.539.681,14.531,0,7.629-.772,15.667a100.257,100.257,0,0,1-2.725,15.575,74.984,74.984,0,0,1-5.222,14.214,42.746,42.746,0,0,1-8.31,11.67,35.96,35.96,0,0,1-3.2,2.815,2.829,2.829,0,0,0,1.76,5.048h40.551a2.835,2.835,0,0,0,2.835-2.834V2.834A2.835,2.835,0,0,0,337.323,0Z"/>
      </g>
    </g>
</svg>
