<svg xmlns="http://www.w3.org/2000/svg" width="120mm" height="120mm" viewBox="0 0 340.158 340.157">
  <g id="Zimmernummer">
      <g id="Z-03-034-M">
        <path fill="#D4AF37" stroke="none" d="M337.323,0H2.835A2.835,2.835,0,0,0,0,2.835V337.323a2.834,2.834,0,0,0,2.834,2.834H131.755a2.828,2.828,0,0,0,1.647-5.129q-9.216-6.635-13.761-18.805a57.918,57.918,0,0,1-3.179-18.619h21.252q-.273,11.9,5.9,19.8t17.71,7.9q11.534,0,18.709-5.994t7.175-17.256q0-13.623-10.807-18.891-7.629-3.723-23.25-3.269v-15.8q19.344.636,26.337-10.354,2.452-4.086,2.453-11.261a15.671,15.671,0,0,0-5.631-12.17,18.69,18.69,0,0,0-12.9-5.086q-17.709-.09-22.16,16.892a32.545,32.545,0,0,0-1.09,9.718H118.914q.728-18.981,12.17-31.6t30.97-12.624a47.989,47.989,0,0,1,28.7,8.991q12.443,9.081,12.443,25.793,0,21.342-18.437,27.882v.363a27.209,27.209,0,0,1,17.438,11.08,33.613,33.613,0,0,1,6.266,19.8q-.09,19.707-13.623,30.606-1.9,1.532-3.914,2.847a2.828,2.828,0,0,0,1.555,5.194h79.083a2.834,2.834,0,0,0,2.835-2.834V235.483h-.454l-39.053,57.308h32.695V309.5H218.544v-20.98L274.4,210.145H294.47v82.646h16.711V309.5H294.47v27.821a2.834,2.834,0,0,0,2.835,2.834h40.018a2.834,2.834,0,0,0,2.835-2.834V2.834A2.834,2.834,0,0,0,337.323,0Z"/>
      </g>
    </g>
</svg>
