<svg xmlns="http://www.w3.org/2000/svg" width="120mm" height="120mm" viewBox="0 0 340.158 340.157">
  <g id="Zimmernummer">
      <g id="Z-03-320-E">
        <path fill="#A09f9d" stroke="none" d="M337.323,0H2.835A2.835,2.835,0,0,0,0,2.835V337.323a2.834,2.834,0,0,0,2.834,2.834H39.672a2.828,2.828,0,0,0,1.673-5.111q-9.016-6.613-13.494-18.6a57.851,57.851,0,0,1-3.179-18.617H45.924q-.273,11.9,5.9,19.8t17.71,7.9q11.533,0,18.709-5.994t7.175-17.256q0-13.623-10.808-18.89-7.629-3.724-23.25-3.27v-15.8q19.346.636,26.338-10.353,2.453-4.088,2.452-11.262a15.677,15.677,0,0,0-5.631-12.17,18.692,18.692,0,0,0-12.9-5.086q-17.711-.087-22.16,16.893a32.544,32.544,0,0,0-1.09,9.719H27.124q.725-18.982,12.17-31.606t30.97-12.625a47.992,47.992,0,0,1,28.7,8.992q12.441,9.083,12.442,25.793,0,21.344-18.436,27.881v.364a27.207,27.207,0,0,1,17.437,11.08,33.606,33.606,0,0,1,6.267,19.8q-.093,19.709-13.623,30.608-1.747,1.406-3.586,2.629a2.829,2.829,0,0,0,1.563,5.189h22.125a2.821,2.821,0,0,0,2.821-2.639q1.716-27.888,28.484-46.23,6.356-4.632,13.26-8.992,25.519-16.162,25.974-33.785,0-9.264-3.269-13.805a24.449,24.449,0,0,0-7.538-6.9,21.815,21.815,0,0,0-10.808-2.362q-6.63,0-10.807,2.543Q150.1,234.8,149.462,258.048H128.21q0-22.251,11.807-36.238t33.058-13.987q21.252,0,32.877,13.715,8.991,10.989,8.991,26.246,0,20.074-18.255,35.512a149.685,149.685,0,0,1-18.073,13.35q-9.447,5.994-14.168,9.537-10.809,8.082-13.169,15.439h63.484v15.7a2.834,2.834,0,0,0,2.834,2.834h29.252a2.829,2.829,0,0,0,1.778-5.034,35.172,35.172,0,0,1-3.167-2.831,42.894,42.894,0,0,1-8.219-11.76,75.582,75.582,0,0,1-5.132-14.3A105.169,105.169,0,0,1,229.43,290.7q-.774-7.946-.773-15.484,0-6.993.682-14.531a106.2,106.2,0,0,1,2.406-14.85,78.364,78.364,0,0,1,4.678-13.939,44.293,44.293,0,0,1,7.583-11.762,37.779,37.779,0,0,1,11.08-8.4,38.578,38.578,0,0,1,15.167-3.814v17.8q-20.434,3.36-20.435,49.769,0,3.906.182,9.172a104.025,104.025,0,0,0,.954,10.809,79.7,79.7,0,0,0,2.315,10.943,37.586,37.586,0,0,0,4.178,9.627,22.085,22.085,0,0,0,6.63,6.858,17.1,17.1,0,0,0,9.627,2.632q23.7,0,23.7-50.041,0-46.227-20.344-49.769v-17.8a38.578,38.578,0,0,1,15.167,3.814,36.842,36.842,0,0,1,11.036,8.446,46.71,46.71,0,0,1,7.583,11.806,76.32,76.32,0,0,1,4.722,13.942,106.216,106.216,0,0,1,2.407,14.849q.683,7.539.681,14.532,0,7.629-.771,15.666a100.507,100.507,0,0,1-2.725,15.576,75.027,75.027,0,0,1-5.223,14.213,42.728,42.728,0,0,1-8.309,11.67,35.812,35.812,0,0,1-3.036,2.684,2.829,2.829,0,0,0,1.764,5.044h36.963a2.835,2.835,0,0,0,2.835-2.834V2.834A2.835,2.835,0,0,0,337.323,0Z"/>
      </g>
    </g>
</svg>
