<svg xmlns="http://www.w3.org/2000/svg" width="120.001mm" height="119.997mm" viewBox="0 0 340.16 340.149">
  <g id="Zimmernummer">
      <g id="Z-03-202-E">
        <path fill="#A09f9d" stroke="none" d="M337.325,0H2.834A2.834,2.834,0,0,0,0,2.834V337.315a2.834,2.834,0,0,0,2.834,2.834h20.5a2.84,2.84,0,0,0,2.834-2.742c.006-.194.013-.355.019-.463a51.867,51.867,0,0,1,7.7-24.959,71.506,71.506,0,0,1,20.859-21.05q6.33-4.65,13.22-9.03a104.372,104.372,0,0,0,12.66-9.4,50.18,50.18,0,0,0,9.5-10.89,25.936,25.936,0,0,0,3.91-13.5,36.955,36.955,0,0,0-.84-7.55,20,20,0,0,0-3.26-7.44,19.276,19.276,0,0,0-6.7-5.78,22.934,22.934,0,0,0-10.672-2.317,20.812,20.812,0,0,0-11.028,2.507,18.861,18.861,0,0,0-6.7,6.89,34.094,34.094,0,0,0-3.72,10.33,74.229,74.229,0,0,0-1.4,12.85H28.489a66.466,66.466,0,0,1,2.89-20.01,44.187,44.187,0,0,1,8.66-15.92,40.283,40.283,0,0,1,13.919-10.53,47.048,47.048,0,0,1,20.2-3.805c6.521.072,13.219,1.015,19.131,3.905a38.111,38.111,0,0,1,12.94,9.87,36.082,36.082,0,0,1,6.99,12.94c2.6,8.882,2.978,18.714-.38,27.46a45.327,45.327,0,0,1-6.51,11.64,66.646,66.646,0,0,1-9.309,9.78q-5.221,4.47-10.8,8.38-5.595,3.9-11.18,7.44t-10.33,7.08a60.319,60.319,0,0,0-8.29,7.36,20.817,20.817,0,0,0-4.84,8.1h63.5v16.02a2.834,2.834,0,0,0,2.835,2.834H147.5a1.283,1.283,0,0,0,.649-2.373c-.61-.371-1.2-.761-1.771-1.181a44.116,44.116,0,0,1-13.781-16.39,72.8,72.8,0,0,1-6.7-21.88,155.565,155.565,0,0,1,0-46.18,72.973,72.973,0,0,1,6.7-21.88,44.084,44.084,0,0,1,13.781-16.38q7.56-5.49,18.86-6.27a1.282,1.282,0,0,1,1.37,1.29v15.27a1.281,1.281,0,0,1-1.051,1.28,15.8,15.8,0,0,0-8.009,3.7,27.554,27.554,0,0,0-7.26,10.89,66.028,66.028,0,0,0-3.82,15.92,159.845,159.845,0,0,0,0,38.64,64.663,64.663,0,0,0,3.82,15.92c2.278,5.732,6.208,11.573,12.257,13.732,5.963,2.129,13.319,1.256,18.183-2.932a27.076,27.076,0,0,0,7.36-10.8,64.663,64.663,0,0,0,3.82-15.92,160.048,160.048,0,0,0,0-38.64c-1.176-9.435-3.633-20.331-11.18-26.81a16.148,16.148,0,0,0-7.875-3.68,1.346,1.346,0,0,1-1.095-1.27v-15.3a1.287,1.287,0,0,1,1.37-1.29q11.295.8,18.87,6.27a44.184,44.184,0,0,1,13.78,16.38,73.29,73.29,0,0,1,6.7,21.88,156.848,156.848,0,0,1,0,46.18,73.112,73.112,0,0,1-6.7,21.88,44.216,44.216,0,0,1-13.78,16.39c-.569.419-1.168.808-1.766,1.177a1.284,1.284,0,0,0,.643,2.377h28.555a2.3,2.3,0,0,0,2.3-2.2v-.039a52.2,52.2,0,0,1,7.752-25.927,71.522,71.522,0,0,1,20.86-21.05q6.33-4.65,13.22-9.03a104.45,104.45,0,0,0,12.66-9.4,50.207,50.207,0,0,0,9.5-10.89,25.936,25.936,0,0,0,3.91-13.5,36.955,36.955,0,0,0-.84-7.55,20.017,20.017,0,0,0-3.26-7.44,19.276,19.276,0,0,0-6.7-5.78,22.941,22.941,0,0,0-10.673-2.317,20.81,20.81,0,0,0-11.027,2.507,18.854,18.854,0,0,0-6.7,6.89,34.094,34.094,0,0,0-3.72,10.33,74.131,74.131,0,0,0-1.4,12.85H224.08a66.466,66.466,0,0,1,2.89-20.01,44.187,44.187,0,0,1,8.66-15.92,40.813,40.813,0,0,1,14.06-10.53,46.648,46.648,0,0,1,20.059-3.805c6.521.072,13.219,1.015,19.131,3.905a38.111,38.111,0,0,1,12.94,9.87,36.112,36.112,0,0,1,6.99,12.94c2.6,8.883,2.978,18.713-.38,27.46a45.357,45.357,0,0,1-6.51,11.64,66.6,66.6,0,0,1-9.31,9.78q-5.22,4.47-10.8,8.38-5.6,3.9-11.18,7.44t-10.33,7.08a60.319,60.319,0,0,0-8.29,7.36,20.8,20.8,0,0,0-4.84,8.1h63.5v16.537a2.317,2.317,0,0,0,2.318,2.317h24.854a2.317,2.317,0,0,0,2.318-2.317v-335A2.834,2.834,0,0,0,337.325,0Z"/>
      </g>
    </g>
</svg>
