<svg xmlns="http://www.w3.org/2000/svg" width="120mm" height="120mm" viewBox="0 0 340.157 340.157">
  <g id="Zimmernummer">
      <g id="Z-03-213-R">
        <path fill="#A0552B" stroke="none" d="M337.323,0H2.835A2.835,2.835,0,0,0,0,2.835V337.323a2.834,2.834,0,0,0,2.834,2.834H34.367a2.821,2.821,0,0,0,2.821-2.645q1.662-27.977,28.5-46.362,6.356-4.63,13.259-8.991,25.52-16.164,25.975-33.785,0-9.264-3.27-13.805a24.436,24.436,0,0,0-7.538-6.9A21.822,21.822,0,0,0,83.3,225.306q-6.631,0-10.808,2.543Q61.325,234.66,60.688,257.91H39.436q0-22.251,11.807-36.237T84.3,207.687q21.252,0,32.877,13.713,8.991,10.99,8.991,26.247,0,20.073-18.255,35.511a149.638,149.638,0,0,1-18.073,13.351Q80.4,302.5,75.674,306.045q-10.809,8.085-13.169,15.439h63.483v15.839a2.834,2.834,0,0,0,2.835,2.834h40.583a2.834,2.834,0,0,0,2.835-2.834V248.556H140.272V231.845q22.887,0,33.15-11.534a20.288,20.288,0,0,0,4.722-10.082h17.347V337.323a2.834,2.834,0,0,0,2.835,2.834H233.24a2.828,2.828,0,0,0,1.656-5.122q-9.139-6.627-13.659-18.727a57.918,57.918,0,0,1-3.179-18.619H239.31q-.273,11.9,5.9,19.8t17.71,7.9q11.534,0,18.709-5.994t7.175-17.256q0-13.623-10.808-18.891-7.628-3.723-23.25-3.27v-15.8q19.346.636,26.338-10.354,2.452-4.086,2.452-11.261a15.673,15.673,0,0,0-5.63-12.17,18.692,18.692,0,0,0-12.9-5.086q-17.709-.09-22.16,16.892a32.545,32.545,0,0,0-1.09,9.718H220.51q.726-18.981,12.17-31.6t30.97-12.624a47.989,47.989,0,0,1,28.7,8.991q12.441,9.081,12.442,25.793,0,21.342-18.436,27.882v.363a27.2,27.2,0,0,1,17.437,11.08,33.6,33.6,0,0,1,6.267,19.8q-.092,19.707-13.623,30.606-1.842,1.483-3.789,2.764a2.829,2.829,0,0,0,1.558,5.192h43.118a2.834,2.834,0,0,0,2.834-2.834V2.834A2.834,2.834,0,0,0,337.323,0Z"/>
      </g>
    </g>
</svg>
