<svg xmlns="http://www.w3.org/2000/svg" width="120mm" height="120mm" viewBox="0 0 340.157 340.158">
  <g id="Zimmernummer">
      <g id="Z-03-509-E">
        <path fill="#A09f9d" stroke="none" d="M337.323,0H2.835A2.835,2.835,0,0,0,0,2.835V337.323a2.835,2.835,0,0,0,2.835,2.835H36.782A2.8,2.8,0,0,0,38.291,335a40.92,40.92,0,0,1-3.4-2.467Q22.176,322.268,21.451,303.1H42.613q.906,10.716,7.265,16.347t16.711,5.631q23.793,0,24.249-28.607,0-18.346-13.714-24.977a24.547,24.547,0,0,0-11.08-2.18q-16.62,0-20.979,11.9H23.813L37.8,209.922h67.3V228.9H53.6l-6.721,33.149.363.363q8.808-9.9,25.612-9.9a39.508,39.508,0,0,1,15.712,3.269q14.985,6.448,20.707,22.977A50.9,50.9,0,0,1,112,295.293q0,18.489-10.285,31.652a2.959,2.959,0,0,1-.574.555l-10.325,7.591a2.806,2.806,0,0,0,1.662,5.067h51.336a2.805,2.805,0,0,0,1.677-5.05,37.982,37.982,0,0,1-3.7-3.26,42.924,42.924,0,0,1-8.219-11.76,75.521,75.521,0,0,1-5.131-14.305,105.267,105.267,0,0,1-2.68-15.531q-.772-7.946-.771-15.484,0-6.994.681-14.532a106.067,106.067,0,0,1,2.406-14.849,78.455,78.455,0,0,1,4.678-13.94,44.272,44.272,0,0,1,7.583-11.761,37.779,37.779,0,0,1,11.08-8.4,38.565,38.565,0,0,1,15.167-3.814v17.8q-20.434,3.362-20.434,49.77,0,3.906.181,9.172a104.257,104.257,0,0,0,.954,10.808,79.721,79.721,0,0,0,2.316,10.944,37.581,37.581,0,0,0,4.178,9.627,22.078,22.078,0,0,0,6.629,6.857,17.1,17.1,0,0,0,9.627,2.633q23.7,0,23.705-50.041,0-46.227-20.344-49.77v-17.8a38.57,38.57,0,0,1,15.167,3.814A36.835,36.835,0,0,1,199.6,219.73a46.706,46.706,0,0,1,7.583,11.807,76.373,76.373,0,0,1,4.723,13.942,106.511,106.511,0,0,1,2.407,14.849q.679,7.539.681,14.531,0,7.629-.773,15.666a100.283,100.283,0,0,1-2.725,15.577,74.944,74.944,0,0,1-5.221,14.212,42.737,42.737,0,0,1-8.31,11.67,37.865,37.865,0,0,1-3.63,3.17,2.8,2.8,0,0,0,1.735,5h47.363a2.8,2.8,0,0,0,1.672-5.051q-1.473-1.115-2.865-2.4a37.056,37.056,0,0,1-8.356-11.217,35.751,35.751,0,0,1-3.542-14.213H251.5a24.043,24.043,0,0,0,1.726,6.9,19.212,19.212,0,0,0,3.633,5.722,16.446,16.446,0,0,0,5.4,3.86,16.748,16.748,0,0,0,6.947,1.408q16.8,0,22.978-15.895a76.733,76.733,0,0,0,4.268-16.847,129.815,129.815,0,0,0,1.272-18.118q0-6.629-.59-12.943t-1.59-12.123a56,56,0,0,0-2.543-9.31,27.279,27.279,0,0,0-4.314-7.719A19.075,19.075,0,0,0,282.061,227a21.675,21.675,0,0,0-9.491-1.906,22.729,22.729,0,0,0-10.445,2.269,21.671,21.671,0,0,0-7.356,6,25.11,25.11,0,0,0-4.314,8.628,37,37,0,0,0-1.408,10.262,35.446,35.446,0,0,0,1.453,10.217,24.749,24.749,0,0,0,4.36,8.492,20.957,20.957,0,0,0,7.265,5.768,24.8,24.8,0,0,0,20.435-.137,21.743,21.743,0,0,0,7.992-7.174q.273,4.087.272,8.082,0,2.815-.136,5.494t-.318,5.405a29.148,29.148,0,0,1-9.944,5.4,43.483,43.483,0,0,1-29.154-1.635A37.236,37.236,0,0,1,238.6,282.9a41.02,41.02,0,0,1-7.947-13.759,50.969,50.969,0,0,1-2.77-16.983,50.2,50.2,0,0,1,3.134-18.029,41.848,41.848,0,0,1,8.808-14.168,39.644,39.644,0,0,1,13.669-9.264,45.811,45.811,0,0,1,17.71-3.314,50.794,50.794,0,0,1,17.211,2.635,39.689,39.689,0,0,1,12.623,7.218,38.732,38.732,0,0,1,8.719,10.809,62.454,62.454,0,0,1,5.4,13.486,90.352,90.352,0,0,1,2.77,15.258q.771,7.992.772,15.985a144.6,144.6,0,0,1-.954,16.439,97.451,97.451,0,0,1-3.223,16.166A71.105,71.105,0,0,1,308.489,320a46.774,46.774,0,0,1-9.309,11.9,42.108,42.108,0,0,1-3.9,3.139,2.808,2.808,0,0,0,1.58,5.124h40.462a2.834,2.834,0,0,0,2.834-2.835V2.835A2.834,2.834,0,0,0,337.323,0Z"/>
      </g>
    </g>
</svg>
