<svg xmlns="http://www.w3.org/2000/svg" width="120mm" height="120mm" viewBox="0 0 340.157 340.157">
  <g id="Zimmernummer">
      <g id="Z-03-545-M">
        <path fill="#D4AF37" stroke="none" d="M337.323,0H2.834A2.834,2.834,0,0,0,0,2.834V337.323a2.834,2.834,0,0,0,2.834,2.834H36.686a2.831,2.831,0,0,0,1.524-5.215,40.634,40.634,0,0,1-3.317-2.414Q22.176,322.267,21.451,303.1H42.612q.907,10.716,7.266,16.347t16.711,5.631q23.793,0,24.249-28.608,0-18.345-13.714-24.976a24.52,24.52,0,0,0-11.08-2.18q-16.62,0-20.98,11.9H23.812L37.8,209.921h67.3V228.9H53.6l-6.721,33.15.363.363q8.808-9.9,25.611-9.9a39.5,39.5,0,0,1,15.712,3.269q14.987,6.45,20.707,22.978A50.865,50.865,0,0,1,112,295.292q0,18.711-10.535,31.969a42.8,42.8,0,0,1-8.055,7.8,2.839,2.839,0,0,0,1.727,5.1h80.6a2.834,2.834,0,0,0,2.834-2.834V235.26h-.454l-39.053,57.307h32.7v16.711H122.716V288.3l55.854-78.378h20.072v82.646h16.711v16.711H198.642v28.045a2.834,2.834,0,0,0,2.834,2.834h41.917a2.831,2.831,0,0,0,1.524-5.215,40.634,40.634,0,0,1-3.317-2.414q-12.717-10.262-13.442-29.425h21.161q.908,10.716,7.266,16.347t16.711,5.631q23.793,0,24.249-28.608,0-18.345-13.714-24.976a24.52,24.52,0,0,0-11.08-2.18q-16.62,0-20.98,11.9H230.52l13.986-71.294h67.3V228.9H260.309l-6.721,33.15.363.363q8.808-9.9,25.611-9.9a39.5,39.5,0,0,1,15.712,3.269q14.986,6.45,20.707,22.978a50.865,50.865,0,0,1,2.725,16.529q0,18.711-10.535,31.969a42.8,42.8,0,0,1-8.055,7.8,2.839,2.839,0,0,0,1.727,5.1h35.48a2.834,2.834,0,0,0,2.834-2.834V2.834A2.834,2.834,0,0,0,337.323,0Z"/>
      </g>
    </g>
</svg>
