<svg xmlns="http://www.w3.org/2000/svg" width="120mm" height="120mm" viewBox="0 0 340.157 340.157">
  <g id="Zimmernummer">
      <g id="Z-03-611-R">
        <path fill="#A0552B" stroke="none" d="M337.323,0H2.834A2.834,2.834,0,0,0,0,2.834V337.323a2.834,2.834,0,0,0,2.834,2.834H65.277a2.834,2.834,0,0,0,1.6-5.167q-1.365-.974-2.616-2.053a38.68,38.68,0,0,1-8.719-10.807,62.391,62.391,0,0,1-5.4-13.487,89.981,89.981,0,0,1-2.769-15.258q-.774-7.99-.773-15.985a144.406,144.406,0,0,1,.954-16.483A97.333,97.333,0,0,1,50.777,244.8a70.948,70.948,0,0,1,6.04-14.622,46.738,46.738,0,0,1,9.308-11.9,40.747,40.747,0,0,1,13.124-7.992,48.662,48.662,0,0,1,17.483-2.906,38.923,38.923,0,0,1,26.338,10.081,37.119,37.119,0,0,1,8.355,11.216,35.8,35.8,0,0,1,3.542,14.214H113.806a24.083,24.083,0,0,0-1.725-6.9,19.254,19.254,0,0,0-3.633-5.721,16.486,16.486,0,0,0-5.4-3.86A16.761,16.761,0,0,0,96.1,225q-16.8,0-22.977,15.894a76.768,76.768,0,0,0-4.269,16.846,129.718,129.718,0,0,0-1.271,18.119q0,6.63.589,12.942t1.59,12.125a55.923,55.923,0,0,0,2.543,9.308,27.227,27.227,0,0,0,4.315,7.721,19.051,19.051,0,0,0,6.629,5.222,21.666,21.666,0,0,0,9.491,1.907,22.705,22.705,0,0,0,10.444-2.27,21.68,21.68,0,0,0,7.357-6,25.074,25.074,0,0,0,4.313-8.672,37.152,37.152,0,0,0,1.408-10.218,35.508,35.508,0,0,0-1.453-10.218,24.831,24.831,0,0,0-4.359-8.491,21,21,0,0,0-7.266-5.767,22.875,22.875,0,0,0-10.172-2.135,22.64,22.64,0,0,0-10.262,2.271,21.743,21.743,0,0,0-7.993,7.175q-.271-4.088-.272-8.083,0-2.814.137-5.5t.317-5.4a29.121,29.121,0,0,1,9.944-5.4A40.206,40.206,0,0,1,97.1,254.6a40.478,40.478,0,0,1,16.939,3.407,37.2,37.2,0,0,1,12.669,9.263,41.025,41.025,0,0,1,7.946,13.759,50.979,50.979,0,0,1,2.77,16.984,50.209,50.209,0,0,1-3.133,18.027,41.837,41.837,0,0,1-8.809,14.168,38.374,38.374,0,0,1-5.593,4.82,2.829,2.829,0,0,0,1.661,5.125H182.72a2.834,2.834,0,0,0,2.834-2.834V248.247H153.585V231.536q22.887,0,33.15-11.534a20.3,20.3,0,0,0,4.723-10.081H208.8v127.4a2.834,2.834,0,0,0,2.835,2.834h55.834a2.834,2.834,0,0,0,2.835-2.834V248.247H238.339V231.536q22.887,0,33.15-11.534a20.289,20.289,0,0,0,4.722-10.081h17.347v127.4a2.834,2.834,0,0,0,2.835,2.834h40.93a2.834,2.834,0,0,0,2.834-2.834V2.834A2.834,2.834,0,0,0,337.323,0Z"/>
      </g>
    </g>
</svg>
