<svg xmlns="http://www.w3.org/2000/svg" width="120mm" height="120mm" viewBox="0 0 340.157 340.157">
  <g id="Zimmernummer">
      <g id="Z-03-435-M">
        <path fill="#D4AF37" stroke="none" d="M337.323,0H2.835A2.835,2.835,0,0,0,0,2.835V337.323a2.834,2.834,0,0,0,2.834,2.834H73.427a2.834,2.834,0,0,0,2.834-2.834V235.26h-.454L36.755,292.567h32.7v16.711H20.407V288.3l55.854-78.378H96.333v82.646h16.711v16.711H96.333v28.045a2.834,2.834,0,0,0,2.834,2.834H140.6a2.835,2.835,0,0,0,1.6-5.172Q132.81,328.331,128.211,316a57.907,57.907,0,0,1-3.179-18.618h21.252q-.273,11.9,5.9,19.8t17.71,7.9q11.534,0,18.709-5.994t7.175-17.256q0-13.623-10.808-18.891-7.629-3.723-23.25-3.269v-15.8q19.345.636,26.338-10.353,2.452-4.087,2.452-11.262a15.675,15.675,0,0,0-5.63-12.17,18.69,18.69,0,0,0-12.9-5.086q-17.71-.089-22.16,16.893a32.534,32.534,0,0,0-1.09,9.717H127.484q.728-18.981,12.17-31.6t30.97-12.624a47.989,47.989,0,0,1,28.7,8.991q12.442,9.083,12.442,25.793,0,21.344-18.436,27.882v.363a27.2,27.2,0,0,1,17.437,11.08,33.609,33.609,0,0,1,6.267,19.8q-.091,19.709-13.623,30.607a48.852,48.852,0,0,1-4.249,3.064,2.828,2.828,0,0,0,1.546,5.2h43.731a2.831,2.831,0,0,0,1.524-5.215,40.824,40.824,0,0,1-3.318-2.414Q229.929,322.267,229.2,303.1h21.161q.907,10.716,7.266,16.347t16.711,5.631q23.793,0,24.249-28.608,0-18.345-13.714-24.976a24.523,24.523,0,0,0-11.08-2.18q-16.62,0-20.98,11.9H231.564l13.987-71.294h67.3V228.9H261.353l-6.72,33.15.363.363q8.808-9.9,25.611-9.9a39.5,39.5,0,0,1,15.712,3.269q14.985,6.45,20.707,22.978a50.865,50.865,0,0,1,2.725,16.529q0,18.711-10.535,31.969a42.8,42.8,0,0,1-8.056,7.8,2.839,2.839,0,0,0,1.728,5.1h34.435a2.834,2.834,0,0,0,2.834-2.834V2.834A2.834,2.834,0,0,0,337.323,0Z"/>
      </g>
    </g>
</svg>
