<svg xmlns="http://www.w3.org/2000/svg" width="120mm" height="120mm" viewBox="0 0 340.157 340.157">
  <g id="Zimmernummer">
      <g id="Z-03-521-R">
        <path fill="#A0552B" stroke="none" d="M337.323,0H2.834A2.834,2.834,0,0,0,0,2.834V337.323a2.834,2.834,0,0,0,2.834,2.834H52.671a2.831,2.831,0,0,0,1.524-5.215,40.634,40.634,0,0,1-3.317-2.414Q38.16,322.267,37.436,303.1H58.6q.909,10.716,7.266,16.347t16.711,5.631q23.795,0,24.25-28.608,0-18.345-13.715-24.976a24.517,24.517,0,0,0-11.08-2.18q-16.62,0-20.978,11.9H39.8l13.986-71.294h67.3V228.9H69.587l-6.721,33.15.363.363q8.806-9.9,25.612-9.9a39.5,39.5,0,0,1,15.711,3.269q14.985,6.45,20.707,22.978a50.891,50.891,0,0,1,2.724,16.529q0,18.711-10.535,31.969a42.827,42.827,0,0,1-8.054,7.8,2.839,2.839,0,0,0,1.727,5.1h27.661A2.821,2.821,0,0,0,141.6,337.5q1.536-28.176,28.52-46.656,6.357-4.632,13.26-8.991,25.52-16.165,25.974-33.786,0-9.263-3.269-13.8a24.46,24.46,0,0,0-7.537-6.9A21.831,21.831,0,0,0,187.743,225q-6.63,0-10.807,2.543-11.171,6.811-11.806,30.062H143.878q0-22.251,11.806-36.238t33.059-13.986q21.252,0,32.877,13.714,8.991,10.989,8.99,26.247,0,20.073-18.254,35.511a149.668,149.668,0,0,1-18.074,13.35q-9.446,5.994-14.168,9.536-10.808,8.085-13.168,15.44h63.482v16.147a2.835,2.835,0,0,0,2.835,2.834h43.374a2.834,2.834,0,0,0,2.834-2.834V248.247H247.5V231.536q22.886,0,33.15-11.534a20.307,20.307,0,0,0,4.723-10.081h17.345v127.4a2.835,2.835,0,0,0,2.835,2.834h31.767a2.834,2.834,0,0,0,2.834-2.834V2.834A2.834,2.834,0,0,0,337.323,0Z"/>
      </g>
    </g>
</svg>
