<svg xmlns="http://www.w3.org/2000/svg" width="120mm" height="120mm" viewBox="0 0 340.157 340.157">
  <g id="Zimmernummer">
      <g id="Z-03-401-E">
        <path fill="#A09f9d" stroke="none" d="M337.323,0H2.835A2.835,2.835,0,0,0,0,2.835V337.323a2.834,2.834,0,0,0,2.834,2.834H91.271a2.834,2.834,0,0,0,2.835-2.834V235.26h-.454L54.6,292.568h32.7v16.711H38.251V288.3l55.855-78.377h20.071v82.646h16.711v16.711H114.177v28.044a2.834,2.834,0,0,0,2.835,2.834H162.64a2.834,2.834,0,0,0,1.685-5.109,34.969,34.969,0,0,1-3.648-3.2,42.929,42.929,0,0,1-8.22-11.762,75.69,75.69,0,0,1-5.131-14.3,105.311,105.311,0,0,1-2.679-15.531q-.772-7.946-.772-15.484,0-6.994.682-14.532a106.067,106.067,0,0,1,2.406-14.849,78.475,78.475,0,0,1,4.678-13.942,44.261,44.261,0,0,1,7.583-11.759,37.751,37.751,0,0,1,11.08-8.4,38.578,38.578,0,0,1,15.167-3.814v17.8q-20.434,3.36-20.435,49.769,0,3.906.182,9.174a103.94,103.94,0,0,0,.954,10.807,79.68,79.68,0,0,0,2.316,10.945,37.61,37.61,0,0,0,4.177,9.627,22.085,22.085,0,0,0,6.63,6.855,17.081,17.081,0,0,0,9.627,2.635q23.7,0,23.7-50.043,0-46.227-20.344-49.769v-17.8a38.578,38.578,0,0,1,15.167,3.814,36.845,36.845,0,0,1,11.036,8.447,46.7,46.7,0,0,1,7.583,11.807,76.269,76.269,0,0,1,4.722,13.942,106.437,106.437,0,0,1,2.408,14.847q.679,7.542.68,14.531,0,7.629-.772,15.668a100.257,100.257,0,0,1-2.725,15.575,74.915,74.915,0,0,1-5.222,14.214,42.764,42.764,0,0,1-8.309,11.67,35.838,35.838,0,0,1-3.517,3.055,2.835,2.835,0,0,0,1.675,5.118h60.814a2.834,2.834,0,0,0,2.834-2.834V248.248H246.688V231.537q22.887,0,33.149-11.535a20.3,20.3,0,0,0,4.723-10.08h17.346v127.4a2.835,2.835,0,0,0,2.835,2.834h32.582a2.834,2.834,0,0,0,2.834-2.834V2.834A2.834,2.834,0,0,0,337.323,0Z"/>
      </g>
    </g>
</svg>
