<svg xmlns="http://www.w3.org/2000/svg" width="120.001mm" height="119.997mm" viewBox="0 0 340.16 340.15">
  <g id="Zimmernummer">
      <g id="Z-03-013">
        <path fill="#000000" stroke="none" d="M340.16,2.835v334.48a2.835,2.835,0,0,1-2.835,2.835H288.979a1.139,1.139,0,0,1-.359-2.22h0q.645-.3,1.29-.63a43.9,43.9,0,0,0,7.95-5.12,37.924,37.924,0,0,0,10.06-12.47,36.409,36.409,0,0,0,3.72-16.67q0-12.66-6.23-21.51a26.967,26.967,0,0,0-17.42-11.07v-.38q9.51-3.345,13.97-10.7a32.546,32.546,0,0,0,4.47-17.23,31.607,31.607,0,0,0-3.54-15.17,32,32,0,0,0-9.4-10.9,43.994,43.994,0,0,0-13.22-6.52,51.647,51.647,0,0,0-14.99-2.23,44.569,44.569,0,0,0-17.69,3.35,38.509,38.509,0,0,0-13.32,9.31,44.4,44.4,0,0,0-8.66,14.06,53.618,53.618,0,0,0-3.53,17.6H243.3a32.358,32.358,0,0,1,1.12-9.78,26.935,26.935,0,0,1,4.01-8.56,19.624,19.624,0,0,1,6.79-6.05,19.932,19.932,0,0,1,9.69-2.24q8.925,0,14.61,5.03t5.68,13.41a18.922,18.922,0,0,1-2.51,10.05,18.231,18.231,0,0,1-6.61,6.42,28.847,28.847,0,0,1-9.31,3.26,48.91,48.91,0,0,1-10.43.75v15.83a101.248,101.248,0,0,1,12.38.37,31.717,31.717,0,0,1,10.9,2.88,19.407,19.407,0,0,1,7.82,6.8q2.97,4.47,2.98,12.1,0,11.175-7.17,17.23t-17.79,6.05q-12.465,0-18.71-7.91t-5.87-19.83H219.66a58.325,58.325,0,0,0,3.16,18.62,39.805,39.805,0,0,0,8.66,14.33,36.469,36.469,0,0,0,9.31,7.02c.28.15.57.3.85.44l.06.03a1.188,1.188,0,0,1-.53,2.25H198.264a2.834,2.834,0,0,1-2.834-2.835V210.07H178.12a20.561,20.561,0,0,1-4.75,10.05,29.454,29.454,0,0,1-8.75,6.71,40.9,40.9,0,0,1-11.46,3.72,74.307,74.307,0,0,1-13.03,1.12v16.76h32.03v88.885a2.835,2.835,0,0,1-2.835,2.835H2.835A2.835,2.835,0,0,1,0,337.315V2.835A2.835,2.835,0,0,1,2.835,0h334.49A2.835,2.835,0,0,1,340.16,2.835Z"/>
      </g>
    </g>
</svg>
