<svg xmlns="http://www.w3.org/2000/svg" width="120mm" height="120mm" viewBox="0 0 340.157 340.157">
  <g id="Zimmernummer">
      <g id="Z-03-520-E">
        <path fill="#A09f9d" stroke="none" d="M337.323,0H2.834A2.834,2.834,0,0,0,0,2.834V337.323a2.834,2.834,0,0,0,2.834,2.834H36.867a2.831,2.831,0,0,0,1.524-5.215,40.78,40.78,0,0,1-3.316-2.413Q22.356,322.268,21.634,303.1h21.16q.908,10.716,7.265,16.347t16.711,5.631q23.8,0,24.25-28.608,0-18.345-13.715-24.976a24.515,24.515,0,0,0-11.08-2.18q-16.62,0-20.978,11.9H24l13.986-71.294h67.3V228.9H53.784l-6.721,33.15.364.363q8.807-9.9,25.611-9.9a39.5,39.5,0,0,1,15.711,3.269q14.985,6.45,20.707,22.978a50.891,50.891,0,0,1,2.724,16.529q0,18.484-10.283,31.649a2.954,2.954,0,0,1-.579.56l-10.252,7.537a2.834,2.834,0,0,0,1.679,5.118h30.234A2.821,2.821,0,0,0,125.8,337.5q1.534-28.176,28.519-46.655,6.357-4.632,13.26-8.991,25.52-16.165,25.974-33.786,0-9.263-3.269-13.8a24.448,24.448,0,0,0-7.537-6.9A21.828,21.828,0,0,0,171.94,225q-6.63,0-10.806,2.543-11.172,6.811-11.807,30.062H128.075q0-22.251,11.807-36.238t33.058-13.986q21.252,0,32.877,13.714,8.991,10.989,8.99,26.247,0,20.073-18.254,35.511a149.59,149.59,0,0,1-18.074,13.35q-9.446,5.994-14.168,9.536-10.808,8.085-13.168,15.44h63.483v16.146a2.834,2.834,0,0,0,2.834,2.834h29.8a2.835,2.835,0,0,0,1.7-5.1,38.041,38.041,0,0,1-3.63-3.207,42.914,42.914,0,0,1-8.219-11.761,75.605,75.605,0,0,1-5.131-14.3,105.157,105.157,0,0,1-2.679-15.531q-.774-7.946-.772-15.484,0-6.994.682-14.532a106.067,106.067,0,0,1,2.406-14.849,78.385,78.385,0,0,1,4.678-13.941,44.263,44.263,0,0,1,7.582-11.76,37.778,37.778,0,0,1,11.08-8.4,38.566,38.566,0,0,1,15.168-3.814v17.8q-20.434,3.36-20.436,49.769,0,3.906.182,9.173a103.989,103.989,0,0,0,.955,10.808,79.78,79.78,0,0,0,2.315,10.944,37.63,37.63,0,0,0,4.177,9.627,22.08,22.08,0,0,0,6.631,6.856,17.086,17.086,0,0,0,9.627,2.634q23.7,0,23.7-50.042,0-46.227-20.344-49.769v-17.8a38.57,38.57,0,0,1,15.168,3.814,36.842,36.842,0,0,1,11.036,8.446,46.713,46.713,0,0,1,7.582,11.807,76.269,76.269,0,0,1,4.722,13.942,106.18,106.18,0,0,1,2.408,14.848q.681,7.54.68,14.531,0,7.629-.771,15.667a100.507,100.507,0,0,1-2.725,15.576,75,75,0,0,1-5.223,14.213,42.746,42.746,0,0,1-8.308,11.67,37.885,37.885,0,0,1-3.485,3.061,2.838,2.838,0,0,0,1.687,5.112h37.624a2.834,2.834,0,0,0,2.834-2.834V2.834A2.834,2.834,0,0,0,337.323,0Z"/>
      </g>
    </g>
</svg>
