<svg xmlns="http://www.w3.org/2000/svg" width="120mm" height="120mm" viewBox="0 0 340.157 340.157">
  <g id="Zimmernummer">
      <g id="Z-03-231">
        <path fill="#000000" stroke="none" d="M337.323,0H2.835A2.835,2.835,0,0,0,0,2.835V337.323a2.834,2.834,0,0,0,2.834,2.834h32.9a2.821,2.821,0,0,0,2.821-2.645q1.663-27.975,28.5-46.36,6.357-4.632,13.26-8.991Q105.835,266,106.29,248.376q0-9.264-3.27-13.805a24.447,24.447,0,0,0-7.538-6.9,21.829,21.829,0,0,0-10.808-2.361q-6.63,0-10.807,2.543Q62.7,234.663,62.06,257.912H40.808q0-22.251,11.807-36.237t33.058-13.987q21.252,0,32.877,13.714,8.993,10.991,8.992,26.247,0,20.073-18.255,35.511a149.676,149.676,0,0,1-18.074,13.351q-9.445,5.994-14.168,9.536-10.809,8.085-13.168,15.439H127.36v15.837a2.834,2.834,0,0,0,2.835,2.834h22.451a2.828,2.828,0,0,0,1.657-5.122q-9.139-6.627-13.658-18.725a57.918,57.918,0,0,1-3.179-18.619h21.252q-.271,11.9,5.9,19.8t17.71,7.9q11.532,0,18.709-6t7.174-17.255q0-13.623-10.807-18.891-7.629-3.723-23.25-3.27v-15.8q19.344.636,26.338-10.354,2.451-4.086,2.452-11.262a15.674,15.674,0,0,0-5.631-12.169,18.69,18.69,0,0,0-12.9-5.086q-17.709-.09-22.16,16.892a32.577,32.577,0,0,0-1.09,9.718H139.919q.724-18.981,12.169-31.606t30.97-12.624a47.988,47.988,0,0,1,28.7,8.992q12.442,9.081,12.443,25.793,0,21.342-18.437,27.881v.364A27.2,27.2,0,0,1,223.2,281.8a33.611,33.611,0,0,1,6.266,19.8q-.092,19.707-13.623,30.606-1.841,1.484-3.785,2.762a2.828,2.828,0,0,0,1.558,5.192h57.725a2.834,2.834,0,0,0,2.834-2.834V248.558H242.208V231.847q22.885,0,33.149-11.535a20.29,20.29,0,0,0,4.723-10.081h17.346V337.323a2.834,2.834,0,0,0,2.835,2.834h37.062a2.834,2.834,0,0,0,2.834-2.834V2.834A2.834,2.834,0,0,0,337.323,0Z"/>
      </g>
    </g>
</svg>
