<svg xmlns="http://www.w3.org/2000/svg" width="120mm" height="120mm" viewBox="0 0 340.157 340.157">
  <g id="Zimmernummer">
      <g id="Z-03-500-R">
        <path fill="#A0552B" stroke="none" d="M337.323,0H2.835A2.835,2.835,0,0,0,0,2.835V337.323a2.834,2.834,0,0,0,2.834,2.834H36.866a2.831,2.831,0,0,0,1.525-5.215,40.8,40.8,0,0,1-3.317-2.413Q22.359,322.268,21.633,303.1H42.794q.908,10.716,7.266,16.347t16.711,5.631q23.793,0,24.249-28.608,0-18.345-13.714-24.976a24.523,24.523,0,0,0-11.08-2.18q-16.62,0-20.98,11.9H23.994l13.987-71.294h67.3V228.9h-51.5l-6.72,33.15.363.363q8.808-9.9,25.611-9.9a39.5,39.5,0,0,1,15.712,3.269q14.987,6.45,20.707,22.978a50.865,50.865,0,0,1,2.725,16.529q0,18.484-10.283,31.649a2.932,2.932,0,0,1-.58.56l-10.252,7.537a2.834,2.834,0,0,0,1.679,5.118H143.9a2.835,2.835,0,0,0,1.695-5.1,38.031,38.031,0,0,1-3.629-3.207,42.939,42.939,0,0,1-8.22-11.761,75.674,75.674,0,0,1-5.131-14.3,105.288,105.288,0,0,1-2.679-15.531q-.773-7.946-.772-15.484,0-6.994.682-14.532a106.067,106.067,0,0,1,2.406-14.849,78.465,78.465,0,0,1,4.678-13.941,44.266,44.266,0,0,1,7.583-11.76,37.765,37.765,0,0,1,11.08-8.4,38.561,38.561,0,0,1,15.167-3.814v17.8q-20.435,3.36-20.435,49.769,0,3.906.182,9.173a103.982,103.982,0,0,0,.954,10.808,79.635,79.635,0,0,0,2.316,10.944,37.6,37.6,0,0,0,4.177,9.627,22.089,22.089,0,0,0,6.63,6.856,17.089,17.089,0,0,0,9.627,2.634q23.7,0,23.7-50.042,0-46.227-20.344-49.769v-17.8a38.561,38.561,0,0,1,15.167,3.814,36.842,36.842,0,0,1,11.036,8.446,46.716,46.716,0,0,1,7.583,11.807,76.269,76.269,0,0,1,4.722,13.942,106.326,106.326,0,0,1,2.407,14.848q.681,7.54.681,14.531,0,7.629-.772,15.667a100.27,100.27,0,0,1-2.725,15.576,74.931,74.931,0,0,1-5.222,14.213,42.749,42.749,0,0,1-8.309,11.67,37.885,37.885,0,0,1-3.485,3.061,2.838,2.838,0,0,0,1.687,5.112h50.912a2.835,2.835,0,0,0,1.7-5.1,38.041,38.041,0,0,1-3.63-3.207,42.914,42.914,0,0,1-8.219-11.761,75.536,75.536,0,0,1-5.131-14.3,105.29,105.29,0,0,1-2.68-15.531q-.771-7.946-.771-15.484,0-6.994.681-14.532a105.923,105.923,0,0,1,2.407-14.849,78.463,78.463,0,0,1,4.677-13.941,44.266,44.266,0,0,1,7.583-11.76,37.778,37.778,0,0,1,11.08-8.4,38.565,38.565,0,0,1,15.167-3.814v17.8q-20.434,3.36-20.434,49.769,0,3.906.182,9.173a103.982,103.982,0,0,0,.954,10.808,79.632,79.632,0,0,0,2.315,10.944,37.6,37.6,0,0,0,4.178,9.627,22.089,22.089,0,0,0,6.63,6.856,17.089,17.089,0,0,0,9.627,2.634q23.7,0,23.7-50.042,0-46.227-20.344-49.769v-17.8a38.57,38.57,0,0,1,15.167,3.814,36.825,36.825,0,0,1,11.035,8.446,46.688,46.688,0,0,1,7.583,11.807,76.347,76.347,0,0,1,4.723,13.942,106.473,106.473,0,0,1,2.407,14.848q.68,7.54.681,14.531,0,7.629-.773,15.667a100.269,100.269,0,0,1-2.724,15.576,74.931,74.931,0,0,1-5.222,14.213,42.752,42.752,0,0,1-8.31,11.67,37.754,37.754,0,0,1-3.485,3.061,2.838,2.838,0,0,0,1.688,5.112h37.624a2.834,2.834,0,0,0,2.834-2.834V2.834A2.834,2.834,0,0,0,337.323,0Z"/>
      </g>
    </g>
</svg>
