<svg xmlns="http://www.w3.org/2000/svg" width="120mm" height="120mm" viewBox="0 0 340.158 340.157">
  <g id="Zimmernummer">
      <g id="Z-03-125">
        <path fill="#000000" stroke="none" d="M337.323,0H2.834A2.834,2.834,0,0,0,0,2.834V337.323a2.834,2.834,0,0,0,2.834,2.834h58.25a2.834,2.834,0,0,0,2.835-2.834V248.839H31.95V232.128q22.887,0,33.149-11.534a20.3,20.3,0,0,0,4.723-10.081H87.169v126.81A2.834,2.834,0,0,0,90,340.157h21.382a2.821,2.821,0,0,0,2.821-2.633q1.774-27.793,28.472-46.09,6.356-4.632,13.259-8.992,25.521-16.164,25.975-33.785,0-9.264-3.27-13.8a24.428,24.428,0,0,0-7.538-6.9,21.822,21.822,0,0,0-10.807-2.361q-6.63,0-10.808,2.543-11.171,6.811-11.807,30.061H116.43q0-22.251,11.807-36.237T161.3,207.97q21.252,0,32.877,13.714,8.991,10.989,8.991,26.247,0,20.071-18.255,35.51a149.559,149.559,0,0,1-18.073,13.351q-9.447,5.994-14.168,9.536-10.809,8.085-13.169,15.44h63.483v15.555a2.834,2.834,0,0,0,2.835,2.834h25.229a2.829,2.829,0,0,0,1.628-5.147q-1.306-.9-2.537-1.89-12.716-10.263-13.441-29.426h21.161q.907,10.717,7.266,16.348t16.711,5.631q23.793,0,24.249-28.609,0-18.344-13.714-24.975a24.523,24.523,0,0,0-11.08-2.18q-16.62,0-20.98,11.9H219.057l13.987-71.294h67.3v18.981h-51.5l-6.72,33.15.363.363q8.808-9.9,25.611-9.9a39.505,39.505,0,0,1,15.712,3.27q14.986,6.45,20.707,22.977a50.871,50.871,0,0,1,2.725,16.53q0,18.71-10.535,31.969a43.191,43.191,0,0,1-7.34,7.259,2.83,2.83,0,0,0,1.772,5.045h46.182a2.835,2.835,0,0,0,2.835-2.835V2.834A2.834,2.834,0,0,0,337.323,0Z"/>
      </g>
    </g>
</svg>
