<svg xmlns="http://www.w3.org/2000/svg" width="120mm" height="120mm" viewBox="0 0 340.158 340.157">
  <g id="Zimmernummer">
      <g id="Z-03-316-R">
        <path fill="#A0552B" stroke="none" d="M337.323,0H2.835A2.835,2.835,0,0,0,0,2.835V337.323a2.834,2.834,0,0,0,2.834,2.834H47.4a2.828,2.828,0,0,0,1.673-5.111q-9.015-6.613-13.495-18.6A57.906,57.906,0,0,1,32.4,297.827H53.652q-.272,11.9,5.9,19.8t17.71,7.9q11.532,0,18.709-5.994t7.174-17.256q0-13.623-10.807-18.89-7.629-3.724-23.25-3.27v-15.8q19.344.636,26.338-10.353,2.451-4.088,2.452-11.262a15.674,15.674,0,0,0-5.631-12.17,18.7,18.7,0,0,0-12.9-5.086q-17.709-.087-22.16,16.893a32.576,32.576,0,0,0-1.09,9.719H34.853q.726-18.982,12.169-31.606t30.97-12.625a47.988,47.988,0,0,1,28.7,8.992q12.442,9.083,12.443,25.793,0,21.344-18.437,27.881v.364a27.206,27.206,0,0,1,17.438,11.08,33.612,33.612,0,0,1,6.266,19.8q-.09,19.709-13.623,30.608-1.746,1.406-3.586,2.629a2.829,2.829,0,0,0,1.564,5.189h56.59a2.834,2.834,0,0,0,2.835-2.834V248.692H136.212V231.981q22.887,0,33.149-11.533a20.3,20.3,0,0,0,4.723-10.082h17.347V337.323a2.834,2.834,0,0,0,2.834,2.834h41.14a2.828,2.828,0,0,0,1.694-5.1q-1.089-.8-2.1-1.678a38.687,38.687,0,0,1-8.719-10.807,62.39,62.39,0,0,1-5.4-13.486,89.981,89.981,0,0,1-2.771-15.258q-.771-7.992-.771-15.984a144.425,144.425,0,0,1,.953-16.485,97.355,97.355,0,0,1,3.225-16.121,70.936,70.936,0,0,1,6.039-14.621,46.7,46.7,0,0,1,9.309-11.9,40.756,40.756,0,0,1,13.123-7.993,48.664,48.664,0,0,1,17.484-2.906A38.922,38.922,0,0,1,293.8,217.905a37.127,37.127,0,0,1,8.355,11.215,35.837,35.837,0,0,1,3.542,14.215H284.54a24.061,24.061,0,0,0-1.726-6.9,19.242,19.242,0,0,0-3.632-5.723,16.5,16.5,0,0,0-5.405-3.859,16.768,16.768,0,0,0-6.947-1.409q-16.8,0-22.977,15.895a76.627,76.627,0,0,0-4.269,16.846,129.709,129.709,0,0,0-1.272,18.119q0,6.63.59,12.941t1.59,12.125a55.934,55.934,0,0,0,2.543,9.309,27.219,27.219,0,0,0,4.314,7.72,19.031,19.031,0,0,0,6.629,5.223,21.653,21.653,0,0,0,9.492,1.906,22.7,22.7,0,0,0,10.444-2.269,21.7,21.7,0,0,0,7.356-5.994,25.094,25.094,0,0,0,4.314-8.674,37.178,37.178,0,0,0,1.408-10.217,35.52,35.52,0,0,0-1.453-10.219,24.861,24.861,0,0,0-4.359-8.49,20.988,20.988,0,0,0-7.266-5.767,22.889,22.889,0,0,0-10.172-2.135,22.644,22.644,0,0,0-10.263,2.271,21.746,21.746,0,0,0-7.992,7.174q-.271-4.088-.272-8.082,0-2.816.136-5.5t.318-5.4a29.1,29.1,0,0,1,9.944-5.4,43.483,43.483,0,0,1,29.154,1.635,37.186,37.186,0,0,1,12.669,9.264,41.017,41.017,0,0,1,7.947,13.759,51,51,0,0,1,2.77,16.983,50.226,50.226,0,0,1-3.133,18.027,41.845,41.845,0,0,1-8.81,14.168,38.058,38.058,0,0,1-5.006,4.394,2.83,2.83,0,0,0,1.685,5.106h44.434a2.835,2.835,0,0,0,2.835-2.834V2.835A2.835,2.835,0,0,0,337.323,0Z"/>
      </g>
    </g>
</svg>
