<svg xmlns="http://www.w3.org/2000/svg" width="120mm" height="120mm" viewBox="0 0 340.157 340.157">
  <g id="Zimmernummer">
      <g id="Z-03-131">
        <path fill="#000000" stroke="none" d="M337.323,0H2.835A2.835,2.835,0,0,0,0,2.835V337.323a2.834,2.834,0,0,0,2.834,2.834H74.317a2.834,2.834,0,0,0,2.835-2.834V248.839H45.183V232.128q22.887,0,33.15-11.534a20.289,20.289,0,0,0,4.722-10.081H100.4v126.81a2.834,2.834,0,0,0,2.835,2.834h37.326a2.828,2.828,0,0,0,1.69-5.1q-8.881-6.6-13.315-18.467a57.912,57.912,0,0,1-3.179-18.618h21.252q-.273,11.9,5.9,19.8t17.71,7.9q11.533,0,18.709-5.994t7.175-17.256q0-13.623-10.808-18.891-7.629-3.723-23.25-3.269v-15.8q19.346.636,26.338-10.354,2.452-4.086,2.452-11.261a15.673,15.673,0,0,0-5.63-12.17,18.692,18.692,0,0,0-12.9-5.086q-17.71-.09-22.16,16.892a32.545,32.545,0,0,0-1.09,9.718H128.211q.726-18.981,12.17-31.605t30.97-12.624a47.989,47.989,0,0,1,28.7,8.991q12.441,9.082,12.442,25.793,0,21.342-18.436,27.882V271a27.2,27.2,0,0,1,17.437,11.08,33.607,33.607,0,0,1,6.267,19.8q-.091,19.709-13.623,30.606-1.646,1.326-3.373,2.487a2.83,2.83,0,0,0,1.57,5.186h63.811a2.834,2.834,0,0,0,2.834-2.834V248.839H237.01V232.128q22.887,0,33.15-11.534a20.3,20.3,0,0,0,4.723-10.081h17.346v126.81a2.834,2.834,0,0,0,2.835,2.834h42.259a2.834,2.834,0,0,0,2.834-2.834V2.834A2.834,2.834,0,0,0,337.323,0Z"/>
      </g>
    </g>
</svg>
