<svg xmlns="http://www.w3.org/2000/svg" width="120mm" height="120mm" viewBox="0 0 340.157 340.157">
  <g id="Zimmernummer">
      <g id="Z-03-408-E">
        <path fill="#A09f9d" stroke="none" d="M337.323,0H2.835A2.835,2.835,0,0,0,0,2.835V337.323a2.834,2.834,0,0,0,2.834,2.834H76.829a2.834,2.834,0,0,0,2.835-2.834V235.26H79.21L40.157,292.569h32.7V309.28H23.809V288.3l55.855-78.377H99.735v82.647h16.711V309.28H99.735v28.043a2.834,2.834,0,0,0,2.835,2.834H148.2a2.834,2.834,0,0,0,1.685-5.108,35.088,35.088,0,0,1-3.646-3.2,42.9,42.9,0,0,1-8.22-11.762,75.608,75.608,0,0,1-5.13-14.3,105.217,105.217,0,0,1-2.68-15.532q-.773-7.944-.772-15.484,0-6.993.682-14.531a106.058,106.058,0,0,1,2.406-14.85,78.465,78.465,0,0,1,4.678-13.941,44.282,44.282,0,0,1,7.583-11.76,37.731,37.731,0,0,1,11.08-8.4,38.582,38.582,0,0,1,15.167-3.815v17.8q-20.434,3.36-20.435,49.77,0,3.9.182,9.173a104.19,104.19,0,0,0,.954,10.807,79.649,79.649,0,0,0,2.316,10.945,37.615,37.615,0,0,0,4.177,9.627,22.078,22.078,0,0,0,6.63,6.856,17.081,17.081,0,0,0,9.627,2.635q23.7,0,23.7-50.043,0-46.229-20.343-49.77v-17.8a38.587,38.587,0,0,1,15.167,3.815,36.837,36.837,0,0,1,11.035,8.447,46.681,46.681,0,0,1,7.583,11.807,76.258,76.258,0,0,1,4.722,13.941,106.28,106.28,0,0,1,2.408,14.848q.679,7.54.68,14.531,0,7.629-.772,15.668a100.245,100.245,0,0,1-2.725,15.574,74.991,74.991,0,0,1-5.221,14.215,42.8,42.8,0,0,1-8.31,11.67,35.828,35.828,0,0,1-3.517,3.054,2.836,2.836,0,0,0,1.675,5.118h39.279a2.829,2.829,0,0,0,1.55-5.2,39.475,39.475,0,0,1-3.515-2.566,36.425,36.425,0,0,1-9.9-12.8,41.061,41.061,0,0,1-3.633-17.755,36.583,36.583,0,0,1,1.681-11.354,31.191,31.191,0,0,1,4.768-9.264,29.014,29.014,0,0,1,7.538-6.947,32.966,32.966,0,0,1,9.9-4.223v-.363A26.967,26.967,0,0,1,229.8,242.889a38.863,38.863,0,0,1,2.724-15.121,29.348,29.348,0,0,1,7.675-10.853,34.834,34.834,0,0,1,11.761-6.721,52.719,52.719,0,0,1,14.985-2.725v16.8a20.714,20.714,0,0,0-12.488,6.312q-4.587,5.04-4.586,13.305,0,8.173,4.5,13.123t12.578,5.949v16.166a26.861,26.861,0,0,0-8.764,2.27,21.288,21.288,0,0,0-6.72,4.77,21.062,21.062,0,0,0-4.315,6.992,27.353,27.353,0,0,0,.319,18.982,21.847,21.847,0,0,0,5.131,7.492,22.121,22.121,0,0,0,7.81,4.723,30.787,30.787,0,0,0,19.8,0,22.6,22.6,0,0,0,7.855-4.723,21.484,21.484,0,0,0,5.178-7.539,27.863,27.863,0,0,0,.363-19.025,19.719,19.719,0,0,0-4.314-6.949,22.441,22.441,0,0,0-6.721-4.723,26.549,26.549,0,0,0-8.809-2.27V262.961q8.082-1,12.533-5.857t4.45-13.033q0-8.265-4.5-13.442t-12.487-6.357v-16.8a51.254,51.254,0,0,1,15.848,2.953,33.4,33.4,0,0,1,11.67,7.129,29.772,29.772,0,0,1,7.175,10.9,39.883,39.883,0,0,1,2.452,14.439,28.808,28.808,0,0,1-4.678,16.485,27.461,27.461,0,0,1-13.758,10.308v.363a33.171,33.171,0,0,1,9.762,4.178,30.112,30.112,0,0,1,12.4,15.621,31.554,31.554,0,0,1,1.725,10.535,45.233,45.233,0,0,1-3.451,18.254,36.995,36.995,0,0,1-13.524,16.341,2.83,2.83,0,0,0,1.576,5.183h36.374a2.834,2.834,0,0,0,2.834-2.834V2.834A2.834,2.834,0,0,0,337.323,0Z"/>
      </g>
    </g>
</svg>
