<svg xmlns="http://www.w3.org/2000/svg" width="120mm" height="120mm" viewBox="0 0 340.157 340.158">
  <g id="Zimmernummer">
      <g id="Z-03-144">
        <path fill="#000000" stroke="none" d="M337.323,0H2.835A2.835,2.835,0,0,0,0,2.835V337.323a2.834,2.834,0,0,0,2.834,2.835H63.426a2.834,2.834,0,0,0,2.834-2.835v-89.07H34.292V231.542q22.885,0,33.149-11.534a20.3,20.3,0,0,0,4.723-10.081H89.51v127.4a2.835,2.835,0,0,0,2.835,2.835h66.831a2.834,2.834,0,0,0,2.834-2.835V235.266h-.454L122.5,292.573h32.7v16.711H106.156V288.305l55.854-78.378h20.072v82.646h16.71v16.711h-16.71v28.039a2.834,2.834,0,0,0,2.834,2.835h81.333a2.835,2.835,0,0,0,2.835-2.835V235.266h-.454l-39.053,57.307h32.695v16.711H213.229V288.305l55.855-78.378h20.071v82.646h16.711v16.711H289.155v28.039a2.835,2.835,0,0,0,2.835,2.835h45.333a2.834,2.834,0,0,0,2.834-2.835V2.835A2.834,2.834,0,0,0,337.323,0Z"/>
      </g>
    </g>
</svg>
