<svg xmlns="http://www.w3.org/2000/svg" width="120.001mm" height="120.001mm" viewBox="0 0 340.16 340.16">
  <g id="Zimmernummer">
      <g id="Z-03-015-M">
        <path fill="#D4AF37" stroke="none" d="M340.16,2.835v334.49a2.835,2.835,0,0,1-2.835,2.835H289.86a1.287,1.287,0,0,1-.629-2.407c.124-.07.2-.109.249-.133a42.184,42.184,0,0,0,12.37-10.27,44.284,44.284,0,0,0,8.01-15.09,55.5,55.5,0,0,0,2.51-16.1,53.88,53.88,0,0,0-2.7-17.32,39.75,39.75,0,0,0-7.91-13.87,35.786,35.786,0,0,0-12.85-9.13,43.773,43.773,0,0,0-17.32-3.26,36.694,36.694,0,0,0-13.13,2.52,27.2,27.2,0,0,0-10.89,7.35l-.37-.37,6.7-33.14h51.58v-19H238.07l-13.96,71.32h21.23q2.595-6.885,8.47-9.4a31.5,31.5,0,0,1,12.57-2.52,25.782,25.782,0,0,1,11.08,2.24,21.353,21.353,0,0,1,7.73,5.96,25.507,25.507,0,0,1,4.46,8.66,35.3,35.3,0,0,1,1.49,10.33,49.1,49.1,0,0,1-1.21,11.17,24.616,24.616,0,0,1-4.09,9.13,20,20,0,0,1-7.54,6.14,26.115,26.115,0,0,1-11.36,2.24q-10.44,0-16.76-5.68t-7.26-16.3H221.69a42.232,42.232,0,0,0,4,17.23,36.83,36.83,0,0,0,9.78,12.38,40.063,40.063,0,0,0,7.58,4.88,1.284,1.284,0,0,1-.56,2.44H198.264a2.834,2.834,0,0,1-2.834-2.835V210.07H178.12a20.553,20.553,0,0,1-4.75,10.06,29.425,29.425,0,0,1-8.75,6.7,40.91,40.91,0,0,1-11.46,3.73,75.283,75.283,0,0,1-13.03,1.11v16.76h32.03v88.895a2.835,2.835,0,0,1-2.835,2.835H2.835A2.835,2.835,0,0,1,0,337.325V2.835A2.835,2.835,0,0,1,2.835,0h334.49A2.835,2.835,0,0,1,340.16,2.835Z"/>
      </g>
    </g>
</svg>
