<svg xmlns="http://www.w3.org/2000/svg" width="120.001mm" height="120mm" viewBox="0 0 340.159 340.157">
  <g id="Zimmernummer">
      <g id="Z-03-301-R">
        <path fill="#A0552B" stroke="none" d="M0,2.835V337.319a2.834,2.834,0,0,0,2.835,2.834H54.107a1.191,1.191,0,0,0,.506-2.254l-.06-.03c-.28-.14-.57-.29-.85-.43a36.469,36.469,0,0,1-9.31-7.02,39.762,39.762,0,0,1-8.66-14.34,58.277,58.277,0,0,1-3.16-18.62h21.22q-.375,11.91,5.87,19.83t18.71,7.91q10.62,0,17.79-6.05t7.17-17.22q0-7.635-2.98-12.11a19.383,19.383,0,0,0-7.82-6.79,31.722,31.722,0,0,0-10.9-2.89,103.286,103.286,0,0,0-12.38-.37v-15.83a48.9,48.9,0,0,0,10.43-.74,29.085,29.085,0,0,0,9.31-3.26,18.179,18.179,0,0,0,6.61-6.43,18.922,18.922,0,0,0,2.51-10.05q0-8.385-5.68-13.41t-14.62-5.03a19.215,19.215,0,0,0-16.47,8.29,26.988,26.988,0,0,0-4.01,8.57,32.256,32.256,0,0,0-1.12,9.77H34.993a53.559,53.559,0,0,1,3.53-17.59A44.29,44.29,0,0,1,47.183,220a38.376,38.376,0,0,1,13.32-9.31,44.4,44.4,0,0,1,17.69-3.36,51.321,51.321,0,0,1,14.99,2.24,43.761,43.761,0,0,1,13.22,6.52,31.333,31.333,0,0,1,12.94,26.06,32.5,32.5,0,0,1-4.47,17.23q-4.47,7.35-13.97,10.71v.37a26.9,26.9,0,0,1,17.41,11.08q6.24,8.85,6.24,21.51a36.4,36.4,0,0,1-3.72,16.66,37.961,37.961,0,0,1-10.06,12.48,44.449,44.449,0,0,1-7.95,5.12c-.43.21-.86.42-1.29.62l-.06.03a1.159,1.159,0,0,0,.492,2.194h59.7a1.283,1.283,0,0,0,.65-2.373c-.611-.371-1.2-.761-1.772-1.181a44.118,44.118,0,0,1-13.78-16.391,72.81,72.81,0,0,1-6.7-21.879,155.6,155.6,0,0,1,0-46.18,72.994,72.994,0,0,1,6.7-21.88,44.091,44.091,0,0,1,13.78-16.38q7.56-5.49,18.86-6.27a1.282,1.282,0,0,1,1.37,1.29v15.27a1.279,1.279,0,0,1-1.05,1.279,15.8,15.8,0,0,0-8.01,3.7,27.546,27.546,0,0,0-7.26,10.89,66.028,66.028,0,0,0-3.82,15.92,159.845,159.845,0,0,0,0,38.64,64.663,64.663,0,0,0,3.82,15.92c2.278,5.732,6.209,11.573,12.257,13.732,5.963,2.129,13.32,1.256,18.183-2.932a27.076,27.076,0,0,0,7.36-10.8,64.663,64.663,0,0,0,3.82-15.92,160,160,0,0,0,0-38.64c-1.176-9.435-3.633-20.331-11.18-26.81a16.14,16.14,0,0,0-7.874-3.68,1.346,1.346,0,0,1-1.1-1.271v-15.3a1.287,1.287,0,0,1,1.37-1.29q11.295.795,18.87,6.27a44.184,44.184,0,0,1,13.78,16.38,73.281,73.281,0,0,1,6.7,21.88,156.78,156.78,0,0,1,0,46.18,73.1,73.1,0,0,1-6.7,21.879,44.211,44.211,0,0,1-13.78,16.391c-.568.419-1.167.808-1.766,1.177a1.284,1.284,0,0,0,.644,2.377l67.669,0a2.834,2.834,0,0,0,2.834-2.835V249.144h-31.73v-16.61a74.991,74.991,0,0,0,12.911-1.1,40.587,40.587,0,0,0,11.35-3.69,29.217,29.217,0,0,0,8.67-6.65,20.182,20.182,0,0,0,4.7-9.96h17.161V337.319a2.834,2.834,0,0,0,2.834,2.834h35.882a2.834,2.834,0,0,0,2.834-2.834V2.835A2.834,2.834,0,0,0,337.325,0H2.835A2.835,2.835,0,0,0,0,2.835Z"/>
      </g>
    </g>
</svg>
