<svg xmlns="http://www.w3.org/2000/svg" width="120mm" height="120mm" viewBox="0 0 340.157 340.157">
  <g id="Zimmernummer">
      <g id="Z-03-068-M">
        <path fill="#D4AF37" stroke="none" d="M337.323,0H2.834A2.834,2.834,0,0,0,0,2.834V337.323a2.834,2.834,0,0,0,2.834,2.834H139.863a2.834,2.834,0,0,0,1.6-5.167q-1.364-.972-2.614-2.051a38.7,38.7,0,0,1-8.719-10.807,62.4,62.4,0,0,1-5.4-13.487,89.981,89.981,0,0,1-2.771-15.258q-.771-7.99-.771-15.984a144.421,144.421,0,0,1,.953-16.484,97.334,97.334,0,0,1,3.225-16.121,70.945,70.945,0,0,1,6.039-14.622,46.675,46.675,0,0,1,9.309-11.9,40.718,40.718,0,0,1,13.123-7.992,48.641,48.641,0,0,1,17.484-2.907,38.928,38.928,0,0,1,26.338,10.081,37.131,37.131,0,0,1,8.355,11.216,35.84,35.84,0,0,1,3.542,14.214H188.4a24.069,24.069,0,0,0-1.726-6.9,19.237,19.237,0,0,0-3.632-5.722,16.489,16.489,0,0,0-5.405-3.859A16.752,16.752,0,0,0,170.686,225q-16.8,0-22.978,15.893a76.706,76.706,0,0,0-4.268,16.847,129.7,129.7,0,0,0-1.272,18.119q0,6.63.59,12.941t1.59,12.125a55.934,55.934,0,0,0,2.543,9.309,27.239,27.239,0,0,0,4.314,7.721,19.037,19.037,0,0,0,6.629,5.221,21.653,21.653,0,0,0,9.492,1.907,22.7,22.7,0,0,0,10.444-2.27,21.676,21.676,0,0,0,7.356-5.994,25.115,25.115,0,0,0,4.314-8.673,37.19,37.19,0,0,0,1.408-10.218A35.513,35.513,0,0,0,189.4,287.71a24.866,24.866,0,0,0-4.359-8.491,20.985,20.985,0,0,0-7.266-5.766,24.8,24.8,0,0,0-20.435.135,21.75,21.75,0,0,0-7.992,7.175q-.271-4.086-.272-8.083,0-2.814.136-5.5t.318-5.4a29.114,29.114,0,0,1,9.944-5.4,43.483,43.483,0,0,1,29.154,1.635,37.2,37.2,0,0,1,12.669,9.264,41.007,41.007,0,0,1,7.947,13.759,50.994,50.994,0,0,1,2.77,16.983,50.2,50.2,0,0,1-3.134,18.027,41.817,41.817,0,0,1-8.809,14.168,38.321,38.321,0,0,1-5.588,4.818,2.83,2.83,0,0,0,1.661,5.125h43.353a2.829,2.829,0,0,0,1.551-5.2,39.381,39.381,0,0,1-3.513-2.565,36.416,36.416,0,0,1-9.9-12.805A41.059,41.059,0,0,1,224,301.833a36.575,36.575,0,0,1,1.679-11.352,31.194,31.194,0,0,1,4.769-9.264,29,29,0,0,1,7.538-6.948,32.966,32.966,0,0,1,9.9-4.223v-.363a26.967,26.967,0,0,1-18.436-26.792,38.868,38.868,0,0,1,2.724-15.122,29.342,29.342,0,0,1,7.674-10.852,34.832,34.832,0,0,1,11.762-6.721,52.719,52.719,0,0,1,14.985-2.725v16.8a20.719,20.719,0,0,0-12.488,6.312q-4.587,5.04-4.586,13.3,0,8.174,4.5,13.123t12.579,5.949v16.166a26.886,26.886,0,0,0-8.764,2.271,21.325,21.325,0,0,0-6.721,4.768,21.068,21.068,0,0,0-4.314,6.993,27.375,27.375,0,0,0,.318,18.982,21.83,21.83,0,0,0,5.132,7.492,22.121,22.121,0,0,0,7.81,4.723,30.787,30.787,0,0,0,19.8,0,22.628,22.628,0,0,0,7.856-4.723,21.466,21.466,0,0,0,5.176-7.538,27.842,27.842,0,0,0,.364-19.026,19.692,19.692,0,0,0-4.314-6.948,22.435,22.435,0,0,0-6.721-4.723,26.58,26.58,0,0,0-8.809-2.271V262.962q8.082-1,12.533-5.857t4.45-13.033q0-8.264-4.5-13.442T273.4,224.273v-16.8a51.242,51.242,0,0,1,15.847,2.952,33.409,33.409,0,0,1,11.671,7.129,29.788,29.788,0,0,1,7.175,10.9,39.888,39.888,0,0,1,2.452,14.44,28.812,28.812,0,0,1-4.677,16.484,27.462,27.462,0,0,1-13.759,10.308v.363a33.22,33.22,0,0,1,9.762,4.178,30.112,30.112,0,0,1,12.4,15.621A31.554,31.554,0,0,1,316,300.38a45.255,45.255,0,0,1-3.452,18.255,36.956,36.956,0,0,1-13.524,16.338,2.83,2.83,0,0,0,1.575,5.184h36.725a2.834,2.834,0,0,0,2.834-2.834V2.834A2.834,2.834,0,0,0,337.323,0Z"/>
      </g>
    </g>
</svg>
