<svg xmlns="http://www.w3.org/2000/svg" width="120mm" height="120mm" viewBox="0 0 340.157 340.157">
  <g id="Zimmernummer">
      <g id="Z-03-448-M">
        <path fill="#D4AF37" stroke="none" d="M337.323,0H2.835A2.835,2.835,0,0,0,0,2.835V337.323a2.834,2.834,0,0,0,2.834,2.834H74.969a2.834,2.834,0,0,0,2.834-2.834V235.26h-.454L38.3,292.569h32.7V309.28H21.949V288.3L77.8,209.922H97.875v82.647h16.71V309.28H97.875v28.043a2.834,2.834,0,0,0,2.834,2.834h77.613a2.834,2.834,0,0,0,2.835-2.834V235.26H180.7L141.65,292.569h32.695V309.28H125.3V288.3l55.855-78.377h20.071v82.647h16.711V309.28H201.228v28.043a2.834,2.834,0,0,0,2.835,2.834h38.943a2.834,2.834,0,0,0,1.323-5.341l-4.309-2.275a3.018,3.018,0,0,1-.525-.35,36.481,36.481,0,0,1-9.655-12.6,41.061,41.061,0,0,1-3.632-17.755,36.583,36.583,0,0,1,1.68-11.354,31.191,31.191,0,0,1,4.768-9.264,29.014,29.014,0,0,1,7.538-6.947,32.966,32.966,0,0,1,9.9-4.223v-.363a26.967,26.967,0,0,1-18.436-26.793,38.863,38.863,0,0,1,2.724-15.121,29.348,29.348,0,0,1,7.675-10.853,34.834,34.834,0,0,1,11.761-6.721,52.719,52.719,0,0,1,14.985-2.725v16.8a20.717,20.717,0,0,0-12.488,6.312q-4.587,5.04-4.586,13.305,0,8.173,4.5,13.123t12.578,5.949v16.166a26.848,26.848,0,0,0-8.763,2.27,21.292,21.292,0,0,0-6.721,4.77A21.062,21.062,0,0,0,249,293.159a27.353,27.353,0,0,0,.319,18.982,21.847,21.847,0,0,0,5.131,7.492,22.121,22.121,0,0,0,7.81,4.723,30.787,30.787,0,0,0,19.8,0,22.6,22.6,0,0,0,7.855-4.723,21.484,21.484,0,0,0,5.178-7.539,27.847,27.847,0,0,0,.363-19.025,19.719,19.719,0,0,0-4.314-6.949,22.441,22.441,0,0,0-6.721-4.723,26.549,26.549,0,0,0-8.809-2.27V262.961q8.082-1,12.533-5.857t4.45-13.033q0-8.265-4.5-13.442t-12.487-6.357v-16.8a51.248,51.248,0,0,1,15.848,2.953,33.4,33.4,0,0,1,11.67,7.129,29.772,29.772,0,0,1,7.175,10.9,39.883,39.883,0,0,1,2.452,14.439,28.815,28.815,0,0,1-4.677,16.485,27.468,27.468,0,0,1-13.759,10.308v.363a33.171,33.171,0,0,1,9.762,4.178,30.1,30.1,0,0,1,12.4,15.621,31.554,31.554,0,0,1,1.725,10.535,45.233,45.233,0,0,1-3.451,18.254,37.446,37.446,0,0,1-9.582,13.307,42.423,42.423,0,0,1-3.98,3.067,2.83,2.83,0,0,0,1.628,5.15h34.5a2.834,2.834,0,0,0,2.834-2.834V2.834A2.834,2.834,0,0,0,337.323,0Z"/>
      </g>
    </g>
</svg>
