<svg xmlns="http://www.w3.org/2000/svg" width="120.001mm" height="120.001mm" viewBox="0 0 340.16 340.16">
  <g id="Zimmernummer">
      <g id="Z-03-106-M">
        <path fill="#D4AF37" stroke="none" d="M337.325,0H2.834A2.834,2.834,0,0,0,0,2.834V337.325a2.835,2.835,0,0,0,2.835,2.835H67.091a2.835,2.835,0,0,0,2.835-2.835V248.43H37.9V231.67a74.326,74.326,0,0,0,13.031-1.12,40.591,40.591,0,0,0,11.46-3.72,29.29,29.29,0,0,0,8.75-6.71,20.519,20.519,0,0,0,4.75-10.05H93.2V337.325a2.835,2.835,0,0,0,2.835,2.835h37.686a1.286,1.286,0,0,0,.681-2.379c-.611-.37-1.2-.76-1.772-1.181a44.12,44.12,0,0,1-13.779-16.39,72.827,72.827,0,0,1-6.7-21.88,151.576,151.576,0,0,1,0-46.18,72.988,72.988,0,0,1,6.7-21.879,44.084,44.084,0,0,1,13.779-16.381q7.56-5.49,18.86-6.27a1.282,1.282,0,0,1,1.37,1.29v15.27a1.28,1.28,0,0,1-1.049,1.28,15.788,15.788,0,0,0-8.01,3.7,27.566,27.566,0,0,0-7.261,10.89,66.029,66.029,0,0,0-3.819,15.92,157.987,157.987,0,0,0-1.12,19.27,160.276,160.276,0,0,0,1.12,19.37,64.665,64.665,0,0,0,3.819,15.92,27.649,27.649,0,0,0,7.261,10.8,18.789,18.789,0,0,0,23.179,0,27.077,27.077,0,0,0,7.361-10.8,64.665,64.665,0,0,0,3.819-15.92,160.545,160.545,0,0,0,1.11-19.37,158.257,158.257,0,0,0-1.11-19.27,66.029,66.029,0,0,0-3.819-15.92,27,27,0,0,0-7.361-10.89,16.15,16.15,0,0,0-7.873-3.68,1.346,1.346,0,0,1-1.1-1.27v-15.3a1.287,1.287,0,0,1,1.369-1.29q11.3.8,18.87,6.27a44.17,44.17,0,0,1,13.78,16.381,73.246,73.246,0,0,1,6.7,21.879,151.492,151.492,0,0,1,0,46.18,73.083,73.083,0,0,1-6.7,21.88,44.206,44.206,0,0,1-13.78,16.39c-.568.42-1.167.808-1.765,1.177a1.287,1.287,0,0,0,.675,2.383H240.74a.927.927,0,0,0,.4-1.76l-.05-.02c-8.6-4.12-14.99-11.4-18.94-19.99-4.5-9.77-6-20.63-6.74-31.28a131.366,131.366,0,0,1,1.78-34.8c3.81-19.3,15.24-39.45,35.83-44.06,10.39-2.32,21.6-1.3,31.01,3.83a37.15,37.15,0,0,1,18.22,22.72,37.71,37.71,0,0,1,1.18,7.83H282.2a20.376,20.376,0,0,0-6.46-13.65c-3.94-3.45-9.24-4.47-14.34-4.15a21.162,21.162,0,0,0-14.35,6.75c-4.08,4.4-6.21,10.15-7.73,15.85-1.84,6.93-2.43,13.92-3.12,21.02a150.13,150.13,0,0,0,.34,18.49,125.166,125.166,0,0,0,2.33,17.46,30.508,30.508,0,0,0,.88,3.54,22.708,22.708,0,0,0,18.2,16.67c8.81,1.26,17.31-2.23,22.18-9.79,9.1-14.15,4.88-40.09-14.04-43.36-9.39-1.62-18.81,2.12-23.76,10.21a.517.517,0,0,1-.96-.24c-.19-4.2-.22-8.42-.02-12.63.16-1.82.31-3.66.48-5.48a1.3,1.3,0,0,1,.41-.83c8.85-8.33,22.55-9.67,33.91-6.79a38.323,38.323,0,0,1,25.61,21.8,51.038,51.038,0,0,1,4.09,20.58c0,10.5-3.06,20.99-9.72,29.22a40.6,40.6,0,0,1-12.89,10.43,1.281,1.281,0,0,0,.57,2.43h53.515a2.835,2.835,0,0,0,2.835-2.835V2.834A2.834,2.834,0,0,0,337.325,0Z"/>
      </g>
    </g>
</svg>
