<svg xmlns="http://www.w3.org/2000/svg" width="120mm" height="120mm" viewBox="0 0 340.158 340.157">
  <g id="Zimmernummer">
      <g id="Z-03-324">
        <path fill="#000000" stroke="none" d="M337.323,0H2.835A2.835,2.835,0,0,0,0,2.835V337.323a2.834,2.834,0,0,0,2.834,2.834H41.351a2.835,2.835,0,0,0,1.6-5.17q-9.372-6.654-13.965-18.968A57.918,57.918,0,0,1,25.809,297.4H47.061q-.273,11.9,5.9,19.8t17.71,7.9q11.533,0,18.709-6t7.175-17.255q0-13.623-10.808-18.891-7.627-3.723-23.25-3.27v-15.8q19.346.636,26.338-10.354,2.453-4.086,2.452-11.262A15.673,15.673,0,0,0,85.66,230.1a18.692,18.692,0,0,0-12.9-5.086q-17.709-.09-22.16,16.892a32.545,32.545,0,0,0-1.09,9.718H28.261q.726-18.981,12.17-31.606T71.4,207.4a47.99,47.99,0,0,1,28.7,8.992q12.442,9.081,12.442,25.793,0,21.342-18.436,27.881v.364a27.2,27.2,0,0,1,17.437,11.08,33.6,33.6,0,0,1,6.267,19.8q-.092,19.707-13.623,30.606a48.558,48.558,0,0,1-4.219,3.045,2.828,2.828,0,0,0,1.547,5.2h22.739a2.821,2.821,0,0,0,2.822-2.658q1.545-28.164,28.519-46.638,6.355-4.632,13.259-8.991,25.521-16.164,25.975-33.785,0-9.264-3.269-13.805a24.439,24.439,0,0,0-7.539-6.9,21.822,21.822,0,0,0-10.807-2.361q-6.631,0-10.808,2.543-11.171,6.811-11.806,30.061H129.348q0-22.251,11.806-36.237T174.213,207.4q21.252,0,32.877,13.714,8.991,10.99,8.991,26.247,0,20.073-18.255,35.511a149.744,149.744,0,0,1-18.073,13.351q-9.447,5.994-14.168,9.536-10.809,8.085-13.169,15.439H215.9v16.128a2.834,2.834,0,0,0,2.835,2.834h58.091a2.834,2.834,0,0,0,2.834-2.834V235.279h-.454l-39.053,57.308h32.7V309.3H223.805v-20.98l55.854-78.378H299.73v82.647h16.711V309.3H299.73v28.025a2.835,2.835,0,0,0,2.835,2.834h34.758a2.835,2.835,0,0,0,2.835-2.835V2.834A2.834,2.834,0,0,0,337.323,0Z"/>
      </g>
    </g>
</svg>
