<svg xmlns="http://www.w3.org/2000/svg" width="120.001mm" height="120.002mm" viewBox="0 0 340.159 340.164">
  <g id="Zimmernummer">
      <g id="Z-03-308-R">
        <path fill="#A0552B" stroke="none" d="M0,2.835V337.329a2.835,2.835,0,0,0,2.835,2.835H47.02a1.191,1.191,0,0,0,.506-2.255l-.06-.03c-.279-.14-.569-.29-.849-.43a36.469,36.469,0,0,1-9.31-7.02,39.748,39.748,0,0,1-8.66-14.34,58.277,58.277,0,0,1-3.161-18.62H46.707q-.375,11.91,5.87,19.83t18.71,7.91q10.62,0,17.79-6.05,7.154-6.045,7.17-17.22,0-7.635-2.98-12.11a19.386,19.386,0,0,0-7.821-6.79,31.716,31.716,0,0,0-10.9-2.89,103.27,103.27,0,0,0-12.379-.37v-15.83a48.89,48.89,0,0,0,10.429-.74,29.085,29.085,0,0,0,9.31-3.26,18.181,18.181,0,0,0,6.611-6.43,18.922,18.922,0,0,0,2.509-10.05q0-8.385-5.68-13.41t-14.619-5.03a19.215,19.215,0,0,0-16.471,8.29,26.986,26.986,0,0,0-4.009,8.57,32.225,32.225,0,0,0-1.12,9.77H27.906a53.585,53.585,0,0,1,3.531-17.59,44.287,44.287,0,0,1,8.659-14.06,38.371,38.371,0,0,1,13.321-9.31,44.392,44.392,0,0,1,17.69-3.36,51.315,51.315,0,0,1,14.989,2.24,43.75,43.75,0,0,1,13.22,6.52,31.333,31.333,0,0,1,12.94,26.06,32.5,32.5,0,0,1-4.469,17.23q-4.47,7.35-13.971,10.71v.37a26.9,26.9,0,0,1,17.411,11.08q6.238,8.85,6.239,21.51a36.4,36.4,0,0,1-3.719,16.66,37.986,37.986,0,0,1-10.06,12.48,44.421,44.421,0,0,1-7.951,5.12c-.429.21-.859.42-1.29.62l-.06.03a1.16,1.16,0,0,0,.492,2.195h54.035a1.284,1.284,0,0,0,.65-2.374c-.611-.371-1.2-.761-1.772-1.181a44.122,44.122,0,0,1-13.78-16.39,72.826,72.826,0,0,1-6.7-21.88,155.6,155.6,0,0,1,0-46.18,73,73,0,0,1,6.7-21.88,44.091,44.091,0,0,1,13.78-16.38q7.56-5.49,18.86-6.27a1.282,1.282,0,0,1,1.37,1.29v15.27a1.281,1.281,0,0,1-1.05,1.28,15.8,15.8,0,0,0-8.01,3.7,27.554,27.554,0,0,0-7.26,10.89,66.028,66.028,0,0,0-3.82,15.92,159.845,159.845,0,0,0,0,38.64,64.663,64.663,0,0,0,3.82,15.92c2.278,5.732,6.209,11.573,12.257,13.732,5.963,2.129,13.32,1.256,18.183-2.932a27.076,27.076,0,0,0,7.36-10.8,64.663,64.663,0,0,0,3.82-15.92,160,160,0,0,0,0-38.64c-1.176-9.435-3.633-20.331-11.18-26.81a16.145,16.145,0,0,0-7.874-3.68,1.346,1.346,0,0,1-1.1-1.27v-15.3a1.287,1.287,0,0,1,1.37-1.29q11.3.795,18.87,6.27a44.184,44.184,0,0,1,13.78,16.38,73.29,73.29,0,0,1,6.7,21.88,156.814,156.814,0,0,1,0,46.18,73.112,73.112,0,0,1-6.7,21.88,44.216,44.216,0,0,1-13.78,16.39c-.569.419-1.167.808-1.766,1.177a1.285,1.285,0,0,0,.644,2.378h50.558a1.159,1.159,0,0,0,.4-2.235s-.85-.42-1.27-.63a40.141,40.141,0,0,1-7.87-5.29,36.942,36.942,0,0,1-9.59-12.94,41.143,41.143,0,0,1-3.44-17.13q0-12.3,6.42-20.67a30.749,30.749,0,0,1,17.41-11.18v-.37a27.789,27.789,0,0,1-13.69-10.33,28.646,28.646,0,0,1-4.74-16.48q0-16.755,10.52-26.16,9.435-8.445,26.14-9.31a1.3,1.3,0,0,1,1.35,1.3V223.1a1.284,1.284,0,0,1-1.13,1.27,20.817,20.817,0,0,0-10.81,4.85q-5.97,5.13-5.96,14.81,0,9.3,5.77,14.24a20.528,20.528,0,0,0,10.99,4.69,1.3,1.3,0,0,1,1.14,1.28v13.71a1.282,1.282,0,0,1-1.16,1.28,25.169,25.169,0,0,0-13.95,5.85q-7.08,6.06-7.08,16.86,0,11.55,7.08,17.87t17.69,6.33q10.62,0,17.69-6.33t7.07-17.87q0-10.8-7.07-16.86a25.169,25.169,0,0,0-13.95-5.85,1.291,1.291,0,0,1-1.17-1.28v-13.71a1.3,1.3,0,0,1,1.15-1.28,20.528,20.528,0,0,0,10.99-4.69q5.775-4.935,5.77-14.24,0-9.69-5.96-14.81a20.888,20.888,0,0,0-10.81-4.85,1.293,1.293,0,0,1-1.14-1.27v-14.36a1.305,1.305,0,0,1,1.36-1.3q16.695.87,26.14,9.31,10.515,9.405,10.52,26.16a28.578,28.578,0,0,1-4.75,16.48,27.718,27.718,0,0,1-13.68,10.33v.37a30.782,30.782,0,0,1,17.41,11.18q6.42,8.37,6.42,20.67a41.3,41.3,0,0,1-3.44,17.13,37.065,37.065,0,0,1-9.59,12.94,40.231,40.231,0,0,1-8.41,5.56l-.87.42a1.128,1.128,0,0,0,.391,2.175h46.187a2.834,2.834,0,0,0,2.834-2.835V2.835A2.834,2.834,0,0,0,337.325,0H2.835A2.835,2.835,0,0,0,0,2.835Z"/>
      </g>
    </g>
</svg>
