<svg xmlns="http://www.w3.org/2000/svg" width="120.001mm" height="119.997mm" viewBox="0 0 340.159 340.149">
  <g id="Zimmernummer">
      <g id="Z-03-309-R">
        <path fill="#A0552B" stroke="none" d="M0,2.835v334.48a2.834,2.834,0,0,0,2.835,2.834h45.6a1.191,1.191,0,0,0,.506-2.254l-.06-.03c-.28-.14-.57-.29-.85-.43a36.469,36.469,0,0,1-9.31-7.02,39.762,39.762,0,0,1-8.66-14.34,58.277,58.277,0,0,1-3.16-18.62h21.22q-.375,11.91,5.87,19.83T72.7,325.2q10.62,0,17.79-6.05t7.17-17.22q0-7.635-2.98-12.11a19.383,19.383,0,0,0-7.82-6.79,31.722,31.722,0,0,0-10.9-2.89,103.286,103.286,0,0,0-12.38-.37v-15.83a48.9,48.9,0,0,0,10.43-.74,29.085,29.085,0,0,0,9.31-3.26,18.179,18.179,0,0,0,6.61-6.43,18.922,18.922,0,0,0,2.51-10.05q0-8.385-5.68-13.41t-14.62-5.03a19.215,19.215,0,0,0-16.47,8.29,26.988,26.988,0,0,0-4.01,8.57,32.256,32.256,0,0,0-1.12,9.77H29.324a53.559,53.559,0,0,1,3.53-17.59A44.29,44.29,0,0,1,41.514,220a38.376,38.376,0,0,1,13.32-9.31,44.4,44.4,0,0,1,17.69-3.36,51.321,51.321,0,0,1,14.99,2.24,43.761,43.761,0,0,1,13.22,6.52,31.333,31.333,0,0,1,12.94,26.06,32.5,32.5,0,0,1-4.47,17.23q-4.47,7.35-13.97,10.71v.37a26.9,26.9,0,0,1,17.41,11.08q6.24,8.85,6.24,21.51a36.4,36.4,0,0,1-3.72,16.66,37.961,37.961,0,0,1-10.06,12.48,44.449,44.449,0,0,1-7.95,5.12c-.43.21-.86.42-1.29.62l-.06.03a1.159,1.159,0,0,0,.491,2.194H150.33a1.283,1.283,0,0,0,.65-2.373c-.611-.371-1.2-.761-1.772-1.181a44.122,44.122,0,0,1-13.78-16.39,72.826,72.826,0,0,1-6.7-21.88,155.632,155.632,0,0,1,0-46.18,73,73,0,0,1,6.7-21.88,44.091,44.091,0,0,1,13.78-16.38q7.56-5.49,18.86-6.27a1.282,1.282,0,0,1,1.37,1.29v15.27a1.281,1.281,0,0,1-1.05,1.28,15.8,15.8,0,0,0-8.01,3.7,27.554,27.554,0,0,0-7.26,10.89,66.028,66.028,0,0,0-3.82,15.92,159.9,159.9,0,0,0,0,38.64,64.663,64.663,0,0,0,3.82,15.92c2.278,5.732,6.209,11.573,12.258,13.732,5.962,2.129,13.319,1.256,18.182-2.932a27.076,27.076,0,0,0,7.36-10.8,64.663,64.663,0,0,0,3.82-15.92,159.946,159.946,0,0,0,0-38.64c-1.175-9.435-3.632-20.331-11.18-26.81a16.14,16.14,0,0,0-7.874-3.68,1.347,1.347,0,0,1-1.1-1.27v-15.3a1.287,1.287,0,0,1,1.37-1.29q11.295.8,18.87,6.27a44.184,44.184,0,0,1,13.78,16.38,73.29,73.29,0,0,1,6.7,21.88,156.78,156.78,0,0,1,0,46.18,73.112,73.112,0,0,1-6.7,21.88,44.216,44.216,0,0,1-13.78,16.39c-.568.419-1.167.808-1.765,1.177a1.284,1.284,0,0,0,.643,2.377h51.77a1.279,1.279,0,0,0,.571-2.408,38.741,38.741,0,0,1-4.323-2.756,36.651,36.651,0,0,1-14.97-27.74h21.23c.6,6.39,3.68,12.7,9.56,15.77s13.97,2.81,19.78-.26c14.23-7.53,15.31-27.27,16.66-41.33.02-.36.04-.73.04-1.11a134.057,134.057,0,0,0-2.71-34.84,30.861,30.861,0,0,0-.88-3.53,22.7,22.7,0,0,0-18.54-16.72,22,22,0,0,0-21.78,9.76c-9.22,14.2-4.91,40.29,14.14,43.46,9.08,1.51,18.17-2.01,23.19-9.59a.766.766,0,0,1,1.41.39,110.4,110.4,0,0,1-.01,11.79c-.17,1.8-.34,3.61-.48,5.42a1.538,1.538,0,0,1-.479,1.009c-12.24,11.381-33.32,10.081-46.421.971-14.39-10.01-19.28-29.14-16.36-45.77,2.92-16.68,15.04-30.32,31.69-34.14,15.37-3.53,33.24-.2,44.08,11.82,13.01,14.42,14.33,36.64,14.33,55.08,0,20.21-4.75,43.41-20.72,57.25a39.815,39.815,0,0,1-7.39,5.06,1.289,1.289,0,0,0,.6,2.414h49.632a2.834,2.834,0,0,0,2.834-2.834V2.835A2.834,2.834,0,0,0,337.325,0H2.835A2.835,2.835,0,0,0,0,2.835Z"/>
      </g>
    </g>
</svg>
