<svg xmlns="http://www.w3.org/2000/svg" width="120mm" height="120mm" viewBox="0 0 340.157 340.157">
  <g id="Zimmernummer">
      <g id="Z-03-334-M">
        <path fill="#D4AF37" stroke="none" d="M337.323,0H2.834A2.834,2.834,0,0,0,0,2.834V337.323a2.834,2.834,0,0,0,2.834,2.834H41.777a2.835,2.835,0,0,0,1.6-5.17q-9.372-6.652-13.964-18.967A57.918,57.918,0,0,1,26.236,297.4H47.488q-.273,11.9,5.9,19.8t17.71,7.9q11.534,0,18.709-5.995t7.175-17.255q0-13.623-10.807-18.891-7.629-3.723-23.25-3.27v-15.8q19.344.635,26.337-10.354,2.453-4.086,2.453-11.262A15.674,15.674,0,0,0,86.087,230.1a18.69,18.69,0,0,0-12.9-5.086q-17.709-.09-22.16,16.892a32.545,32.545,0,0,0-1.09,9.718H28.688q.726-18.981,12.17-31.606T71.828,207.4a47.99,47.99,0,0,1,28.7,8.992q12.443,9.081,12.443,25.793,0,21.342-18.437,27.881v.364a27.205,27.205,0,0,1,17.438,11.08,33.611,33.611,0,0,1,6.266,19.8q-.091,19.707-13.623,30.606a48.744,48.744,0,0,1-4.218,3.044,2.829,2.829,0,0,0,1.548,5.2H141.41a2.835,2.835,0,0,0,1.6-5.17q-9.371-6.652-13.964-18.967a57.918,57.918,0,0,1-3.179-18.619h21.252q-.272,11.9,5.9,19.8t17.71,7.9q11.532,0,18.709-5.995t7.174-17.255q0-13.623-10.807-18.891-7.629-3.723-23.25-3.27v-15.8q19.344.635,26.338-10.354,2.452-4.086,2.452-11.262A15.674,15.674,0,0,0,185.72,230.1a18.689,18.689,0,0,0-12.9-5.086q-17.711-.09-22.161,16.892a32.544,32.544,0,0,0-1.089,9.718H128.322q.725-18.981,12.17-31.606T171.461,207.4a47.988,47.988,0,0,1,28.7,8.992q12.443,9.081,12.443,25.793,0,21.342-18.437,27.881v.364a27.2,27.2,0,0,1,17.438,11.08,33.6,33.6,0,0,1,6.266,19.8q-.091,19.707-13.623,30.606a48.729,48.729,0,0,1-4.217,3.044,2.828,2.828,0,0,0,1.547,5.2h75.675a2.834,2.834,0,0,0,2.834-2.834V235.28h-.454l-39.053,57.308h32.7V309.3H224.232v-20.98l55.854-78.378h20.072v82.647h16.71V309.3h-16.71v28.024a2.834,2.834,0,0,0,2.834,2.834h34.331a2.834,2.834,0,0,0,2.834-2.834V2.834A2.834,2.834,0,0,0,337.323,0Z"/>
      </g>
    </g>
</svg>
