<svg xmlns="http://www.w3.org/2000/svg" width="120mm" height="120mm" viewBox="0 0 340.158 340.157">
  <g id="Zimmernummer">
      <g id="Z-03-123-E">
        <path fill="#A09f9d" stroke="none" d="M337.323,0H2.835A2.835,2.835,0,0,0,0,2.835V337.323a2.834,2.834,0,0,0,2.834,2.834H58.982a2.834,2.834,0,0,0,2.835-2.834V248.839H29.848V232.128q22.887,0,33.15-11.534a20.289,20.289,0,0,0,4.722-10.081H85.067v126.81a2.834,2.834,0,0,0,2.835,2.834h21.382a2.821,2.821,0,0,0,2.82-2.633q1.776-27.793,28.472-46.09,6.357-4.632,13.26-8.992,25.519-16.164,25.975-33.785,0-9.264-3.27-13.8a24.439,24.439,0,0,0-7.538-6.9,21.829,21.829,0,0,0-10.808-2.361q-6.63,0-10.807,2.543-11.171,6.811-11.807,30.061H114.329q0-22.251,11.807-36.237t33.058-13.986q21.252,0,32.877,13.714,8.993,10.989,8.992,26.247,0,20.073-18.255,35.51a149.638,149.638,0,0,1-18.073,13.351q-9.447,5.994-14.168,9.536-10.81,8.085-13.169,15.44h63.483v15.555a2.834,2.834,0,0,0,2.835,2.834H232.3a2.828,2.828,0,0,0,1.69-5.1q-8.881-6.6-13.316-18.467a57.885,57.885,0,0,1-3.178-18.618H238.75q-.273,11.9,5.9,19.8t17.71,7.9q11.532,0,18.709-5.994t7.175-17.256q0-13.623-10.808-18.891-7.629-3.723-23.25-3.269v-15.8q19.346.636,26.338-10.354,2.452-4.086,2.452-11.261a15.673,15.673,0,0,0-5.631-12.17,18.689,18.689,0,0,0-12.9-5.086q-17.71-.09-22.16,16.892a32.545,32.545,0,0,0-1.09,9.718H219.95q.726-18.981,12.17-31.605t30.969-12.624a47.993,47.993,0,0,1,28.7,8.991q12.441,9.082,12.442,25.793,0,21.342-18.436,27.882V271a27.207,27.207,0,0,1,17.437,11.08,33.607,33.607,0,0,1,6.267,19.8q-.092,19.709-13.623,30.606-1.645,1.326-3.374,2.487a2.83,2.83,0,0,0,1.57,5.186h43.251a2.835,2.835,0,0,0,2.835-2.835V2.834A2.834,2.834,0,0,0,337.323,0Z"/>
      </g>
    </g>
</svg>
