<svg xmlns="http://www.w3.org/2000/svg" width="120.001mm" height="120.001mm" viewBox="0 0 340.16 340.16">
  <g id="Zimmernummer">
      <g id="Z-03-110-E">
        <path fill="#A09f9d" stroke="none" d="M0,2.835v334.49a2.835,2.835,0,0,0,2.835,2.835H73.752a2.835,2.835,0,0,0,2.835-2.835V248.43H44.557V231.67a74.323,74.323,0,0,0,13.03-1.12,40.563,40.563,0,0,0,11.459-3.72,29.265,29.265,0,0,0,8.75-6.71,20.519,20.519,0,0,0,4.75-10.05H99.857V337.325a2.834,2.834,0,0,0,2.834,2.835h51.043a2.835,2.835,0,0,0,2.835-2.835V248.43h-32.03V231.67a75.283,75.283,0,0,0,13.03-1.11,40.91,40.91,0,0,0,11.46-3.73,29.261,29.261,0,0,0,8.75-6.7,20.553,20.553,0,0,0,4.75-10.06h17.31V337.325a2.835,2.835,0,0,0,2.835,2.835h48.372a1.282,1.282,0,0,0,.694-2.362c-.614-.382-1.209-.775-1.783-1.2a44.094,44.094,0,0,1-13.781-16.38,73.24,73.24,0,0,1-6.71-21.88,151.492,151.492,0,0,1,0-46.18,73.151,73.151,0,0,1,6.71-21.88,44.125,44.125,0,0,1,13.781-16.39c5.029-3.66,11.33-5.74,18.86-6.27a1.293,1.293,0,0,1,1.37,1.29v15.27a1.282,1.282,0,0,1-1.051,1.28,15.875,15.875,0,0,0-8.009,3.7,27.554,27.554,0,0,0-7.26,10.89,65.721,65.721,0,0,0-3.821,15.92,156.372,156.372,0,0,0-1.12,19.28,158.294,158.294,0,0,0,1.12,19.36,64.149,64.149,0,0,0,3.821,15.92,27.49,27.49,0,0,0,7.26,10.8,18.754,18.754,0,0,0,23.18,0,27.046,27.046,0,0,0,7.36-10.8,64.211,64.211,0,0,0,3.81-15.92,158.3,158.3,0,0,0,1.119-19.36,156.378,156.378,0,0,0-1.119-19.28,65.782,65.782,0,0,0-3.81-15.92,27.108,27.108,0,0,0-7.36-10.89,16.248,16.248,0,0,0-7.94-3.69,1.269,1.269,0,0,1-1.03-1.26v-15.3a1.293,1.293,0,0,1,1.37-1.29q11.293.8,18.87,6.27a44.225,44.225,0,0,1,13.78,16.39,73.429,73.429,0,0,1,6.7,21.88,151.492,151.492,0,0,1,0,46.18,73.519,73.519,0,0,1-6.7,21.88,44.194,44.194,0,0,1-13.78,16.38c-.58.42-1.171.81-1.781,1.19a1.282,1.282,0,0,0,.69,2.37h62.839a2.835,2.835,0,0,0,2.835-2.835V2.835A2.835,2.835,0,0,0,337.325,0H2.835A2.835,2.835,0,0,0,0,2.835Z"/>
      </g>
    </g>
</svg>
