<svg xmlns="http://www.w3.org/2000/svg" width="120mm" height="120mm" viewBox="0 0 340.157 340.157">
  <g id="Zimmernummer">
      <g id="Z-03-503">
        <path fill="#000000" stroke="none" d="M337.323,0H2.835A2.835,2.835,0,0,0,0,2.835V337.323a2.834,2.834,0,0,0,2.834,2.834H36.367a2.831,2.831,0,0,0,1.525-5.215,40.862,40.862,0,0,1-3.317-2.413Q21.858,322.266,21.134,303.1H42.3q.906,10.717,7.265,16.348t16.711,5.631q23.795,0,24.249-28.609,0-18.344-13.714-24.975a24.5,24.5,0,0,0-11.08-2.18q-16.62,0-20.979,11.9H23.5l13.986-71.294h67.3V228.9H53.284l-6.721,33.149.364.364q8.808-9.9,25.611-9.9a39.505,39.505,0,0,1,15.712,3.27q14.985,6.448,20.707,22.977a50.891,50.891,0,0,1,2.724,16.529q0,18.486-10.283,31.649a2.959,2.959,0,0,1-.579.561l-10.253,7.537a2.834,2.834,0,0,0,1.679,5.118h51.16a2.835,2.835,0,0,0,1.7-5.1,37.926,37.926,0,0,1-3.631-3.208,42.884,42.884,0,0,1-8.219-11.761,75.526,75.526,0,0,1-5.131-14.3,105.326,105.326,0,0,1-2.68-15.532q-.771-7.944-.771-15.484,0-6.993.681-14.531a105.913,105.913,0,0,1,2.407-14.85,78.452,78.452,0,0,1,4.677-13.94,44.288,44.288,0,0,1,7.583-11.761,37.758,37.758,0,0,1,11.08-8.4,38.582,38.582,0,0,1,15.167-3.815v17.8q-20.435,3.36-20.434,49.77,0,3.9.181,9.172a104.24,104.24,0,0,0,.955,10.808,79.6,79.6,0,0,0,2.315,10.944,37.566,37.566,0,0,0,4.178,9.627,22.081,22.081,0,0,0,6.63,6.857,17.089,17.089,0,0,0,9.627,2.634q23.7,0,23.7-50.042,0-46.229-20.344-49.77v-17.8a38.587,38.587,0,0,1,15.167,3.815,36.821,36.821,0,0,1,11.035,8.446,46.671,46.671,0,0,1,7.583,11.807,76.363,76.363,0,0,1,4.723,13.941,106.463,106.463,0,0,1,2.407,14.849q.679,7.539.681,14.531,0,7.629-.773,15.667a100.257,100.257,0,0,1-2.724,15.575,74.94,74.94,0,0,1-5.222,14.214,42.767,42.767,0,0,1-8.31,11.67,37.915,37.915,0,0,1-3.486,3.061,2.838,2.838,0,0,0,1.687,5.112h46.745a2.835,2.835,0,0,0,1.6-5.172Q234.8,328.331,230.2,316a57.918,57.918,0,0,1-3.179-18.619h21.252q-.272,11.9,5.9,19.8t17.71,7.9q11.534,0,18.709-6t7.175-17.255q0-13.623-10.807-18.891-7.629-3.724-23.25-3.27v-15.8q19.344.634,26.337-10.354,2.452-4.086,2.453-11.262a15.674,15.674,0,0,0-5.631-12.17,18.694,18.694,0,0,0-12.9-5.085q-17.709-.09-22.16,16.892a32.577,32.577,0,0,0-1.09,9.718H229.475q.728-18.981,12.17-31.606t30.97-12.624a47.984,47.984,0,0,1,28.7,8.992q12.442,9.081,12.443,25.793,0,21.342-18.437,27.881v.364a27.205,27.205,0,0,1,17.438,11.08,33.611,33.611,0,0,1,6.266,19.8q-.09,19.707-13.623,30.606a48.838,48.838,0,0,1-4.248,3.064,2.828,2.828,0,0,0,1.546,5.2h34.624a2.834,2.834,0,0,0,2.834-2.834V2.834A2.834,2.834,0,0,0,337.323,0Z"/>
      </g>
    </g>
</svg>
