<svg xmlns="http://www.w3.org/2000/svg" width="120mm" height="120mm" viewBox="0 0 340.157 340.158">
  <g id="Zimmernummer">
      <g id="Z-03-502-E">
        <path fill="#A09f9d" stroke="none" d="M337.323,0H2.835A2.835,2.835,0,0,0,0,2.835V337.323a2.835,2.835,0,0,0,2.835,2.835H37.049a2.831,2.831,0,0,0,1.525-5.215q-1.722-1.126-3.318-2.414Q22.541,322.266,21.815,303.1H42.976q.906,10.717,7.265,16.348t16.711,5.631q23.795,0,24.249-28.609,0-18.344-13.713-24.975a24.511,24.511,0,0,0-11.081-2.18q-16.62,0-20.979,11.9H24.176l13.986-71.294h67.3V228.9H53.965l-6.721,33.149.364.364q8.808-9.9,25.611-9.9a39.505,39.505,0,0,1,15.712,3.27q14.985,6.448,20.707,22.977a50.892,50.892,0,0,1,2.725,16.529q0,18.486-10.284,31.649a2.932,2.932,0,0,1-.579.561l-10.254,7.537a2.835,2.835,0,0,0,1.679,5.119h51.164a2.835,2.835,0,0,0,1.695-5.1,37.815,37.815,0,0,1-3.632-3.208,42.887,42.887,0,0,1-8.22-11.761,75.6,75.6,0,0,1-5.131-14.3,105.457,105.457,0,0,1-2.68-15.532q-.771-7.944-.771-15.484,0-6.993.681-14.531a106.06,106.06,0,0,1,2.407-14.85,78.452,78.452,0,0,1,4.677-13.94,44.313,44.313,0,0,1,7.583-11.761,37.75,37.75,0,0,1,11.081-8.4,38.573,38.573,0,0,1,15.167-3.815v17.8q-20.434,3.36-20.435,49.77,0,3.9.182,9.172a103.958,103.958,0,0,0,.954,10.808,79.6,79.6,0,0,0,2.315,10.944,37.566,37.566,0,0,0,4.178,9.627,22.081,22.081,0,0,0,6.63,6.857,17.089,17.089,0,0,0,9.627,2.634q23.7,0,23.7-50.042,0-46.229-20.344-49.77v-17.8a38.582,38.582,0,0,1,15.167,3.815,36.809,36.809,0,0,1,11.035,8.446,46.671,46.671,0,0,1,7.583,11.807,76.287,76.287,0,0,1,4.723,13.941,106.463,106.463,0,0,1,2.407,14.849q.679,7.539.681,14.531,0,7.629-.773,15.667a100.257,100.257,0,0,1-2.724,15.575,74.94,74.94,0,0,1-5.222,14.214,42.767,42.767,0,0,1-8.31,11.67,37.931,37.931,0,0,1-3.564,3.12,2.828,2.828,0,0,0,1.752,5.054h30a2.821,2.821,0,0,0,2.822-2.659q1.537-28.178,28.521-46.657,6.355-4.632,13.259-8.991,25.521-16.164,25.975-33.785,0-9.264-3.269-13.805a24.439,24.439,0,0,0-7.539-6.9A21.822,21.822,0,0,0,275.476,225q-6.63,0-10.808,2.543Q253.5,234.353,252.862,257.6H231.61q0-22.251,11.806-36.237t33.059-13.987q21.252,0,32.877,13.714,8.991,10.989,8.991,26.247,0,20.073-18.255,35.511A149.665,149.665,0,0,1,282.015,296.2q-9.447,5.994-14.168,9.536-10.809,8.083-13.169,15.439h63.483v16.147A2.835,2.835,0,0,0,321,340.158h16.327a2.834,2.834,0,0,0,2.834-2.835V2.834A2.834,2.834,0,0,0,337.323,0Z"/>
      </g>
    </g>
</svg>
