<svg xmlns="http://www.w3.org/2000/svg" width="120mm" height="120mm" viewBox="0 0 340.157 340.158">
  <g id="Zimmernummer">
      <g id="Z-03-612-R">
        <path fill="#A0552B" stroke="none" d="M337.323,0H2.834A2.834,2.834,0,0,0,0,2.834V337.323a2.835,2.835,0,0,0,2.835,2.835H49.656a2.835,2.835,0,0,0,1.6-5.168q-1.365-.972-2.616-2.053a38.666,38.666,0,0,1-8.719-10.807,62.35,62.35,0,0,1-5.4-13.487,90.08,90.08,0,0,1-2.77-15.258q-.773-7.99-.772-15.984a144.208,144.208,0,0,1,.954-16.484A97.333,97.333,0,0,1,35.156,244.8a70.892,70.892,0,0,1,6.04-14.622,46.716,46.716,0,0,1,9.308-11.9,40.718,40.718,0,0,1,13.123-7.992,48.649,48.649,0,0,1,17.484-2.907,38.923,38.923,0,0,1,26.338,10.081,37.131,37.131,0,0,1,8.355,11.216,35.807,35.807,0,0,1,3.542,14.214H98.185a24.045,24.045,0,0,0-1.726-6.9,19.237,19.237,0,0,0-3.632-5.722,16.468,16.468,0,0,0-5.405-3.859A16.748,16.748,0,0,0,80.475,225q-16.8,0-22.977,15.893a76.762,76.762,0,0,0-4.269,16.847,129.7,129.7,0,0,0-1.271,18.119q0,6.63.589,12.941t1.59,12.125a55.934,55.934,0,0,0,2.543,9.309A27.241,27.241,0,0,0,61,317.953a19.037,19.037,0,0,0,6.629,5.221,21.651,21.651,0,0,0,9.491,1.908,22.693,22.693,0,0,0,10.444-2.271,21.689,21.689,0,0,0,7.357-5.994,25.079,25.079,0,0,0,4.313-8.673,37.19,37.19,0,0,0,1.408-10.218,35.513,35.513,0,0,0-1.453-10.218,24.831,24.831,0,0,0-4.359-8.491,21,21,0,0,0-7.266-5.766,22.875,22.875,0,0,0-10.172-2.135,22.653,22.653,0,0,0-10.262,2.27,21.752,21.752,0,0,0-7.993,7.175q-.271-4.086-.272-8.083,0-2.814.137-5.5t.317-5.4a29.123,29.123,0,0,1,9.944-5.4,40.237,40.237,0,0,1,12.216-1.771,40.493,40.493,0,0,1,16.939,3.406,37.219,37.219,0,0,1,12.669,9.264,41.005,41.005,0,0,1,7.946,13.759,50.969,50.969,0,0,1,2.77,16.983,50.2,50.2,0,0,1-3.133,18.027,41.817,41.817,0,0,1-8.809,14.168,38.313,38.313,0,0,1-5.593,4.82,2.83,2.83,0,0,0,1.66,5.126H167.1a2.835,2.835,0,0,0,2.835-2.835V248.248H137.964V231.537q22.887,0,33.15-11.535a20.285,20.285,0,0,0,4.722-10.081h17.347v127.4a2.835,2.835,0,0,0,2.835,2.835H217.35a2.823,2.823,0,0,0,2.823-2.659q1.536-28.178,28.52-46.657,6.355-4.632,13.26-8.991,25.52-16.164,25.974-33.785,0-9.264-3.269-13.805a24.447,24.447,0,0,0-7.538-6.9A21.829,21.829,0,0,0,266.312,225q-6.63,0-10.808,2.543Q244.334,234.353,243.7,257.6H222.446q0-22.251,11.806-36.237t33.059-13.987q21.252,0,32.877,13.714,8.991,10.989,8.991,26.247,0,20.073-18.255,35.511A149.665,149.665,0,0,1,272.851,296.2q-9.447,5.994-14.168,9.536-10.809,8.083-13.169,15.439H309v16.147a2.834,2.834,0,0,0,2.834,2.835h25.491a2.834,2.834,0,0,0,2.834-2.835V2.834A2.834,2.834,0,0,0,337.323,0Z"/>
      </g>
    </g>
</svg>
