<svg xmlns="http://www.w3.org/2000/svg" width="120.001mm" height="120mm" viewBox="0 0 340.159 340.157">
  <g id="Zimmernummer">
      <g id="Z-03-302">
        <path fill="#000000" stroke="none" d="M0,0V340.153H48.438a1.191,1.191,0,0,0,.506-2.254l-.06-.03c-.28-.14-.57-.29-.85-.43a36.469,36.469,0,0,1-9.31-7.02,39.762,39.762,0,0,1-8.66-14.34,58.277,58.277,0,0,1-3.16-18.62h21.22q-.375,11.91,5.87,19.83T72.7,325.2q10.62,0,17.79-6.05t7.17-17.22q0-7.635-2.98-12.11a19.383,19.383,0,0,0-7.82-6.79,31.722,31.722,0,0,0-10.9-2.89,103.286,103.286,0,0,0-12.38-.37v-15.83a48.9,48.9,0,0,0,10.43-.74,29.085,29.085,0,0,0,9.31-3.26,18.179,18.179,0,0,0,6.61-6.43,18.922,18.922,0,0,0,2.51-10.05q0-8.385-5.68-13.41t-14.62-5.03a19.215,19.215,0,0,0-16.47,8.29,26.988,26.988,0,0,0-4.01,8.57,32.256,32.256,0,0,0-1.12,9.77H29.324a53.559,53.559,0,0,1,3.53-17.59A44.29,44.29,0,0,1,41.514,220a38.376,38.376,0,0,1,13.32-9.31,44.4,44.4,0,0,1,17.69-3.36,51.321,51.321,0,0,1,14.99,2.24,43.761,43.761,0,0,1,13.22,6.52,31.333,31.333,0,0,1,12.94,26.06,32.5,32.5,0,0,1-4.47,17.23q-4.47,7.35-13.97,10.71v.37a26.9,26.9,0,0,1,17.41,11.08q6.24,8.85,6.24,21.51a36.4,36.4,0,0,1-3.72,16.66,37.961,37.961,0,0,1-10.06,12.48,44.449,44.449,0,0,1-7.95,5.12c-.43.21-.86.42-1.29.62l-.06.03a1.159,1.159,0,0,0,.491,2.194H150.33a1.283,1.283,0,0,0,.65-2.373c-.611-.371-1.2-.761-1.772-1.181a44.118,44.118,0,0,1-13.78-16.391,72.81,72.81,0,0,1-6.7-21.879,155.632,155.632,0,0,1,0-46.18,72.994,72.994,0,0,1,6.7-21.88,44.091,44.091,0,0,1,13.78-16.38q7.56-5.49,18.86-6.27a1.282,1.282,0,0,1,1.37,1.29v15.27a1.279,1.279,0,0,1-1.05,1.279,15.8,15.8,0,0,0-8.01,3.7,27.546,27.546,0,0,0-7.26,10.89,66.028,66.028,0,0,0-3.82,15.92,159.9,159.9,0,0,0,0,38.64,64.663,64.663,0,0,0,3.82,15.92c2.278,5.732,6.209,11.573,12.258,13.732,5.962,2.129,13.319,1.256,18.182-2.932a27.076,27.076,0,0,0,7.36-10.8,64.663,64.663,0,0,0,3.82-15.92,159.946,159.946,0,0,0,0-38.64c-1.175-9.435-3.632-20.331-11.18-26.81a16.131,16.131,0,0,0-7.874-3.68,1.347,1.347,0,0,1-1.1-1.271v-15.3a1.287,1.287,0,0,1,1.37-1.29q11.295.795,18.87,6.27a44.184,44.184,0,0,1,13.78,16.38,73.281,73.281,0,0,1,6.7,21.88,156.78,156.78,0,0,1,0,46.18,73.1,73.1,0,0,1-6.7,21.879,44.211,44.211,0,0,1-13.78,16.391c-.568.419-1.167.808-1.765,1.177a1.284,1.284,0,0,0,.643,2.377h29.565a1.281,1.281,0,0,0,1.254-1.244q.478-15.345,7.789-26.92a71.522,71.522,0,0,1,20.86-21.05q6.33-4.65,13.22-9.03a104.294,104.294,0,0,0,12.66-9.4,50.207,50.207,0,0,0,9.5-10.89,25.952,25.952,0,0,0,3.911-13.5,36.959,36.959,0,0,0-.841-7.55,20,20,0,0,0-3.26-7.44,19.267,19.267,0,0,0-6.7-5.78,22.934,22.934,0,0,0-10.672-2.317,20.806,20.806,0,0,0-11.027,2.507,18.856,18.856,0,0,0-6.7,6.89,34.067,34.067,0,0,0-3.719,10.33,74.129,74.129,0,0,0-1.4,12.85h-21.23a66.466,66.466,0,0,1,2.89-20.01,44.189,44.189,0,0,1,8.661-15.92,40.781,40.781,0,0,1,14.06-10.53,46.642,46.642,0,0,1,20.059-3.805c6.521.072,13.218,1.015,19.131,3.905a38.116,38.116,0,0,1,12.939,9.87,36.082,36.082,0,0,1,6.99,12.94c2.6,8.883,2.978,18.713-.38,27.46a45.354,45.354,0,0,1-6.509,11.64,66.756,66.756,0,0,1-9.31,9.78q-5.22,4.47-10.8,8.38t-11.179,7.44q-5.581,3.54-10.331,7.08a60.437,60.437,0,0,0-8.29,7.36,20.8,20.8,0,0,0-4.839,8.1h62.22a1.283,1.283,0,0,1,1.28,1.28v17.578h26.654V0Z"/>
      </g>
    </g>
</svg>
