<svg xmlns="http://www.w3.org/2000/svg" width="120mm" height="120mm" viewBox="0 0 340.157 340.158">
  <g id="Zimmernummer">
      <g id="Z-03-444-R">
        <path fill="#A0552B" stroke="none" d="M337.323,0H2.835A2.835,2.835,0,0,0,0,2.835V337.323a2.834,2.834,0,0,0,2.834,2.835H73.427a2.834,2.834,0,0,0,2.834-2.835V235.261h-.454L36.754,292.568h32.7v16.711H20.407V288.3l55.854-78.378H96.333v82.646h16.71v16.711H96.333v28.044a2.834,2.834,0,0,0,2.834,2.835H176.78a2.835,2.835,0,0,0,2.835-2.835V235.261h-.454l-39.053,57.307H172.8v16.711H123.76V288.3l55.855-78.378h20.071v82.646H216.4v16.711H199.686v28.044a2.835,2.835,0,0,0,2.835,2.835h77.613a2.834,2.834,0,0,0,2.834-2.835V235.261h-.454l-39.053,57.307h32.7v16.711H227.114V288.3l55.854-78.378H303.04v82.646h16.71v16.711H303.04v28.044a2.834,2.834,0,0,0,2.834,2.835h31.449a2.834,2.834,0,0,0,2.834-2.835V2.835A2.834,2.834,0,0,0,337.323,0Z"/>
      </g>
    </g>
</svg>
