<svg xmlns="http://www.w3.org/2000/svg" width="120mm" height="120mm" viewBox="0 0 340.158 340.157">
  <g id="Zimmernummer">
      <g id="Z-03-116">
        <path fill="#000000" stroke="none" d="M337.323,0H2.835A2.835,2.835,0,0,0,0,2.835V337.323a2.834,2.834,0,0,0,2.834,2.834H71.566a2.834,2.834,0,0,0,2.835-2.834V248.556H42.432V231.845q22.887,0,33.15-11.534A20.288,20.288,0,0,0,80.3,210.229H97.651V337.323a2.834,2.834,0,0,0,2.835,2.834h55.833a2.834,2.834,0,0,0,2.835-2.834V248.556H127.185V231.845q22.887,0,33.15-11.534a20.3,20.3,0,0,0,4.722-10.082H182.4V337.323a2.834,2.834,0,0,0,2.835,2.834h41.324a2.828,2.828,0,0,0,1.69-5.1q-1.185-.864-2.283-1.811a38.68,38.68,0,0,1-8.718-10.807,62.35,62.35,0,0,1-5.4-13.487,89.883,89.883,0,0,1-2.77-15.258q-.773-7.99-.772-15.984a144.632,144.632,0,0,1,.953-16.483,97.346,97.346,0,0,1,3.225-16.122,71,71,0,0,1,6.039-14.622,46.7,46.7,0,0,1,9.31-11.9,40.7,40.7,0,0,1,13.123-7.992,48.632,48.632,0,0,1,17.483-2.906,38.91,38.91,0,0,1,26.338,10.081,37.114,37.114,0,0,1,8.355,11.215,35.823,35.823,0,0,1,3.542,14.214H275.513a24.109,24.109,0,0,0-1.725-6.9,19.239,19.239,0,0,0-3.633-5.722,16.5,16.5,0,0,0-5.4-3.859,16.756,16.756,0,0,0-6.948-1.408q-16.8,0-22.977,15.893a76.706,76.706,0,0,0-4.269,16.847,129.849,129.849,0,0,0-1.271,18.119q0,6.63.59,12.941t1.589,12.125a56.031,56.031,0,0,0,2.543,9.309,27.249,27.249,0,0,0,4.314,7.721,19.031,19.031,0,0,0,6.63,5.221,21.651,21.651,0,0,0,9.491,1.908,22.693,22.693,0,0,0,10.444-2.271,21.689,21.689,0,0,0,7.357-5.994,25.1,25.1,0,0,0,4.313-8.673,37.152,37.152,0,0,0,1.408-10.218,35.5,35.5,0,0,0-1.453-10.217,24.844,24.844,0,0,0-4.359-8.492,20.988,20.988,0,0,0-7.266-5.766,22.875,22.875,0,0,0-10.172-2.135,22.637,22.637,0,0,0-10.262,2.271,21.722,21.722,0,0,0-7.992,7.174q-.273-4.086-.273-8.083,0-2.814.136-5.5t.318-5.4a29.09,29.09,0,0,1,9.945-5.4,43.471,43.471,0,0,1,29.153,1.634,37.2,37.2,0,0,1,12.67,9.264,41.022,41.022,0,0,1,7.946,13.759,50.969,50.969,0,0,1,2.771,16.983,50.214,50.214,0,0,1-3.134,18.028,41.855,41.855,0,0,1-8.81,14.168A38.037,38.037,0,0,1,282,335.045a2.83,2.83,0,0,0,1.677,5.112h53.645a2.835,2.835,0,0,0,2.835-2.834V2.834A2.835,2.835,0,0,0,337.323,0Z"/>
      </g>
    </g>
</svg>
