<svg xmlns="http://www.w3.org/2000/svg" width="120mm" height="120mm" viewBox="0 0 340.157 340.157">
  <g id="Zimmernummer">
      <g id="Z-03-031-R">
        <path fill="#A0552B" stroke="none" d="M337.323,0H2.834A2.834,2.834,0,0,0,0,2.834V337.323a2.834,2.834,0,0,0,2.834,2.834H146.708a2.828,2.828,0,0,0,1.647-5.129q-9.217-6.635-13.761-18.805a57.918,57.918,0,0,1-3.179-18.619h21.252q-.273,11.9,5.9,19.8t17.71,7.9q11.533,0,18.709-5.994t7.175-17.256q0-13.623-10.808-18.891-7.627-3.723-23.25-3.269v-15.8q19.345.636,26.338-10.354,2.453-4.086,2.452-11.261a15.673,15.673,0,0,0-5.63-12.17,18.692,18.692,0,0,0-12.9-5.086q-17.71-.09-22.16,16.892a32.545,32.545,0,0,0-1.09,9.718H133.867q.726-18.981,12.17-31.6t30.97-12.624a47.989,47.989,0,0,1,28.7,8.991q12.441,9.081,12.442,25.793,0,21.342-18.436,27.882v.363a27.2,27.2,0,0,1,17.437,11.08,33.607,33.607,0,0,1,6.267,19.8q-.091,19.707-13.623,30.606a48.328,48.328,0,0,1-3.936,2.856,2.83,2.83,0,0,0,1.576,5.185H268.08a2.834,2.834,0,0,0,2.835-2.834V248.471H238.946V231.76q22.887,0,33.15-11.534a20.289,20.289,0,0,0,4.722-10.081h17.347V337.323A2.834,2.834,0,0,0,297,340.157h40.323a2.834,2.834,0,0,0,2.834-2.834V2.834A2.834,2.834,0,0,0,337.323,0Z"/>
      </g>
    </g>
</svg>
