<svg xmlns="http://www.w3.org/2000/svg" width="120mm" height="120mm" viewBox="0 0 340.158 340.157">
  <g id="Zimmernummer">
      <g id="Z-03-336">
        <path fill="#000000" stroke="none" d="M337.323,0H2.835A2.835,2.835,0,0,0,0,2.835V337.323a2.834,2.834,0,0,0,2.834,2.834H41.181a2.835,2.835,0,0,0,1.6-5.17q-9.37-6.652-13.964-18.967A57.918,57.918,0,0,1,25.64,297.4H46.892q-.272,11.9,5.9,19.8t17.71,7.9q11.532,0,18.709-5.995t7.174-17.255q0-13.623-10.807-18.891-7.629-3.723-23.25-3.27v-15.8q19.344.635,26.338-10.354,2.451-4.086,2.452-11.262A15.674,15.674,0,0,0,85.491,230.1a18.689,18.689,0,0,0-12.9-5.086q-17.711-.09-22.161,16.892a32.544,32.544,0,0,0-1.089,9.718H28.093q.725-18.981,12.17-31.606T71.232,207.4a47.988,47.988,0,0,1,28.7,8.992q12.443,9.081,12.443,25.793,0,21.342-18.437,27.881v.364a27.2,27.2,0,0,1,17.438,11.08,33.6,33.6,0,0,1,6.266,19.8q-.092,19.707-13.623,30.606a48.729,48.729,0,0,1-4.217,3.044,2.828,2.828,0,0,0,1.547,5.2h39.467a2.835,2.835,0,0,0,1.6-5.17q-9.37-6.652-13.964-18.967a57.891,57.891,0,0,1-3.178-18.619h21.252q-.273,11.9,5.9,19.8t17.71,7.9q11.532,0,18.709-5.995t7.175-17.255q0-13.623-10.808-18.891-7.629-3.723-23.25-3.27v-15.8q19.345.635,26.338-10.354,2.452-4.086,2.452-11.262a15.671,15.671,0,0,0-5.631-12.169,18.689,18.689,0,0,0-12.9-5.086q-17.711-.09-22.16,16.892a32.545,32.545,0,0,0-1.09,9.718H127.726q.726-18.981,12.17-31.606t30.97-12.624a47.992,47.992,0,0,1,28.7,8.992q12.441,9.081,12.442,25.793,0,21.342-18.436,27.881v.364a27.2,27.2,0,0,1,17.437,11.08,33.6,33.6,0,0,1,6.267,19.8q-.092,19.707-13.623,30.606a48.9,48.9,0,0,1-4.218,3.044,2.828,2.828,0,0,0,1.547,5.2H244.1a2.834,2.834,0,0,0,1.6-5.167q-1.349-.963-2.588-2.033A38.7,38.7,0,0,1,234.4,322.15a62.4,62.4,0,0,1-5.4-13.487,90.08,90.08,0,0,1-2.77-15.258q-.772-7.99-.772-15.984a144.406,144.406,0,0,1,.954-16.483,97.427,97.427,0,0,1,3.224-16.122,71,71,0,0,1,6.04-14.622,46.675,46.675,0,0,1,9.309-11.9,40.7,40.7,0,0,1,13.123-7.992,48.639,48.639,0,0,1,17.483-2.907,38.923,38.923,0,0,1,26.338,10.081,37.134,37.134,0,0,1,8.356,11.216,35.84,35.84,0,0,1,3.542,14.214H292.659a24.076,24.076,0,0,0-1.725-6.9,19.219,19.219,0,0,0-3.633-5.722,16.475,16.475,0,0,0-5.4-3.859,16.755,16.755,0,0,0-6.947-1.408q-16.8,0-22.978,15.893a76.762,76.762,0,0,0-4.269,16.847,129.849,129.849,0,0,0-1.271,18.119q0,6.63.59,12.941t1.59,12.125a55.838,55.838,0,0,0,2.543,9.309,27.214,27.214,0,0,0,4.314,7.721,19.037,19.037,0,0,0,6.629,5.221,21.651,21.651,0,0,0,9.491,1.908,22.7,22.7,0,0,0,10.445-2.271,21.7,21.7,0,0,0,7.356-5.994,25.115,25.115,0,0,0,4.314-8.673,37.19,37.19,0,0,0,1.408-10.218,35.535,35.535,0,0,0-1.453-10.217,24.846,24.846,0,0,0-4.36-8.492,20.984,20.984,0,0,0-7.265-5.766,24.8,24.8,0,0,0-20.435.135,21.75,21.75,0,0,0-7.992,7.175q-.273-4.086-.273-8.083,0-2.814.137-5.5t.317-5.4a29.128,29.128,0,0,1,9.945-5.4,43.483,43.483,0,0,1,29.154,1.635,37.2,37.2,0,0,1,12.669,9.264,41.024,41.024,0,0,1,7.947,13.759,50.994,50.994,0,0,1,2.77,16.983,50.2,50.2,0,0,1-3.134,18.027,41.817,41.817,0,0,1-8.809,14.168,42.8,42.8,0,0,1-5.607,4.8,2.83,2.83,0,0,0,1.666,5.121h36.934a2.835,2.835,0,0,0,2.835-2.834V2.834A2.835,2.835,0,0,0,337.323,0Z"/>
      </g>
    </g>
</svg>
