<svg xmlns="http://www.w3.org/2000/svg" width="120.001mm" height="120.001mm" viewBox="0 0 340.16 340.16">
  <g id="Zimmernummer">
      <g id="Z-03-010-M">
        <path fill="#D4AF37" stroke="none" d="M340.16,2.835v334.49a2.835,2.835,0,0,1-2.835,2.835H288.66a1.282,1.282,0,0,1-.69-2.37c.61-.38,1.2-.77,1.78-1.19a44.184,44.184,0,0,0,13.78-16.38,73.49,73.49,0,0,0,6.7-21.88,151.492,151.492,0,0,0,0-46.18,73.4,73.4,0,0,0-6.7-21.88,44.216,44.216,0,0,0-13.78-16.39q-7.56-5.49-18.87-6.27a1.293,1.293,0,0,0-1.37,1.29v15.3a1.269,1.269,0,0,0,1.03,1.26,16.244,16.244,0,0,1,7.94,3.69,27.1,27.1,0,0,1,7.36,10.89,65.689,65.689,0,0,1,3.81,15.92,156.372,156.372,0,0,1,1.12,19.28,158.294,158.294,0,0,1-1.12,19.36,64.122,64.122,0,0,1-3.81,15.92,27.036,27.036,0,0,1-7.36,10.8,18.754,18.754,0,0,1-23.18,0,27.49,27.49,0,0,1-7.26-10.8,64.106,64.106,0,0,1-3.82-15.92,158.294,158.294,0,0,1-1.12-19.36,156.372,156.372,0,0,1,1.12-19.28,65.676,65.676,0,0,1,3.82-15.92,27.554,27.554,0,0,1,7.26-10.89,15.879,15.879,0,0,1,8.01-3.7,1.282,1.282,0,0,0,1.05-1.28V208.91a1.293,1.293,0,0,0-1.37-1.29q-11.3.8-18.86,6.27a44.122,44.122,0,0,0-13.78,16.39,73.122,73.122,0,0,0-6.71,21.88,151.492,151.492,0,0,0,0,46.18,73.212,73.212,0,0,0,6.71,21.88,44.091,44.091,0,0,0,13.78,16.38c.574.423,1.169.816,1.784,1.2a1.282,1.282,0,0,1-.694,2.362H198.264a2.834,2.834,0,0,1-2.834-2.835V210.07H178.12a20.553,20.553,0,0,1-4.75,10.06,29.261,29.261,0,0,1-8.75,6.7,40.91,40.91,0,0,1-11.46,3.73,75.283,75.283,0,0,1-13.03,1.11v16.76h32.03v88.895a2.835,2.835,0,0,1-2.835,2.835H2.835A2.835,2.835,0,0,1,0,337.325V2.835A2.835,2.835,0,0,1,2.835,0h334.49A2.835,2.835,0,0,1,340.16,2.835Z"/>
      </g>
    </g>
</svg>
