<svg xmlns="http://www.w3.org/2000/svg" width="120mm" height="120mm" viewBox="0 0 340.157 340.157">
  <g id="Zimmernummer">
      <g id="Z-03-321-R">
        <path fill="#A0552B" stroke="none" d="M337.323,0H2.834A2.834,2.834,0,0,0,0,2.834V337.323a2.834,2.834,0,0,0,2.834,2.834H53.463a2.835,2.835,0,0,0,1.6-5.17q-9.37-6.652-13.964-18.967A57.891,57.891,0,0,1,37.923,297.4H59.174q-.271,11.9,5.9,19.8t17.71,7.9q11.532,0,18.709-5.995t7.175-17.255q0-13.623-10.808-18.891-7.629-3.723-23.25-3.27v-15.8q19.344.635,26.338-10.354,2.453-4.086,2.452-11.262A15.671,15.671,0,0,0,97.773,230.1a18.689,18.689,0,0,0-12.9-5.086q-17.711-.09-22.161,16.892a32.577,32.577,0,0,0-1.089,9.718H40.375q.726-18.981,12.17-31.606T83.514,207.4a47.993,47.993,0,0,1,28.7,8.992q12.441,9.081,12.442,25.793,0,21.342-18.437,27.881v.364a27.2,27.2,0,0,1,17.438,11.08,33.6,33.6,0,0,1,6.267,19.8q-.093,19.707-13.624,30.606a48.729,48.729,0,0,1-4.217,3.044,2.828,2.828,0,0,0,1.547,5.2h22.737a2.822,2.822,0,0,0,2.823-2.658q1.545-28.163,28.518-46.637,6.355-4.632,13.26-8.991,25.52-16.164,25.975-33.785,0-9.264-3.27-13.805a24.447,24.447,0,0,0-7.538-6.9,21.829,21.829,0,0,0-10.808-2.361q-6.63,0-10.807,2.543-11.172,6.811-11.807,30.061H141.461q0-22.251,11.807-36.237T186.326,207.4q21.252,0,32.877,13.714,8.991,10.989,8.992,26.247,0,20.073-18.255,35.511a149.676,149.676,0,0,1-18.074,13.351q-9.446,5.994-14.168,9.536-10.809,8.084-13.169,15.439h63.484v16.127a2.834,2.834,0,0,0,2.835,2.834H270.5a2.834,2.834,0,0,0,2.835-2.834V248.268H241.367V231.557q22.887,0,33.15-11.535a20.281,20.281,0,0,0,4.722-10.081h17.347V337.323a2.834,2.834,0,0,0,2.835,2.834h37.9a2.834,2.834,0,0,0,2.834-2.834V2.834A2.834,2.834,0,0,0,337.323,0Z"/>
      </g>
    </g>
</svg>
