<svg xmlns="http://www.w3.org/2000/svg" width="120.001mm" height="120.001mm" viewBox="0 0 340.16 340.16">
  <g id="Zimmernummer">
      <g id="Z-03-006-R">
        <path fill="#A0552B" stroke="none" d="M340.16,2.835v334.49a2.835,2.835,0,0,1-2.835,2.835H290.33a1.281,1.281,0,0,1-.57-2.43,40.6,40.6,0,0,0,12.89-10.43c6.66-8.23,9.72-18.72,9.72-29.22a51.038,51.038,0,0,0-4.09-20.58,38.323,38.323,0,0,0-25.61-21.8c-11.36-2.88-25.06-1.54-33.91,6.79a1.3,1.3,0,0,0-.41.83c-.17,1.82-.32,3.66-.48,5.48-.2,4.21-.17,8.43.02,12.63a.517.517,0,0,0,.96.24c4.95-8.09,14.37-11.83,23.76-10.21,18.92,3.27,23.14,29.21,14.04,43.36-4.87,7.56-13.37,11.05-22.18,9.79a22.708,22.708,0,0,1-18.2-16.67,30.508,30.508,0,0,1-.88-3.54,125.166,125.166,0,0,1-2.33-17.46,150.13,150.13,0,0,1-.34-18.49c.69-7.1,1.28-14.09,3.12-21.02,1.52-5.7,3.65-11.45,7.73-15.85a21.162,21.162,0,0,1,14.35-6.75c5.1-.32,10.4.7,14.34,4.15a20.376,20.376,0,0,1,6.46,13.65h21.23a37.71,37.71,0,0,0-1.18-7.83,37.15,37.15,0,0,0-18.22-22.72c-9.41-5.13-20.62-6.15-31.01-3.83-20.59,4.61-32.02,24.76-35.83,44.06a131.366,131.366,0,0,0-1.78,34.8c.74,10.65,2.24,21.51,6.74,31.28,3.95,8.59,10.34,15.87,18.94,19.99l.05.02a.927.927,0,0,1-.4,1.76H2.835A2.835,2.835,0,0,1,0,337.325V2.835A2.835,2.835,0,0,1,2.835,0h334.49A2.835,2.835,0,0,1,340.16,2.835Z"/>
      </g>
    </g>
</svg>
