<svg xmlns="http://www.w3.org/2000/svg" width="120mm" height="120mm" viewBox="0 0 340.157 340.157">
  <g id="Zimmernummer">
      <g id="Z-03-616">
        <path fill="#000000" stroke="none" d="M337.323,0H2.834A2.834,2.834,0,0,0,0,2.834V337.323a2.834,2.834,0,0,0,2.834,2.834H49.291a2.834,2.834,0,0,0,1.6-5.167q-1.365-.972-2.615-2.052a38.7,38.7,0,0,1-8.719-10.807,62.4,62.4,0,0,1-5.4-13.488,90.08,90.08,0,0,1-2.77-15.258q-.773-7.989-.772-15.985a144.16,144.16,0,0,1,.954-16.482A97.413,97.413,0,0,1,34.792,244.8a70.959,70.959,0,0,1,6.041-14.623,46.694,46.694,0,0,1,9.308-11.9,40.714,40.714,0,0,1,13.123-7.992,48.671,48.671,0,0,1,17.484-2.906,38.923,38.923,0,0,1,26.337,10.08,37.11,37.11,0,0,1,8.356,11.217,35.8,35.8,0,0,1,3.542,14.213H97.822a24.092,24.092,0,0,0-1.726-6.9,19.209,19.209,0,0,0-3.633-5.72,16.457,16.457,0,0,0-5.4-3.86A16.748,16.748,0,0,0,80.112,225q-16.8,0-22.978,15.893a76.734,76.734,0,0,0-4.268,16.847,129.709,129.709,0,0,0-1.272,18.119q0,6.63.59,12.942t1.59,12.125a55.826,55.826,0,0,0,2.543,9.308,27.239,27.239,0,0,0,4.314,7.721,19.069,19.069,0,0,0,6.629,5.221,21.672,21.672,0,0,0,9.491,1.908A22.707,22.707,0,0,0,87.2,322.811a21.643,21.643,0,0,0,7.356-6,25.079,25.079,0,0,0,4.314-8.671,37.2,37.2,0,0,0,1.408-10.219,35.5,35.5,0,0,0-1.453-10.217,24.82,24.82,0,0,0-4.36-8.492,20.984,20.984,0,0,0-7.265-5.766,22.862,22.862,0,0,0-10.172-2.135,22.657,22.657,0,0,0-10.263,2.27,21.752,21.752,0,0,0-7.992,7.176q-.273-4.088-.272-8.084,0-2.812.136-5.494t.318-5.405a29.127,29.127,0,0,1,9.944-5.4,40.206,40.206,0,0,1,12.216-1.772,40.473,40.473,0,0,1,16.938,3.407,37.194,37.194,0,0,1,12.669,9.263,41.022,41.022,0,0,1,7.947,13.758,51.006,51.006,0,0,1,2.77,16.985,50.187,50.187,0,0,1-3.134,18.027,41.834,41.834,0,0,1-8.808,14.168,38.465,38.465,0,0,1-5.591,4.819,2.829,2.829,0,0,0,1.661,5.125h61.172a2.834,2.834,0,0,0,2.835-2.834V248.248H137.6V231.537q22.887,0,33.149-11.535a20.287,20.287,0,0,0,4.723-10.08H192.82v127.4a2.834,2.834,0,0,0,2.834,2.834H237.4a2.837,2.837,0,0,0,1.594-5.177q-1.349-.959-2.606-2.042a38.7,38.7,0,0,1-8.719-10.807,62.4,62.4,0,0,1-5.4-13.488,89.981,89.981,0,0,1-2.769-15.258q-.774-7.989-.773-15.985a144.389,144.389,0,0,1,.954-16.482A97.312,97.312,0,0,1,222.9,244.8a70.956,70.956,0,0,1,6.04-14.623,46.7,46.7,0,0,1,9.309-11.9,40.714,40.714,0,0,1,13.123-7.992,48.662,48.662,0,0,1,17.483-2.906,38.928,38.928,0,0,1,26.338,10.08,37.123,37.123,0,0,1,8.355,11.217,35.8,35.8,0,0,1,3.542,14.213H285.929a24.091,24.091,0,0,0-1.725-6.9,19.249,19.249,0,0,0-3.633-5.72,16.477,16.477,0,0,0-5.4-3.86A16.753,16.753,0,0,0,268.219,225q-16.8,0-22.977,15.893a76.791,76.791,0,0,0-4.269,16.847,129.86,129.86,0,0,0-1.271,18.119q0,6.63.59,12.942t1.589,12.125a55.923,55.923,0,0,0,2.543,9.308,27.241,27.241,0,0,0,4.315,7.721,19.06,19.06,0,0,0,6.629,5.221,21.669,21.669,0,0,0,9.491,1.908,22.705,22.705,0,0,0,10.444-2.271,21.657,21.657,0,0,0,7.357-6,25.078,25.078,0,0,0,4.313-8.671,37.165,37.165,0,0,0,1.408-10.219,35.5,35.5,0,0,0-1.453-10.217,24.836,24.836,0,0,0-4.359-8.492,21,21,0,0,0-7.266-5.766,24.8,24.8,0,0,0-20.434.135,21.746,21.746,0,0,0-7.993,7.176q-.272-4.088-.272-8.084,0-2.812.137-5.494t.317-5.405a29.136,29.136,0,0,1,9.944-5.4,43.47,43.47,0,0,1,29.155,1.635,37.194,37.194,0,0,1,12.669,9.263,41.02,41.02,0,0,1,7.946,13.758,50.981,50.981,0,0,1,2.77,16.985,50.187,50.187,0,0,1-3.133,18.027,41.837,41.837,0,0,1-8.809,14.168,38.412,38.412,0,0,1-5.591,4.819,2.83,2.83,0,0,0,1.661,5.125h43.653a2.834,2.834,0,0,0,2.834-2.834V2.834A2.834,2.834,0,0,0,337.323,0Z"/>
      </g>
    </g>
</svg>
