<svg xmlns="http://www.w3.org/2000/svg" width="120.001mm" height="120.001mm" viewBox="0 0 340.16 340.16">
  <g id="Zimmernummer">
      <g id="Z-03-001-R">
        <path fill="#A0552B" stroke="none" d="M337.325,0H2.835A2.835,2.835,0,0,0,0,2.835V337.326a2.834,2.834,0,0,0,2.834,2.834H270.585a2.834,2.834,0,0,0,2.835-2.834V248.3H241.39V231.54a74.421,74.421,0,0,0,13.04-1.12,40.409,40.409,0,0,0,11.45-3.72,29.425,29.425,0,0,0,8.75-6.7,20.466,20.466,0,0,0,4.75-10.06H296.7V337.326a2.834,2.834,0,0,0,2.834,2.834h37.791a2.834,2.834,0,0,0,2.835-2.834V2.835A2.835,2.835,0,0,0,337.325,0Z"/>
      </g>
    </g>
</svg>
