<svg xmlns="http://www.w3.org/2000/svg" width="120mm" height="120mm" viewBox="0 0 340.158 340.157">
  <g id="Zimmernummer">
      <g id="Z-03-530">
        <path fill="#000000" stroke="none" d="M337.323,0H2.835A2.835,2.835,0,0,0,0,2.835V337.322a2.835,2.835,0,0,0,2.835,2.835H36.866a2.831,2.831,0,0,0,1.524-5.215,40.78,40.78,0,0,1-3.316-2.413Q22.36,322.268,21.633,303.1H42.8q.9,10.716,7.266,16.347t16.71,5.631q23.793,0,24.249-28.608,0-18.345-13.713-24.976a24.526,24.526,0,0,0-11.08-2.18q-16.622,0-20.981,11.9H23.994L37.98,209.922h67.3V228.9h-51.5l-6.721,33.15.364.363q8.81-9.9,25.611-9.9a39.509,39.509,0,0,1,15.713,3.269q14.985,6.45,20.707,22.978a50.892,50.892,0,0,1,2.725,16.529q0,18.484-10.283,31.649a2.96,2.96,0,0,1-.58.56l-10.252,7.537a2.834,2.834,0,0,0,1.678,5.118h46.99a2.835,2.835,0,0,0,1.6-5.172q-9.389-6.654-13.986-18.985a57.907,57.907,0,0,1-3.178-18.618h21.252q-.273,11.9,5.9,19.8t17.711,7.9q11.532,0,18.709-5.994t7.174-17.256q0-13.623-10.807-18.891-7.629-3.723-23.25-3.269v-15.8q19.346.636,26.338-10.353,2.452-4.088,2.451-11.262a15.675,15.675,0,0,0-5.63-12.17,18.688,18.688,0,0,0-12.9-5.086q-17.71-.09-22.16,16.893a32.6,32.6,0,0,0-1.09,9.717H126.621q.726-18.981,12.17-31.605t30.971-12.624a47.994,47.994,0,0,1,28.7,8.991q12.442,9.083,12.441,25.793,0,21.343-18.435,27.882v.363a27.2,27.2,0,0,1,17.437,11.08,33.606,33.606,0,0,1,6.266,19.8q-.09,19.546-13.4,30.428a2.937,2.937,0,0,1-.468.313l-5.16,2.8a2.835,2.835,0,0,0,1.354,5.325h48.764a2.835,2.835,0,0,0,1.7-5.1,38.031,38.031,0,0,1-3.629-3.207,42.939,42.939,0,0,1-8.22-11.761,75.605,75.605,0,0,1-5.131-14.3,105.421,105.421,0,0,1-2.68-15.531q-.771-7.946-.772-15.484,0-6.994.682-14.532a106.067,106.067,0,0,1,2.406-14.849,78.546,78.546,0,0,1,4.678-13.941,44.269,44.269,0,0,1,7.584-11.76,37.752,37.752,0,0,1,11.08-8.4,38.56,38.56,0,0,1,15.166-3.814v17.8q-20.434,3.36-20.433,49.769,0,3.906.181,9.173a104.25,104.25,0,0,0,.953,10.808,79.638,79.638,0,0,0,2.317,10.944,37.6,37.6,0,0,0,4.177,9.627,22.1,22.1,0,0,0,6.629,6.856,17.091,17.091,0,0,0,9.627,2.634q23.7,0,23.705-50.042,0-46.227-20.343-49.769v-17.8a38.56,38.56,0,0,1,15.166,3.814,36.838,36.838,0,0,1,11.035,8.446,46.692,46.692,0,0,1,7.584,11.807,76.347,76.347,0,0,1,4.723,13.942,106.619,106.619,0,0,1,2.406,14.848q.68,7.54.681,14.531,0,7.629-.773,15.667a100.034,100.034,0,0,1-2.725,15.576,74.858,74.858,0,0,1-5.22,14.213,42.776,42.776,0,0,1-8.311,11.67,37.885,37.885,0,0,1-3.485,3.061,2.838,2.838,0,0,0,1.687,5.112h37.625a2.835,2.835,0,0,0,2.835-2.835V2.835A2.835,2.835,0,0,0,337.323,0Z"/>
      </g>
    </g>
</svg>
