<svg xmlns="http://www.w3.org/2000/svg" width="120mm" height="120mm" viewBox="0 0 340.158 340.157">
  <g id="Zimmernummer">
      <g id="Z-03-648-M">
        <path fill="#D4AF37" stroke="none" d="M337.323,0H2.835A2.835,2.835,0,0,0,0,2.835V337.323a2.834,2.834,0,0,0,2.834,2.834H39.673a2.834,2.834,0,0,0,1.6-5.167q-1.364-.972-2.614-2.052a38.663,38.663,0,0,1-8.719-10.807,62.308,62.308,0,0,1-5.4-13.488,90.08,90.08,0,0,1-2.77-15.258Q21,285.4,21,277.4a144.191,144.191,0,0,1,.954-16.483A97.311,97.311,0,0,1,25.175,244.8a71.012,71.012,0,0,1,6.04-14.623,46.7,46.7,0,0,1,9.309-11.9,40.68,40.68,0,0,1,13.123-7.992,48.647,48.647,0,0,1,17.483-2.907,38.923,38.923,0,0,1,26.338,10.08,37.138,37.138,0,0,1,8.356,11.217,35.806,35.806,0,0,1,3.542,14.213H88.205a24.119,24.119,0,0,0-1.726-6.9,19.214,19.214,0,0,0-3.633-5.721,16.439,16.439,0,0,0-5.4-3.859A16.732,16.732,0,0,0,70.5,225q-16.8,0-22.978,15.892a76.729,76.729,0,0,0-4.268,16.848,129.688,129.688,0,0,0-1.272,18.119q0,6.63.59,12.941t1.59,12.125a55.838,55.838,0,0,0,2.543,9.309,27.252,27.252,0,0,0,4.314,7.721,19.046,19.046,0,0,0,6.629,5.22,21.657,21.657,0,0,0,9.491,1.909,22.7,22.7,0,0,0,10.445-2.272,21.662,21.662,0,0,0,7.356-5.994,25.084,25.084,0,0,0,4.314-8.672,37.2,37.2,0,0,0,1.408-10.219A35.54,35.54,0,0,0,89.2,287.709a24.82,24.82,0,0,0-4.36-8.492,20.981,20.981,0,0,0-7.265-5.765,22.865,22.865,0,0,0-10.172-2.135,22.667,22.667,0,0,0-10.263,2.269,21.76,21.76,0,0,0-7.992,7.176q-.273-4.086-.273-8.084,0-2.812.137-5.494t.317-5.4a29.143,29.143,0,0,1,9.945-5.4,40.233,40.233,0,0,1,12.216-1.771,40.488,40.488,0,0,1,16.938,3.406,37.209,37.209,0,0,1,12.669,9.264,40.984,40.984,0,0,1,7.946,13.758,50.971,50.971,0,0,1,2.771,16.984,50.183,50.183,0,0,1-3.134,18.027,41.8,41.8,0,0,1-8.809,14.168,38.4,38.4,0,0,1-5.59,4.819,2.83,2.83,0,0,0,1.661,5.125h79.609a2.834,2.834,0,0,0,2.834-2.834V235.26h-.454l-39.053,57.309h32.7V309.28H122.535V288.3l55.854-78.377H198.46v82.647h16.711V309.28H198.46v28.043a2.835,2.835,0,0,0,2.835,2.834h41.361a2.829,2.829,0,0,0,1.55-5.2,39.552,39.552,0,0,1-3.514-2.566,36.425,36.425,0,0,1-9.9-12.8,41.075,41.075,0,0,1-3.632-17.755,36.583,36.583,0,0,1,1.68-11.354,31.191,31.191,0,0,1,4.768-9.264,29.03,29.03,0,0,1,7.538-6.947,32.977,32.977,0,0,1,9.9-4.223v-.363a26.97,26.97,0,0,1-18.436-26.793,38.863,38.863,0,0,1,2.724-15.121,29.36,29.36,0,0,1,7.675-10.853,34.834,34.834,0,0,1,11.761-6.721,52.719,52.719,0,0,1,14.985-2.725v16.8a20.717,20.717,0,0,0-12.488,6.312q-4.587,5.04-4.586,13.305,0,8.173,4.5,13.123t12.578,5.949v16.166a26.855,26.855,0,0,0-8.763,2.27,21.292,21.292,0,0,0-6.721,4.77,21.043,21.043,0,0,0-4.314,6.992,27.36,27.36,0,0,0,.318,18.982,21.847,21.847,0,0,0,5.131,7.492,22.121,22.121,0,0,0,7.81,4.723,30.787,30.787,0,0,0,19.8,0,22.6,22.6,0,0,0,7.856-4.723,21.481,21.481,0,0,0,5.177-7.539,27.855,27.855,0,0,0,.364-19.025,19.721,19.721,0,0,0-4.315-6.949,22.441,22.441,0,0,0-6.721-4.723,26.549,26.549,0,0,0-8.809-2.27V262.961q8.084-1,12.533-5.857t4.45-13.033q0-8.265-4.5-13.442t-12.487-6.357v-16.8a51.255,51.255,0,0,1,15.849,2.953,33.409,33.409,0,0,1,11.669,7.129,29.759,29.759,0,0,1,7.175,10.9,39.883,39.883,0,0,1,2.452,14.439,28.815,28.815,0,0,1-4.677,16.485,27.459,27.459,0,0,1-13.759,10.308v.363a33.188,33.188,0,0,1,9.763,4.178,30.1,30.1,0,0,1,12.4,15.621,31.554,31.554,0,0,1,1.726,10.535,45.233,45.233,0,0,1-3.452,18.254,36.995,36.995,0,0,1-13.524,16.341,2.83,2.83,0,0,0,1.576,5.183h33.562a2.835,2.835,0,0,0,2.835-2.835V2.834A2.834,2.834,0,0,0,337.323,0Z"/>
      </g>
    </g>
</svg>
