<svg xmlns="http://www.w3.org/2000/svg" width="120mm" height="120mm" viewBox="0 0 340.157 340.157">
  <g id="Zimmernummer">
      <g id="Z-03-212-M">
        <path fill="#D4AF37" stroke="none" d="M337.323,0H2.834A2.834,2.834,0,0,0,0,2.834V337.323a2.834,2.834,0,0,0,2.834,2.834H26.589a2.822,2.822,0,0,0,2.822-2.645q1.662-27.977,28.495-46.362,6.355-4.632,13.26-8.991Q96.686,266,97.14,248.374q0-9.264-3.269-13.805a24.447,24.447,0,0,0-7.538-6.9,21.829,21.829,0,0,0-10.808-2.361q-6.63,0-10.808,2.543-11.17,6.811-11.806,30.061H31.659q0-22.251,11.806-36.237t33.059-13.986q21.252,0,32.877,13.713,8.991,10.99,8.991,26.247,0,20.073-18.255,35.511a149.665,149.665,0,0,1-18.073,13.351Q72.617,302.5,67.9,306.045q-10.809,8.085-13.169,15.439h63.484v15.839a2.834,2.834,0,0,0,2.834,2.834h40.584a2.835,2.835,0,0,0,2.835-2.834V248.556H132.5V231.845q22.887,0,33.149-11.534a20.3,20.3,0,0,0,4.723-10.082h17.347V337.323a2.834,2.834,0,0,0,2.834,2.834h26.009a2.821,2.821,0,0,0,2.821-2.645q1.662-27.977,28.5-46.362,6.356-4.632,13.26-8.991,25.52-16.164,25.975-33.785,0-9.264-3.27-13.805a24.447,24.447,0,0,0-7.538-6.9,21.829,21.829,0,0,0-10.808-2.361q-6.63,0-10.807,2.543-11.172,6.811-11.807,30.061H221.626q0-22.251,11.807-36.237t33.058-13.986q21.252,0,32.877,13.713,8.991,10.99,8.992,26.247,0,20.073-18.255,35.511a149.676,149.676,0,0,1-18.074,13.351q-9.446,5.994-14.168,9.536-10.809,8.085-13.169,15.439h63.484v15.839a2.834,2.834,0,0,0,2.835,2.834h26.31a2.834,2.834,0,0,0,2.834-2.834V2.834A2.834,2.834,0,0,0,337.323,0Z"/>
      </g>
    </g>
</svg>
