<svg xmlns="http://www.w3.org/2000/svg" width="120mm" height="120mm" viewBox="0 0 340.157 340.157">
  <g id="Zimmernummer">
      <g id="Z-03-052-E">
        <path fill="#A09f9d" stroke="none" d="M337.323,0H2.834A2.834,2.834,0,0,0,0,2.834V337.323a2.834,2.834,0,0,0,2.834,2.834H133.476A2.831,2.831,0,0,0,135,334.943q-1.683-1.105-3.244-2.365-12.715-10.263-13.441-29.426h21.161q.906,10.716,7.266,16.348t16.711,5.63q23.793,0,24.249-28.608,0-18.345-13.714-24.976a24.526,24.526,0,0,0-11.08-2.179q-16.62,0-20.98,11.9H120.679l13.987-71.294h67.3v18.982H150.468l-6.72,33.149.363.363q8.808-9.9,25.611-9.9a39.525,39.525,0,0,1,15.712,3.269q14.985,6.45,20.707,22.978a50.865,50.865,0,0,1,2.725,16.529q0,18.711-10.535,31.969a42.851,42.851,0,0,1-8,7.754,2.837,2.837,0,0,0,1.73,5.093h27.6a2.821,2.821,0,0,0,2.822-2.656q1.557-28.146,28.516-46.61,6.357-4.632,13.26-8.991,25.519-16.164,25.975-33.785,0-9.264-3.27-13.805a24.447,24.447,0,0,0-7.538-6.9,21.818,21.818,0,0,0-10.808-2.362q-6.63,0-10.807,2.543-11.17,6.811-11.807,30.062H224.759q0-22.251,11.807-36.237t33.059-13.987q21.25,0,32.876,13.714,8.993,10.989,8.992,26.247,0,20.073-18.255,35.511a149.93,149.93,0,0,1-18.073,13.351q-9.447,5.994-14.168,9.536-10.809,8.084-13.169,15.439h63.483v16.1a2.834,2.834,0,0,0,2.835,2.834h23.177a2.834,2.834,0,0,0,2.834-2.834V2.834A2.834,2.834,0,0,0,337.323,0Z"/>
      </g>
    </g>
</svg>
