<svg xmlns="http://www.w3.org/2000/svg" width="120mm" height="120mm" viewBox="0 0 340.157 340.157">
  <g id="Zimmernummer">
      <g id="Z-03-328-R">
        <path fill="#A0552B" stroke="none" d="M337.323,0H2.834A2.834,2.834,0,0,0,0,2.834V337.323a2.834,2.834,0,0,0,2.834,2.834H38.578a2.835,2.835,0,0,0,1.6-5.17q-9.372-6.652-13.964-18.967A57.918,57.918,0,0,1,23.037,297.4H44.289q-.273,11.9,5.9,19.8t17.71,7.9q11.533,0,18.709-5.995t7.175-17.255q0-13.623-10.807-18.891-7.629-3.723-23.25-3.27v-15.8q19.344.635,26.337-10.354,2.452-4.086,2.453-11.262A15.674,15.674,0,0,0,82.888,230.1a18.69,18.69,0,0,0-12.9-5.086q-17.709-.09-22.16,16.892a32.545,32.545,0,0,0-1.09,9.718H25.489q.726-18.981,12.17-31.606T68.629,207.4a47.99,47.99,0,0,1,28.7,8.992q12.442,9.081,12.443,25.793,0,21.342-18.437,27.881v.364a27.205,27.205,0,0,1,17.438,11.08,33.611,33.611,0,0,1,6.266,19.8q-.091,19.707-13.623,30.606a48.744,48.744,0,0,1-4.218,3.044,2.829,2.829,0,0,0,1.548,5.2h22.737A2.821,2.821,0,0,0,124.3,337.5q1.545-28.163,28.519-46.637,6.355-4.632,13.26-8.991,25.52-16.164,25.974-33.785,0-9.264-3.269-13.805a24.447,24.447,0,0,0-7.538-6.9,21.829,21.829,0,0,0-10.808-2.361q-6.63,0-10.808,2.543-11.17,6.811-11.806,30.061H126.576q0-22.251,11.806-36.237T171.441,207.4q21.252,0,32.877,13.714,8.991,10.989,8.991,26.247,0,20.073-18.255,35.511a149.744,149.744,0,0,1-18.073,13.351q-9.447,5.994-14.168,9.536Q152,313.841,149.644,321.2h63.483v16.127a2.835,2.835,0,0,0,2.835,2.834h21.8a2.829,2.829,0,0,0,1.56-5.192,40.074,40.074,0,0,1-3.487-2.553,36.425,36.425,0,0,1-9.9-12.8,41.058,41.058,0,0,1-3.633-17.755,36.576,36.576,0,0,1,1.68-11.353,31.215,31.215,0,0,1,4.768-9.264,29.022,29.022,0,0,1,7.539-6.948,32.955,32.955,0,0,1,9.9-4.223V269.7a26.969,26.969,0,0,1-18.437-26.792,38.868,38.868,0,0,1,2.725-15.122,29.342,29.342,0,0,1,7.674-10.852,34.832,34.832,0,0,1,11.762-6.721,52.719,52.719,0,0,1,14.985-2.725v16.8a20.712,20.712,0,0,0-12.488,6.313q-4.587,5.038-4.586,13.3,0,8.174,4.5,13.123T264.9,262.98v16.166a26.893,26.893,0,0,0-8.764,2.271,21.3,21.3,0,0,0-6.721,4.769,21.053,21.053,0,0,0-4.314,6.992,27.36,27.36,0,0,0,.318,18.982,21.842,21.842,0,0,0,5.131,7.492,22.134,22.134,0,0,0,7.811,4.723,30.787,30.787,0,0,0,19.8,0,22.619,22.619,0,0,0,7.856-4.723,21.466,21.466,0,0,0,5.176-7.538,27.858,27.858,0,0,0,.364-19.026,19.7,19.7,0,0,0-4.314-6.948,22.435,22.435,0,0,0-6.721-4.723,26.58,26.58,0,0,0-8.81-2.271V262.98q8.084-1,12.534-5.857t4.45-13.033q0-8.264-4.5-13.442t-12.488-6.357v-16.8a51.25,51.25,0,0,1,15.849,2.952,33.413,33.413,0,0,1,11.67,7.129,29.788,29.788,0,0,1,7.175,10.9,39.892,39.892,0,0,1,2.452,14.44,28.82,28.82,0,0,1-4.677,16.484,27.46,27.46,0,0,1-13.76,10.308v.363a33.232,33.232,0,0,1,9.764,4.178,30.117,30.117,0,0,1,12.4,15.621,31.558,31.558,0,0,1,1.725,10.535,45.255,45.255,0,0,1-3.451,18.255,37.468,37.468,0,0,1-9.581,13.306,40.627,40.627,0,0,1-14.532,8.128c-.077.025-.156.046-.233.07h50.815a2.834,2.834,0,0,0,2.834-2.834V2.834A2.834,2.834,0,0,0,337.323,0Z"/>
      </g>
    </g>
</svg>
