<svg xmlns="http://www.w3.org/2000/svg" width="120mm" height="120mm" viewBox="0 0 340.157 340.157">
  <g id="Zimmernummer">
      <g id="Z-03-428-M">
        <path fill="#D4AF37" stroke="none" d="M337.323,0H2.835A2.835,2.835,0,0,0,0,2.835V337.323a2.834,2.834,0,0,0,2.835,2.834H73.109a2.835,2.835,0,0,0,2.835-2.834V235.26H75.49L36.437,292.569h32.7V309.28H20.089V288.3l55.855-78.377H96.015v82.647h16.711V309.28H96.015v28.043a2.834,2.834,0,0,0,2.835,2.834h24.674a2.82,2.82,0,0,0,2.822-2.658q1.537-28.178,28.52-46.657,6.357-4.632,13.26-8.99,25.521-16.165,25.975-33.785,0-9.264-3.27-13.805a24.424,24.424,0,0,0-7.538-6.9A21.822,21.822,0,0,0,172.486,225q-6.63,0-10.808,2.543-11.171,6.811-11.807,30.06H128.619q0-22.251,11.807-36.236t33.059-13.987q21.252,0,32.877,13.713,8.991,10.989,8.991,26.248,0,20.071-18.255,35.51A149.752,149.752,0,0,1,179.025,296.2q-9.447,5.994-14.168,9.535-10.809,8.085-13.169,15.439h63.483v16.147a2.834,2.834,0,0,0,2.835,2.834h26.86a2.834,2.834,0,0,0,1.324-5.341l-4.31-2.275a3.018,3.018,0,0,1-.525-.35,36.481,36.481,0,0,1-9.655-12.6,41.075,41.075,0,0,1-3.632-17.755,36.583,36.583,0,0,1,1.68-11.354,31.191,31.191,0,0,1,4.768-9.264,29.014,29.014,0,0,1,7.538-6.947,32.977,32.977,0,0,1,9.9-4.223v-.363a26.97,26.97,0,0,1-18.436-26.793,38.863,38.863,0,0,1,2.724-15.121,29.348,29.348,0,0,1,7.675-10.853,34.834,34.834,0,0,1,11.761-6.721,52.719,52.719,0,0,1,14.985-2.725v16.8a20.717,20.717,0,0,0-12.488,6.312q-4.587,5.04-4.586,13.305,0,8.173,4.5,13.123t12.578,5.949v16.166a26.848,26.848,0,0,0-8.763,2.27,21.292,21.292,0,0,0-6.721,4.77,21.043,21.043,0,0,0-4.314,6.992,27.36,27.36,0,0,0,.318,18.982,21.847,21.847,0,0,0,5.131,7.492,22.121,22.121,0,0,0,7.81,4.723,30.787,30.787,0,0,0,19.8,0,22.609,22.609,0,0,0,7.856-4.723,21.481,21.481,0,0,0,5.177-7.539,27.855,27.855,0,0,0,.364-19.025A19.721,19.721,0,0,0,293,286.12a22.441,22.441,0,0,0-6.721-4.723,26.549,26.549,0,0,0-8.809-2.27V262.961q8.084-1,12.533-5.857t4.45-13.033q0-8.265-4.5-13.442t-12.487-6.357v-16.8a51.26,51.26,0,0,1,15.849,2.953,33.409,33.409,0,0,1,11.669,7.129,29.772,29.772,0,0,1,7.175,10.9,39.883,39.883,0,0,1,2.452,14.439,28.815,28.815,0,0,1-4.677,16.485,27.463,27.463,0,0,1-13.759,10.308v.363a33.188,33.188,0,0,1,9.763,4.178,30.1,30.1,0,0,1,12.4,15.621,31.554,31.554,0,0,1,1.726,10.535,45.233,45.233,0,0,1-3.452,18.254,37.446,37.446,0,0,1-9.582,13.307,42.411,42.411,0,0,1-3.979,3.067,2.83,2.83,0,0,0,1.629,5.15h32.638a2.834,2.834,0,0,0,2.834-2.834V2.834A2.834,2.834,0,0,0,337.323,0Z"/>
      </g>
    </g>
</svg>
