<svg xmlns="http://www.w3.org/2000/svg" width="120mm" height="120mm" viewBox="0 0 340.158 340.157">
  <g id="Zimmernummer">
      <g id="Z-03-043-R">
        <path fill="#A0552B" stroke="none" d="M337.323,0H2.835A2.835,2.835,0,0,0,0,2.835V337.323a2.834,2.834,0,0,0,2.834,2.834h167.2a2.834,2.834,0,0,0,2.835-2.834V235.309h-.454l-39.053,57.308h32.695v16.711H117.009v-20.98l55.855-78.378h20.071v82.647h16.711v16.711H192.935v28a2.834,2.834,0,0,0,2.835,2.834h41.369a2.835,2.835,0,0,0,1.6-5.168q-9.346-6.649-13.931-18.941a57.88,57.88,0,0,1-3.179-18.618h21.252q-.271,11.9,5.9,19.8t17.71,7.9q11.532,0,18.708-5.994t7.175-17.256q0-13.623-10.807-18.89-7.629-3.725-23.25-3.27v-15.8q19.344.636,26.338-10.353,2.451-4.088,2.452-11.262a15.676,15.676,0,0,0-5.631-12.17,18.7,18.7,0,0,0-12.9-5.086q-17.709-.089-22.16,16.893a32.573,32.573,0,0,0-1.09,9.718H224.086q.726-18.982,12.17-31.606t30.97-12.624a47.989,47.989,0,0,1,28.7,8.991q12.441,9.083,12.443,25.793,0,21.343-18.437,27.882v.364a27.205,27.205,0,0,1,17.438,11.08,33.61,33.61,0,0,1,6.266,19.8q-.091,19.709-13.623,30.607a49.176,49.176,0,0,1-4.174,3.017,2.828,2.828,0,0,0,1.549,5.2h39.936a2.834,2.834,0,0,0,2.835-2.834V2.834A2.834,2.834,0,0,0,337.323,0Z"/>
      </g>
    </g>
</svg>
