<svg xmlns="http://www.w3.org/2000/svg" width="120mm" height="120mm" viewBox="0 0 340.158 340.158">
  <g id="Zimmernummer">
      <g id="Z-03-632-M">
        <path fill="#D4AF37" stroke="none" d="M337.323,0H2.835A2.835,2.835,0,0,0,0,2.835V337.323a2.835,2.835,0,0,0,2.835,2.835h37.52a2.835,2.835,0,0,0,1.6-5.168q-1.365-.972-2.616-2.053a38.666,38.666,0,0,1-8.719-10.807,62.4,62.4,0,0,1-5.4-13.487,90.08,90.08,0,0,1-2.77-15.258q-.773-7.99-.771-15.984a144.205,144.205,0,0,1,.953-16.484A97.435,97.435,0,0,1,25.856,244.8a70.892,70.892,0,0,1,6.04-14.622,46.694,46.694,0,0,1,9.308-11.9,40.718,40.718,0,0,1,13.123-7.992,48.658,48.658,0,0,1,17.485-2.907,38.923,38.923,0,0,1,26.337,10.081,37.134,37.134,0,0,1,8.356,11.216,35.806,35.806,0,0,1,3.541,14.214H88.886a24.079,24.079,0,0,0-1.727-6.9,19.2,19.2,0,0,0-3.633-5.722,16.454,16.454,0,0,0-5.4-3.859A16.748,16.748,0,0,0,71.175,225q-16.8,0-22.977,15.893a76.706,76.706,0,0,0-4.269,16.847,129.851,129.851,0,0,0-1.272,18.119q0,6.63.59,12.941t1.59,12.125a55.934,55.934,0,0,0,2.543,9.309,27.239,27.239,0,0,0,4.314,7.721,19.037,19.037,0,0,0,6.629,5.221,21.662,21.662,0,0,0,9.492,1.908,22.69,22.69,0,0,0,10.444-2.271,21.679,21.679,0,0,0,7.357-5.994,25.061,25.061,0,0,0,4.313-8.673,37.152,37.152,0,0,0,1.408-10.218,35.478,35.478,0,0,0-1.453-10.218,24.815,24.815,0,0,0-4.36-8.491,20.975,20.975,0,0,0-7.265-5.766,22.872,22.872,0,0,0-10.172-2.135,22.653,22.653,0,0,0-10.262,2.27,21.75,21.75,0,0,0-7.992,7.175q-.273-4.086-.273-8.083,0-2.814.136-5.5t.319-5.4a29.11,29.11,0,0,1,9.943-5.4,40.244,40.244,0,0,1,12.217-1.771,40.484,40.484,0,0,1,16.937,3.406,37.213,37.213,0,0,1,12.67,9.264,40.988,40.988,0,0,1,7.946,13.759,50.969,50.969,0,0,1,2.771,16.983,50.183,50.183,0,0,1-3.135,18.027,41.815,41.815,0,0,1-8.808,14.168,38.374,38.374,0,0,1-5.593,4.82,2.83,2.83,0,0,0,1.661,5.126h43.429a2.835,2.835,0,0,0,1.6-5.172q-9.39-6.656-13.988-18.986a57.918,57.918,0,0,1-3.178-18.619h21.252q-.272,11.9,5.9,19.8t17.711,7.9q11.53,0,18.709-6t7.173-17.255q0-13.623-10.806-18.891-7.629-3.724-23.25-3.27v-15.8q19.344.634,26.338-10.354,2.451-4.086,2.451-11.262a15.674,15.674,0,0,0-5.631-12.17A18.692,18.692,0,0,0,171.44,225q-17.709-.09-22.16,16.892a32.642,32.642,0,0,0-1.09,9.718H126.938q.728-18.981,12.17-31.606t30.971-12.624a47.986,47.986,0,0,1,28.7,8.992q12.443,9.081,12.442,25.793,0,21.342-18.436,27.881v.364a27.205,27.205,0,0,1,17.438,11.08,33.61,33.61,0,0,1,6.265,19.8q-.09,19.707-13.623,30.606a48.142,48.142,0,0,1-4.237,3.051,2.844,2.844,0,0,0,1.579,5.214H226.65a2.822,2.822,0,0,0,2.822-2.659q1.537-28.176,28.521-46.657,6.354-4.632,13.26-8.991,25.521-16.164,25.975-33.785,0-9.264-3.27-13.805a24.428,24.428,0,0,0-7.539-6.9A21.825,21.825,0,0,0,275.612,225q-6.63,0-10.808,2.543Q253.632,234.353,253,257.6H231.745q0-22.251,11.807-36.237t33.058-13.987q21.252,0,32.877,13.714,8.991,10.989,8.992,26.247,0,20.073-18.255,35.511A149.665,149.665,0,0,1,282.151,296.2q-9.447,5.994-14.168,9.536-10.81,8.083-13.17,15.439H318.3v16.147a2.834,2.834,0,0,0,2.834,2.835h16.191a2.835,2.835,0,0,0,2.835-2.835V2.834A2.834,2.834,0,0,0,337.323,0Z"/>
      </g>
    </g>
</svg>
