<svg xmlns="http://www.w3.org/2000/svg" width="120mm" height="120mm" viewBox="0 0 340.157 340.157">
  <g id="Zimmernummer">
      <g id="Z-03-515-M">
        <path fill="#D4AF37" stroke="none" d="M337.323,0H2.834A2.834,2.834,0,0,0,0,2.834V337.323a2.834,2.834,0,0,0,2.834,2.834H51.565a2.831,2.831,0,0,0,1.525-5.215,40.824,40.824,0,0,1-3.318-2.414Q37.057,322.267,36.331,303.1H57.492q.908,10.716,7.266,16.347t16.711,5.631q23.793,0,24.249-28.607,0-18.346-13.714-24.977a24.55,24.55,0,0,0-11.08-2.18q-16.62,0-20.98,11.9H38.692l13.987-71.3h67.3V228.9h-51.5l-6.72,33.149.363.363q8.808-9.9,25.611-9.9a39.5,39.5,0,0,1,15.712,3.269q14.987,6.448,20.707,22.977a50.87,50.87,0,0,1,2.725,16.529q0,18.713-10.535,31.969a42.794,42.794,0,0,1-8.055,7.8,2.84,2.84,0,0,0,1.728,5.1h54.722a2.834,2.834,0,0,0,2.834-2.834V248.247H135.6V231.536q22.887,0,33.15-11.533a20.3,20.3,0,0,0,4.723-10.082h17.346v127.4a2.834,2.834,0,0,0,2.835,2.834h34.855a2.831,2.831,0,0,0,1.524-5.215,40.634,40.634,0,0,1-3.317-2.414Q214,322.267,213.278,303.1h21.161q.908,10.716,7.266,16.347t16.711,5.631q23.793,0,24.249-28.607,0-18.346-13.714-24.977a24.547,24.547,0,0,0-11.08-2.18q-16.62,0-20.979,11.9H215.64l13.986-71.3h67.3V228.9H245.429l-6.721,33.149.363.363q8.808-9.9,25.612-9.9a39.508,39.508,0,0,1,15.712,3.269q14.985,6.448,20.707,22.977a50.9,50.9,0,0,1,2.724,16.529q0,18.713-10.535,31.969a42.789,42.789,0,0,1-8.054,7.8,2.84,2.84,0,0,0,1.727,5.1h50.359a2.834,2.834,0,0,0,2.834-2.834V2.834A2.834,2.834,0,0,0,337.323,0Z"/>
      </g>
    </g>
</svg>
