<svg xmlns="http://www.w3.org/2000/svg" width="120mm" height="120mm" viewBox="0 0 340.158 340.158">
  <g id="Zimmernummer">
      <g id="Z-03-419">
        <path fill="#000000" stroke="none" d="M337.323,0H2.835A2.835,2.835,0,0,0,0,2.835V337.323a2.835,2.835,0,0,0,2.835,2.835H90.167A2.834,2.834,0,0,0,93,337.324V235.262h-.454L53.5,292.568h32.7v16.711H37.147V288.3L93,209.922h20.071v82.646h16.711v16.711H113.073v28.045a2.834,2.834,0,0,0,2.835,2.834h48.016a2.835,2.835,0,0,0,2.835-2.834V248.248H134.79V231.537q22.887,0,33.149-11.533a20.3,20.3,0,0,0,4.723-10.082h17.347v127.4a2.834,2.834,0,0,0,2.834,2.834h34.868a2.831,2.831,0,0,0,1.661-5.123,35.315,35.315,0,0,1-2.832-2.324,37.073,37.073,0,0,1-8.356-11.217,35.768,35.768,0,0,1-3.542-14.213H235.8a24.076,24.076,0,0,0,1.726,6.9,19.212,19.212,0,0,0,3.633,5.722,16.457,16.457,0,0,0,5.4,3.86,16.748,16.748,0,0,0,6.947,1.408q16.8,0,22.978-15.895a76.79,76.79,0,0,0,4.269-16.847,129.966,129.966,0,0,0,1.271-18.118q0-6.629-.59-12.943t-1.59-12.123a56,56,0,0,0-2.543-9.31,27.254,27.254,0,0,0-4.314-7.719A19.075,19.075,0,0,0,266.365,227a21.675,21.675,0,0,0-9.491-1.906,22.732,22.732,0,0,0-10.445,2.269,21.68,21.68,0,0,0-7.356,6,25.108,25.108,0,0,0-4.313,8.628,36.959,36.959,0,0,0-1.409,10.262,35.481,35.481,0,0,0,1.453,10.217,24.749,24.749,0,0,0,4.36,8.492,20.957,20.957,0,0,0,7.265,5.768,22.862,22.862,0,0,0,10.172,2.134,22.631,22.631,0,0,0,10.263-2.271,21.743,21.743,0,0,0,7.992-7.174q.273,4.087.273,8.082,0,2.815-.137,5.494t-.317,5.405a29.162,29.162,0,0,1-9.945,5.4,43.483,43.483,0,0,1-29.154-1.635,37.236,37.236,0,0,1-12.669-9.264,41,41,0,0,1-7.946-13.759,50.944,50.944,0,0,1-2.771-16.983,50.2,50.2,0,0,1,3.134-18.029,41.835,41.835,0,0,1,8.809-14.168,39.625,39.625,0,0,1,13.669-9.264,45.806,45.806,0,0,1,17.709-3.314,50.794,50.794,0,0,1,17.211,2.635,39.689,39.689,0,0,1,12.623,7.218,38.714,38.714,0,0,1,8.719,10.809,62.456,62.456,0,0,1,5.4,13.486,90.352,90.352,0,0,1,2.769,15.258q.772,7.992.772,15.985a144.6,144.6,0,0,1-.954,16.439,97.349,97.349,0,0,1-3.223,16.166A71.105,71.105,0,0,1,292.793,320a46.752,46.752,0,0,1-9.309,11.9,37.953,37.953,0,0,1-3.831,3.079,2.837,2.837,0,0,0,1.585,5.184h56.085a2.834,2.834,0,0,0,2.835-2.834V2.835A2.835,2.835,0,0,0,337.323,0Z"/>
      </g>
    </g>
</svg>
