<svg xmlns="http://www.w3.org/2000/svg" width="120mm" height="120mm" viewBox="0 0 340.157 340.158">
  <g id="Zimmernummer">
      <g id="Z-03-064">
        <path fill="#000000" stroke="none" d="M337.322,0H2.834A2.834,2.834,0,0,0,0,2.834V337.323a2.834,2.834,0,0,0,2.834,2.835H137.881a2.832,2.832,0,0,0,1.594-5.171,32.293,32.293,0,0,1-2.646-2.052,38.7,38.7,0,0,1-8.719-10.807,62.391,62.391,0,0,1-5.4-13.487,90.08,90.08,0,0,1-2.77-15.258q-.774-7.99-.772-15.985a144.406,144.406,0,0,1,.954-16.483,97.434,97.434,0,0,1,3.223-16.121,71,71,0,0,1,6.04-14.622,46.742,46.742,0,0,1,9.309-11.9,40.726,40.726,0,0,1,13.124-7.992,48.66,48.66,0,0,1,17.482-2.906,38.918,38.918,0,0,1,26.338,10.081,37.122,37.122,0,0,1,8.356,11.216,35.8,35.8,0,0,1,3.542,14.214H186.371a24.117,24.117,0,0,0-1.726-6.9,19.214,19.214,0,0,0-3.633-5.721,16.478,16.478,0,0,0-5.4-3.86A16.772,16.772,0,0,0,168.661,225q-16.8,0-22.978,15.894a76.711,76.711,0,0,0-4.268,16.846,129.72,129.72,0,0,0-1.272,18.119q0,6.63.591,12.942t1.589,12.125a55.826,55.826,0,0,0,2.543,9.308,27.225,27.225,0,0,0,4.314,7.721,19.046,19.046,0,0,0,6.63,5.222,21.664,21.664,0,0,0,9.49,1.907,22.709,22.709,0,0,0,10.445-2.27,21.676,21.676,0,0,0,7.356-6,25.1,25.1,0,0,0,4.315-8.672,37.228,37.228,0,0,0,1.407-10.218,35.542,35.542,0,0,0-1.453-10.218,24.815,24.815,0,0,0-4.36-8.491,20.987,20.987,0,0,0-7.265-5.767,22.878,22.878,0,0,0-10.172-2.135,22.641,22.641,0,0,0-10.263,2.271,21.748,21.748,0,0,0-7.992,7.175q-.273-4.088-.273-8.083,0-2.814.137-5.5t.318-5.4a29.107,29.107,0,0,1,9.945-5.4,43.48,43.48,0,0,1,29.153,1.635,37.184,37.184,0,0,1,12.669,9.263,41.027,41.027,0,0,1,7.947,13.759,51,51,0,0,1,2.77,16.984,50.209,50.209,0,0,1-3.133,18.027,41.852,41.852,0,0,1-8.809,14.168,38.411,38.411,0,0,1-5.6,4.822,2.83,2.83,0,0,0,1.661,5.126h79.614a2.834,2.834,0,0,0,2.834-2.835V235.258H276.1l-39.053,57.307h32.7v16.711H220.7V288.3l55.854-78.378h20.071v82.646h16.711v16.711H296.626v28.047a2.835,2.835,0,0,0,2.835,2.835h37.862a2.834,2.834,0,0,0,2.834-2.835V2.835A2.835,2.835,0,0,0,337.322,0Z"/>
      </g>
    </g>
</svg>
