<svg xmlns="http://www.w3.org/2000/svg" width="120mm" height="120mm" viewBox="0 0 340.158 340.158">
  <g id="Zimmernummer">
      <g id="Z-03-417">
        <path fill="#000000" stroke="none" d="M337.323,0H2.835A2.835,2.835,0,0,0,0,2.835V337.323a2.835,2.835,0,0,0,2.835,2.835h86.2a2.835,2.835,0,0,0,2.835-2.835V235.261h-.454L52.361,292.568h32.7v16.711H36.013V288.3l55.855-78.379h20.071v82.647H128.65v16.711H111.939v28.044a2.835,2.835,0,0,0,2.835,2.835H162.79a2.835,2.835,0,0,0,2.835-2.835V248.248H133.656V231.537q22.887,0,33.149-11.534a20.289,20.289,0,0,0,4.723-10.082h17.347v127.4a2.834,2.834,0,0,0,2.834,2.835h37.983a2.838,2.838,0,0,0,2.82-2.606q3.8-43.308,31.217-84.219a235.36,235.36,0,0,1,18.8-24.429H215.05V209.921h89.094v17.711q-32.513,36.51-43.412,79.377A188.2,188.2,0,0,0,255.8,337.1a2.835,2.835,0,0,0,2.829,3.063h78.7a2.835,2.835,0,0,0,2.835-2.835V2.835A2.835,2.835,0,0,0,337.323,0Z"/>
      </g>
    </g>
</svg>
