<svg xmlns="http://www.w3.org/2000/svg" width="120.001mm" height="119.997mm" viewBox="0 0 340.159 340.149">
  <g id="Zimmernummer">
      <g id="Z-03-303-R">
        <path fill="#A0552B" stroke="none" d="M0,2.835v334.48a2.834,2.834,0,0,0,2.835,2.834h45.6a1.191,1.191,0,0,0,.506-2.254l-.06-.031c-.28-.139-.57-.29-.85-.429a36.515,36.515,0,0,1-9.31-7.02,39.767,39.767,0,0,1-8.66-14.341,58.275,58.275,0,0,1-3.16-18.619h21.22q-.375,11.91,5.87,19.829t18.71,7.91q10.62,0,17.79-6.049t7.17-17.22q0-7.635-2.98-12.111a19.391,19.391,0,0,0-7.82-6.79,31.744,31.744,0,0,0-10.9-2.889,103.286,103.286,0,0,0-12.38-.37v-15.83a48.966,48.966,0,0,0,10.43-.741,29.108,29.108,0,0,0,9.31-3.259,18.187,18.187,0,0,0,6.61-6.43,18.925,18.925,0,0,0,2.51-10.05q0-8.387-5.68-13.41t-14.62-5.03a19.215,19.215,0,0,0-16.47,8.29,26.978,26.978,0,0,0-4.01,8.57,32.253,32.253,0,0,0-1.12,9.77H29.324a53.553,53.553,0,0,1,3.53-17.59,44.3,44.3,0,0,1,8.66-14.061,38.374,38.374,0,0,1,13.32-9.309,44.378,44.378,0,0,1,17.69-3.361,51.321,51.321,0,0,1,14.99,2.24,43.787,43.787,0,0,1,13.22,6.521,31.333,31.333,0,0,1,12.94,26.06,32.5,32.5,0,0,1-4.47,17.23q-4.47,7.349-13.97,10.71v.37a26.9,26.9,0,0,1,17.41,11.079q6.24,8.851,6.24,21.511a36.4,36.4,0,0,1-3.72,16.66,37.971,37.971,0,0,1-10.06,12.48,44.5,44.5,0,0,1-7.95,5.12c-.43.21-.86.42-1.29.62l-.06.03a1.159,1.159,0,0,0,.491,2.194H150.33a1.284,1.284,0,0,0,.65-2.374c-.611-.37-1.2-.76-1.772-1.18a44.126,44.126,0,0,1-13.78-16.391,72.826,72.826,0,0,1-6.7-21.88,155.626,155.626,0,0,1,0-46.179,72.994,72.994,0,0,1,6.7-21.88,44.091,44.091,0,0,1,13.78-16.38q7.56-5.49,18.86-6.271a1.282,1.282,0,0,1,1.37,1.29v15.271a1.28,1.28,0,0,1-1.05,1.279,15.8,15.8,0,0,0-8.01,3.7,27.55,27.55,0,0,0-7.26,10.891,66.016,66.016,0,0,0-3.82,15.92,159.887,159.887,0,0,0,0,38.639,64.652,64.652,0,0,0,3.82,15.92c2.278,5.733,6.209,11.574,12.258,13.733,5.962,2.129,13.319,1.256,18.182-2.933a27.069,27.069,0,0,0,7.36-10.8,64.652,64.652,0,0,0,3.82-15.92,159.938,159.938,0,0,0,0-38.639c-1.175-9.436-3.632-20.331-11.18-26.811a16.149,16.149,0,0,0-7.873-3.679,1.347,1.347,0,0,1-1.1-1.271V208.9a1.287,1.287,0,0,1,1.37-1.29q11.295.8,18.87,6.271a44.184,44.184,0,0,1,13.78,16.38,73.281,73.281,0,0,1,6.7,21.88,156.774,156.774,0,0,1,0,46.179,73.112,73.112,0,0,1-6.7,21.88,44.219,44.219,0,0,1-13.78,16.391c-.568.419-1.167.807-1.765,1.176a1.284,1.284,0,0,0,.643,2.378h50.322a1.191,1.191,0,0,0,.506-2.254l-.06-.031c-.28-.139-.57-.29-.85-.429a36.515,36.515,0,0,1-9.31-7.02,39.767,39.767,0,0,1-8.66-14.341,58.275,58.275,0,0,1-3.16-18.619h21.22q-.375,11.91,5.87,19.829t18.71,7.91q10.62,0,17.79-6.049t7.17-17.22q0-7.635-2.98-12.111a19.391,19.391,0,0,0-7.82-6.79,31.744,31.744,0,0,0-10.9-2.889,103.286,103.286,0,0,0-12.38-.37v-15.83a48.966,48.966,0,0,0,10.43-.741,29.108,29.108,0,0,0,9.31-3.259,18.187,18.187,0,0,0,6.61-6.43,18.925,18.925,0,0,0,2.51-10.05q0-8.387-5.68-13.41t-14.62-5.03a19.215,19.215,0,0,0-16.47,8.29,26.978,26.978,0,0,0-4.01,8.57,32.253,32.253,0,0,0-1.12,9.77h-21.22a53.553,53.553,0,0,1,3.53-17.59,44.3,44.3,0,0,1,8.66-14.061,38.374,38.374,0,0,1,13.32-9.309,44.378,44.378,0,0,1,17.69-3.361,51.321,51.321,0,0,1,14.99,2.24,43.787,43.787,0,0,1,13.22,6.521,31.333,31.333,0,0,1,12.94,26.06,32.5,32.5,0,0,1-4.47,17.23q-4.47,7.349-13.97,10.71v.37a26.9,26.9,0,0,1,17.41,11.079q6.24,8.851,6.24,21.511a36.4,36.4,0,0,1-3.72,16.66,37.971,37.971,0,0,1-10.06,12.48,44.5,44.5,0,0,1-7.95,5.12c-.43.21-.86.42-1.29.62l-.06.03a1.159,1.159,0,0,0,.492,2.194h45.439a2.834,2.834,0,0,0,2.834-2.834V2.835A2.834,2.834,0,0,0,337.325,0H2.835A2.835,2.835,0,0,0,0,2.835Z"/>
      </g>
    </g>
</svg>
