<svg xmlns="http://www.w3.org/2000/svg" width="120.001mm" height="119.999mm" viewBox="0 0 340.16 340.156">
  <g id="Zimmernummer">
      <g id="Z-03-204-R">
        <path fill="#A0552B" stroke="none" d="M0,2.835V337.321a2.835,2.835,0,0,0,2.835,2.835h20.5a2.832,2.832,0,0,0,2.832-2.725c.007-.19.014-.347.02-.452a51.876,51.876,0,0,1,7.7-24.988,71.506,71.506,0,0,1,20.859-21.05q6.33-4.65,13.22-9.03a104.372,104.372,0,0,0,12.66-9.4,50.18,50.18,0,0,0,9.5-10.89,25.936,25.936,0,0,0,3.91-13.5,36.955,36.955,0,0,0-.84-7.55,20,20,0,0,0-3.26-7.44,19.276,19.276,0,0,0-6.7-5.78,22.959,22.959,0,0,0-10.672-2.317,20.812,20.812,0,0,0-11.028,2.507,18.861,18.861,0,0,0-6.7,6.89,34.094,34.094,0,0,0-3.72,10.33,74.229,74.229,0,0,0-1.4,12.85H28.489a66.466,66.466,0,0,1,2.89-20.01,44.187,44.187,0,0,1,8.66-15.92,40.283,40.283,0,0,1,13.919-10.53,47.05,47.05,0,0,1,20.2-3.805c6.521.072,13.218,1.015,19.13,3.905a38.111,38.111,0,0,1,12.94,9.87,36.082,36.082,0,0,1,6.99,12.94c2.6,8.882,2.978,18.713-.38,27.46a45.327,45.327,0,0,1-6.51,11.64,66.646,66.646,0,0,1-9.309,9.78q-5.221,4.47-10.8,8.38-5.595,3.9-11.18,7.44t-10.33,7.08a60.319,60.319,0,0,0-8.29,7.36,20.817,20.817,0,0,0-4.84,8.1h63.5v16.02a2.835,2.835,0,0,0,2.835,2.835H147.5a1.284,1.284,0,0,0,.65-2.374c-.611-.37-1.2-.761-1.772-1.181a44.122,44.122,0,0,1-13.78-16.39,72.826,72.826,0,0,1-6.7-21.88,155.565,155.565,0,0,1,0-46.18,73,73,0,0,1,6.7-21.88,44.091,44.091,0,0,1,13.78-16.38q7.56-5.49,18.86-6.27a1.282,1.282,0,0,1,1.37,1.29v15.27a1.281,1.281,0,0,1-1.05,1.28,15.8,15.8,0,0,0-8.01,3.7,27.554,27.554,0,0,0-7.26,10.89,66.028,66.028,0,0,0-3.82,15.92,159.845,159.845,0,0,0,0,38.64,64.663,64.663,0,0,0,3.82,15.92c2.278,5.733,6.208,11.573,12.257,13.732,5.963,2.129,13.32,1.257,18.183-2.932a27.076,27.076,0,0,0,7.36-10.8,64.663,64.663,0,0,0,3.82-15.92,160,160,0,0,0,0-38.64c-1.176-9.435-3.633-20.331-11.18-26.81a16.158,16.158,0,0,0-7.874-3.68,1.346,1.346,0,0,1-1.1-1.27v-15.3a1.287,1.287,0,0,1,1.37-1.29q11.295.795,18.87,6.27a44.184,44.184,0,0,1,13.78,16.38,73.29,73.29,0,0,1,6.7,21.88,156.848,156.848,0,0,1,0,46.18,73.112,73.112,0,0,1-6.7,21.88,44.216,44.216,0,0,1-13.78,16.39c-.569.419-1.167.808-1.766,1.177a1.285,1.285,0,0,0,.644,2.378h83.49a2.834,2.834,0,0,0,2.834-2.835V235.261h-.38l-39.1,57.36h34.33v16.75h-50.72v-21.04l55.87-78.39h20.11v82.68h16.75v16.75h-16.75v27.95a2.835,2.835,0,0,0,2.835,2.835h37.184a2.835,2.835,0,0,0,2.835-2.835V2.835A2.835,2.835,0,0,0,337.325,0H2.835A2.835,2.835,0,0,0,0,2.835Z"/>
      </g>
    </g>
</svg>
