<svg xmlns="http://www.w3.org/2000/svg" width="120mm" height="120mm" viewBox="0 0 340.157 340.157">
  <g id="Zimmernummer">
      <g id="Z-03-146-E">
        <path fill="#A09f9d" stroke="none" d="M337.323,0H2.834A2.834,2.834,0,0,0,0,2.834V337.323a2.834,2.834,0,0,0,2.834,2.834H63.426a2.834,2.834,0,0,0,2.834-2.834V248.236H34.292V231.525q22.885,0,33.149-11.534a20.3,20.3,0,0,0,4.723-10.081H89.51V337.323a2.834,2.834,0,0,0,2.835,2.834h66.831a2.834,2.834,0,0,0,2.834-2.834V235.249h-.454L122.5,292.557h32.7v16.711H106.156v-20.98L162.01,209.91h20.072v82.647h16.71v16.711h-16.71v28.055a2.834,2.834,0,0,0,2.834,2.834h48.835A2.832,2.832,0,0,0,235.364,335q-1.371-.969-2.654-2.073a38.68,38.68,0,0,1-8.718-10.807,62.35,62.35,0,0,1-5.4-13.487,89.981,89.981,0,0,1-2.77-15.258q-.773-7.99-.772-15.984A144.41,144.41,0,0,1,216,260.906a97.23,97.23,0,0,1,3.224-16.121,70.945,70.945,0,0,1,6.039-14.622,46.7,46.7,0,0,1,9.309-11.9,40.732,40.732,0,0,1,13.124-7.993,48.658,48.658,0,0,1,17.483-2.906,38.923,38.923,0,0,1,26.338,10.081,37.131,37.131,0,0,1,8.355,11.216,35.819,35.819,0,0,1,3.542,14.214H282.253a24.069,24.069,0,0,0-1.726-6.9,19.237,19.237,0,0,0-3.632-5.722,16.485,16.485,0,0,0-5.4-3.859,16.757,16.757,0,0,0-6.948-1.409q-16.8,0-22.978,15.894a76.706,76.706,0,0,0-4.268,16.847,129.7,129.7,0,0,0-1.272,18.119q0,6.63.591,12.941t1.589,12.125a55.934,55.934,0,0,0,2.543,9.309,27.233,27.233,0,0,0,4.314,7.72,19.034,19.034,0,0,0,6.63,5.222,21.652,21.652,0,0,0,9.491,1.907,22.705,22.705,0,0,0,10.444-2.27,21.676,21.676,0,0,0,7.356-5.994,25.1,25.1,0,0,0,4.314-8.673,37.19,37.19,0,0,0,1.408-10.218,35.513,35.513,0,0,0-1.453-10.218,24.831,24.831,0,0,0-4.359-8.491,21,21,0,0,0-7.266-5.767,22.889,22.889,0,0,0-10.172-2.134,22.644,22.644,0,0,0-10.263,2.27,21.741,21.741,0,0,0-7.992,7.175q-.271-4.088-.272-8.083,0-2.814.136-5.495t.318-5.4a29.11,29.11,0,0,1,9.945-5.4A43.48,43.48,0,0,1,282.48,258a37.186,37.186,0,0,1,12.669,9.264,41,41,0,0,1,7.947,13.758,51,51,0,0,1,2.77,16.984,50.2,50.2,0,0,1-3.133,18.027,41.829,41.829,0,0,1-8.81,14.168,38.273,38.273,0,0,1-5.607,4.83,2.83,2.83,0,0,0,1.661,5.126h47.346a2.834,2.834,0,0,0,2.834-2.834V2.834A2.834,2.834,0,0,0,337.323,0Z"/>
      </g>
    </g>
</svg>
