<svg xmlns="http://www.w3.org/2000/svg" width="120.001mm" height="120.001mm" viewBox="0 0 340.16 340.16">
  <g id="Zimmernummer">
      <g id="Z-03-019-R">
        <path fill="#A0552B" stroke="none" d="M340.16,2.835V337.326a2.834,2.834,0,0,1-2.835,2.834H284.89a1.292,1.292,0,0,1-.63-2.42,39.815,39.815,0,0,0,7.39-5.06c15.97-13.84,20.72-37.04,20.72-57.25,0-18.44-1.32-40.66-14.33-55.08-10.84-12.02-28.71-15.36-44.08-11.82-16.65,3.82-28.77,17.45-31.69,34.13-2.92,16.63,1.97,35.77,16.36,45.78,13.1,9.11,34.18,10.4,46.42-.97a1.58,1.58,0,0,0,.48-1.02c.14-1.8.31-3.61.48-5.41a110.4,110.4,0,0,0,.01-11.79.77.77,0,0,0-1.41-.4c-5.02,7.59-14.11,11.11-23.19,9.6-19.05-3.17-23.36-29.26-14.14-43.46a22.026,22.026,0,0,1,21.78-9.77,22.714,22.714,0,0,1,18.54,16.72,31.563,31.563,0,0,1,.88,3.54,134.5,134.5,0,0,1,2.72,34.84c-.01.37-.03.75-.05,1.11-1.35,14.06-2.43,33.8-16.66,41.33-5.81,3.07-13.9,3.33-19.78.26s-8.96-9.38-9.56-15.78H223.92a36.654,36.654,0,0,0,14.97,27.75,37.169,37.169,0,0,0,4.33,2.75,1.287,1.287,0,0,1-.61,2.42H198.264a2.834,2.834,0,0,1-2.834-2.834V210.07H178.12a20.553,20.553,0,0,1-4.75,10.06,29.261,29.261,0,0,1-8.75,6.7,40.91,40.91,0,0,1-11.46,3.73,75.283,75.283,0,0,1-13.03,1.11v16.76h32.03v88.9a2.834,2.834,0,0,1-2.835,2.834H2.835A2.834,2.834,0,0,1,0,337.326V2.835A2.835,2.835,0,0,1,2.835,0h334.49A2.835,2.835,0,0,1,340.16,2.835Z"/>
      </g>
    </g>
</svg>
