<svg xmlns="http://www.w3.org/2000/svg" width="120mm" height="120mm" viewBox="0 0 340.158 340.157">
  <g id="Zimmernummer">
      <g id="Z-03-229-M">
        <path fill="#D4AF37" stroke="none" d="M337.323,0H2.835A2.835,2.835,0,0,0,0,2.835V337.323a2.834,2.834,0,0,0,2.834,2.834H22.512a2.822,2.822,0,0,0,2.822-2.645Q27,309.537,53.828,291.152q6.357-4.632,13.26-8.991Q92.608,266,93.063,248.376q0-9.264-3.27-13.805a24.436,24.436,0,0,0-7.538-6.9,21.822,21.822,0,0,0-10.807-2.361q-6.631,0-10.808,2.543-11.171,6.811-11.807,30.061H27.581q0-22.251,11.807-36.237t33.059-13.987q21.252,0,32.877,13.714,8.991,10.991,8.991,26.247,0,20.073-18.255,35.511a149.744,149.744,0,0,1-18.073,13.351q-9.447,5.994-14.168,9.536Q53.01,314.132,50.65,321.486h63.483v15.837a2.834,2.834,0,0,0,2.835,2.834h6.108a2.821,2.821,0,0,0,2.821-2.645q1.662-27.975,28.495-46.36,6.356-4.632,13.26-8.991Q193.171,266,193.626,248.376q0-9.264-3.269-13.805a24.447,24.447,0,0,0-7.538-6.9,21.829,21.829,0,0,0-10.808-2.361q-6.63,0-10.808,2.543-11.171,6.811-11.806,30.061H128.145q0-22.251,11.806-36.237t33.059-13.987q21.252,0,32.877,13.714,8.991,10.991,8.991,26.247,0,20.073-18.255,35.511a149.665,149.665,0,0,1-18.073,13.351q-9.447,5.994-14.168,9.536-10.809,8.085-13.169,15.439H214.7v15.837a2.834,2.834,0,0,0,2.834,2.834h22.9a2.83,2.83,0,0,0,1.766-5.05q-1.291-.987-2.5-2.086a37.069,37.069,0,0,1-8.356-11.217,35.755,35.755,0,0,1-3.542-14.213h21.161a24.037,24.037,0,0,0,1.726,6.9,19.18,19.18,0,0,0,3.633,5.722,16.463,16.463,0,0,0,5.4,3.86,16.756,16.756,0,0,0,6.948,1.407q16.8,0,22.978-15.893a76.728,76.728,0,0,0,4.268-16.848,129.957,129.957,0,0,0,1.272-18.118q0-6.628-.591-12.942t-1.589-12.124a56.1,56.1,0,0,0-2.543-9.31,27.3,27.3,0,0,0-4.314-7.719,19.043,19.043,0,0,0-6.63-5.222,21.653,21.653,0,0,0-9.49-1.908,22.7,22.7,0,0,0-10.445,2.271,21.68,21.68,0,0,0-7.356,5.994,25.092,25.092,0,0,0-4.314,8.628,36.96,36.96,0,0,0-1.408,10.263,35.456,35.456,0,0,0,1.453,10.217,24.758,24.758,0,0,0,4.36,8.492,20.966,20.966,0,0,0,7.265,5.767,24.81,24.81,0,0,0,20.435-.136,21.764,21.764,0,0,0,7.992-7.175q.273,4.086.272,8.083,0,2.815-.136,5.494t-.318,5.4a29.114,29.114,0,0,1-9.944,5.4,43.49,43.49,0,0,1-29.154-1.634,37.252,37.252,0,0,1-12.669-9.264,41.015,41.015,0,0,1-7.947-13.76,50.939,50.939,0,0,1-2.77-16.983,50.218,50.218,0,0,1,3.133-18.028,41.843,41.843,0,0,1,8.81-14.168A39.621,39.621,0,0,1,250.959,211a45.811,45.811,0,0,1,17.71-3.315,50.8,50.8,0,0,1,17.211,2.634,39.709,39.709,0,0,1,12.624,7.22,38.718,38.718,0,0,1,8.718,10.809,62.413,62.413,0,0,1,5.4,13.486A90.315,90.315,0,0,1,315.4,257.1q.771,7.992.772,15.984a145.073,145.073,0,0,1-.953,16.439,97.534,97.534,0,0,1-3.224,16.166,71.146,71.146,0,0,1-6.04,14.622,46.764,46.764,0,0,1-9.309,11.9,38.089,38.089,0,0,1-3.488,2.84,2.829,2.829,0,0,0,1.673,5.114h42.5a2.834,2.834,0,0,0,2.835-2.834V2.834A2.834,2.834,0,0,0,337.323,0Z"/>
      </g>
    </g>
</svg>
