<svg xmlns="http://www.w3.org/2000/svg" width="120mm" height="120mm" viewBox="0 0 340.157 340.157">
  <g id="Zimmernummer">
      <g id="Z-03-061-M">
        <path fill="#D4AF37" stroke="none" d="M337.323,0H2.834A2.834,2.834,0,0,0,0,2.834V337.323a2.834,2.834,0,0,0,2.834,2.834H150.207a2.834,2.834,0,0,0,1.6-5.167q-1.362-.971-2.611-2.05a38.679,38.679,0,0,1-8.719-10.806,62.379,62.379,0,0,1-5.4-13.488,90.05,90.05,0,0,1-2.77-15.257q-.772-7.99-.772-15.985a144.406,144.406,0,0,1,.954-16.483,97.537,97.537,0,0,1,3.223-16.121,71,71,0,0,1,6.04-14.622,46.742,46.742,0,0,1,9.309-11.9,40.726,40.726,0,0,1,13.124-7.992,48.66,48.66,0,0,1,17.482-2.906,38.918,38.918,0,0,1,26.338,10.081,37.1,37.1,0,0,1,8.356,11.216,35.8,35.8,0,0,1,3.542,14.214H198.742a24.084,24.084,0,0,0-1.726-6.9,19.214,19.214,0,0,0-3.633-5.721,16.478,16.478,0,0,0-5.4-3.86A16.772,16.772,0,0,0,181.032,225q-16.8,0-22.978,15.894a76.711,76.711,0,0,0-4.268,16.846,129.72,129.72,0,0,0-1.272,18.119q0,6.63.591,12.942t1.589,12.125a55.826,55.826,0,0,0,2.543,9.308,27.225,27.225,0,0,0,4.314,7.721,19.046,19.046,0,0,0,6.63,5.222,21.664,21.664,0,0,0,9.49,1.907,22.7,22.7,0,0,0,10.445-2.271,21.652,21.652,0,0,0,7.356-5.994,25.091,25.091,0,0,0,4.315-8.673,37.221,37.221,0,0,0,1.407-10.217,35.537,35.537,0,0,0-1.453-10.218,24.815,24.815,0,0,0-4.36-8.491,20.987,20.987,0,0,0-7.265-5.767,22.878,22.878,0,0,0-10.172-2.135,22.641,22.641,0,0,0-10.263,2.271,21.748,21.748,0,0,0-7.992,7.175q-.273-4.087-.272-8.083,0-2.814.136-5.5t.318-5.4a29.107,29.107,0,0,1,9.945-5.4,43.464,43.464,0,0,1,29.153,1.635,37.184,37.184,0,0,1,12.669,9.263,41.027,41.027,0,0,1,7.947,13.759,51,51,0,0,1,2.77,16.984,50.209,50.209,0,0,1-3.133,18.027,41.852,41.852,0,0,1-8.809,14.168,38.421,38.421,0,0,1-5.588,4.816,2.829,2.829,0,0,0,1.66,5.125h61.17a2.834,2.834,0,0,0,2.835-2.834V248.251H238.521V231.54q22.887,0,33.149-11.534a20.29,20.29,0,0,0,4.723-10.081H293.74v127.4a2.834,2.834,0,0,0,2.834,2.834h40.749a2.834,2.834,0,0,0,2.834-2.834V2.834A2.834,2.834,0,0,0,337.323,0Z"/>
      </g>
    </g>
</svg>
