<svg xmlns="http://www.w3.org/2000/svg" width="120mm" height="120mm" viewBox="0 0 340.157 340.157">
  <g id="Zimmernummer">
      <g id="Z-03-029-E">
        <path fill="#A09f9d" stroke="none" d="M337.323,0H2.835A2.835,2.835,0,0,0,0,2.835V337.323a2.834,2.834,0,0,0,2.835,2.834H116.42a2.822,2.822,0,0,0,2.822-2.649q1.626-28.032,28.5-46.443,6.355-4.63,13.259-8.991,25.521-16.164,25.975-33.785,0-9.264-3.27-13.8a24.425,24.425,0,0,0-7.538-6.9,21.822,21.822,0,0,0-10.807-2.361q-6.63,0-10.808,2.543-11.171,6.811-11.806,30.061H121.5q0-22.251,11.806-36.237T166.362,207.6q21.252,0,32.877,13.713,8.991,10.99,8.991,26.247,0,20.073-18.255,35.511A149.559,149.559,0,0,1,171.9,296.424q-9.447,5.994-14.168,9.536-10.809,8.085-13.169,15.439h63.483v15.924a2.834,2.834,0,0,0,2.835,2.834h25.79a2.834,2.834,0,0,0,1.766-5.058q-1.347-1.022-2.6-2.165a37.082,37.082,0,0,1-8.355-11.217,35.755,35.755,0,0,1-3.542-14.213H245.1a24,24,0,0,0,1.726,6.9,19.217,19.217,0,0,0,3.632,5.722,16.471,16.471,0,0,0,5.405,3.86,16.752,16.752,0,0,0,6.947,1.408q16.8,0,22.978-15.894a76.784,76.784,0,0,0,4.268-16.848,129.8,129.8,0,0,0,1.272-18.118q0-6.628-.59-12.942t-1.59-12.124a56.1,56.1,0,0,0-2.543-9.31,27.279,27.279,0,0,0-4.314-7.719,19.058,19.058,0,0,0-6.629-5.222,21.659,21.659,0,0,0-9.492-1.907,22.7,22.7,0,0,0-10.444,2.27,21.68,21.68,0,0,0-7.356,5.994,25.11,25.11,0,0,0-4.314,8.628,37,37,0,0,0-1.408,10.263,35.456,35.456,0,0,0,1.453,10.217,24.773,24.773,0,0,0,4.359,8.492,20.967,20.967,0,0,0,7.266,5.767,24.81,24.81,0,0,0,20.435-.136,21.764,21.764,0,0,0,7.992-7.175q.272,4.086.272,8.083,0,2.815-.136,5.494t-.318,5.4a29.133,29.133,0,0,1-9.944,5.4,43.5,43.5,0,0,1-29.154-1.635,37.252,37.252,0,0,1-12.669-9.264,41,41,0,0,1-7.947-13.76,50.964,50.964,0,0,1-2.77-16.983,50.218,50.218,0,0,1,3.134-18.028,41.825,41.825,0,0,1,8.809-14.168,39.621,39.621,0,0,1,13.668-9.264,45.811,45.811,0,0,1,17.71-3.314,50.8,50.8,0,0,1,17.211,2.633,39.709,39.709,0,0,1,12.624,7.22,38.739,38.739,0,0,1,8.719,10.809,62.462,62.462,0,0,1,5.4,13.486,90.415,90.415,0,0,1,2.771,15.258q.77,7.992.771,15.984a144.841,144.841,0,0,1-.953,16.439,97.433,97.433,0,0,1-3.225,16.166,71.033,71.033,0,0,1-6.039,14.622,45.4,45.4,0,0,1-13.071,14.833,2.831,2.831,0,0,0,1.695,5.1h46.606a2.834,2.834,0,0,0,2.834-2.834V2.834A2.834,2.834,0,0,0,337.323,0Z"/>
      </g>
    </g>
</svg>
