<svg xmlns="http://www.w3.org/2000/svg" width="120mm" height="120mm" viewBox="0 0 340.157 340.157">
  <g id="Zimmernummer">
      <g id="Z-03-505-R">
        <path fill="#A0552B" stroke="none" d="M337.323,0H2.835A2.835,2.835,0,0,0,0,2.835V337.323a2.834,2.834,0,0,0,2.834,2.834H40.406a2.831,2.831,0,0,0,1.525-5.215,40.824,40.824,0,0,1-3.318-2.414Q25.9,322.267,25.172,303.1H46.333q.906,10.716,7.265,16.347t16.711,5.631q23.795,0,24.249-28.608,0-18.345-13.714-24.976a24.517,24.517,0,0,0-11.08-2.18q-16.62,0-20.979,11.9H27.533l13.986-71.294h67.3V228.9H57.322L50.6,262.052l.364.363q8.808-9.9,25.611-9.9a39.5,39.5,0,0,1,15.712,3.269q14.985,6.45,20.707,22.978a50.891,50.891,0,0,1,2.724,16.529q0,18.485-10.283,31.649a2.927,2.927,0,0,1-.579.56L94.6,335.039a2.834,2.834,0,0,0,1.679,5.118h47.442a2.835,2.835,0,0,0,1.7-5.1,38.053,38.053,0,0,1-3.63-3.208,42.939,42.939,0,0,1-8.22-11.761,75.674,75.674,0,0,1-5.131-14.3,105.288,105.288,0,0,1-2.679-15.531q-.772-7.945-.772-15.484,0-6.995.682-14.532a106.067,106.067,0,0,1,2.406-14.849,78.385,78.385,0,0,1,4.678-13.941,44.242,44.242,0,0,1,7.583-11.76,37.765,37.765,0,0,1,11.08-8.4,38.578,38.578,0,0,1,15.167-3.814v17.8q-20.434,3.36-20.435,49.769,0,3.906.182,9.173a103.982,103.982,0,0,0,.954,10.808,79.78,79.78,0,0,0,2.315,10.944,37.631,37.631,0,0,0,4.178,9.627,22.089,22.089,0,0,0,6.63,6.856,17.089,17.089,0,0,0,9.627,2.634q23.7,0,23.7-50.042,0-46.227-20.344-49.769v-17.8a38.582,38.582,0,0,1,15.167,3.814,36.825,36.825,0,0,1,11.035,8.446,46.688,46.688,0,0,1,7.583,11.807,76.3,76.3,0,0,1,4.723,13.942,106.326,106.326,0,0,1,2.407,14.848q.679,7.54.681,14.531,0,7.629-.772,15.667a100.27,100.27,0,0,1-2.725,15.576,74.931,74.931,0,0,1-5.222,14.213,42.749,42.749,0,0,1-8.309,11.67,37.919,37.919,0,0,1-3.487,3.062,2.838,2.838,0,0,0,1.687,5.112h44.744a2.834,2.834,0,0,0,1.319-5.343l-4.072-2.142a2.972,2.972,0,0,1-.514-.34q-12.483-10.248-13.2-29.229H245.6q.908,10.716,7.266,16.347t16.711,5.631q23.793,0,24.249-28.608,0-18.345-13.714-24.976a24.52,24.52,0,0,0-11.08-2.18q-16.62,0-20.979,11.9H226.8l13.986-71.294h67.3V228.9H256.589l-6.721,33.15.363.363q8.808-9.9,25.612-9.9a39.5,39.5,0,0,1,15.711,3.269q14.987,6.45,20.707,22.978a50.865,50.865,0,0,1,2.725,16.529q0,18.711-10.535,31.969a42.83,42.83,0,0,1-8.055,7.8,2.839,2.839,0,0,0,1.727,5.1h39.2a2.834,2.834,0,0,0,2.834-2.834V2.834A2.834,2.834,0,0,0,337.323,0Z"/>
      </g>
    </g>
</svg>
