<svg xmlns="http://www.w3.org/2000/svg" width="120mm" height="120mm" viewBox="0 0 340.158 340.157">
  <g id="Zimmernummer">
      <g id="Z-03-060-M">
        <path fill="#D4AF37" stroke="none" d="M337.323,0H2.835A2.835,2.835,0,0,0,0,2.835V337.323a2.834,2.834,0,0,0,2.834,2.834H136.322a2.835,2.835,0,0,0,1.606-5.167q-1.327-.951-2.549-2a38.68,38.68,0,0,1-8.718-10.807,62.352,62.352,0,0,1-5.405-13.487,89.981,89.981,0,0,1-2.769-15.258q-.774-7.99-.773-15.984a144.639,144.639,0,0,1,.954-16.484,97.435,97.435,0,0,1,3.224-16.121,70.948,70.948,0,0,1,6.04-14.622,46.7,46.7,0,0,1,9.309-11.9,40.711,40.711,0,0,1,13.124-7.993,48.652,48.652,0,0,1,17.482-2.906,38.918,38.918,0,0,1,26.338,10.081,37.131,37.131,0,0,1,8.355,11.216,35.785,35.785,0,0,1,3.542,14.214H184.921a24.068,24.068,0,0,0-1.725-6.9,19.239,19.239,0,0,0-3.633-5.722,16.481,16.481,0,0,0-5.4-3.859,16.761,16.761,0,0,0-6.949-1.409q-16.8,0-22.977,15.894a76.762,76.762,0,0,0-4.269,16.847,129.849,129.849,0,0,0-1.271,18.119q0,6.63.591,12.941t1.588,12.125a56.031,56.031,0,0,0,2.543,9.309,27.221,27.221,0,0,0,4.315,7.72,19.034,19.034,0,0,0,6.63,5.222,21.65,21.65,0,0,0,9.49,1.907,22.692,22.692,0,0,0,10.444-2.27,21.689,21.689,0,0,0,7.357-5.994,25.1,25.1,0,0,0,4.314-8.673,37.19,37.19,0,0,0,1.407-10.218,35.513,35.513,0,0,0-1.453-10.218,24.813,24.813,0,0,0-4.359-8.491A20.976,20.976,0,0,0,174.3,273.5a24.8,24.8,0,0,0-20.434.135,21.742,21.742,0,0,0-7.992,7.175q-.273-4.088-.273-8.083,0-2.814.137-5.495t.317-5.4a29.119,29.119,0,0,1,9.945-5.4,43.483,43.483,0,0,1,29.154,1.635,37.186,37.186,0,0,1,12.669,9.264,41.024,41.024,0,0,1,7.947,13.759,50.994,50.994,0,0,1,2.77,16.983,50.2,50.2,0,0,1-3.133,18.027,41.845,41.845,0,0,1-8.81,14.168,38.278,38.278,0,0,1-5.524,4.773,2.83,2.83,0,0,0,1.664,5.123h47.489a2.834,2.834,0,0,0,1.688-5.107,34.94,34.94,0,0,1-3.585-3.154,42.863,42.863,0,0,1-8.219-11.761,75.528,75.528,0,0,1-5.132-14.3,105.324,105.324,0,0,1-2.679-15.532q-.773-7.946-.772-15.484,0-6.993.681-14.531a106.206,106.206,0,0,1,2.407-14.85,78.452,78.452,0,0,1,4.677-13.94,44.313,44.313,0,0,1,7.583-11.761,37.75,37.75,0,0,1,11.081-8.4,38.556,38.556,0,0,1,15.167-3.815v17.8q-20.434,3.36-20.435,49.769,0,3.906.182,9.173a103.982,103.982,0,0,0,.954,10.808,79.6,79.6,0,0,0,2.315,10.944,37.566,37.566,0,0,0,4.178,9.627,22.081,22.081,0,0,0,6.63,6.857,17.1,17.1,0,0,0,9.627,2.633q23.7,0,23.7-50.042,0-46.227-20.344-49.769v-17.8a38.565,38.565,0,0,1,15.167,3.815,36.809,36.809,0,0,1,11.035,8.446,46.683,46.683,0,0,1,7.583,11.806,76.373,76.373,0,0,1,4.723,13.942,106.326,106.326,0,0,1,2.407,14.848q.681,7.54.681,14.532,0,7.629-.772,15.667a100.494,100.494,0,0,1-2.724,15.575,75.011,75.011,0,0,1-5.223,14.214,42.746,42.746,0,0,1-8.31,11.67,35.739,35.739,0,0,1-3.455,3.007,2.836,2.836,0,0,0,1.679,5.117h44.6a2.835,2.835,0,0,0,2.835-2.834V2.834A2.834,2.834,0,0,0,337.323,0Z"/>
      </g>
    </g>
</svg>
