<svg xmlns="http://www.w3.org/2000/svg" width="120mm" height="120mm" viewBox="0 0 340.157 340.158">
  <g id="Zimmernummer">
      <g id="Z-03-529">
        <path fill="#000000" stroke="none" d="M337.323,0H2.835A2.835,2.835,0,0,0,0,2.835V337.323a2.835,2.835,0,0,0,2.835,2.835H34.923A2.8,2.8,0,0,0,36.431,335a41.256,41.256,0,0,1-3.4-2.467Q20.318,322.268,19.592,303.1H40.754q.9,10.716,7.265,16.347t16.711,5.631q23.793,0,24.248-28.607,0-18.346-13.713-24.977a24.547,24.547,0,0,0-11.08-2.18q-16.62,0-20.98,11.9H21.953l13.986-71.295h67.3V228.9h-51.5l-6.721,33.149.364.363q8.81-9.9,25.611-9.9a39.509,39.509,0,0,1,15.713,3.269q14.985,6.448,20.707,22.977a50.9,50.9,0,0,1,2.724,16.529q0,18.712-10.535,31.969a42.852,42.852,0,0,1-8.054,7.8,2.809,2.809,0,0,0,1.616,5.1h27.8a2.793,2.793,0,0,0,2.794-2.632q1.527-28.194,28.523-46.682,6.354-4.632,13.26-8.992,25.519-16.164,25.974-33.786,0-9.263-3.269-13.8a24.444,24.444,0,0,0-7.539-6.9A21.825,21.825,0,0,0,169.9,225q-6.63,0-10.808,2.543-11.172,6.811-11.807,30.063H126.033q0-22.251,11.807-36.239T170.9,207.379q21.252,0,32.877,13.715,8.991,10.989,8.992,26.246,0,20.075-18.256,35.512A149.56,149.56,0,0,1,176.439,296.2q-9.448,5.994-14.168,9.537-10.81,8.084-13.17,15.44h63.485v16.174a2.806,2.806,0,0,0,2.806,2.806h29.9a2.8,2.8,0,0,0,1.672-5.051q-1.473-1.115-2.866-2.4a37.07,37.07,0,0,1-8.355-11.217,35.75,35.75,0,0,1-3.541-14.213h21.16a24.045,24.045,0,0,0,1.727,6.9,19.212,19.212,0,0,0,3.633,5.722,16.436,16.436,0,0,0,5.4,3.86,16.748,16.748,0,0,0,6.947,1.408q16.8,0,22.977-15.895a76.79,76.79,0,0,0,4.269-16.847,129.815,129.815,0,0,0,1.272-18.118q0-6.629-.59-12.943t-1.59-12.123a56.1,56.1,0,0,0-2.543-9.31,27.3,27.3,0,0,0-4.314-7.719A19.1,19.1,0,0,0,283.922,227a21.678,21.678,0,0,0-9.493-1.906,22.72,22.72,0,0,0-10.443,2.269,21.674,21.674,0,0,0-7.357,6,25.126,25.126,0,0,0-4.313,8.628,37,37,0,0,0-1.408,10.262,35.446,35.446,0,0,0,1.453,10.217,24.729,24.729,0,0,0,4.359,8.492,20.97,20.97,0,0,0,7.266,5.768,22.858,22.858,0,0,0,10.172,2.134,22.63,22.63,0,0,0,10.262-2.271,21.735,21.735,0,0,0,7.992-7.174q.273,4.087.273,8.082,0,2.815-.136,5.494t-.319,5.405a29.144,29.144,0,0,1-9.943,5.4,43.483,43.483,0,0,1-29.154-1.635,37.23,37.23,0,0,1-12.67-9.264,41,41,0,0,1-7.946-13.759,50.969,50.969,0,0,1-2.771-16.983,50.2,50.2,0,0,1,3.135-18.029,41.833,41.833,0,0,1,8.808-14.168,39.621,39.621,0,0,1,13.668-9.264,45.816,45.816,0,0,1,17.711-3.314,50.8,50.8,0,0,1,17.211,2.635,39.689,39.689,0,0,1,12.623,7.218,38.732,38.732,0,0,1,8.719,10.809,62.454,62.454,0,0,1,5.4,13.486,90.551,90.551,0,0,1,2.77,15.258q.769,7.992.771,15.985a144.6,144.6,0,0,1-.953,16.439,97.25,97.25,0,0,1-3.225,16.166A71.047,71.047,0,0,1,310.349,320a46.793,46.793,0,0,1-9.308,11.9,42.241,42.241,0,0,1-3.9,3.139,2.808,2.808,0,0,0,1.58,5.124h38.6a2.834,2.834,0,0,0,2.834-2.834V2.835A2.834,2.834,0,0,0,337.323,0Z"/>
      </g>
    </g>
</svg>
