<svg xmlns="http://www.w3.org/2000/svg" width="120mm" height="120mm" viewBox="0 0 340.157 340.157">
  <g id="Zimmernummer">
      <g id="Z-03-039-M">
        <path fill="#D4AF37" stroke="none" d="M337.323,0H2.835A2.835,2.835,0,0,0,0,2.835V337.323a2.834,2.834,0,0,0,2.834,2.834H131.877a2.828,2.828,0,0,0,1.647-5.129q-9.216-6.635-13.761-18.805a57.891,57.891,0,0,1-3.178-18.619h21.252q-.273,11.9,5.9,19.8t17.71,7.9q11.532,0,18.709-5.994t7.175-17.256q0-13.623-10.808-18.891-7.629-3.723-23.25-3.269v-15.8q19.345.636,26.338-10.354,2.452-4.086,2.452-11.261a15.674,15.674,0,0,0-5.631-12.17,18.689,18.689,0,0,0-12.9-5.086q-17.71-.09-22.16,16.892a32.545,32.545,0,0,0-1.09,9.718H119.037q.724-18.981,12.17-31.6t30.97-12.624a47.992,47.992,0,0,1,28.7,8.991q12.441,9.081,12.442,25.793,0,21.342-18.436,27.882v.363a27.207,27.207,0,0,1,17.437,11.08,33.607,33.607,0,0,1,6.267,19.8q-.093,19.707-13.623,30.606a48.6,48.6,0,0,1-3.935,2.856,2.831,2.831,0,0,0,1.579,5.185h43.079a2.834,2.834,0,0,0,1.684-5.109q-1.314-1-2.537-2.114a37.085,37.085,0,0,1-8.356-11.217,35.772,35.772,0,0,1-3.542-14.213H244.1a24.061,24.061,0,0,0,1.726,6.9,19.18,19.18,0,0,0,3.633,5.722,16.463,16.463,0,0,0,5.4,3.86,16.756,16.756,0,0,0,6.948,1.408q16.8,0,22.978-15.894a76.784,76.784,0,0,0,4.269-16.848,130.108,130.108,0,0,0,1.271-18.118q0-6.628-.591-12.942t-1.589-12.124a56.1,56.1,0,0,0-2.543-9.31,27.279,27.279,0,0,0-4.314-7.719,19.043,19.043,0,0,0-6.63-5.222,21.653,21.653,0,0,0-9.49-1.907,22.707,22.707,0,0,0-10.445,2.27,21.68,21.68,0,0,0-7.356,5.994,25.128,25.128,0,0,0-4.314,8.628,36.965,36.965,0,0,0-1.408,10.263,35.456,35.456,0,0,0,1.453,10.217,24.758,24.758,0,0,0,4.36,8.492,20.945,20.945,0,0,0,7.265,5.767,22.872,22.872,0,0,0,10.172,2.134,22.644,22.644,0,0,0,10.263-2.27,21.772,21.772,0,0,0,7.992-7.175q.273,4.086.273,8.083,0,2.815-.137,5.494t-.317,5.4a29.143,29.143,0,0,1-9.946,5.4,43.5,43.5,0,0,1-29.153-1.635,37.252,37.252,0,0,1-12.669-9.264,41.015,41.015,0,0,1-7.947-13.76,50.939,50.939,0,0,1-2.77-16.983,50.218,50.218,0,0,1,3.133-18.028,41.843,41.843,0,0,1,8.81-14.168,39.606,39.606,0,0,1,13.669-9.264,45.807,45.807,0,0,1,17.71-3.314,50.784,50.784,0,0,1,17.209,2.633,39.7,39.7,0,0,1,12.624,7.22,38.721,38.721,0,0,1,8.719,10.809,62.466,62.466,0,0,1,5.4,13.486,90.315,90.315,0,0,1,2.769,15.258q.771,7.992.773,15.984a144.849,144.849,0,0,1-.955,16.439,97.431,97.431,0,0,1-3.223,16.166,71.2,71.2,0,0,1-6.04,14.622,46.724,46.724,0,0,1-9.309,11.9,38.107,38.107,0,0,1-3.62,2.933,2.832,2.832,0,0,0,1.693,5.108h47.473a2.834,2.834,0,0,0,2.834-2.834V2.834A2.834,2.834,0,0,0,337.323,0Z"/>
      </g>
    </g>
</svg>
