<svg xmlns="http://www.w3.org/2000/svg" width="120mm" height="120mm" viewBox="0 0 340.157 340.157">
  <g id="Zimmernummer">
      <g id="Z-03-057-E">
        <path fill="#A09f9d" stroke="none" d="M337.323,0H2.835A2.835,2.835,0,0,0,0,2.835V337.323a2.834,2.834,0,0,0,2.834,2.834H133.925a2.831,2.831,0,0,0,1.527-5.214q-1.683-1.105-3.244-2.365-12.717-10.263-13.441-29.426h21.161q.906,10.716,7.265,16.348t16.711,5.63q23.795,0,24.249-28.608,0-18.345-13.714-24.976a24.517,24.517,0,0,0-11.08-2.179q-16.62,0-20.979,11.9H121.128l13.986-71.294h67.3v18.982H150.917L144.2,262.1l.364.363q8.808-9.9,25.611-9.9a39.521,39.521,0,0,1,15.712,3.269q14.985,6.45,20.707,22.978a50.891,50.891,0,0,1,2.724,16.529q0,18.711-10.535,31.969a42.79,42.79,0,0,1-8,7.754,2.838,2.838,0,0,0,1.731,5.093h44.254a2.837,2.837,0,0,0,2.821-2.6q3.807-43.281,31.212-84.17a235.235,235.235,0,0,1,18.8-24.43H222.12V209.97h89.095v17.71Q278.7,264.19,267.8,307.057a188.017,188.017,0,0,0-4.931,30.037,2.833,2.833,0,0,0,2.828,3.063h71.623a2.834,2.834,0,0,0,2.834-2.834V2.835A2.834,2.834,0,0,0,337.323,0Z"/>
      </g>
    </g>
</svg>
