<svg xmlns="http://www.w3.org/2000/svg" width="120mm" height="120mm" viewBox="0 0 340.157 340.157">
  <g id="Zimmernummer">
      <g id="Z-03-066-M">
        <path fill="#D4AF37" stroke="none" d="M337.323,0H2.834A2.834,2.834,0,0,0,0,2.834V337.323a2.834,2.834,0,0,0,2.834,2.834H134.193a2.834,2.834,0,0,0,1.6-5.167q-1.363-.972-2.613-2.051a38.711,38.711,0,0,1-8.719-10.806,62.448,62.448,0,0,1-5.4-13.488,89.883,89.883,0,0,1-2.77-15.258q-.773-7.989-.772-15.985a144.386,144.386,0,0,1,.953-16.482A97.314,97.314,0,0,1,119.7,244.8a70.954,70.954,0,0,1,6.039-14.623,46.7,46.7,0,0,1,9.309-11.9,40.736,40.736,0,0,1,13.123-7.992,48.664,48.664,0,0,1,17.484-2.906,38.933,38.933,0,0,1,26.338,10.08,37.123,37.123,0,0,1,8.355,11.217,35.835,35.835,0,0,1,3.542,14.213H182.727a24.092,24.092,0,0,0-1.726-6.9,19.227,19.227,0,0,0-3.632-5.72,16.492,16.492,0,0,0-5.405-3.86A16.752,16.752,0,0,0,165.017,225q-16.8,0-22.977,15.893a76.735,76.735,0,0,0-4.269,16.847,129.708,129.708,0,0,0-1.271,18.119q0,6.63.589,12.942t1.59,12.125a55.923,55.923,0,0,0,2.543,9.308,27.263,27.263,0,0,0,4.314,7.721,19.055,19.055,0,0,0,6.63,5.221,21.659,21.659,0,0,0,9.491,1.908,22.7,22.7,0,0,0,10.444-2.272,21.642,21.642,0,0,0,7.357-5.994,25.109,25.109,0,0,0,4.313-8.672,37.2,37.2,0,0,0,1.408-10.218,35.5,35.5,0,0,0-1.453-10.217,24.871,24.871,0,0,0-4.359-8.492,21,21,0,0,0-7.266-5.766,24.8,24.8,0,0,0-20.434.135,21.739,21.739,0,0,0-7.993,7.176q-.272-4.088-.272-8.084,0-2.812.136-5.494t.318-5.4a29.127,29.127,0,0,1,9.944-5.4,43.467,43.467,0,0,1,29.154,1.635,37.2,37.2,0,0,1,12.67,9.263,41.037,41.037,0,0,1,7.946,13.758,50.981,50.981,0,0,1,2.77,16.985,50.23,50.23,0,0,1-3.133,18.027,41.855,41.855,0,0,1-8.81,14.168,38.323,38.323,0,0,1-5.588,4.817,2.83,2.83,0,0,0,1.661,5.125h47.077a2.836,2.836,0,0,0,1.594-5.177q-1.347-.959-2.6-2.041a38.694,38.694,0,0,1-8.719-10.806,62.4,62.4,0,0,1-5.4-13.488,89.981,89.981,0,0,1-2.771-15.258q-.773-7.989-.771-15.985a144.386,144.386,0,0,1,.953-16.482,97.312,97.312,0,0,1,3.224-16.121,71.064,71.064,0,0,1,6.039-14.623,46.7,46.7,0,0,1,9.31-11.9,40.714,40.714,0,0,1,13.123-7.992,48.662,48.662,0,0,1,17.483-2.906,38.928,38.928,0,0,1,26.338,10.08,37.126,37.126,0,0,1,8.356,11.217,35.835,35.835,0,0,1,3.542,14.213H286.081a24.158,24.158,0,0,0-1.726-6.9,19.209,19.209,0,0,0-3.633-5.72,16.477,16.477,0,0,0-5.4-3.86A16.752,16.752,0,0,0,268.371,225q-16.8,0-22.978,15.893a76.678,76.678,0,0,0-4.268,16.847,129.709,129.709,0,0,0-1.272,18.119q0,6.63.59,12.942t1.59,12.125a55.826,55.826,0,0,0,2.543,9.308,27.261,27.261,0,0,0,4.313,7.721,19.055,19.055,0,0,0,6.63,5.221,21.666,21.666,0,0,0,9.491,1.908,22.7,22.7,0,0,0,10.445-2.272,21.639,21.639,0,0,0,7.356-5.994,25.11,25.11,0,0,0,4.314-8.672,37.2,37.2,0,0,0,1.408-10.218,35.53,35.53,0,0,0-1.453-10.217,24.855,24.855,0,0,0-4.36-8.492,20.984,20.984,0,0,0-7.265-5.766,24.8,24.8,0,0,0-20.435.135,21.744,21.744,0,0,0-7.992,7.176q-.273-4.088-.273-8.084,0-2.812.136-5.494t.318-5.4a29.131,29.131,0,0,1,9.945-5.4,43.464,43.464,0,0,1,29.153,1.635,37.188,37.188,0,0,1,12.67,9.263,41.02,41.02,0,0,1,7.946,13.758,50.981,50.981,0,0,1,2.771,16.985,50.209,50.209,0,0,1-3.134,18.027,41.839,41.839,0,0,1-8.81,14.168,38.367,38.367,0,0,1-5.587,4.817,2.83,2.83,0,0,0,1.661,5.125h43.5a2.834,2.834,0,0,0,2.834-2.834V2.834A2.834,2.834,0,0,0,337.323,0Z"/>
      </g>
    </g>
</svg>
