<svg xmlns="http://www.w3.org/2000/svg" width="120mm" height="120mm" viewBox="0 0 340.158 340.157">
  <g id="Zimmernummer">
      <g id="Z-03-415-R">
        <path fill="#A0552B" stroke="none" d="M337.323,0H2.835A2.835,2.835,0,0,0,0,2.835V337.323a2.834,2.834,0,0,0,2.834,2.834H88.307a2.834,2.834,0,0,0,2.834-2.834V235.26h-.454L51.635,292.567h32.7v16.711H35.287V288.3l55.854-78.378h20.072v82.646h16.711v16.711H111.213v28.045a2.834,2.834,0,0,0,2.834,2.834h48.017a2.834,2.834,0,0,0,2.834-2.834V248.247H132.929V231.536q22.887,0,33.15-11.534a20.3,20.3,0,0,0,4.723-10.081h17.346v127.4a2.834,2.834,0,0,0,2.835,2.834h38.575a2.831,2.831,0,0,0,1.524-5.215,40.824,40.824,0,0,1-3.318-2.414q-12.716-10.262-13.441-29.425h21.161q.907,10.716,7.266,16.347t16.711,5.631q23.793,0,24.249-28.608,0-18.345-13.714-24.976a24.523,24.523,0,0,0-11.08-2.18q-16.62,0-20.98,11.9H216.684l13.987-71.294h67.3V228.9h-51.5l-6.72,33.15.363.363q8.808-9.9,25.611-9.9a39.5,39.5,0,0,1,15.712,3.269q14.985,6.45,20.707,22.978a50.865,50.865,0,0,1,2.725,16.529q0,18.711-10.535,31.969a42.8,42.8,0,0,1-8.056,7.8,2.839,2.839,0,0,0,1.728,5.1h49.315a2.834,2.834,0,0,0,2.835-2.834V2.835A2.835,2.835,0,0,0,337.323,0Z"/>
      </g>
    </g>
</svg>
