<svg xmlns="http://www.w3.org/2000/svg" width="120mm" height="120mm" viewBox="0 0 340.157 340.157">
  <g id="Zimmernummer">
      <g id="Z-03-038-E">
        <path fill="#A09f9d" stroke="none" d="M337.323,0H2.835A2.835,2.835,0,0,0,0,2.835V337.323a2.834,2.834,0,0,0,2.834,2.834H133.661a2.828,2.828,0,0,0,1.648-5.129q-9.218-6.635-13.762-18.805a57.945,57.945,0,0,1-3.179-18.619H139.62q-.272,11.9,5.9,19.8t17.71,7.9q11.532,0,18.709-5.994t7.174-17.256q0-13.623-10.807-18.891-7.629-3.723-23.25-3.269v-15.8q19.344.636,26.338-10.354,2.452-4.086,2.452-11.261a15.671,15.671,0,0,0-5.631-12.17,18.689,18.689,0,0,0-12.9-5.086q-17.711-.09-22.161,16.892a32.577,32.577,0,0,0-1.089,9.718H120.821q.726-18.981,12.17-31.6T163.96,207.6a47.987,47.987,0,0,1,28.7,8.991q12.443,9.081,12.443,25.793,0,21.342-18.437,27.882v.363a27.206,27.206,0,0,1,17.438,11.08,33.606,33.606,0,0,1,6.266,19.8q-.09,19.707-13.623,30.606-1.9,1.532-3.914,2.847a2.829,2.829,0,0,0,1.556,5.194h42.488a2.831,2.831,0,0,0,1.541-5.2q-1.645-1.095-3.163-2.338a36.419,36.419,0,0,1-9.9-12.8,41.065,41.065,0,0,1-3.633-17.756A36.581,36.581,0,0,1,223.4,290.7a31.212,31.212,0,0,1,4.767-9.264,29.049,29.049,0,0,1,7.538-6.948,32.945,32.945,0,0,1,9.9-4.222V269.9a26.969,26.969,0,0,1-18.437-26.792A38.849,38.849,0,0,1,229.9,227.99a29.333,29.333,0,0,1,7.675-10.852,34.8,34.8,0,0,1,11.76-6.721,52.754,52.754,0,0,1,14.986-2.725v16.8a20.712,20.712,0,0,0-12.488,6.313q-4.587,5.039-4.587,13.3,0,8.175,4.5,13.123t12.578,5.95V279.35a26.867,26.867,0,0,0-8.764,2.27,21.3,21.3,0,0,0-6.721,4.769,21.08,21.08,0,0,0-4.314,6.992,27.36,27.36,0,0,0,.318,18.982,21.828,21.828,0,0,0,5.131,7.492,22.125,22.125,0,0,0,7.811,4.723,30.784,30.784,0,0,0,19.8,0,22.614,22.614,0,0,0,7.857-4.723,21.494,21.494,0,0,0,5.177-7.538,27.865,27.865,0,0,0,.363-19.026,19.715,19.715,0,0,0-4.314-6.948,22.435,22.435,0,0,0-6.721-4.723,26.555,26.555,0,0,0-8.81-2.27V263.184q8.084-1,12.533-5.858t4.451-13.033q0-8.264-4.5-13.441t-12.489-6.358v-16.8a51.249,51.249,0,0,1,15.849,2.953,33.388,33.388,0,0,1,11.67,7.128,29.809,29.809,0,0,1,7.175,10.9,39.913,39.913,0,0,1,2.452,14.44A28.82,28.82,0,0,1,303.6,259.6a27.455,27.455,0,0,1-13.76,10.308v.364a33.2,33.2,0,0,1,9.764,4.177A30.109,30.109,0,0,1,312,290.066a31.535,31.535,0,0,1,1.726,10.536,45.237,45.237,0,0,1-3.451,18.254,37.447,37.447,0,0,1-9.581,13.306,37.867,37.867,0,0,1-3.665,2.851,2.83,2.83,0,0,0,1.638,5.144h38.659a2.834,2.834,0,0,0,2.834-2.834V2.834A2.834,2.834,0,0,0,337.323,0Z"/>
      </g>
    </g>
</svg>
