<svg xmlns="http://www.w3.org/2000/svg" width="120mm" height="120mm" viewBox="0 0 340.157 340.157">
  <g id="Zimmernummer">
      <g id="Z-03-423-M">
        <path fill="#D4AF37" stroke="none" d="M337.323,0H2.835A2.835,2.835,0,0,0,0,2.835V337.323a2.834,2.834,0,0,0,2.834,2.834H73.109a2.835,2.835,0,0,0,2.835-2.834V235.26H75.49L36.437,292.568h32.7v16.711H20.089V288.3l55.855-78.378H96.015v82.647h16.711v16.711H96.015v28.044a2.834,2.834,0,0,0,2.835,2.834h24.674a2.82,2.82,0,0,0,2.822-2.658q1.537-28.178,28.52-46.657,6.357-4.632,13.26-8.991,25.521-16.164,25.975-33.785,0-9.264-3.27-13.805a24.436,24.436,0,0,0-7.538-6.9A21.822,21.822,0,0,0,172.486,225q-6.63,0-10.808,2.543-11.171,6.811-11.807,30.061H128.619q0-22.251,11.807-36.237t33.059-13.987q21.252,0,32.877,13.714,8.991,10.989,8.991,26.247,0,20.073-18.255,35.511A149.744,149.744,0,0,1,179.025,296.2q-9.447,5.994-14.168,9.536-10.809,8.083-13.169,15.439h63.483v16.147a2.834,2.834,0,0,0,2.835,2.834h25.628a2.835,2.835,0,0,0,1.6-5.172q-9.39-6.654-13.988-18.985a57.918,57.918,0,0,1-3.178-18.619H249.32q-.273,11.9,5.9,19.8t17.71,7.9q11.532,0,18.709-6t7.175-17.255q0-13.623-10.808-18.891-7.629-3.724-23.25-3.27v-15.8q19.346.634,26.338-10.354,2.453-4.086,2.452-11.262a15.674,15.674,0,0,0-5.631-12.17,18.693,18.693,0,0,0-12.9-5.085q-17.711-.09-22.16,16.892a32.545,32.545,0,0,0-1.09,9.718H230.52q.726-18.981,12.17-31.606t30.969-12.624a47.987,47.987,0,0,1,28.7,8.992q12.443,9.081,12.442,25.793,0,21.342-18.436,27.881v.364a27.2,27.2,0,0,1,17.437,11.08,33.6,33.6,0,0,1,6.267,19.8q-.092,19.707-13.623,30.606a49,49,0,0,1-4.249,3.064,2.828,2.828,0,0,0,1.547,5.2h33.579a2.834,2.834,0,0,0,2.834-2.834V2.834A2.834,2.834,0,0,0,337.323,0Z"/>
      </g>
    </g>
</svg>
