<svg xmlns="http://www.w3.org/2000/svg" width="120mm" height="120mm" viewBox="0 0 340.157 340.158">
  <g id="Zimmernummer">
      <g id="Z-03-242-E">
        <path fill="#A09f9d" stroke="none" d="M337.323,0H2.835A2.835,2.835,0,0,0,0,2.835V337.323a2.835,2.835,0,0,0,2.835,2.835H23.164a2.821,2.821,0,0,0,2.822-2.659q1.537-28.175,28.52-46.654,6.357-4.632,13.26-8.991,25.519-16.164,25.975-33.785,0-9.264-3.27-13.8a24.447,24.447,0,0,0-7.538-6.9A21.829,21.829,0,0,0,72.125,225q-6.63,0-10.807,2.543-11.172,6.811-11.807,30.062H28.259q0-22.251,11.807-36.237t33.058-13.987q21.252,0,32.877,13.714,8.991,10.989,8.992,26.247,0,20.073-18.255,35.511A149.676,149.676,0,0,1,78.664,296.2Q69.219,302.2,64.5,305.74q-10.809,8.084-13.168,15.439h63.483v16.144a2.835,2.835,0,0,0,2.835,2.835h58.09a2.834,2.834,0,0,0,2.834-2.835V235.263h-.454l-39.053,57.308h32.7v16.711H122.716V288.3l55.854-78.378h20.071v82.647h16.711v16.711H198.641v28.041a2.835,2.835,0,0,0,2.835,2.835h20.955a2.821,2.821,0,0,0,2.822-2.659q1.538-28.175,28.52-46.654,6.357-4.632,13.26-8.991,25.519-16.164,25.975-33.785,0-9.264-3.27-13.8a24.447,24.447,0,0,0-7.538-6.9A21.829,21.829,0,0,0,271.392,225q-6.63,0-10.807,2.543-11.17,6.811-11.807,30.062H227.526q0-22.251,11.807-36.237t33.058-13.987q21.252,0,32.877,13.714,8.993,10.989,8.992,26.247,0,20.073-18.255,35.511A149.744,149.744,0,0,1,277.932,296.2q-9.447,5.994-14.168,9.536-10.81,8.084-13.169,15.439h63.483v16.144a2.835,2.835,0,0,0,2.835,2.835h20.41a2.834,2.834,0,0,0,2.834-2.835V2.834A2.834,2.834,0,0,0,337.323,0Z"/>
      </g>
    </g>
</svg>
