<svg xmlns="http://www.w3.org/2000/svg" width="120mm" height="120mm" viewBox="0 0 340.157 340.157">
  <g id="Zimmernummer">
      <g id="Z-03-245-M">
        <path fill="#D4AF37" stroke="none" d="M337.323,0H2.835A2.835,2.835,0,0,0,0,2.835V337.323a2.834,2.834,0,0,0,2.834,2.834H22.8a2.821,2.821,0,0,0,2.823-2.658q1.536-28.178,28.52-46.657,6.356-4.632,13.26-8.991,25.519-16.165,25.974-33.786,0-9.263-3.269-13.8a24.451,24.451,0,0,0-7.538-6.9A21.829,21.829,0,0,0,71.762,225q-6.63,0-10.808,2.543Q49.784,234.352,49.148,257.6H27.9q0-22.251,11.807-36.238t33.058-13.986q21.252,0,32.877,13.714,8.991,10.989,8.991,26.247,0,20.073-18.255,35.511A149.658,149.658,0,0,1,78.3,296.2q-9.447,5.994-14.168,9.536-10.809,8.085-13.169,15.44h63.484v16.147a2.834,2.834,0,0,0,2.834,2.834h56.673a2.835,2.835,0,0,0,2.835-2.834V235.26h-.455l-39.052,57.307h32.7v16.711H120.935V288.3l55.855-78.378h20.071v82.646h16.711v16.711H196.861v28.045a2.834,2.834,0,0,0,2.834,2.834H239.31a2.831,2.831,0,0,0,1.524-5.215,40.824,40.824,0,0,1-3.318-2.414Q224.8,322.267,224.075,303.1h21.161q.908,10.716,7.266,16.347t16.711,5.631q23.793,0,24.249-28.608,0-18.345-13.714-24.976a24.523,24.523,0,0,0-11.08-2.18q-16.62,0-20.98,11.9H226.436l13.987-71.294h67.3V228.9h-51.5l-6.72,33.15.363.363q8.808-9.9,25.611-9.9a39.5,39.5,0,0,1,15.712,3.269q14.987,6.45,20.707,22.978a50.865,50.865,0,0,1,2.725,16.529q0,18.711-10.535,31.969a42.83,42.83,0,0,1-8.055,7.8,2.839,2.839,0,0,0,1.727,5.1h39.563a2.834,2.834,0,0,0,2.834-2.834V2.835A2.834,2.834,0,0,0,337.323,0Z"/>
      </g>
    </g>
</svg>
