<svg xmlns="http://www.w3.org/2000/svg" width="120mm" height="120mm" viewBox="0 0 340.157 340.157">
  <g id="Zimmernummer">
      <g id="Z-03-300-M">
        <path fill="#D4AF37" stroke="none" d="M337.323,0H2.835A2.835,2.835,0,0,0,0,2.835V337.323a2.834,2.834,0,0,0,2.834,2.834H40.525a2.835,2.835,0,0,0,1.6-5.173q-9.4-6.655-14-19a57.907,57.907,0,0,1-3.179-18.618H46.2q-.271,11.9,5.9,19.8t17.71,7.9q11.534,0,18.709-5.994t7.175-17.256q0-13.623-10.807-18.89-7.629-3.724-23.25-3.27v-15.8q19.344.636,26.338-10.353,2.451-4.088,2.452-11.262a15.676,15.676,0,0,0-5.631-12.17,18.7,18.7,0,0,0-12.9-5.086q-17.709-.089-22.16,16.893a32.573,32.573,0,0,0-1.09,9.718H27.4q.726-18.982,12.17-31.606t30.97-12.624a47.989,47.989,0,0,1,28.7,8.991q12.443,9.083,12.443,25.793,0,21.344-18.437,27.882v.363a27.206,27.206,0,0,1,17.438,11.081,33.61,33.61,0,0,1,6.266,19.8q-.091,19.709-13.623,30.607a48.506,48.506,0,0,1-4.247,3.057,2.846,2.846,0,0,0,1.58,5.218h43.7a2.833,2.833,0,0,0,1.685-5.108,35.219,35.219,0,0,1-3.661-3.213,42.863,42.863,0,0,1-8.219-11.761,75.511,75.511,0,0,1-5.131-14.3,105.026,105.026,0,0,1-2.679-15.531q-.774-7.946-.772-15.484,0-6.993.681-14.531a106.2,106.2,0,0,1,2.406-14.85,78.428,78.428,0,0,1,4.678-13.94,44.263,44.263,0,0,1,7.583-11.761,37.765,37.765,0,0,1,11.08-8.4,38.582,38.582,0,0,1,15.167-3.814v17.8q-20.434,3.36-20.434,49.769,0,3.906.181,9.173a104.257,104.257,0,0,0,.954,10.808,79.752,79.752,0,0,0,2.316,10.944,37.566,37.566,0,0,0,4.178,9.627A22.067,22.067,0,0,0,161,322.437a17.1,17.1,0,0,0,9.627,2.633q23.7,0,23.705-50.042,0-46.227-20.344-49.769v-17.8a38.587,38.587,0,0,1,15.167,3.814,36.836,36.836,0,0,1,11.034,8.447,46.668,46.668,0,0,1,7.584,11.806,76.373,76.373,0,0,1,4.723,13.942,106.324,106.324,0,0,1,2.406,14.848q.681,7.541.681,14.532,0,7.629-.772,15.667a100.4,100.4,0,0,1-2.724,15.575,75.077,75.077,0,0,1-5.222,14.214,42.767,42.767,0,0,1-8.31,11.67,35.96,35.96,0,0,1-3.531,3.066,2.836,2.836,0,0,0,1.676,5.118h47.292a2.833,2.833,0,0,0,1.685-5.108,35.219,35.219,0,0,1-3.661-3.213,42.863,42.863,0,0,1-8.219-11.761,75.582,75.582,0,0,1-5.132-14.3,105.288,105.288,0,0,1-2.679-15.531q-.772-7.946-.772-15.484,0-6.993.681-14.531a106.206,106.206,0,0,1,2.407-14.85,78.506,78.506,0,0,1,4.677-13.94,44.291,44.291,0,0,1,7.584-11.761,37.765,37.765,0,0,1,11.08-8.4,38.578,38.578,0,0,1,15.167-3.814v17.8q-20.434,3.36-20.435,49.769,0,3.906.182,9.173a104.257,104.257,0,0,0,.954,10.808,79.456,79.456,0,0,0,2.316,10.944A37.565,37.565,0,0,0,254,315.58a22.081,22.081,0,0,0,6.63,6.857,17.1,17.1,0,0,0,9.627,2.633q23.7,0,23.7-50.042,0-46.227-20.343-49.769v-17.8a38.587,38.587,0,0,1,15.167,3.814,36.836,36.836,0,0,1,11.034,8.447,46.668,46.668,0,0,1,7.584,11.806,76.37,76.37,0,0,1,4.722,13.942,106.178,106.178,0,0,1,2.407,14.848q.681,7.541.681,14.532,0,7.629-.772,15.667a100.4,100.4,0,0,1-2.724,15.575A75.077,75.077,0,0,1,306.5,320.3a42.749,42.749,0,0,1-8.311,11.67,35.833,35.833,0,0,1-3.53,3.066,2.836,2.836,0,0,0,1.676,5.118h40.993a2.834,2.834,0,0,0,2.834-2.834V2.834A2.834,2.834,0,0,0,337.323,0Z"/>
      </g>
    </g>
</svg>
