<svg xmlns="http://www.w3.org/2000/svg" width="120mm" height="120mm" viewBox="0 0 340.157 340.157">
  <g id="Zimmernummer">
      <g id="Z-03-241-R">
        <path fill="#A0552B" stroke="none" d="M337.323,0H2.835A2.835,2.835,0,0,0,0,2.835V337.323a2.834,2.834,0,0,0,2.834,2.834H35.065a2.82,2.82,0,0,0,2.822-2.658q1.536-28.178,28.52-46.657,6.357-4.632,13.26-8.991,25.521-16.165,25.975-33.786,0-9.263-3.27-13.8a24.44,24.44,0,0,0-7.538-6.9A21.826,21.826,0,0,0,84.026,225q-6.63,0-10.807,2.543-11.17,6.811-11.807,30.062H40.16q0-22.251,11.807-36.238t33.058-13.986q21.252,0,32.877,13.714,8.991,10.989,8.992,26.247,0,20.073-18.255,35.511A149.668,149.668,0,0,1,90.565,296.2q-9.445,5.994-14.168,9.536-10.808,8.085-13.168,15.44h63.483v16.147a2.834,2.834,0,0,0,2.835,2.834h66.062a2.834,2.834,0,0,0,2.834-2.834V235.26h-.454l-39.052,57.307h32.695v16.711H142.589V288.3l55.854-78.378h20.072v82.646h16.711v16.711H218.515v28.045a2.834,2.834,0,0,0,2.834,2.834h54.925a2.834,2.834,0,0,0,2.834-2.834V248.247H247.14V231.536q22.885,0,33.149-11.534a20.3,20.3,0,0,0,4.723-10.081h17.346v127.4a2.835,2.835,0,0,0,2.835,2.834h32.13a2.834,2.834,0,0,0,2.834-2.834V2.835A2.834,2.834,0,0,0,337.323,0Z"/>
      </g>
    </g>
</svg>
