<svg xmlns="http://www.w3.org/2000/svg" width="120mm" height="120mm" viewBox="0 0 340.157 340.157">
  <g id="Zimmernummer">
      <g id="Z-03-339-R">
        <path fill="#A0552B" stroke="none" d="M337.323,0H2.835A2.835,2.835,0,0,0,0,2.835V337.323a2.834,2.834,0,0,0,2.834,2.834H41.789a2.835,2.835,0,0,0,1.6-5.17q-9.37-6.652-13.964-18.967A57.945,57.945,0,0,1,26.247,297.4H47.5q-.272,11.9,5.9,19.8t17.71,7.9q11.532,0,18.709-5.995T97,301.852q0-13.623-10.807-18.891-7.629-3.723-23.25-3.27v-15.8q19.344.635,26.338-10.354,2.453-4.086,2.452-11.262A15.671,15.671,0,0,0,86.1,230.1a18.689,18.689,0,0,0-12.9-5.086q-17.71-.09-22.161,16.892a32.544,32.544,0,0,0-1.089,9.718H28.7q.726-18.981,12.17-31.606T71.839,207.4a47.988,47.988,0,0,1,28.7,8.992q12.443,9.081,12.443,25.793,0,21.342-18.437,27.881v.364a27.2,27.2,0,0,1,17.438,11.08,33.6,33.6,0,0,1,6.266,19.8q-.09,19.707-13.623,30.606a48.729,48.729,0,0,1-4.217,3.044,2.828,2.828,0,0,0,1.547,5.2h39.467a2.835,2.835,0,0,0,1.6-5.17q-9.372-6.652-13.964-18.967a57.891,57.891,0,0,1-3.179-18.619h21.252q-.272,11.9,5.9,19.8t17.709,7.9q11.533,0,18.709-5.995t7.175-17.255q0-13.623-10.807-18.891-7.629-3.723-23.25-3.27v-15.8q19.344.635,26.338-10.354,2.451-4.086,2.452-11.262a15.674,15.674,0,0,0-5.631-12.169,18.692,18.692,0,0,0-12.9-5.086q-17.709-.09-22.16,16.892a32.577,32.577,0,0,0-1.09,9.718H128.333q.726-18.981,12.17-31.606t30.97-12.624a47.99,47.99,0,0,1,28.7,8.992q12.441,9.081,12.443,25.793,0,21.342-18.437,27.881v.364a27.205,27.205,0,0,1,17.438,11.08,33.611,33.611,0,0,1,6.266,19.8q-.091,19.707-13.623,30.606a48.59,48.59,0,0,1-4.218,3.044,2.829,2.829,0,0,0,1.548,5.2h36.23a2.831,2.831,0,0,0,1.671-5.115q-1.452-1.083-2.8-2.312a37.085,37.085,0,0,1-8.356-11.216,35.772,35.772,0,0,1-3.542-14.213h21.162a24.035,24.035,0,0,0,1.725,6.9,19.2,19.2,0,0,0,3.633,5.722,16.467,16.467,0,0,0,5.4,3.86,16.755,16.755,0,0,0,6.947,1.407q16.8,0,22.978-15.893a76.784,76.784,0,0,0,4.269-16.848,129.956,129.956,0,0,0,1.271-18.118q0-6.629-.59-12.942T290,249.267a56,56,0,0,0-2.543-9.31,27.263,27.263,0,0,0-4.313-7.719,19.052,19.052,0,0,0-6.63-5.222,21.657,21.657,0,0,0-9.491-1.908,22.7,22.7,0,0,0-10.444,2.271,21.693,21.693,0,0,0-7.357,5.994A25.091,25.091,0,0,0,244.909,242a36.961,36.961,0,0,0-1.409,10.263,35.445,35.445,0,0,0,1.454,10.216,24.734,24.734,0,0,0,4.359,8.493,20.96,20.96,0,0,0,7.266,5.767,24.808,24.808,0,0,0,20.434-.136,21.756,21.756,0,0,0,7.992-7.175q.273,4.086.273,8.083,0,2.815-.136,5.494t-.318,5.4a29.119,29.119,0,0,1-9.945,5.4,43.487,43.487,0,0,1-29.153-1.634,37.256,37.256,0,0,1-12.67-9.264,41,41,0,0,1-7.946-13.76,50.939,50.939,0,0,1-2.771-16.983,50.218,50.218,0,0,1,3.134-18.028,41.827,41.827,0,0,1,8.81-14.168,39.611,39.611,0,0,1,13.668-9.264,45.808,45.808,0,0,1,17.71-3.315,50.793,50.793,0,0,1,17.21,2.634,39.7,39.7,0,0,1,12.625,7.22,38.735,38.735,0,0,1,8.718,10.809,62.413,62.413,0,0,1,5.4,13.486,90.415,90.415,0,0,1,2.77,15.258q.771,7.992.772,15.984a144.845,144.845,0,0,1-.954,16.439,97.33,97.33,0,0,1-3.224,16.166,71.144,71.144,0,0,1-6.039,14.622,46.767,46.767,0,0,1-9.31,11.9,37.906,37.906,0,0,1-3.8,3.061,2.837,2.837,0,0,0,1.587,5.183h45.9a2.834,2.834,0,0,0,2.834-2.834V2.834A2.834,2.834,0,0,0,337.323,0Z"/>
      </g>
    </g>
</svg>
