<svg xmlns="http://www.w3.org/2000/svg" width="120mm" height="120mm" viewBox="0 0 340.157 340.157">
  <g id="Zimmernummer">
      <g id="Z-03-235-R">
        <path fill="#A0552B" stroke="none" d="M337.323,0H2.835A2.835,2.835,0,0,0,0,2.835V337.323a2.834,2.834,0,0,0,2.834,2.834h16.8a2.821,2.821,0,0,0,2.821-2.645q1.662-27.975,28.5-46.36,6.355-4.632,13.26-8.991Q89.733,266,90.187,248.376q0-9.264-3.269-13.805a24.447,24.447,0,0,0-7.538-6.9,21.829,21.829,0,0,0-10.808-2.361q-6.63,0-10.808,2.543-11.171,6.811-11.806,30.061H24.706q0-22.251,11.807-36.237t33.058-13.987q21.252,0,32.877,13.714,8.991,10.991,8.991,26.247,0,20.073-18.255,35.511a149.587,149.587,0,0,1-18.073,13.351q-9.447,5.994-14.168,9.536-10.809,8.085-13.169,15.439h63.484v15.837a2.834,2.834,0,0,0,2.834,2.834h22.451a2.828,2.828,0,0,0,1.657-5.122q-9.138-6.627-13.657-18.725a57.918,57.918,0,0,1-3.179-18.619h21.252q-.273,11.9,5.9,19.8t17.71,7.9q11.533,0,18.709-6t7.175-17.255q0-13.623-10.807-18.891-7.629-3.723-23.25-3.27v-15.8q19.344.636,26.337-10.354,2.452-4.086,2.453-11.262a15.674,15.674,0,0,0-5.631-12.169,18.692,18.692,0,0,0-12.9-5.086q-17.709-.09-22.16,16.892a32.545,32.545,0,0,0-1.09,9.718H123.816q.726-18.981,12.17-31.606t30.97-12.624a47.99,47.99,0,0,1,28.7,8.992q12.442,9.081,12.443,25.793,0,21.342-18.437,27.881v.364A27.2,27.2,0,0,1,207.1,281.8a33.6,33.6,0,0,1,6.267,19.8q-.091,19.707-13.623,30.606-1.84,1.484-3.786,2.762a2.829,2.829,0,0,0,1.559,5.192h43.71a2.834,2.834,0,0,0,1.54-5.21q-1.476-.993-2.858-2.108-12.717-10.263-13.442-29.426h21.161q.907,10.717,7.266,16.348t16.711,5.631q23.793,0,24.249-28.609,0-18.344-13.714-24.975a24.51,24.51,0,0,0-11.08-2.18q-16.62,0-20.98,11.9H228.827l13.986-71.294h67.3v18.982H258.616L251.9,262.362l.363.364q8.808-9.9,25.611-9.9a39.505,39.505,0,0,1,15.712,3.27q14.986,6.45,20.707,22.977a50.867,50.867,0,0,1,2.725,16.53q0,18.709-10.535,31.968a43.177,43.177,0,0,1-7.68,7.526,2.831,2.831,0,0,0,1.756,5.06h36.769a2.834,2.834,0,0,0,2.834-2.834V2.835A2.834,2.834,0,0,0,337.323,0Z"/>
      </g>
    </g>
</svg>
