<svg xmlns="http://www.w3.org/2000/svg" width="120mm" height="120mm" viewBox="0 0 340.158 340.157">
  <g id="Zimmernummer">
      <g id="Z-03-216-M">
        <path fill="#D4AF37" stroke="none" d="M337.323,0H2.835A2.835,2.835,0,0,0,0,2.835V337.323a2.834,2.834,0,0,0,2.834,2.834H28.8a2.821,2.821,0,0,0,2.821-2.645q1.662-27.978,28.495-46.363,6.357-4.63,13.26-8.991,25.52-16.164,25.975-33.785,0-9.264-3.27-13.8a24.447,24.447,0,0,0-7.538-6.9,21.829,21.829,0,0,0-10.808-2.361q-6.63,0-10.807,2.543-11.171,6.811-11.807,30.061H33.864q0-22.251,11.807-36.237t33.058-13.986q21.252,0,32.877,13.713,8.993,10.99,8.992,26.247,0,20.073-18.255,35.511A149.716,149.716,0,0,1,84.27,296.508Q74.823,302.5,70.1,306.044q-10.811,8.085-13.169,15.439h63.483v15.84a2.834,2.834,0,0,0,2.835,2.834h40.583a2.834,2.834,0,0,0,2.835-2.834V248.555H134.7V231.844q22.887,0,33.15-11.534a20.3,20.3,0,0,0,4.722-10.081h17.347V337.323a2.834,2.834,0,0,0,2.835,2.834H238.73a2.828,2.828,0,0,0,1.69-5.1q-1.186-.864-2.284-1.812a38.679,38.679,0,0,1-8.719-10.806,62.379,62.379,0,0,1-5.4-13.488,90.062,90.062,0,0,1-2.77-15.258q-.772-7.99-.772-15.984a144.406,144.406,0,0,1,.954-16.483,97.537,97.537,0,0,1,3.223-16.121,70.989,70.989,0,0,1,6.04-14.623,46.737,46.737,0,0,1,9.309-11.9,40.691,40.691,0,0,1,13.124-7.992,48.64,48.64,0,0,1,17.483-2.906,38.9,38.9,0,0,1,26.337,10.081,37.1,37.1,0,0,1,8.356,11.215,35.807,35.807,0,0,1,3.542,14.214H287.678a24.078,24.078,0,0,0-1.726-6.9,19.219,19.219,0,0,0-3.633-5.722,16.475,16.475,0,0,0-5.4-3.859,16.756,16.756,0,0,0-6.948-1.408q-16.8,0-22.978,15.893a76.706,76.706,0,0,0-4.268,16.847,129.7,129.7,0,0,0-1.272,18.119q0,6.63.591,12.941t1.589,12.125a55.811,55.811,0,0,0,2.543,9.309,27.225,27.225,0,0,0,4.314,7.721,19.031,19.031,0,0,0,6.63,5.221,21.65,21.65,0,0,0,9.49,1.908,22.694,22.694,0,0,0,10.445-2.271,21.676,21.676,0,0,0,7.356-5.994,25.091,25.091,0,0,0,4.315-8.673,37.228,37.228,0,0,0,1.407-10.218,35.5,35.5,0,0,0-1.453-10.217,24.811,24.811,0,0,0-4.36-8.492,21,21,0,0,0-7.265-5.766,22.878,22.878,0,0,0-10.172-2.135,22.644,22.644,0,0,0-10.263,2.271,21.745,21.745,0,0,0-7.992,7.174q-.273-4.086-.272-8.083,0-2.814.136-5.5t.318-5.4a29.09,29.09,0,0,1,9.945-5.4,43.471,43.471,0,0,1,29.153,1.634,37.2,37.2,0,0,1,12.669,9.264,41.007,41.007,0,0,1,7.947,13.759,51,51,0,0,1,2.77,16.983,50.214,50.214,0,0,1-3.133,18.028,41.852,41.852,0,0,1-8.809,14.168,38.189,38.189,0,0,1-5.185,4.525,2.829,2.829,0,0,0,1.677,5.112h41.482a2.835,2.835,0,0,0,2.835-2.834V2.834A2.835,2.835,0,0,0,337.323,0Z"/>
      </g>
    </g>
</svg>
