<svg xmlns="http://www.w3.org/2000/svg" width="120.001mm" height="119.997mm" viewBox="0 0 340.16 340.149">
  <g id="Zimmernummer">
      <g id="Z-03-207-E">
        <path fill="#A09f9d" stroke="none" d="M0,2.835v334.48a2.834,2.834,0,0,0,2.835,2.834H24.5a2.835,2.835,0,0,0,2.832-2.722c.032-.782.068-1.536.1-1.956a51.379,51.379,0,0,1,7.594-23.486,71.506,71.506,0,0,1,20.859-21.05q6.33-4.65,13.22-9.03a104.45,104.45,0,0,0,12.66-9.4,50.18,50.18,0,0,0,9.5-10.89,25.936,25.936,0,0,0,3.91-13.5,36.955,36.955,0,0,0-.84-7.55,20,20,0,0,0-3.26-7.44,19.276,19.276,0,0,0-6.7-5.78A22.934,22.934,0,0,0,73.7,225.028a20.812,20.812,0,0,0-11.028,2.507,18.854,18.854,0,0,0-6.7,6.89,34.094,34.094,0,0,0-3.72,10.33,74.131,74.131,0,0,0-1.4,12.85H29.623a66.466,66.466,0,0,1,2.89-20.01,44.187,44.187,0,0,1,8.66-15.92,40.283,40.283,0,0,1,13.919-10.53,47.035,47.035,0,0,1,20.2-3.805c6.52.072,13.218,1.015,19.13,3.905a38.111,38.111,0,0,1,12.94,9.87,36.112,36.112,0,0,1,6.99,12.94c2.6,8.882,2.978,18.713-.38,27.46a45.357,45.357,0,0,1-6.51,11.64,66.6,66.6,0,0,1-9.31,9.78q-5.22,4.47-10.8,8.38t-11.18,7.44q-5.58,3.54-10.33,7.08a60.319,60.319,0,0,0-8.29,7.36,20.8,20.8,0,0,0-4.84,8.1h63.5v16.02a2.834,2.834,0,0,0,2.835,2.834h29.581a1.283,1.283,0,0,0,.65-2.373c-.61-.371-1.2-.761-1.772-1.181a44.12,44.12,0,0,1-13.779-16.39,72.826,72.826,0,0,1-6.7-21.88,155.565,155.565,0,0,1,0-46.18,73,73,0,0,1,6.7-21.88,44.088,44.088,0,0,1,13.779-16.38q7.56-5.49,18.861-6.27a1.282,1.282,0,0,1,1.37,1.29v15.27a1.282,1.282,0,0,1-1.051,1.28,15.793,15.793,0,0,0-8.009,3.7,27.554,27.554,0,0,0-7.26,10.89,66.026,66.026,0,0,0-3.821,15.92,159.946,159.946,0,0,0,0,38.64,64.662,64.662,0,0,0,3.821,15.92c2.278,5.732,6.208,11.573,12.257,13.732,5.963,2.128,13.319,1.256,18.182-2.932a27.067,27.067,0,0,0,7.361-10.8,64.71,64.71,0,0,0,3.819-15.92,159.9,159.9,0,0,0,0-38.64c-1.175-9.435-3.632-20.331-11.18-26.81a16.14,16.14,0,0,0-7.874-3.68,1.346,1.346,0,0,1-1.095-1.27v-15.3a1.287,1.287,0,0,1,1.369-1.29q11.3.8,18.871,6.27a44.194,44.194,0,0,1,13.78,16.38,73.26,73.26,0,0,1,6.7,21.88,156.78,156.78,0,0,1,0,46.18,73.082,73.082,0,0,1-6.7,21.88,44.225,44.225,0,0,1-13.78,16.39c-.569.419-1.168.808-1.766,1.177a1.284,1.284,0,0,0,.643,2.377h44.743a2.3,2.3,0,0,0,2.294-2.173c0-.076.008-.139.012-.182a155.7,155.7,0,0,1,5.11-28.049,187.1,187.1,0,0,1,10.8-29.241,201.135,201.135,0,0,1,15.36-27.18,231.646,231.646,0,0,1,18.8-24.4h-67.59v-18.99h89.19v17.69a234.308,234.308,0,0,0-18.62,23.929,174.609,174.609,0,0,0-14.61,26.25,177.873,177.873,0,0,0-10.15,29.331,189.592,189.592,0,0,0-5.013,30.567h0a2.263,2.263,0,0,0,2.255,2.447h73.277a2.3,2.3,0,0,0,2.3-2.3V2.835A2.835,2.835,0,0,0,337.325,0H2.835A2.835,2.835,0,0,0,0,2.835Z"/>
      </g>
    </g>
</svg>
