<svg xmlns="http://www.w3.org/2000/svg" width="120mm" height="120mm" viewBox="0 0 340.157 340.157">
  <g id="Zimmernummer">
      <g id="Z-03-143-R">
        <path fill="#A0552B" stroke="none" d="M337.323,0H2.835A2.835,2.835,0,0,0,0,2.835V337.323a2.834,2.834,0,0,0,2.834,2.834H63.108a2.834,2.834,0,0,0,2.834-2.834V248.25H33.974V231.539q22.886,0,33.149-11.535a20.3,20.3,0,0,0,4.723-10.081H89.192v127.4a2.834,2.834,0,0,0,2.835,2.834h66.831a2.834,2.834,0,0,0,2.834-2.834V235.262h-.454L122.186,292.57h32.695v16.711H105.838V288.3l55.854-78.378h20.072V292.57h16.711v16.711H181.764v28.042a2.834,2.834,0,0,0,2.834,2.834h45.149a2.835,2.835,0,0,0,1.6-5.172q-9.387-6.654-13.984-18.984a57.907,57.907,0,0,1-3.179-18.618h21.252q-.273,11.9,5.9,19.8t17.71,7.9q11.534,0,18.709-5.994t7.175-17.256q0-13.623-10.807-18.89-7.629-3.725-23.25-3.27v-15.8q19.344.635,26.337-10.354,2.452-4.087,2.453-11.262a15.677,15.677,0,0,0-5.631-12.17,18.7,18.7,0,0,0-12.9-5.085q-17.709-.09-22.16,16.892a32.545,32.545,0,0,0-1.09,9.718H216.635q.726-18.981,12.17-31.606t30.97-12.624a47.984,47.984,0,0,1,28.7,8.992q12.443,9.081,12.443,25.793,0,21.342-18.437,27.881v.364a27.2,27.2,0,0,1,17.437,11.08,33.6,33.6,0,0,1,6.267,19.8Q306.093,321,292.561,331.9a48.982,48.982,0,0,1-4.245,3.062,2.828,2.828,0,0,0,1.546,5.2h47.461a2.834,2.834,0,0,0,2.834-2.834V2.834A2.834,2.834,0,0,0,337.323,0Z"/>
      </g>
    </g>
</svg>
