<svg xmlns="http://www.w3.org/2000/svg" width="120mm" height="120mm" viewBox="0 0 340.157 340.157">
  <g id="Zimmernummer">
      <g id="Z-03-063">
        <path fill="#000000" stroke="none" d="M337.323,0H2.834A2.834,2.834,0,0,0,0,2.834V337.323a2.834,2.834,0,0,0,2.834,2.834h133.6a2.836,2.836,0,0,0,1.6-5.175q-1.356-.966-2.619-2.054a38.7,38.7,0,0,1-8.719-10.806,62.428,62.428,0,0,1-5.4-13.488,89.847,89.847,0,0,1-2.77-15.258q-.774-7.99-.772-15.984a144.4,144.4,0,0,1,.953-16.483,97.435,97.435,0,0,1,3.224-16.121,71,71,0,0,1,6.04-14.622,46.72,46.72,0,0,1,9.309-11.9,40.7,40.7,0,0,1,13.123-7.992,48.64,48.64,0,0,1,17.483-2.906,38.91,38.91,0,0,1,26.338,10.081,37.109,37.109,0,0,1,8.356,11.216,35.835,35.835,0,0,1,3.542,14.213H184.954a24.11,24.11,0,0,0-1.726-6.9,19.219,19.219,0,0,0-3.633-5.722,16.489,16.489,0,0,0-5.4-3.859,16.748,16.748,0,0,0-6.947-1.408q-16.8,0-22.978,15.893A76.72,76.72,0,0,0,140,257.729a129.7,129.7,0,0,0-1.272,18.119q0,6.63.59,12.942t1.59,12.125a55.826,55.826,0,0,0,2.543,9.308,27.225,27.225,0,0,0,4.314,7.721,19.046,19.046,0,0,0,6.63,5.222,21.658,21.658,0,0,0,9.49,1.907,22.7,22.7,0,0,0,10.445-2.271,21.662,21.662,0,0,0,7.356-5.994A25.089,25.089,0,0,0,186,308.135a37.19,37.19,0,0,0,1.408-10.218,35.535,35.535,0,0,0-1.453-10.217,24.846,24.846,0,0,0-4.36-8.492,21,21,0,0,0-7.265-5.766,22.878,22.878,0,0,0-10.172-2.135,22.641,22.641,0,0,0-10.263,2.271,21.738,21.738,0,0,0-7.992,7.174q-.273-4.086-.273-8.083,0-2.814.137-5.5t.318-5.4a29.1,29.1,0,0,1,9.944-5.4A43.473,43.473,0,0,1,185.181,258a37.2,37.2,0,0,1,12.669,9.264,41.024,41.024,0,0,1,7.947,13.759,51,51,0,0,1,2.77,16.983,50.236,50.236,0,0,1-3.133,18.028,41.855,41.855,0,0,1-8.81,14.168,38.333,38.333,0,0,1-5.6,4.827,2.83,2.83,0,0,0,1.66,5.126h43.452a2.835,2.835,0,0,0,1.6-5.172q-9.4-6.657-14-18.994a57.917,57.917,0,0,1-3.179-18.618h21.252q-.273,11.9,5.9,19.8t17.71,7.9q11.533,0,18.709-5.994t7.175-17.256q0-13.623-10.807-18.891-7.629-3.723-23.25-3.269v-15.8q19.344.636,26.337-10.354,2.452-4.086,2.453-11.261a15.674,15.674,0,0,0-5.631-12.17,18.69,18.69,0,0,0-12.9-5.086q-17.709-.09-22.16,16.892a32.545,32.545,0,0,0-1.09,9.718H223.007q.726-18.981,12.17-31.6t30.97-12.624a47.989,47.989,0,0,1,28.7,8.991q12.442,9.083,12.443,25.793,0,21.342-18.437,27.882v.363a27.209,27.209,0,0,1,17.438,11.08,33.613,33.613,0,0,1,6.266,19.8q-.091,19.708-13.623,30.606a48.909,48.909,0,0,1-4.261,3.072,2.828,2.828,0,0,0,1.546,5.2h41.1a2.834,2.834,0,0,0,2.834-2.834V2.834A2.834,2.834,0,0,0,337.323,0Z"/>
      </g>
    </g>
</svg>
