<svg xmlns="http://www.w3.org/2000/svg" width="120mm" height="120mm" viewBox="0 0 340.157 340.157">
  <g id="Zimmernummer">
      <g id="Z-03-314-R">
        <path fill="#A0552B" stroke="none" d="M337.323,0H2.834A2.834,2.834,0,0,0,0,2.834V337.323a2.834,2.834,0,0,0,2.834,2.834H49.1a2.828,2.828,0,0,0,1.673-5.111q-9.016-6.613-13.5-18.6A57.879,57.879,0,0,1,34.1,297.827H55.354q-.271,11.9,5.9,19.8t17.71,7.9q11.532,0,18.709-5.994t7.175-17.256q0-13.623-10.808-18.89-7.629-3.724-23.25-3.27v-15.8q19.344.636,26.338-10.353,2.452-4.088,2.452-11.262a15.674,15.674,0,0,0-5.631-12.17,18.694,18.694,0,0,0-12.9-5.086q-17.711-.087-22.161,16.893a32.576,32.576,0,0,0-1.089,9.719H36.555q.726-18.982,12.17-31.606t30.969-12.625a47.993,47.993,0,0,1,28.7,8.992q12.441,9.083,12.442,25.793,0,21.344-18.437,27.881v.364a27.206,27.206,0,0,1,17.438,11.08,33.6,33.6,0,0,1,6.266,19.8q-.091,19.709-13.623,30.608-1.746,1.406-3.586,2.629a2.829,2.829,0,0,0,1.564,5.189h56.59a2.834,2.834,0,0,0,2.834-2.834V248.692H137.914V231.981q22.886,0,33.149-11.533a20.3,20.3,0,0,0,4.723-10.082h17.346V337.323a2.834,2.834,0,0,0,2.835,2.834h74.271a2.834,2.834,0,0,0,2.835-2.834V235.706h-.454l-39.053,57.307h32.7v16.711H217.218V288.745l55.855-78.379h20.071v82.647h16.711v16.711H293.144v27.6a2.834,2.834,0,0,0,2.835,2.834h41.344a2.834,2.834,0,0,0,2.834-2.834V2.834A2.834,2.834,0,0,0,337.323,0Z"/>
      </g>
    </g>
</svg>
