<svg xmlns="http://www.w3.org/2000/svg" width="120mm" height="120mm" viewBox="0 0 340.157 340.157">
  <g id="Zimmernummer">
      <g id="Z-03-523-R">
        <path fill="#A0552B" stroke="none" d="M337.323,0H2.834A2.834,2.834,0,0,0,0,2.834V337.323a2.834,2.834,0,0,0,2.834,2.834H36.367a2.831,2.831,0,0,0,1.525-5.215,40.862,40.862,0,0,1-3.317-2.413Q21.856,322.266,21.134,303.1h21.16q.908,10.717,7.265,16.348t16.711,5.631q23.8,0,24.25-28.609,0-18.344-13.715-24.975a24.5,24.5,0,0,0-11.08-2.18q-16.62,0-20.978,11.9H23.5l13.986-71.294h67.3V228.9H53.284l-6.721,33.149.364.364q8.807-9.9,25.611-9.9a39.5,39.5,0,0,1,15.711,3.27q14.985,6.448,20.707,22.977a50.891,50.891,0,0,1,2.724,16.529q0,18.711-10.535,31.969a42.765,42.765,0,0,1-8.054,7.8,2.839,2.839,0,0,0,1.728,5.1h27.66A2.822,2.822,0,0,0,125.3,337.5q1.534-28.176,28.519-46.656,6.357-4.632,13.26-8.991,25.52-16.164,25.974-33.785,0-9.264-3.269-13.805a24.445,24.445,0,0,0-7.537-6.9A21.828,21.828,0,0,0,171.44,225q-6.63,0-10.806,2.543-11.172,6.811-11.807,30.061H127.575q0-22.251,11.807-36.237t33.058-13.987q21.252,0,32.877,13.714,8.991,10.989,8.99,26.247,0,20.073-18.254,35.511A149.6,149.6,0,0,1,177.979,296.2q-9.446,5.994-14.168,9.536Q153,313.82,150.643,321.176h63.483v16.147a2.834,2.834,0,0,0,2.834,2.834h25.629a2.835,2.835,0,0,0,1.6-5.172Q234.8,328.331,230.2,316a57.918,57.918,0,0,1-3.18-18.619h21.252q-.272,11.9,5.9,19.8t17.709,7.9q11.535,0,18.709-6t7.176-17.255q0-13.623-10.808-18.891-7.629-3.724-23.25-3.27v-15.8q19.344.634,26.338-10.354,2.451-4.086,2.453-11.262a15.674,15.674,0,0,0-5.631-12.17,18.7,18.7,0,0,0-12.9-5.085q-17.709-.09-22.16,16.892a32.512,32.512,0,0,0-1.09,9.718H229.475q.728-18.981,12.17-31.606t30.969-12.624a47.981,47.981,0,0,1,28.7,8.992q12.442,9.081,12.444,25.793,0,21.342-18.438,27.881v.364a27.205,27.205,0,0,1,17.438,11.08,33.612,33.612,0,0,1,6.267,19.8q-.09,19.707-13.623,30.606a48.838,48.838,0,0,1-4.248,3.064,2.828,2.828,0,0,0,1.546,5.2h34.624a2.834,2.834,0,0,0,2.834-2.834V2.834A2.834,2.834,0,0,0,337.323,0Z"/>
      </g>
    </g>
</svg>
