<svg xmlns="http://www.w3.org/2000/svg" width="120mm" height="120mm" viewBox="0 0 340.157 340.157">
  <g id="Zimmernummer">
      <g id="Z-03-501">
        <path fill="#000000" stroke="none" d="M337.323,0H2.835A2.835,2.835,0,0,0,0,2.835V337.323a2.834,2.834,0,0,0,2.834,2.834h51.7a2.831,2.831,0,0,0,1.525-5.215,40.824,40.824,0,0,1-3.318-2.414Q40.021,322.267,39.3,303.1H60.457q.906,10.716,7.265,16.347t16.711,5.631q23.795,0,24.249-28.608,0-18.345-13.713-24.976a24.525,24.525,0,0,0-11.081-2.18q-16.62,0-20.979,11.9H41.657l13.986-71.294h67.3V228.9H71.446l-6.721,33.15.364.363q8.808-9.9,25.611-9.9a39.5,39.5,0,0,1,15.712,3.269q14.985,6.45,20.707,22.978a50.892,50.892,0,0,1,2.725,16.529q0,18.485-10.284,31.649a2.927,2.927,0,0,1-.579.56l-10.254,7.538a2.834,2.834,0,0,0,1.679,5.118h51.163a2.835,2.835,0,0,0,1.7-5.1,38.064,38.064,0,0,1-3.631-3.208,42.9,42.9,0,0,1-8.22-11.761,75.536,75.536,0,0,1-5.131-14.3,105.29,105.29,0,0,1-2.68-15.531q-.771-7.945-.771-15.484,0-6.995.681-14.532a106.069,106.069,0,0,1,2.407-14.849,78.463,78.463,0,0,1,4.677-13.941,44.291,44.291,0,0,1,7.583-11.76,37.77,37.77,0,0,1,11.081-8.4,38.573,38.573,0,0,1,15.167-3.814v17.8q-20.436,3.36-20.435,49.769,0,3.906.182,9.173a103.982,103.982,0,0,0,.954,10.808,79.632,79.632,0,0,0,2.315,10.944,37.6,37.6,0,0,0,4.178,9.627,22.089,22.089,0,0,0,6.63,6.856,17.089,17.089,0,0,0,9.627,2.634q23.7,0,23.7-50.042,0-46.227-20.344-49.769v-17.8a38.582,38.582,0,0,1,15.167,3.814,36.825,36.825,0,0,1,11.035,8.446,46.688,46.688,0,0,1,7.583,11.807,76.373,76.373,0,0,1,4.723,13.942,106.473,106.473,0,0,1,2.407,14.848q.679,7.54.681,14.531,0,7.629-.773,15.667a100.269,100.269,0,0,1-2.724,15.576,74.931,74.931,0,0,1-5.222,14.213,42.752,42.752,0,0,1-8.31,11.67,37.788,37.788,0,0,1-3.487,3.062,2.837,2.837,0,0,0,1.687,5.112h60.772a2.834,2.834,0,0,0,2.835-2.834V248.247H245.643V231.536q22.887,0,33.15-11.534a20.289,20.289,0,0,0,4.722-10.081h17.347v127.4a2.834,2.834,0,0,0,2.835,2.834h33.626a2.834,2.834,0,0,0,2.834-2.834V2.834A2.834,2.834,0,0,0,337.323,0Z"/>
      </g>
    </g>
</svg>
