<svg xmlns="http://www.w3.org/2000/svg" width="120.001mm" height="120.001mm" viewBox="0 0 340.16 340.16">
  <g id="Zimmernummer">
      <g id="Z-03-020-M">
        <path fill="#D4AF37" stroke="none" d="M337.325,0H2.834A2.834,2.834,0,0,0,0,2.834V337.325a2.835,2.835,0,0,0,2.835,2.835H114.664a2.837,2.837,0,0,0,2.833-2.727c.024-.632.05-1.217.076-1.548a51.593,51.593,0,0,1,7.627-23.9,71.493,71.493,0,0,1,20.86-21.04q6.33-4.65,13.22-9.03a105.513,105.513,0,0,0,12.66-9.4,50.251,50.251,0,0,0,9.5-10.9,25.936,25.936,0,0,0,3.91-13.5,36.862,36.862,0,0,0-.84-7.54,20.061,20.061,0,0,0-3.26-7.45,19.356,19.356,0,0,0-6.7-5.77q-4.29-2.325-11.18-2.33a20.133,20.133,0,0,0-10.52,2.52,18.777,18.777,0,0,0-6.7,6.89,34.094,34.094,0,0,0-3.72,10.33,74.131,74.131,0,0,0-1.4,12.85H119.8a66.533,66.533,0,0,1,2.89-20.02,44.354,44.354,0,0,1,8.66-15.92,40.786,40.786,0,0,1,14.06-10.52,45.668,45.668,0,0,1,19.27-3.82q11.91,0,19.92,3.91a38.364,38.364,0,0,1,12.94,9.87,36.279,36.279,0,0,1,6.99,12.94,47.552,47.552,0,0,1,2.04,13.32,39.227,39.227,0,0,1-2.42,14.15,45.524,45.524,0,0,1-6.51,11.64,66.013,66.013,0,0,1-9.31,9.77q-5.22,4.47-10.8,8.38-5.595,3.915-11.18,7.45t-10.33,7.08a60.942,60.942,0,0,0-8.29,7.35,20.948,20.948,0,0,0-4.84,8.1H205.1a1.294,1.294,0,0,1,1.29,1.29v14.745a2.843,2.843,0,0,0,2.834,2.835h36a1.286,1.286,0,0,0,.68-2.38c-.61-.37-1.2-.76-1.77-1.18a44.044,44.044,0,0,1-13.78-16.39,73.122,73.122,0,0,1-6.71-21.88,151.492,151.492,0,0,1,0-46.18,73.3,73.3,0,0,1,6.71-21.88,44.091,44.091,0,0,1,13.78-16.38q7.545-5.49,18.86-6.27a1.293,1.293,0,0,1,1.37,1.29v15.27a1.365,1.365,0,0,1-1.123,1.292,15.777,15.777,0,0,0-7.937,3.688,27.554,27.554,0,0,0-7.26,10.89,65.562,65.562,0,0,0-3.82,15.92,156.205,156.205,0,0,0-1.12,19.27,158.461,158.461,0,0,0,1.12,19.37,64.216,64.216,0,0,0,3.82,15.92,27.636,27.636,0,0,0,7.26,10.8,18.791,18.791,0,0,0,23.18,0,27.177,27.177,0,0,0,7.36-10.8,64.232,64.232,0,0,0,3.81-15.92,158.461,158.461,0,0,0,1.12-19.37,156.205,156.205,0,0,0-1.12-19.27,65.575,65.575,0,0,0-3.81-15.92,27.1,27.1,0,0,0-7.36-10.89,16.156,16.156,0,0,0-7.94-3.69,1.269,1.269,0,0,1-1.03-1.26v-15.3a1.293,1.293,0,0,1,1.37-1.29q11.3.8,18.87,6.27a44.184,44.184,0,0,1,13.78,16.38,73.58,73.58,0,0,1,6.7,21.88,151.492,151.492,0,0,1,0,46.18,73.4,73.4,0,0,1-6.7,21.88,44.137,44.137,0,0,1-13.78,16.39c-.568.411-1.146.794-1.742,1.157a1.291,1.291,0,0,0,.652,2.4h48.665a2.835,2.835,0,0,0,2.835-2.835V2.835A2.835,2.835,0,0,0,337.325,0Z"/>
      </g>
    </g>
</svg>
