<svg xmlns="http://www.w3.org/2000/svg" width="120mm" height="120mm" viewBox="0 0 340.158 340.157">
  <g id="Zimmernummer">
      <g id="Z-03-538-E">
        <path fill="#A09f9d" stroke="none" d="M337.323,0H2.835A2.835,2.835,0,0,0,0,2.835V337.323a2.834,2.834,0,0,0,2.834,2.834H36.367a2.831,2.831,0,0,0,1.524-5.215q-1.72-1.125-3.316-2.412Q21.861,322.267,21.134,303.1H42.3q.9,10.718,7.266,16.348t16.71,5.631q23.793,0,24.249-28.61,0-18.342-13.713-24.974a24.486,24.486,0,0,0-11.08-2.18q-16.621,0-20.981,11.9H23.5l13.986-71.293h67.3V228.9h-51.5l-6.721,33.15.364.364q8.809-9.9,25.611-9.9a39.51,39.51,0,0,1,15.713,3.27q14.985,6.45,20.707,22.978a50.888,50.888,0,0,1,2.725,16.529q0,18.484-10.283,31.649a2.965,2.965,0,0,1-.58.561l-10.252,7.536a2.834,2.834,0,0,0,1.678,5.118h46.989a2.835,2.835,0,0,0,1.6-5.172q-9.389-6.654-13.986-18.985a57.909,57.909,0,0,1-3.178-18.619h21.252q-.273,11.9,5.9,19.8t17.711,7.9q11.532,0,18.709-6t7.174-17.255q0-13.625-10.807-18.891-7.629-3.725-23.25-3.27v-15.8q19.345.635,26.338-10.354,2.453-4.086,2.451-11.262a15.675,15.675,0,0,0-5.63-12.17,18.692,18.692,0,0,0-12.9-5.085q-17.71-.092-22.16,16.892a32.607,32.607,0,0,0-1.09,9.717H126.122q.726-18.981,12.17-31.606t30.971-12.623a47.987,47.987,0,0,1,28.7,8.991q12.443,9.081,12.441,25.793,0,21.342-18.435,27.882v.364a27.2,27.2,0,0,1,17.437,11.08,33.6,33.6,0,0,1,6.266,19.8q-.09,19.547-13.4,30.426a3.012,3.012,0,0,1-.468.314l-5.161,2.8a2.835,2.835,0,0,0,1.354,5.325h45.829a2.834,2.834,0,0,0,1.323-5.341l-4.309-2.275a3.018,3.018,0,0,1-.525-.35,36.466,36.466,0,0,1-9.654-12.6,41.061,41.061,0,0,1-3.633-17.755,36.583,36.583,0,0,1,1.68-11.354,31.191,31.191,0,0,1,4.768-9.264,29.034,29.034,0,0,1,7.539-6.947,32.949,32.949,0,0,1,9.9-4.223v-.363a26.968,26.968,0,0,1-18.435-26.793,38.863,38.863,0,0,1,2.724-15.121,29.346,29.346,0,0,1,7.674-10.853,34.839,34.839,0,0,1,11.762-6.721,52.712,52.712,0,0,1,14.984-2.725v16.8a20.717,20.717,0,0,0-12.488,6.312q-4.585,5.04-4.586,13.305,0,8.173,4.5,13.123t12.578,5.949v16.166a26.867,26.867,0,0,0-8.764,2.27,21.288,21.288,0,0,0-6.72,4.77,21.062,21.062,0,0,0-4.315,6.992,27.368,27.368,0,0,0,.319,18.982,21.847,21.847,0,0,0,5.131,7.492,22.129,22.129,0,0,0,7.81,4.723,30.787,30.787,0,0,0,19.8,0,22.6,22.6,0,0,0,7.855-4.723,21.47,21.47,0,0,0,5.178-7.539,27.863,27.863,0,0,0,.363-19.025,19.7,19.7,0,0,0-4.314-6.949,22.428,22.428,0,0,0-6.721-4.723,26.543,26.543,0,0,0-8.808-2.27V262.961q8.082-1,12.533-5.857t4.449-13.033q0-8.265-4.5-13.442t-12.486-6.357v-16.8a51.242,51.242,0,0,1,15.847,2.953,33.4,33.4,0,0,1,11.67,7.129,29.762,29.762,0,0,1,7.176,10.9,39.883,39.883,0,0,1,2.451,14.439,28.8,28.8,0,0,1-4.678,16.485,27.458,27.458,0,0,1-13.757,10.308v.363a33.154,33.154,0,0,1,9.761,4.178,30.121,30.121,0,0,1,12.4,15.621,31.579,31.579,0,0,1,1.724,10.535,45.233,45.233,0,0,1-3.451,18.254,37.446,37.446,0,0,1-9.582,13.307,42.553,42.553,0,0,1-3.98,3.067,2.83,2.83,0,0,0,1.628,5.15h33.684a2.835,2.835,0,0,0,2.835-2.835V2.835A2.835,2.835,0,0,0,337.323,0Z"/>
      </g>
    </g>
</svg>
