<svg xmlns="http://www.w3.org/2000/svg" width="120mm" height="120mm" viewBox="0 0 340.157 340.158">
  <g id="Zimmernummer">
      <g id="Z-03-142-E">
        <path fill="#A09f9d" stroke="none" d="M337.323,0H2.835A2.835,2.835,0,0,0,0,2.835V337.323a2.835,2.835,0,0,0,2.835,2.835H63.789a2.835,2.835,0,0,0,2.835-2.835V248.25H34.655V231.54q22.887,0,33.149-11.535a20.3,20.3,0,0,0,4.723-10.081H89.874v127.4a2.834,2.834,0,0,0,2.834,2.835h70.551a2.835,2.835,0,0,0,2.835-2.835V235.263h-.454l-39.053,57.308h32.7v16.711H110.239V288.3l55.855-78.378h20.071v82.647h16.711v16.711H186.165v28.041A2.835,2.835,0,0,0,189,340.158h24.674A2.821,2.821,0,0,0,216.5,337.5q1.539-28.175,28.521-46.654,6.356-4.632,13.259-8.991,25.521-16.164,25.975-33.785,0-9.264-3.27-13.8a24.425,24.425,0,0,0-7.538-6.9A21.822,21.822,0,0,0,262.636,225q-6.632,0-10.808,2.543-11.171,6.811-11.807,30.062H218.77q0-22.251,11.806-36.237t33.059-13.987q21.252,0,32.877,13.714,8.991,10.989,8.991,26.247,0,20.073-18.255,35.511A149.744,149.744,0,0,1,269.175,296.2q-9.447,5.994-14.168,9.536-10.809,8.084-13.169,15.439h63.483v16.144a2.835,2.835,0,0,0,2.835,2.835h29.167a2.834,2.834,0,0,0,2.834-2.835V2.834A2.834,2.834,0,0,0,337.323,0Z"/>
      </g>
    </g>
</svg>
