<svg xmlns="http://www.w3.org/2000/svg" width="120mm" height="120mm" viewBox="0 0 340.157 340.158">
  <g id="Zimmernummer">
      <g id="Z-03-244-R">
        <path fill="#A0552B" stroke="none" d="M337.323,0H2.835A2.835,2.835,0,0,0,0,2.835V337.323a2.835,2.835,0,0,0,2.835,2.835H22.907a2.821,2.821,0,0,0,2.821-2.611c1.363-19.509,10.819-34.664,28.415-46.715Q60.5,286.2,67.4,281.841q25.519-16.165,25.974-33.785,0-9.264-3.269-13.805a24.447,24.447,0,0,0-7.538-6.9,21.818,21.818,0,0,0-10.808-2.362q-6.63,0-10.808,2.543-11.171,6.811-11.806,30.062H27.9q0-22.251,11.807-36.238t33.058-13.986q21.252,0,32.877,13.714,8.991,10.989,8.991,26.247,0,20.073-18.255,35.511A149.658,149.658,0,0,1,78.3,296.19q-9.447,6-14.168,9.537-10.809,8.084-13.169,15.439h63.484v16.157a2.834,2.834,0,0,0,2.834,2.835h54.371a2.834,2.834,0,0,0,2.834-2.835V235.25h-.454L134.98,292.558h32.7v16.711H118.633v-20.98l55.854-78.378h20.071v82.647h16.711v16.711H194.558v28.054a2.835,2.835,0,0,0,2.835,2.835h77.613a2.835,2.835,0,0,0,2.835-2.835V235.25h-.454l-39.053,57.308h32.695v16.711H221.986v-20.98l55.855-78.378h20.071v82.647h16.711v16.711H297.912v28.054a2.835,2.835,0,0,0,2.835,2.835h36.576a2.834,2.834,0,0,0,2.834-2.835V2.835A2.834,2.834,0,0,0,337.323,0Z"/>
      </g>
    </g>
</svg>
