<svg xmlns="http://www.w3.org/2000/svg" width="120mm" height="120mm" viewBox="0 0 340.158 340.158">
  <g id="Zimmernummer">
      <g id="Z-03-639">
        <path fill="#000000" stroke="none" d="M337.323,0H2.835A2.835,2.835,0,0,0,0,2.835V337.323a2.835,2.835,0,0,0,2.835,2.835H39.992a2.834,2.834,0,0,0,1.6-5.167q-1.365-.974-2.617-2.053a38.663,38.663,0,0,1-8.718-10.807,62.385,62.385,0,0,1-5.4-13.486,90.08,90.08,0,0,1-2.769-15.258q-.774-7.992-.772-15.985a144.2,144.2,0,0,1,.954-16.484A97.251,97.251,0,0,1,25.493,244.8a70.936,70.936,0,0,1,6.039-14.621,46.742,46.742,0,0,1,9.309-11.9,40.771,40.771,0,0,1,13.123-7.992,48.679,48.679,0,0,1,17.484-2.906,38.917,38.917,0,0,1,26.338,10.082,37.134,37.134,0,0,1,8.356,11.215,35.819,35.819,0,0,1,3.541,14.215H88.522a24.076,24.076,0,0,0-1.726-6.9,19.2,19.2,0,0,0-3.633-5.722,16.5,16.5,0,0,0-5.4-3.86A16.783,16.783,0,0,0,70.812,225q-16.8,0-22.977,15.9a76.745,76.745,0,0,0-4.27,16.845,130.034,130.034,0,0,0-1.271,18.119q0,6.63.59,12.942t1.59,12.125a55.923,55.923,0,0,0,2.543,9.308,27.187,27.187,0,0,0,4.314,7.721,19.042,19.042,0,0,0,6.629,5.223,21.677,21.677,0,0,0,9.492,1.906,22.692,22.692,0,0,0,10.444-2.27,21.7,21.7,0,0,0,7.357-5.994,25.051,25.051,0,0,0,4.312-8.673,37.108,37.108,0,0,0,1.409-10.217,35.51,35.51,0,0,0-1.453-10.219,24.81,24.81,0,0,0-4.36-8.49,20.98,20.98,0,0,0-7.265-5.768,22.889,22.889,0,0,0-10.172-2.135,22.625,22.625,0,0,0-10.262,2.272,21.738,21.738,0,0,0-7.992,7.174q-.273-4.088-.274-8.082,0-2.815.137-5.5t.318-5.4a29.107,29.107,0,0,1,9.944-5.4,40.208,40.208,0,0,1,12.217-1.772,40.472,40.472,0,0,1,16.937,3.407,37.2,37.2,0,0,1,12.67,9.263,40.993,40.993,0,0,1,7.945,13.76,50.952,50.952,0,0,1,2.772,16.983A50.187,50.187,0,0,1,109,316.045a41.821,41.821,0,0,1-8.809,14.168,38.374,38.374,0,0,1-5.593,4.82,2.829,2.829,0,0,0,1.661,5.125h43.429a2.835,2.835,0,0,0,1.6-5.172Q131.9,328.331,127.3,316a57.906,57.906,0,0,1-3.178-18.617h21.252q-.273,11.9,5.9,19.8t17.711,7.9q11.532,0,18.709-5.994t7.174-17.256q0-13.623-10.807-18.891-7.629-3.723-23.25-3.269v-15.8q19.345.636,26.338-10.353,2.453-4.088,2.451-11.262a15.673,15.673,0,0,0-5.63-12.17,18.688,18.688,0,0,0-12.9-5.086q-17.709-.089-22.16,16.893a32.6,32.6,0,0,0-1.09,9.718H126.575q.728-18.981,12.17-31.605t30.971-12.625a47.992,47.992,0,0,1,28.7,8.992q12.443,9.082,12.441,25.793,0,21.343-18.435,27.881v.363a27.208,27.208,0,0,1,17.437,11.08,33.608,33.608,0,0,1,6.266,19.8Q216.032,321,202.5,331.9a48.474,48.474,0,0,1-4.236,3.05,2.843,2.843,0,0,0,1.579,5.213h43.7a2.831,2.831,0,0,0,1.662-5.122,35.632,35.632,0,0,1-2.831-2.325,37.07,37.07,0,0,1-8.355-11.217,35.752,35.752,0,0,1-3.543-14.213h21.162a24.008,24.008,0,0,0,1.724,6.9,19.232,19.232,0,0,0,3.633,5.722,16.477,16.477,0,0,0,5.4,3.86,16.753,16.753,0,0,0,6.948,1.408q16.8,0,22.978-15.895a76.733,76.733,0,0,0,4.268-16.847,129.966,129.966,0,0,0,1.271-18.118q0-6.629-.59-12.943t-1.589-12.123a56.193,56.193,0,0,0-2.543-9.31,27.257,27.257,0,0,0-4.315-7.719A19.065,19.065,0,0,0,282.2,227a21.671,21.671,0,0,0-9.49-1.906,22.735,22.735,0,0,0-10.445,2.269,21.68,21.68,0,0,0-7.356,6,25.093,25.093,0,0,0-4.314,8.628,36.958,36.958,0,0,0-1.408,10.262,35.446,35.446,0,0,0,1.453,10.217A24.782,24.782,0,0,0,255,270.953a20.961,20.961,0,0,0,7.266,5.768,24.8,24.8,0,0,0,20.435-.137,21.735,21.735,0,0,0,7.992-7.174q.273,4.087.272,8.082,0,2.815-.137,5.494t-.316,5.405a29.162,29.162,0,0,1-9.945,5.4,43.486,43.486,0,0,1-29.155-1.635,37.232,37.232,0,0,1-12.668-9.264,41.02,41.02,0,0,1-7.947-13.759,50.943,50.943,0,0,1-2.77-16.983,50.2,50.2,0,0,1,3.133-18.029,41.866,41.866,0,0,1,8.809-14.168,39.648,39.648,0,0,1,13.67-9.264,45.8,45.8,0,0,1,17.709-3.314,50.794,50.794,0,0,1,17.211,2.635,39.689,39.689,0,0,1,12.623,7.218,38.732,38.732,0,0,1,8.719,10.809,62.454,62.454,0,0,1,5.4,13.486,90.054,90.054,0,0,1,2.769,15.258q.774,7.992.774,15.985a144.836,144.836,0,0,1-.955,16.439,97.451,97.451,0,0,1-3.223,16.166A71,71,0,0,1,308.624,320a46.707,46.707,0,0,1-9.309,11.9,38.014,38.014,0,0,1-3.829,3.079,2.837,2.837,0,0,0,1.584,5.184h40.253a2.834,2.834,0,0,0,2.835-2.834V2.835A2.835,2.835,0,0,0,337.323,0Z"/>
      </g>
    </g>
</svg>
