<svg xmlns="http://www.w3.org/2000/svg" width="120mm" height="120mm" viewBox="0 0 340.158 340.157">
  <g id="Zimmernummer">
      <g id="Z-03-000-E">
        <path fill="#A09f9d" stroke="none" d="M337.323,0H2.834A2.834,2.834,0,0,0,0,2.834V337.323a2.834,2.834,0,0,0,2.834,2.834H235.457a2.834,2.834,0,0,0,1.686-5.108,35.125,35.125,0,0,1-3.643-3.2,42.871,42.871,0,0,1-8.219-11.761,75.469,75.469,0,0,1-5.132-14.3,105.18,105.18,0,0,1-2.679-15.531q-.772-7.946-.772-15.484,0-6.994.681-14.532a106.069,106.069,0,0,1,2.407-14.849,78.463,78.463,0,0,1,4.677-13.941,44.266,44.266,0,0,1,7.583-11.76,37.778,37.778,0,0,1,11.08-8.4,38.565,38.565,0,0,1,15.167-3.814v17.8q-20.435,3.362-20.434,49.77,0,3.906.182,9.173A103.94,103.94,0,0,0,239,295.022a79.614,79.614,0,0,0,2.315,10.945,37.6,37.6,0,0,0,4.178,9.627,22.089,22.089,0,0,0,6.63,6.856,17.089,17.089,0,0,0,9.627,2.634q23.7,0,23.7-50.042,0-46.227-20.344-49.77v-17.8a38.57,38.57,0,0,1,15.167,3.814,36.825,36.825,0,0,1,11.035,8.446,46.688,46.688,0,0,1,7.583,11.807,76.363,76.363,0,0,1,4.723,13.941,106.34,106.34,0,0,1,2.407,14.849q.681,7.539.681,14.531,0,7.629-.772,15.667a100.507,100.507,0,0,1-2.724,15.576,75,75,0,0,1-5.223,14.213,42.731,42.731,0,0,1-8.31,11.67,35.754,35.754,0,0,1-3.513,3.053,2.836,2.836,0,0,0,1.677,5.118h49.487a2.835,2.835,0,0,0,2.835-2.835V2.834A2.834,2.834,0,0,0,337.323,0Z"/>
      </g>
    </g>
</svg>
