<svg xmlns="http://www.w3.org/2000/svg" width="120mm" height="120mm" viewBox="0 0 340.157 340.158">
  <g id="Zimmernummer">
      <g id="Z-03-519-M">
        <path fill="#D4AF37" stroke="none" d="M337.323,0H2.834A2.834,2.834,0,0,0,0,2.834V337.323a2.835,2.835,0,0,0,2.835,2.835H49.8A2.8,2.8,0,0,0,51.311,335a40.92,40.92,0,0,1-3.4-2.467Q35.2,322.268,34.471,303.1H55.632q.908,10.716,7.266,16.347t16.711,5.631q23.793,0,24.249-28.607,0-18.346-13.714-24.977a24.547,24.547,0,0,0-11.08-2.18q-16.62,0-20.98,11.9H36.833l13.986-71.295h67.3V228.9H66.622L59.9,262.053l.363.363q8.808-9.9,25.611-9.9a39.5,39.5,0,0,1,15.712,3.269q14.986,6.448,20.707,22.977a50.87,50.87,0,0,1,2.725,16.529q0,18.712-10.535,31.969a42.822,42.822,0,0,1-8.054,7.8,2.809,2.809,0,0,0,1.616,5.1h54.861a2.806,2.806,0,0,0,2.806-2.806v-89.1H133.745V231.537q22.886,0,33.149-11.533a20.3,20.3,0,0,0,4.723-10.082h17.346v127.43a2.806,2.806,0,0,0,2.807,2.806h38.636a2.8,2.8,0,0,0,1.673-5.05q-1.473-1.116-2.864-2.4a37.07,37.07,0,0,1-8.355-11.217,35.751,35.751,0,0,1-3.542-14.213h21.161a24.011,24.011,0,0,0,1.726,6.9,19.23,19.23,0,0,0,3.632,5.722,16.461,16.461,0,0,0,5.405,3.86,16.748,16.748,0,0,0,6.947,1.408q16.8,0,22.978-15.895a76.789,76.789,0,0,0,4.268-16.847,129.815,129.815,0,0,0,1.272-18.118q0-6.629-.59-12.943t-1.59-12.123a56.1,56.1,0,0,0-2.543-9.31,27.257,27.257,0,0,0-4.315-7.719A19.08,19.08,0,0,0,269.041,227a21.677,21.677,0,0,0-9.492-1.906,22.728,22.728,0,0,0-10.444,2.269,21.671,21.671,0,0,0-7.356,6,25.11,25.11,0,0,0-4.314,8.628,37,37,0,0,0-1.408,10.262,35.446,35.446,0,0,0,1.453,10.217,24.764,24.764,0,0,0,4.359,8.492,20.97,20.97,0,0,0,7.266,5.768,24.8,24.8,0,0,0,20.435-.137,21.743,21.743,0,0,0,7.992-7.174q.272,4.087.272,8.082,0,2.815-.137,5.494t-.317,5.405a29.157,29.157,0,0,1-9.944,5.4,43.486,43.486,0,0,1-29.155-1.635,37.232,37.232,0,0,1-12.668-9.264,41,41,0,0,1-7.947-13.759,50.969,50.969,0,0,1-2.77-16.983A50.2,50.2,0,0,1,218,234.125a41.833,41.833,0,0,1,8.808-14.168,39.634,39.634,0,0,1,13.669-9.264,45.811,45.811,0,0,1,17.71-3.314,50.794,50.794,0,0,1,17.211,2.635,39.689,39.689,0,0,1,12.623,7.218,38.732,38.732,0,0,1,8.719,10.809,62.454,62.454,0,0,1,5.4,13.486,90.352,90.352,0,0,1,2.77,15.258q.771,7.992.772,15.985a144.6,144.6,0,0,1-.954,16.439,97.35,97.35,0,0,1-3.224,16.166A70.994,70.994,0,0,1,295.468,320a46.748,46.748,0,0,1-9.308,11.9,42.12,42.12,0,0,1-3.9,3.139,2.808,2.808,0,0,0,1.58,5.124h53.483a2.834,2.834,0,0,0,2.834-2.835V2.835A2.834,2.834,0,0,0,337.323,0Z"/>
      </g>
    </g>
</svg>
