<svg xmlns="http://www.w3.org/2000/svg" width="120mm" height="120mm" viewBox="0 0 340.157 340.157">
  <g id="Zimmernummer">
      <g id="Z-03-540-M">
        <path fill="#D4AF37" stroke="none" d="M337.323,0H2.834A2.834,2.834,0,0,0,0,2.834V337.323a2.834,2.834,0,0,0,2.834,2.834H36.866a2.831,2.831,0,0,0,1.524-5.215,40.955,40.955,0,0,1-3.316-2.413Q22.359,322.268,21.633,303.1H42.794q.906,10.716,7.266,16.347t16.711,5.631q23.793,0,24.249-28.608,0-18.345-13.714-24.976a24.523,24.523,0,0,0-11.08-2.18q-16.62,0-20.98,11.9H23.994L37.98,209.922h67.3V228.9H53.783l-6.721,33.15.364.363q8.808-9.9,25.611-9.9a39.5,39.5,0,0,1,15.712,3.269q14.985,6.45,20.707,22.978a50.892,50.892,0,0,1,2.725,16.529q0,18.484-10.283,31.649a2.96,2.96,0,0,1-.58.56l-10.252,7.537a2.834,2.834,0,0,0,1.679,5.118h83.172a2.834,2.834,0,0,0,2.835-2.834V235.261H178.3l-39.053,57.307H171.94v16.711H122.9V288.3l55.855-78.378h20.071v82.646h16.711v16.711H198.823v28.044a2.834,2.834,0,0,0,2.835,2.834h45.6a2.835,2.835,0,0,0,1.7-5.1,38.041,38.041,0,0,1-3.63-3.207,42.914,42.914,0,0,1-8.219-11.761,75.536,75.536,0,0,1-5.131-14.3,105.29,105.29,0,0,1-2.68-15.531q-.773-7.946-.772-15.484,0-6.994.682-14.532a106.067,106.067,0,0,1,2.406-14.849,78.465,78.465,0,0,1,4.678-13.941,44.266,44.266,0,0,1,7.583-11.76,37.765,37.765,0,0,1,11.08-8.4,38.565,38.565,0,0,1,15.167-3.814v17.8q-20.434,3.36-20.434,49.769,0,3.906.181,9.173a104.257,104.257,0,0,0,.954,10.808,79.784,79.784,0,0,0,2.316,10.944,37.6,37.6,0,0,0,4.178,9.627,22.074,22.074,0,0,0,6.629,6.856,17.089,17.089,0,0,0,9.627,2.634q23.7,0,23.7-50.042,0-46.227-20.343-49.769v-17.8a38.57,38.57,0,0,1,15.167,3.814,36.838,36.838,0,0,1,11.035,8.446,46.688,46.688,0,0,1,7.583,11.807,76.347,76.347,0,0,1,4.723,13.942,106.473,106.473,0,0,1,2.407,14.848q.68,7.54.68,14.531,0,7.629-.772,15.667a100.27,100.27,0,0,1-2.725,15.576,74.928,74.928,0,0,1-5.221,14.213,42.773,42.773,0,0,1-8.31,11.67,37.885,37.885,0,0,1-3.485,3.061,2.838,2.838,0,0,0,1.687,5.112h37.625a2.834,2.834,0,0,0,2.834-2.834V2.834A2.834,2.834,0,0,0,337.323,0Z"/>
      </g>
    </g>
</svg>
