<svg xmlns="http://www.w3.org/2000/svg" width="120mm" height="120mm" viewBox="0 0 340.157 340.158">
  <g id="Zimmernummer">
      <g id="Z-03-409-R">
        <path fill="#A0552B" stroke="none" d="M337.323,0H2.835A2.835,2.835,0,0,0,0,2.835V337.323a2.835,2.835,0,0,0,2.835,2.835H75.287a2.834,2.834,0,0,0,2.834-2.834V235.262h-.454L38.615,292.568h32.7v16.711H22.267V288.3l55.854-78.379H98.193v82.646H114.9v16.711H98.193v28.045a2.834,2.834,0,0,0,2.834,2.834H146.66a2.834,2.834,0,0,0,1.683-5.11,34.744,34.744,0,0,1-3.65-3.2,42.927,42.927,0,0,1-8.22-11.76,75.59,75.59,0,0,1-5.131-14.305,105.4,105.4,0,0,1-2.68-15.531q-.771-7.946-.771-15.484,0-6.994.682-14.532a105.921,105.921,0,0,1,2.406-14.849,78.452,78.452,0,0,1,4.677-13.94,44.275,44.275,0,0,1,7.584-11.761,37.766,37.766,0,0,1,11.08-8.4,38.556,38.556,0,0,1,15.167-3.814v17.8q-20.434,3.362-20.435,49.77,0,3.906.182,9.172a103.982,103.982,0,0,0,.954,10.808,79.569,79.569,0,0,0,2.315,10.944,37.581,37.581,0,0,0,4.178,9.627,22.092,22.092,0,0,0,6.63,6.857,17.1,17.1,0,0,0,9.627,2.633q23.7,0,23.7-50.041,0-46.227-20.344-49.77v-17.8a38.565,38.565,0,0,1,15.167,3.814A36.822,36.822,0,0,1,202.5,219.73a46.706,46.706,0,0,1,7.583,11.807,76.3,76.3,0,0,1,4.723,13.942,106.511,106.511,0,0,1,2.407,14.849q.679,7.539.681,14.531,0,7.629-.773,15.666A100.282,100.282,0,0,1,214.4,306.1a74.946,74.946,0,0,1-5.222,14.212,42.737,42.737,0,0,1-8.31,11.67,35.6,35.6,0,0,1-3.519,3.055,2.836,2.836,0,0,0,1.675,5.119h43.571a2.831,2.831,0,0,0,1.661-5.123,35.154,35.154,0,0,1-2.833-2.324,37.07,37.07,0,0,1-8.355-11.217,35.751,35.751,0,0,1-3.542-14.213h21.161a24.042,24.042,0,0,0,1.725,6.9,19.252,19.252,0,0,0,3.633,5.722,16.461,16.461,0,0,0,5.405,3.86,16.745,16.745,0,0,0,6.947,1.408q16.8,0,22.977-15.895a76.79,76.79,0,0,0,4.269-16.847,129.814,129.814,0,0,0,1.271-18.118q0-6.629-.589-12.943t-1.59-12.123a56.1,56.1,0,0,0-2.543-9.31,27.281,27.281,0,0,0-4.315-7.719A19.075,19.075,0,0,0,281.245,227a21.669,21.669,0,0,0-9.491-1.906,22.728,22.728,0,0,0-10.444,2.269,21.684,21.684,0,0,0-7.357,6,25.108,25.108,0,0,0-4.313,8.628,36.958,36.958,0,0,0-1.408,10.262,35.446,35.446,0,0,0,1.453,10.217,24.764,24.764,0,0,0,4.359,8.492,20.97,20.97,0,0,0,7.266,5.768,22.858,22.858,0,0,0,10.172,2.134,22.63,22.63,0,0,0,10.262-2.271,21.738,21.738,0,0,0,7.993-7.174q.272,4.087.272,8.082,0,2.815-.137,5.494t-.317,5.405a29.157,29.157,0,0,1-9.944,5.4,43.486,43.486,0,0,1-29.155-1.635,37.245,37.245,0,0,1-12.669-9.264,41.018,41.018,0,0,1-7.946-13.759,50.943,50.943,0,0,1-2.77-16.983,50.224,50.224,0,0,1,3.133-18.029,41.85,41.85,0,0,1,8.809-14.168,39.634,39.634,0,0,1,13.669-9.264,45.807,45.807,0,0,1,17.71-3.314,50.8,50.8,0,0,1,17.211,2.635,39.689,39.689,0,0,1,12.623,7.218,38.732,38.732,0,0,1,8.719,10.809,62.454,62.454,0,0,1,5.4,13.486,90.252,90.252,0,0,1,2.769,15.258q.772,7.992.773,15.985a144.832,144.832,0,0,1-.954,16.439,97.35,97.35,0,0,1-3.224,16.166A71.05,71.05,0,0,1,307.673,320a46.77,46.77,0,0,1-9.308,11.9,38.065,38.065,0,0,1-3.831,3.079,2.836,2.836,0,0,0,1.584,5.184h41.2a2.834,2.834,0,0,0,2.834-2.834V2.835A2.834,2.834,0,0,0,337.323,0Z"/>
      </g>
    </g>
</svg>
