<svg xmlns="http://www.w3.org/2000/svg" width="120mm" height="120mm" viewBox="0 0 340.157 340.157">
  <g id="Zimmernummer">
      <g id="Z-03-115-M">
        <path fill="#D4AF37" stroke="none" d="M337.323,0H2.835A2.835,2.835,0,0,0,0,2.835V337.323a2.834,2.834,0,0,0,2.834,2.834H72.783a2.834,2.834,0,0,0,2.835-2.834V248.556H43.649V231.845q22.887,0,33.15-11.534a20.288,20.288,0,0,0,4.722-10.082H98.868V337.323a2.834,2.834,0,0,0,2.835,2.834h55.833a2.834,2.834,0,0,0,2.835-2.834V248.556H128.4V231.845q22.887,0,33.15-11.534a20.3,20.3,0,0,0,4.722-10.082h17.347V337.323a2.834,2.834,0,0,0,2.835,2.834h38.1a2.835,2.835,0,0,0,1.541-5.21q-1.479-.993-2.862-2.11-12.715-10.263-13.441-29.426h21.161q.906,10.717,7.265,16.348t16.711,5.631q23.794,0,24.249-28.609,0-18.344-13.713-24.975a24.514,24.514,0,0,0-11.081-2.18q-16.62,0-20.979,11.9H212.157l13.986-71.294h67.3v18.982H241.946l-6.721,33.149.364.364q8.808-9.9,25.611-9.9a39.509,39.509,0,0,1,15.712,3.27q14.985,6.45,20.707,22.977a50.894,50.894,0,0,1,2.725,16.53q0,18.71-10.536,31.968a43.133,43.133,0,0,1-7.682,7.528,2.831,2.831,0,0,0,1.756,5.06h53.441a2.834,2.834,0,0,0,2.834-2.834V2.834A2.834,2.834,0,0,0,337.323,0Z"/>
      </g>
    </g>
</svg>
