<svg xmlns="http://www.w3.org/2000/svg" width="120mm" height="120mm" viewBox="0 0 340.157 340.157">
  <g id="Zimmernummer">
      <g id="Z-03-516-E">
        <path fill="#A09f9d" stroke="none" d="M337.323,0H2.834A2.834,2.834,0,0,0,0,2.834V337.323a2.834,2.834,0,0,0,2.834,2.834H49.705a2.831,2.831,0,0,0,1.524-5.215,40.78,40.78,0,0,1-3.316-2.413Q35.2,322.268,34.471,303.1H55.632q.908,10.716,7.266,16.347t16.711,5.631q23.793,0,24.249-28.609,0-18.344-13.714-24.975a24.493,24.493,0,0,0-11.08-2.18q-16.62,0-20.98,11.9H36.833l13.986-71.293h67.3V228.9H66.622L59.9,262.053l.363.363q8.808-9.9,25.611-9.9a39.5,39.5,0,0,1,15.712,3.269q14.986,6.452,20.707,22.979a50.861,50.861,0,0,1,2.725,16.529q0,18.483-10.283,31.649a2.954,2.954,0,0,1-.579.56L103.9,335.039a2.834,2.834,0,0,0,1.679,5.118h57.3a2.834,2.834,0,0,0,2.834-2.834V248.248H133.745V231.537q22.886,0,33.149-11.535a20.3,20.3,0,0,0,4.723-10.08h17.346v127.4a2.834,2.834,0,0,0,2.835,2.834h42.7a2.835,2.835,0,0,0,1.4-5.3l-3.106-1.77a3.02,3.02,0,0,1-.5-.355,38.68,38.68,0,0,1-8.486-10.6,62.4,62.4,0,0,1-5.4-13.488,90.08,90.08,0,0,1-2.77-15.258q-.773-7.989-.772-15.985a144.16,144.16,0,0,1,.954-16.482,97.413,97.413,0,0,1,3.223-16.121,71.012,71.012,0,0,1,6.04-14.623,46.719,46.719,0,0,1,9.309-11.9,40.714,40.714,0,0,1,13.123-7.992A48.671,48.671,0,0,1,265,207.379a38.923,38.923,0,0,1,26.337,10.08,37.11,37.11,0,0,1,8.356,11.217,35.8,35.8,0,0,1,3.542,14.213H282.073a24.092,24.092,0,0,0-1.726-6.9,19.209,19.209,0,0,0-3.633-5.72,16.457,16.457,0,0,0-5.4-3.86A16.748,16.748,0,0,0,264.363,225q-16.8,0-22.978,15.893a76.734,76.734,0,0,0-4.268,16.847,129.709,129.709,0,0,0-1.272,18.119q0,6.63.59,12.942t1.59,12.125a55.826,55.826,0,0,0,2.543,9.308,27.239,27.239,0,0,0,4.314,7.721,19.06,19.06,0,0,0,6.629,5.221A21.672,21.672,0,0,0,261,325.082a22.707,22.707,0,0,0,10.445-2.271,21.643,21.643,0,0,0,7.356-6,25.079,25.079,0,0,0,4.314-8.671,37.2,37.2,0,0,0,1.408-10.219,35.5,35.5,0,0,0-1.453-10.217,24.82,24.82,0,0,0-4.36-8.492,20.984,20.984,0,0,0-7.265-5.766,24.8,24.8,0,0,0-20.435.135,21.752,21.752,0,0,0-7.992,7.176q-.273-4.088-.272-8.084,0-2.812.136-5.494t.318-5.405a29.127,29.127,0,0,1,9.944-5.4,43.467,43.467,0,0,1,29.154,1.635,37.194,37.194,0,0,1,12.669,9.263,41.022,41.022,0,0,1,7.947,13.758,51.006,51.006,0,0,1,2.77,16.985,50.187,50.187,0,0,1-3.134,18.027,41.834,41.834,0,0,1-8.808,14.168,43.034,43.034,0,0,1-5.636,4.822,2.829,2.829,0,0,0,1.664,5.122h47.551a2.834,2.834,0,0,0,2.834-2.834V2.835A2.834,2.834,0,0,0,337.323,0Z"/>
      </g>
    </g>
</svg>
