<svg xmlns="http://www.w3.org/2000/svg" width="120mm" height="120mm" viewBox="0 0 340.157 340.158">
  <g id="Zimmernummer">
      <g id="Z-03-429">
        <path fill="#000000" stroke="none" d="M337.323,0H2.835A2.835,2.835,0,0,0,0,2.835V337.323a2.835,2.835,0,0,0,2.835,2.835h70.62a2.806,2.806,0,0,0,2.806-2.806V235.262h-.454L36.755,292.568h32.7v16.711H20.407V288.3l55.854-78.379H96.333v82.646h16.711v16.711H96.333v28.073a2.806,2.806,0,0,0,2.806,2.806h24.729a2.793,2.793,0,0,0,2.8-2.632q1.524-28.194,28.521-46.682,6.357-4.632,13.26-8.992,25.521-16.164,25.975-33.786,0-9.263-3.27-13.8a24.453,24.453,0,0,0-7.538-6.9A21.826,21.826,0,0,0,172.8,225q-6.629,0-10.807,2.543-11.171,6.811-11.807,30.063H128.937q0-22.251,11.807-36.239T173.8,207.379q21.252,0,32.877,13.715,8.993,10.989,8.992,26.246,0,20.075-18.255,35.512A149.728,149.728,0,0,1,179.343,296.2q-9.447,5.994-14.168,9.537-10.809,8.084-13.169,15.44h63.483v16.174a2.806,2.806,0,0,0,2.806,2.806h26.179a2.8,2.8,0,0,0,1.672-5.051q-1.474-1.115-2.866-2.4a37.07,37.07,0,0,1-8.355-11.217,35.734,35.734,0,0,1-3.542-14.213h21.161a24.042,24.042,0,0,0,1.725,6.9,19.212,19.212,0,0,0,3.633,5.722,16.467,16.467,0,0,0,5.4,3.86,16.753,16.753,0,0,0,6.948,1.408q16.8,0,22.977-15.895a76.79,76.79,0,0,0,4.269-16.847,129.966,129.966,0,0,0,1.271-18.118q0-6.629-.59-12.943t-1.589-12.123a56.193,56.193,0,0,0-2.543-9.31,27.281,27.281,0,0,0-4.315-7.719A19.075,19.075,0,0,0,283.105,227a21.675,21.675,0,0,0-9.491-1.906,22.725,22.725,0,0,0-10.444,2.269,21.684,21.684,0,0,0-7.357,6,25.108,25.108,0,0,0-4.313,8.628,36.958,36.958,0,0,0-1.408,10.262,35.446,35.446,0,0,0,1.453,10.217,24.747,24.747,0,0,0,4.359,8.492,20.961,20.961,0,0,0,7.266,5.768,22.858,22.858,0,0,0,10.172,2.134,22.63,22.63,0,0,0,10.262-2.271,21.728,21.728,0,0,0,7.992-7.174q.273,4.087.273,8.082,0,2.815-.137,5.494t-.317,5.405a29.153,29.153,0,0,1-9.945,5.4,43.483,43.483,0,0,1-29.154-1.635,37.236,37.236,0,0,1-12.669-9.264,41.018,41.018,0,0,1-7.946-13.759,50.944,50.944,0,0,1-2.771-16.983,50.2,50.2,0,0,1,3.134-18.029,41.85,41.85,0,0,1,8.809-14.168,39.634,39.634,0,0,1,13.669-9.264,45.807,45.807,0,0,1,17.71-3.314,50.8,50.8,0,0,1,17.211,2.635,39.689,39.689,0,0,1,12.623,7.218,38.711,38.711,0,0,1,8.718,10.809,62.405,62.405,0,0,1,5.405,13.486,90.252,90.252,0,0,1,2.769,15.258q.772,7.992.773,15.985a144.832,144.832,0,0,1-.954,16.439,97.35,97.35,0,0,1-3.224,16.166A71.05,71.05,0,0,1,309.533,320a46.752,46.752,0,0,1-9.309,11.9,42.1,42.1,0,0,1-3.9,3.139,2.808,2.808,0,0,0,1.579,5.124h39.418a2.834,2.834,0,0,0,2.834-2.834V2.835A2.834,2.834,0,0,0,337.323,0Z"/>
      </g>
    </g>
</svg>
