<svg xmlns="http://www.w3.org/2000/svg" width="120mm" height="120mm" viewBox="0 0 340.158 340.157">
  <g id="Zimmernummer">
      <g id="Z-03-643-M">
        <path fill="#D4AF37" stroke="none" d="M337.323,0H2.835A2.835,2.835,0,0,0,0,2.835V337.323a2.834,2.834,0,0,0,2.834,2.834h36.84a2.834,2.834,0,0,0,1.6-5.167q-1.365-.972-2.615-2.053a38.648,38.648,0,0,1-8.719-10.807,62.3,62.3,0,0,1-5.4-13.487,90.08,90.08,0,0,1-2.77-15.258Q21,285.395,21,277.4a144.208,144.208,0,0,1,.954-16.484A97.331,97.331,0,0,1,25.175,244.8a71,71,0,0,1,6.04-14.622,46.719,46.719,0,0,1,9.309-11.9,40.7,40.7,0,0,1,13.123-7.992,48.647,48.647,0,0,1,17.483-2.907,38.918,38.918,0,0,1,26.338,10.081,37.134,37.134,0,0,1,8.356,11.216,35.807,35.807,0,0,1,3.542,14.214H88.205a24.11,24.11,0,0,0-1.726-6.9,19.219,19.219,0,0,0-3.633-5.722,16.454,16.454,0,0,0-5.4-3.859A16.748,16.748,0,0,0,70.5,225q-16.8,0-22.978,15.893a76.706,76.706,0,0,0-4.268,16.847,129.7,129.7,0,0,0-1.272,18.119q0,6.63.59,12.941t1.59,12.125a55.838,55.838,0,0,0,2.543,9.309,27.239,27.239,0,0,0,4.314,7.721,19.037,19.037,0,0,0,6.629,5.221,21.657,21.657,0,0,0,9.491,1.908,22.7,22.7,0,0,0,10.445-2.271,21.685,21.685,0,0,0,7.356-5.994,25.08,25.08,0,0,0,4.314-8.673,37.19,37.19,0,0,0,1.408-10.218A35.547,35.547,0,0,0,89.2,287.708a24.815,24.815,0,0,0-4.36-8.491,20.984,20.984,0,0,0-7.265-5.766,22.878,22.878,0,0,0-10.172-2.135,22.654,22.654,0,0,0-10.263,2.27,21.757,21.757,0,0,0-7.992,7.175q-.273-4.086-.273-8.083,0-2.814.137-5.5t.317-5.4a29.128,29.128,0,0,1,9.945-5.4,40.233,40.233,0,0,1,12.216-1.771,40.488,40.488,0,0,1,16.938,3.406,37.209,37.209,0,0,1,12.669,9.264,40.988,40.988,0,0,1,7.946,13.759,50.969,50.969,0,0,1,2.771,16.983,50.183,50.183,0,0,1-3.134,18.027,41.8,41.8,0,0,1-8.809,14.168,38.358,38.358,0,0,1-5.591,4.82,2.829,2.829,0,0,0,1.661,5.125h79.61a2.834,2.834,0,0,0,2.834-2.834V235.26h-.454l-39.053,57.308h32.7v16.711H122.535V288.3l55.854-78.378H198.46v82.647h16.711v16.711H198.46v28.044a2.835,2.835,0,0,0,2.835,2.834h41.431a2.835,2.835,0,0,0,1.6-5.172q-9.388-6.654-13.987-18.985a57.918,57.918,0,0,1-3.178-18.619h21.252q-.273,11.9,5.9,19.8t17.71,7.9q11.532,0,18.709-6t7.175-17.255q0-13.623-10.808-18.891-7.629-3.724-23.25-3.27v-15.8q19.346.634,26.338-10.354,2.452-4.086,2.452-11.262a15.674,15.674,0,0,0-5.631-12.17,18.691,18.691,0,0,0-12.9-5.085q-17.71-.09-22.16,16.892a32.545,32.545,0,0,0-1.09,9.718H229.612q.726-18.981,12.17-31.606t30.969-12.624a47.987,47.987,0,0,1,28.7,8.992q12.442,9.081,12.442,25.793,0,21.342-18.436,27.881v.364a27.2,27.2,0,0,1,17.437,11.08,33.6,33.6,0,0,1,6.267,19.8q-.091,19.707-13.623,30.606a49.144,49.144,0,0,1-4.248,3.064,2.828,2.828,0,0,0,1.546,5.2h34.487a2.835,2.835,0,0,0,2.835-2.835V2.834A2.834,2.834,0,0,0,337.323,0Z"/>
      </g>
    </g>
</svg>
