<svg xmlns="http://www.w3.org/2000/svg" width="120mm" height="120mm" viewBox="0 0 340.157 340.157">
  <g id="Zimmernummer">
      <g id="Z-03-615-M">
        <path fill="#D4AF37" stroke="none" d="M337.323,0H2.834A2.834,2.834,0,0,0,0,2.834V337.323a2.834,2.834,0,0,0,2.834,2.834H49.292a2.834,2.834,0,0,0,1.6-5.167q-1.365-.974-2.616-2.053a38.68,38.68,0,0,1-8.719-10.807,62.391,62.391,0,0,1-5.4-13.487,90.08,90.08,0,0,1-2.77-15.258q-.773-7.99-.772-15.985a144.178,144.178,0,0,1,.954-16.483A97.434,97.434,0,0,1,34.792,244.8a70.95,70.95,0,0,1,6.041-14.622,46.716,46.716,0,0,1,9.308-11.9,40.732,40.732,0,0,1,13.123-7.992,48.671,48.671,0,0,1,17.484-2.906,38.918,38.918,0,0,1,26.337,10.081,37.1,37.1,0,0,1,8.356,11.216,35.8,35.8,0,0,1,3.542,14.214H97.822a24.084,24.084,0,0,0-1.726-6.9,19.214,19.214,0,0,0-3.633-5.721,16.471,16.471,0,0,0-5.4-3.86A16.764,16.764,0,0,0,80.112,225q-16.8,0-22.978,15.894a76.711,76.711,0,0,0-4.268,16.846,129.72,129.72,0,0,0-1.272,18.119q0,6.63.59,12.942t1.59,12.125a55.826,55.826,0,0,0,2.543,9.308,27.225,27.225,0,0,0,4.314,7.721,19.06,19.06,0,0,0,6.629,5.222,21.672,21.672,0,0,0,9.491,1.907,22.707,22.707,0,0,0,10.445-2.27,21.667,21.667,0,0,0,7.356-6,25.076,25.076,0,0,0,4.314-8.672,37.19,37.19,0,0,0,1.408-10.218,35.508,35.508,0,0,0-1.453-10.218,24.815,24.815,0,0,0-4.36-8.491A20.987,20.987,0,0,0,87.2,273.45a22.875,22.875,0,0,0-10.172-2.135,22.644,22.644,0,0,0-10.263,2.271,21.748,21.748,0,0,0-7.992,7.175q-.273-4.088-.272-8.083,0-2.814.136-5.5t.318-5.4a29.112,29.112,0,0,1,9.944-5.4A40.206,40.206,0,0,1,81.111,254.6a40.473,40.473,0,0,1,16.938,3.407,37.194,37.194,0,0,1,12.669,9.263,41.027,41.027,0,0,1,7.947,13.759,51,51,0,0,1,2.77,16.984,50.187,50.187,0,0,1-3.134,18.027,41.834,41.834,0,0,1-8.808,14.168,38.374,38.374,0,0,1-5.593,4.82,2.829,2.829,0,0,0,1.661,5.125h61.174a2.834,2.834,0,0,0,2.835-2.834V248.247H137.6V231.536q22.887,0,33.149-11.534a20.29,20.29,0,0,0,4.723-10.081H192.82v127.4a2.834,2.834,0,0,0,2.834,2.834h38.583a2.829,2.829,0,0,0,1.543-5.2,40.413,40.413,0,0,1-3.344-2.426Q219.719,322.267,219,303.1h21.161q.906,10.716,7.265,16.347t16.711,5.631q23.795,0,24.249-28.608,0-18.345-13.714-24.976a24.517,24.517,0,0,0-11.08-2.18q-16.62,0-20.979,11.9H221.356l13.986-71.294h67.3V228.9H251.145l-6.721,33.15.364.363q8.808-9.9,25.611-9.9a39.5,39.5,0,0,1,15.712,3.269q14.985,6.45,20.707,22.978a50.891,50.891,0,0,1,2.724,16.529q0,18.711-10.535,31.969a42.77,42.77,0,0,1-8.055,7.8,2.839,2.839,0,0,0,1.728,5.1h44.643a2.834,2.834,0,0,0,2.834-2.834V2.834A2.834,2.834,0,0,0,337.323,0Z"/>
      </g>
    </g>
</svg>
