<svg xmlns="http://www.w3.org/2000/svg" width="120mm" height="120mm" viewBox="0 0 340.158 340.157">
  <g id="Zimmernummer">
      <g id="Z-03-633">
        <path fill="#000000" stroke="none" d="M337.323,0H2.835A2.835,2.835,0,0,0,0,2.835V337.323a2.834,2.834,0,0,0,2.834,2.834h36.84a2.834,2.834,0,0,0,1.6-5.167q-1.365-.972-2.616-2.053a38.666,38.666,0,0,1-8.719-10.807,62.4,62.4,0,0,1-5.4-13.487,89.981,89.981,0,0,1-2.769-15.258Q21,285.395,21,277.4a144.205,144.205,0,0,1,.953-16.484A97.334,97.334,0,0,1,25.176,244.8a70.89,70.89,0,0,1,6.039-14.622,46.716,46.716,0,0,1,9.308-11.9,40.74,40.74,0,0,1,13.123-7.992,48.658,48.658,0,0,1,17.485-2.907,38.928,38.928,0,0,1,26.338,10.081,37.148,37.148,0,0,1,8.355,11.216,35.806,35.806,0,0,1,3.541,14.214H88.205a24.078,24.078,0,0,0-1.726-6.9,19.239,19.239,0,0,0-3.633-5.722,16.468,16.468,0,0,0-5.405-3.859A16.745,16.745,0,0,0,70.494,225q-16.8,0-22.976,15.893a76.763,76.763,0,0,0-4.27,16.847,129.849,129.849,0,0,0-1.271,18.119q0,6.63.589,12.941t1.59,12.125a56.031,56.031,0,0,0,2.543,9.309,27.241,27.241,0,0,0,4.315,7.721,19.037,19.037,0,0,0,6.629,5.221,21.656,21.656,0,0,0,9.492,1.908,22.688,22.688,0,0,0,10.443-2.271,21.693,21.693,0,0,0,7.358-5.994,25.059,25.059,0,0,0,4.312-8.673,37.114,37.114,0,0,0,1.408-10.218A35.478,35.478,0,0,0,89.2,287.708a24.831,24.831,0,0,0-4.359-8.491,20.988,20.988,0,0,0-7.266-5.766,22.872,22.872,0,0,0-10.172-2.135,22.649,22.649,0,0,0-10.261,2.27,21.744,21.744,0,0,0-7.993,7.175q-.272-4.086-.273-8.083,0-2.814.137-5.5t.318-5.4a29.119,29.119,0,0,1,9.943-5.4,40.244,40.244,0,0,1,12.217-1.771,40.488,40.488,0,0,1,16.938,3.406,37.223,37.223,0,0,1,12.67,9.264,40.986,40.986,0,0,1,7.945,13.759,50.944,50.944,0,0,1,2.771,16.983,50.2,50.2,0,0,1-3.134,18.027,41.817,41.817,0,0,1-8.809,14.168,38.419,38.419,0,0,1-5.591,4.82,2.83,2.83,0,0,0,1.661,5.125h43.427a2.835,2.835,0,0,0,1.6-5.172q-9.389-6.654-13.987-18.985a57.919,57.919,0,0,1-3.177-18.619h21.252q-.273,11.9,5.9,19.8t17.711,7.9q11.531,0,18.709-6t7.174-17.255q0-13.623-10.807-18.891-7.629-3.724-23.25-3.27v-15.8q19.346.634,26.338-10.354,2.452-4.086,2.451-11.262a15.674,15.674,0,0,0-5.631-12.17A18.689,18.689,0,0,0,170.76,225q-17.71-.09-22.16,16.892a32.61,32.61,0,0,0-1.09,9.718H126.258q.726-18.981,12.17-31.606t30.97-12.624a47.989,47.989,0,0,1,28.7,8.992q12.442,9.081,12.441,25.793,0,21.342-18.435,27.881v.364a27.2,27.2,0,0,1,17.437,11.08,33.6,33.6,0,0,1,6.266,19.8q-.091,19.707-13.623,30.606a48.651,48.651,0,0,1-4.237,3.051,2.843,2.843,0,0,0,1.578,5.213h43.2a2.835,2.835,0,0,0,1.6-5.172q-9.388-6.654-13.987-18.985a57.918,57.918,0,0,1-3.178-18.619h21.252q-.273,11.9,5.9,19.8t17.711,7.9q11.532,0,18.709-6t7.174-17.255q0-13.623-10.806-18.891-7.629-3.724-23.25-3.27v-15.8q19.344.634,26.337-10.354,2.452-4.086,2.452-11.262a15.674,15.674,0,0,0-5.631-12.17,18.692,18.692,0,0,0-12.9-5.085q-17.709-.09-22.16,16.892a32.61,32.61,0,0,0-1.09,9.718H229.611q.728-18.981,12.17-31.606t30.971-12.624a47.986,47.986,0,0,1,28.7,8.992q12.442,9.081,12.442,25.793,0,21.342-18.436,27.881v.364a27.205,27.205,0,0,1,17.438,11.08,33.61,33.61,0,0,1,6.265,19.8q-.09,19.707-13.623,30.606a48.838,48.838,0,0,1-4.248,3.064,2.828,2.828,0,0,0,1.547,5.2h34.487a2.834,2.834,0,0,0,2.835-2.834V2.834A2.834,2.834,0,0,0,337.323,0Z"/>
      </g>
    </g>
</svg>
