<svg xmlns="http://www.w3.org/2000/svg" width="120mm" height="120mm" viewBox="0 0 340.157 340.157">
  <g id="Zimmernummer">
      <g id="Z-03-119-R">
        <path fill="#A0552B" stroke="none" d="M337.323,0H2.835A2.835,2.835,0,0,0,0,2.835V337.323a2.834,2.834,0,0,0,2.834,2.834H71.225a2.834,2.834,0,0,0,2.835-2.834V248.556H42.091V231.845q22.887,0,33.15-11.534a20.288,20.288,0,0,0,4.722-10.082H97.31V337.323a2.834,2.834,0,0,0,2.835,2.834h55.833a2.834,2.834,0,0,0,2.835-2.834V248.556H126.844V231.845q22.887,0,33.151-11.534a20.305,20.305,0,0,0,4.722-10.082h17.346V337.323a2.834,2.834,0,0,0,2.835,2.834h38.15a2.83,2.83,0,0,0,1.766-5.05q-1.293-.989-2.5-2.088a37.1,37.1,0,0,1-8.356-11.217,35.772,35.772,0,0,1-3.542-14.213h21.162a24.027,24.027,0,0,0,1.725,6.9,19.18,19.18,0,0,0,3.633,5.722,16.473,16.473,0,0,0,5.4,3.86,16.764,16.764,0,0,0,6.949,1.407q16.8,0,22.977-15.893a76.784,76.784,0,0,0,4.269-16.848,130.108,130.108,0,0,0,1.271-18.118q0-6.628-.591-12.942t-1.589-12.124a56.1,56.1,0,0,0-2.543-9.31,27.277,27.277,0,0,0-4.313-7.719,19.047,19.047,0,0,0-6.631-5.222,21.65,21.65,0,0,0-9.49-1.908,22.7,22.7,0,0,0-10.444,2.271,21.683,21.683,0,0,0-7.357,5.994,25.128,25.128,0,0,0-4.314,8.628,36.96,36.96,0,0,0-1.408,10.263,35.422,35.422,0,0,0,1.454,10.217,24.738,24.738,0,0,0,4.359,8.492,20.951,20.951,0,0,0,7.266,5.767,24.808,24.808,0,0,0,20.434-.136,21.756,21.756,0,0,0,7.992-7.175q.273,4.086.273,8.083,0,2.815-.136,5.494t-.318,5.4A29.133,29.133,0,0,1,260.5,294.1a43.494,43.494,0,0,1-29.152-1.635,37.246,37.246,0,0,1-12.67-9.264,41.015,41.015,0,0,1-7.947-13.76,50.939,50.939,0,0,1-2.77-16.983,50.24,50.24,0,0,1,3.133-18.028,41.845,41.845,0,0,1,8.811-14.168A39.611,39.611,0,0,1,233.577,211a45.807,45.807,0,0,1,17.71-3.314,50.794,50.794,0,0,1,17.21,2.633,39.725,39.725,0,0,1,12.625,7.22,38.753,38.753,0,0,1,8.718,10.809,62.515,62.515,0,0,1,5.4,13.486,90.415,90.415,0,0,1,2.77,15.258q.771,7.992.772,15.984a145.077,145.077,0,0,1-.954,16.439,97.432,97.432,0,0,1-3.224,16.166,71.144,71.144,0,0,1-6.039,14.622,46.75,46.75,0,0,1-9.31,11.9,37.971,37.971,0,0,1-3.49,2.842,2.829,2.829,0,0,0,1.672,5.114h59.882a2.834,2.834,0,0,0,2.834-2.834V2.834A2.834,2.834,0,0,0,337.323,0Z"/>
      </g>
    </g>
</svg>
