<svg xmlns="http://www.w3.org/2000/svg" width="120.001mm" height="120.001mm" viewBox="0 0 340.16 340.16">
  <g id="Zimmernummer">
      <g id="Z-03-021-R">
        <path fill="#A0552B" stroke="none" d="M337.325,0H2.834A2.834,2.834,0,0,0,0,2.834V337.325a2.834,2.834,0,0,0,2.834,2.835H133.991a2.835,2.835,0,0,0,2.832-2.709c.044-1.016.1-2.062.152-2.629a51.261,51.261,0,0,1,7.535-22.842,71.493,71.493,0,0,1,20.86-21.04q6.33-4.65,13.22-9.03a104.507,104.507,0,0,0,12.66-9.41,50.207,50.207,0,0,0,9.5-10.89,25.936,25.936,0,0,0,3.91-13.5,36.862,36.862,0,0,0-.84-7.54,20.061,20.061,0,0,0-3.26-7.45,19.253,19.253,0,0,0-6.7-5.77q-4.29-2.325-11.17-2.33a20.146,20.146,0,0,0-10.53,2.52,18.825,18.825,0,0,0-6.7,6.88,34.158,34.158,0,0,0-3.72,10.34,74.022,74.022,0,0,0-1.4,12.85H139.11A66.533,66.533,0,0,1,142,237.59a44.354,44.354,0,0,1,8.66-15.92,40.662,40.662,0,0,1,14.06-10.52,45.668,45.668,0,0,1,19.27-3.82q11.91,0,19.92,3.91a38.364,38.364,0,0,1,12.94,9.87,36.279,36.279,0,0,1,6.99,12.94,47.58,47.58,0,0,1,2.05,13.32,39.444,39.444,0,0,1-2.42,14.15,45.859,45.859,0,0,1-6.52,11.64,66.508,66.508,0,0,1-9.31,9.77q-5.22,4.47-10.8,8.38t-11.18,7.45q-5.58,3.54-10.33,7.08a60.942,60.942,0,0,0-8.29,7.35,20.948,20.948,0,0,0-4.84,8.1h62.21a1.294,1.294,0,0,1,1.29,1.29v14.745a2.843,2.843,0,0,0,2.834,2.835h42.051a2.835,2.835,0,0,0,2.835-2.835V248.3H241.39V231.54a74.421,74.421,0,0,0,13.04-1.12,40.409,40.409,0,0,0,11.45-3.72,29.29,29.29,0,0,0,8.75-6.71,20.432,20.432,0,0,0,4.75-10.05H296.7V337.325a2.834,2.834,0,0,0,2.834,2.835h37.791a2.835,2.835,0,0,0,2.835-2.835V2.835A2.835,2.835,0,0,0,337.325,0Z"/>
      </g>
    </g>
</svg>
