<svg xmlns="http://www.w3.org/2000/svg" width="120mm" height="120mm" viewBox="0 0 340.157 340.157">
  <g id="Zimmernummer">
      <g id="Z-03-135-E">
        <path fill="#A09f9d" stroke="none" d="M337.323,0H2.835A2.835,2.835,0,0,0,0,2.835V337.323a2.834,2.834,0,0,0,2.835,2.834H61.161A2.834,2.834,0,0,0,64,337.323V248.839H32.027V232.128q22.885,0,33.149-11.534A20.3,20.3,0,0,0,69.9,210.513H87.245v126.81a2.834,2.834,0,0,0,2.835,2.834h37.326a2.828,2.828,0,0,0,1.69-5.1q-8.88-6.6-13.315-18.467a57.912,57.912,0,0,1-3.179-18.618h21.252q-.272,11.9,5.9,19.8t17.709,7.9q11.533,0,18.709-5.994t7.175-17.256q0-13.623-10.807-18.891-7.629-3.723-23.25-3.269v-15.8q19.344.636,26.338-10.354,2.451-4.086,2.452-11.261a15.674,15.674,0,0,0-5.631-12.17,18.69,18.69,0,0,0-12.9-5.086q-17.709-.09-22.16,16.892a32.577,32.577,0,0,0-1.09,9.718H115.054q.726-18.981,12.17-31.605t30.97-12.624a47.989,47.989,0,0,1,28.7,8.991q12.442,9.082,12.443,25.793,0,21.342-18.437,27.882V271a27.209,27.209,0,0,1,17.438,11.08,33.613,33.613,0,0,1,6.266,19.8q-.091,19.709-13.623,30.606-1.645,1.326-3.373,2.487a2.83,2.83,0,0,0,1.57,5.186h41.946a2.829,2.829,0,0,0,1.627-5.147q-1.305-.9-2.535-1.89-12.717-10.263-13.442-29.426h21.161q.907,10.717,7.266,16.348t16.711,5.631q23.793,0,24.249-28.609,0-18.344-13.714-24.975a24.523,24.523,0,0,0-11.08-2.18q-16.62,0-20.98,11.9H219.134l13.987-71.294h67.3v18.981H248.924l-6.721,33.15.363.363q8.808-9.9,25.611-9.9a39.505,39.505,0,0,1,15.712,3.27q14.986,6.45,20.707,22.977a50.871,50.871,0,0,1,2.725,16.53q0,18.71-10.535,31.969a43.191,43.191,0,0,1-7.34,7.259,2.83,2.83,0,0,0,1.772,5.045h46.1a2.834,2.834,0,0,0,2.834-2.834V2.834A2.834,2.834,0,0,0,337.323,0Z"/>
      </g>
    </g>
</svg>
