<svg xmlns="http://www.w3.org/2000/svg" width="120mm" height="120mm" viewBox="0 0 340.157 340.157">
  <g id="Zimmernummer">
      <g id="Z-03-137-R">
        <path fill="#A0552B" stroke="none" d="M337.323,0H2.835A2.835,2.835,0,0,0,0,2.835V337.323a2.834,2.834,0,0,0,2.834,2.834H63.015a2.834,2.834,0,0,0,2.834-2.834V248.839H33.88V232.128q22.887,0,33.15-11.534a20.289,20.289,0,0,0,4.722-10.081H89.1v126.81a2.834,2.834,0,0,0,2.835,2.834h33.607a2.828,2.828,0,0,0,1.689-5.1q-8.88-6.6-13.315-18.467a57.912,57.912,0,0,1-3.179-18.618h21.252q-.272,11.9,5.9,19.8t17.71,7.9q11.532,0,18.709-5.994t7.174-17.256q0-13.623-10.807-18.891-7.629-3.723-23.25-3.269v-15.8q19.344.636,26.338-10.354,2.451-4.086,2.452-11.261a15.674,15.674,0,0,0-5.631-12.17,18.69,18.69,0,0,0-12.9-5.086q-17.709-.09-22.16,16.892a32.577,32.577,0,0,0-1.09,9.718H113.189q.725-18.981,12.169-31.605t30.97-12.624a47.987,47.987,0,0,1,28.7,8.991q12.443,9.082,12.443,25.793,0,21.342-18.437,27.882V271a27.206,27.206,0,0,1,17.438,11.08,33.613,33.613,0,0,1,6.266,19.8q-.092,19.709-13.623,30.606-1.645,1.326-3.373,2.487a2.83,2.83,0,0,0,1.57,5.186h46.02a2.838,2.838,0,0,0,2.82-2.595q3.927-43,31.156-83.637a235.378,235.378,0,0,1,18.8-24.431H218.627V210.513h89.095v17.71Q275.207,264.732,264.31,307.6a187.424,187.424,0,0,0-4.879,29.488,2.832,2.832,0,0,0,2.827,3.069h75.065a2.834,2.834,0,0,0,2.834-2.834V2.835A2.834,2.834,0,0,0,337.323,0Z"/>
      </g>
    </g>
</svg>
