<svg xmlns="http://www.w3.org/2000/svg" width="120mm" height="120mm" viewBox="0 0 340.157 340.158">
  <g id="Zimmernummer">
      <g id="Z-03-619-E">
        <path fill="#A09f9d" stroke="none" d="M337.323,0H2.835A2.835,2.835,0,0,0,0,2.835V337.323a2.835,2.835,0,0,0,2.835,2.835H49.292a2.834,2.834,0,0,0,1.6-5.167q-1.365-.974-2.616-2.053a38.666,38.666,0,0,1-8.719-10.807,62.383,62.383,0,0,1-5.4-13.486,90.08,90.08,0,0,1-2.77-15.258q-.773-7.992-.772-15.985a144.2,144.2,0,0,1,.954-16.484A97.455,97.455,0,0,1,34.792,244.8a70.942,70.942,0,0,1,6.041-14.621,46.739,46.739,0,0,1,9.308-11.9,40.749,40.749,0,0,1,13.123-7.992,48.671,48.671,0,0,1,17.484-2.906,38.912,38.912,0,0,1,26.337,10.082,37.1,37.1,0,0,1,8.356,11.215,35.8,35.8,0,0,1,3.542,14.215H97.822a24.076,24.076,0,0,0-1.726-6.9,19.219,19.219,0,0,0-3.633-5.722,16.486,16.486,0,0,0-5.4-3.86A16.78,16.78,0,0,0,80.112,225q-16.8,0-22.978,15.9a76.688,76.688,0,0,0-4.268,16.845,129.73,129.73,0,0,0-1.272,18.119q0,6.63.59,12.942t1.59,12.125a55.826,55.826,0,0,0,2.543,9.308,27.211,27.211,0,0,0,4.314,7.721,19.051,19.051,0,0,0,6.629,5.223,21.672,21.672,0,0,0,9.491,1.906,22.694,22.694,0,0,0,10.445-2.27,21.676,21.676,0,0,0,7.356-5.994,25.072,25.072,0,0,0,4.314-8.673,37.183,37.183,0,0,0,1.408-10.217,35.51,35.51,0,0,0-1.453-10.219,24.81,24.81,0,0,0-4.36-8.49,20.989,20.989,0,0,0-7.265-5.768,22.889,22.889,0,0,0-10.172-2.135,22.632,22.632,0,0,0-10.263,2.272,21.745,21.745,0,0,0-7.992,7.174q-.273-4.088-.272-8.082,0-2.815.136-5.5t.318-5.4a29.1,29.1,0,0,1,9.944-5.4,40.206,40.206,0,0,1,12.216-1.772,40.473,40.473,0,0,1,16.938,3.407,37.194,37.194,0,0,1,12.669,9.263,41.031,41.031,0,0,1,7.947,13.76,51,51,0,0,1,2.77,16.983,50.187,50.187,0,0,1-3.134,18.027,41.834,41.834,0,0,1-8.808,14.168,38.366,38.366,0,0,1-5.594,4.819,2.83,2.83,0,0,0,1.661,5.126h61.175a2.834,2.834,0,0,0,2.835-2.834V248.248H137.6V231.537q22.887,0,33.149-11.533a20.293,20.293,0,0,0,4.723-10.082H192.82v127.4a2.834,2.834,0,0,0,2.834,2.834h38.59a2.831,2.831,0,0,0,1.66-5.124,35.148,35.148,0,0,1-2.832-2.323,37.073,37.073,0,0,1-8.356-11.217,35.768,35.768,0,0,1-3.542-14.213h21.161a24.076,24.076,0,0,0,1.726,6.9,19.212,19.212,0,0,0,3.633,5.722,16.457,16.457,0,0,0,5.4,3.86,16.748,16.748,0,0,0,6.947,1.408q16.8,0,22.978-15.895a76.79,76.79,0,0,0,4.269-16.847,129.966,129.966,0,0,0,1.271-18.118q0-6.629-.59-12.943t-1.59-12.123a56,56,0,0,0-2.543-9.31,27.279,27.279,0,0,0-4.314-7.719A19.075,19.075,0,0,0,272.9,227a21.675,21.675,0,0,0-9.491-1.906,22.732,22.732,0,0,0-10.445,2.269,21.68,21.68,0,0,0-7.356,6,25.108,25.108,0,0,0-4.313,8.628,36.959,36.959,0,0,0-1.409,10.262,35.481,35.481,0,0,0,1.453,10.217,24.749,24.749,0,0,0,4.36,8.492,20.957,20.957,0,0,0,7.265,5.768,22.862,22.862,0,0,0,10.172,2.134,22.631,22.631,0,0,0,10.263-2.271,21.743,21.743,0,0,0,7.992-7.174q.273,4.087.273,8.082,0,2.815-.137,5.494t-.317,5.405a29.162,29.162,0,0,1-9.945,5.4,43.483,43.483,0,0,1-29.154-1.635,37.236,37.236,0,0,1-12.669-9.264,41,41,0,0,1-7.946-13.759,50.944,50.944,0,0,1-2.771-16.983,50.2,50.2,0,0,1,3.134-18.029,41.835,41.835,0,0,1,8.809-14.168,39.63,39.63,0,0,1,13.668-9.264,45.815,45.815,0,0,1,17.71-3.314,50.794,50.794,0,0,1,17.211,2.635,39.689,39.689,0,0,1,12.623,7.218,38.714,38.714,0,0,1,8.719,10.809,62.4,62.4,0,0,1,5.4,13.486,90.252,90.252,0,0,1,2.77,15.258q.773,7.992.772,15.985a144.6,144.6,0,0,1-.954,16.439,97.349,97.349,0,0,1-3.223,16.166A71.105,71.105,0,0,1,299.325,320a46.774,46.774,0,0,1-9.309,11.9,38.025,38.025,0,0,1-3.83,3.079,2.836,2.836,0,0,0,1.584,5.184h49.553a2.834,2.834,0,0,0,2.834-2.834V2.834A2.834,2.834,0,0,0,337.323,0Z"/>
      </g>
    </g>
</svg>
