<svg xmlns="http://www.w3.org/2000/svg" width="120mm" height="120mm" viewBox="0 0 340.157 340.157">
  <g id="Zimmernummer">
      <g id="Z-03-510">
        <path fill="#000000" stroke="none" d="M337.323,0H2.834A2.834,2.834,0,0,0,0,2.834V337.323a2.834,2.834,0,0,0,2.834,2.834H43.953a2.831,2.831,0,0,0,1.524-5.215,40.78,40.78,0,0,1-3.316-2.413Q29.444,322.268,28.719,303.1H49.881q.906,10.716,7.265,16.347t16.711,5.631q23.793,0,24.249-28.608,0-18.345-13.714-24.976a24.517,24.517,0,0,0-11.08-2.18q-16.62,0-20.979,11.9H31.081l13.986-71.294h67.3V228.9H60.87l-6.721,33.15.363.363q8.808-9.9,25.612-9.9a39.508,39.508,0,0,1,15.712,3.269q14.985,6.45,20.707,22.978a50.891,50.891,0,0,1,2.724,16.529q0,18.484-10.283,31.649a2.954,2.954,0,0,1-.579.56l-10.252,7.537a2.834,2.834,0,0,0,1.679,5.118h64.735a2.834,2.834,0,0,0,2.835-2.834V248.248H135.433V231.537q22.887,0,33.15-11.534a20.289,20.289,0,0,0,4.722-10.081h17.347v127.4a2.834,2.834,0,0,0,2.835,2.834H240.17a2.835,2.835,0,0,0,1.7-5.1,37.909,37.909,0,0,1-3.629-3.207,42.917,42.917,0,0,1-8.22-11.761,75.605,75.605,0,0,1-5.131-14.3,105.421,105.421,0,0,1-2.68-15.531q-.771-7.946-.771-15.484,0-6.994.682-14.532a105.921,105.921,0,0,1,2.406-14.849,78.463,78.463,0,0,1,4.677-13.941,44.269,44.269,0,0,1,7.584-11.76,37.752,37.752,0,0,1,11.08-8.4,38.556,38.556,0,0,1,15.167-3.814v17.8Q242.6,228.631,242.6,275.04q0,3.906.182,9.173a103.982,103.982,0,0,0,.954,10.808,79.632,79.632,0,0,0,2.315,10.944,37.6,37.6,0,0,0,4.178,9.627,22.089,22.089,0,0,0,6.63,6.856,17.089,17.089,0,0,0,9.627,2.634q23.7,0,23.7-50.042,0-46.227-20.344-49.769v-17.8a38.565,38.565,0,0,1,15.167,3.814,36.825,36.825,0,0,1,11.035,8.446,46.688,46.688,0,0,1,7.583,11.807,76.271,76.271,0,0,1,4.723,13.942,106.473,106.473,0,0,1,2.407,14.848q.679,7.54.681,14.531,0,7.629-.773,15.667a100.269,100.269,0,0,1-2.724,15.576,74.931,74.931,0,0,1-5.222,14.213,42.752,42.752,0,0,1-8.31,11.67,37.915,37.915,0,0,1-3.486,3.061,2.838,2.838,0,0,0,1.688,5.112h44.712a2.834,2.834,0,0,0,2.834-2.834V2.835A2.834,2.834,0,0,0,337.323,0Z"/>
      </g>
    </g>
</svg>
