<svg xmlns="http://www.w3.org/2000/svg" width="120mm" height="120mm" viewBox="0 0 340.157 340.157">
  <g id="Zimmernummer">
      <g id="Z-03-406">
        <path fill="#000000" stroke="none" d="M337.323,0H2.834A2.834,2.834,0,0,0,0,2.834V337.323a2.834,2.834,0,0,0,2.834,2.834H75.287a2.834,2.834,0,0,0,2.834-2.834V235.26h-.454L38.615,292.568h32.7v16.711H22.267V288.3l55.854-78.377H98.193v82.646H114.9v16.711H98.193v28.044a2.834,2.834,0,0,0,2.834,2.834h45.625a2.834,2.834,0,0,0,1.687-5.107,35.349,35.349,0,0,1-3.646-3.2,42.907,42.907,0,0,1-8.22-11.762,75.62,75.62,0,0,1-5.131-14.3,105.444,105.444,0,0,1-2.68-15.531q-.771-7.946-.771-15.484,0-6.994.682-14.532a105.921,105.921,0,0,1,2.406-14.849,78.473,78.473,0,0,1,4.677-13.942,44.264,44.264,0,0,1,7.584-11.759,37.738,37.738,0,0,1,11.08-8.4,38.573,38.573,0,0,1,15.167-3.814v17.8q-20.434,3.36-20.435,49.769,0,3.906.182,9.174a103.94,103.94,0,0,0,.954,10.807,79.677,79.677,0,0,0,2.315,10.945,37.612,37.612,0,0,0,4.178,9.627,22.085,22.085,0,0,0,6.63,6.855,17.081,17.081,0,0,0,9.627,2.635q23.7,0,23.7-50.043,0-46.227-20.344-49.769v-17.8a38.582,38.582,0,0,1,15.167,3.814A36.828,36.828,0,0,1,202.5,219.73a46.671,46.671,0,0,1,7.583,11.807,76.271,76.271,0,0,1,4.723,13.942,106.435,106.435,0,0,1,2.407,14.847q.679,7.542.681,14.531,0,7.629-.773,15.668A100.257,100.257,0,0,1,214.4,306.1a74.915,74.915,0,0,1-5.222,14.214,42.767,42.767,0,0,1-8.31,11.67,36.027,36.027,0,0,1-3.514,3.057,2.836,2.836,0,0,0,1.679,5.116h46.717a2.837,2.837,0,0,0,1.595-5.177q-1.349-.959-2.606-2.042a38.677,38.677,0,0,1-8.719-10.807,62.349,62.349,0,0,1-5.4-13.488,90.08,90.08,0,0,1-2.77-15.258q-.774-7.989-.772-15.985a144.16,144.16,0,0,1,.954-16.482,97.311,97.311,0,0,1,3.223-16.121,71.012,71.012,0,0,1,6.04-14.623,46.719,46.719,0,0,1,9.309-11.9,40.714,40.714,0,0,1,13.123-7.992,48.669,48.669,0,0,1,17.483-2.906,38.923,38.923,0,0,1,26.338,10.08,37.126,37.126,0,0,1,8.356,11.217,35.8,35.8,0,0,1,3.542,14.213H294.278a24.125,24.125,0,0,0-1.726-6.9,19.209,19.209,0,0,0-3.633-5.72,16.457,16.457,0,0,0-5.4-3.86A16.748,16.748,0,0,0,276.568,225q-16.8,0-22.978,15.893a76.734,76.734,0,0,0-4.268,16.847,129.709,129.709,0,0,0-1.272,18.119q0,6.63.59,12.942t1.59,12.125a55.826,55.826,0,0,0,2.543,9.308,27.239,27.239,0,0,0,4.314,7.721,19.06,19.06,0,0,0,6.629,5.221,21.672,21.672,0,0,0,9.491,1.908,22.71,22.71,0,0,0,10.445-2.271,21.653,21.653,0,0,0,7.356-6,25.079,25.079,0,0,0,4.314-8.671,37.2,37.2,0,0,0,1.408-10.219,35.535,35.535,0,0,0-1.453-10.217,24.82,24.82,0,0,0-4.36-8.492,20.984,20.984,0,0,0-7.265-5.766,24.8,24.8,0,0,0-20.435.135,21.752,21.752,0,0,0-7.992,7.176q-.273-4.088-.273-8.084,0-2.812.137-5.494t.317-5.405a29.14,29.14,0,0,1,9.945-5.4,43.467,43.467,0,0,1,29.154,1.635,37.194,37.194,0,0,1,12.669,9.263,41,41,0,0,1,7.946,13.758,50.981,50.981,0,0,1,2.771,16.985,50.187,50.187,0,0,1-3.134,18.027,41.821,41.821,0,0,1-8.809,14.168,38.283,38.283,0,0,1-5.59,4.819,2.83,2.83,0,0,0,1.661,5.125h35.3a2.834,2.834,0,0,0,2.834-2.834V2.834A2.834,2.834,0,0,0,337.323,0Z"/>
      </g>
    </g>
</svg>
