<svg xmlns="http://www.w3.org/2000/svg" width="120mm" height="120mm" viewBox="0 0 340.157 340.157">
  <g id="Zimmernummer">
      <g id="Z-03-541-M">
        <path fill="#D4AF37" stroke="none" d="M337.323,0H2.834A2.834,2.834,0,0,0,0,2.834V337.323a2.834,2.834,0,0,0,2.834,2.834H52.67a2.831,2.831,0,0,0,1.525-5.215,40.824,40.824,0,0,1-3.318-2.414Q38.16,322.267,37.436,303.1H58.6q.906,10.716,7.265,16.347t16.711,5.631q23.795,0,24.249-28.608,0-18.345-13.714-24.976a24.517,24.517,0,0,0-11.08-2.18q-16.62,0-20.979,11.9H39.8l13.986-71.294h67.3V228.9H69.586l-6.721,33.15.364.363q8.808-9.9,25.611-9.9a39.5,39.5,0,0,1,15.712,3.269q14.985,6.45,20.707,22.978a50.891,50.891,0,0,1,2.724,16.529q0,18.711-10.535,31.969a42.8,42.8,0,0,1-8.055,7.8,2.839,2.839,0,0,0,1.728,5.1h80.6a2.834,2.834,0,0,0,2.835-2.834V235.26H194.1l-39.053,57.307h32.695v16.711H138.7V288.3l55.855-78.378h20.071v82.646h16.711v16.711H214.626v28.045a2.834,2.834,0,0,0,2.835,2.834h59.176a2.834,2.834,0,0,0,2.835-2.834V248.247H247.5V231.536q22.887,0,33.149-11.534a20.3,20.3,0,0,0,4.723-10.081h17.347v127.4a2.834,2.834,0,0,0,2.834,2.834h31.767a2.834,2.834,0,0,0,2.834-2.834V2.834A2.834,2.834,0,0,0,337.323,0Z"/>
      </g>
    </g>
</svg>
