<svg xmlns="http://www.w3.org/2000/svg" width="120mm" height="120mm" viewBox="0 0 340.158 340.157">
  <g id="Zimmernummer">
      <g id="Z-03-100">
        <path fill="#000000" stroke="none" d="M337.323,0H2.835A2.835,2.835,0,0,0,0,2.835V337.323a2.834,2.834,0,0,0,2.834,2.834H67.1a2.834,2.834,0,0,0,2.835-2.834V248.246H37.968V231.535q22.887,0,33.15-11.534A20.289,20.289,0,0,0,75.84,209.92H93.187v127.4a2.834,2.834,0,0,0,2.835,2.834h34.847a2.833,2.833,0,0,0,1.684-5.108,35.2,35.2,0,0,1-3.648-3.2,42.871,42.871,0,0,1-8.219-11.761,75.607,75.607,0,0,1-5.132-14.3,105.288,105.288,0,0,1-2.679-15.531q-.773-7.946-.772-15.484,0-6.993.681-14.532a106.069,106.069,0,0,1,2.407-14.849,78.463,78.463,0,0,1,4.677-13.941,44.269,44.269,0,0,1,7.584-11.76,37.765,37.765,0,0,1,11.08-8.4,38.573,38.573,0,0,1,15.167-3.814v17.8q-20.435,3.36-20.435,49.769,0,3.906.182,9.173a103.975,103.975,0,0,0,.953,10.808,79.784,79.784,0,0,0,2.316,10.944,37.6,37.6,0,0,0,4.178,9.627,22.077,22.077,0,0,0,6.63,6.856,17.089,17.089,0,0,0,9.627,2.634q23.7,0,23.7-50.042,0-46.227-20.344-49.769v-17.8a38.582,38.582,0,0,1,15.167,3.814,36.812,36.812,0,0,1,11.035,8.447,46.665,46.665,0,0,1,7.583,11.806,76.373,76.373,0,0,1,4.723,13.942,106.326,106.326,0,0,1,2.407,14.848q.681,7.541.681,14.531,0,7.629-.772,15.667a100.27,100.27,0,0,1-2.725,15.576,74.931,74.931,0,0,1-5.222,14.213,42.709,42.709,0,0,1-8.31,11.67,35.835,35.835,0,0,1-3.518,3.057,2.836,2.836,0,0,0,1.676,5.118h50.987a2.833,2.833,0,0,0,1.685-5.108,35.319,35.319,0,0,1-3.649-3.2,42.914,42.914,0,0,1-8.219-11.761,75.536,75.536,0,0,1-5.131-14.3,105.026,105.026,0,0,1-2.679-15.531q-.774-7.946-.772-15.484,0-6.993.681-14.532a106.214,106.214,0,0,1,2.406-14.849,78.465,78.465,0,0,1,4.678-13.941,44.242,44.242,0,0,1,7.583-11.76,37.765,37.765,0,0,1,11.08-8.4,38.582,38.582,0,0,1,15.167-3.814v17.8q-20.435,3.36-20.434,49.769,0,3.906.181,9.173a104.257,104.257,0,0,0,.954,10.808,79.784,79.784,0,0,0,2.316,10.944,37.6,37.6,0,0,0,4.178,9.627,22.074,22.074,0,0,0,6.629,6.856,17.091,17.091,0,0,0,9.627,2.634q23.7,0,23.705-50.042,0-46.227-20.344-49.769v-17.8a38.587,38.587,0,0,1,15.167,3.814,36.82,36.82,0,0,1,11.034,8.447,46.668,46.668,0,0,1,7.584,11.806,76.373,76.373,0,0,1,4.723,13.942,106.324,106.324,0,0,1,2.406,14.848q.681,7.541.681,14.531,0,7.629-.771,15.667a100.507,100.507,0,0,1-2.725,15.576,75.068,75.068,0,0,1-5.222,14.213,42.752,42.752,0,0,1-8.31,11.67,35.846,35.846,0,0,1-3.519,3.057,2.836,2.836,0,0,0,1.676,5.118h50.735a2.834,2.834,0,0,0,2.835-2.834V2.834A2.834,2.834,0,0,0,337.323,0Z"/>
      </g>
    </g>
</svg>
