<svg xmlns="http://www.w3.org/2000/svg" width="120mm" height="120mm" viewBox="0 0 340.158 340.157">
  <g id="Zimmernummer">
      <g id="Z-03-535-R">
        <path fill="#A0552B" stroke="none" d="M337.323,0H2.835A2.835,2.835,0,0,0,0,2.835V337.323a2.834,2.834,0,0,0,2.834,2.834H36.685a2.831,2.831,0,0,0,1.525-5.215,40.634,40.634,0,0,1-3.317-2.414Q22.178,322.267,21.451,303.1H42.613q.906,10.716,7.266,16.347t16.711,5.631q23.791,0,24.248-28.607,0-18.346-13.713-24.977a24.55,24.55,0,0,0-11.08-2.18q-16.62,0-20.981,11.9H23.812l13.987-71.3h67.3V228.9H53.6l-6.721,33.149.363.363q8.81-9.9,25.611-9.9a39.509,39.509,0,0,1,15.713,3.269q14.986,6.448,20.707,22.977A50.87,50.87,0,0,1,112,295.292q0,18.713-10.535,31.969a42.824,42.824,0,0,1-8.055,7.8,2.84,2.84,0,0,0,1.727,5.1h44.417a2.835,2.835,0,0,0,1.6-5.172Q131.765,328.33,127.166,316a57.906,57.906,0,0,1-3.178-18.617H145.24q-.272,11.9,5.9,19.8t17.711,7.9q11.53,0,18.708-5.994t7.174-17.256q0-13.623-10.806-18.891-7.629-3.723-23.25-3.269v-15.8q19.344.636,26.338-10.353,2.451-4.087,2.451-11.262a15.674,15.674,0,0,0-5.631-12.17,18.688,18.688,0,0,0-12.9-5.086q-17.709-.089-22.16,16.893a32.635,32.635,0,0,0-1.09,9.718H126.439q.728-18.981,12.17-31.605t30.971-12.625a47.992,47.992,0,0,1,28.7,8.992q12.443,9.083,12.442,25.793,0,21.343-18.436,27.881v.363a27.213,27.213,0,0,1,17.438,11.08,33.617,33.617,0,0,1,6.265,19.8q-.09,19.709-13.623,30.608a49.023,49.023,0,0,1-4.247,3.063,2.828,2.828,0,0,0,1.547,5.2h43.727a2.831,2.831,0,0,0,1.525-5.215,40.634,40.634,0,0,1-3.317-2.414q-12.715-10.262-13.442-29.425H249.32q.906,10.716,7.266,16.347t16.711,5.631q23.791,0,24.248-28.607,0-18.346-13.713-24.977a24.55,24.55,0,0,0-11.08-2.18q-16.62,0-20.981,11.9H230.52l13.986-71.3h67.3V228.9h-51.5l-6.721,33.149.363.363q8.81-9.9,25.611-9.9a39.509,39.509,0,0,1,15.713,3.269q14.987,6.448,20.707,22.977a50.87,50.87,0,0,1,2.725,16.529q0,18.713-10.535,31.969a42.824,42.824,0,0,1-8.055,7.8,2.84,2.84,0,0,0,1.727,5.1h35.479a2.835,2.835,0,0,0,2.835-2.835V2.835A2.835,2.835,0,0,0,337.323,0Z"/>
      </g>
    </g>
</svg>
