<svg xmlns="http://www.w3.org/2000/svg" width="120mm" height="120mm" viewBox="0 0 340.157 340.157">
  <g id="Zimmernummer">
      <g id="Z-03-618">
        <path fill="#000000" stroke="none" d="M337.323,0H2.834A2.834,2.834,0,0,0,0,2.834V337.323a2.834,2.834,0,0,0,2.834,2.834H48.973a2.834,2.834,0,0,0,1.6-5.167q-1.363-.972-2.614-2.052a38.68,38.68,0,0,1-8.719-10.807,62.358,62.358,0,0,1-5.4-13.488,90.08,90.08,0,0,1-2.77-15.258Q30.3,285.4,30.3,277.4a144.191,144.191,0,0,1,.954-16.483A97.312,97.312,0,0,1,34.475,244.8a70.9,70.9,0,0,1,6.04-14.623,46.671,46.671,0,0,1,9.308-11.9,40.7,40.7,0,0,1,13.123-7.992,48.649,48.649,0,0,1,17.484-2.907,38.928,38.928,0,0,1,26.338,10.08,37.135,37.135,0,0,1,8.355,11.217,35.806,35.806,0,0,1,3.542,14.213H97.5a24.053,24.053,0,0,0-1.726-6.9,19.232,19.232,0,0,0-3.632-5.721,16.454,16.454,0,0,0-5.405-3.859A16.732,16.732,0,0,0,79.794,225q-16.8,0-22.978,15.892a76.785,76.785,0,0,0-4.268,16.848,129.688,129.688,0,0,0-1.272,18.119q0,6.63.59,12.941t1.59,12.125A55.934,55.934,0,0,0,56,310.233a27.252,27.252,0,0,0,4.314,7.721,19.064,19.064,0,0,0,6.629,5.22,21.659,21.659,0,0,0,9.492,1.909,22.693,22.693,0,0,0,10.444-2.272,21.652,21.652,0,0,0,7.356-5.994,25.084,25.084,0,0,0,4.314-8.672,37.2,37.2,0,0,0,1.408-10.219A35.506,35.506,0,0,0,98.5,287.709a24.836,24.836,0,0,0-4.359-8.492,20.994,20.994,0,0,0-7.266-5.765,22.862,22.862,0,0,0-10.172-2.135,22.673,22.673,0,0,0-10.263,2.269,21.76,21.76,0,0,0-7.992,7.176q-.271-4.086-.272-8.084,0-2.812.136-5.494t.318-5.4a29.129,29.129,0,0,1,9.944-5.4,40.237,40.237,0,0,1,12.216-1.771,40.488,40.488,0,0,1,16.938,3.406,37.2,37.2,0,0,1,12.669,9.264,40.986,40.986,0,0,1,7.947,13.758,51,51,0,0,1,2.77,16.984,50.183,50.183,0,0,1-3.134,18.027,41.8,41.8,0,0,1-8.808,14.168,38.465,38.465,0,0,1-5.591,4.819,2.829,2.829,0,0,0,1.661,5.125h61.172a2.834,2.834,0,0,0,2.835-2.834V248.249H137.283V231.538q22.887,0,33.15-11.536a20.281,20.281,0,0,0,4.722-10.08H192.5v127.4a2.834,2.834,0,0,0,2.835,2.834h38.019a2.829,2.829,0,0,0,1.55-5.2,39.552,39.552,0,0,1-3.514-2.566,36.425,36.425,0,0,1-9.9-12.8,41.061,41.061,0,0,1-3.633-17.755,36.583,36.583,0,0,1,1.681-11.354,31.191,31.191,0,0,1,4.768-9.264,29.014,29.014,0,0,1,7.538-6.947,32.966,32.966,0,0,1,9.9-4.223v-.363a26.967,26.967,0,0,1-18.436-26.793,38.863,38.863,0,0,1,2.724-15.121,29.348,29.348,0,0,1,7.675-10.853,34.834,34.834,0,0,1,11.761-6.721,52.719,52.719,0,0,1,14.985-2.725v16.8a20.714,20.714,0,0,0-12.488,6.312q-4.587,5.04-4.586,13.305,0,8.173,4.5,13.123t12.578,5.949v16.166a26.861,26.861,0,0,0-8.764,2.27,21.288,21.288,0,0,0-6.72,4.77,21.062,21.062,0,0,0-4.315,6.992,27.353,27.353,0,0,0,.319,18.982,21.858,21.858,0,0,0,5.13,7.492,22.134,22.134,0,0,0,7.811,4.723,30.787,30.787,0,0,0,19.8,0,22.6,22.6,0,0,0,7.855-4.723,21.484,21.484,0,0,0,5.178-7.539,27.863,27.863,0,0,0,.363-19.025,19.719,19.719,0,0,0-4.314-6.949,22.441,22.441,0,0,0-6.721-4.723,26.549,26.549,0,0,0-8.809-2.27V262.961q8.082-1,12.533-5.857t4.45-13.033q0-8.265-4.5-13.442t-12.487-6.357v-16.8a51.254,51.254,0,0,1,15.848,2.953,33.4,33.4,0,0,1,11.67,7.129,29.772,29.772,0,0,1,7.175,10.9,39.883,39.883,0,0,1,2.452,14.439,28.808,28.808,0,0,1-4.678,16.485,27.461,27.461,0,0,1-13.758,10.308v.363a33.171,33.171,0,0,1,9.762,4.178,30.112,30.112,0,0,1,12.4,15.621,31.554,31.554,0,0,1,1.725,10.535,45.233,45.233,0,0,1-3.451,18.254,37.458,37.458,0,0,1-9.582,13.307,37.913,37.913,0,0,1-3.942,3.034,2.83,2.83,0,0,0,1.576,5.183h42.862a2.834,2.834,0,0,0,2.834-2.834V2.834A2.834,2.834,0,0,0,337.323,0Z"/>
      </g>
    </g>
</svg>
