<svg xmlns="http://www.w3.org/2000/svg" width="120mm" height="120mm" viewBox="0 0 340.158 340.158">
  <g id="Zimmernummer">
      <g id="Z-03-539-R">
        <path fill="#A0552B" stroke="none" d="M337.323,0H2.835A2.835,2.835,0,0,0,0,2.835V337.323a2.835,2.835,0,0,0,2.835,2.835H36.782A2.8,2.8,0,0,0,38.291,335a40.92,40.92,0,0,1-3.4-2.467Q22.178,322.268,21.451,303.1H42.613q.906,10.716,7.266,16.347t16.711,5.631q23.791,0,24.248-28.607,0-18.346-13.713-24.977a24.55,24.55,0,0,0-11.08-2.18q-16.62,0-20.981,11.9H23.812L37.8,209.922h67.3V228.9H53.6l-6.721,33.149.363.363q8.81-9.9,25.611-9.9a39.509,39.509,0,0,1,15.713,3.269q14.986,6.448,20.707,22.977A50.87,50.87,0,0,1,112,295.293q0,18.489-10.286,31.652a2.926,2.926,0,0,1-.573.555l-10.326,7.591a2.806,2.806,0,0,0,1.662,5.067h47.168a2.806,2.806,0,0,0,1.583-5.119q-9.445-6.658-14.062-19.039a57.906,57.906,0,0,1-3.178-18.617H145.24q-.272,11.9,5.9,19.8t17.711,7.9q11.53,0,18.708-5.994t7.174-17.256q0-13.623-10.806-18.891-7.629-3.723-23.25-3.269v-15.8q19.344.636,26.338-10.353,2.451-4.088,2.451-11.262a15.674,15.674,0,0,0-5.631-12.17,18.688,18.688,0,0,0-12.9-5.086q-17.709-.089-22.16,16.893a32.635,32.635,0,0,0-1.09,9.718H126.439q.728-18.981,12.17-31.605t30.971-12.625a47.992,47.992,0,0,1,28.7,8.992q12.443,9.082,12.442,25.793,0,21.343-18.436,27.881v.363a27.213,27.213,0,0,1,17.438,11.08,33.614,33.614,0,0,1,6.265,19.8q-.09,19.548-13.4,30.431a3.065,3.065,0,0,1-.463.31l-5.259,2.858a2.806,2.806,0,0,0,1.34,5.272h45.228a2.8,2.8,0,0,0,1.673-5.051q-1.475-1.115-2.866-2.4a37.07,37.07,0,0,1-8.355-11.217,35.752,35.752,0,0,1-3.543-14.213H251.5a23.977,23.977,0,0,0,1.725,6.9,19.23,19.23,0,0,0,3.632,5.722,16.471,16.471,0,0,0,5.4,3.86,16.748,16.748,0,0,0,6.947,1.408q16.8,0,22.979-15.895a76.732,76.732,0,0,0,4.267-16.847,129.815,129.815,0,0,0,1.272-18.118q0-6.629-.59-12.943t-1.59-12.123a56.1,56.1,0,0,0-2.543-9.31,27.232,27.232,0,0,0-4.315-7.719A19.071,19.071,0,0,0,282.061,227a21.675,21.675,0,0,0-9.491-1.906,22.735,22.735,0,0,0-10.445,2.269,21.667,21.667,0,0,0-7.355,6,25.094,25.094,0,0,0-4.315,8.628,37,37,0,0,0-1.408,10.262,35.446,35.446,0,0,0,1.453,10.217,24.8,24.8,0,0,0,4.359,8.492,20.97,20.97,0,0,0,7.266,5.768,24.807,24.807,0,0,0,20.436-.137,21.751,21.751,0,0,0,7.992-7.174q.271,4.087.271,8.082,0,2.815-.136,5.494t-.317,5.405a29.162,29.162,0,0,1-9.945,5.4,43.486,43.486,0,0,1-29.155-1.635A37.228,37.228,0,0,1,238.6,282.9a41.005,41.005,0,0,1-7.948-13.759,50.968,50.968,0,0,1-2.769-16.983,50.2,50.2,0,0,1,3.133-18.029,41.848,41.848,0,0,1,8.808-14.168,39.648,39.648,0,0,1,13.67-9.264,45.806,45.806,0,0,1,17.709-3.314,50.79,50.79,0,0,1,17.211,2.635,39.689,39.689,0,0,1,12.623,7.218,38.732,38.732,0,0,1,8.719,10.809,62.454,62.454,0,0,1,5.4,13.486,90.153,90.153,0,0,1,2.77,15.258q.772,7.992.773,15.985a144.6,144.6,0,0,1-.955,16.439,97.451,97.451,0,0,1-3.223,16.166A70.942,70.942,0,0,1,308.488,320a46.7,46.7,0,0,1-9.308,11.9,42.241,42.241,0,0,1-3.9,3.139,2.808,2.808,0,0,0,1.58,5.124h40.462a2.835,2.835,0,0,0,2.835-2.835V2.835A2.835,2.835,0,0,0,337.323,0Z"/>
      </g>
    </g>
</svg>
