<svg xmlns="http://www.w3.org/2000/svg" width="120.001mm" height="119.999mm" viewBox="0 0 340.16 340.154">
  <g id="Zimmernummer">
      <g id="Z-03-205-R">
        <path fill="#A0552B" stroke="none" d="M337.325,0H2.835A2.835,2.835,0,0,0,0,2.835V337.32a2.834,2.834,0,0,0,2.835,2.834H23.341a2.837,2.837,0,0,0,2.833-2.739c.011-.313.022-.58.033-.746A51.763,51.763,0,0,1,33.89,311.99a71.5,71.5,0,0,1,20.859-21.05q6.33-4.65,13.22-9.03a104.372,104.372,0,0,0,12.66-9.4,50.18,50.18,0,0,0,9.5-10.89,25.942,25.942,0,0,0,3.91-13.5,36.955,36.955,0,0,0-.84-7.55,19.994,19.994,0,0,0-3.26-7.44,19.276,19.276,0,0,0-6.7-5.78,22.934,22.934,0,0,0-10.672-2.317,20.8,20.8,0,0,0-11.028,2.507,18.861,18.861,0,0,0-6.7,6.89,34.094,34.094,0,0,0-3.72,10.33,74.229,74.229,0,0,0-1.4,12.85H28.489a66.462,66.462,0,0,1,2.89-20.01,44.187,44.187,0,0,1,8.66-15.92,40.27,40.27,0,0,1,13.919-10.53,47.019,47.019,0,0,1,20.2-3.805c6.521.072,13.219,1.015,19.131,3.905a38.111,38.111,0,0,1,12.94,9.87,36.082,36.082,0,0,1,6.99,12.94c2.6,8.882,2.978,18.713-.38,27.46a45.327,45.327,0,0,1-6.51,11.64,66.7,66.7,0,0,1-9.309,9.78q-5.221,4.469-10.8,8.38c-3.73,2.6-7.449,5.09-11.18,7.44s-7.17,4.72-10.33,7.08a60.319,60.319,0,0,0-8.29,7.36,20.817,20.817,0,0,0-4.84,8.1h63.5v16.02a2.834,2.834,0,0,0,2.835,2.834H147.5a1.283,1.283,0,0,0,.649-2.373c-.61-.371-1.2-.761-1.771-1.181a44.111,44.111,0,0,1-13.781-16.391,72.781,72.781,0,0,1-6.7-21.879,155.565,155.565,0,0,1,0-46.18,72.964,72.964,0,0,1,6.7-21.88,44.084,44.084,0,0,1,13.781-16.38q7.56-5.49,18.859-6.27a1.283,1.283,0,0,1,1.371,1.29v15.27a1.28,1.28,0,0,1-1.051,1.279,15.805,15.805,0,0,0-8.01,3.7,27.534,27.534,0,0,0-7.259,10.89,65.979,65.979,0,0,0-3.821,15.92,159.946,159.946,0,0,0,0,38.64,64.617,64.617,0,0,0,3.821,15.92c2.278,5.732,6.208,11.573,12.257,13.732,5.963,2.128,13.319,1.256,18.183-2.932a27.074,27.074,0,0,0,7.359-10.8,64.663,64.663,0,0,0,3.82-15.92,159.946,159.946,0,0,0,0-38.64c-1.175-9.435-3.632-20.331-11.179-26.81a16.148,16.148,0,0,0-7.875-3.68,1.347,1.347,0,0,1-1.1-1.271v-15.3a1.288,1.288,0,0,1,1.371-1.29q11.293.8,18.87,6.27a44.191,44.191,0,0,1,13.779,16.38,73.311,73.311,0,0,1,6.7,21.88,156.848,156.848,0,0,1,0,46.18,73.126,73.126,0,0,1-6.7,21.879A44.218,44.218,0,0,1,191.994,336.6c-.569.419-1.168.808-1.766,1.177a1.284,1.284,0,0,0,.643,2.377h54.445a1.286,1.286,0,0,0,.561-2.443,39.571,39.571,0,0,1-7.573-4.877,36.735,36.735,0,0,1-9.779-12.379,42.137,42.137,0,0,1-4-17.221h21.23q.93,10.6,7.259,16.29t16.761,5.681a25.974,25.974,0,0,0,11.36-2.241,19.812,19.812,0,0,0,7.54-6.14,24.66,24.66,0,0,0,4.089-9.119,49.2,49.2,0,0,0,1.21-11.181,35.3,35.3,0,0,0-1.489-10.33,25.52,25.52,0,0,0-4.46-8.659,21.471,21.471,0,0,0-7.73-5.961,25.786,25.786,0,0,0-11.08-2.23,31.685,31.685,0,0,0-12.571,2.51q-5.863,2.522-8.469,9.4h-21.23l13.96-71.31h67.41v18.991h-51.58l-6.7,33.139.371.381a27.2,27.2,0,0,1,10.89-7.361,36.892,36.892,0,0,1,13.13-2.51,43.764,43.764,0,0,1,17.319,3.26,35.636,35.636,0,0,1,12.85,9.12,39.851,39.851,0,0,1,7.911,13.87,53.908,53.908,0,0,1,2.7,17.32,55.568,55.568,0,0,1-2.509,16.111,44.347,44.347,0,0,1-8.011,15.079,42.039,42.039,0,0,1-12.369,10.27c-.04.02-.1.06-.19.1a1.285,1.285,0,0,0,.558,2.44h44.642a2.834,2.834,0,0,0,2.835-2.834V2.835A2.835,2.835,0,0,0,337.325,0Z"/>
      </g>
    </g>
</svg>
