<svg xmlns="http://www.w3.org/2000/svg" width="120mm" height="120mm" viewBox="0 0 340.157 340.157">
  <g id="Zimmernummer">
      <g id="Z-03-214-M">
        <path fill="#D4AF37" stroke="none" d="M337.323,0H2.835A2.835,2.835,0,0,0,0,2.835V337.323a2.834,2.834,0,0,0,2.834,2.834H35.773a2.821,2.821,0,0,0,2.821-2.645q1.662-27.978,28.495-46.363,6.357-4.63,13.26-8.991,25.519-16.164,25.975-33.785,0-9.264-3.27-13.8a24.436,24.436,0,0,0-7.538-6.9,21.822,21.822,0,0,0-10.807-2.361q-6.632,0-10.808,2.543Q62.73,234.66,62.094,257.909H40.842q0-22.251,11.807-36.237t33.059-13.986q21.252,0,32.877,13.713,8.991,10.99,8.991,26.247,0,20.073-18.255,35.511a149.638,149.638,0,0,1-18.073,13.351Q81.8,302.5,77.08,306.044q-10.809,8.085-13.169,15.439h63.483v15.84a2.834,2.834,0,0,0,2.835,2.834h36.864a2.834,2.834,0,0,0,2.834-2.834V248.555H137.959V231.844q22.886,0,33.149-11.534a20.3,20.3,0,0,0,4.723-10.081h17.346V337.323a2.834,2.834,0,0,0,2.835,2.834h67.76a2.834,2.834,0,0,0,2.835-2.834V235.567h-.454L227.1,292.875h32.7v16.711H210.753v-20.98l55.854-78.377h20.071v82.646h16.711v16.711H286.678v27.737a2.834,2.834,0,0,0,2.835,2.834h47.81a2.834,2.834,0,0,0,2.834-2.834V2.834A2.834,2.834,0,0,0,337.323,0Z"/>
      </g>
    </g>
</svg>
