<svg xmlns="http://www.w3.org/2000/svg" width="120mm" height="120mm" viewBox="0 0 340.157 340.157">
  <g id="Zimmernummer">
      <g id="Z-03-051-R">
        <path fill="#A0552B" stroke="none" d="M337.323,0H2.834A2.834,2.834,0,0,0,0,2.834V337.323a2.834,2.834,0,0,0,2.834,2.834H146.821a2.831,2.831,0,0,0,1.527-5.214q-1.683-1.105-3.244-2.365-12.717-10.263-13.442-29.426h21.161q.907,10.716,7.266,16.348t16.711,5.63q23.793,0,24.249-28.608,0-18.345-13.714-24.976a24.523,24.523,0,0,0-11.08-2.179q-16.62,0-20.98,11.9H134.023L148.01,209.97h67.3v18.982h-51.5l-6.72,33.149.363.363q8.808-9.9,25.611-9.9a39.521,39.521,0,0,1,15.712,3.269q14.987,6.45,20.707,22.978a50.865,50.865,0,0,1,2.725,16.529q0,18.711-10.535,31.969a42.851,42.851,0,0,1-8,7.754,2.837,2.837,0,0,0,1.73,5.093h62.1a2.834,2.834,0,0,0,2.835-2.834V248.3H238.376V231.585q22.887,0,33.149-11.534a20.3,20.3,0,0,0,4.723-10.081H293.6V337.323a2.834,2.834,0,0,0,2.834,2.834h40.894a2.834,2.834,0,0,0,2.834-2.834V2.834A2.834,2.834,0,0,0,337.323,0Z"/>
      </g>
    </g>
</svg>
