<svg xmlns="http://www.w3.org/2000/svg" width="120mm" height="120mm" viewBox="0 0 340.157 340.158">
  <g id="Zimmernummer">
      <g id="Z-03-147-R">
        <path fill="#A0552B" stroke="none" d="M337.323,0H2.835A2.835,2.835,0,0,0,0,2.835V337.323a2.835,2.835,0,0,0,2.835,2.835H64.152a2.835,2.835,0,0,0,2.835-2.835V248.251H35.018v-16.71q22.887,0,33.149-11.534a20.289,20.289,0,0,0,4.723-10.082H90.237v127.4a2.834,2.834,0,0,0,2.834,2.835H159.9a2.835,2.835,0,0,0,2.835-2.835V235.265h-.454L123.23,292.572h32.7v16.711H106.882V288.3l55.855-78.379h20.071v82.647h16.711v16.711H182.808v28.04a2.835,2.835,0,0,0,2.835,2.835h45.044a2.838,2.838,0,0,0,2.821-2.606q3.8-43.305,31.217-84.215a235.352,235.352,0,0,1,18.8-24.429H216.045V209.925h89.1v17.711q-32.515,36.51-43.412,79.377a187.947,187.947,0,0,0-4.936,30.082,2.834,2.834,0,0,0,2.829,3.063h77.7a2.835,2.835,0,0,0,2.834-2.835V2.834A2.834,2.834,0,0,0,337.323,0Z"/>
      </g>
    </g>
</svg>
