<svg xmlns="http://www.w3.org/2000/svg" width="120mm" height="120mm" viewBox="0 0 340.158 340.157">
  <g id="Zimmernummer">
      <g id="Z-03-411">
        <path fill="#000000" stroke="none" d="M337.323,0H2.835A2.835,2.835,0,0,0,0,2.835V337.323a2.834,2.834,0,0,0,2.834,2.834H106.151a2.834,2.834,0,0,0,2.835-2.834V235.26h-.454L69.479,292.567h32.7v16.711H53.132V288.3l55.854-78.378h20.071v82.646h16.711v16.711H129.057v28.045a2.834,2.834,0,0,0,2.835,2.834h48.016a2.834,2.834,0,0,0,2.835-2.834V248.247H150.774V231.536q22.887,0,33.15-11.534a20.3,20.3,0,0,0,4.722-10.081h17.347v127.4a2.834,2.834,0,0,0,2.835,2.834h52.113a2.834,2.834,0,0,0,2.835-2.834V248.247H231.807V231.536q22.887,0,33.15-11.534a20.289,20.289,0,0,0,4.722-10.081h17.347v127.4a2.834,2.834,0,0,0,2.835,2.834h47.462a2.834,2.834,0,0,0,2.835-2.834V2.834A2.834,2.834,0,0,0,337.323,0Z"/>
      </g>
    </g>
</svg>
