<svg xmlns="http://www.w3.org/2000/svg" width="120mm" height="120mm" viewBox="0 0 340.157 340.157">
  <g id="Zimmernummer">
      <g id="Z-03-310-R">
        <path fill="#A0552B" stroke="none" d="M337.323,0H2.834A2.834,2.834,0,0,0,0,2.834V337.323a2.834,2.834,0,0,0,2.834,2.834H49.783a2.828,2.828,0,0,0,1.673-5.111q-9.015-6.613-13.494-18.6a57.907,57.907,0,0,1-3.178-18.618H56.036q-.273,11.9,5.9,19.8t17.71,7.9q11.532,0,18.709-5.994t7.175-17.256q0-13.623-10.808-18.89-7.629-3.724-23.25-3.27v-15.8q19.346.636,26.338-10.353,2.452-4.088,2.452-11.262a15.673,15.673,0,0,0-5.631-12.17,18.692,18.692,0,0,0-12.9-5.086q-17.71-.089-22.16,16.893a32.541,32.541,0,0,0-1.09,9.718H37.236q.726-18.982,12.17-31.606t30.969-12.624a47.993,47.993,0,0,1,28.7,8.991q12.443,9.083,12.442,25.793,0,21.344-18.436,27.882v.364a27.2,27.2,0,0,1,17.437,11.08,33.6,33.6,0,0,1,6.267,19.8q-.091,19.708-13.623,30.607-1.748,1.406-3.586,2.629a2.829,2.829,0,0,0,1.563,5.189h56.59a2.834,2.834,0,0,0,2.835-2.834v-88.63H138.6V231.982q22.887,0,33.15-11.534a20.293,20.293,0,0,0,4.722-10.081h17.347V337.323a2.834,2.834,0,0,0,2.835,2.834h37.99a2.828,2.828,0,0,0,1.778-5.034,35.149,35.149,0,0,1-3.166-2.83,42.86,42.86,0,0,1-8.218-11.761,75.459,75.459,0,0,1-5.132-14.3,105.193,105.193,0,0,1-2.679-15.532q-.773-7.946-.772-15.484,0-6.993.681-14.531a106.06,106.06,0,0,1,2.407-14.85,78.452,78.452,0,0,1,4.677-13.94,44.288,44.288,0,0,1,7.583-11.761,37.778,37.778,0,0,1,11.08-8.4,38.582,38.582,0,0,1,15.167-3.814v17.8q-20.435,3.36-20.434,49.769,0,3.906.181,9.173a104.264,104.264,0,0,0,.955,10.808,79.6,79.6,0,0,0,2.315,10.944,37.566,37.566,0,0,0,4.178,9.627,22.081,22.081,0,0,0,6.63,6.857,17.1,17.1,0,0,0,9.627,2.633q23.7,0,23.7-50.042,0-46.227-20.344-49.769v-17.8a38.587,38.587,0,0,1,15.167,3.814,36.841,36.841,0,0,1,11.035,8.447,46.665,46.665,0,0,1,7.583,11.806,76.373,76.373,0,0,1,4.723,13.942,106.326,106.326,0,0,1,2.407,14.848q.681,7.541.681,14.532,0,7.629-.772,15.667a100.613,100.613,0,0,1-2.724,15.575,75.011,75.011,0,0,1-5.223,14.214,42.746,42.746,0,0,1-8.31,11.67,35.774,35.774,0,0,1-3.034,2.683,2.829,2.829,0,0,0,1.764,5.044h49.169a2.834,2.834,0,0,0,2.834-2.834V2.834A2.834,2.834,0,0,0,337.323,0Z"/>
      </g>
    </g>
</svg>
