<svg xmlns="http://www.w3.org/2000/svg" width="120mm" height="120mm" viewBox="0 0 340.158 340.158">
  <g id="Zimmernummer">
      <g id="Z-03-414-M">
        <path fill="#D4AF37" stroke="none" d="M337.323,0H2.835A2.835,2.835,0,0,0,0,2.835V337.323a2.834,2.834,0,0,0,2.834,2.835H88.307a2.834,2.834,0,0,0,2.834-2.835V235.26h-.454L51.635,292.568h32.7v16.711H35.287V288.3l55.854-78.377h20.072v82.646h16.711v16.711H111.213v28.044a2.834,2.834,0,0,0,2.834,2.835h48.017a2.834,2.834,0,0,0,2.834-2.835V248.248H132.929V231.537q22.887,0,33.15-11.535a20.3,20.3,0,0,0,4.723-10.08h17.346v127.4a2.835,2.835,0,0,0,2.835,2.835h74.271a2.835,2.835,0,0,0,2.835-2.835V235.26h-.454l-39.053,57.308h32.695v16.711H212.234V288.3l55.855-78.377H288.16v82.646h16.711v16.711H288.16v28.044A2.835,2.835,0,0,0,291,340.158h46.328a2.835,2.835,0,0,0,2.835-2.835V2.835A2.835,2.835,0,0,0,337.323,0Z"/>
      </g>
    </g>
</svg>
