<svg xmlns="http://www.w3.org/2000/svg" width="120mm" height="120mm" viewBox="0 0 340.157 340.157">
  <g id="Zimmernummer">
      <g id="Z-03-443-R">
        <path fill="#A0552B" stroke="none" d="M337.323,0H2.835A2.835,2.835,0,0,0,0,2.835V337.323a2.834,2.834,0,0,0,2.834,2.834H74.969a2.834,2.834,0,0,0,2.834-2.834V235.26h-.454L38.3,292.568h32.7v16.711H21.949V288.3L77.8,209.921H97.875v82.647h16.71v16.711H97.875v28.044a2.834,2.834,0,0,0,2.834,2.834h77.613a2.834,2.834,0,0,0,2.835-2.834V235.26H180.7L141.65,292.568h32.695v16.711H125.3V288.3l55.855-78.378h20.071v82.647h16.711v16.711H201.228v28.044a2.834,2.834,0,0,0,2.835,2.834h37.711a2.835,2.835,0,0,0,1.6-5.172q-9.39-6.654-13.988-18.985a57.918,57.918,0,0,1-3.178-18.619h21.251q-.272,11.9,5.9,19.8t17.71,7.9q11.532,0,18.709-6t7.175-17.255q0-13.623-10.808-18.891-7.629-3.724-23.25-3.27v-15.8q19.344.634,26.338-10.354,2.452-4.086,2.452-11.262a15.674,15.674,0,0,0-5.631-12.17,18.693,18.693,0,0,0-12.9-5.085q-17.71-.09-22.161,16.892a32.577,32.577,0,0,0-1.089,9.718H228.66q.726-18.981,12.17-31.606T271.8,207.378a47.987,47.987,0,0,1,28.7,8.992q12.441,9.081,12.442,25.793,0,21.342-18.437,27.881v.364a27.2,27.2,0,0,1,17.438,11.08,33.6,33.6,0,0,1,6.266,19.8q-.09,19.707-13.623,30.606a48.976,48.976,0,0,1-4.247,3.064,2.828,2.828,0,0,0,1.546,5.2h35.439a2.834,2.834,0,0,0,2.834-2.834V2.834A2.834,2.834,0,0,0,337.323,0Z"/>
      </g>
    </g>
</svg>
