<svg xmlns="http://www.w3.org/2000/svg" width="120mm" height="120mm" viewBox="0 0 340.157 340.157">
  <g id="Zimmernummer">
      <g id="Z-03-610-M">
        <path fill="#D4AF37" stroke="none" d="M337.323,0H2.834A2.834,2.834,0,0,0,0,2.834V337.323a2.834,2.834,0,0,0,2.834,2.834H49.473a2.834,2.834,0,0,0,1.6-5.167q-1.363-.972-2.615-2.052a38.659,38.659,0,0,1-8.718-10.807,62.342,62.342,0,0,1-5.405-13.487,90.08,90.08,0,0,1-2.769-15.258Q30.8,285.4,30.8,277.4a144.406,144.406,0,0,1,.954-16.483A97.333,97.333,0,0,1,34.974,244.8a70.948,70.948,0,0,1,6.04-14.622,46.72,46.72,0,0,1,9.309-11.9,40.732,40.732,0,0,1,13.123-7.992,48.666,48.666,0,0,1,17.483-2.906,38.918,38.918,0,0,1,26.338,10.081,37.138,37.138,0,0,1,8.356,11.216,35.819,35.819,0,0,1,3.542,14.214H98a24.083,24.083,0,0,0-1.725-6.9,19.214,19.214,0,0,0-3.633-5.721,16.482,16.482,0,0,0-5.4-3.86A16.769,16.769,0,0,0,80.293,225q-16.8,0-22.977,15.894a76.768,76.768,0,0,0-4.269,16.846,129.871,129.871,0,0,0-1.271,18.119q0,6.63.59,12.942t1.59,12.125a55.826,55.826,0,0,0,2.543,9.308,27.2,27.2,0,0,0,4.314,7.721,19.051,19.051,0,0,0,6.629,5.222,21.672,21.672,0,0,0,9.491,1.907,22.7,22.7,0,0,0,10.444-2.27,21.68,21.68,0,0,0,7.357-6,25.074,25.074,0,0,0,4.313-8.672,37.158,37.158,0,0,0,1.409-10.218A35.5,35.5,0,0,0,99,287.709a24.8,24.8,0,0,0-4.359-8.491,20.981,20.981,0,0,0-7.266-5.767,22.871,22.871,0,0,0-10.171-2.135,22.641,22.641,0,0,0-10.263,2.271,21.741,21.741,0,0,0-7.992,7.175q-.273-4.088-.273-8.083,0-2.814.137-5.495t.317-5.4a29.126,29.126,0,0,1,9.945-5.4,40.2,40.2,0,0,1,12.215-1.772,40.478,40.478,0,0,1,16.939,3.407,37.194,37.194,0,0,1,12.669,9.263,41.008,41.008,0,0,1,7.946,13.759,50.979,50.979,0,0,1,2.771,16.984,50.187,50.187,0,0,1-3.134,18.027,41.821,41.821,0,0,1-8.809,14.168,38.36,38.36,0,0,1-5.591,4.819,2.83,2.83,0,0,0,1.661,5.125h61.173a2.834,2.834,0,0,0,2.834-2.834V248.248H137.783V231.537q22.887,0,33.149-11.534a20.3,20.3,0,0,0,4.723-10.081H193v127.4a2.835,2.835,0,0,0,2.835,2.834h42.285a2.834,2.834,0,0,0,1.685-5.108,35.148,35.148,0,0,1-3.646-3.2,42.917,42.917,0,0,1-8.22-11.761,75.674,75.674,0,0,1-5.131-14.3,105.421,105.421,0,0,1-2.68-15.531q-.771-7.946-.771-15.484,0-6.994.682-14.532a105.921,105.921,0,0,1,2.406-14.849,78.385,78.385,0,0,1,4.678-13.941,44.242,44.242,0,0,1,7.583-11.76,37.752,37.752,0,0,1,11.08-8.4,38.556,38.556,0,0,1,15.167-3.814v17.8q-20.435,3.36-20.435,49.769,0,3.906.182,9.173a103.982,103.982,0,0,0,.954,10.808,79.632,79.632,0,0,0,2.315,10.944,37.631,37.631,0,0,0,4.178,9.627,22.089,22.089,0,0,0,6.63,6.856,17.089,17.089,0,0,0,9.627,2.634q23.7,0,23.7-50.042,0-46.227-20.344-49.769v-17.8a38.565,38.565,0,0,1,15.167,3.814,36.825,36.825,0,0,1,11.035,8.446,46.688,46.688,0,0,1,7.583,11.807,76.271,76.271,0,0,1,4.723,13.942,106.473,106.473,0,0,1,2.407,14.848q.679,7.54.681,14.531,0,7.629-.773,15.667a100.151,100.151,0,0,1-2.724,15.576,74.931,74.931,0,0,1-5.222,14.213,42.77,42.77,0,0,1-8.309,11.67,35.642,35.642,0,0,1-3.517,3.054,2.836,2.836,0,0,0,1.675,5.119h46.832a2.834,2.834,0,0,0,2.834-2.834V2.834A2.834,2.834,0,0,0,337.323,0Z"/>
      </g>
    </g>
</svg>
