<svg xmlns="http://www.w3.org/2000/svg" width="120mm" height="120mm" viewBox="0 0 340.157 340.157">
  <g id="Zimmernummer">
      <g id="Z-03-343-R">
        <path fill="#A0552B" stroke="none" d="M337.323,0H2.835A2.835,2.835,0,0,0,0,2.835V337.323a2.834,2.834,0,0,0,2.834,2.834H36.3a2.835,2.835,0,0,0,1.6-5.172Q28.5,328.33,23.9,316a57.917,57.917,0,0,1-3.178-18.618H41.977q-.273,11.9,5.9,19.8t17.71,7.9q11.532,0,18.709-6t7.175-17.255q0-13.623-10.808-18.891-7.629-3.723-23.25-3.27v-15.8q19.346.636,26.338-10.354,2.452-4.086,2.452-11.262a15.672,15.672,0,0,0-5.631-12.169A18.688,18.688,0,0,0,67.679,225q-17.711-.089-22.16,16.892a32.548,32.548,0,0,0-1.09,9.719H23.177Q23.9,232.625,35.347,220t30.97-12.625a47.993,47.993,0,0,1,28.7,8.993q12.443,9.081,12.442,25.793,0,21.342-18.436,27.881v.363a27.207,27.207,0,0,1,17.437,11.08,33.607,33.607,0,0,1,6.267,19.8q-.091,19.707-13.623,30.607a48.9,48.9,0,0,1-4.251,3.066,2.828,2.828,0,0,0,1.546,5.2h79.429a2.834,2.834,0,0,0,2.834-2.834V235.258h-.454l-39.053,57.307h32.7v16.711H122.807V288.3l55.854-78.379h20.072v82.647h16.71v16.711h-16.71v28.047a2.834,2.834,0,0,0,2.834,2.834H243a2.835,2.835,0,0,0,1.6-5.172Q235.21,328.33,230.61,316a57.917,57.917,0,0,1-3.178-18.618h21.252q-.273,11.9,5.9,19.8t17.71,7.9q11.532,0,18.709-6t7.175-17.255q0-13.623-10.808-18.891-7.629-3.723-23.25-3.27v-15.8q19.345.636,26.338-10.354,2.452-4.086,2.452-11.262a15.672,15.672,0,0,0-5.631-12.169,18.688,18.688,0,0,0-12.9-5.086q-17.711-.089-22.16,16.892a32.548,32.548,0,0,0-1.09,9.719H229.884q.726-18.981,12.17-31.606t30.97-12.625a47.993,47.993,0,0,1,28.7,8.993q12.442,9.081,12.442,25.793,0,21.342-18.436,27.881v.363a27.207,27.207,0,0,1,17.437,11.08,33.607,33.607,0,0,1,6.267,19.8q-.091,19.707-13.623,30.607a48.9,48.9,0,0,1-4.251,3.066,2.828,2.828,0,0,0,1.546,5.2h34.218a2.834,2.834,0,0,0,2.834-2.834V2.834A2.834,2.834,0,0,0,337.323,0Z"/>
      </g>
    </g>
</svg>
