<svg xmlns="http://www.w3.org/2000/svg" width="120mm" height="120mm" viewBox="0 0 340.157 340.157">
  <g id="Zimmernummer">
      <g id="Z-03-215">
        <path fill="#000000" stroke="none" d="M337.323,0H2.835A2.835,2.835,0,0,0,0,2.835V337.323a2.834,2.834,0,0,0,2.834,2.834H31.078a2.822,2.822,0,0,0,2.822-2.645q1.66-27.978,28.5-46.363,6.355-4.63,13.26-8.991,25.52-16.164,25.974-33.785,0-9.264-3.269-13.8a24.447,24.447,0,0,0-7.538-6.9,21.829,21.829,0,0,0-10.808-2.361q-6.63,0-10.808,2.543Q58.036,234.66,57.4,257.909H36.148q0-22.251,11.806-36.237t33.059-13.986q21.252,0,32.877,13.713,8.991,10.99,8.991,26.247,0,20.073-18.255,35.511a149.559,149.559,0,0,1-18.073,13.351q-9.447,5.994-14.168,9.536-10.809,8.085-13.169,15.439H122.7v15.84a2.834,2.834,0,0,0,2.834,2.834h40.584a2.834,2.834,0,0,0,2.834-2.834V248.555H136.984V231.844q22.887,0,33.149-11.534a20.3,20.3,0,0,0,4.723-10.081H192.2V337.323a2.835,2.835,0,0,0,2.835,2.834h35.314a2.834,2.834,0,0,0,1.54-5.21q-1.479-.995-2.862-2.111-12.717-10.263-13.442-29.426h21.161q.908,10.717,7.266,16.348t16.711,5.631q23.793,0,24.249-28.609,0-18.343-13.714-24.975a24.51,24.51,0,0,0-11.08-2.18q-16.62,0-20.979,11.9H217.949l13.986-71.293h67.3V229.21H247.738l-6.721,33.149.363.364q8.808-9.9,25.612-9.9a39.5,39.5,0,0,1,15.711,3.27q14.987,6.45,20.707,22.977a50.867,50.867,0,0,1,2.725,16.53q0,18.709-10.535,31.968a43.149,43.149,0,0,1-7.684,7.529,2.831,2.831,0,0,0,1.756,5.06h47.651a2.834,2.834,0,0,0,2.834-2.834V2.834A2.834,2.834,0,0,0,337.323,0Z"/>
      </g>
    </g>
</svg>
