<svg xmlns="http://www.w3.org/2000/svg" width="120mm" height="120mm" viewBox="0 0 340.158 340.157">
  <g id="Zimmernummer">
      <g id="Z-03-325-M">
        <path fill="#D4AF37" stroke="none" d="M337.323,0H2.834A2.834,2.834,0,0,0,0,2.834V337.323a2.834,2.834,0,0,0,2.834,2.834H42.085a2.835,2.835,0,0,0,1.6-5.17q-9.372-6.654-13.965-18.968A57.918,57.918,0,0,1,26.542,297.4H47.794q-.271,11.9,5.9,19.8t17.71,7.9q11.532,0,18.709-6t7.174-17.255q0-13.623-10.807-18.891-7.629-3.723-23.25-3.27v-15.8q19.344.636,26.338-10.354,2.451-4.086,2.452-11.262A15.674,15.674,0,0,0,86.393,230.1a18.69,18.69,0,0,0-12.9-5.086q-17.709-.09-22.16,16.892a32.577,32.577,0,0,0-1.09,9.718H28.994q.726-18.981,12.17-31.606T72.134,207.4a47.99,47.99,0,0,1,28.7,8.992q12.442,9.081,12.443,25.793,0,21.342-18.437,27.881v.364a27.205,27.205,0,0,1,17.438,11.08,33.611,33.611,0,0,1,6.266,19.8q-.092,19.707-13.623,30.606a48.558,48.558,0,0,1-4.219,3.045,2.828,2.828,0,0,0,1.547,5.2h22.739a2.821,2.821,0,0,0,2.822-2.658q1.545-28.164,28.519-46.638,6.355-4.632,13.26-8.991,25.52-16.164,25.974-33.785,0-9.264-3.269-13.805a24.447,24.447,0,0,0-7.538-6.9,21.829,21.829,0,0,0-10.808-2.361q-6.63,0-10.808,2.543-11.171,6.811-11.806,30.061H130.081q0-22.251,11.807-36.237T174.946,207.4q21.252,0,32.877,13.714,8.991,10.99,8.991,26.247,0,20.073-18.255,35.511a149.665,149.665,0,0,1-18.073,13.351q-9.447,5.994-14.168,9.536-10.809,8.085-13.169,15.439h63.484v16.128a2.834,2.834,0,0,0,2.834,2.834h22.364a2.831,2.831,0,0,0,1.525-5.215q-1.706-1.118-3.288-2.394-12.715-10.263-13.441-29.426h21.161q.906,10.717,7.266,16.348t16.71,5.631q23.794,0,24.249-28.609,0-18.344-13.713-24.975a24.51,24.51,0,0,0-11.08-2.18q-16.622,0-20.98,11.9H228.988l13.986-71.294h67.3v18.982H258.777l-6.721,33.149.364.364q8.808-9.9,25.611-9.9a39.509,39.509,0,0,1,15.712,3.27q14.985,6.448,20.707,22.977a50.894,50.894,0,0,1,2.725,16.53q0,18.71-10.536,31.968a42.8,42.8,0,0,1-8.032,7.78,2.839,2.839,0,0,0,1.729,5.1h36.987a2.835,2.835,0,0,0,2.835-2.835V2.834A2.834,2.834,0,0,0,337.323,0Z"/>
      </g>
    </g>
</svg>
