<svg xmlns="http://www.w3.org/2000/svg" width="120mm" height="120mm" viewBox="0 0 340.157 340.157">
  <g id="Zimmernummer">
      <g id="Z-03-148-R">
        <path fill="#A0552B" stroke="none" d="M337.323,0H2.835A2.835,2.835,0,0,0,0,2.835V337.323a2.834,2.834,0,0,0,2.834,2.834H63.108a2.834,2.834,0,0,0,2.834-2.834V248.245H33.974V231.534q22.886,0,33.149-11.534a20.3,20.3,0,0,0,4.723-10.082H89.192v127.4a2.834,2.834,0,0,0,2.835,2.834h66.831a2.834,2.834,0,0,0,2.834-2.834V235.257h-.454l-39.052,57.308h32.695v16.711H105.838V288.3l55.854-78.378h20.072v82.647h16.711v16.711H181.764v28.047a2.834,2.834,0,0,0,2.834,2.834H229.56A2.833,2.833,0,0,0,231.179,335c-1.245-.859-2.413-1.75-3.464-2.61a36.425,36.425,0,0,1-9.9-12.805,41.058,41.058,0,0,1-3.633-17.755,36.576,36.576,0,0,1,1.68-11.353,31.215,31.215,0,0,1,4.768-9.264,29.034,29.034,0,0,1,7.538-6.948,32.945,32.945,0,0,1,9.9-4.222v-.364a26.969,26.969,0,0,1-18.437-26.792,38.868,38.868,0,0,1,2.725-15.122,29.331,29.331,0,0,1,7.674-10.852,34.827,34.827,0,0,1,11.761-6.721,52.726,52.726,0,0,1,14.986-2.725v16.8a20.712,20.712,0,0,0-12.488,6.313q-4.587,5.039-4.586,13.3,0,8.174,4.5,13.123t12.579,5.95v16.166a26.861,26.861,0,0,0-8.764,2.27,21.3,21.3,0,0,0-6.721,4.769,21.053,21.053,0,0,0-4.314,6.992,27.36,27.36,0,0,0,.318,18.982,21.842,21.842,0,0,0,5.131,7.492,22.125,22.125,0,0,0,7.811,4.723,30.787,30.787,0,0,0,19.8,0,22.628,22.628,0,0,0,7.856-4.723,21.466,21.466,0,0,0,5.176-7.538,27.858,27.858,0,0,0,.364-19.026,19.7,19.7,0,0,0-4.314-6.948,22.448,22.448,0,0,0-6.721-4.723,26.555,26.555,0,0,0-8.81-2.27V262.958q8.084-1,12.534-5.858t4.45-13.033q0-8.264-4.5-13.442t-12.488-6.357v-16.8a51.255,51.255,0,0,1,15.849,2.952,33.413,33.413,0,0,1,11.67,7.129,29.8,29.8,0,0,1,7.175,10.9,39.913,39.913,0,0,1,2.452,14.44,28.82,28.82,0,0,1-4.677,16.484,27.465,27.465,0,0,1-13.76,10.308v.364a33.2,33.2,0,0,1,9.764,4.177,30.109,30.109,0,0,1,12.4,15.621,31.533,31.533,0,0,1,1.726,10.535,45.255,45.255,0,0,1-3.451,18.255A37.012,37.012,0,0,1,289.2,334.974a2.831,2.831,0,0,0,1.576,5.183h46.543a2.834,2.834,0,0,0,2.834-2.834V2.834A2.834,2.834,0,0,0,337.323,0Z"/>
      </g>
    </g>
</svg>
