<svg xmlns="http://www.w3.org/2000/svg" width="120mm" height="120mm" viewBox="0 0 340.157 340.157">
  <g id="Zimmernummer">
      <g id="Z-03-420-E">
        <path fill="#A09f9d" stroke="none" d="M337.323,0H2.835A2.835,2.835,0,0,0,0,2.835V337.323a2.834,2.834,0,0,0,2.834,2.834H73.608a2.834,2.834,0,0,0,2.835-2.834V235.261h-.454L36.936,292.568h32.7v16.711H20.589V288.3l55.854-78.378H96.514v82.646h16.711v16.711H96.514v28.044a2.835,2.835,0,0,0,2.835,2.834h24.674a2.821,2.821,0,0,0,2.823-2.658q1.536-28.178,28.52-46.656,6.355-4.632,13.26-8.991,25.52-16.165,25.974-33.786,0-9.263-3.269-13.8a24.44,24.44,0,0,0-7.538-6.9A21.826,21.826,0,0,0,172.985,225q-6.63,0-10.808,2.543-11.171,6.811-11.806,30.062H129.119q0-22.251,11.807-36.238t33.058-13.986q21.252,0,32.877,13.714,8.991,10.989,8.991,26.247,0,20.073-18.255,35.511a149.579,149.579,0,0,1-18.073,13.35q-9.447,5.994-14.168,9.536-10.809,8.085-13.169,15.44h63.484v16.146a2.834,2.834,0,0,0,2.834,2.834h29.826a2.834,2.834,0,0,0,1.685-5.109,34.969,34.969,0,0,1-3.648-3.2,42.939,42.939,0,0,1-8.22-11.761,75.674,75.674,0,0,1-5.131-14.3,105.288,105.288,0,0,1-2.679-15.531q-.772-7.946-.772-15.484,0-6.994.682-14.532a106.067,106.067,0,0,1,2.406-14.849,78.385,78.385,0,0,1,4.678-13.941,44.266,44.266,0,0,1,7.583-11.76,37.765,37.765,0,0,1,11.08-8.4,38.561,38.561,0,0,1,15.167-3.814v17.8q-20.434,3.36-20.435,49.769,0,3.906.182,9.173a103.982,103.982,0,0,0,.954,10.808,79.78,79.78,0,0,0,2.315,10.944,37.631,37.631,0,0,0,4.178,9.627,22.089,22.089,0,0,0,6.63,6.856,17.089,17.089,0,0,0,9.627,2.634q23.7,0,23.7-50.042,0-46.227-20.344-49.769v-17.8a38.561,38.561,0,0,1,15.167,3.814,36.842,36.842,0,0,1,11.036,8.446,46.743,46.743,0,0,1,7.583,11.807,76.269,76.269,0,0,1,4.722,13.942,106.326,106.326,0,0,1,2.407,14.848q.681,7.54.681,14.531,0,7.629-.772,15.667a100.27,100.27,0,0,1-2.725,15.576,74.931,74.931,0,0,1-5.222,14.213,42.749,42.749,0,0,1-8.309,11.67,35.689,35.689,0,0,1-3.518,3.054,2.836,2.836,0,0,0,1.675,5.119h36.625a2.834,2.834,0,0,0,2.834-2.834V2.834A2.834,2.834,0,0,0,337.323,0Z"/>
      </g>
    </g>
</svg>
