<svg xmlns="http://www.w3.org/2000/svg" width="120mm" height="120mm" viewBox="0 0 340.158 340.157">
  <g id="Zimmernummer">
      <g id="Z-03-220-M">
        <path fill="#D4AF37" stroke="none" d="M337.323,0H2.835A2.835,2.835,0,0,0,0,2.835V337.323a2.834,2.834,0,0,0,2.835,2.834H22.09a2.821,2.821,0,0,0,2.821-2.645q1.662-27.978,28.5-46.363,6.356-4.63,13.259-8.991,25.52-16.164,25.975-33.785,0-9.264-3.27-13.8a24.447,24.447,0,0,0-7.538-6.9,21.825,21.825,0,0,0-10.807-2.361q-6.631,0-10.808,2.543-11.171,6.811-11.807,30.061H27.159q0-22.251,11.807-36.237t33.059-13.986q21.252,0,32.877,13.713,8.991,10.99,8.991,26.247,0,20.073-18.255,35.511a149.638,149.638,0,0,1-18.073,13.351Q68.118,302.5,63.4,306.044q-10.809,8.085-13.169,15.439h63.483v15.84a2.834,2.834,0,0,0,2.835,2.834h6.107a2.822,2.822,0,0,0,2.822-2.645q1.66-27.978,28.5-46.363,6.355-4.63,13.26-8.991,25.518-16.164,25.974-33.785,0-9.264-3.269-13.8a24.447,24.447,0,0,0-7.538-6.9,21.829,21.829,0,0,0-10.808-2.361q-6.631,0-10.807,2.543-11.172,6.811-11.807,30.061H127.723q0-22.251,11.807-36.237t33.058-13.986q21.252,0,32.877,13.713,8.991,10.99,8.991,26.247,0,20.073-18.255,35.511a149.559,149.559,0,0,1-18.073,13.351q-9.447,5.994-14.168,9.536-10.809,8.085-13.169,15.439h63.484v15.84a2.834,2.834,0,0,0,2.834,2.834H243.76a2.828,2.828,0,0,0,1.762-5.047,34.3,34.3,0,0,1-3.34-2.956,42.876,42.876,0,0,1-8.22-11.76,75.674,75.674,0,0,1-5.131-14.3,105.2,105.2,0,0,1-2.679-15.531q-.772-7.946-.772-15.485,0-6.993.681-14.531a106.083,106.083,0,0,1,2.407-14.85,78.452,78.452,0,0,1,4.677-13.94,44.291,44.291,0,0,1,7.584-11.761,37.762,37.762,0,0,1,11.08-8.4,38.573,38.573,0,0,1,15.167-3.815v17.8q-20.434,3.36-20.435,49.77,0,3.9.182,9.173a103.957,103.957,0,0,0,.953,10.807,79.721,79.721,0,0,0,2.316,10.944,37.566,37.566,0,0,0,4.178,9.627,22.07,22.07,0,0,0,6.63,6.857,17.086,17.086,0,0,0,9.627,2.634q23.7,0,23.7-50.042,0-46.228-20.344-49.77v-17.8a38.578,38.578,0,0,1,15.167,3.815,36.838,36.838,0,0,1,11.035,8.446,46.729,46.729,0,0,1,7.584,11.807,76.36,76.36,0,0,1,4.722,13.941,106.167,106.167,0,0,1,2.406,14.849q.683,7.539.682,14.531,0,7.629-.772,15.667a100.257,100.257,0,0,1-2.725,15.575,74.984,74.984,0,0,1-5.222,14.214,42.746,42.746,0,0,1-8.31,11.67,36.032,36.032,0,0,1-3.2,2.818,2.828,2.828,0,0,0,1.759,5.048h40.414a2.835,2.835,0,0,0,2.835-2.834V2.834A2.835,2.835,0,0,0,337.323,0Z"/>
      </g>
    </g>
</svg>
