<svg xmlns="http://www.w3.org/2000/svg" width="120.001mm" height="119.997mm" viewBox="0 0 340.159 340.149">
  <g id="Zimmernummer">
      <g id="Z-03-304-M">
        <path fill="#D4AF37" stroke="none" d="M0,2.835v334.48a2.834,2.834,0,0,0,2.835,2.834h47.02a1.19,1.19,0,0,0,.506-2.253l-.06-.031c-.28-.139-.57-.29-.85-.429a36.5,36.5,0,0,1-9.31-7.021,39.762,39.762,0,0,1-8.66-14.34,58.277,58.277,0,0,1-3.16-18.62h21.22q-.375,11.912,5.87,19.83t18.71,7.91q10.62,0,17.79-6.049,7.155-6.046,7.17-17.221,0-7.635-2.98-12.11a19.383,19.383,0,0,0-7.82-6.79,31.745,31.745,0,0,0-10.9-2.89A103.5,103.5,0,0,0,65,279.766v-15.83a48.966,48.966,0,0,0,10.43-.741,29.108,29.108,0,0,0,9.31-3.259,18.189,18.189,0,0,0,6.61-6.431,18.922,18.922,0,0,0,2.51-10.05q0-8.385-5.68-13.41t-14.62-5.029a19.209,19.209,0,0,0-16.47,8.29,26.973,26.973,0,0,0-4.01,8.569,32.259,32.259,0,0,0-1.12,9.771H30.741a53.548,53.548,0,0,1,3.53-17.59A44.283,44.283,0,0,1,42.931,220a38.36,38.36,0,0,1,13.32-9.309,44.378,44.378,0,0,1,17.69-3.361,51.321,51.321,0,0,1,14.99,2.24,43.808,43.808,0,0,1,13.22,6.52,31.337,31.337,0,0,1,12.94,26.061,32.493,32.493,0,0,1-4.47,17.229q-4.47,7.35-13.97,10.71v.37a26.9,26.9,0,0,1,17.41,11.08q6.24,8.851,6.24,21.51a36.394,36.394,0,0,1-3.72,16.66,37.965,37.965,0,0,1-10.06,12.481,44.5,44.5,0,0,1-7.95,5.12c-.43.21-.86.42-1.29.619l-.06.03a1.159,1.159,0,0,0,.492,2.194h54.035a1.283,1.283,0,0,0,.649-2.373c-.61-.371-1.2-.76-1.771-1.181a44.125,44.125,0,0,1-13.781-16.39,72.824,72.824,0,0,1-6.7-21.88,155.559,155.559,0,0,1,0-46.179,72.984,72.984,0,0,1,6.7-21.88,44.089,44.089,0,0,1,13.781-16.381q7.56-5.488,18.86-6.27a1.282,1.282,0,0,1,1.37,1.29v15.27a1.281,1.281,0,0,1-1.051,1.28,15.8,15.8,0,0,0-8.009,3.7,27.554,27.554,0,0,0-7.26,10.89,66.028,66.028,0,0,0-3.82,15.92,159.845,159.845,0,0,0,0,38.64,64.652,64.652,0,0,0,3.82,15.92c2.277,5.733,6.208,11.573,12.257,13.733,5.963,2.128,13.319,1.256,18.183-2.933a27.076,27.076,0,0,0,7.36-10.8,64.652,64.652,0,0,0,3.82-15.92,160.048,160.048,0,0,0,0-38.64c-1.176-9.435-3.633-20.33-11.18-26.81a16.148,16.148,0,0,0-7.875-3.68,1.345,1.345,0,0,1-1.095-1.27v-15.3a1.287,1.287,0,0,1,1.37-1.29q11.295.8,18.87,6.27a44.179,44.179,0,0,1,13.78,16.381,73.272,73.272,0,0,1,6.7,21.88,156.842,156.842,0,0,1,0,46.179,73.112,73.112,0,0,1-6.7,21.88,44.216,44.216,0,0,1-13.78,16.39c-.569.419-1.168.808-1.766,1.177a1.284,1.284,0,0,0,.643,2.377h80.514a2.834,2.834,0,0,0,2.834-2.834V235.255h-.379l-39.1,57.36h34.331v16.75H222.6v-21.04l55.87-78.39h20.11v82.68h16.75v16.75h-16.75v27.95a2.834,2.834,0,0,0,2.835,2.834h35.909a2.834,2.834,0,0,0,2.834-2.834V2.835A2.834,2.834,0,0,0,337.325,0H2.835A2.835,2.835,0,0,0,0,2.835Z"/>
      </g>
    </g>
</svg>
