<svg xmlns="http://www.w3.org/2000/svg" width="120.001mm" height="120.001mm" viewBox="0 0 340.16 340.16">
  <g id="Zimmernummer">
      <g id="Z-03-017-E">
        <path fill="#A09f9d" stroke="none" d="M337.325,0H2.834A2.834,2.834,0,0,0,0,2.834V337.325a2.835,2.835,0,0,0,2.835,2.835h166.49a2.835,2.835,0,0,0,2.835-2.835V248.43H140.13V231.67a74.307,74.307,0,0,0,13.03-1.12,40.581,40.581,0,0,0,11.46-3.72,29.454,29.454,0,0,0,8.75-6.71,20.561,20.561,0,0,0,4.75-10.05h17.31V337.325a2.834,2.834,0,0,0,2.834,2.835h36.858a2.84,2.84,0,0,0,2.829-2.655c.009-.132.017-.242.024-.321a155.577,155.577,0,0,1,5.055-27.434,187.052,187.052,0,0,1,10.8-29.24,201.246,201.246,0,0,1,15.36-27.19,231.528,231.528,0,0,1,18.8-24.39H220.4V209.94h89.2v17.69a232.055,232.055,0,0,0-18.63,23.93,173.633,173.633,0,0,0-14.61,26.25,177.894,177.894,0,0,0-10.15,29.33,189.346,189.346,0,0,0-4.975,30.123v.016a2.657,2.657,0,0,0,2.647,2.881h73.444a2.835,2.835,0,0,0,2.835-2.835V2.835A2.835,2.835,0,0,0,337.325,0Z"/>
      </g>
    </g>
</svg>
