<svg xmlns="http://www.w3.org/2000/svg" width="120mm" height="120mm" viewBox="0 0 340.158 340.157">
  <g id="Zimmernummer">
      <g id="Z-03-640-E">
        <path fill="#A09f9d" stroke="none" d="M337.323,0H2.835A2.835,2.835,0,0,0,0,2.835V337.323a2.834,2.834,0,0,0,2.834,2.834H40.173a2.834,2.834,0,0,0,1.6-5.167q-1.365-.972-2.615-2.052a38.663,38.663,0,0,1-8.719-10.807,62.34,62.34,0,0,1-5.4-13.487,90.08,90.08,0,0,1-2.77-15.258Q21.5,285.4,21.5,277.4a144.178,144.178,0,0,1,.954-16.483A97.331,97.331,0,0,1,25.674,244.8a71,71,0,0,1,6.04-14.622,46.742,46.742,0,0,1,9.309-11.9,40.732,40.732,0,0,1,13.123-7.992,48.669,48.669,0,0,1,17.483-2.906A38.918,38.918,0,0,1,97.967,217.46a37.122,37.122,0,0,1,8.356,11.216,35.8,35.8,0,0,1,3.542,14.214H88.7a24.117,24.117,0,0,0-1.726-6.9,19.214,19.214,0,0,0-3.633-5.721,16.471,16.471,0,0,0-5.4-3.86A16.764,16.764,0,0,0,70.994,225q-16.8,0-22.978,15.894a76.711,76.711,0,0,0-4.268,16.846,129.72,129.72,0,0,0-1.272,18.119q0,6.63.59,12.942t1.59,12.125a55.826,55.826,0,0,0,2.543,9.308,27.225,27.225,0,0,0,4.314,7.721,19.051,19.051,0,0,0,6.629,5.222,21.672,21.672,0,0,0,9.491,1.907,22.709,22.709,0,0,0,10.445-2.27,21.676,21.676,0,0,0,7.356-6,25.076,25.076,0,0,0,4.314-8.672,37.2,37.2,0,0,0,1.408-10.218A35.537,35.537,0,0,0,89.7,287.709a24.815,24.815,0,0,0-4.36-8.491,20.987,20.987,0,0,0-7.265-5.767,22.878,22.878,0,0,0-10.172-2.135,22.641,22.641,0,0,0-10.263,2.271,21.748,21.748,0,0,0-7.992,7.175q-.273-4.088-.273-8.083,0-2.814.137-5.495t.318-5.4a29.112,29.112,0,0,1,9.944-5.4,40.2,40.2,0,0,1,12.216-1.772,40.473,40.473,0,0,1,16.938,3.407,37.194,37.194,0,0,1,12.669,9.263,41.008,41.008,0,0,1,7.946,13.759,50.979,50.979,0,0,1,2.771,16.984,50.187,50.187,0,0,1-3.134,18.027,41.834,41.834,0,0,1-8.808,14.168,38.42,38.42,0,0,1-5.592,4.819,2.83,2.83,0,0,0,1.662,5.125h79.609a2.834,2.834,0,0,0,2.834-2.834V235.261h-.454l-39.053,57.307h32.7v16.711H123.034V288.3l55.854-78.378h20.071v82.646H215.67v16.711H198.959v28.044a2.835,2.835,0,0,0,2.835,2.834h45.627a2.834,2.834,0,0,0,1.685-5.108,35.159,35.159,0,0,1-3.647-3.2,42.914,42.914,0,0,1-8.219-11.761,75.536,75.536,0,0,1-5.131-14.3,105.29,105.29,0,0,1-2.68-15.531q-.771-7.946-.771-15.484,0-6.994.681-14.532a105.923,105.923,0,0,1,2.407-14.849,78.463,78.463,0,0,1,4.677-13.941,44.266,44.266,0,0,1,7.583-11.76,37.778,37.778,0,0,1,11.08-8.4,38.565,38.565,0,0,1,15.167-3.814v17.8q-20.434,3.36-20.434,49.769,0,3.906.181,9.173a104.264,104.264,0,0,0,.955,10.808,79.632,79.632,0,0,0,2.315,10.944,37.6,37.6,0,0,0,4.178,9.627,22.089,22.089,0,0,0,6.63,6.856,17.089,17.089,0,0,0,9.627,2.634q23.7,0,23.7-50.042,0-46.227-20.344-49.769v-17.8a38.57,38.57,0,0,1,15.167,3.814,36.838,36.838,0,0,1,11.035,8.446,46.688,46.688,0,0,1,7.583,11.807,76.347,76.347,0,0,1,4.723,13.942,106.473,106.473,0,0,1,2.407,14.848q.679,7.54.681,14.531,0,7.629-.773,15.667a100.269,100.269,0,0,1-2.724,15.576,74.931,74.931,0,0,1-5.222,14.213,42.752,42.752,0,0,1-8.31,11.67,35.658,35.658,0,0,1-3.516,3.055,2.836,2.836,0,0,0,1.676,5.118h37.531a2.835,2.835,0,0,0,2.835-2.835V2.834A2.834,2.834,0,0,0,337.323,0Z"/>
      </g>
    </g>
</svg>
