<svg xmlns="http://www.w3.org/2000/svg" width="120mm" height="120mm" viewBox="0 0 340.158 340.157">
  <g id="Zimmernummer">
      <g id="Z-03-631-E">
        <path fill="#A09f9d" stroke="none" d="M337.323,0H2.835A2.835,2.835,0,0,0,0,2.835V337.323a2.834,2.834,0,0,0,2.834,2.834H55.977a2.834,2.834,0,0,0,1.6-5.167q-1.365-.974-2.616-2.053a38.68,38.68,0,0,1-8.719-10.807,62.442,62.442,0,0,1-5.4-13.487,90.08,90.08,0,0,1-2.77-15.258q-.773-7.99-.771-15.985a144.175,144.175,0,0,1,.953-16.483A97.334,97.334,0,0,1,41.478,244.8a70.835,70.835,0,0,1,6.039-14.622,46.716,46.716,0,0,1,9.308-11.9,40.775,40.775,0,0,1,13.123-7.992,48.681,48.681,0,0,1,17.485-2.906,38.928,38.928,0,0,1,26.338,10.081,37.135,37.135,0,0,1,8.355,11.216,35.8,35.8,0,0,1,3.541,14.214h-21.16a24.085,24.085,0,0,0-1.727-6.9,19.2,19.2,0,0,0-3.633-5.721,16.471,16.471,0,0,0-5.4-3.86A16.764,16.764,0,0,0,86.8,225q-16.8,0-22.977,15.894a76.712,76.712,0,0,0-4.269,16.846,129.872,129.872,0,0,0-1.272,18.119q0,6.63.59,12.942t1.59,12.125A55.923,55.923,0,0,0,63,310.231a27.225,27.225,0,0,0,4.314,7.721,19.069,19.069,0,0,0,6.629,5.222,21.678,21.678,0,0,0,9.493,1.907,22.7,22.7,0,0,0,10.443-2.27,21.67,21.67,0,0,0,7.357-6,25.056,25.056,0,0,0,4.313-8.672,37.152,37.152,0,0,0,1.408-10.218,35.473,35.473,0,0,0-1.453-10.218,24.831,24.831,0,0,0-4.359-8.491,20.99,20.99,0,0,0-7.266-5.767,22.872,22.872,0,0,0-10.172-2.135,22.643,22.643,0,0,0-10.262,2.271,21.741,21.741,0,0,0-7.992,7.175q-.273-4.088-.273-8.083,0-2.814.136-5.5t.319-5.4a29.107,29.107,0,0,1,9.943-5.4A40.213,40.213,0,0,1,87.8,254.6a40.468,40.468,0,0,1,16.937,3.407,37.188,37.188,0,0,1,12.67,9.263,41.008,41.008,0,0,1,7.946,13.759,50.979,50.979,0,0,1,2.771,16.984,50.187,50.187,0,0,1-3.135,18.027,41.834,41.834,0,0,1-8.808,14.168,38.374,38.374,0,0,1-5.593,4.82,2.829,2.829,0,0,0,1.661,5.125h43.43a2.835,2.835,0,0,0,1.6-5.172q-9.39-6.656-13.988-18.986a57.907,57.907,0,0,1-3.178-18.618H161.36q-.272,11.9,5.9,19.8t17.711,7.9q11.531,0,18.709-5.994t7.173-17.256q0-13.623-10.806-18.891-7.629-3.723-23.25-3.269v-15.8q19.344.636,26.338-10.353,2.451-4.087,2.451-11.262a15.673,15.673,0,0,0-5.631-12.17,18.688,18.688,0,0,0-12.9-5.086q-17.711-.089-22.161,16.893a32.6,32.6,0,0,0-1.089,9.717H142.56q.726-18.981,12.169-31.6T185.7,207.378a47.989,47.989,0,0,1,28.7,8.991q12.442,9.083,12.442,25.793,0,21.344-18.436,27.882v.363a27.206,27.206,0,0,1,17.438,11.08,33.608,33.608,0,0,1,6.265,19.8q-.09,19.709-13.623,30.607a48.489,48.489,0,0,1-4.237,3.05,2.844,2.844,0,0,0,1.579,5.214h60.947a2.834,2.834,0,0,0,2.834-2.834V248.247H247.64V231.536q22.885,0,33.148-11.534a20.29,20.29,0,0,0,4.723-10.081h17.347v127.4a2.835,2.835,0,0,0,2.835,2.834h31.63a2.834,2.834,0,0,0,2.835-2.834V2.834A2.834,2.834,0,0,0,337.323,0Z"/>
      </g>
    </g>
</svg>
