<svg xmlns="http://www.w3.org/2000/svg" width="120mm" height="120mm" viewBox="0 0 340.158 340.157">
  <g id="Zimmernummer">
      <g id="Z-03-630-M">
        <path fill="#D4AF37" stroke="none" d="M337.323,0H2.835A2.835,2.835,0,0,0,0,2.835V337.323a2.834,2.834,0,0,0,2.834,2.834H40.172a2.834,2.834,0,0,0,1.6-5.167q-1.364-.972-2.615-2.052a38.68,38.68,0,0,1-8.719-10.807,62.442,62.442,0,0,1-5.4-13.487,89.981,89.981,0,0,1-2.769-15.258Q21.5,285.4,21.5,277.4a144.175,144.175,0,0,1,.953-16.483A97.334,97.334,0,0,1,25.675,244.8a70.89,70.89,0,0,1,6.039-14.622,46.738,46.738,0,0,1,9.308-11.9,40.769,40.769,0,0,1,13.124-7.992,48.671,48.671,0,0,1,17.484-2.906A38.928,38.928,0,0,1,97.968,217.46a37.135,37.135,0,0,1,8.355,11.216,35.8,35.8,0,0,1,3.541,14.214H88.7a24.084,24.084,0,0,0-1.726-6.9,19.234,19.234,0,0,0-3.633-5.721,16.486,16.486,0,0,0-5.405-3.86A16.761,16.761,0,0,0,70.993,225q-16.8,0-22.976,15.894a76.768,76.768,0,0,0-4.27,16.846,129.871,129.871,0,0,0-1.271,18.119q0,6.63.589,12.942t1.59,12.125a56.019,56.019,0,0,0,2.543,9.308,27.227,27.227,0,0,0,4.315,7.721,19.051,19.051,0,0,0,6.629,5.222,21.67,21.67,0,0,0,9.492,1.907,22.7,22.7,0,0,0,10.443-2.27,21.683,21.683,0,0,0,7.358-6,25.054,25.054,0,0,0,4.312-8.672,37.12,37.12,0,0,0,1.408-10.218A35.468,35.468,0,0,0,89.7,287.709a24.831,24.831,0,0,0-4.359-8.491,20.99,20.99,0,0,0-7.266-5.767,22.872,22.872,0,0,0-10.172-2.135,22.636,22.636,0,0,0-10.261,2.271,21.735,21.735,0,0,0-7.993,7.175q-.272-4.088-.273-8.083,0-2.814.137-5.495t.318-5.4a29.117,29.117,0,0,1,9.943-5.4,40.213,40.213,0,0,1,12.217-1.772,40.473,40.473,0,0,1,16.938,3.407,37.207,37.207,0,0,1,12.67,9.263,41.006,41.006,0,0,1,7.945,13.759,50.954,50.954,0,0,1,2.771,16.984,50.209,50.209,0,0,1-3.134,18.027,41.837,41.837,0,0,1-8.809,14.168,38.412,38.412,0,0,1-5.591,4.819,2.829,2.829,0,0,0,1.661,5.125h43.427a2.835,2.835,0,0,0,1.6-5.172q-9.388-6.654-13.987-18.985a57.908,57.908,0,0,1-3.177-18.618h21.252q-.273,11.9,5.9,19.8t17.711,7.9q11.531,0,18.709-5.994t7.174-17.256q0-13.623-10.807-18.891-7.629-3.723-23.25-3.269v-15.8q19.345.636,26.338-10.353,2.452-4.088,2.451-11.262a15.673,15.673,0,0,0-5.631-12.17,18.686,18.686,0,0,0-12.9-5.086q-17.71-.09-22.16,16.893a32.6,32.6,0,0,0-1.09,9.717H126.757q.726-18.981,12.17-31.605t30.97-12.624a48,48,0,0,1,28.7,8.991q12.442,9.083,12.441,25.793,0,21.343-18.435,27.882v.363a27.207,27.207,0,0,1,17.437,11.08,33.606,33.606,0,0,1,6.266,19.8q-.092,19.709-13.623,30.607a48.64,48.64,0,0,1-4.237,3.05,2.843,2.843,0,0,0,1.579,5.213h47.4a2.834,2.834,0,0,0,1.685-5.108,35.045,35.045,0,0,1-3.646-3.2,42.964,42.964,0,0,1-8.221-11.761,75.744,75.744,0,0,1-5.131-14.3,105.42,105.42,0,0,1-2.679-15.531q-.771-7.946-.772-15.484,0-6.994.682-14.532a106.067,106.067,0,0,1,2.406-14.849,78.546,78.546,0,0,1,4.678-13.941,44.269,44.269,0,0,1,7.584-11.76,37.752,37.752,0,0,1,11.08-8.4,38.556,38.556,0,0,1,15.166-3.814v17.8q-20.434,3.36-20.434,49.769,0,3.906.182,9.173a103.975,103.975,0,0,0,.953,10.808,79.49,79.49,0,0,0,2.317,10.944,37.56,37.56,0,0,0,4.177,9.627,22.1,22.1,0,0,0,6.629,6.856,17.091,17.091,0,0,0,9.627,2.634q23.7,0,23.7-50.042,0-46.227-20.344-49.769v-17.8a38.551,38.551,0,0,1,15.166,3.814,36.842,36.842,0,0,1,11.036,8.446,46.719,46.719,0,0,1,7.584,11.807,76.269,76.269,0,0,1,4.722,13.942,106.471,106.471,0,0,1,2.406,14.848q.681,7.54.682,14.531,0,7.629-.773,15.667a100.034,100.034,0,0,1-2.725,15.576,74.86,74.86,0,0,1-5.221,14.213,42.752,42.752,0,0,1-8.31,11.67,35.785,35.785,0,0,1-3.517,3.055,2.836,2.836,0,0,0,1.676,5.118h37.532a2.834,2.834,0,0,0,2.835-2.834V2.834A2.834,2.834,0,0,0,337.323,0Z"/>
      </g>
    </g>
</svg>
