<svg xmlns="http://www.w3.org/2000/svg" width="120mm" height="120mm" viewBox="0 0 340.158 340.157">
  <g id="Zimmernummer">
      <g id="Z-03-136">
        <path fill="#000000" stroke="none" d="M337.323,0H2.835A2.835,2.835,0,0,0,0,2.835V337.323a2.834,2.834,0,0,0,2.835,2.834H62.878a2.834,2.834,0,0,0,2.834-2.834V248.839H33.744V232.128q22.885,0,33.149-11.534a20.3,20.3,0,0,0,4.723-10.081H88.962v126.81a2.835,2.835,0,0,0,2.835,2.834h37.327a2.828,2.828,0,0,0,1.689-5.1q-8.88-6.6-13.315-18.467a57.912,57.912,0,0,1-3.179-18.618h21.252q-.272,11.9,5.9,19.8t17.71,7.9q11.532,0,18.709-5.994t7.174-17.256q0-13.623-10.807-18.891-7.629-3.723-23.25-3.269v-15.8q19.344.636,26.338-10.354,2.451-4.086,2.452-11.261a15.674,15.674,0,0,0-5.631-12.17,18.69,18.69,0,0,0-12.9-5.086q-17.709-.09-22.16,16.892a32.577,32.577,0,0,0-1.09,9.718H116.771q.726-18.981,12.17-31.605t30.97-12.624a47.989,47.989,0,0,1,28.7,8.991q12.442,9.082,12.443,25.793,0,21.342-18.437,27.882V271a27.209,27.209,0,0,1,17.438,11.08,33.613,33.613,0,0,1,6.266,19.8q-.091,19.709-13.623,30.606-1.646,1.326-3.373,2.487a2.83,2.83,0,0,0,1.57,5.186h45.2a2.829,2.829,0,0,0,1.7-5.093q-.986-.738-1.91-1.536a38.676,38.676,0,0,1-8.718-10.806,62.379,62.379,0,0,1-5.4-13.488,89.853,89.853,0,0,1-2.77-15.257q-.773-7.992-.772-15.985a144.632,144.632,0,0,1,.953-16.483,97.435,97.435,0,0,1,3.224-16.121,71,71,0,0,1,6.04-14.622,46.72,46.72,0,0,1,9.309-11.9,40.73,40.73,0,0,1,13.124-7.992,48.632,48.632,0,0,1,17.483-2.906,38.9,38.9,0,0,1,26.337,10.081,37.093,37.093,0,0,1,8.356,11.216,35.819,35.819,0,0,1,3.542,14.213H285.425a24.119,24.119,0,0,0-1.726-6.9,19.219,19.219,0,0,0-3.633-5.722,16.51,16.51,0,0,0-5.4-3.859,16.772,16.772,0,0,0-6.948-1.408q-16.8,0-22.978,15.893a76.72,76.72,0,0,0-4.268,16.847,129.709,129.709,0,0,0-1.272,18.119q0,6.63.591,12.942t1.589,12.125a55.826,55.826,0,0,0,2.543,9.308,27.225,27.225,0,0,0,4.314,7.721,19.046,19.046,0,0,0,6.63,5.222,21.664,21.664,0,0,0,9.49,1.907A22.694,22.694,0,0,0,274.8,323.4a21.652,21.652,0,0,0,7.356-5.994,25.089,25.089,0,0,0,4.314-8.673,37.183,37.183,0,0,0,1.408-10.217,35.5,35.5,0,0,0-1.453-10.218,24.823,24.823,0,0,0-4.36-8.491,20.987,20.987,0,0,0-7.265-5.767,22.875,22.875,0,0,0-10.172-2.135,22.641,22.641,0,0,0-10.263,2.271,21.732,21.732,0,0,0-7.992,7.175q-.273-4.088-.272-8.083,0-2.814.136-5.5t.318-5.4a29.09,29.09,0,0,1,9.945-5.4,43.464,43.464,0,0,1,29.153,1.635,37.184,37.184,0,0,1,12.669,9.263,41.034,41.034,0,0,1,7.947,13.759,51,51,0,0,1,2.77,16.983,50.214,50.214,0,0,1-3.133,18.028A41.855,41.855,0,0,1,297.1,330.8a39.865,39.865,0,0,1-4.773,4.286,2.828,2.828,0,0,0,1.734,5.067h43.267a2.835,2.835,0,0,0,2.835-2.834V2.834A2.835,2.835,0,0,0,337.323,0Z"/>
      </g>
    </g>
</svg>
