<svg xmlns="http://www.w3.org/2000/svg" width="120mm" height="120mm" viewBox="0 0 340.157 340.157">
  <g id="Zimmernummer">
      <g id="Z-03-139-R">
        <path fill="#A0552B" stroke="none" d="M337.323,0H2.835A2.835,2.835,0,0,0,0,2.835V337.323a2.834,2.834,0,0,0,2.834,2.834H61.873a2.834,2.834,0,0,0,2.835-2.834V248.839H32.739V232.128q22.887,0,33.149-11.534a20.28,20.28,0,0,0,4.722-10.081H87.958v126.81a2.834,2.834,0,0,0,2.835,2.834h37.326a2.828,2.828,0,0,0,1.69-5.1q-8.881-6.6-13.316-18.467a57.885,57.885,0,0,1-3.178-18.618h21.251q-.272,11.9,5.9,19.8t17.71,7.9q11.532,0,18.709-5.994t7.175-17.256q0-13.623-10.808-18.891-7.629-3.723-23.25-3.269v-15.8q19.344.636,26.338-10.354,2.453-4.086,2.452-11.261a15.671,15.671,0,0,0-5.631-12.17,18.689,18.689,0,0,0-12.9-5.086q-17.711-.09-22.161,16.892a32.577,32.577,0,0,0-1.089,9.718H115.767q.726-18.981,12.17-31.605t30.969-12.624a47.993,47.993,0,0,1,28.7,8.991q12.44,9.082,12.442,25.793,0,21.342-18.437,27.882V271a27.206,27.206,0,0,1,17.438,11.08,33.606,33.606,0,0,1,6.266,19.8q-.09,19.709-13.623,30.606-1.644,1.326-3.373,2.487a2.83,2.83,0,0,0,1.57,5.186h42.048a2.829,2.829,0,0,0,1.771-5.04q-1.105-.867-2.145-1.815a37.052,37.052,0,0,1-8.356-11.217,35.751,35.751,0,0,1-3.542-14.213h21.161a24.028,24.028,0,0,0,1.726,6.9,19.2,19.2,0,0,0,3.633,5.722,16.446,16.446,0,0,0,5.4,3.86,16.748,16.748,0,0,0,6.947,1.408q16.8,0,22.978-15.894a76.728,76.728,0,0,0,4.268-16.848,129.8,129.8,0,0,0,1.272-18.118q0-6.628-.59-12.942t-1.59-12.124a56,56,0,0,0-2.543-9.31,27.3,27.3,0,0,0-4.314-7.718,19.051,19.051,0,0,0-6.629-5.223,21.661,21.661,0,0,0-9.491-1.907,22.716,22.716,0,0,0-10.445,2.27,21.67,21.67,0,0,0-7.356,5.994,25.11,25.11,0,0,0-4.314,8.628,37,37,0,0,0-1.408,10.263,35.456,35.456,0,0,0,1.453,10.217,24.758,24.758,0,0,0,4.36,8.492,20.968,20.968,0,0,0,7.265,5.768,22.886,22.886,0,0,0,10.172,2.133,22.647,22.647,0,0,0,10.263-2.27A21.763,21.763,0,0,0,279.879,270q.273,4.088.272,8.083,0,2.815-.136,5.494t-.318,5.4a29.133,29.133,0,0,1-9.944,5.405,43.5,43.5,0,0,1-29.154-1.635,37.249,37.249,0,0,1-12.669-9.264,41.02,41.02,0,0,1-7.947-13.759,50.975,50.975,0,0,1-2.77-16.984,50.2,50.2,0,0,1,3.134-18.028,41.848,41.848,0,0,1,8.808-14.168,39.625,39.625,0,0,1,13.669-9.264,45.811,45.811,0,0,1,17.71-3.314,50.8,50.8,0,0,1,17.211,2.634,39.691,39.691,0,0,1,12.623,7.219,38.7,38.7,0,0,1,8.719,10.809,62.413,62.413,0,0,1,5.4,13.486,90.315,90.315,0,0,1,2.77,15.258q.769,7.992.772,15.984a144.6,144.6,0,0,1-.954,16.439,97.431,97.431,0,0,1-3.223,16.166,71.149,71.149,0,0,1-6.041,14.622,46.721,46.721,0,0,1-9.308,11.9,37.558,37.558,0,0,1-3.116,2.567,2.829,2.829,0,0,0,1.682,5.106h50.25a2.834,2.834,0,0,0,2.834-2.834V2.834A2.834,2.834,0,0,0,337.323,0Z"/>
      </g>
    </g>
</svg>
