<svg xmlns="http://www.w3.org/2000/svg" width="120mm" height="120mm" viewBox="0 0 340.157 340.158">
  <g id="Zimmernummer">
      <g id="Z-03-349-E">
        <path fill="#A09f9d" stroke="none" d="M337.323,0H2.835A2.835,2.835,0,0,0,0,2.835V337.323a2.835,2.835,0,0,0,2.835,2.835H38.48a2.835,2.835,0,0,0,1.6-5.172q-9.4-6.657-14-19A57.907,57.907,0,0,1,22.9,297.373H44.154q-.272,11.9,5.9,19.8t17.71,7.9q11.532,0,18.709-5.994t7.174-17.256q0-13.623-10.807-18.89-7.629-3.725-23.25-3.27v-15.8q19.344.636,26.338-10.353,2.452-4.087,2.452-11.262a15.676,15.676,0,0,0-5.631-12.17,18.7,18.7,0,0,0-12.9-5.086Q52.146,224.9,47.7,241.882a32.54,32.54,0,0,0-1.089,9.718H25.355q.725-18.982,12.17-31.606T68.494,207.37a47.987,47.987,0,0,1,28.7,8.991q12.441,9.083,12.443,25.793,0,21.343-18.437,27.882v.363a27.206,27.206,0,0,1,17.438,11.08,33.608,33.608,0,0,1,6.266,19.8q-.092,19.708-13.623,30.607a48.439,48.439,0,0,1-4.244,3.055,2.846,2.846,0,0,0,1.579,5.218H178a2.834,2.834,0,0,0,2.835-2.834V235.252h-.454L141.332,292.56h32.695v16.711H124.984v-20.98l55.855-78.378H200.91V292.56h16.711v16.711H200.91v28.053a2.834,2.834,0,0,0,2.835,2.834h38.216a2.831,2.831,0,0,0,1.665-5.12,35.873,35.873,0,0,1-2.842-2.336,37.053,37.053,0,0,1-8.355-11.217,35.769,35.769,0,0,1-3.543-14.213h21.162a24.009,24.009,0,0,0,1.725,6.9,19.212,19.212,0,0,0,3.632,5.721,16.5,16.5,0,0,0,5.405,3.861,16.767,16.767,0,0,0,6.947,1.407q16.8,0,22.978-15.893A76.7,76.7,0,0,0,295,292.423a129.826,129.826,0,0,0,1.272-18.118q0-6.628-.59-12.943t-1.59-12.124a56.084,56.084,0,0,0-2.543-9.309,27.265,27.265,0,0,0-4.314-7.719,19.063,19.063,0,0,0-6.629-5.223,21.669,21.669,0,0,0-9.491-1.907,22.71,22.71,0,0,0-10.445,2.271,21.643,21.643,0,0,0-7.355,5.994A25.094,25.094,0,0,0,249,241.973a36.99,36.99,0,0,0-1.408,10.262,35.446,35.446,0,0,0,1.453,10.217,24.808,24.808,0,0,0,4.359,8.492,20.981,20.981,0,0,0,7.266,5.768,22.872,22.872,0,0,0,10.172,2.134,22.642,22.642,0,0,0,10.264-2.271A21.763,21.763,0,0,0,289.1,269.4q.271,4.088.271,8.083,0,2.815-.136,5.5t-.317,5.4a29.136,29.136,0,0,1-9.945,5.4,43.483,43.483,0,0,1-29.154-1.635,37.246,37.246,0,0,1-12.669-9.263,41.024,41.024,0,0,1-7.947-13.76,50.973,50.973,0,0,1-2.769-16.983,50.224,50.224,0,0,1,3.133-18.029,41.86,41.86,0,0,1,8.809-14.168,39.613,39.613,0,0,1,13.669-9.263,45.806,45.806,0,0,1,17.709-3.315A50.791,50.791,0,0,1,286.966,210a39.709,39.709,0,0,1,12.624,7.22,38.734,38.734,0,0,1,8.719,10.808,62.491,62.491,0,0,1,5.4,13.487,90.186,90.186,0,0,1,2.771,15.257q.769,7.992.772,15.985A144.828,144.828,0,0,1,316.3,289.2a97.412,97.412,0,0,1-3.224,16.166,71.091,71.091,0,0,1-6.04,14.622,46.725,46.725,0,0,1-9.309,11.9,38.055,38.055,0,0,1-3.843,3.089,2.837,2.837,0,0,0,1.585,5.184h41.853a2.834,2.834,0,0,0,2.834-2.835V2.835A2.834,2.834,0,0,0,337.323,0Z"/>
      </g>
    </g>
</svg>
