<svg xmlns="http://www.w3.org/2000/svg" width="120mm" height="120mm" viewBox="0 0 340.157 340.157">
  <g id="Zimmernummer">
      <g id="Z-03-228-E">
        <path fill="#A09f9d" stroke="none" d="M337.323,0H2.835A2.835,2.835,0,0,0,0,2.835V337.323a2.834,2.834,0,0,0,2.834,2.834H22.565a2.822,2.822,0,0,0,2.822-2.645q1.662-27.977,28.495-46.361,6.355-4.632,13.259-8.991Q92.662,266,93.116,248.375q0-9.264-3.269-13.805a24.439,24.439,0,0,0-7.539-6.9A21.822,21.822,0,0,0,71.5,225.307q-6.632,0-10.808,2.543-11.17,6.811-11.806,30.061H27.635q0-22.251,11.806-36.237T72.5,207.688q21.252,0,32.877,13.713,8.991,10.99,8.991,26.247,0,20.073-18.255,35.511A149.744,149.744,0,0,1,78.04,296.51q-9.447,5.994-14.168,9.536Q53.063,314.131,50.7,321.485h63.483v15.838a2.835,2.835,0,0,0,2.835,2.834h6.108a2.821,2.821,0,0,0,2.821-2.645q1.662-27.977,28.495-46.361,6.357-4.632,13.26-8.991Q193.224,266,193.68,248.375q0-9.264-3.27-13.805a24.447,24.447,0,0,0-7.538-6.9,21.829,21.829,0,0,0-10.808-2.361q-6.63,0-10.807,2.543-11.172,6.811-11.807,30.061H128.2q0-22.251,11.807-36.237t33.058-13.986q21.252,0,32.877,13.713,8.991,10.99,8.992,26.247,0,20.073-18.255,35.511A149.676,149.676,0,0,1,178.6,296.51q-9.445,5.994-14.168,9.536-10.809,8.085-13.169,15.439H214.75v15.838a2.834,2.834,0,0,0,2.835,2.834H239.88a2.832,2.832,0,0,0,1.546-5.2q-1.578-1.057-3.037-2.253a36.416,36.416,0,0,1-9.9-12.805,41.058,41.058,0,0,1-3.633-17.755,36.547,36.547,0,0,1,1.681-11.353,31.191,31.191,0,0,1,4.768-9.264,29,29,0,0,1,7.538-6.948,32.928,32.928,0,0,1,9.9-4.222v-.364A26.967,26.967,0,0,1,230.306,243.2a38.868,38.868,0,0,1,2.724-15.122,29.354,29.354,0,0,1,7.674-10.852,34.832,34.832,0,0,1,11.762-6.721,52.753,52.753,0,0,1,14.985-2.725v16.8a20.712,20.712,0,0,0-12.488,6.313q-4.587,5.039-4.586,13.3,0,8.173,4.5,13.123t12.579,5.95v16.166a26.867,26.867,0,0,0-8.764,2.27,21.3,21.3,0,0,0-6.721,4.769,21.07,21.07,0,0,0-4.314,6.992,27.36,27.36,0,0,0,.318,18.982,21.842,21.842,0,0,0,5.131,7.492,22.134,22.134,0,0,0,7.811,4.723,30.787,30.787,0,0,0,19.8,0,22.619,22.619,0,0,0,7.856-4.723,21.481,21.481,0,0,0,5.177-7.538,27.865,27.865,0,0,0,.363-19.026,19.7,19.7,0,0,0-4.314-6.948,22.435,22.435,0,0,0-6.721-4.723,26.556,26.556,0,0,0-8.809-2.27V263.27q8.082-1,12.533-5.858t4.45-13.033q0-8.263-4.5-13.441t-12.487-6.358v-16.8a51.278,51.278,0,0,1,15.848,2.952,33.4,33.4,0,0,1,11.67,7.129,29.8,29.8,0,0,1,7.175,10.9,39.892,39.892,0,0,1,2.452,14.44,28.812,28.812,0,0,1-4.677,16.484,27.462,27.462,0,0,1-13.759,10.308v.364a33.209,33.209,0,0,1,9.763,4.177,30.117,30.117,0,0,1,12.4,15.621,31.56,31.56,0,0,1,1.725,10.536,45.254,45.254,0,0,1-3.451,18.254,37.04,37.04,0,0,1-13.127,16.074,2.83,2.83,0,0,0,1.641,5.141h35.4a2.834,2.834,0,0,0,2.834-2.834V2.834A2.834,2.834,0,0,0,337.323,0Z"/>
      </g>
    </g>
</svg>
