<svg xmlns="http://www.w3.org/2000/svg" width="120mm" height="120mm" viewBox="0 0 340.157 340.157">
  <g id="Zimmernummer">
      <g id="Z-03-133-M">
        <path fill="#D4AF37" stroke="none" d="M337.323,0H2.835A2.835,2.835,0,0,0,0,2.835V337.323a2.834,2.834,0,0,0,2.834,2.834H59.6a2.834,2.834,0,0,0,2.834-2.834V248.839H30.461V232.128q22.887,0,33.149-11.534a20.3,20.3,0,0,0,4.723-10.081H85.679v126.81a2.835,2.835,0,0,0,2.835,2.834h37.327a2.828,2.828,0,0,0,1.689-5.1q-8.88-6.6-13.315-18.467a57.912,57.912,0,0,1-3.179-18.618h21.252q-.272,11.9,5.9,19.8t17.71,7.9q11.532,0,18.709-5.994t7.174-17.256q0-13.623-10.807-18.891-7.629-3.723-23.25-3.269v-15.8q19.344.636,26.338-10.354,2.451-4.086,2.452-11.261a15.676,15.676,0,0,0-5.631-12.17,18.69,18.69,0,0,0-12.9-5.086q-17.709-.09-22.16,16.892a32.577,32.577,0,0,0-1.09,9.718H113.489q.724-18.981,12.169-31.605t30.97-12.624a47.987,47.987,0,0,1,28.7,8.991q12.443,9.082,12.443,25.793,0,21.342-18.437,27.882V271a27.206,27.206,0,0,1,17.438,11.08,33.606,33.606,0,0,1,6.266,19.8q-.092,19.709-13.623,30.606-1.644,1.326-3.373,2.487a2.83,2.83,0,0,0,1.57,5.186h45.3a2.828,2.828,0,0,0,1.69-5.1q-8.88-6.6-13.315-18.467a57.912,57.912,0,0,1-3.179-18.618h21.252q-.273,11.9,5.9,19.8t17.71,7.9q11.533,0,18.709-5.994t7.175-17.256q0-13.623-10.807-18.891-7.629-3.723-23.25-3.269v-15.8q19.344.636,26.337-10.354,2.452-4.086,2.453-11.261a15.676,15.676,0,0,0-5.631-12.17,18.692,18.692,0,0,0-12.9-5.086q-17.709-.09-22.16,16.892a32.545,32.545,0,0,0-1.09,9.718H220.562q.726-18.981,12.17-31.605T263.7,207.97a47.989,47.989,0,0,1,28.7,8.991q12.443,9.082,12.443,25.793,0,21.342-18.437,27.882V271a27.209,27.209,0,0,1,17.438,11.08,33.613,33.613,0,0,1,6.266,19.8q-.091,19.709-13.623,30.606-1.645,1.326-3.373,2.487a2.83,2.83,0,0,0,1.57,5.186h42.638a2.834,2.834,0,0,0,2.834-2.834V2.835A2.834,2.834,0,0,0,337.323,0Z"/>
      </g>
    </g>
</svg>
