<svg xmlns="http://www.w3.org/2000/svg" width="120mm" height="120mm" viewBox="0 0 340.157 340.157">
  <g id="Zimmernummer">
      <g id="Z-03-337-E">
        <path fill="#A09f9d" stroke="none" d="M337.323,0H2.835A2.835,2.835,0,0,0,0,2.835V337.323a2.834,2.834,0,0,0,2.834,2.834H43.006a2.835,2.835,0,0,0,1.6-5.17q-9.372-6.652-13.964-18.967A57.918,57.918,0,0,1,27.465,297.4H48.717q-.273,11.9,5.9,19.8t17.71,7.9q11.534,0,18.709-5.995t7.175-17.255q0-13.623-10.808-18.891-7.628-3.723-23.25-3.27v-15.8q19.345.635,26.338-10.354,2.453-4.086,2.452-11.262a15.673,15.673,0,0,0-5.63-12.169,18.692,18.692,0,0,0-12.9-5.086q-17.709-.09-22.16,16.892a32.545,32.545,0,0,0-1.09,9.718H29.917q.726-18.981,12.17-31.606T73.057,207.4a47.99,47.99,0,0,1,28.7,8.992q12.441,9.081,12.442,25.793,0,21.342-18.436,27.881v.364a27.2,27.2,0,0,1,17.437,11.08,33.6,33.6,0,0,1,6.267,19.8q-.091,19.707-13.623,30.606a48.9,48.9,0,0,1-4.218,3.044,2.828,2.828,0,0,0,1.548,5.2h39.466a2.835,2.835,0,0,0,1.6-5.17q-9.372-6.652-13.964-18.967A57.918,57.918,0,0,1,127.1,297.4H148.35q-.271,11.9,5.9,19.8t17.71,7.9q11.532,0,18.709-5.995t7.174-17.255q0-13.623-10.807-18.891-7.629-3.723-23.25-3.27v-15.8q19.344.635,26.338-10.354,2.451-4.086,2.452-11.262a15.674,15.674,0,0,0-5.631-12.169,18.69,18.69,0,0,0-12.9-5.086q-17.709-.09-22.16,16.892a32.577,32.577,0,0,0-1.09,9.718H129.55q.726-18.981,12.17-31.606T172.69,207.4a47.988,47.988,0,0,1,28.7,8.992q12.442,9.081,12.443,25.793,0,21.342-18.437,27.881v.364a27.205,27.205,0,0,1,17.438,11.08,33.611,33.611,0,0,1,6.266,19.8q-.091,19.707-13.623,30.606a48.729,48.729,0,0,1-4.217,3.044,2.828,2.828,0,0,0,1.547,5.2h39.388a2.837,2.837,0,0,0,2.82-2.6q3.8-43.3,31.215-84.2a235.28,235.28,0,0,1,18.8-24.431H227.55V209.941h89.094v17.71q-32.514,36.51-43.412,79.377A188.133,188.133,0,0,0,268.3,337.1a2.834,2.834,0,0,0,2.829,3.062h66.2a2.834,2.834,0,0,0,2.834-2.834V2.835A2.834,2.834,0,0,0,337.323,0Z"/>
      </g>
    </g>
</svg>
