<svg xmlns="http://www.w3.org/2000/svg" width="120mm" height="120mm" viewBox="0 0 340.158 340.157">
  <g id="Zimmernummer">
      <g id="Z-03-641-M">
        <path fill="#D4AF37" stroke="none" d="M337.323,0H2.835A2.835,2.835,0,0,0,0,2.835V337.323a2.834,2.834,0,0,0,2.834,2.834H61.556a2.834,2.834,0,0,0,1.6-5.167q-1.363-.972-2.615-2.052a38.673,38.673,0,0,1-8.718-10.807,62.351,62.351,0,0,1-5.405-13.488,90.08,90.08,0,0,1-2.769-15.258q-.774-7.989-.773-15.985a144.389,144.389,0,0,1,.954-16.482A97.312,97.312,0,0,1,47.057,244.8a70.956,70.956,0,0,1,6.04-14.623,46.7,46.7,0,0,1,9.309-11.9,40.714,40.714,0,0,1,13.123-7.992,48.666,48.666,0,0,1,17.483-2.906,38.923,38.923,0,0,1,26.338,10.08,37.143,37.143,0,0,1,8.356,11.217,35.819,35.819,0,0,1,3.542,14.213H110.086a24.091,24.091,0,0,0-1.725-6.9,19.209,19.209,0,0,0-3.633-5.72,16.467,16.467,0,0,0-5.4-3.86A16.753,16.753,0,0,0,92.376,225q-16.8,0-22.977,15.893a76.791,76.791,0,0,0-4.269,16.847,129.86,129.86,0,0,0-1.271,18.119q0,6.63.59,12.942t1.59,12.125a55.826,55.826,0,0,0,2.543,9.308,27.214,27.214,0,0,0,4.314,7.721,19.06,19.06,0,0,0,6.629,5.221,21.672,21.672,0,0,0,9.491,1.908,22.7,22.7,0,0,0,10.444-2.271,21.657,21.657,0,0,0,7.357-6,25.078,25.078,0,0,0,4.313-8.671,37.165,37.165,0,0,0,1.409-10.219,35.5,35.5,0,0,0-1.454-10.217,24.8,24.8,0,0,0-4.359-8.492,20.978,20.978,0,0,0-7.266-5.766,24.8,24.8,0,0,0-20.434.135,21.744,21.744,0,0,0-7.992,7.176q-.273-4.088-.273-8.084,0-2.812.137-5.494t.317-5.405a29.14,29.14,0,0,1,9.945-5.4,40.2,40.2,0,0,1,12.215-1.772,40.478,40.478,0,0,1,16.939,3.407,37.194,37.194,0,0,1,12.669,9.263,41,41,0,0,1,7.946,13.758,50.981,50.981,0,0,1,2.771,16.985,50.187,50.187,0,0,1-3.134,18.027,41.821,41.821,0,0,1-8.809,14.168,38.412,38.412,0,0,1-5.591,4.819,2.829,2.829,0,0,0,1.661,5.125h79.609a2.834,2.834,0,0,0,2.835-2.834V235.26h-.454l-39.053,57.308h32.695v16.711H144.417V288.3l55.854-78.377h20.071v82.646h16.711v16.711H220.342v28.044a2.834,2.834,0,0,0,2.835,2.834h48.016a2.834,2.834,0,0,0,2.835-2.834V248.248H242.059V231.537q22.887,0,33.149-11.535a20.287,20.287,0,0,0,4.723-10.08h17.347v127.4a2.834,2.834,0,0,0,2.834,2.834h37.211a2.835,2.835,0,0,0,2.835-2.835V2.834A2.834,2.834,0,0,0,337.323,0Z"/>
      </g>
    </g>
</svg>
