<svg xmlns="http://www.w3.org/2000/svg" width="120mm" height="120mm" viewBox="0 0 340.157 340.158">
  <g id="Zimmernummer">
      <g id="Z-03-504-E">
        <path fill="#A09f9d" stroke="none" d="M337.323,0H2.835A2.835,2.835,0,0,0,0,2.835V337.323a2.834,2.834,0,0,0,2.834,2.835H36.686a2.831,2.831,0,0,0,1.524-5.215,40.873,40.873,0,0,1-3.317-2.414Q22.176,322.268,21.451,303.1H42.613q.906,10.716,7.265,16.347t16.711,5.631q23.793,0,24.249-28.609,0-18.344-13.714-24.975a24.493,24.493,0,0,0-11.08-2.18q-16.62,0-20.979,11.9H23.813L37.8,209.922h67.3V228.9H53.6l-6.721,33.151.363.363q8.808-9.9,25.612-9.9a39.508,39.508,0,0,1,15.712,3.269q14.985,6.452,20.707,22.979A50.887,50.887,0,0,1,112,295.293q0,18.483-10.283,31.649a2.954,2.954,0,0,1-.579.56l-10.254,7.537a2.835,2.835,0,0,0,1.679,5.119h51.161a2.835,2.835,0,0,0,1.7-5.1,37.93,37.93,0,0,1-3.631-3.207,42.9,42.9,0,0,1-8.219-11.762,75.551,75.551,0,0,1-5.131-14.3,105.312,105.312,0,0,1-2.68-15.531q-.772-7.946-.771-15.484,0-6.994.681-14.532a106.067,106.067,0,0,1,2.406-14.849,78.475,78.475,0,0,1,4.678-13.942,44.261,44.261,0,0,1,7.583-11.759,37.751,37.751,0,0,1,11.08-8.4,38.582,38.582,0,0,1,15.167-3.814v17.8q-20.434,3.36-20.434,49.769,0,3.906.181,9.174a104.214,104.214,0,0,0,.954,10.807,79.829,79.829,0,0,0,2.316,10.945,37.612,37.612,0,0,0,4.178,9.627,22.071,22.071,0,0,0,6.629,6.855,17.086,17.086,0,0,0,9.627,2.635q23.7,0,23.705-50.043,0-46.227-20.344-49.769v-17.8a38.587,38.587,0,0,1,15.167,3.814A36.841,36.841,0,0,1,199.6,219.73a46.671,46.671,0,0,1,7.583,11.807,76.347,76.347,0,0,1,4.723,13.942,106.435,106.435,0,0,1,2.407,14.847q.679,7.542.681,14.531,0,7.629-.773,15.668a100.257,100.257,0,0,1-2.725,15.575,74.913,74.913,0,0,1-5.221,14.214,42.767,42.767,0,0,1-8.31,11.67,37.931,37.931,0,0,1-3.564,3.12,2.828,2.828,0,0,0,1.752,5.054h82.94a2.835,2.835,0,0,0,2.835-2.835V235.26h-.454l-39.053,57.308h32.7v16.711H226.07V288.3l55.854-78.377H302v82.646h16.711v16.711H302v28.044a2.835,2.835,0,0,0,2.835,2.835h32.493a2.834,2.834,0,0,0,2.834-2.835V2.835A2.834,2.834,0,0,0,337.323,0Z"/>
      </g>
    </g>
</svg>
