<svg xmlns="http://www.w3.org/2000/svg" width="120mm" height="120mm" viewBox="0 0 340.157 340.157">
  <g id="Zimmernummer">
      <g id="Z-03-425-M">
        <path fill="#D4AF37" stroke="none" d="M337.323,0H2.835A2.835,2.835,0,0,0,0,2.835V337.323a2.834,2.834,0,0,0,2.834,2.834H73.427a2.834,2.834,0,0,0,2.834-2.834V235.261h-.454L36.755,292.567h32.7v16.711H20.407V288.3l55.854-78.379H96.333v82.646h16.711v16.711H96.333v28.045a2.834,2.834,0,0,0,2.834,2.834h24.675a2.82,2.82,0,0,0,2.822-2.658q1.536-28.178,28.52-46.656,6.357-4.632,13.26-8.992,25.521-16.164,25.975-33.786,0-9.263-3.27-13.8a24.453,24.453,0,0,0-7.538-6.9A21.826,21.826,0,0,0,172.8,225q-6.629,0-10.807,2.543-11.171,6.811-11.807,30.063H128.937q0-22.251,11.807-36.239T173.8,207.378q21.252,0,32.877,13.715,8.993,10.989,8.992,26.246,0,20.075-18.255,35.512A149.728,149.728,0,0,1,179.343,296.2q-9.447,5.994-14.168,9.537-10.809,8.083-13.169,15.44h63.483v16.146a2.834,2.834,0,0,0,2.835,2.834h26.113a2.831,2.831,0,0,0,1.525-5.215,40.824,40.824,0,0,1-3.318-2.414Q229.929,322.267,229.2,303.1h21.161q.907,10.716,7.266,16.347t16.711,5.631q23.793,0,24.249-28.607,0-18.346-13.714-24.977a24.55,24.55,0,0,0-11.08-2.18q-16.62,0-20.98,11.9H231.564l13.987-71.3h67.3V228.9H261.353l-6.72,33.149.363.363q8.808-9.9,25.611-9.9a39.5,39.5,0,0,1,15.712,3.269q14.985,6.448,20.707,22.977a50.87,50.87,0,0,1,2.725,16.529q0,18.713-10.535,31.969a42.794,42.794,0,0,1-8.055,7.8,2.84,2.84,0,0,0,1.728,5.1h34.434a2.834,2.834,0,0,0,2.834-2.834V2.834A2.834,2.834,0,0,0,337.323,0Z"/>
      </g>
    </g>
</svg>
