<svg xmlns="http://www.w3.org/2000/svg" width="120mm" height="120mm" viewBox="0 0 340.157 340.158">
  <g id="Zimmernummer">
      <g id="Z-03-514-E">
        <path fill="#A09f9d" stroke="none" d="M337.323,0H2.834A2.834,2.834,0,0,0,0,2.834V337.323a2.834,2.834,0,0,0,2.834,2.835H49.705a2.831,2.831,0,0,0,1.525-5.215,40.873,40.873,0,0,1-3.317-2.414Q35.2,322.268,34.471,303.1H55.632q.908,10.716,7.266,16.347t16.711,5.631q23.793,0,24.249-28.608,0-18.345-13.714-24.976a24.52,24.52,0,0,0-11.08-2.18q-16.62,0-20.98,11.9H36.833l13.986-71.294h67.3V228.9H66.622L59.9,262.053l.363.363q8.808-9.9,25.611-9.9a39.5,39.5,0,0,1,15.712,3.269q14.986,6.45,20.707,22.978a50.865,50.865,0,0,1,2.725,16.529q0,18.711-10.535,31.969a42.82,42.82,0,0,1-8.054,7.8,2.84,2.84,0,0,0,1.727,5.1h54.722a2.834,2.834,0,0,0,2.834-2.835V248.248H133.745V231.537q22.886,0,33.149-11.534a20.3,20.3,0,0,0,4.723-10.081h17.346v127.4a2.835,2.835,0,0,0,2.835,2.835h74.271a2.835,2.835,0,0,0,2.835-2.835V235.261h-.454L229.4,292.568h32.695v16.711H213.049V288.3L268.9,209.922h20.071v82.646h16.711v16.711H288.975v28.044a2.835,2.835,0,0,0,2.835,2.835h45.513a2.834,2.834,0,0,0,2.834-2.835V2.835A2.834,2.834,0,0,0,337.323,0Z"/>
      </g>
    </g>
</svg>
