<svg xmlns="http://www.w3.org/2000/svg" width="120mm" height="120mm" viewBox="0 0 340.158 340.157">
  <g id="Zimmernummer">
      <g id="Z-03-124">
        <path fill="#000000" stroke="none" d="M337.323,0H2.835A2.835,2.835,0,0,0,0,2.835V337.323a2.834,2.834,0,0,0,2.834,2.834H63.576a2.834,2.834,0,0,0,2.835-2.834V248.839H34.442V232.128q22.887,0,33.15-11.534a20.3,20.3,0,0,0,4.722-10.081H89.661v126.81a2.834,2.834,0,0,0,2.835,2.834h21.382a2.822,2.822,0,0,0,2.821-2.633q1.775-27.793,28.471-46.09,6.357-4.632,13.26-8.992,25.519-16.164,25.975-33.785,0-9.264-3.27-13.8a24.439,24.439,0,0,0-7.538-6.9,21.829,21.829,0,0,0-10.808-2.361q-6.63,0-10.807,2.543-11.172,6.811-11.807,30.061H118.923q0-22.251,11.807-36.237t33.058-13.986q21.252,0,32.877,13.714,8.991,10.989,8.992,26.247,0,20.071-18.255,35.51a149.57,149.57,0,0,1-18.074,13.351q-9.446,5.994-14.168,9.536-10.809,8.085-13.169,15.44h63.484v15.555a2.834,2.834,0,0,0,2.835,2.834h61.81a2.834,2.834,0,0,0,2.834-2.834V235.852H272.5l-39.052,57.307h32.695V309.87H217.1V288.891l55.854-78.378h20.072v82.646h16.711V309.87H293.026v27.453a2.834,2.834,0,0,0,2.834,2.834h41.463a2.835,2.835,0,0,0,2.835-2.835V2.834A2.834,2.834,0,0,0,337.323,0Z"/>
      </g>
    </g>
</svg>
