<svg xmlns="http://www.w3.org/2000/svg" width="120mm" height="120mm" viewBox="0 0 340.158 340.157">
  <g id="Zimmernummer">
      <g id="Z-03-416-R">
        <path fill="#A0552B" stroke="none" d="M337.323,0H2.834A2.834,2.834,0,0,0,0,2.834V337.323a2.834,2.834,0,0,0,2.834,2.834H88.307a2.834,2.834,0,0,0,2.834-2.834V235.26h-.454L51.635,292.568h32.7v16.711H35.287V288.3l55.854-78.377h20.072v82.646h16.711v16.711H111.213v28.044a2.834,2.834,0,0,0,2.834,2.834h48.017a2.834,2.834,0,0,0,2.834-2.834V248.248H132.929V231.537q22.887,0,33.15-11.535a20.3,20.3,0,0,0,4.723-10.08h17.346v127.4a2.834,2.834,0,0,0,2.835,2.834h41.744a2.837,2.837,0,0,0,1.595-5.177q-1.35-.959-2.606-2.042A38.677,38.677,0,0,1,223,322.131a62.349,62.349,0,0,1-5.4-13.488,89.981,89.981,0,0,1-2.77-15.258q-.774-7.989-.772-15.985a144.16,144.16,0,0,1,.954-16.482,97.311,97.311,0,0,1,3.223-16.121,71.012,71.012,0,0,1,6.04-14.623,46.719,46.719,0,0,1,9.309-11.9,40.714,40.714,0,0,1,13.123-7.992,48.669,48.669,0,0,1,17.483-2.906,38.923,38.923,0,0,1,26.338,10.08,37.126,37.126,0,0,1,8.356,11.217,35.8,35.8,0,0,1,3.542,14.213H281.258a24.125,24.125,0,0,0-1.726-6.9,19.209,19.209,0,0,0-3.633-5.72,16.467,16.467,0,0,0-5.4-3.86A16.748,16.748,0,0,0,263.548,225q-16.8,0-22.978,15.893a76.734,76.734,0,0,0-4.268,16.847,129.709,129.709,0,0,0-1.272,18.119q0,6.63.59,12.942t1.59,12.125a55.826,55.826,0,0,0,2.543,9.308,27.239,27.239,0,0,0,4.314,7.721,19.06,19.06,0,0,0,6.629,5.221,21.672,21.672,0,0,0,9.491,1.908,22.71,22.71,0,0,0,10.445-2.271,21.653,21.653,0,0,0,7.356-6,25.079,25.079,0,0,0,4.314-8.671,37.2,37.2,0,0,0,1.408-10.219,35.535,35.535,0,0,0-1.453-10.217,24.82,24.82,0,0,0-4.36-8.492,20.984,20.984,0,0,0-7.265-5.766,24.8,24.8,0,0,0-20.435.135,21.752,21.752,0,0,0-7.992,7.176q-.273-4.088-.273-8.084,0-2.812.137-5.494t.317-5.405a29.14,29.14,0,0,1,9.945-5.4,43.467,43.467,0,0,1,29.154,1.635,37.194,37.194,0,0,1,12.669,9.263,41,41,0,0,1,7.946,13.758,50.981,50.981,0,0,1,2.771,16.985,50.187,50.187,0,0,1-3.134,18.027,41.821,41.821,0,0,1-8.809,14.168,38.283,38.283,0,0,1-5.59,4.819A2.83,2.83,0,0,0,289,340.157h48.324a2.834,2.834,0,0,0,2.835-2.834V2.834A2.834,2.834,0,0,0,337.323,0Z"/>
      </g>
    </g>
</svg>
