<svg xmlns="http://www.w3.org/2000/svg" width="120mm" height="120mm" viewBox="0 0 340.157 340.157">
  <g id="Zimmernummer">
      <g id="Z-03-054-R">
        <path fill="#A0552B" stroke="none" d="M337.323,0H2.835A2.835,2.835,0,0,0,0,2.835V337.323a2.834,2.834,0,0,0,2.834,2.834H131.871a2.831,2.831,0,0,0,1.527-5.214q-1.683-1.105-3.244-2.365-12.717-10.263-13.442-29.426h21.162q.906,10.716,7.265,16.348t16.711,5.63q23.793,0,24.249-28.608,0-18.345-13.714-24.976a24.523,24.523,0,0,0-11.08-2.179q-16.62,0-20.979,11.9H119.074L133.06,209.97h67.3v18.982H148.863L142.142,262.1l.363.363q8.808-9.9,25.612-9.9a39.528,39.528,0,0,1,15.712,3.269q14.985,6.45,20.707,22.978a50.891,50.891,0,0,1,2.724,16.529q0,18.711-10.535,31.969a42.821,42.821,0,0,1-8,7.754,2.838,2.838,0,0,0,1.731,5.093H271a2.835,2.835,0,0,0,2.835-2.834V235.309h-.455l-39.052,57.308H267.02v16.711H217.977v-20.98l55.855-78.378H293.9v82.647h16.711v16.711H293.9v28a2.834,2.834,0,0,0,2.834,2.834h40.586a2.834,2.834,0,0,0,2.834-2.834V2.834A2.834,2.834,0,0,0,337.323,0Z"/>
      </g>
    </g>
</svg>
