<svg xmlns="http://www.w3.org/2000/svg" width="120mm" height="120mm" viewBox="0 0 340.157 340.157">
  <g id="Zimmernummer">
      <g id="Z-03-237">
        <path fill="#000000" stroke="none" d="M337.323,0H2.835A2.835,2.835,0,0,0,0,2.835V337.323a2.834,2.834,0,0,0,2.834,2.834h24.4c1.491,0-1.518-1.157-1.43-2.645q1.662-27.975,28.495-46.36,6.356-4.632,13.26-8.991Q93.08,266,93.534,248.376q0-9.264-3.269-13.805a24.447,24.447,0,0,0-7.538-6.9,21.829,21.829,0,0,0-10.808-2.361q-6.63,0-10.808,2.543-11.17,6.811-11.806,30.061H28.053q0-22.251,11.806-36.237t33.059-13.987q21.252,0,32.877,13.714,8.991,10.991,8.991,26.247,0,20.073-18.255,35.511a149.744,149.744,0,0,1-18.073,13.351q-9.447,5.994-14.168,9.536-10.809,8.085-13.169,15.439h63.484v15.837a2.834,2.834,0,0,0,2.834,2.834H139.89a2.828,2.828,0,0,0,1.657-5.122q-9.138-6.627-13.657-18.725a57.918,57.918,0,0,1-3.179-18.619h21.252q-.273,11.9,5.9,19.8t17.71,7.9q11.533,0,18.709-6t7.175-17.255q0-13.623-10.808-18.891-7.629-3.723-23.25-3.27v-15.8q19.346.636,26.338-10.354,2.452-4.086,2.452-11.262a15.673,15.673,0,0,0-5.63-12.169,18.692,18.692,0,0,0-12.9-5.086q-17.71-.09-22.16,16.892a32.545,32.545,0,0,0-1.09,9.718H127.163q.726-18.981,12.17-31.606t30.97-12.624A47.99,47.99,0,0,1,199,216.68q12.441,9.081,12.442,25.793,0,21.342-18.436,27.881v.364a27.2,27.2,0,0,1,17.437,11.08,33.6,33.6,0,0,1,6.267,19.8q-.091,19.707-13.623,30.606-1.842,1.484-3.786,2.762a2.829,2.829,0,0,0,1.559,5.192h39.905a2.838,2.838,0,0,0,2.82-2.6q3.864-43.146,31.185-83.913a235.272,235.272,0,0,1,18.8-24.431H226.092V210.231h89.1v17.71q-32.516,36.51-43.413,79.377a187.673,187.673,0,0,0-4.9,29.773,2.833,2.833,0,0,0,2.828,3.066h67.626a2.834,2.834,0,0,0,2.834-2.834V2.835A2.834,2.834,0,0,0,337.323,0Z"/>
      </g>
    </g>
</svg>
