<svg xmlns="http://www.w3.org/2000/svg" width="120mm" height="120mm" viewBox="0 0 340.157 340.157">
  <g id="Zimmernummer">
      <g id="Z-03-506-M">
        <path fill="#D4AF37" stroke="none" d="M337.323,0H2.835A2.835,2.835,0,0,0,0,2.835V337.323a2.834,2.834,0,0,0,2.834,2.834H36.685a2.831,2.831,0,0,0,1.524-5.215,40.78,40.78,0,0,1-3.316-2.413Q22.176,322.268,21.451,303.1H42.613q.906,10.716,7.265,16.347t16.711,5.631q23.793,0,24.249-28.609,0-18.344-13.714-24.975a24.493,24.493,0,0,0-11.08-2.18q-16.62,0-20.979,11.9H23.813L37.8,209.922h67.3V228.9H53.6l-6.721,33.151.363.363q8.808-9.9,25.612-9.9a39.508,39.508,0,0,1,15.712,3.269q14.985,6.452,20.707,22.979A50.887,50.887,0,0,1,112,295.293q0,18.483-10.283,31.649a2.954,2.954,0,0,1-.579.56l-10.253,7.537a2.834,2.834,0,0,0,1.679,5.118h51.159a2.835,2.835,0,0,0,1.7-5.1,38.041,38.041,0,0,1-3.63-3.207,42.9,42.9,0,0,1-8.219-11.762,75.551,75.551,0,0,1-5.131-14.3,105.312,105.312,0,0,1-2.68-15.531q-.772-7.946-.771-15.484,0-6.994.681-14.532a106.067,106.067,0,0,1,2.406-14.849,78.475,78.475,0,0,1,4.678-13.942,44.261,44.261,0,0,1,7.583-11.759,37.751,37.751,0,0,1,11.08-8.4,38.582,38.582,0,0,1,15.167-3.814v17.8q-20.434,3.36-20.434,49.769,0,3.906.181,9.174a104.214,104.214,0,0,0,.954,10.807,79.829,79.829,0,0,0,2.316,10.945,37.612,37.612,0,0,0,4.178,9.627,22.071,22.071,0,0,0,6.629,6.855,17.086,17.086,0,0,0,9.627,2.635q23.7,0,23.705-50.043,0-46.227-20.344-49.769v-17.8a38.587,38.587,0,0,1,15.167,3.814A36.841,36.841,0,0,1,199.6,219.73a46.671,46.671,0,0,1,7.583,11.807,76.347,76.347,0,0,1,4.723,13.942,106.435,106.435,0,0,1,2.407,14.847q.679,7.542.681,14.531,0,7.629-.773,15.668a100.257,100.257,0,0,1-2.725,15.575,74.913,74.913,0,0,1-5.221,14.214,42.767,42.767,0,0,1-8.31,11.67,37.926,37.926,0,0,1-3.487,3.061,2.838,2.838,0,0,0,1.687,5.112H247.52a2.835,2.835,0,0,0,1.4-5.3l-3.106-1.77a3.062,3.062,0,0,1-.5-.355,38.7,38.7,0,0,1-8.486-10.6,62.4,62.4,0,0,1-5.4-13.488,90.08,90.08,0,0,1-2.77-15.258q-.772-7.989-.772-15.985a144.16,144.16,0,0,1,.954-16.482,97.312,97.312,0,0,1,3.224-16.121,70.9,70.9,0,0,1,6.04-14.623,46.694,46.694,0,0,1,9.308-11.9,40.736,40.736,0,0,1,13.123-7.992,48.671,48.671,0,0,1,17.484-2.906,38.928,38.928,0,0,1,26.338,10.08,37.123,37.123,0,0,1,8.355,11.217,35.8,35.8,0,0,1,3.542,14.213H295.093a24.06,24.06,0,0,0-1.726-6.9,19.227,19.227,0,0,0-3.632-5.72,16.471,16.471,0,0,0-5.405-3.86A16.748,16.748,0,0,0,277.383,225q-16.8,0-22.977,15.893a76.735,76.735,0,0,0-4.269,16.847,129.709,129.709,0,0,0-1.272,18.119q0,6.63.59,12.942t1.59,12.125a55.923,55.923,0,0,0,2.543,9.308,27.217,27.217,0,0,0,4.315,7.721,19.066,19.066,0,0,0,6.628,5.221,21.673,21.673,0,0,0,9.492,1.908,22.705,22.705,0,0,0,10.444-2.271,21.643,21.643,0,0,0,7.356-6,25.079,25.079,0,0,0,4.314-8.671,37.2,37.2,0,0,0,1.408-10.219,35.5,35.5,0,0,0-1.453-10.217,24.836,24.836,0,0,0-4.359-8.492,21,21,0,0,0-7.266-5.766,24.8,24.8,0,0,0-20.435.135,21.752,21.752,0,0,0-7.992,7.176q-.272-4.088-.272-8.084,0-2.812.137-5.494t.317-5.405a29.136,29.136,0,0,1,9.944-5.4,43.47,43.47,0,0,1,29.155,1.635,37.2,37.2,0,0,1,12.669,9.263,41.02,41.02,0,0,1,7.946,13.758,51.006,51.006,0,0,1,2.77,16.985,50.209,50.209,0,0,1-3.133,18.027,41.837,41.837,0,0,1-8.809,14.168,42.968,42.968,0,0,1-5.636,4.822,2.83,2.83,0,0,0,1.665,5.122h34.53a2.834,2.834,0,0,0,2.834-2.834V2.834A2.834,2.834,0,0,0,337.323,0Z"/>
      </g>
    </g>
</svg>
