<svg xmlns="http://www.w3.org/2000/svg" width="120.001mm" height="120.001mm" viewBox="0 0 340.16 340.162">
  <g id="Zimmernummer">
      <g id="Z-03-203-E">
        <path fill="#A09f9d" stroke="none" d="M337.325,0H2.835A2.835,2.835,0,0,0,0,2.835V337.916a2.246,2.246,0,0,0,2.246,2.246H23.914a2.246,2.246,0,0,0,2.245-2.246h0a52.22,52.22,0,0,1,7.731-25.923,71.5,71.5,0,0,1,20.859-21.05q6.33-4.65,13.22-9.03a104.477,104.477,0,0,0,12.66-9.4,50.18,50.18,0,0,0,9.5-10.89,25.942,25.942,0,0,0,3.91-13.5,36.947,36.947,0,0,0-.84-7.55,19.994,19.994,0,0,0-3.26-7.44,19.276,19.276,0,0,0-6.7-5.78,22.934,22.934,0,0,0-10.672-2.317,20.82,20.82,0,0,0-11.028,2.506,18.872,18.872,0,0,0-6.7,6.891,34.084,34.084,0,0,0-3.72,10.33,74.218,74.218,0,0,0-1.4,12.85H28.489a66.462,66.462,0,0,1,2.89-20.01,44.187,44.187,0,0,1,8.66-15.92,40.261,40.261,0,0,1,13.919-10.53,47.013,47.013,0,0,1,20.2-3.8c6.521.072,13.219,1.015,19.131,3.9a38.126,38.126,0,0,1,12.94,9.871,36.086,36.086,0,0,1,6.99,12.939c2.6,8.883,2.978,18.714-.38,27.46a45.333,45.333,0,0,1-6.51,11.641,66.7,66.7,0,0,1-9.309,9.78q-5.221,4.469-10.8,8.38c-3.73,2.6-7.449,5.09-11.18,7.44s-7.17,4.72-10.33,7.08a60.319,60.319,0,0,0-8.29,7.36,20.817,20.817,0,0,0-4.84,8.1h63.5v16.613a2.246,2.246,0,0,0,2.246,2.245l30.17,0a1.283,1.283,0,0,0,.65-2.373c-.611-.371-1.2-.761-1.772-1.181a44.118,44.118,0,0,1-13.78-16.391,72.781,72.781,0,0,1-6.7-21.879,155.565,155.565,0,0,1,0-46.18,72.964,72.964,0,0,1,6.7-21.88,44.091,44.091,0,0,1,13.78-16.38q7.56-5.49,18.86-6.27a1.283,1.283,0,0,1,1.371,1.29v15.27a1.28,1.28,0,0,1-1.051,1.279,15.8,15.8,0,0,0-8.01,3.7,27.546,27.546,0,0,0-7.26,10.89,66.028,66.028,0,0,0-3.82,15.92,159.9,159.9,0,0,0,0,38.64,64.675,64.675,0,0,0,3.82,15.92c2.278,5.732,6.209,11.572,12.258,13.732,5.962,2.129,13.319,1.256,18.182-2.932a27.083,27.083,0,0,0,7.36-10.8,64.675,64.675,0,0,0,3.82-15.92,159.946,159.946,0,0,0,0-38.64c-1.175-9.435-3.632-20.331-11.18-26.81a16.131,16.131,0,0,0-7.874-3.68,1.348,1.348,0,0,1-1.1-1.271v-15.3a1.287,1.287,0,0,1,1.37-1.29q11.3.8,18.87,6.27a44.184,44.184,0,0,1,13.78,16.38,73.281,73.281,0,0,1,6.7,21.88,156.78,156.78,0,0,1,0,46.18,73.1,73.1,0,0,1-6.7,21.879,44.211,44.211,0,0,1-13.78,16.391c-.568.418-1.167.808-1.765,1.177a1.284,1.284,0,0,0,.643,2.377h51.74a1.191,1.191,0,0,0,.506-2.254l-.06-.03c-.28-.14-.57-.29-.85-.43a36.492,36.492,0,0,1-9.31-7.02,39.762,39.762,0,0,1-8.66-14.34,58.282,58.282,0,0,1-3.16-18.62H242.3q-.375,11.91,5.87,19.829t18.71,7.911q10.62,0,17.79-6.05t7.17-17.22q0-7.635-2.98-12.11a19.383,19.383,0,0,0-7.82-6.79,31.722,31.722,0,0,0-10.9-2.89,103.286,103.286,0,0,0-12.38-.37v-15.83a48.9,48.9,0,0,0,10.43-.74,29.085,29.085,0,0,0,9.31-3.26,18.187,18.187,0,0,0,6.61-6.43,18.922,18.922,0,0,0,2.51-10.05q0-8.385-5.68-13.41t-14.62-5.03a19.215,19.215,0,0,0-16.47,8.29,26.988,26.988,0,0,0-4.01,8.57,32.253,32.253,0,0,0-1.12,9.77H223.5a53.559,53.559,0,0,1,3.53-17.59A44.306,44.306,0,0,1,235.687,220a38.387,38.387,0,0,1,13.32-9.309,44.4,44.4,0,0,1,17.69-3.36,51.321,51.321,0,0,1,14.99,2.24,43.761,43.761,0,0,1,13.22,6.52,31.333,31.333,0,0,1,12.94,26.06,32.5,32.5,0,0,1-4.47,17.23q-4.47,7.35-13.97,10.71v.37a26.9,26.9,0,0,1,17.41,11.079q6.24,8.852,6.24,21.511a36.4,36.4,0,0,1-3.72,16.66,37.961,37.961,0,0,1-10.06,12.48,44.449,44.449,0,0,1-7.95,5.12c-.43.21-.86.42-1.29.62l-.06.03a1.159,1.159,0,0,0,.491,2.194l46.857,0a2.834,2.834,0,0,0,2.835-2.834V2.835A2.834,2.834,0,0,0,337.325,0Z"/>
      </g>
    </g>
</svg>
