<svg xmlns="http://www.w3.org/2000/svg" width="120mm" height="120mm" viewBox="0 0 340.157 340.157">
  <g id="Zimmernummer">
      <g id="Z-03-345-E">
        <path fill="#A09f9d" stroke="none" d="M337.323,0H2.835A2.835,2.835,0,0,0,0,2.835V337.323a2.834,2.834,0,0,0,2.834,2.834H36.627a2.835,2.835,0,0,0,1.6-5.173q-9.4-6.655-14-19a57.907,57.907,0,0,1-3.178-18.618H42.3q-.273,11.9,5.9,19.8t17.71,7.9q11.532,0,18.709-5.994t7.175-17.256q0-13.623-10.808-18.89-7.629-3.725-23.25-3.27v-15.8q19.344.636,26.338-10.353,2.452-4.088,2.452-11.262a15.673,15.673,0,0,0-5.631-12.17A18.694,18.694,0,0,0,68,224.983q-17.711-.089-22.16,16.893a32.541,32.541,0,0,0-1.09,9.718H23.5q.726-18.983,12.17-31.606t30.969-12.624a47.993,47.993,0,0,1,28.7,8.991q12.442,9.083,12.442,25.793,0,21.344-18.437,27.882v.364a27.2,27.2,0,0,1,17.438,11.08,33.6,33.6,0,0,1,6.267,19.8q-.091,19.709-13.623,30.607a48.887,48.887,0,0,1-4.27,3.077,2.828,2.828,0,0,0,1.545,5.2h79.448a2.834,2.834,0,0,0,2.835-2.834V235.246h-.454l-39.053,57.308h32.7v16.711H123.125v-20.98l55.854-78.378H199.05v82.647h16.711v16.711H199.05v28.058a2.835,2.835,0,0,0,2.835,2.834h41.938a2.83,2.83,0,0,0,1.523-5.215,41.124,41.124,0,0,1-3.338-2.427q-12.715-10.263-13.441-29.426h21.161q.907,10.716,7.266,16.348t16.711,5.63q23.793,0,24.249-28.608,0-18.345-13.714-24.976a24.523,24.523,0,0,0-11.08-2.179q-16.62,0-20.98,11.9H230.928l13.987-71.294h67.3v18.982h-51.5L254,262.038l.363.363q8.808-9.9,25.611-9.9a39.521,39.521,0,0,1,15.712,3.269q14.985,6.45,20.707,22.978a50.865,50.865,0,0,1,2.725,16.529q0,18.711-10.535,31.969a42.8,42.8,0,0,1-8.072,7.809,2.84,2.84,0,0,0,1.727,5.1h35.088a2.834,2.834,0,0,0,2.834-2.834V2.834A2.834,2.834,0,0,0,337.323,0Z"/>
      </g>
    </g>
</svg>
