<svg xmlns="http://www.w3.org/2000/svg" width="120mm" height="120mm" viewBox="0 0 340.158 340.157">
  <g id="Zimmernummer">
      <g id="Z-03-605-M">
        <path fill="#D4AF37" stroke="none" d="M337.323,0H2.834A2.834,2.834,0,0,0,0,2.834V337.323a2.834,2.834,0,0,0,2.834,2.834H39.851a2.834,2.834,0,0,0,1.739-5.07c-1.011-.79-1.907-1.543-2.61-2.15a38.666,38.666,0,0,1-8.719-10.807,62.383,62.383,0,0,1-5.4-13.486,90.08,90.08,0,0,1-2.77-15.258q-.773-7.992-.772-15.985a144.2,144.2,0,0,1,.954-16.484A97.353,97.353,0,0,1,25.493,244.8a70.884,70.884,0,0,1,6.04-14.621,46.739,46.739,0,0,1,9.308-11.9,40.771,40.771,0,0,1,13.123-7.992,48.671,48.671,0,0,1,17.484-2.906A38.917,38.917,0,0,1,97.786,217.46a37.114,37.114,0,0,1,8.355,11.215,35.8,35.8,0,0,1,3.542,14.215H88.522a24.043,24.043,0,0,0-1.726-6.9,19.237,19.237,0,0,0-3.632-5.722,16.5,16.5,0,0,0-5.405-3.86A16.78,16.78,0,0,0,70.812,225q-16.8,0-22.978,15.895a76.744,76.744,0,0,0-4.268,16.845,129.73,129.73,0,0,0-1.272,18.119q0,6.63.59,12.942t1.59,12.125a55.923,55.923,0,0,0,2.543,9.308,27.189,27.189,0,0,0,4.315,7.721,19.048,19.048,0,0,0,6.628,5.223,21.674,21.674,0,0,0,9.492,1.906A22.705,22.705,0,0,0,77.9,322.812a21.69,21.69,0,0,0,7.356-6,25.072,25.072,0,0,0,4.314-8.673,37.183,37.183,0,0,0,1.408-10.217,35.51,35.51,0,0,0-1.453-10.219,24.826,24.826,0,0,0-4.359-8.49A21,21,0,0,0,77.9,273.45a22.889,22.889,0,0,0-10.172-2.135,22.635,22.635,0,0,0-10.263,2.272,21.745,21.745,0,0,0-7.992,7.174q-.272-4.088-.272-8.082,0-2.815.136-5.5t.318-5.4a29.107,29.107,0,0,1,9.944-5.4A40.206,40.206,0,0,1,71.811,254.6a40.481,40.481,0,0,1,16.939,3.407,37.19,37.19,0,0,1,12.668,9.263,41.015,41.015,0,0,1,7.947,13.76,51,51,0,0,1,2.77,16.983A50.187,50.187,0,0,1,109,316.044a41.819,41.819,0,0,1-8.808,14.168,38.374,38.374,0,0,1-5.593,4.82,2.829,2.829,0,0,0,1.661,5.125h47.625a2.833,2.833,0,0,0,1.685-5.108,35.287,35.287,0,0,1-3.647-3.2,42.924,42.924,0,0,1-8.219-11.76,75.521,75.521,0,0,1-5.131-14.305,105.267,105.267,0,0,1-2.68-15.531q-.773-7.945-.771-15.484,0-6.995.681-14.532a106.067,106.067,0,0,1,2.406-14.849,78.455,78.455,0,0,1,4.678-13.94,44.272,44.272,0,0,1,7.583-11.761,37.779,37.779,0,0,1,11.08-8.4,38.565,38.565,0,0,1,15.167-3.814v17.8q-20.434,3.36-20.434,49.769,0,3.906.181,9.172a104.3,104.3,0,0,0,.954,10.809,79.738,79.738,0,0,0,2.316,10.943,37.581,37.581,0,0,0,4.178,9.627,22.078,22.078,0,0,0,6.629,6.857,17.1,17.1,0,0,0,9.627,2.633q23.7,0,23.7-50.041,0-46.227-20.344-49.769v-17.8a38.57,38.57,0,0,1,15.167,3.814,36.835,36.835,0,0,1,11.035,8.445,46.706,46.706,0,0,1,7.583,11.807,76.373,76.373,0,0,1,4.723,13.942,106.511,106.511,0,0,1,2.407,14.849q.68,7.539.68,14.531,0,7.629-.772,15.666a100.283,100.283,0,0,1-2.725,15.577,74.944,74.944,0,0,1-5.221,14.212,42.737,42.737,0,0,1-8.31,11.67,35.691,35.691,0,0,1-3.518,3.056,2.836,2.836,0,0,0,1.676,5.118h47.281a2.829,2.829,0,0,0,1.543-5.2,40.4,40.4,0,0,1-3.343-2.426q-12.717-10.262-13.442-29.425h21.162q.906,10.716,7.265,16.347t16.711,5.631q23.793,0,24.249-28.607,0-18.346-13.714-24.977a24.544,24.544,0,0,0-11.08-2.18q-16.62,0-20.979,11.9H230.656l13.986-71.3h67.3V228.9H260.445l-6.721,33.149.363.363q8.808-9.9,25.612-9.9a39.508,39.508,0,0,1,15.712,3.269q14.985,6.448,20.707,22.977a50.9,50.9,0,0,1,2.724,16.529q0,18.713-10.535,31.969a42.789,42.789,0,0,1-8.054,7.8,2.84,2.84,0,0,0,1.728,5.1h35.342a2.835,2.835,0,0,0,2.835-2.835V2.834A2.834,2.834,0,0,0,337.323,0Z"/>
      </g>
    </g>
</svg>
