<svg xmlns="http://www.w3.org/2000/svg" width="120mm" height="120mm" viewBox="0 0 340.157 340.157">
  <g id="Zimmernummer">
      <g id="Z-03-114-R">
        <path fill="#A0552B" stroke="none" d="M337.323,0H2.834A2.834,2.834,0,0,0,0,2.834V337.323a2.834,2.834,0,0,0,2.835,2.834H71.892a2.834,2.834,0,0,0,2.835-2.834V248.556H42.758V231.845q22.887,0,33.15-11.534a20.288,20.288,0,0,0,4.722-10.082H97.977V337.323a2.834,2.834,0,0,0,2.835,2.834h55.833a2.834,2.834,0,0,0,2.835-2.834V248.556H127.511V231.845q22.887,0,33.15-11.534a20.3,20.3,0,0,0,4.722-10.082H182.73V337.323a2.834,2.834,0,0,0,2.835,2.834h74.271a2.834,2.834,0,0,0,2.834-2.834V235.568h-.454l-39.052,57.308h32.7v16.711H206.816v-20.98l55.854-78.378h20.072v82.647h16.711v16.711H282.742v27.736a2.834,2.834,0,0,0,2.834,2.834h51.747a2.834,2.834,0,0,0,2.834-2.834V2.834A2.834,2.834,0,0,0,337.323,0Z"/>
      </g>
    </g>
</svg>
