<svg xmlns="http://www.w3.org/2000/svg" width="120mm" height="120mm" viewBox="0 0 340.157 340.157">
  <g id="Zimmernummer">
      <g id="Z-03-056-R">
        <path fill="#A0552B" stroke="none" d="M337.323,0H2.835A2.835,2.835,0,0,0,0,2.835V337.323a2.834,2.834,0,0,0,2.834,2.834H133.241a2.831,2.831,0,0,0,1.527-5.214q-1.683-1.105-3.244-2.365-12.717-10.263-13.442-29.426h21.162q.906,10.716,7.265,16.348t16.711,5.63q23.793,0,24.249-28.608,0-18.345-13.714-24.976a24.52,24.52,0,0,0-11.08-2.179q-16.62,0-20.979,11.9H120.444L134.43,209.97h67.3v18.982H150.233L143.512,262.1l.363.363q8.808-9.9,25.612-9.9a39.528,39.528,0,0,1,15.712,3.269q14.985,6.45,20.707,22.978a50.891,50.891,0,0,1,2.724,16.529q0,18.711-10.535,31.969a42.79,42.79,0,0,1-8,7.754,2.838,2.838,0,0,0,1.731,5.093H239.77a2.835,2.835,0,0,0,1.607-5.167q-1.329-.951-2.549-2a38.684,38.684,0,0,1-8.719-10.807,62.348,62.348,0,0,1-5.4-13.487,89.883,89.883,0,0,1-2.771-15.258q-.773-7.99-.771-15.984a144.407,144.407,0,0,1,.953-16.484,97.333,97.333,0,0,1,3.224-16.121,71.056,71.056,0,0,1,6.039-14.622,46.7,46.7,0,0,1,9.31-11.9,40.717,40.717,0,0,1,13.123-7.993,48.662,48.662,0,0,1,17.483-2.906,38.923,38.923,0,0,1,26.338,10.081,37.134,37.134,0,0,1,8.356,11.216,35.836,35.836,0,0,1,3.542,14.214H288.371a24.135,24.135,0,0,0-1.726-6.9,19.219,19.219,0,0,0-3.633-5.722,16.485,16.485,0,0,0-5.4-3.859,16.752,16.752,0,0,0-6.947-1.409q-16.8,0-22.978,15.894a76.706,76.706,0,0,0-4.269,16.847,129.849,129.849,0,0,0-1.271,18.119q0,6.63.59,12.941t1.59,12.125a55.838,55.838,0,0,0,2.543,9.309,27.241,27.241,0,0,0,4.313,7.72,19.034,19.034,0,0,0,6.63,5.222,21.652,21.652,0,0,0,9.491,1.907,22.7,22.7,0,0,0,10.445-2.27,21.685,21.685,0,0,0,7.356-5.994,25.1,25.1,0,0,0,4.313-8.673,37.153,37.153,0,0,0,1.409-10.218,35.547,35.547,0,0,0-1.453-10.218,24.85,24.85,0,0,0-4.36-8.491,20.972,20.972,0,0,0-7.265-5.766,24.8,24.8,0,0,0-20.435.135,21.75,21.75,0,0,0-7.992,7.175q-.273-4.088-.273-8.083,0-2.814.136-5.495t.318-5.4a29.119,29.119,0,0,1,9.945-5.4A43.48,43.48,0,0,1,288.6,258.06a37.19,37.19,0,0,1,12.67,9.264,41.005,41.005,0,0,1,7.946,13.759,50.969,50.969,0,0,1,2.771,16.983,50.2,50.2,0,0,1-3.134,18.027,41.829,41.829,0,0,1-8.81,14.168,38.271,38.271,0,0,1-5.523,4.773,2.83,2.83,0,0,0,1.664,5.123h41.142a2.834,2.834,0,0,0,2.834-2.834V2.834A2.834,2.834,0,0,0,337.323,0Z"/>
      </g>
    </g>
</svg>
