<svg xmlns="http://www.w3.org/2000/svg" width="120mm" height="120mm" viewBox="0 0 340.157 340.157">
  <g id="Zimmernummer">
      <g id="Z-03-132">
        <path fill="#000000" stroke="none" d="M337.323,0H2.834A2.834,2.834,0,0,0,0,2.834V337.323a2.834,2.834,0,0,0,2.834,2.834H61.065a2.834,2.834,0,0,0,2.835-2.834V248.839H31.931V232.128q22.887,0,33.15-11.534A20.289,20.289,0,0,0,69.8,210.513H87.15v126.81a2.834,2.834,0,0,0,2.835,2.834h37.326a2.828,2.828,0,0,0,1.69-5.1q-8.882-6.6-13.315-18.467a57.912,57.912,0,0,1-3.179-18.618h21.252q-.273,11.9,5.9,19.8t17.71,7.9q11.534,0,18.709-5.994t7.175-17.256q0-13.623-10.808-18.891-7.629-3.723-23.25-3.269v-15.8q19.345.636,26.338-10.354,2.452-4.086,2.452-11.261a15.673,15.673,0,0,0-5.63-12.17,18.692,18.692,0,0,0-12.9-5.086q-17.711-.09-22.16,16.892a32.545,32.545,0,0,0-1.09,9.718H114.959q.726-18.981,12.17-31.605T158.1,207.97a47.989,47.989,0,0,1,28.7,8.991q12.441,9.082,12.442,25.793,0,21.342-18.436,27.882V271a27.2,27.2,0,0,1,17.437,11.08,33.607,33.607,0,0,1,6.267,19.8q-.092,19.709-13.623,30.606-1.645,1.326-3.373,2.487a2.83,2.83,0,0,0,1.57,5.186H214.72a2.821,2.821,0,0,0,2.821-2.633q1.774-27.793,28.472-46.09,6.355-4.632,13.26-8.992,25.519-16.164,25.974-33.785,0-9.264-3.269-13.8a24.439,24.439,0,0,0-7.538-6.9,21.829,21.829,0,0,0-10.808-2.361q-6.63,0-10.808,2.543-11.171,6.811-11.806,30.061H219.766q0-22.251,11.806-36.237t33.059-13.986q21.252,0,32.877,13.714,8.991,10.989,8.991,26.247,0,20.071-18.255,35.51a149.638,149.638,0,0,1-18.073,13.351q-9.447,5.994-14.168,9.536-10.809,8.085-13.169,15.44h63.484v15.555a2.834,2.834,0,0,0,2.834,2.834h28.171a2.834,2.834,0,0,0,2.834-2.834V2.834A2.834,2.834,0,0,0,337.323,0Z"/>
      </g>
    </g>
</svg>
