<svg xmlns="http://www.w3.org/2000/svg" width="120mm" height="120mm" viewBox="0 0 340.158 340.157">
  <g id="Zimmernummer">
      <g id="Z-03-035-M">
        <path fill="#D4AF37" stroke="none" d="M337.323,0H2.835A2.835,2.835,0,0,0,0,2.835V337.323a2.834,2.834,0,0,0,2.834,2.834H133.757a2.828,2.828,0,0,0,1.647-5.129q-9.216-6.635-13.761-18.805a57.891,57.891,0,0,1-3.178-18.619h21.252q-.273,11.9,5.9,19.8t17.71,7.9q11.532,0,18.709-5.994t7.175-17.256q0-13.623-10.808-18.891-7.629-3.723-23.25-3.269v-15.8q19.344.636,26.338-10.354,2.452-4.086,2.452-11.261a15.674,15.674,0,0,0-5.631-12.17,18.691,18.691,0,0,0-12.9-5.086q-17.711-.09-22.16,16.892a32.545,32.545,0,0,0-1.09,9.718H120.917q.725-18.981,12.17-31.6T164.056,207.6a47.993,47.993,0,0,1,28.7,8.991q12.441,9.081,12.442,25.793,0,21.342-18.437,27.882v.363a27.206,27.206,0,0,1,17.438,11.08,33.607,33.607,0,0,1,6.267,19.8q-.093,19.707-13.623,30.606-1.9,1.532-3.915,2.847a2.829,2.829,0,0,0,1.556,5.194h43.043a2.833,2.833,0,0,0,1.536-5.211q-1.545-1.031-2.986-2.194-12.717-10.263-13.442-29.426H243.8q.906,10.717,7.265,16.348t16.711,5.631q23.793,0,24.249-28.609,0-18.344-13.714-24.975a24.507,24.507,0,0,0-11.08-2.18q-16.62,0-20.979,11.9H225l13.986-71.293h67.3v18.981H254.786l-6.721,33.149.363.364q8.809-9.9,25.612-9.9a39.512,39.512,0,0,1,15.712,3.27q14.985,6.45,20.707,22.977a50.893,50.893,0,0,1,2.724,16.53q0,18.709-10.535,31.968a43.037,43.037,0,0,1-7.785,7.6,2.831,2.831,0,0,0,1.741,5.071h40.719a2.835,2.835,0,0,0,2.835-2.834V2.834A2.835,2.835,0,0,0,337.323,0Z"/>
      </g>
    </g>
</svg>
