<svg xmlns="http://www.w3.org/2000/svg" width="120.001mm" height="119.997mm" viewBox="0 0 340.16 340.149">
  <g id="Zimmernummer">
      <g id="Z-03-206-E">
        <path fill="#A09f9d" stroke="none" d="M0,2.835V337.311a2.835,2.835,0,0,0,2.835,2.835H23.37a2.834,2.834,0,0,0,2.832-2.71c.043-.987.094-1.994.146-2.543a51.193,51.193,0,0,1,7.542-22.908,71.506,71.506,0,0,1,20.859-21.05q6.33-4.65,13.22-9.03a104.372,104.372,0,0,0,12.66-9.4,50.18,50.18,0,0,0,9.5-10.89,25.936,25.936,0,0,0,3.91-13.5,36.955,36.955,0,0,0-.84-7.55,20,20,0,0,0-3.26-7.44,19.276,19.276,0,0,0-6.7-5.78,22.934,22.934,0,0,0-10.672-2.317,20.812,20.812,0,0,0-11.028,2.507,18.861,18.861,0,0,0-6.7,6.89,34.094,34.094,0,0,0-3.72,10.33,74.229,74.229,0,0,0-1.4,12.85H28.489a66.466,66.466,0,0,1,2.89-20.01,44.187,44.187,0,0,1,8.66-15.92,40.283,40.283,0,0,1,13.919-10.53,47.035,47.035,0,0,1,20.2-3.805c6.52.072,13.218,1.015,19.13,3.905a38.111,38.111,0,0,1,12.94,9.87,36.082,36.082,0,0,1,6.99,12.94c2.6,8.882,2.978,18.713-.38,27.46a45.327,45.327,0,0,1-6.51,11.64,66.646,66.646,0,0,1-9.309,9.78q-5.221,4.47-10.8,8.38-5.595,3.9-11.18,7.44t-10.33,7.08a60.319,60.319,0,0,0-8.29,7.36,20.817,20.817,0,0,0-4.84,8.1H113.8a1.279,1.279,0,0,1,1.279,1.279v14.741a2.834,2.834,0,0,0,2.835,2.834H147.5a1.283,1.283,0,0,0,.649-2.373c-.61-.371-1.2-.761-1.771-1.181a44.113,44.113,0,0,1-13.78-16.39,72.8,72.8,0,0,1-6.7-21.88,155.565,155.565,0,0,1,0-46.18,72.974,72.974,0,0,1,6.7-21.88,44.082,44.082,0,0,1,13.78-16.38q7.56-5.49,18.86-6.27a1.282,1.282,0,0,1,1.37,1.29v15.27a1.281,1.281,0,0,1-1.051,1.28,15.8,15.8,0,0,0-8.009,3.7,27.554,27.554,0,0,0-7.26,10.89,66.028,66.028,0,0,0-3.82,15.92,159.845,159.845,0,0,0,0,38.64,64.663,64.663,0,0,0,3.82,15.92c2.278,5.732,6.208,11.573,12.257,13.732,5.963,2.128,13.319,1.256,18.183-2.932a27.076,27.076,0,0,0,7.36-10.8,64.663,64.663,0,0,0,3.82-15.92,160,160,0,0,0,0-38.64c-1.176-9.435-3.633-20.331-11.18-26.81a16.148,16.148,0,0,0-7.875-3.68,1.346,1.346,0,0,1-1.095-1.27v-15.3a1.287,1.287,0,0,1,1.37-1.29q11.295.8,18.87,6.27a44.184,44.184,0,0,1,13.78,16.38,73.29,73.29,0,0,1,6.7,21.88,156.848,156.848,0,0,1,0,46.18,73.112,73.112,0,0,1-6.7,21.88,44.216,44.216,0,0,1-13.78,16.39c-.569.419-1.168.808-1.766,1.177a1.284,1.284,0,0,0,.643,2.377h57.837a.924.924,0,0,0,.369-1.754l-.05-.02c-8.6-4.12-14.99-11.4-18.94-19.99-4.5-9.77-6-20.63-6.74-31.28a131.366,131.366,0,0,1,1.78-34.8c3.81-19.3,15.24-39.45,35.831-44.06,10.389-2.32,21.6-1.3,31.009,3.83a37.15,37.15,0,0,1,18.22,22.72,37.71,37.71,0,0,1,1.18,7.83h-21.23a20.376,20.376,0,0,0-6.46-13.65c-3.94-3.45-9.24-4.47-14.34-4.15a21.162,21.162,0,0,0-14.35,6.75c-4.08,4.4-6.21,10.15-7.73,15.85-1.84,6.93-2.43,13.92-3.12,21.02a150.13,150.13,0,0,0,.34,18.49,125.166,125.166,0,0,0,2.33,17.46,30.508,30.508,0,0,0,.88,3.54,22.708,22.708,0,0,0,18.2,16.67c8.81,1.26,17.31-2.23,22.18-9.79,9.1-14.15,4.88-40.09-14.04-43.36-9.39-1.62-18.81,2.12-23.76,10.21a.517.517,0,0,1-.96-.24c-.19-4.2-.22-8.42-.02-12.63.16-1.82.31-3.66.48-5.48a1.3,1.3,0,0,1,.41-.83c8.85-8.33,22.55-9.67,33.91-6.79a38.323,38.323,0,0,1,25.61,21.8,51.038,51.038,0,0,1,4.09,20.58c0,10.5-3.06,20.99-9.72,29.22a40.6,40.6,0,0,1-12.89,10.43,1.278,1.278,0,0,0,.539,2.424l45.609,0a2.834,2.834,0,0,0,2.835-2.834V2.835A2.835,2.835,0,0,0,337.325,0H2.835A2.835,2.835,0,0,0,0,2.835Z"/>
      </g>
    </g>
</svg>
