<svg xmlns="http://www.w3.org/2000/svg" width="120mm" height="120mm" viewBox="0 0 340.158 340.157">
  <g id="Zimmernummer">
      <g id="Z-03-223-R">
        <path fill="#A0552B" stroke="none" d="M337.323,0H2.835A2.835,2.835,0,0,0,0,2.835V337.323a2.834,2.834,0,0,0,2.834,2.834H21.586a2.821,2.821,0,0,0,2.821-2.645q1.663-27.975,28.5-46.36,6.357-4.632,13.26-8.991Q91.682,266,92.137,248.376q0-9.264-3.27-13.805a24.436,24.436,0,0,0-7.538-6.9,21.822,21.822,0,0,0-10.807-2.361q-6.632,0-10.808,2.543-11.17,6.811-11.807,30.061H26.655q0-22.251,11.807-36.237t33.059-13.987q21.252,0,32.877,13.714,8.991,10.991,8.991,26.247,0,20.073-18.255,35.511a149.744,149.744,0,0,1-18.073,13.351q-9.447,5.994-14.168,9.536-10.809,8.085-13.169,15.439h63.483v15.837a2.834,2.834,0,0,0,2.835,2.834h6.107a2.822,2.822,0,0,0,2.822-2.645q1.662-27.975,28.5-46.36,6.356-4.632,13.26-8.991Q192.246,266,192.7,248.376q0-9.264-3.269-13.805a24.447,24.447,0,0,0-7.538-6.9,21.829,21.829,0,0,0-10.808-2.361q-6.63,0-10.808,2.543-11.17,6.811-11.806,30.061H127.219q0-22.251,11.807-36.237t33.058-13.987q21.252,0,32.877,13.714,8.991,10.991,8.991,26.247,0,20.073-18.255,35.511a149.587,149.587,0,0,1-18.073,13.351q-9.447,5.994-14.168,9.536-10.809,8.085-13.169,15.439h63.484v15.837a2.834,2.834,0,0,0,2.834,2.834h22.451a2.828,2.828,0,0,0,1.657-5.122q-9.138-6.627-13.657-18.725a57.918,57.918,0,0,1-3.179-18.619h21.252q-.273,11.9,5.9,19.8t17.71,7.9q11.533,0,18.709-6t7.175-17.255q0-13.623-10.807-18.891-7.629-3.723-23.25-3.27v-15.8q19.344.636,26.337-10.354,2.452-4.086,2.453-11.262a15.674,15.674,0,0,0-5.631-12.169,18.692,18.692,0,0,0-12.9-5.086q-17.709-.09-22.16,16.892a32.545,32.545,0,0,0-1.09,9.718H226.329q.726-18.981,12.17-31.605t30.97-12.625a47.99,47.99,0,0,1,28.7,8.992q12.442,9.081,12.442,25.793,0,21.342-18.436,27.881v.364a27.2,27.2,0,0,1,17.437,11.08,33.6,33.6,0,0,1,6.267,19.8q-.091,19.707-13.623,30.606-1.84,1.484-3.786,2.762a2.829,2.829,0,0,0,1.559,5.192h37.295a2.834,2.834,0,0,0,2.835-2.834V2.834A2.834,2.834,0,0,0,337.323,0Z"/>
      </g>
    </g>
</svg>
