<svg xmlns="http://www.w3.org/2000/svg" width="120mm" height="120mm" viewBox="0 0 340.157 340.157">
  <g id="Zimmernummer">
      <g id="Z-03-421-M">
        <path fill="#D4AF37" stroke="none" d="M337.323,0H2.835A2.835,2.835,0,0,0,0,2.835V337.323a2.834,2.834,0,0,0,2.834,2.834H89.411a2.834,2.834,0,0,0,2.835-2.834V235.26h-.454L52.739,292.568h32.7v16.711H36.391V288.3l55.855-78.377h20.071v82.646h16.711v16.711H112.317v28.044a2.834,2.834,0,0,0,2.835,2.834h24.674a2.82,2.82,0,0,0,2.822-2.658q1.537-28.178,28.521-46.657,6.355-4.632,13.259-8.99,25.521-16.167,25.975-33.786,0-9.263-3.269-13.8a24.431,24.431,0,0,0-7.539-6.9A21.822,21.822,0,0,0,188.788,225q-6.63,0-10.808,2.543-11.171,6.811-11.806,30.061H144.922q0-22.251,11.806-36.237t33.059-13.986q21.252,0,32.877,13.713,8.991,10.989,8.991,26.248,0,20.071-18.255,35.51A149.665,149.665,0,0,1,195.327,296.2q-9.447,5.994-14.168,9.535-10.809,8.087-13.169,15.44h63.483v16.147a2.835,2.835,0,0,0,2.835,2.834h43.374a2.834,2.834,0,0,0,2.834-2.834V248.248H248.548V231.537q22.885,0,33.149-11.535a20.3,20.3,0,0,0,4.723-10.08h17.346v127.4a2.834,2.834,0,0,0,2.835,2.834h30.722a2.834,2.834,0,0,0,2.834-2.834V2.834A2.834,2.834,0,0,0,337.323,0Z"/>
      </g>
    </g>
</svg>
