<svg xmlns="http://www.w3.org/2000/svg" width="120mm" height="120mm" viewBox="0 0 340.158 340.157">
  <g id="Zimmernummer">
      <g id="Z-03-122-E">
        <path fill="#A09f9d" stroke="none" d="M337.323,0H2.835A2.835,2.835,0,0,0,0,2.835V337.323a2.834,2.834,0,0,0,2.834,2.834H59.647a2.834,2.834,0,0,0,2.834-2.834V248.839H30.513V232.128q22.885,0,33.149-11.534a20.3,20.3,0,0,0,4.723-10.081H85.731v126.81a2.835,2.835,0,0,0,2.835,2.834h21.382a2.822,2.822,0,0,0,2.821-2.633q1.774-27.793,28.471-46.09,6.357-4.632,13.26-8.992,25.521-16.164,25.975-33.785,0-9.264-3.27-13.8a24.428,24.428,0,0,0-7.538-6.9,21.826,21.826,0,0,0-10.808-2.361q-6.63,0-10.807,2.543-11.172,6.811-11.807,30.061H114.993q0-22.251,11.807-36.237t33.058-13.986q21.252,0,32.877,13.714,8.991,10.989,8.992,26.247,0,20.071-18.255,35.51A149.57,149.57,0,0,1,165.4,296.792q-9.446,5.994-14.168,9.536-10.809,8.085-13.169,15.44h63.484v15.555a2.834,2.834,0,0,0,2.835,2.834h12.642a2.82,2.82,0,0,0,2.82-2.633q1.776-27.793,28.472-46.09,6.357-4.632,13.26-8.992,25.519-16.164,25.975-33.785,0-9.264-3.27-13.8a24.439,24.439,0,0,0-7.538-6.9,21.825,21.825,0,0,0-10.807-2.361q-6.632,0-10.808,2.543-11.171,6.811-11.807,30.061H222.067q0-22.251,11.807-36.237t33.059-13.986q21.252,0,32.877,13.714,8.991,10.989,8.991,26.247,0,20.071-18.255,35.51a149.716,149.716,0,0,1-18.073,13.351q-9.447,5.994-14.168,9.536-10.809,8.085-13.169,15.44h63.483v15.555a2.834,2.834,0,0,0,2.835,2.834h25.869a2.834,2.834,0,0,0,2.835-2.834V2.834A2.834,2.834,0,0,0,337.323,0Z"/>
      </g>
    </g>
</svg>
