<svg xmlns="http://www.w3.org/2000/svg" width="120.001mm" height="120.001mm" viewBox="0 0 340.16 340.16">
  <g id="Zimmernummer">
      <g id="Z-03-009-M">
        <path fill="#D4AF37" stroke="none" d="M340.16,2.835v334.49a2.835,2.835,0,0,1-2.835,2.835H284.89a1.292,1.292,0,0,1-.63-2.42,39.815,39.815,0,0,0,7.39-5.06c15.97-13.84,20.72-37.04,20.72-57.25,0-18.44-1.32-40.66-14.33-55.08-10.84-12.02-28.71-15.35-44.08-11.82-16.65,3.82-28.77,17.46-31.69,34.14-2.92,16.63,1.97,35.76,16.36,45.77,13.1,9.11,34.181,10.41,46.421-.971a1.542,1.542,0,0,0,.479-1.008c.14-1.811.31-3.621.48-5.421a110.4,110.4,0,0,0,.01-11.79.766.766,0,0,0-1.41-.39c-5.02,7.58-14.11,11.1-23.19,9.59-19.05-3.17-23.36-29.26-14.14-43.46a22,22,0,0,1,21.78-9.76,22.7,22.7,0,0,1,18.54,16.72,30.861,30.861,0,0,1,.88,3.53,134.057,134.057,0,0,1,2.71,34.84c0,.38-.02.75-.04,1.11-1.35,14.06-2.43,33.8-16.66,41.33-5.81,3.07-13.9,3.34-19.78.26s-8.96-9.38-9.56-15.77H223.92a36.651,36.651,0,0,0,14.97,27.74,38.65,38.65,0,0,0,4.323,2.756,1.282,1.282,0,0,1-.6,2.414H2.835A2.835,2.835,0,0,1,0,337.325V2.835A2.835,2.835,0,0,1,2.835,0h334.49A2.835,2.835,0,0,1,340.16,2.835Z"/>
      </g>
    </g>
</svg>
