<svg xmlns="http://www.w3.org/2000/svg" width="120mm" height="120mm" viewBox="0 0 340.157 340.158">
  <g id="Zimmernummer">
      <g id="Z-03-507">
        <path fill="#000000" stroke="none" d="M337.323,0H2.835A2.835,2.835,0,0,0,0,2.835V337.323a2.835,2.835,0,0,0,2.835,2.835H39.272a2.831,2.831,0,0,0,1.524-5.215q-1.72-1.126-3.317-2.414Q24.764,322.266,24.038,303.1H45.2q.906,10.717,7.266,16.348t16.711,5.631q23.793,0,24.249-28.608,0-18.345-13.714-24.976a24.536,24.536,0,0,0-11.08-2.18q-16.62,0-20.98,11.9H26.4l13.986-71.3h67.3V228.9H56.188l-6.72,33.148.363.364q8.808-9.9,25.611-9.9a39.505,39.505,0,0,1,15.712,3.27q14.985,6.447,20.707,22.976a50.9,50.9,0,0,1,2.725,16.529q0,18.713-10.535,31.969a42.794,42.794,0,0,1-8.055,7.8,2.84,2.84,0,0,0,1.728,5.1h48.588a2.835,2.835,0,0,0,1.695-5.1,37.815,37.815,0,0,1-3.632-3.208,42.9,42.9,0,0,1-8.22-11.76,75.649,75.649,0,0,1-5.131-14.3,105.435,105.435,0,0,1-2.68-15.532q-.771-7.944-.771-15.484,0-6.993.682-14.531a105.911,105.911,0,0,1,2.406-14.85,78.364,78.364,0,0,1,4.678-13.939,44.269,44.269,0,0,1,7.583-11.762,37.759,37.759,0,0,1,11.08-8.4,38.561,38.561,0,0,1,15.167-3.815v17.8q-20.435,3.36-20.435,49.77,0,3.9.182,9.171a104,104,0,0,0,.954,10.809,79.7,79.7,0,0,0,2.315,10.943,37.586,37.586,0,0,0,4.178,9.627,22.085,22.085,0,0,0,6.63,6.858,17.1,17.1,0,0,0,9.627,2.633q23.7,0,23.7-50.041,0-46.228-20.344-49.77v-17.8a38.565,38.565,0,0,1,15.167,3.815,36.806,36.806,0,0,1,11.035,8.445,46.688,46.688,0,0,1,7.583,11.807,76.312,76.312,0,0,1,4.723,13.941,106.5,106.5,0,0,1,2.407,14.85q.679,7.538.681,14.531,0,7.629-.773,15.666a100.151,100.151,0,0,1-2.724,15.576,74.956,74.956,0,0,1-5.222,14.213,42.77,42.77,0,0,1-8.309,11.67,38.057,38.057,0,0,1-3.564,3.12,2.828,2.828,0,0,0,1.752,5.054h42.931a2.838,2.838,0,0,0,2.821-2.606q3.8-43.308,31.217-84.219a235.222,235.222,0,0,1,18.8-24.429h-67.48V209.921h89.1v17.711q-32.514,36.51-43.412,79.377a188.092,188.092,0,0,0-4.936,30.086,2.834,2.834,0,0,0,2.829,3.063h66.722a2.834,2.834,0,0,0,2.834-2.835V2.835A2.834,2.834,0,0,0,337.323,0Z"/>
      </g>
    </g>
</svg>
