<svg xmlns="http://www.w3.org/2000/svg" width="120mm" height="120mm" viewBox="0 0 340.158 340.157">
  <g id="Zimmernummer">
      <g id="Z-03-218-E">
        <path fill="#A09f9d" stroke="none" d="M337.323,0H2.834A2.834,2.834,0,0,0,0,2.834V337.323a2.834,2.834,0,0,0,2.834,2.834H29.088a2.822,2.822,0,0,0,2.822-2.645q1.661-27.977,28.5-46.362,6.355-4.632,13.26-8.991Q99.183,266,99.639,248.374q0-9.264-3.269-13.805a24.459,24.459,0,0,0-7.538-6.9,21.832,21.832,0,0,0-10.808-2.361q-6.632,0-10.808,2.543Q56.046,234.66,55.41,257.91H34.158q0-22.251,11.806-36.237t33.059-13.986q21.252,0,32.877,13.713,8.991,10.99,8.991,26.247,0,20.073-18.255,35.511a149.744,149.744,0,0,1-18.073,13.351Q75.116,302.5,70.4,306.045q-10.809,8.085-13.169,15.439h63.483v15.839a2.835,2.835,0,0,0,2.835,2.834h40.584a2.834,2.834,0,0,0,2.834-2.834V248.556H134.994V231.845q22.886,0,33.149-11.534a20.3,20.3,0,0,0,4.723-10.082h17.346V337.323a2.835,2.835,0,0,0,2.835,2.834h42.2a2.832,2.832,0,0,0,1.546-5.2q-1.578-1.059-3.039-2.254a36.431,36.431,0,0,1-9.9-12.8,41.065,41.065,0,0,1-3.633-17.756,36.576,36.576,0,0,1,1.681-11.353,31.212,31.212,0,0,1,4.767-9.264,29.038,29.038,0,0,1,7.539-6.948,32.928,32.928,0,0,1,9.9-4.222v-.364A26.969,26.969,0,0,1,225.668,243.2a38.868,38.868,0,0,1,2.725-15.122,29.333,29.333,0,0,1,7.675-10.852,34.817,34.817,0,0,1,11.761-6.721,52.753,52.753,0,0,1,14.985-2.725v16.8q-7.9,1.273-12.487,6.313t-4.587,13.3q0,8.175,4.5,13.123t12.578,5.95v16.166a26.867,26.867,0,0,0-8.764,2.27,21.285,21.285,0,0,0-6.72,4.769,21.056,21.056,0,0,0-4.315,6.992,27.36,27.36,0,0,0,.318,18.982,21.856,21.856,0,0,0,5.131,7.492,22.134,22.134,0,0,0,7.811,4.723,30.787,30.787,0,0,0,19.8,0,22.619,22.619,0,0,0,7.856-4.723,21.481,21.481,0,0,0,5.177-7.538,27.865,27.865,0,0,0,.363-19.026,19.7,19.7,0,0,0-4.314-6.948,22.423,22.423,0,0,0-6.721-4.723,26.549,26.549,0,0,0-8.81-2.27V263.269q8.084-1,12.534-5.858t4.45-13.033q0-8.263-4.5-13.441t-12.489-6.358v-16.8a51.279,51.279,0,0,1,15.849,2.952,33.4,33.4,0,0,1,11.67,7.129,29.809,29.809,0,0,1,7.175,10.9,39.892,39.892,0,0,1,2.452,14.44,28.82,28.82,0,0,1-4.677,16.484,27.46,27.46,0,0,1-13.76,10.308v.364a33.181,33.181,0,0,1,9.764,4.177,30.117,30.117,0,0,1,12.4,15.621,31.56,31.56,0,0,1,1.725,10.536,45.237,45.237,0,0,1-3.451,18.254,37.447,37.447,0,0,1-9.581,13.306,37.828,37.828,0,0,1-3.547,2.769,2.83,2.83,0,0,0,1.641,5.141h40.041a2.835,2.835,0,0,0,2.835-2.834V2.835A2.835,2.835,0,0,0,337.323,0Z"/>
      </g>
    </g>
</svg>
