<svg xmlns="http://www.w3.org/2000/svg" width="120mm" height="120mm" viewBox="0 0 340.157 340.158">
  <g id="Zimmernummer">
      <g id="Z-03-149-E">
        <path fill="#A09f9d" stroke="none" d="M337.323,0H2.835A2.835,2.835,0,0,0,0,2.835V337.323a2.835,2.835,0,0,0,2.835,2.835H63.426a2.834,2.834,0,0,0,2.834-2.834v-89.08H34.292V231.533q22.885,0,33.149-11.534a20.3,20.3,0,0,0,4.723-10.081H89.51V337.324a2.834,2.834,0,0,0,2.835,2.834h66.831a2.834,2.834,0,0,0,2.834-2.834V235.257h-.454L122.5,292.564h32.7v16.711H106.156V288.3l55.854-78.378h20.072v82.646h16.71v16.711h-16.71v28.049a2.834,2.834,0,0,0,2.834,2.834h45.647a2.831,2.831,0,0,0,1.667-5.118,36.018,36.018,0,0,1-2.834-2.333,37.056,37.056,0,0,1-8.356-11.217,35.751,35.751,0,0,1-3.542-14.213h21.161a24.043,24.043,0,0,0,1.726,6.9,19.175,19.175,0,0,0,3.633,5.721,16.48,16.48,0,0,0,5.4,3.861,16.772,16.772,0,0,0,6.948,1.407q16.8,0,22.978-15.894a76.733,76.733,0,0,0,4.268-16.847,129.978,129.978,0,0,0,1.272-18.118q0-6.628-.591-12.943t-1.589-12.124a56.084,56.084,0,0,0-2.543-9.309,27.289,27.289,0,0,0-4.314-7.719,19.067,19.067,0,0,0-6.63-5.223,21.669,21.669,0,0,0-9.491-1.907,22.715,22.715,0,0,0-10.444,2.27,21.671,21.671,0,0,0-7.356,6,25.092,25.092,0,0,0-4.314,8.628,36.953,36.953,0,0,0-1.408,10.262,35.451,35.451,0,0,0,1.453,10.217,24.758,24.758,0,0,0,4.36,8.492,20.968,20.968,0,0,0,7.265,5.768,22.872,22.872,0,0,0,10.172,2.134,22.637,22.637,0,0,0,10.263-2.271,21.755,21.755,0,0,0,7.992-7.175q.273,4.088.272,8.083,0,2.815-.136,5.494t-.318,5.4a29.126,29.126,0,0,1-9.945,5.4,43.48,43.48,0,0,1-29.153-1.635,37.236,37.236,0,0,1-12.669-9.263,41.034,41.034,0,0,1-7.947-13.76,50.949,50.949,0,0,1-2.77-16.984,50.222,50.222,0,0,1,3.133-18.028,41.862,41.862,0,0,1,8.81-14.168,39.621,39.621,0,0,1,13.668-9.264,45.811,45.811,0,0,1,17.71-3.314,50.8,50.8,0,0,1,17.211,2.634,39.709,39.709,0,0,1,12.624,7.22,38.713,38.713,0,0,1,8.718,10.808,62.454,62.454,0,0,1,5.4,13.486,90.315,90.315,0,0,1,2.77,15.258q.771,7.992.772,15.985a145.055,145.055,0,0,1-.953,16.438,97.433,97.433,0,0,1-3.225,16.166,71.088,71.088,0,0,1-6.039,14.622,46.769,46.769,0,0,1-9.309,11.9,37.87,37.87,0,0,1-3.837,3.083,2.837,2.837,0,0,0,1.583,5.185h53.237a2.834,2.834,0,0,0,2.834-2.835V2.835A2.834,2.834,0,0,0,337.323,0Z"/>
      </g>
    </g>
</svg>
