<svg xmlns="http://www.w3.org/2000/svg" width="120mm" height="120mm" viewBox="0 0 340.158 340.157">
  <g id="Zimmernummer">
      <g id="Z-03-635-R">
        <path fill="#A0552B" stroke="none" d="M337.323,0H2.835A2.835,2.835,0,0,0,0,2.835V337.323a2.834,2.834,0,0,0,2.834,2.834H39.991a2.836,2.836,0,0,0,1.595-5.176q-1.349-.96-2.607-2.044a38.677,38.677,0,0,1-8.718-10.807,62.393,62.393,0,0,1-5.4-13.487,90.08,90.08,0,0,1-2.769-15.258q-.774-7.99-.772-15.985a144.178,144.178,0,0,1,.954-16.483A97.23,97.23,0,0,1,25.493,244.8a70.945,70.945,0,0,1,6.039-14.622,46.72,46.72,0,0,1,9.309-11.9,40.753,40.753,0,0,1,13.123-7.992,48.679,48.679,0,0,1,17.484-2.906,38.923,38.923,0,0,1,26.338,10.081,37.138,37.138,0,0,1,8.356,11.216,35.818,35.818,0,0,1,3.541,14.214H88.522a24.084,24.084,0,0,0-1.726-6.9,19.2,19.2,0,0,0-3.633-5.721,16.482,16.482,0,0,0-5.4-3.86A16.767,16.767,0,0,0,70.812,225q-16.8,0-22.977,15.894a76.768,76.768,0,0,0-4.27,16.846,130.023,130.023,0,0,0-1.271,18.119q0,6.63.59,12.942t1.59,12.125a55.923,55.923,0,0,0,2.543,9.308,27.2,27.2,0,0,0,4.314,7.721,19.051,19.051,0,0,0,6.629,5.222,21.677,21.677,0,0,0,9.492,1.907,22.705,22.705,0,0,0,10.444-2.27,21.689,21.689,0,0,0,7.357-6,25.054,25.054,0,0,0,4.312-8.672,37.115,37.115,0,0,0,1.409-10.218,35.508,35.508,0,0,0-1.453-10.218,24.815,24.815,0,0,0-4.36-8.491A20.977,20.977,0,0,0,77.9,273.45a22.875,22.875,0,0,0-10.172-2.135,22.637,22.637,0,0,0-10.262,2.271,21.741,21.741,0,0,0-7.992,7.175q-.273-4.088-.274-8.083,0-2.814.137-5.5t.318-5.4a29.121,29.121,0,0,1,9.944-5.4A40.208,40.208,0,0,1,71.812,254.6a40.472,40.472,0,0,1,16.937,3.407,37.2,37.2,0,0,1,12.67,9.263,40.989,40.989,0,0,1,7.945,13.759,50.954,50.954,0,0,1,2.772,16.984A50.187,50.187,0,0,1,109,316.044a41.821,41.821,0,0,1-8.809,14.168,38.374,38.374,0,0,1-5.592,4.82,2.829,2.829,0,0,0,1.661,5.125H139.69a2.835,2.835,0,0,0,1.6-5.172Q131.9,328.331,127.3,316a57.907,57.907,0,0,1-3.178-18.618h21.252q-.273,11.9,5.9,19.8t17.711,7.9q11.532,0,18.709-5.994t7.174-17.256q0-13.623-10.807-18.891-7.629-3.723-23.25-3.269v-15.8q19.345.636,26.338-10.353,2.453-4.087,2.451-11.262a15.672,15.672,0,0,0-5.63-12.17,18.688,18.688,0,0,0-12.9-5.086q-17.709-.089-22.16,16.893a32.6,32.6,0,0,0-1.09,9.717H126.575q.728-18.981,12.17-31.6t30.971-12.624a47.992,47.992,0,0,1,28.7,8.991q12.443,9.083,12.441,25.793,0,21.344-18.435,27.882v.363a27.2,27.2,0,0,1,17.437,11.08,33.608,33.608,0,0,1,6.266,19.8q-.092,19.709-13.623,30.607a48.651,48.651,0,0,1-4.237,3.051,2.843,2.843,0,0,0,1.578,5.213h43.694a2.829,2.829,0,0,0,1.543-5.2,40.582,40.582,0,0,1-3.344-2.426q-12.714-10.262-13.441-29.425h21.162q.906,10.716,7.266,16.347t16.711,5.631q23.791,0,24.248-28.608,0-18.345-13.713-24.976a24.526,24.526,0,0,0-11.08-2.18q-16.62,0-20.981,11.9H230.655l13.987-71.294h67.3V228.9h-51.5l-6.72,33.15.363.363q8.809-9.9,25.611-9.9a39.509,39.509,0,0,1,15.713,3.269q14.985,6.45,20.707,22.978a50.865,50.865,0,0,1,2.725,16.529q0,18.711-10.535,31.969a42.8,42.8,0,0,1-8.056,7.8,2.839,2.839,0,0,0,1.727,5.1h35.344a2.834,2.834,0,0,0,2.835-2.834V2.834A2.834,2.834,0,0,0,337.323,0Z"/>
      </g>
    </g>
</svg>
