<svg xmlns="http://www.w3.org/2000/svg" width="120mm" height="120mm" viewBox="0 0 340.157 340.157">
  <g id="Zimmernummer">
      <g id="Z-03-227-R">
        <path fill="#A0552B" stroke="none" d="M337.323,0H2.834A2.834,2.834,0,0,0,0,2.834V337.323a2.834,2.834,0,0,0,2.834,2.834H22.912a2.821,2.821,0,0,0,2.821-2.645q1.662-27.977,28.5-46.36,6.355-4.632,13.26-8.992Q93.008,266,93.463,248.375q0-9.264-3.27-13.805a24.46,24.46,0,0,0-7.538-6.9,21.829,21.829,0,0,0-10.808-2.361q-6.63,0-10.807,2.543-11.172,6.811-11.807,30.062H27.981q0-22.251,11.807-36.238t33.058-13.986q21.252,0,32.877,13.714,8.991,10.991,8.991,26.246,0,20.075-18.254,35.512a149.668,149.668,0,0,1-18.074,13.35q-9.445,5.994-14.168,9.537-10.809,8.083-13.169,15.439h63.484v15.837a2.834,2.834,0,0,0,2.835,2.834h6.107a2.821,2.821,0,0,0,2.821-2.645q1.662-27.977,28.5-46.36,6.355-4.632,13.259-8.992Q193.572,266,194.026,248.375q0-9.264-3.27-13.805a24.438,24.438,0,0,0-7.538-6.9,21.822,21.822,0,0,0-10.807-2.361q-6.631,0-10.808,2.543-11.171,6.811-11.806,30.062H128.545q0-22.251,11.806-36.238t33.059-13.986q21.252,0,32.877,13.714,8.991,10.991,8.991,26.246,0,20.075-18.255,35.512a149.736,149.736,0,0,1-18.073,13.35q-9.447,5.994-14.168,9.537-10.809,8.083-13.169,15.439H215.1v15.837a2.834,2.834,0,0,0,2.835,2.834H240.7a2.838,2.838,0,0,0,2.82-2.6q3.864-43.146,31.185-83.914a235.129,235.129,0,0,1,18.8-24.43H226.02V210.23h89.1v17.711Q282.6,264.451,271.7,307.318a187.786,187.786,0,0,0-4.906,29.773,2.833,2.833,0,0,0,2.828,3.066h67.7a2.834,2.834,0,0,0,2.834-2.834V2.834A2.834,2.834,0,0,0,337.323,0Z"/>
      </g>
    </g>
</svg>
