<svg xmlns="http://www.w3.org/2000/svg" width="120mm" height="120mm" viewBox="0 0 340.157 340.157">
  <g id="Zimmernummer">
      <g id="Z-03-217">
        <path fill="#000000" stroke="none" d="M337.323,0H2.835A2.835,2.835,0,0,0,0,2.835V337.323a2.834,2.834,0,0,0,2.834,2.834H32.79a2.822,2.822,0,0,0,2.822-2.645q1.662-27.977,28.495-46.362,6.355-4.632,13.26-8.991Q102.886,266,103.341,248.374q0-9.264-3.269-13.805a24.436,24.436,0,0,0-7.538-6.9,21.826,21.826,0,0,0-10.808-2.361q-6.63,0-10.808,2.543Q59.747,234.66,59.112,257.91H37.86q0-22.251,11.807-36.237t33.058-13.986q21.252,0,32.877,13.713,8.991,10.99,8.991,26.247,0,20.073-18.255,35.511a149.587,149.587,0,0,1-18.073,13.351Q78.818,302.5,74.1,306.045q-10.809,8.085-13.169,15.439h63.484v15.839a2.834,2.834,0,0,0,2.834,2.834H167.83a2.835,2.835,0,0,0,2.835-2.834V248.556H138.7V231.845q22.887,0,33.149-11.534a20.3,20.3,0,0,0,4.723-10.082h17.347V337.323a2.834,2.834,0,0,0,2.834,2.834h35.225a2.838,2.838,0,0,0,2.82-2.6q3.864-43.148,31.185-83.915a235.28,235.28,0,0,1,18.8-24.431H217.3V210.229h89.1v17.71q-32.516,36.51-43.412,79.377a187.583,187.583,0,0,0-4.906,29.775,2.833,2.833,0,0,0,2.828,3.066h76.419a2.834,2.834,0,0,0,2.834-2.834V2.835A2.834,2.834,0,0,0,337.323,0Z"/>
      </g>
    </g>
</svg>
