<svg xmlns="http://www.w3.org/2000/svg" width="120mm" height="120mm" viewBox="0 0 340.157 340.157">
  <g id="Zimmernummer">
      <g id="Z-03-221-M">
        <path fill="#D4AF37" stroke="none" d="M337.323,0H2.834A2.834,2.834,0,0,0,0,2.834V337.323a2.834,2.834,0,0,0,2.834,2.834H36.057a2.821,2.821,0,0,0,2.821-2.645q1.662-27.977,28.5-46.36,6.356-4.632,13.259-8.992,25.52-16.163,25.975-33.785,0-9.264-3.27-13.805a24.449,24.449,0,0,0-7.538-6.9,21.822,21.822,0,0,0-10.807-2.361q-6.631,0-10.808,2.543-11.171,6.811-11.807,30.062H41.126q0-22.251,11.807-36.238t33.059-13.986q21.252,0,32.877,13.714,8.991,10.991,8.991,26.246,0,20.075-18.255,35.512a149.736,149.736,0,0,1-18.073,13.35q-9.447,5.994-14.168,9.537-10.809,8.083-13.169,15.439h63.483v15.837a2.834,2.834,0,0,0,2.835,2.834h8.942a2.821,2.821,0,0,0,2.821-2.645q1.662-27.977,28.5-46.36,6.356-4.632,13.259-8.992Q209.552,266,210.006,248.375q0-9.264-3.269-13.805a24.452,24.452,0,0,0-7.539-6.9,21.822,21.822,0,0,0-10.807-2.361q-6.631,0-10.808,2.543-11.171,6.811-11.806,30.062H144.525q0-22.251,11.806-36.238t33.059-13.986q21.252,0,32.877,13.714,8.991,10.991,8.991,26.246,0,20.075-18.255,35.512a149.736,149.736,0,0,1-18.073,13.35q-9.447,5.994-14.168,9.537-10.809,8.083-13.169,15.439h63.483v15.837a2.834,2.834,0,0,0,2.835,2.834H271.66a2.834,2.834,0,0,0,2.835-2.834V248.557H242.526V231.846q22.887,0,33.149-11.534A20.294,20.294,0,0,0,280.4,210.23h17.347V337.323a2.834,2.834,0,0,0,2.834,2.834h36.744a2.834,2.834,0,0,0,2.834-2.834V2.834A2.834,2.834,0,0,0,337.323,0Z"/>
      </g>
    </g>
</svg>
