<svg xmlns="http://www.w3.org/2000/svg" width="120mm" height="120mm" viewBox="0 0 340.157 340.157">
  <g id="Zimmernummer">
      <g id="Z-03-246-M">
        <path fill="#D4AF37" stroke="none" d="M337.323,0H2.835A2.835,2.835,0,0,0,0,2.835V337.323a2.834,2.834,0,0,0,2.834,2.834H22.981a2.821,2.821,0,0,0,2.819-2.58c1.6-20.038,11.036-34.9,28.343-46.75q6.356-4.632,13.26-8.991,25.519-16.164,25.974-33.785,0-9.264-3.269-13.8a24.447,24.447,0,0,0-7.538-6.9,21.829,21.829,0,0,0-10.808-2.362q-6.63,0-10.808,2.543-11.171,6.811-11.806,30.062H27.9q0-22.251,11.807-36.237t33.058-13.987q21.252,0,32.877,13.714,8.991,10.989,8.991,26.247,0,20.073-18.255,35.511A149.772,149.772,0,0,1,78.3,296.186q-9.447,5.994-14.168,9.536-10.809,8.084-13.169,15.439h63.484v16.162a2.834,2.834,0,0,0,2.834,2.834h55.256a2.834,2.834,0,0,0,2.834-2.834V235.245h-.454l-39.053,57.308h32.7v16.711H119.518v-20.98l55.854-78.378h20.072v82.647h16.71v16.711h-16.71v28.059a2.834,2.834,0,0,0,2.834,2.834h44.216a2.831,2.831,0,0,0,1.628-5.147q-1.38-.988-2.655-2.088a38.7,38.7,0,0,1-8.719-10.807,62.4,62.4,0,0,1-5.4-13.487,89.883,89.883,0,0,1-2.77-15.258q-.774-7.99-.772-15.984a144.421,144.421,0,0,1,.953-16.484,97.435,97.435,0,0,1,3.224-16.121,71,71,0,0,1,6.04-14.622,46.7,46.7,0,0,1,9.309-11.9,40.691,40.691,0,0,1,13.124-7.992,48.63,48.63,0,0,1,17.482-2.907,38.923,38.923,0,0,1,26.338,10.081,37.134,37.134,0,0,1,8.356,11.216,35.84,35.84,0,0,1,3.542,14.214H291.01a24.1,24.1,0,0,0-1.726-6.9,19.219,19.219,0,0,0-3.633-5.722,16.475,16.475,0,0,0-5.4-3.859,16.749,16.749,0,0,0-6.947-1.409q-16.8,0-22.978,15.894a76.706,76.706,0,0,0-4.268,16.847,129.7,129.7,0,0,0-1.272,18.119q0,6.63.59,12.941t1.59,12.125a55.838,55.838,0,0,0,2.543,9.309,27.239,27.239,0,0,0,4.314,7.721,19.043,19.043,0,0,0,6.63,5.221,21.644,21.644,0,0,0,9.49,1.907,22.7,22.7,0,0,0,10.445-2.27,21.685,21.685,0,0,0,7.356-5.994,25.1,25.1,0,0,0,4.314-8.673,37.19,37.19,0,0,0,1.408-10.218,35.547,35.547,0,0,0-1.453-10.218,24.85,24.85,0,0,0-4.36-8.491,20.972,20.972,0,0,0-7.265-5.766,24.8,24.8,0,0,0-20.435.135,21.75,21.75,0,0,0-7.992,7.175q-.273-4.087-.273-8.083,0-2.814.137-5.5t.318-5.4a29.114,29.114,0,0,1,9.944-5.4A43.483,43.483,0,0,1,291.237,258a37.2,37.2,0,0,1,12.669,9.264,41.024,41.024,0,0,1,7.947,13.759A50.994,50.994,0,0,1,314.623,298a50.226,50.226,0,0,1-3.133,18.027,41.845,41.845,0,0,1-8.81,14.168,38.339,38.339,0,0,1-5.612,4.834,2.83,2.83,0,0,0,1.66,5.126h38.595a2.834,2.834,0,0,0,2.834-2.834V2.834A2.834,2.834,0,0,0,337.323,0Z"/>
      </g>
    </g>
</svg>
