<svg xmlns="http://www.w3.org/2000/svg" width="120mm" height="120mm" viewBox="0 0 340.157 340.158">
  <g id="Zimmernummer">
      <g id="Z-03-442-E">
        <path fill="#A09f9d" stroke="none" d="M337.323,0H2.835A2.835,2.835,0,0,0,0,2.835V337.323a2.835,2.835,0,0,0,2.835,2.835H75.65a2.834,2.834,0,0,0,2.834-2.835V235.26H78.03L38.978,292.568h32.7v16.711H22.63V288.3l55.854-78.378H98.556v82.647h16.711v16.711H98.556v28.044a2.834,2.834,0,0,0,2.834,2.835H179a2.835,2.835,0,0,0,2.835-2.835V235.26h-.454l-39.053,57.308h32.7v16.711H125.983V288.3l55.855-78.378h20.071v82.647H218.62v16.711H201.909v28.044a2.835,2.835,0,0,0,2.835,2.835H225.7a2.822,2.822,0,0,0,2.823-2.659q1.536-28.178,28.52-46.657,6.356-4.632,13.26-8.991,25.52-16.164,25.974-33.785,0-9.264-3.269-13.805a24.436,24.436,0,0,0-7.538-6.9A21.826,21.826,0,0,0,274.66,225q-6.63,0-10.807,2.543-11.172,6.811-11.807,30.061H230.794q0-22.251,11.807-36.237t33.058-13.987q21.252,0,32.877,13.714,8.991,10.989,8.991,26.247,0,20.073-18.255,35.511A149.587,149.587,0,0,1,281.2,296.2q-9.447,5.994-14.168,9.536-10.809,8.083-13.169,15.439h63.484v16.147a2.834,2.834,0,0,0,2.834,2.835h17.143a2.834,2.834,0,0,0,2.834-2.835V2.834A2.834,2.834,0,0,0,337.323,0Z"/>
      </g>
    </g>
</svg>
