<svg xmlns="http://www.w3.org/2000/svg" width="120mm" height="120mm" viewBox="0 0 340.158 340.157">
  <g id="Zimmernummer">
      <g id="Z-03-340-E">
        <path fill="#A09f9d" stroke="none" d="M337.323,0H2.835A2.835,2.835,0,0,0,0,2.835V337.323a2.834,2.834,0,0,0,2.834,2.834h36.9a2.835,2.835,0,0,0,1.6-5.17q-9.372-6.654-13.965-18.968A57.918,57.918,0,0,1,24.19,297.4H45.442q-.273,11.9,5.9,19.8t17.71,7.9q11.533,0,18.709-6t7.175-17.255q0-13.623-10.808-18.891-7.627-3.723-23.25-3.27v-15.8q19.346.636,26.338-10.354,2.453-4.086,2.453-11.262A15.671,15.671,0,0,0,84.041,230.1a18.69,18.69,0,0,0-12.9-5.086q-17.709-.09-22.16,16.892a32.545,32.545,0,0,0-1.09,9.718H26.642q.727-18.981,12.17-31.606T69.782,207.4a47.99,47.99,0,0,1,28.7,8.992q12.442,9.081,12.442,25.793,0,21.342-18.436,27.881v.364a27.2,27.2,0,0,1,17.437,11.08,33.6,33.6,0,0,1,6.267,19.8q-.092,19.707-13.623,30.606a48.558,48.558,0,0,1-4.219,3.045,2.828,2.828,0,0,0,1.547,5.2h75.676a2.834,2.834,0,0,0,2.835-2.834V235.279h-.454L138.9,292.587H171.6V309.3H122.552v-20.98l55.855-78.378h20.071v82.647h16.711V309.3H198.478v28.025a2.834,2.834,0,0,0,2.835,2.834H243.2a2.834,2.834,0,0,0,1.686-5.108,35.063,35.063,0,0,1-3.624-3.183,42.841,42.841,0,0,1-8.219-11.761,75.526,75.526,0,0,1-5.131-14.3,105.2,105.2,0,0,1-2.68-15.531q-.773-7.946-.771-15.485,0-6.993.68-14.531a105.915,105.915,0,0,1,2.408-14.85,78.53,78.53,0,0,1,4.676-13.94,44.291,44.291,0,0,1,7.584-11.761,37.758,37.758,0,0,1,11.08-8.4,38.578,38.578,0,0,1,15.167-3.815v17.8q-20.435,3.36-20.434,49.77,0,3.9.181,9.172a104.233,104.233,0,0,0,.954,10.808,79.6,79.6,0,0,0,2.316,10.944,37.531,37.531,0,0,0,4.178,9.627,22.07,22.07,0,0,0,6.63,6.857A17.086,17.086,0,0,0,269.5,325.1q23.7,0,23.7-50.042,0-46.229-20.344-49.77v-17.8a38.587,38.587,0,0,1,15.167,3.815,36.817,36.817,0,0,1,11.034,8.446,46.674,46.674,0,0,1,7.584,11.807,76.439,76.439,0,0,1,4.723,13.941,106.314,106.314,0,0,1,2.406,14.849q.681,7.539.682,14.531,0,7.629-.773,15.667a100.375,100.375,0,0,1-2.724,15.575,74.984,74.984,0,0,1-5.222,14.214A42.749,42.749,0,0,1,297.43,332a35.565,35.565,0,0,1-3.493,3.036,2.836,2.836,0,0,0,1.677,5.118h41.709a2.835,2.835,0,0,0,2.835-2.834V2.834A2.835,2.835,0,0,0,337.323,0Z"/>
      </g>
    </g>
</svg>
