<svg xmlns="http://www.w3.org/2000/svg" width="120mm" height="120mm" viewBox="0 0 340.157 340.157">
  <g id="Zimmernummer">
      <g id="Z-03-546-M">
        <path fill="#D4AF37" stroke="none" d="M337.323,0H2.834A2.834,2.834,0,0,0,0,2.834V337.323a2.834,2.834,0,0,0,2.834,2.834H36.685a2.831,2.831,0,0,0,1.524-5.215,40.607,40.607,0,0,1-3.316-2.413Q22.176,322.268,21.451,303.1H42.612q.907,10.716,7.266,16.347t16.711,5.631q23.793,0,24.249-28.609,0-18.344-13.714-24.975a24.493,24.493,0,0,0-11.08-2.18q-16.62,0-20.98,11.9H23.812L37.8,209.922h67.3V228.9H53.6l-6.721,33.151.363.363q8.808-9.9,25.611-9.9a39.5,39.5,0,0,1,15.712,3.269q14.987,6.452,20.707,22.979A50.861,50.861,0,0,1,112,295.293q0,18.71-10.535,31.969a42.825,42.825,0,0,1-8.055,7.8,2.839,2.839,0,0,0,1.728,5.1h80.6a2.834,2.834,0,0,0,2.834-2.834V235.26h-.454l-39.053,57.308h32.7v16.711H122.716V288.3l55.854-78.377h20.072v82.646h16.711v16.711H198.642v28.044a2.834,2.834,0,0,0,2.834,2.834H247.52a2.834,2.834,0,0,0,1.4-5.3l-3.1-1.77a3.02,3.02,0,0,1-.5-.355,38.68,38.68,0,0,1-8.486-10.6,62.4,62.4,0,0,1-5.4-13.488,90.08,90.08,0,0,1-2.77-15.258q-.772-7.989-.772-15.985a144.16,144.16,0,0,1,.954-16.482,97.413,97.413,0,0,1,3.223-16.121,70.959,70.959,0,0,1,6.041-14.623,46.694,46.694,0,0,1,9.308-11.9,40.714,40.714,0,0,1,13.123-7.992,48.671,48.671,0,0,1,17.484-2.906,38.923,38.923,0,0,1,26.337,10.08,37.11,37.11,0,0,1,8.356,11.217,35.8,35.8,0,0,1,3.542,14.213H295.093a24.092,24.092,0,0,0-1.726-6.9,19.209,19.209,0,0,0-3.633-5.72,16.457,16.457,0,0,0-5.4-3.86A16.748,16.748,0,0,0,277.383,225q-16.8,0-22.978,15.893a76.734,76.734,0,0,0-4.268,16.847,129.709,129.709,0,0,0-1.272,18.119q0,6.63.59,12.942t1.59,12.125a55.826,55.826,0,0,0,2.543,9.308,27.239,27.239,0,0,0,4.314,7.721,19.069,19.069,0,0,0,6.629,5.221,21.672,21.672,0,0,0,9.491,1.908,22.707,22.707,0,0,0,10.445-2.271,21.643,21.643,0,0,0,7.356-6,25.079,25.079,0,0,0,4.314-8.671,37.2,37.2,0,0,0,1.408-10.219,35.5,35.5,0,0,0-1.453-10.217,24.82,24.82,0,0,0-4.36-8.492,20.984,20.984,0,0,0-7.265-5.766,24.8,24.8,0,0,0-20.435.135,21.752,21.752,0,0,0-7.992,7.176q-.273-4.088-.272-8.084,0-2.812.136-5.494t.318-5.405a29.127,29.127,0,0,1,9.944-5.4,43.467,43.467,0,0,1,29.154,1.635,37.194,37.194,0,0,1,12.669,9.263,41.022,41.022,0,0,1,7.947,13.758,51.006,51.006,0,0,1,2.77,16.985,50.187,50.187,0,0,1-3.134,18.027,41.834,41.834,0,0,1-8.808,14.168,43.034,43.034,0,0,1-5.636,4.822,2.829,2.829,0,0,0,1.664,5.122h34.531a2.834,2.834,0,0,0,2.834-2.834V2.834A2.834,2.834,0,0,0,337.323,0Z"/>
      </g>
    </g>
</svg>
