<svg xmlns="http://www.w3.org/2000/svg" width="120mm" height="120mm" viewBox="0 0 340.157 340.157">
  <g id="Zimmernummer">
      <g id="Z-03-518-R">
        <path fill="#A0552B" stroke="none" d="M337.323,0H2.834A2.834,2.834,0,0,0,0,2.834V337.323a2.834,2.834,0,0,0,2.834,2.834H49.386a2.831,2.831,0,0,0,1.525-5.215A40.834,40.834,0,0,1,47.6,332.53Q34.878,322.267,34.153,303.1H55.314q.907,10.718,7.266,16.348t16.711,5.631q23.793,0,24.249-28.61,0-18.342-13.714-24.974a24.48,24.48,0,0,0-11.08-2.18q-16.62,0-20.979,11.9H36.515L50.5,209.922h67.3V228.9H66.3l-6.721,33.15.363.364q8.808-9.9,25.612-9.9a39.509,39.509,0,0,1,15.712,3.27q14.985,6.45,20.707,22.978a50.887,50.887,0,0,1,2.724,16.529q0,18.484-10.283,31.649a2.959,2.959,0,0,1-.579.561l-10.252,7.536a2.834,2.834,0,0,0,1.679,5.118h57.3a2.835,2.835,0,0,0,2.835-2.834V248.249H133.427V231.538q22.887,0,33.149-11.536a20.291,20.291,0,0,0,4.723-10.08h17.347v127.4a2.834,2.834,0,0,0,2.834,2.834H230.8a2.834,2.834,0,0,0,1.323-5.341l-4.309-2.275a2.988,2.988,0,0,1-.526-.35,36.466,36.466,0,0,1-9.654-12.6A41.061,41.061,0,0,1,214,301.833a36.553,36.553,0,0,1,1.681-11.354,31.212,31.212,0,0,1,4.767-9.264,29.03,29.03,0,0,1,7.538-6.947,32.972,32.972,0,0,1,9.9-4.223v-.363a26.97,26.97,0,0,1-18.437-26.793,38.844,38.844,0,0,1,2.725-15.121,29.337,29.337,0,0,1,7.675-10.853,34.82,34.82,0,0,1,11.76-6.721,52.719,52.719,0,0,1,14.986-2.725v16.8a20.717,20.717,0,0,0-12.489,6.312q-4.586,5.04-4.586,13.305,0,8.173,4.5,13.123t12.578,5.949v16.166a26.861,26.861,0,0,0-8.764,2.27,21.292,21.292,0,0,0-6.721,4.77,21.059,21.059,0,0,0-4.314,6.992,27.36,27.36,0,0,0,.318,18.982,21.847,21.847,0,0,0,5.131,7.492,22.125,22.125,0,0,0,7.811,4.723,30.784,30.784,0,0,0,19.8,0,22.6,22.6,0,0,0,7.856-4.723,21.5,21.5,0,0,0,5.178-7.539,27.863,27.863,0,0,0,.363-19.025,19.721,19.721,0,0,0-4.315-6.949,22.449,22.449,0,0,0-6.72-4.723,26.555,26.555,0,0,0-8.81-2.27V262.961q8.084-1,12.533-5.857t4.451-13.033q0-8.265-4.5-13.442t-12.487-6.357v-16.8a51.255,51.255,0,0,1,15.849,2.953,33.413,33.413,0,0,1,11.67,7.129,29.784,29.784,0,0,1,7.175,10.9,39.9,39.9,0,0,1,2.452,14.439,28.816,28.816,0,0,1-4.678,16.485,27.459,27.459,0,0,1-13.759,10.308v.363a33.188,33.188,0,0,1,9.763,4.178,30.1,30.1,0,0,1,12.4,15.621A31.529,31.529,0,0,1,306,300.379a45.233,45.233,0,0,1-3.451,18.254,37.458,37.458,0,0,1-9.582,13.307,42.435,42.435,0,0,1-3.981,3.067,2.83,2.83,0,0,0,1.629,5.15h46.7a2.834,2.834,0,0,0,2.834-2.834V2.835A2.834,2.834,0,0,0,337.323,0Z"/>
      </g>
    </g>
</svg>
