<svg xmlns="http://www.w3.org/2000/svg" width="120mm" height="120mm" viewBox="0 0 340.158 340.157">
  <g id="Zimmernummer">
      <g id="Z-03-042-E">
        <path fill="#A09f9d" stroke="none" d="M337.323,0H2.835A2.835,2.835,0,0,0,0,2.835V337.322a2.835,2.835,0,0,0,2.835,2.835H170.762a2.834,2.834,0,0,0,2.834-2.834V235.309h-.454l-39.053,57.308h32.7v16.711H117.742v-20.98L173.6,209.97h20.071v82.647h16.711v16.711H193.667v28a2.835,2.835,0,0,0,2.835,2.834h24.679A2.821,2.821,0,0,0,224,337.5q1.557-28.146,28.516-46.61,6.355-4.632,13.26-8.991,25.519-16.164,25.974-33.785,0-9.264-3.269-13.805a24.447,24.447,0,0,0-7.538-6.9,21.818,21.818,0,0,0-10.808-2.362q-6.63,0-10.807,2.543-11.172,6.811-11.807,30.062H226.272q0-22.251,11.807-36.237t33.058-13.987q21.252,0,32.877,13.714,8.991,10.989,8.991,26.247,0,20.073-18.255,35.511a149.693,149.693,0,0,1-18.073,13.351q-9.447,5.994-14.168,9.536Q251.7,313.87,249.34,321.225h63.484v16.1a2.834,2.834,0,0,0,2.834,2.834h21.665a2.835,2.835,0,0,0,2.835-2.835V2.834A2.834,2.834,0,0,0,337.323,0Z"/>
      </g>
    </g>
</svg>
