<svg xmlns="http://www.w3.org/2000/svg" width="120mm" height="120mm" viewBox="0 0 340.158 340.157">
  <g id="Zimmernummer">
      <g id="Z-03-413-R">
        <path fill="#A0552B" stroke="none" d="M337.323,0H2.835A2.835,2.835,0,0,0,0,2.835V337.323a2.834,2.834,0,0,0,2.834,2.834H87.989a2.834,2.834,0,0,0,2.834-2.834V235.26h-.454L51.317,292.568h32.7v16.711H34.969V288.3l55.854-78.378H110.9v82.647h16.711v16.711H110.9v28.044a2.834,2.834,0,0,0,2.834,2.834h48.017a2.834,2.834,0,0,0,2.834-2.834V248.248H132.612V231.537q22.886,0,33.149-11.535a20.3,20.3,0,0,0,4.723-10.081H187.83v127.4a2.834,2.834,0,0,0,2.835,2.834h38.089a2.835,2.835,0,0,0,1.6-5.172q-9.39-6.654-13.988-18.985a57.918,57.918,0,0,1-3.178-18.619H234.44q-.273,11.9,5.9,19.8t17.71,7.9q11.532,0,18.709-6t7.175-17.255q0-13.623-10.808-18.891-7.629-3.724-23.25-3.27v-15.8q19.346.634,26.338-10.354,2.452-4.086,2.452-11.262a15.674,15.674,0,0,0-5.631-12.17,18.691,18.691,0,0,0-12.9-5.085q-17.71-.09-22.16,16.892a32.545,32.545,0,0,0-1.09,9.718H215.64q.726-18.981,12.17-31.606t30.97-12.624a47.986,47.986,0,0,1,28.7,8.992q12.443,9.081,12.442,25.793,0,21.342-18.436,27.881v.364a27.2,27.2,0,0,1,17.437,11.08,33.6,33.6,0,0,1,6.267,19.8q-.092,19.707-13.623,30.606a48.838,48.838,0,0,1-4.248,3.064,2.828,2.828,0,0,0,1.546,5.2h48.459a2.834,2.834,0,0,0,2.835-2.834V2.835A2.835,2.835,0,0,0,337.323,0Z"/>
      </g>
    </g>
</svg>
