<svg xmlns="http://www.w3.org/2000/svg" width="120mm" height="120mm" viewBox="0 0 340.157 340.157">
  <g id="Zimmernummer">
      <g id="Z-03-348-M">
        <path fill="#D4AF37" stroke="none" d="M337.323,0H2.835A2.835,2.835,0,0,0,0,2.835V337.323a2.834,2.834,0,0,0,2.835,2.834H36.3a2.835,2.835,0,0,0,1.6-5.172q-9.4-6.657-14-18.993a57.917,57.917,0,0,1-3.178-18.618H41.977q-.273,11.9,5.9,19.8t17.71,7.9q11.532,0,18.709-5.994t7.175-17.256q0-13.623-10.808-18.891-7.629-3.723-23.25-3.269v-15.8q19.346.636,26.338-10.354,2.452-4.086,2.452-11.261a15.671,15.671,0,0,0-5.631-12.17,18.688,18.688,0,0,0-12.9-5.086q-17.711-.09-22.16,16.892a32.545,32.545,0,0,0-1.09,9.718H23.177q.726-18.981,12.17-31.6t30.97-12.624a47.992,47.992,0,0,1,28.7,8.991q12.443,9.083,12.442,25.793,0,21.342-18.436,27.882v.363a27.207,27.207,0,0,1,17.437,11.08,33.607,33.607,0,0,1,6.267,19.8q-.091,19.707-13.623,30.606a48.439,48.439,0,0,1-4.244,3.055,2.845,2.845,0,0,0,1.579,5.217h79.389a2.834,2.834,0,0,0,2.834-2.834V235.252h-.454L139.154,292.56h32.7v16.711H122.807V288.292l55.854-78.378h20.072V292.56h16.71v16.711h-16.71v28.052a2.834,2.834,0,0,0,2.834,2.834h41.352a2.829,2.829,0,0,0,1.562-5.19,41.566,41.566,0,0,1-3.517-2.583,36.408,36.408,0,0,1-9.9-12.8,41.065,41.065,0,0,1-3.633-17.756,36.581,36.581,0,0,1,1.68-11.353,31.2,31.2,0,0,1,4.768-9.263,29.02,29.02,0,0,1,7.538-6.949,32.945,32.945,0,0,1,9.9-4.222v-.364a26.969,26.969,0,0,1-18.437-26.792,38.849,38.849,0,0,1,2.725-15.122,29.342,29.342,0,0,1,7.674-10.852,34.817,34.817,0,0,1,11.761-6.721,52.753,52.753,0,0,1,14.985-2.725v16.8a20.712,20.712,0,0,0-12.487,6.313q-4.587,5.039-4.587,13.3,0,8.175,4.5,13.123t12.578,5.95v16.166a26.868,26.868,0,0,0-8.763,2.27,21.3,21.3,0,0,0-6.721,4.769,21.063,21.063,0,0,0-4.314,6.992,27.36,27.36,0,0,0,.318,18.982,21.842,21.842,0,0,0,5.131,7.493,22.142,22.142,0,0,0,7.81,4.722,30.787,30.787,0,0,0,19.8,0,22.627,22.627,0,0,0,7.857-4.722,21.492,21.492,0,0,0,5.176-7.539,27.858,27.858,0,0,0,.364-19.026,19.7,19.7,0,0,0-4.315-6.948,22.431,22.431,0,0,0-6.72-4.723,26.555,26.555,0,0,0-8.81-2.27V262.953q8.083-1,12.533-5.858t4.45-13.033q0-8.264-4.5-13.441t-12.488-6.358v-16.8a51.249,51.249,0,0,1,15.849,2.953,33.4,33.4,0,0,1,11.67,7.128,29.794,29.794,0,0,1,7.174,10.9,39.892,39.892,0,0,1,2.453,14.44,28.82,28.82,0,0,1-4.677,16.484,27.455,27.455,0,0,1-13.76,10.308v.364a33.2,33.2,0,0,1,9.764,4.177,30.109,30.109,0,0,1,12.4,15.621,31.535,31.535,0,0,1,1.726,10.536,45.254,45.254,0,0,1-3.451,18.254,36.949,36.949,0,0,1-13.538,16.348,2.83,2.83,0,0,0,1.574,5.184h33.305a2.834,2.834,0,0,0,2.834-2.834V2.834A2.834,2.834,0,0,0,337.323,0Z"/>
      </g>
    </g>
</svg>
