<svg xmlns="http://www.w3.org/2000/svg" width="120mm" height="120mm" viewBox="0 0 340.157 340.157">
  <g id="Zimmernummer">
      <g id="Z-03-317-M">
        <path fill="#D4AF37" stroke="none" d="M337.323,0H2.835A2.835,2.835,0,0,0,0,2.835V337.323a2.834,2.834,0,0,0,2.834,2.834H49.07a2.828,2.828,0,0,0,1.672-5.111q-9.015-6.613-13.494-18.6a57.88,57.88,0,0,1-3.179-18.618H55.321q-.273,11.9,5.9,19.8t17.71,7.9q11.534,0,18.709-5.994t7.175-17.256q0-13.623-10.808-18.89-7.629-3.724-23.25-3.27v-15.8q19.345.636,26.338-10.353,2.453-4.088,2.452-11.262a15.673,15.673,0,0,0-5.631-12.17,18.692,18.692,0,0,0-12.9-5.086q-17.711-.089-22.16,16.893a32.541,32.541,0,0,0-1.09,9.718H36.521q.726-18.983,12.17-31.606t30.97-12.624a47.992,47.992,0,0,1,28.7,8.991Q120.8,225.9,120.8,242.607q0,21.344-18.436,27.882v.364a27.2,27.2,0,0,1,17.437,11.08,33.6,33.6,0,0,1,6.267,19.8q-.091,19.709-13.623,30.607-1.748,1.407-3.588,2.63a2.829,2.829,0,0,0,1.564,5.189h56.591a2.834,2.834,0,0,0,2.835-2.834V248.692H137.88V231.981q22.887,0,33.149-11.534a20.3,20.3,0,0,0,4.723-10.081H193.1V337.323a2.834,2.834,0,0,0,2.834,2.834h38.029a2.837,2.837,0,0,0,2.82-2.6q3.9-43.076,31.171-83.781a235.373,235.373,0,0,1,18.8-24.43h-67.48V210.366h89.1v17.71q-32.514,36.51-43.412,79.377a187.637,187.637,0,0,0-4.893,29.637,2.834,2.834,0,0,0,2.828,3.067h74.432a2.834,2.834,0,0,0,2.834-2.834V2.835A2.834,2.834,0,0,0,337.323,0Z"/>
      </g>
    </g>
</svg>
