<svg xmlns="http://www.w3.org/2000/svg" width="120mm" height="120mm" viewBox="0 0 340.157 340.157">
  <g id="Zimmernummer">
      <g id="Z-03-346">
        <path fill="#000000" stroke="none" d="M337.323,0H2.835A2.835,2.835,0,0,0,0,2.835V337.323a2.834,2.834,0,0,0,2.834,2.834H36.628a2.835,2.835,0,0,0,1.6-5.173q-9.4-6.657-14-19a57.907,57.907,0,0,1-3.178-18.618H42.3q-.273,11.9,5.9,19.8t17.71,7.9q11.532,0,18.709-5.994t7.175-17.256q0-13.623-10.808-18.89-7.629-3.724-23.25-3.27v-15.8q19.344.635,26.338-10.354,2.452-4.087,2.452-11.262a15.673,15.673,0,0,0-5.631-12.17A18.694,18.694,0,0,0,68,224.982q-17.711-.088-22.16,16.893a32.541,32.541,0,0,0-1.09,9.718H23.5q.726-18.982,12.17-31.606t30.969-12.624a47.993,47.993,0,0,1,28.7,8.991q12.442,9.082,12.442,25.793,0,21.344-18.437,27.882v.364a27.2,27.2,0,0,1,17.438,11.08,33.6,33.6,0,0,1,6.267,19.8q-.091,19.709-13.623,30.607a48.23,48.23,0,0,1-4.251,3.059,2.847,2.847,0,0,0,1.58,5.22h79.394a2.834,2.834,0,0,0,2.835-2.834V235.245h-.454l-39.053,57.308h32.7v16.711H123.125v-20.98l55.854-78.378H199.05v82.647h16.711v16.711H199.05v28.059a2.835,2.835,0,0,0,2.835,2.834h45.1a2.832,2.832,0,0,0,1.629-5.147q-1.38-.988-2.655-2.088a38.684,38.684,0,0,1-8.719-10.807,62.35,62.35,0,0,1-5.4-13.487,90.08,90.08,0,0,1-2.77-15.258q-.774-7.99-.772-15.984a144.423,144.423,0,0,1,.954-16.484,97.434,97.434,0,0,1,3.223-16.121,71,71,0,0,1,6.04-14.622,46.719,46.719,0,0,1,9.309-11.9,40.691,40.691,0,0,1,13.124-7.992,48.638,48.638,0,0,1,17.482-2.907,38.918,38.918,0,0,1,26.338,10.081,37.134,37.134,0,0,1,8.356,11.216,35.807,35.807,0,0,1,3.542,14.214H295.5a24.1,24.1,0,0,0-1.726-6.9,19.219,19.219,0,0,0-3.633-5.722,16.46,16.46,0,0,0-5.4-3.859,16.757,16.757,0,0,0-6.948-1.409q-16.8,0-22.978,15.894a76.706,76.706,0,0,0-4.268,16.847,129.7,129.7,0,0,0-1.272,18.119q0,6.63.591,12.941t1.589,12.125A55.838,55.838,0,0,0,254,310.217a27.239,27.239,0,0,0,4.314,7.721,19.043,19.043,0,0,0,6.63,5.221,21.65,21.65,0,0,0,9.49,1.907,22.7,22.7,0,0,0,10.445-2.27,21.685,21.685,0,0,0,7.356-5.994,25.1,25.1,0,0,0,4.315-8.673,37.228,37.228,0,0,0,1.407-10.218,35.547,35.547,0,0,0-1.453-10.218,24.815,24.815,0,0,0-4.36-8.491,20.972,20.972,0,0,0-7.265-5.766,24.8,24.8,0,0,0-20.435.135,21.757,21.757,0,0,0-7.992,7.175q-.273-4.087-.273-8.083,0-2.814.137-5.5t.317-5.4a29.123,29.123,0,0,1,9.946-5.4A43.48,43.48,0,0,1,295.729,258,37.2,37.2,0,0,1,308.4,267.26a41.007,41.007,0,0,1,7.947,13.759A50.994,50.994,0,0,1,319.115,298a50.2,50.2,0,0,1-3.133,18.027,41.829,41.829,0,0,1-8.81,14.168,38.339,38.339,0,0,1-5.612,4.834,2.83,2.83,0,0,0,1.66,5.126h34.1a2.834,2.834,0,0,0,2.834-2.834V2.834A2.834,2.834,0,0,0,337.323,0Z"/>
      </g>
    </g>
</svg>
