<svg xmlns="http://www.w3.org/2000/svg" width="120mm" height="120mm" viewBox="0 0 340.157 340.157">
  <g id="Zimmernummer">
      <g id="Z-03-332">
        <path fill="#000000" stroke="none" d="M337.323,0H2.834A2.834,2.834,0,0,0,0,2.834V337.323a2.834,2.834,0,0,0,2.834,2.834H41.24a2.835,2.835,0,0,0,1.6-5.17q-9.372-6.652-13.964-18.967A57.918,57.918,0,0,1,25.7,297.4H46.951q-.271,11.9,5.9,19.8t17.71,7.9q11.534,0,18.709-5.995t7.175-17.255q0-13.623-10.807-18.891-7.629-3.723-23.25-3.27v-15.8q19.344.635,26.337-10.354,2.453-4.086,2.453-11.262A15.674,15.674,0,0,0,85.55,230.1a18.69,18.69,0,0,0-12.9-5.086q-17.709-.09-22.16,16.892a32.577,32.577,0,0,0-1.09,9.718H28.151q.726-18.981,12.17-31.606T71.291,207.4a47.99,47.99,0,0,1,28.7,8.992q12.443,9.081,12.443,25.793,0,21.342-18.437,27.881v.364a27.205,27.205,0,0,1,17.438,11.08,33.611,33.611,0,0,1,6.266,19.8q-.092,19.707-13.623,30.606a48.59,48.59,0,0,1-4.218,3.044,2.829,2.829,0,0,0,1.548,5.2h39.467a2.835,2.835,0,0,0,1.6-5.17q-9.37-6.652-13.964-18.967a57.918,57.918,0,0,1-3.179-18.619h21.252q-.272,11.9,5.9,19.8t17.71,7.9q11.532,0,18.709-5.995t7.175-17.255q0-13.623-10.808-18.891-7.629-3.723-23.25-3.27v-15.8q19.344.635,26.338-10.354,2.453-4.086,2.452-11.262a15.674,15.674,0,0,0-5.631-12.169,18.689,18.689,0,0,0-12.9-5.086q-17.711-.09-22.161,16.892a32.577,32.577,0,0,0-1.089,9.718H127.785q.726-18.981,12.17-31.606T170.924,207.4a47.993,47.993,0,0,1,28.7,8.992q12.441,9.081,12.442,25.793,0,21.342-18.437,27.881v.364a27.2,27.2,0,0,1,17.438,11.08,33.6,33.6,0,0,1,6.266,19.8q-.092,19.707-13.623,30.606a48.729,48.729,0,0,1-4.217,3.044,2.828,2.828,0,0,0,1.547,5.2h22.738A2.821,2.821,0,0,0,226.6,337.5q1.545-28.163,28.519-46.637,6.355-4.632,13.259-8.991,25.521-16.164,25.975-33.785,0-9.264-3.27-13.805a24.425,24.425,0,0,0-7.538-6.9,21.822,21.822,0,0,0-10.807-2.361q-6.632,0-10.808,2.543-11.171,6.811-11.806,30.061H228.872q0-22.251,11.806-36.237T273.737,207.4q21.252,0,32.877,13.714,8.991,10.989,8.991,26.247,0,20.073-18.255,35.511a149.744,149.744,0,0,1-18.073,13.351q-9.447,5.994-14.168,9.536Q254.3,313.841,251.94,321.2h63.483v16.127a2.834,2.834,0,0,0,2.835,2.834h19.065a2.834,2.834,0,0,0,2.834-2.834V2.834A2.834,2.834,0,0,0,337.323,0Z"/>
      </g>
    </g>
</svg>
