<svg xmlns="http://www.w3.org/2000/svg" width="120mm" height="120mm" viewBox="0 0 340.157 340.157">
  <g id="Zimmernummer">
      <g id="Z-03-121">
        <path fill="#000000" stroke="none" d="M337.323,0H2.834A2.834,2.834,0,0,0,0,2.834V337.323a2.834,2.834,0,0,0,2.834,2.834H74.093a2.834,2.834,0,0,0,2.835-2.834V248.838H44.959V232.127q22.887,0,33.15-11.534a20.289,20.289,0,0,0,4.722-10.081h17.347V337.323a2.834,2.834,0,0,0,2.835,2.834H124.4a2.821,2.821,0,0,0,2.82-2.633q1.774-27.793,28.472-46.091,6.357-4.632,13.26-8.992,25.519-16.164,25.975-33.785,0-9.264-3.27-13.8a24.439,24.439,0,0,0-7.538-6.9,21.829,21.829,0,0,0-10.808-2.361q-6.63,0-10.807,2.543-11.171,6.811-11.807,30.061H129.44q0-22.251,11.807-36.237t33.058-13.986q21.252,0,32.877,13.714,8.993,10.989,8.992,26.247,0,20.073-18.255,35.51a149.638,149.638,0,0,1-18.073,13.351q-9.447,5.994-14.168,9.536-10.809,8.085-13.169,15.44h63.483v15.556a2.834,2.834,0,0,0,2.835,2.834h47.094a2.834,2.834,0,0,0,2.834-2.834V248.838H236.786V232.127q22.887,0,33.15-11.534a20.3,20.3,0,0,0,4.723-10.081h17.346V337.323a2.834,2.834,0,0,0,2.835,2.834h42.483a2.834,2.834,0,0,0,2.834-2.834V2.834A2.834,2.834,0,0,0,337.323,0Z"/>
      </g>
    </g>
</svg>
