<svg xmlns="http://www.w3.org/2000/svg" width="120.001mm" height="120.001mm" viewBox="0 0 340.16 340.16">
  <g id="Zimmernummer">
      <g id="Z-03-008-E">
        <path fill="#A09f9d" stroke="none" d="M340.16,2.835v334.49a2.835,2.835,0,0,1-2.835,2.835H289.75a1.131,1.131,0,0,1-.42-2.18l.87-.42a40.231,40.231,0,0,0,8.41-5.56,37.065,37.065,0,0,0,9.59-12.94,41.3,41.3,0,0,0,3.44-17.13q0-12.3-6.42-20.67a30.782,30.782,0,0,0-17.41-11.18v-.37a27.718,27.718,0,0,0,13.68-10.33,28.578,28.578,0,0,0,4.75-16.48q0-16.755-10.52-26.16-9.435-8.445-26.14-9.31a1.305,1.305,0,0,0-1.36,1.3v14.36a1.293,1.293,0,0,0,1.14,1.27,20.888,20.888,0,0,1,10.81,4.85q5.97,5.13,5.96,14.81,0,9.3-5.77,14.24a20.528,20.528,0,0,1-10.99,4.69,1.3,1.3,0,0,0-1.15,1.28v13.71a1.291,1.291,0,0,0,1.17,1.28,25.169,25.169,0,0,1,13.95,5.85q7.08,6.06,7.07,16.86,0,11.55-7.07,17.87t-17.69,6.33q-10.62,0-17.69-6.33t-7.08-17.87q0-10.8,7.08-16.86a25.169,25.169,0,0,1,13.95-5.85,1.282,1.282,0,0,0,1.16-1.28V264.23a1.3,1.3,0,0,0-1.14-1.28,20.528,20.528,0,0,1-10.99-4.69q-5.775-4.935-5.77-14.24,0-9.69,5.96-14.81a20.817,20.817,0,0,1,10.81-4.85,1.284,1.284,0,0,0,1.13-1.27V208.73a1.3,1.3,0,0,0-1.35-1.3q-16.7.87-26.14,9.31-10.53,9.4-10.52,26.16a28.646,28.646,0,0,0,4.74,16.48,27.789,27.789,0,0,0,13.69,10.33v.37a30.749,30.749,0,0,0-17.41,11.18q-6.42,8.37-6.42,20.67a41.143,41.143,0,0,0,3.44,17.13A36.942,36.942,0,0,0,232.69,332a40.141,40.141,0,0,0,7.87,5.29c.42.21,1.27.63,1.27.63a1.161,1.161,0,0,1-.43,2.24H2.835A2.835,2.835,0,0,1,0,337.325V2.835A2.835,2.835,0,0,1,2.835,0h334.49A2.835,2.835,0,0,1,340.16,2.835Z"/>
      </g>
    </g>
</svg>
