<svg xmlns="http://www.w3.org/2000/svg" width="120mm" height="120mm" viewBox="0 0 340.158 340.157">
  <g id="Zimmernummer">
      <g id="Z-03-118-M">
        <path fill="#D4AF37" stroke="none" d="M337.323,0H2.835A2.835,2.835,0,0,0,0,2.835V337.323a2.834,2.834,0,0,0,2.834,2.834H71.5a2.834,2.834,0,0,0,2.834-2.834V248.556H42.365V231.845q22.887,0,33.15-11.534a20.3,20.3,0,0,0,4.723-10.082H97.584V337.323a2.834,2.834,0,0,0,2.835,2.834h55.835a2.834,2.834,0,0,0,2.834-2.834V248.556H127.119V231.845q22.887,0,33.15-11.534a20.288,20.288,0,0,0,4.722-10.082h17.347V337.323a2.834,2.834,0,0,0,2.835,2.834H222.72a2.832,2.832,0,0,0,1.546-5.2q-1.579-1.059-3.039-2.254a36.422,36.422,0,0,1-9.9-12.8A41.08,41.08,0,0,1,207.7,302.14a36.576,36.576,0,0,1,1.68-11.353,31.191,31.191,0,0,1,4.768-9.264,29.018,29.018,0,0,1,7.538-6.948,32.95,32.95,0,0,1,9.9-4.222v-.364A26.967,26.967,0,0,1,213.144,243.2a38.868,38.868,0,0,1,2.724-15.122,29.344,29.344,0,0,1,7.675-10.852A34.817,34.817,0,0,1,235.3,210.5a52.753,52.753,0,0,1,14.985-2.725v16.8a20.712,20.712,0,0,0-12.487,6.313q-4.588,5.038-4.587,13.3,0,8.175,4.5,13.123t12.578,5.95v16.166a26.855,26.855,0,0,0-8.763,2.27,21.3,21.3,0,0,0-6.721,4.769,21.072,21.072,0,0,0-4.315,6.992,27.368,27.368,0,0,0,.319,18.982,21.828,21.828,0,0,0,5.131,7.492,22.121,22.121,0,0,0,7.81,4.723,30.787,30.787,0,0,0,19.8,0,22.623,22.623,0,0,0,7.857-4.723,21.479,21.479,0,0,0,5.176-7.538,27.858,27.858,0,0,0,.364-19.026,19.7,19.7,0,0,0-4.315-6.948,22.423,22.423,0,0,0-6.721-4.723,26.549,26.549,0,0,0-8.809-2.27V263.269q8.084-1,12.533-5.858t4.45-13.033q0-8.263-4.5-13.441T257.1,224.579v-16.8a51.272,51.272,0,0,1,15.848,2.952,33.4,33.4,0,0,1,11.67,7.129,29.8,29.8,0,0,1,7.175,10.9,39.892,39.892,0,0,1,2.452,14.44,28.819,28.819,0,0,1-4.676,16.484,27.465,27.465,0,0,1-13.76,10.308v.364a33.2,33.2,0,0,1,9.764,4.177,30.109,30.109,0,0,1,12.4,15.621,31.56,31.56,0,0,1,1.726,10.536,45.237,45.237,0,0,1-3.452,18.254,37.434,37.434,0,0,1-9.581,13.306,37.945,37.945,0,0,1-3.546,2.769,2.83,2.83,0,0,0,1.64,5.141h52.566a2.835,2.835,0,0,0,2.835-2.834V2.835A2.835,2.835,0,0,0,337.323,0Z"/>
      </g>
    </g>
</svg>
