<svg xmlns="http://www.w3.org/2000/svg" width="120mm" height="120mm" viewBox="0 0 340.157 340.157">
  <g id="Zimmernummer">
      <g id="Z-03-050">
        <path fill="#000000" stroke="none" d="M337.323,0H2.834A2.834,2.834,0,0,0,0,2.834V337.323a2.834,2.834,0,0,0,2.834,2.834H134.8a2.831,2.831,0,0,0,1.527-5.214q-1.683-1.105-3.244-2.365-12.715-10.263-13.441-29.426H140.8q.906,10.716,7.265,16.348t16.711,5.63q23.795,0,24.249-28.608,0-18.345-13.714-24.976a24.517,24.517,0,0,0-11.08-2.179q-16.62,0-20.979,11.9H122l13.986-71.294h67.3v18.982H151.79L145.069,262.1l.364.363q8.808-9.9,25.611-9.9a39.525,39.525,0,0,1,15.712,3.269q14.985,6.45,20.707,22.978a50.892,50.892,0,0,1,2.725,16.529q0,18.711-10.536,31.969a42.816,42.816,0,0,1-8,7.754,2.837,2.837,0,0,0,1.73,5.093h48.487a2.835,2.835,0,0,0,1.689-5.107,34.94,34.94,0,0,1-3.585-3.154,42.866,42.866,0,0,1-8.22-11.761,75.526,75.526,0,0,1-5.131-14.3,105.062,105.062,0,0,1-2.679-15.532q-.773-7.946-.772-15.484,0-6.993.681-14.531a106.06,106.06,0,0,1,2.407-14.85,78.452,78.452,0,0,1,4.677-13.94,44.313,44.313,0,0,1,7.583-11.761,37.75,37.75,0,0,1,11.081-8.4,38.556,38.556,0,0,1,15.167-3.815v17.8q-20.436,3.36-20.435,49.769,0,3.906.182,9.173a103.975,103.975,0,0,0,.953,10.808,79.752,79.752,0,0,0,2.316,10.944,37.566,37.566,0,0,0,4.178,9.627,22.07,22.07,0,0,0,6.63,6.857,17.094,17.094,0,0,0,9.627,2.633q23.7,0,23.7-50.042,0-46.227-20.344-49.769v-17.8a38.565,38.565,0,0,1,15.167,3.815,36.821,36.821,0,0,1,11.035,8.446,46.71,46.71,0,0,1,7.583,11.806,76.373,76.373,0,0,1,4.723,13.942,106.473,106.473,0,0,1,2.407,14.848q.681,7.54.681,14.532,0,7.629-.772,15.667a100.376,100.376,0,0,1-2.725,15.575,75.009,75.009,0,0,1-5.222,14.214,42.767,42.767,0,0,1-8.31,11.67,35.98,35.98,0,0,1-3.455,3.007,2.836,2.836,0,0,0,1.678,5.117h42.951a2.834,2.834,0,0,0,2.834-2.834V2.834A2.834,2.834,0,0,0,337.323,0Z"/>
      </g>
    </g>
</svg>
