<svg xmlns="http://www.w3.org/2000/svg" width="120mm" height="120mm" viewBox="0 0 340.158 340.158">
  <g id="Zimmernummer">
      <g id="Z-03-604">
        <path fill="#000000" stroke="none" d="M337.323,0H2.834A2.834,2.834,0,0,0,0,2.834V337.323a2.834,2.834,0,0,0,2.834,2.835H39.992a2.835,2.835,0,0,0,1.6-5.168q-1.365-.972-2.616-2.052a38.68,38.68,0,0,1-8.719-10.807,62.391,62.391,0,0,1-5.4-13.487,90.08,90.08,0,0,1-2.77-15.258q-.773-7.99-.772-15.985a144.178,144.178,0,0,1,.954-16.483A97.333,97.333,0,0,1,25.493,244.8a70.892,70.892,0,0,1,6.04-14.622,46.716,46.716,0,0,1,9.308-11.9,40.753,40.753,0,0,1,13.123-7.992,48.671,48.671,0,0,1,17.484-2.906A38.923,38.923,0,0,1,97.786,217.46a37.119,37.119,0,0,1,8.355,11.216,35.8,35.8,0,0,1,3.542,14.214H88.522a24.051,24.051,0,0,0-1.726-6.9,19.232,19.232,0,0,0-3.632-5.721,16.486,16.486,0,0,0-5.405-3.86A16.764,16.764,0,0,0,70.812,225q-16.8,0-22.978,15.894a76.767,76.767,0,0,0-4.268,16.846,129.72,129.72,0,0,0-1.272,18.119q0,6.63.59,12.942t1.59,12.125a55.923,55.923,0,0,0,2.543,9.308,27.2,27.2,0,0,0,4.315,7.721,19.057,19.057,0,0,0,6.628,5.222,21.673,21.673,0,0,0,9.492,1.907,22.705,22.705,0,0,0,10.444-2.27,21.667,21.667,0,0,0,7.356-6,25.076,25.076,0,0,0,4.314-8.672,37.2,37.2,0,0,0,1.408-10.218,35.5,35.5,0,0,0-1.453-10.218,24.831,24.831,0,0,0-4.359-8.491,21,21,0,0,0-7.266-5.767,22.875,22.875,0,0,0-10.172-2.135,22.647,22.647,0,0,0-10.263,2.271,21.748,21.748,0,0,0-7.992,7.175q-.272-4.088-.272-8.083,0-2.814.136-5.495t.318-5.4a29.121,29.121,0,0,1,9.944-5.4,40.206,40.206,0,0,1,12.216-1.772,40.481,40.481,0,0,1,16.939,3.407,37.19,37.19,0,0,1,12.668,9.263,41.01,41.01,0,0,1,7.947,13.759,51,51,0,0,1,2.77,16.984A50.187,50.187,0,0,1,109,316.045a41.819,41.819,0,0,1-8.808,14.168,38.306,38.306,0,0,1-5.593,4.819,2.83,2.83,0,0,0,1.661,5.126h47.625a2.834,2.834,0,0,0,1.685-5.109,35.263,35.263,0,0,1-3.647-3.2,42.914,42.914,0,0,1-8.219-11.761,75.536,75.536,0,0,1-5.131-14.3,105.29,105.29,0,0,1-2.68-15.531q-.773-7.946-.771-15.484,0-6.994.681-14.532a106.067,106.067,0,0,1,2.406-14.849,78.465,78.465,0,0,1,4.678-13.941,44.266,44.266,0,0,1,7.583-11.76,37.765,37.765,0,0,1,11.08-8.4,38.565,38.565,0,0,1,15.167-3.814v17.8q-20.434,3.36-20.434,49.769,0,3.906.181,9.173a104.257,104.257,0,0,0,.954,10.808,79.784,79.784,0,0,0,2.316,10.944,37.6,37.6,0,0,0,4.178,9.627,22.074,22.074,0,0,0,6.629,6.856,17.093,17.093,0,0,0,9.627,2.634q23.7,0,23.7-50.042,0-46.227-20.344-49.769v-17.8a38.57,38.57,0,0,1,15.167,3.814,36.838,36.838,0,0,1,11.035,8.446,46.688,46.688,0,0,1,7.583,11.807,76.347,76.347,0,0,1,4.723,13.942,106.473,106.473,0,0,1,2.407,14.848q.68,7.54.68,14.531,0,7.629-.772,15.667a100.27,100.27,0,0,1-2.725,15.576,74.928,74.928,0,0,1-5.221,14.213,42.752,42.752,0,0,1-8.31,11.67,35.785,35.785,0,0,1-3.517,3.055,2.836,2.836,0,0,0,1.676,5.119h82.969a2.835,2.835,0,0,0,2.835-2.835V235.261h-.454l-39.053,57.307h32.7v16.711H226.206V288.3l55.854-78.378h20.071v82.646h16.711v16.711H302.131v28.044a2.835,2.835,0,0,0,2.835,2.835h32.357a2.836,2.836,0,0,0,2.835-2.835V2.835A2.835,2.835,0,0,0,337.323,0Z"/>
      </g>
    </g>
</svg>
