<svg xmlns="http://www.w3.org/2000/svg" width="120mm" height="120mm" viewBox="0 0 340.157 340.158">
  <g id="Zimmernummer">
      <g id="Z-03-347-E">
        <path fill="#A09f9d" stroke="none" d="M337.323,0H2.835A2.835,2.835,0,0,0,0,2.835V337.323a2.835,2.835,0,0,0,2.835,2.835H39.2a2.835,2.835,0,0,0,1.6-5.172Q31.407,328.331,26.808,316a57.891,57.891,0,0,1-3.179-18.619H44.881q-.273,11.9,5.9,19.8t17.71,7.9q11.534,0,18.709-6t7.175-17.255q0-13.623-10.808-18.891-7.629-3.724-23.25-3.27v-15.8q19.345.634,26.338-10.354,2.453-4.086,2.452-11.262a15.676,15.676,0,0,0-5.63-12.17A18.7,18.7,0,0,0,70.583,225q-17.71-.09-22.16,16.892a32.545,32.545,0,0,0-1.09,9.718H26.081q.726-18.981,12.17-31.606t30.97-12.624a47.984,47.984,0,0,1,28.7,8.992q12.441,9.081,12.442,25.793,0,21.342-18.436,27.881v.364a27.2,27.2,0,0,1,17.437,11.08,33.6,33.6,0,0,1,6.267,19.8q-.093,19.707-13.623,30.606a48.852,48.852,0,0,1-4.249,3.064,2.829,2.829,0,0,0,1.546,5.2h83.679a2.835,2.835,0,0,0,2.835-2.835V235.26h-.455l-39.052,57.308h32.695v16.711H129.963V288.3l55.855-78.378h20.071v82.647H222.6v16.711H205.889v28.044a2.834,2.834,0,0,0,2.834,2.835h33.352a2.837,2.837,0,0,0,2.82-2.606q3.8-43.308,31.217-84.219a235.52,235.52,0,0,1,18.8-24.43h-67.48V209.921h89.1v17.71q-32.514,36.51-43.412,79.377A188.011,188.011,0,0,0,268.18,337.1a2.834,2.834,0,0,0,2.828,3.063h66.315a2.834,2.834,0,0,0,2.834-2.835V2.835A2.834,2.834,0,0,0,337.323,0Z"/>
      </g>
    </g>
</svg>
