<svg xmlns="http://www.w3.org/2000/svg" width="120mm" height="120mm" viewBox="0 0 340.158 340.157">
  <g id="Zimmernummer">
      <g id="Z-03-024">
        <path fill="#000000" stroke="none" d="M337.323,0H2.835A2.835,2.835,0,0,0,0,2.835V337.323a2.834,2.834,0,0,0,2.834,2.834h113.2a2.822,2.822,0,0,0,2.822-2.649q1.627-28.032,28.5-46.443,6.355-4.63,13.26-8.991,25.52-16.164,25.974-33.785,0-9.264-3.269-13.8a24.447,24.447,0,0,0-7.538-6.9,21.829,21.829,0,0,0-10.808-2.361q-6.63,0-10.808,2.543-11.17,6.811-11.806,30.061H121.112q0-22.251,11.806-36.237T165.977,207.6q21.252,0,32.877,13.713,8.991,10.99,8.991,26.247,0,20.073-18.255,35.511a149.559,149.559,0,0,1-18.073,13.351q-9.447,5.994-14.168,9.536Q146.54,314.045,144.18,321.4h63.484v15.924a2.834,2.834,0,0,0,2.834,2.834h61.81a2.834,2.834,0,0,0,2.835-2.834V235.483h-.454l-39.053,57.308h32.7V309.5H219.289v-20.98l55.854-78.377h20.071v82.646h16.711V309.5H295.214v27.821a2.834,2.834,0,0,0,2.835,2.834h39.274a2.835,2.835,0,0,0,2.835-2.835V2.834A2.834,2.834,0,0,0,337.323,0Z"/>
      </g>
    </g>
</svg>
