<svg xmlns="http://www.w3.org/2000/svg" width="120mm" height="120mm" viewBox="0 0 340.157 340.158">
  <g id="Zimmernummer">
      <g id="Z-03-434-R">
        <path fill="#A0552B" stroke="none" d="M337.323,0H2.835A2.835,2.835,0,0,0,0,2.835V337.323a2.834,2.834,0,0,0,2.834,2.835H73.427a2.834,2.834,0,0,0,2.834-2.835V235.26h-.454L36.755,292.568h32.7v16.711H20.407V288.3l55.854-78.377H96.333v82.646h16.711v16.711H96.333v28.044a2.834,2.834,0,0,0,2.834,2.835H140.6a2.835,2.835,0,0,0,1.6-5.172Q132.81,328.331,128.211,316a57.908,57.908,0,0,1-3.179-18.619h21.252q-.273,11.9,5.9,19.8t17.71,7.9q11.534,0,18.709-5.994t7.175-17.256q0-13.623-10.808-18.891-7.629-3.723-23.25-3.269v-15.8q19.345.636,26.338-10.353,2.452-4.088,2.452-11.262a15.673,15.673,0,0,0-5.63-12.17,18.69,18.69,0,0,0-12.9-5.086q-17.71-.09-22.16,16.893a32.531,32.531,0,0,0-1.09,9.716H127.484q.728-18.981,12.17-31.6t30.97-12.623a47.989,47.989,0,0,1,28.7,8.99q12.442,9.083,12.442,25.793,0,21.344-18.436,27.883v.363a27.2,27.2,0,0,1,17.437,11.08,33.6,33.6,0,0,1,6.267,19.8Q216.942,321,203.41,331.893a48.866,48.866,0,0,1-4.25,3.064,2.829,2.829,0,0,0,1.547,5.2h79.427a2.835,2.835,0,0,0,2.835-2.835V235.26h-.455l-39.052,57.308h32.695v16.711H227.114V288.3l55.855-78.377H303.04v82.646h16.711v16.711H303.04v28.044a2.834,2.834,0,0,0,2.834,2.835h31.449a2.834,2.834,0,0,0,2.834-2.835V2.835A2.834,2.834,0,0,0,337.323,0Z"/>
      </g>
    </g>
</svg>
