<svg xmlns="http://www.w3.org/2000/svg" width="120mm" height="120mm" viewBox="0 0 340.157 340.157">
  <g id="Zimmernummer">
      <g id="Z-03-623-E">
        <path fill="#A09f9d" stroke="none" d="M337.323,0H2.834A2.834,2.834,0,0,0,0,2.834V337.323a2.834,2.834,0,0,0,2.834,2.834h36.84a2.834,2.834,0,0,0,1.6-5.167q-1.365-.972-2.616-2.053a38.666,38.666,0,0,1-8.719-10.807,62.35,62.35,0,0,1-5.4-13.487,89.981,89.981,0,0,1-2.769-15.258Q21,285.395,21,277.4a144.208,144.208,0,0,1,.954-16.484A97.333,97.333,0,0,1,25.175,244.8a70.948,70.948,0,0,1,6.04-14.622,46.716,46.716,0,0,1,9.308-11.9,40.718,40.718,0,0,1,13.123-7.992,48.649,48.649,0,0,1,17.484-2.907,38.923,38.923,0,0,1,26.338,10.081,37.131,37.131,0,0,1,8.355,11.216,35.807,35.807,0,0,1,3.542,14.214H88.2a24.076,24.076,0,0,0-1.725-6.9,19.259,19.259,0,0,0-3.633-5.722,16.468,16.468,0,0,0-5.405-3.859A16.745,16.745,0,0,0,70.494,225q-16.8,0-22.977,15.893a76.762,76.762,0,0,0-4.269,16.847,129.7,129.7,0,0,0-1.271,18.119q0,6.63.589,12.941t1.59,12.125a55.934,55.934,0,0,0,2.543,9.309,27.241,27.241,0,0,0,4.315,7.721,19.037,19.037,0,0,0,6.629,5.221,21.651,21.651,0,0,0,9.491,1.908,22.693,22.693,0,0,0,10.444-2.271,21.689,21.689,0,0,0,7.357-5.994,25.079,25.079,0,0,0,4.313-8.673,37.152,37.152,0,0,0,1.408-10.218A35.513,35.513,0,0,0,89.2,287.708a24.831,24.831,0,0,0-4.359-8.491,21,21,0,0,0-7.266-5.766,22.875,22.875,0,0,0-10.172-2.135,22.653,22.653,0,0,0-10.262,2.27,21.752,21.752,0,0,0-7.993,7.175q-.272-4.086-.272-8.083,0-2.814.137-5.5t.317-5.4a29.123,29.123,0,0,1,9.944-5.4,40.237,40.237,0,0,1,12.216-1.771,40.493,40.493,0,0,1,16.939,3.406,37.219,37.219,0,0,1,12.669,9.264,41.005,41.005,0,0,1,7.946,13.759,50.969,50.969,0,0,1,2.77,16.983,50.2,50.2,0,0,1-3.133,18.027,41.817,41.817,0,0,1-8.809,14.168,38.419,38.419,0,0,1-5.591,4.82,2.83,2.83,0,0,0,1.661,5.125h26.67a2.821,2.821,0,0,0,2.823-2.658q1.536-28.178,28.52-46.657,6.355-4.632,13.26-8.991,25.52-16.164,25.974-33.785,0-9.264-3.269-13.805a24.436,24.436,0,0,0-7.538-6.9A21.826,21.826,0,0,0,171.577,225q-6.63,0-10.807,2.543Q149.6,234.353,148.963,257.6H127.711q0-22.251,11.807-36.237t33.058-13.987q21.252,0,32.877,13.714,8.991,10.989,8.991,26.247,0,20.073-18.255,35.511A149.587,149.587,0,0,1,178.116,296.2q-9.447,5.994-14.168,9.536-10.809,8.083-13.169,15.439h63.484v16.147a2.834,2.834,0,0,0,2.834,2.834h25.629a2.835,2.835,0,0,0,1.6-5.172q-9.388-6.654-13.987-18.985a57.918,57.918,0,0,1-3.179-18.619h21.252q-.273,11.9,5.9,19.8t17.71,7.9q11.534,0,18.709-6t7.175-17.255q0-13.623-10.807-18.891-7.629-3.724-23.25-3.27v-15.8q19.344.634,26.337-10.354,2.452-4.086,2.453-11.262a15.674,15.674,0,0,0-5.631-12.17,18.694,18.694,0,0,0-12.9-5.085q-17.709-.09-22.16,16.892a32.545,32.545,0,0,0-1.09,9.718H229.611q.728-18.981,12.17-31.606t30.97-12.624a47.984,47.984,0,0,1,28.7,8.992q12.443,9.081,12.443,25.793,0,21.342-18.437,27.881v.364a27.205,27.205,0,0,1,17.438,11.08,33.611,33.611,0,0,1,6.266,19.8q-.09,19.707-13.623,30.606a48.838,48.838,0,0,1-4.248,3.064,2.828,2.828,0,0,0,1.546,5.2h34.488a2.834,2.834,0,0,0,2.834-2.834V2.834A2.834,2.834,0,0,0,337.323,0Z"/>
      </g>
    </g>
</svg>
