<svg xmlns="http://www.w3.org/2000/svg" width="120mm" height="120mm" viewBox="0 0 340.157 340.157">
  <g id="Zimmernummer">
      <g id="Z-03-430-E">
        <path fill="#A09f9d" stroke="none" d="M337.323,0H2.835A2.835,2.835,0,0,0,0,2.835V337.323a2.834,2.834,0,0,0,2.834,2.834H73.608a2.834,2.834,0,0,0,2.835-2.834V235.261h-.454L36.936,292.568h32.7v16.711H20.589V288.3l55.854-78.378H96.514v82.646h16.711v16.711H96.514v28.044a2.835,2.835,0,0,0,2.835,2.834h41.43a2.835,2.835,0,0,0,1.6-5.172q-9.388-6.654-13.987-18.985a57.907,57.907,0,0,1-3.178-18.618h21.252q-.273,11.9,5.9,19.8t17.71,7.9q11.532,0,18.709-5.994t7.175-17.256q0-13.623-10.808-18.891-7.629-3.723-23.25-3.269v-15.8q19.345.636,26.338-10.353,2.452-4.088,2.452-11.262a15.673,15.673,0,0,0-5.631-12.17,18.689,18.689,0,0,0-12.9-5.086q-17.711-.09-22.16,16.893a32.534,32.534,0,0,0-1.09,9.717H127.666q.726-18.981,12.17-31.605t30.969-12.624a47.993,47.993,0,0,1,28.7,8.991q12.443,9.083,12.442,25.793,0,21.343-18.437,27.882v.363a27.206,27.206,0,0,1,17.438,11.08,33.607,33.607,0,0,1,6.267,19.8q-.09,19.546-13.4,30.428a2.992,2.992,0,0,1-.469.313l-5.159,2.8a2.834,2.834,0,0,0,1.353,5.325H248.3a2.835,2.835,0,0,0,1.7-5.1,38.031,38.031,0,0,1-3.629-3.207,42.939,42.939,0,0,1-8.22-11.761,75.674,75.674,0,0,1-5.131-14.3,105.288,105.288,0,0,1-2.679-15.531q-.772-7.946-.772-15.484,0-6.994.682-14.532a106.067,106.067,0,0,1,2.406-14.849,78.385,78.385,0,0,1,4.678-13.941,44.266,44.266,0,0,1,7.583-11.76,37.765,37.765,0,0,1,11.08-8.4,38.561,38.561,0,0,1,15.167-3.814v17.8q-20.434,3.36-20.435,49.769,0,3.906.182,9.173a103.982,103.982,0,0,0,.954,10.808,79.78,79.78,0,0,0,2.315,10.944,37.631,37.631,0,0,0,4.178,9.627,22.089,22.089,0,0,0,6.63,6.856,17.089,17.089,0,0,0,9.627,2.634q23.7,0,23.7-50.042,0-46.227-20.344-49.769v-17.8a38.561,38.561,0,0,1,15.167,3.814,36.842,36.842,0,0,1,11.036,8.446,46.743,46.743,0,0,1,7.583,11.807,76.269,76.269,0,0,1,4.722,13.942,106.326,106.326,0,0,1,2.407,14.848q.681,7.54.681,14.531,0,7.629-.772,15.667a100.27,100.27,0,0,1-2.725,15.576,74.931,74.931,0,0,1-5.222,14.213,42.749,42.749,0,0,1-8.309,11.67,37.885,37.885,0,0,1-3.485,3.061,2.837,2.837,0,0,0,1.687,5.112h36.58a2.834,2.834,0,0,0,2.834-2.834V2.834A2.834,2.834,0,0,0,337.323,0Z"/>
      </g>
    </g>
</svg>
