<svg xmlns="http://www.w3.org/2000/svg" width="120mm" height="120mm" viewBox="0 0 340.158 340.158">
  <g id="Zimmernummer">
      <g id="Z-03-607-M">
        <path fill="#D4AF37" stroke="none" d="M337.323,0H2.834A2.834,2.834,0,0,0,0,2.834V337.323a2.835,2.835,0,0,0,2.835,2.835H40.719a2.835,2.835,0,0,0,1.6-5.168q-1.365-.972-2.616-2.053a38.634,38.634,0,0,1-8.719-10.807,62.344,62.344,0,0,1-5.405-13.486,90.08,90.08,0,0,1-2.769-15.258q-.774-7.992-.772-15.984A144.226,144.226,0,0,1,23,260.917,97.352,97.352,0,0,1,26.219,244.8a70.994,70.994,0,0,1,6.04-14.621,46.742,46.742,0,0,1,9.309-11.9,40.714,40.714,0,0,1,13.123-7.992,48.647,48.647,0,0,1,17.483-2.907A38.912,38.912,0,0,1,98.512,217.46a37.13,37.13,0,0,1,8.356,11.215,35.824,35.824,0,0,1,3.542,14.215H89.249a24.094,24.094,0,0,0-1.726-6.9,19.224,19.224,0,0,0-3.633-5.723,16.479,16.479,0,0,0-5.4-3.859A16.764,16.764,0,0,0,71.539,225q-16.8,0-22.978,15.894a76.739,76.739,0,0,0-4.269,16.846,129.86,129.86,0,0,0-1.271,18.119q0,6.63.59,12.941t1.59,12.125a55.838,55.838,0,0,0,2.543,9.309,27.2,27.2,0,0,0,4.314,7.721,19.028,19.028,0,0,0,6.629,5.222,21.658,21.658,0,0,0,9.491,1.907,22.7,22.7,0,0,0,10.445-2.27,21.709,21.709,0,0,0,7.356-5.994,25.057,25.057,0,0,0,4.313-8.674A37.141,37.141,0,0,0,91.7,297.927a35.554,35.554,0,0,0-1.453-10.219,24.81,24.81,0,0,0-4.36-8.49,20.987,20.987,0,0,0-7.265-5.767,22.892,22.892,0,0,0-10.172-2.135,22.641,22.641,0,0,0-10.263,2.271,21.754,21.754,0,0,0-7.992,7.174q-.273-4.086-.273-8.082,0-2.815.137-5.5t.317-5.4a29.113,29.113,0,0,1,9.945-5.405,40.233,40.233,0,0,1,12.216-1.771,40.492,40.492,0,0,1,16.938,3.406,37.209,37.209,0,0,1,12.669,9.264,40.993,40.993,0,0,1,7.946,13.76,50.967,50.967,0,0,1,2.771,16.982,50.183,50.183,0,0,1-3.134,18.027,41.8,41.8,0,0,1-8.809,14.168,38.313,38.313,0,0,1-5.593,4.82,2.83,2.83,0,0,0,1.661,5.126h47.628a2.834,2.834,0,0,0,1.684-5.109,35.062,35.062,0,0,1-3.648-3.2,42.919,42.919,0,0,1-8.22-11.76,75.649,75.649,0,0,1-5.131-14.3,105.3,105.3,0,0,1-2.679-15.532q-.772-7.944-.772-15.484,0-6.993.682-14.531a106.058,106.058,0,0,1,2.406-14.85,78.364,78.364,0,0,1,4.678-13.939,44.293,44.293,0,0,1,7.583-11.762,37.759,37.759,0,0,1,11.08-8.4,38.561,38.561,0,0,1,15.167-3.815v17.8q-20.434,3.36-20.435,49.77,0,3.9.182,9.171a104,104,0,0,0,.954,10.809,79.7,79.7,0,0,0,2.315,10.943,37.586,37.586,0,0,0,4.178,9.627,22.085,22.085,0,0,0,6.63,6.858,17.1,17.1,0,0,0,9.627,2.633q23.7,0,23.7-50.041,0-46.228-20.344-49.77v-17.8a38.561,38.561,0,0,1,15.167,3.815,36.806,36.806,0,0,1,11.035,8.445,46.719,46.719,0,0,1,7.584,11.807,76.31,76.31,0,0,1,4.722,13.941,106.354,106.354,0,0,1,2.407,14.85q.681,7.538.681,14.531,0,7.629-.772,15.666a100.27,100.27,0,0,1-2.725,15.576,74.956,74.956,0,0,1-5.222,14.213,42.749,42.749,0,0,1-8.309,11.67,35.913,35.913,0,0,1-3.518,3.055,2.836,2.836,0,0,0,1.675,5.119h46.682a2.838,2.838,0,0,0,2.821-2.606q3.795-43.308,31.217-84.219A235.352,235.352,0,0,1,296.5,228.9H229.021V209.921h89.1v17.711Q285.6,264.142,274.7,307.009a187.98,187.98,0,0,0-4.936,30.086,2.834,2.834,0,0,0,2.829,3.063h64.726a2.836,2.836,0,0,0,2.835-2.835V2.835A2.835,2.835,0,0,0,337.323,0Z"/>
      </g>
    </g>
</svg>
