<svg xmlns="http://www.w3.org/2000/svg" width="120.001mm" height="119.997mm" viewBox="0 0 340.16 340.149">
  <g id="Zimmernummer">
      <g id="Z-03-209-R">
        <path fill="#A0552B" stroke="none" d="M0,2.835v334.48a2.834,2.834,0,0,0,2.835,2.834H24.751a2.84,2.84,0,0,0,2.832-2.737c.005-.115.009-.211.013-.281a51.925,51.925,0,0,1,7.711-25.146,71.518,71.518,0,0,1,20.859-21.05q6.33-4.65,13.22-9.03a104.294,104.294,0,0,0,12.66-9.4,50.153,50.153,0,0,0,9.5-10.89,25.918,25.918,0,0,0,3.91-13.5,37.02,37.02,0,0,0-.839-7.55,20.033,20.033,0,0,0-3.26-7.44,19.294,19.294,0,0,0-6.7-5.78,22.941,22.941,0,0,0-10.673-2.317,20.814,20.814,0,0,0-11.028,2.507,18.861,18.861,0,0,0-6.7,6.89,34.121,34.121,0,0,0-3.72,10.33,74.229,74.229,0,0,0-1.4,12.85H29.907A66.5,66.5,0,0,1,32.8,237.6a44.2,44.2,0,0,1,8.66-15.92,40.283,40.283,0,0,1,13.919-10.53,47.05,47.05,0,0,1,20.2-3.805c6.521.072,13.218,1.015,19.13,3.905a38.115,38.115,0,0,1,12.941,9.87,36.094,36.094,0,0,1,6.989,12.94c2.6,8.882,2.978,18.714-.38,27.46a45.3,45.3,0,0,1-6.51,11.64,66.644,66.644,0,0,1-9.309,9.78q-5.221,4.469-10.8,8.38c-3.729,2.6-7.449,5.09-11.18,7.44s-7.17,4.72-10.33,7.08a60.378,60.378,0,0,0-8.29,7.36A20.829,20.829,0,0,0,53,321.3h63.5v16.02a2.835,2.835,0,0,0,2.835,2.834h29.581a1.283,1.283,0,0,0,.65-2.373c-.61-.371-1.2-.761-1.772-1.181a44.12,44.12,0,0,1-13.779-16.39,72.826,72.826,0,0,1-6.7-21.88,155.6,155.6,0,0,1,0-46.18,73,73,0,0,1,6.7-21.88,44.088,44.088,0,0,1,13.779-16.38q7.56-5.49,18.861-6.27a1.282,1.282,0,0,1,1.37,1.29v15.27a1.281,1.281,0,0,1-1.05,1.28,15.8,15.8,0,0,0-8.01,3.7,27.554,27.554,0,0,0-7.26,10.89,66.028,66.028,0,0,0-3.82,15.92,159.9,159.9,0,0,0,0,38.64,64.663,64.663,0,0,0,3.82,15.92c2.278,5.732,6.208,11.573,12.257,13.732,5.963,2.129,13.319,1.256,18.183-2.932a27.076,27.076,0,0,0,7.36-10.8,64.663,64.663,0,0,0,3.82-15.92,160.048,160.048,0,0,0,0-38.64c-1.176-9.435-3.633-20.331-11.18-26.81a16.145,16.145,0,0,0-7.874-3.68,1.346,1.346,0,0,1-1.1-1.27v-15.3a1.287,1.287,0,0,1,1.37-1.29q11.3.8,18.87,6.27a44.184,44.184,0,0,1,13.78,16.38,73.29,73.29,0,0,1,6.7,21.88,156.814,156.814,0,0,1,0,46.18,73.112,73.112,0,0,1-6.7,21.88,44.216,44.216,0,0,1-13.78,16.39c-.569.419-1.168.808-1.766,1.177a1.284,1.284,0,0,0,.643,2.377h51.77a1.279,1.279,0,0,0,.572-2.408,38.65,38.65,0,0,1-4.323-2.756,36.651,36.651,0,0,1-14.97-27.74h21.23c.6,6.39,3.68,12.7,9.56,15.77s13.97,2.81,19.78-.26c14.23-7.53,15.31-27.27,16.66-41.33.02-.36.04-.73.04-1.11a134.057,134.057,0,0,0-2.71-34.84,30.809,30.809,0,0,0-.88-3.53,22.7,22.7,0,0,0-18.54-16.72,22,22,0,0,0-21.78,9.76c-9.22,14.2-4.91,40.29,14.14,43.46,9.08,1.51,18.17-2.01,23.19-9.59a.766.766,0,0,1,1.41.39,110.4,110.4,0,0,1-.01,11.79c-.17,1.8-.34,3.61-.48,5.421a1.536,1.536,0,0,1-.478,1.007c-12.24,11.382-33.321,10.082-46.422.972-14.39-10.01-19.28-29.141-16.36-45.77,2.92-16.68,15.04-30.32,31.69-34.14,15.37-3.53,33.24-.2,44.08,11.82,13.01,14.42,14.33,36.64,14.33,55.08,0,20.21-4.75,43.41-20.72,57.25a39.815,39.815,0,0,1-7.39,5.06,1.289,1.289,0,0,0,.6,2.414h51.049a2.834,2.834,0,0,0,2.835-2.834V2.835A2.835,2.835,0,0,0,337.325,0H2.835A2.835,2.835,0,0,0,0,2.835Z"/>
      </g>
    </g>
</svg>
