<svg xmlns="http://www.w3.org/2000/svg" width="120mm" height="120mm" viewBox="0 0 340.158 340.157">
  <g id="Zimmernummer">
      <g id="Z-03-608">
        <path fill="#000000" stroke="none" d="M337.323,0H2.834A2.834,2.834,0,0,0,0,2.834V337.323a2.834,2.834,0,0,0,2.834,2.834H39.673a2.834,2.834,0,0,0,1.6-5.167q-1.365-.972-2.615-2.052a38.68,38.68,0,0,1-8.719-10.807,62.358,62.358,0,0,1-5.4-13.488,89.981,89.981,0,0,1-2.769-15.258Q21,285.4,21,277.4a144.191,144.191,0,0,1,.954-16.483A97.312,97.312,0,0,1,25.175,244.8a70.956,70.956,0,0,1,6.04-14.623,46.694,46.694,0,0,1,9.308-11.9,40.7,40.7,0,0,1,13.123-7.992,48.649,48.649,0,0,1,17.484-2.907,38.928,38.928,0,0,1,26.338,10.08,37.135,37.135,0,0,1,8.355,11.217,35.806,35.806,0,0,1,3.542,14.213H88.2a24.084,24.084,0,0,0-1.725-6.9,19.254,19.254,0,0,0-3.633-5.721,16.454,16.454,0,0,0-5.405-3.859A16.729,16.729,0,0,0,70.494,225q-16.8,0-22.977,15.892a76.786,76.786,0,0,0-4.269,16.848,129.687,129.687,0,0,0-1.271,18.119q0,6.63.589,12.941t1.59,12.125a55.934,55.934,0,0,0,2.543,9.309,27.255,27.255,0,0,0,4.315,7.721,19.046,19.046,0,0,0,6.629,5.22,21.651,21.651,0,0,0,9.491,1.909,22.693,22.693,0,0,0,10.444-2.272,21.666,21.666,0,0,0,7.357-5.994,25.083,25.083,0,0,0,4.313-8.672,37.165,37.165,0,0,0,1.408-10.219A35.506,35.506,0,0,0,89.2,287.709a24.836,24.836,0,0,0-4.359-8.492,20.994,20.994,0,0,0-7.266-5.765,22.862,22.862,0,0,0-10.172-2.135,22.665,22.665,0,0,0-10.262,2.269,21.755,21.755,0,0,0-7.993,7.176q-.272-4.086-.272-8.084,0-2.812.137-5.494t.317-5.4a29.138,29.138,0,0,1,9.944-5.4,40.237,40.237,0,0,1,12.216-1.771,40.493,40.493,0,0,1,16.939,3.406,37.219,37.219,0,0,1,12.669,9.264,41,41,0,0,1,7.946,13.758,50.97,50.97,0,0,1,2.77,16.984,50.2,50.2,0,0,1-3.133,18.027,41.817,41.817,0,0,1-8.809,14.168,38.412,38.412,0,0,1-5.591,4.819,2.83,2.83,0,0,0,1.661,5.125h47.62a2.834,2.834,0,0,0,1.686-5.108,35.152,35.152,0,0,1-3.645-3.2,42.874,42.874,0,0,1-8.219-11.762,75.541,75.541,0,0,1-5.131-14.3,105.348,105.348,0,0,1-2.68-15.532q-.771-7.944-.771-15.484,0-6.993.681-14.531a105.913,105.913,0,0,1,2.407-14.85,78.463,78.463,0,0,1,4.677-13.941,44.282,44.282,0,0,1,7.583-11.76,37.744,37.744,0,0,1,11.08-8.4,38.582,38.582,0,0,1,15.167-3.815v17.8q-20.435,3.36-20.434,49.77,0,3.9.181,9.173a104.2,104.2,0,0,0,.955,10.807,79.646,79.646,0,0,0,2.315,10.945,37.581,37.581,0,0,0,4.178,9.627,22.078,22.078,0,0,0,6.63,6.856,17.081,17.081,0,0,0,9.627,2.635q23.7,0,23.7-50.043,0-46.229-20.344-49.77v-17.8a38.587,38.587,0,0,1,15.167,3.815,36.824,36.824,0,0,1,11.035,8.447A46.653,46.653,0,0,1,207,231.538a76.337,76.337,0,0,1,4.723,13.941,106.425,106.425,0,0,1,2.407,14.848q.68,7.54.681,14.531,0,7.629-.773,15.668a100.244,100.244,0,0,1-2.724,15.574,74.925,74.925,0,0,1-5.222,14.215,42.782,42.782,0,0,1-8.31,11.67,35.77,35.77,0,0,1-3.515,3.054,2.836,2.836,0,0,0,1.676,5.118h46.716a2.829,2.829,0,0,0,1.55-5.2,39.713,39.713,0,0,1-3.515-2.566,36.434,36.434,0,0,1-9.9-12.8,41.061,41.061,0,0,1-3.633-17.755,36.583,36.583,0,0,1,1.681-11.354,31.212,31.212,0,0,1,4.767-9.264,29.034,29.034,0,0,1,7.539-6.947,32.955,32.955,0,0,1,9.9-4.223v-.363a26.97,26.97,0,0,1-18.437-26.793,38.862,38.862,0,0,1,2.725-15.121,29.337,29.337,0,0,1,7.675-10.853,34.834,34.834,0,0,1,11.761-6.721,52.719,52.719,0,0,1,14.985-2.725v16.8a20.711,20.711,0,0,0-12.488,6.312q-4.587,5.04-4.586,13.305,0,8.173,4.5,13.123t12.578,5.949v16.166a26.861,26.861,0,0,0-8.764,2.27,21.276,21.276,0,0,0-6.72,4.77,21.046,21.046,0,0,0-4.315,6.992,27.36,27.36,0,0,0,.318,18.982,21.875,21.875,0,0,0,5.131,7.492,22.134,22.134,0,0,0,7.811,4.723,30.787,30.787,0,0,0,19.8,0,22.6,22.6,0,0,0,7.855-4.723,21.484,21.484,0,0,0,5.178-7.539,27.863,27.863,0,0,0,.363-19.025,19.719,19.719,0,0,0-4.314-6.949,22.441,22.441,0,0,0-6.721-4.723,26.555,26.555,0,0,0-8.81-2.27V262.961q8.084-1,12.534-5.857t4.45-13.033q0-8.265-4.5-13.442t-12.488-6.357v-16.8a51.255,51.255,0,0,1,15.849,2.953,33.4,33.4,0,0,1,11.67,7.129,29.784,29.784,0,0,1,7.175,10.9,39.883,39.883,0,0,1,2.452,14.439,28.816,28.816,0,0,1-4.678,16.485,27.459,27.459,0,0,1-13.759,10.308v.363a33.165,33.165,0,0,1,9.763,4.178,30.112,30.112,0,0,1,12.4,15.621,31.554,31.554,0,0,1,1.725,10.535,45.233,45.233,0,0,1-3.451,18.254,37.458,37.458,0,0,1-9.582,13.307,37.913,37.913,0,0,1-3.942,3.034,2.83,2.83,0,0,0,1.575,5.183h33.563a2.835,2.835,0,0,0,2.835-2.835V2.834A2.834,2.834,0,0,0,337.323,0Z"/>
      </g>
    </g>
</svg>
