<svg xmlns="http://www.w3.org/2000/svg" width="120mm" height="120mm" viewBox="0 0 340.158 340.157">
  <g id="Zimmernummer">
      <g id="Z-03-040-E">
        <path fill="#A09f9d" stroke="none" d="M337.323,0H2.835A2.835,2.835,0,0,0,0,2.835V337.323a2.834,2.834,0,0,0,2.834,2.834h167.5a2.834,2.834,0,0,0,2.834-2.834V235.483h-.454l-39.053,57.308h32.7V309.5H117.316v-20.98l55.854-78.377h20.072v82.646h16.711V309.5H193.242v27.821a2.834,2.834,0,0,0,2.834,2.834h45.336a2.836,2.836,0,0,0,1.7-5.1,34.64,34.64,0,0,1-3.369-2.985,42.854,42.854,0,0,1-8.22-11.76,75.536,75.536,0,0,1-5.131-14.3,105.335,105.335,0,0,1-2.68-15.531q-.771-7.946-.771-15.485,0-6.993.68-14.531a106.085,106.085,0,0,1,2.408-14.85,78.53,78.53,0,0,1,4.676-13.94,44.316,44.316,0,0,1,7.584-11.761,37.767,37.767,0,0,1,11.081-8.4,38.569,38.569,0,0,1,15.167-3.815v17.8q-20.436,3.36-20.435,49.77,0,3.9.182,9.173a103.957,103.957,0,0,0,.953,10.807,79.618,79.618,0,0,0,2.316,10.945,37.539,37.539,0,0,0,4.178,9.626,22.07,22.07,0,0,0,6.63,6.857,17.086,17.086,0,0,0,9.627,2.634q23.7,0,23.7-50.042,0-46.228-20.344-49.77v-17.8a38.582,38.582,0,0,1,15.167,3.815,36.821,36.821,0,0,1,11.034,8.446,46.674,46.674,0,0,1,7.584,11.807,76.439,76.439,0,0,1,4.723,13.941,106.314,106.314,0,0,1,2.406,14.849q.681,7.539.682,14.531,0,7.629-.773,15.667a100.257,100.257,0,0,1-2.724,15.575,74.984,74.984,0,0,1-5.222,14.214,42.749,42.749,0,0,1-8.311,11.67,35.651,35.651,0,0,1-3.28,2.874,2.819,2.819,0,0,0,1.68,5.076h43.01a2.835,2.835,0,0,0,2.835-2.834V2.834A2.834,2.834,0,0,0,337.323,0Z"/>
      </g>
    </g>
</svg>
