<svg xmlns="http://www.w3.org/2000/svg" width="120mm" height="120mm" viewBox="0 0 340.157 340.157">
  <g id="Zimmernummer">
      <g id="Z-03-128-M">
        <path fill="#D4AF37" stroke="none" d="M337.323,0H2.835A2.835,2.835,0,0,0,0,2.835V337.323a2.834,2.834,0,0,0,2.835,2.834H60.92a2.834,2.834,0,0,0,2.834-2.834V248.839H31.786V232.128q22.885,0,33.149-11.534a20.3,20.3,0,0,0,4.723-10.081H87v126.81a2.834,2.834,0,0,0,2.835,2.834h21.382a2.822,2.822,0,0,0,2.821-2.633q1.774-27.793,28.472-46.09,6.356-4.632,13.259-8.992,25.521-16.164,25.975-33.785,0-9.264-3.27-13.8a24.417,24.417,0,0,0-7.538-6.9,21.822,21.822,0,0,0-10.807-2.361q-6.632,0-10.808,2.543-11.171,6.811-11.806,30.061H116.267q0-22.251,11.806-36.237t33.059-13.986q21.252,0,32.877,13.714Q203,232.673,203,247.931q0,20.071-18.255,35.51a149.638,149.638,0,0,1-18.073,13.351q-9.447,5.994-14.168,9.536-10.809,8.085-13.169,15.44h63.483v15.555a2.834,2.834,0,0,0,2.835,2.834h24.659a2.836,2.836,0,0,0,1.564-5.2q-1.359-.937-2.629-1.977a36.419,36.419,0,0,1-9.9-12.8,41.048,41.048,0,0,1-3.633-17.756,36.581,36.581,0,0,1,1.68-11.353,31.2,31.2,0,0,1,4.768-9.263,29.037,29.037,0,0,1,7.538-6.949,32.945,32.945,0,0,1,9.9-4.222v-.364a26.969,26.969,0,0,1-18.437-26.792,38.853,38.853,0,0,1,2.725-15.122,29.331,29.331,0,0,1,7.674-10.852,34.834,34.834,0,0,1,11.761-6.721,52.719,52.719,0,0,1,14.986-2.724v16.8q-7.9,1.274-12.488,6.313t-4.587,13.3q0,8.175,4.5,13.124t12.579,5.949v16.166a26.873,26.873,0,0,0-8.765,2.27,21.308,21.308,0,0,0-6.72,4.769,21.074,21.074,0,0,0-4.314,6.992,27.36,27.36,0,0,0,.318,18.982,21.842,21.842,0,0,0,5.131,7.493,22.142,22.142,0,0,0,7.81,4.722,30.787,30.787,0,0,0,19.8,0,22.631,22.631,0,0,0,7.856-4.722,21.486,21.486,0,0,0,5.177-7.538,27.853,27.853,0,0,0,.363-19.027,19.7,19.7,0,0,0-4.314-6.948,22.431,22.431,0,0,0-6.72-4.723,26.555,26.555,0,0,0-8.81-2.27V263.552q8.082-1,12.533-5.858t4.45-13.033q0-8.264-4.5-13.441t-12.488-6.358v-16.8a51.22,51.22,0,0,1,15.848,2.952,33.379,33.379,0,0,1,11.671,7.129,29.782,29.782,0,0,1,7.174,10.9,39.892,39.892,0,0,1,2.453,14.44,28.813,28.813,0,0,1-4.678,16.484,27.452,27.452,0,0,1-13.759,10.308v.364a33.213,33.213,0,0,1,9.763,4.177,30.114,30.114,0,0,1,12.4,15.622,31.525,31.525,0,0,1,1.726,10.535,45.262,45.262,0,0,1-3.451,18.255,37.03,37.03,0,0,1-12.716,15.785,2.83,2.83,0,0,0,1.625,5.147h44.149a2.834,2.834,0,0,0,2.834-2.834V2.834A2.834,2.834,0,0,0,337.323,0Z"/>
      </g>
    </g>
</svg>
