<svg xmlns="http://www.w3.org/2000/svg" width="120mm" height="120mm" viewBox="0 0 340.157 340.157">
  <g id="Zimmernummer">
      <g id="Z-03-112-E">
        <path fill="#A09f9d" stroke="none" d="M337.323,0H2.834A2.834,2.834,0,0,0,0,2.834V337.323a2.834,2.834,0,0,0,2.834,2.834H70.987a2.834,2.834,0,0,0,2.834-2.834V248.555H41.853V231.844q22.886,0,33.149-11.534a20.3,20.3,0,0,0,4.723-10.081H97.071V337.323a2.835,2.835,0,0,0,2.835,2.834H155.74a2.834,2.834,0,0,0,2.835-2.834V248.555H126.606V231.844q22.887,0,33.149-11.534a20.29,20.29,0,0,0,4.723-10.081h17.347V337.323a2.834,2.834,0,0,0,2.834,2.834h21.358a2.822,2.822,0,0,0,2.822-2.645q1.661-27.978,28.5-46.363,6.356-4.63,13.26-8.991,25.52-16.164,25.974-33.785,0-9.264-3.269-13.8a24.447,24.447,0,0,0-7.538-6.9,21.829,21.829,0,0,0-10.808-2.361q-6.63,0-10.807,2.543-11.172,6.811-11.807,30.061H211.087q0-22.251,11.807-36.237t33.058-13.986q21.252,0,32.877,13.713,8.991,10.99,8.991,26.247,0,20.073-18.254,35.511a149.57,149.57,0,0,1-18.074,13.351q-9.447,5.994-14.168,9.536-10.809,8.085-13.169,15.439h63.484v15.84a2.834,2.834,0,0,0,2.834,2.834h36.85a2.834,2.834,0,0,0,2.834-2.834V2.834A2.834,2.834,0,0,0,337.323,0Z"/>
      </g>
    </g>
</svg>
