<svg xmlns="http://www.w3.org/2000/svg" width="120mm" height="120mm" viewBox="0 0 340.158 340.157">
  <g id="Zimmernummer">
      <g id="Z-03-236-M">
        <path fill="#D4AF37" stroke="none" d="M337.323,0H2.835A2.835,2.835,0,0,0,0,2.835V337.323a2.834,2.834,0,0,0,2.834,2.834H21.315a2.822,2.822,0,0,0,2.822-2.645q1.662-27.975,28.494-46.36,6.357-4.632,13.26-8.991Q91.41,266,91.866,248.376q0-9.264-3.27-13.805a24.436,24.436,0,0,0-7.538-6.9,21.822,21.822,0,0,0-10.807-2.361q-6.632,0-10.808,2.543-11.17,6.811-11.807,30.061H26.384q0-22.251,11.807-36.237T71.25,207.688q21.252,0,32.877,13.714,8.991,10.991,8.991,26.247,0,20.073-18.255,35.511A149.744,149.744,0,0,1,76.79,296.511q-9.447,5.994-14.168,9.536-10.809,8.085-13.169,15.439h63.483v15.837a2.834,2.834,0,0,0,2.835,2.834h22.451a2.828,2.828,0,0,0,1.657-5.122q-9.139-6.627-13.658-18.725a57.891,57.891,0,0,1-3.178-18.619h21.252q-.273,11.9,5.9,19.8t17.71,7.9q11.532,0,18.709-6t7.175-17.255q0-13.623-10.808-18.891-7.629-3.723-23.25-3.27v-15.8q19.345.636,26.338-10.354,2.452-4.086,2.452-11.262a15.671,15.671,0,0,0-5.631-12.169,18.689,18.689,0,0,0-12.9-5.086q-17.711-.09-22.16,16.892a32.545,32.545,0,0,0-1.09,9.718H125.5q.726-18.981,12.17-31.606t30.969-12.624a47.993,47.993,0,0,1,28.7,8.992q12.441,9.081,12.442,25.793,0,21.342-18.437,27.881v.364a27.2,27.2,0,0,1,17.438,11.08,33.6,33.6,0,0,1,6.267,19.8q-.092,19.707-13.623,30.606-1.842,1.484-3.786,2.762a2.829,2.829,0,0,0,1.558,5.192h46.933a2.828,2.828,0,0,0,1.69-5.1q-1.184-.863-2.28-1.809a38.7,38.7,0,0,1-8.719-10.807,62.4,62.4,0,0,1-5.4-13.487,90.08,90.08,0,0,1-2.77-15.258q-.773-7.99-.772-15.984a144.406,144.406,0,0,1,.954-16.483,97.447,97.447,0,0,1,3.224-16.122,70.948,70.948,0,0,1,6.04-14.622,46.693,46.693,0,0,1,9.309-11.9,40.7,40.7,0,0,1,13.123-7.992A48.639,48.639,0,0,1,278,207.688a38.917,38.917,0,0,1,26.338,10.082,37.114,37.114,0,0,1,8.355,11.215,35.807,35.807,0,0,1,3.542,14.214H295.078a24.076,24.076,0,0,0-1.725-6.9,19.239,19.239,0,0,0-3.633-5.722,16.475,16.475,0,0,0-5.4-3.859,16.756,16.756,0,0,0-6.948-1.408q-16.8,0-22.977,15.893a76.706,76.706,0,0,0-4.269,16.847,129.849,129.849,0,0,0-1.271,18.119q0,6.63.59,12.941t1.589,12.125a56.031,56.031,0,0,0,2.543,9.309,27.263,27.263,0,0,0,4.314,7.721,19.041,19.041,0,0,0,6.63,5.221,21.651,21.651,0,0,0,9.491,1.908,22.693,22.693,0,0,0,10.444-2.271,21.689,21.689,0,0,0,7.357-5.994,25.107,25.107,0,0,0,4.314-8.673,37.19,37.19,0,0,0,1.407-10.218,35.5,35.5,0,0,0-1.453-10.217,24.826,24.826,0,0,0-4.359-8.492,20.988,20.988,0,0,0-7.266-5.766,24.8,24.8,0,0,0-20.434.135,21.742,21.742,0,0,0-7.992,7.175q-.273-4.086-.273-8.083,0-2.814.136-5.5t.318-5.4a29.09,29.09,0,0,1,9.945-5.4,43.471,43.471,0,0,1,29.153,1.634,37.2,37.2,0,0,1,12.67,9.264,41.024,41.024,0,0,1,7.947,13.759,50.994,50.994,0,0,1,2.77,16.983,50.2,50.2,0,0,1-3.134,18.027,41.833,41.833,0,0,1-8.809,14.168,38.142,38.142,0,0,1-5.181,4.523,2.83,2.83,0,0,0,1.678,5.112h34.077a2.835,2.835,0,0,0,2.835-2.834V2.835A2.835,2.835,0,0,0,337.323,0Z"/>
      </g>
    </g>
</svg>
