<svg xmlns="http://www.w3.org/2000/svg" width="120mm" height="120mm" viewBox="0 0 340.158 340.157">
  <g id="Zimmernummer">
      <g id="Z-03-058-M">
        <path fill="#D4AF37" stroke="none" d="M337.323,0H2.835A2.835,2.835,0,0,0,0,2.835V337.323a2.834,2.834,0,0,0,2.834,2.834h130.36a2.831,2.831,0,0,0,1.526-5.214q-1.683-1.105-3.244-2.365-12.717-10.263-13.441-29.426H139.2q.906,10.716,7.265,16.348t16.711,5.63q23.795,0,24.249-28.608,0-18.345-13.714-24.976a24.517,24.517,0,0,0-11.08-2.179q-16.62,0-20.979,11.9H120.4l13.986-71.294h67.3v18.982H150.185L143.464,262.1l.364.363q8.808-9.9,25.611-9.9a39.521,39.521,0,0,1,15.712,3.269q14.985,6.45,20.707,22.978a50.891,50.891,0,0,1,2.724,16.529q0,18.711-10.535,31.969a42.816,42.816,0,0,1-8,7.754,2.837,2.837,0,0,0,1.73,5.093h44.2a2.829,2.829,0,0,0,1.561-5.192,40.045,40.045,0,0,1-3.444-2.524,36.411,36.411,0,0,1-9.9-12.8,41.059,41.059,0,0,1-3.633-17.756,36.575,36.575,0,0,1,1.68-11.352,31.215,31.215,0,0,1,4.768-9.264,29.034,29.034,0,0,1,7.538-6.948,32.952,32.952,0,0,1,9.9-4.223v-.363a26.972,26.972,0,0,1-18.436-26.792,38.849,38.849,0,0,1,2.725-15.122,29.354,29.354,0,0,1,7.674-10.853,34.832,34.832,0,0,1,11.761-6.72,52.684,52.684,0,0,1,14.985-2.725v16.8a20.711,20.711,0,0,0-12.487,6.312q-4.587,5.04-4.587,13.305,0,8.173,4.5,13.123t12.578,5.949v16.166a26.894,26.894,0,0,0-8.763,2.271,21.314,21.314,0,0,0-6.721,4.768,21.068,21.068,0,0,0-4.314,6.993,27.36,27.36,0,0,0,.318,18.982,21.837,21.837,0,0,0,5.131,7.492,22.129,22.129,0,0,0,7.81,4.723,30.787,30.787,0,0,0,19.8,0,22.614,22.614,0,0,0,7.857-4.723,21.479,21.479,0,0,0,5.176-7.538,27.858,27.858,0,0,0,.364-19.026,19.707,19.707,0,0,0-4.315-6.949,22.446,22.446,0,0,0-6.72-4.722,26.58,26.58,0,0,0-8.81-2.271V263.009q8.084-1,12.533-5.857t4.45-13.033q0-8.263-4.5-13.442t-12.488-6.357v-16.8a51.25,51.25,0,0,1,15.849,2.952A33.413,33.413,0,0,1,297.5,217.6a29.778,29.778,0,0,1,7.174,10.9,39.888,39.888,0,0,1,2.452,14.44,28.816,28.816,0,0,1-4.676,16.483,27.456,27.456,0,0,1-13.76,10.309v.363a33.205,33.205,0,0,1,9.764,4.178,30.109,30.109,0,0,1,12.4,15.621,31.529,31.529,0,0,1,1.726,10.535,45.255,45.255,0,0,1-3.451,18.255A36.978,36.978,0,0,1,295.627,335a2.831,2.831,0,0,0,1.623,5.156h40.073a2.835,2.835,0,0,0,2.835-2.834V2.835A2.835,2.835,0,0,0,337.323,0Z"/>
      </g>
    </g>
</svg>
