<svg xmlns="http://www.w3.org/2000/svg" width="120mm" height="120mm" viewBox="0 0 340.158 340.157">
  <g id="Zimmernummer">
      <g id="Z-03-636-E">
        <path fill="#A09f9d" stroke="none" d="M337.323,0H2.835A2.835,2.835,0,0,0,0,2.835V337.323a2.834,2.834,0,0,0,2.834,2.834H39.991a2.834,2.834,0,0,0,1.6-5.167q-1.363-.972-2.615-2.052a38.691,38.691,0,0,1-8.718-10.807,62.4,62.4,0,0,1-5.4-13.488,90.08,90.08,0,0,1-2.769-15.258q-.774-7.989-.772-15.985a144.16,144.16,0,0,1,.954-16.482A97.21,97.21,0,0,1,25.493,244.8a70.954,70.954,0,0,1,6.039-14.623,46.7,46.7,0,0,1,9.309-11.9,40.736,40.736,0,0,1,13.123-7.992,48.679,48.679,0,0,1,17.484-2.906,38.928,38.928,0,0,1,26.338,10.08,37.143,37.143,0,0,1,8.356,11.217,35.818,35.818,0,0,1,3.541,14.213H88.522a24.092,24.092,0,0,0-1.726-6.9,19.19,19.19,0,0,0-3.633-5.72,16.467,16.467,0,0,0-5.4-3.86A16.752,16.752,0,0,0,70.812,225q-16.8,0-22.977,15.893a76.792,76.792,0,0,0-4.27,16.847,130.013,130.013,0,0,0-1.271,18.119q0,6.63.59,12.942t1.59,12.125a55.923,55.923,0,0,0,2.543,9.308,27.214,27.214,0,0,0,4.314,7.721,19.06,19.06,0,0,0,6.629,5.221,21.676,21.676,0,0,0,9.492,1.908A22.705,22.705,0,0,0,77.9,322.811a21.666,21.666,0,0,0,7.357-6,25.058,25.058,0,0,0,4.312-8.671,37.127,37.127,0,0,0,1.409-10.219,35.5,35.5,0,0,0-1.453-10.217,24.82,24.82,0,0,0-4.36-8.492,20.975,20.975,0,0,0-7.265-5.766,22.862,22.862,0,0,0-10.172-2.135,22.65,22.65,0,0,0-10.262,2.27,21.744,21.744,0,0,0-7.992,7.176q-.273-4.088-.274-8.084,0-2.812.137-5.494t.318-5.405a29.136,29.136,0,0,1,9.944-5.4,40.208,40.208,0,0,1,12.217-1.772,40.472,40.472,0,0,1,16.937,3.407,37.2,37.2,0,0,1,12.67,9.263,40.984,40.984,0,0,1,7.945,13.758,50.956,50.956,0,0,1,2.772,16.985A50.187,50.187,0,0,1,109,316.045a41.821,41.821,0,0,1-8.809,14.168,38.36,38.36,0,0,1-5.591,4.819,2.83,2.83,0,0,0,1.661,5.125h43.427a2.835,2.835,0,0,0,1.6-5.172Q131.9,328.331,127.3,316a57.909,57.909,0,0,1-3.178-18.619h21.252q-.273,11.9,5.9,19.8t17.711,7.9q11.532,0,18.709-5.994t7.174-17.256q0-13.623-10.807-18.891-7.629-3.723-23.25-3.269v-15.8q19.345.636,26.338-10.353,2.453-4.088,2.451-11.262a15.67,15.67,0,0,0-5.63-12.17,18.688,18.688,0,0,0-12.9-5.086q-17.709-.09-22.16,16.893a32.6,32.6,0,0,0-1.09,9.716H126.575q.728-18.981,12.17-31.6t30.971-12.623a47.991,47.991,0,0,1,28.7,8.99q12.443,9.083,12.441,25.793,0,21.344-18.435,27.883v.363a27.2,27.2,0,0,1,17.437,11.08,33.6,33.6,0,0,1,6.266,19.8Q216.032,321,202.5,331.893a48.64,48.64,0,0,1-4.237,3.05,2.844,2.844,0,0,0,1.578,5.214H246.7a2.837,2.837,0,0,0,1.594-5.177q-1.349-.959-2.6-2.042a38.677,38.677,0,0,1-8.719-10.807,62.452,62.452,0,0,1-5.405-13.488,90.08,90.08,0,0,1-2.769-15.258q-.774-7.989-.772-15.985a144.16,144.16,0,0,1,.954-16.482A97.312,97.312,0,0,1,232.2,244.8a70.954,70.954,0,0,1,6.039-14.623,46.7,46.7,0,0,1,9.309-11.9,40.736,40.736,0,0,1,13.123-7.992,48.679,48.679,0,0,1,17.484-2.906,38.928,38.928,0,0,1,26.338,10.08,37.143,37.143,0,0,1,8.356,11.217,35.818,35.818,0,0,1,3.541,14.213H295.229a24.092,24.092,0,0,0-1.726-6.9,19.19,19.19,0,0,0-3.633-5.72,16.467,16.467,0,0,0-5.4-3.86A16.748,16.748,0,0,0,277.519,225q-16.8,0-22.977,15.893a76.792,76.792,0,0,0-4.27,16.847A130.013,130.013,0,0,0,249,275.857q0,6.63.59,12.942t1.59,12.125a55.923,55.923,0,0,0,2.543,9.308,27.214,27.214,0,0,0,4.314,7.721,19.06,19.06,0,0,0,6.629,5.221,21.676,21.676,0,0,0,9.492,1.908,22.705,22.705,0,0,0,10.444-2.271,21.657,21.657,0,0,0,7.357-6,25.058,25.058,0,0,0,4.312-8.671,37.127,37.127,0,0,0,1.409-10.219,35.5,35.5,0,0,0-1.453-10.217,24.82,24.82,0,0,0-4.36-8.492,20.975,20.975,0,0,0-7.265-5.766,24.8,24.8,0,0,0-20.434.135,21.744,21.744,0,0,0-7.992,7.176q-.273-4.088-.274-8.084,0-2.812.137-5.494t.318-5.405a29.136,29.136,0,0,1,9.944-5.4,43.467,43.467,0,0,1,29.154,1.635,37.2,37.2,0,0,1,12.67,9.263,40.984,40.984,0,0,1,7.945,13.758,50.956,50.956,0,0,1,2.772,16.985,50.187,50.187,0,0,1-3.135,18.027,41.821,41.821,0,0,1-8.809,14.168,38.36,38.36,0,0,1-5.591,4.819,2.83,2.83,0,0,0,1.661,5.125h34.354a2.834,2.834,0,0,0,2.835-2.834V2.834A2.834,2.834,0,0,0,337.323,0Z"/>
      </g>
    </g>
</svg>
