<svg xmlns="http://www.w3.org/2000/svg" width="120mm" height="120mm" viewBox="0 0 340.158 340.157">
  <g id="Zimmernummer">
      <g id="Z-03-418-R">
        <path fill="#A0552B" stroke="none" d="M337.323,0H2.835A2.835,2.835,0,0,0,0,2.835V337.323a2.834,2.834,0,0,0,2.834,2.834H87.989a2.834,2.834,0,0,0,2.834-2.834V235.26h-.454L51.317,292.569h32.7V309.28H34.969V288.3l55.854-78.377H110.9v82.647h16.711V309.28H110.9v28.043a2.834,2.834,0,0,0,2.834,2.834h48.017a2.834,2.834,0,0,0,2.834-2.834V248.249H132.612V231.538q22.886,0,33.149-11.536a20.291,20.291,0,0,0,4.723-10.08H187.83v127.4a2.834,2.834,0,0,0,2.835,2.834h38.02a2.829,2.829,0,0,0,1.55-5.2,39.475,39.475,0,0,1-3.515-2.566,36.411,36.411,0,0,1-9.9-12.8,41.061,41.061,0,0,1-3.633-17.755,36.583,36.583,0,0,1,1.68-11.354,31.215,31.215,0,0,1,4.768-9.264,29.03,29.03,0,0,1,7.538-6.947,32.977,32.977,0,0,1,9.9-4.223v-.363a26.97,26.97,0,0,1-18.436-26.793,38.844,38.844,0,0,1,2.725-15.121,29.346,29.346,0,0,1,7.674-10.853,34.834,34.834,0,0,1,11.761-6.721,52.719,52.719,0,0,1,14.985-2.725v16.8a20.717,20.717,0,0,0-12.488,6.312q-4.586,5.04-4.586,13.305,0,8.173,4.5,13.123t12.578,5.949v16.166a26.861,26.861,0,0,0-8.763,2.27,21.292,21.292,0,0,0-6.721,4.77,21.043,21.043,0,0,0-4.314,6.992,27.36,27.36,0,0,0,.318,18.982,21.847,21.847,0,0,0,5.131,7.492,22.129,22.129,0,0,0,7.81,4.723,30.787,30.787,0,0,0,19.8,0,22.6,22.6,0,0,0,7.856-4.723,21.481,21.481,0,0,0,5.177-7.539,27.855,27.855,0,0,0,.364-19.025,19.721,19.721,0,0,0-4.315-6.949,22.449,22.449,0,0,0-6.72-4.723,26.555,26.555,0,0,0-8.81-2.27V262.961q8.084-1,12.533-5.857t4.45-13.033q0-8.265-4.5-13.442t-12.487-6.357v-16.8a51.255,51.255,0,0,1,15.849,2.953,33.422,33.422,0,0,1,11.67,7.129,29.77,29.77,0,0,1,7.174,10.9,39.882,39.882,0,0,1,2.453,14.439,28.816,28.816,0,0,1-4.678,16.485A27.459,27.459,0,0,1,281.3,269.682v.363a33.188,33.188,0,0,1,9.763,4.178,30.1,30.1,0,0,1,12.4,15.621,31.529,31.529,0,0,1,1.726,10.535,45.25,45.25,0,0,1-3.451,18.254,37.471,37.471,0,0,1-9.582,13.307,37.988,37.988,0,0,1-3.942,3.034,2.83,2.83,0,0,0,1.575,5.183h47.534a2.834,2.834,0,0,0,2.835-2.834V2.834A2.834,2.834,0,0,0,337.323,0Z"/>
      </g>
    </g>
</svg>
