<svg xmlns="http://www.w3.org/2000/svg" width="120mm" height="120mm" viewBox="0 0 340.158 340.157">
  <g id="Zimmernummer">
      <g id="Z-03-224">
        <path fill="#000000" stroke="none" d="M337.323,0H2.835A2.835,2.835,0,0,0,0,2.835V337.323a2.834,2.834,0,0,0,2.834,2.834H25.008a2.821,2.821,0,0,0,2.821-2.645q1.662-27.977,28.495-46.361,6.357-4.632,13.26-8.991Q95.1,266,95.559,248.375q0-9.264-3.27-13.805a24.447,24.447,0,0,0-7.538-6.9,21.829,21.829,0,0,0-10.808-2.361q-6.631,0-10.807,2.543-11.172,6.811-11.807,30.061H30.077q0-22.251,11.807-36.237t33.058-13.986q21.252,0,32.877,13.713,8.991,10.99,8.992,26.247,0,20.073-18.255,35.511A149.755,149.755,0,0,1,80.482,296.51q-9.445,5.994-14.168,9.536-10.809,8.085-13.169,15.439h63.484v15.838a2.834,2.834,0,0,0,2.835,2.834h6.107a2.822,2.822,0,0,0,2.822-2.645q1.66-27.977,28.5-46.361,6.355-4.632,13.259-8.991Q195.666,266,196.122,248.375q0-9.264-3.269-13.805a24.45,24.45,0,0,0-7.539-6.9,21.825,21.825,0,0,0-10.807-2.361q-6.631,0-10.808,2.543-11.171,6.811-11.806,30.061H130.641q0-22.251,11.806-36.237t33.059-13.986q21.252,0,32.877,13.713,8.991,10.99,8.991,26.247,0,20.073-18.255,35.511a149.744,149.744,0,0,1-18.073,13.351q-9.447,5.994-14.168,9.536-10.809,8.085-13.169,15.439h63.483v15.838a2.834,2.834,0,0,0,2.835,2.834h59.02a2.834,2.834,0,0,0,2.835-2.834V235.569h-.454l-39.053,57.308H275.07v16.711H226.027v-20.98l55.855-78.378h20.071v82.647h16.711v16.711H301.953v27.735a2.834,2.834,0,0,0,2.835,2.834h32.535a2.835,2.835,0,0,0,2.835-2.835V2.834A2.834,2.834,0,0,0,337.323,0Z"/>
      </g>
    </g>
</svg>
