<svg xmlns="http://www.w3.org/2000/svg" width="120mm" height="120mm" viewBox="0 0 340.158 340.157">
  <g id="Zimmernummer">
      <g id="Z-03-129">
        <path fill="#000000" stroke="none" d="M337.323,0H2.835A2.835,2.835,0,0,0,0,2.835V337.323a2.834,2.834,0,0,0,2.834,2.834H61.241a2.834,2.834,0,0,0,2.835-2.834V248.839H32.107V232.128q22.887,0,33.15-11.534a20.289,20.289,0,0,0,4.722-10.081H87.326v126.81a2.834,2.834,0,0,0,2.835,2.834h21.381a2.821,2.821,0,0,0,2.821-2.633q1.776-27.793,28.472-46.09,6.357-4.632,13.26-8.992,25.52-16.164,25.975-33.785,0-9.264-3.27-13.8a24.439,24.439,0,0,0-7.538-6.9,21.829,21.829,0,0,0-10.808-2.361q-6.63,0-10.807,2.543-11.171,6.811-11.807,30.061H116.588q0-22.251,11.807-36.237t33.058-13.986q21.252,0,32.877,13.714,8.992,10.989,8.992,26.247,0,20.071-18.255,35.51a149.57,149.57,0,0,1-18.074,13.351q-9.445,5.994-14.168,9.536-10.809,8.085-13.168,15.44H203.14v15.555a2.834,2.834,0,0,0,2.835,2.834h29.05a2.829,2.829,0,0,0,1.771-5.04q-1.1-.867-2.145-1.815a37.066,37.066,0,0,1-8.355-11.217,35.751,35.751,0,0,1-3.542-14.213h21.161a24.027,24.027,0,0,0,1.725,6.9,19.219,19.219,0,0,0,3.633,5.722,16.467,16.467,0,0,0,5.4,3.86,16.756,16.756,0,0,0,6.948,1.408q16.8,0,22.977-15.894a76.784,76.784,0,0,0,4.269-16.848,129.956,129.956,0,0,0,1.271-18.118q0-6.628-.59-12.942t-1.589-12.124a56.1,56.1,0,0,0-2.543-9.31,27.3,27.3,0,0,0-4.314-7.718,19.055,19.055,0,0,0-6.63-5.223,21.655,21.655,0,0,0-9.491-1.907,22.715,22.715,0,0,0-10.444,2.27,21.683,21.683,0,0,0-7.357,5.994,25.128,25.128,0,0,0-4.314,8.628,37,37,0,0,0-1.407,10.263,35.456,35.456,0,0,0,1.453,10.217,24.773,24.773,0,0,0,4.359,8.492,20.972,20.972,0,0,0,7.266,5.768,22.883,22.883,0,0,0,10.172,2.133,22.643,22.643,0,0,0,10.262-2.27A21.758,21.758,0,0,0,282.968,270q.272,4.088.272,8.083,0,2.815-.136,5.494t-.318,5.4a29.129,29.129,0,0,1-9.945,5.405,43.5,43.5,0,0,1-29.153-1.635,37.253,37.253,0,0,1-12.67-9.264,41.018,41.018,0,0,1-7.946-13.759,50.949,50.949,0,0,1-2.77-16.984,50.218,50.218,0,0,1,3.133-18.028,41.866,41.866,0,0,1,8.809-14.168,39.625,39.625,0,0,1,13.669-9.264,45.807,45.807,0,0,1,17.71-3.314,50.789,50.789,0,0,1,17.21,2.634,39.707,39.707,0,0,1,12.624,7.219,38.721,38.721,0,0,1,8.719,10.809,62.464,62.464,0,0,1,5.4,13.486,90.315,90.315,0,0,1,2.77,15.258q.771,7.992.772,15.984a144.832,144.832,0,0,1-.954,16.439,97.33,97.33,0,0,1-3.224,16.166,71.144,71.144,0,0,1-6.039,14.622,46.75,46.75,0,0,1-9.31,11.9,37.543,37.543,0,0,1-3.115,2.567,2.829,2.829,0,0,0,1.682,5.106h47.161a2.834,2.834,0,0,0,2.835-2.834V2.834A2.834,2.834,0,0,0,337.323,0Z"/>
      </g>
    </g>
</svg>
