<svg xmlns="http://www.w3.org/2000/svg" width="120mm" height="120mm" viewBox="0 0 340.157 340.157">
  <g id="Zimmernummer">
      <g id="Z-03-130-M">
        <path fill="#D4AF37" stroke="none" d="M337.323,0H2.835A2.835,2.835,0,0,0,0,2.835V337.323a2.834,2.834,0,0,0,2.834,2.834H61.009a2.834,2.834,0,0,0,2.834-2.834V248.839H31.875V232.128q22.887,0,33.149-11.534a20.3,20.3,0,0,0,4.723-10.081H87.093v126.81a2.835,2.835,0,0,0,2.835,2.834h37.327a2.828,2.828,0,0,0,1.69-5.1q-8.881-6.6-13.315-18.467a57.885,57.885,0,0,1-3.179-18.618H133.7q-.273,11.9,5.9,19.8t17.71,7.9q11.533,0,18.709-5.994t7.175-17.256q0-13.623-10.808-18.891-7.629-3.723-23.25-3.269v-15.8q19.345.636,26.338-10.354,2.453-4.086,2.452-11.261a15.674,15.674,0,0,0-5.631-12.17,18.688,18.688,0,0,0-12.9-5.086q-17.71-.09-22.16,16.892a32.545,32.545,0,0,0-1.09,9.718H114.9q.724-18.981,12.17-31.605t30.97-12.624a47.992,47.992,0,0,1,28.7,8.991q12.441,9.082,12.442,25.793,0,21.342-18.436,27.882V271a27.2,27.2,0,0,1,17.437,11.08,33.607,33.607,0,0,1,6.267,19.8q-.093,19.709-13.623,30.606-1.646,1.326-3.373,2.487a2.83,2.83,0,0,0,1.57,5.186h49.507a2.828,2.828,0,0,0,1.782-5.029,34.989,34.989,0,0,1-2.99-2.69,42.894,42.894,0,0,1-8.219-11.76,75.607,75.607,0,0,1-5.132-14.3,105.178,105.178,0,0,1-2.678-15.531q-.774-7.946-.773-15.485,0-6.993.682-14.531a106.214,106.214,0,0,1,2.406-14.849,78.358,78.358,0,0,1,4.678-13.941,44.288,44.288,0,0,1,7.583-11.761,37.762,37.762,0,0,1,11.08-8.4,38.561,38.561,0,0,1,15.167-3.814v17.8q-20.435,3.362-20.435,49.77,0,3.9.182,9.173a103.964,103.964,0,0,0,.954,10.807,79.763,79.763,0,0,0,2.315,10.945,37.631,37.631,0,0,0,4.178,9.627,22.089,22.089,0,0,0,6.63,6.856,17.089,17.089,0,0,0,9.627,2.634q23.7,0,23.7-50.042,0-46.228-20.344-49.77v-17.8a38.561,38.561,0,0,1,15.167,3.814,36.842,36.842,0,0,1,11.036,8.446,46.726,46.726,0,0,1,7.583,11.807,76.284,76.284,0,0,1,4.722,13.941,106.192,106.192,0,0,1,2.407,14.849q.683,7.539.681,14.531,0,7.629-.771,15.667a100.474,100.474,0,0,1-2.725,15.575,74.986,74.986,0,0,1-5.223,14.214,42.743,42.743,0,0,1-8.309,11.67,35.38,35.38,0,0,1-2.829,2.519,2.832,2.832,0,0,0,1.74,5.063h44.914a2.834,2.834,0,0,0,2.834-2.834V2.834A2.834,2.834,0,0,0,337.323,0Z"/>
      </g>
    </g>
</svg>
