<svg xmlns="http://www.w3.org/2000/svg" width="120mm" height="120mm" viewBox="0 0 340.158 340.157">
  <g id="Zimmernummer">
      <g id="Z-03-059-M">
        <path fill="#D4AF37" stroke="none" d="M337.332,0H2.826A2.827,2.827,0,0,0,0,2.835V337.323a2.834,2.834,0,0,0,2.835,2.834H132.461a2.831,2.831,0,0,0,1.527-5.214q-1.683-1.105-3.244-2.365-12.717-10.263-13.441-29.426h21.161q.906,10.716,7.265,16.348t16.711,5.63q23.795,0,24.249-28.608,0-18.345-13.714-24.976a24.52,24.52,0,0,0-11.08-2.179q-16.62,0-20.979,11.9H119.664L133.65,209.97h67.3v18.982H149.453L142.732,262.1l.364.363q8.808-9.9,25.611-9.9a39.525,39.525,0,0,1,15.712,3.269q14.985,6.45,20.707,22.978a50.891,50.891,0,0,1,2.724,16.529q0,18.711-10.535,31.969a42.816,42.816,0,0,1-8,7.754,2.837,2.837,0,0,0,1.73,5.093h44.765a2.831,2.831,0,0,0,1.681-5.108q-1.433-1.077-2.762-2.29a37.041,37.041,0,0,1-8.355-11.217,35.751,35.751,0,0,1-3.542-14.212H244a24.012,24.012,0,0,0,1.726,6.9,19.2,19.2,0,0,0,3.632,5.722,16.5,16.5,0,0,0,5.4,3.86,16.772,16.772,0,0,0,6.948,1.407q16.8,0,22.977-15.893a76.8,76.8,0,0,0,4.269-16.848,129.956,129.956,0,0,0,1.271-18.118q0-6.629-.59-12.943T288.045,249.3a56.182,56.182,0,0,0-2.543-9.309,27.267,27.267,0,0,0-4.315-7.719,19.057,19.057,0,0,0-6.63-5.223,21.661,21.661,0,0,0-9.49-1.907,22.7,22.7,0,0,0-10.444,2.271,21.651,21.651,0,0,0-7.357,5.994,25.128,25.128,0,0,0-4.314,8.628,36.99,36.99,0,0,0-1.407,10.262A35.412,35.412,0,0,0,243,262.509,24.755,24.755,0,0,0,247.357,271a20.972,20.972,0,0,0,7.266,5.768A22.869,22.869,0,0,0,264.8,278.9a22.63,22.63,0,0,0,10.262-2.271,21.754,21.754,0,0,0,7.993-7.174q.272,4.086.272,8.083,0,2.814-.137,5.494t-.317,5.4a29.119,29.119,0,0,1-9.945,5.4,43.483,43.483,0,0,1-29.154-1.635,37.246,37.246,0,0,1-12.669-9.263,41.031,41.031,0,0,1-7.947-13.76,50.973,50.973,0,0,1-2.769-16.983,50.249,50.249,0,0,1,3.132-18.029,41.878,41.878,0,0,1,8.81-14.168A39.627,39.627,0,0,1,246,210.742a45.808,45.808,0,0,1,17.71-3.315,50.785,50.785,0,0,1,17.21,2.634,39.709,39.709,0,0,1,12.624,7.22,38.734,38.734,0,0,1,8.719,10.808,62.544,62.544,0,0,1,5.4,13.487,90.285,90.285,0,0,1,2.77,15.257q.769,7.993.772,15.985a144.814,144.814,0,0,1-.954,16.438,97.412,97.412,0,0,1-3.224,16.166,71.091,71.091,0,0,1-6.04,14.622,46.743,46.743,0,0,1-9.308,11.9,38.008,38.008,0,0,1-3.768,3.035,2.836,2.836,0,0,0,1.588,5.18h47.825a2.827,2.827,0,0,0,2.834-2.826c0-30.806,0-303.7,0-334.5A2.82,2.82,0,0,0,337.332,0Z"/>
      </g>
    </g>
</svg>
