<svg xmlns="http://www.w3.org/2000/svg" width="120mm" height="120mm" viewBox="0 0 340.157 340.158">
  <g id="Zimmernummer">
      <g id="Z-03-344-E">
        <path fill="#A09f9d" stroke="none" d="M337.323,0H2.835A2.835,2.835,0,0,0,0,2.835V337.323a2.834,2.834,0,0,0,2.834,2.835H36.608a2.836,2.836,0,0,0,1.6-5.172Q28.82,328.331,24.221,316a57.907,57.907,0,0,1-3.178-18.618H42.3q-.273,11.9,5.9,19.8t17.71,7.9q11.532,0,18.709-5.994t7.175-17.256q0-13.623-10.808-18.891-7.629-3.723-23.25-3.269v-15.8q19.344.636,26.338-10.353,2.452-4.087,2.452-11.262a15.673,15.673,0,0,0-5.631-12.17A18.689,18.689,0,0,0,68,225q-17.711-.09-22.16,16.893a32.534,32.534,0,0,0-1.09,9.717H23.5q.726-18.981,12.17-31.605T66.634,207.38a47.993,47.993,0,0,1,28.7,8.991q12.442,9.082,12.442,25.793,0,21.343-18.437,27.882v.363a27.206,27.206,0,0,1,17.438,11.08,33.607,33.607,0,0,1,6.267,19.8Q112.953,321,99.421,331.9a48.952,48.952,0,0,1-4.247,3.062,2.829,2.829,0,0,0,1.546,5.2h79.424a2.835,2.835,0,0,0,2.835-2.835V235.262h-.454l-39.053,57.307h32.7V309.28H123.125V288.3l55.854-78.378H199.05v82.646h16.711V309.28H199.05v28.043a2.835,2.835,0,0,0,2.835,2.835H279.5a2.835,2.835,0,0,0,2.835-2.835V235.262h-.454l-39.053,57.307h32.7V309.28H226.478V288.3l55.855-78.378H302.4v82.646h16.711V309.28H302.4v28.043a2.835,2.835,0,0,0,2.835,2.835h32.084a2.834,2.834,0,0,0,2.834-2.835V2.835A2.834,2.834,0,0,0,337.323,0Z"/>
      </g>
    </g>
</svg>
