<svg xmlns="http://www.w3.org/2000/svg" width="120mm" height="120mm" viewBox="0 0 340.157 340.158">
  <g id="Zimmernummer">
      <g id="Z-03-517-R">
        <path fill="#A0552B" stroke="none" d="M337.323,0H2.834A2.834,2.834,0,0,0,0,2.834V337.323a2.835,2.835,0,0,0,2.835,2.835h47.6a2.831,2.831,0,0,0,1.524-5.215q-1.721-1.126-3.317-2.414Q35.924,322.266,35.2,303.1H56.359q.906,10.717,7.266,16.348t16.71,5.631q23.795,0,24.249-28.608,0-18.345-13.713-24.976a24.536,24.536,0,0,0-11.08-2.18q-16.622,0-20.98,11.9H37.559l13.986-71.3h67.3V228.9H67.348l-6.721,33.148.364.364q8.808-9.9,25.611-9.9a39.505,39.505,0,0,1,15.712,3.27q14.985,6.447,20.707,22.976a50.9,50.9,0,0,1,2.725,16.529q0,18.713-10.536,31.969a42.759,42.759,0,0,1-8.054,7.8,2.841,2.841,0,0,0,1.728,5.1H163.6a2.835,2.835,0,0,0,2.835-2.835V248.248H134.471V231.537q22.887,0,33.15-11.534a20.288,20.288,0,0,0,4.722-10.082H189.69v127.4a2.835,2.835,0,0,0,2.835,2.835h37.982a2.837,2.837,0,0,0,2.82-2.606q3.8-43.308,31.217-84.219a235.5,235.5,0,0,1,18.8-24.429H215.865V209.921h89.094v17.711q-32.512,36.51-43.412,79.377a188.093,188.093,0,0,0-4.935,30.086,2.834,2.834,0,0,0,2.828,3.063h77.883a2.834,2.834,0,0,0,2.834-2.835V2.835A2.834,2.834,0,0,0,337.323,0Z"/>
      </g>
    </g>
</svg>
