<svg xmlns="http://www.w3.org/2000/svg" width="120.001mm" height="120.001mm" viewBox="0 0 340.16 340.16">
  <g id="Zimmernummer">
      <g id="Z-03-102-R">
        <path fill="#A0552B" stroke="none" d="M337.325,0H2.834A2.834,2.834,0,0,0,0,2.834V337.325a2.835,2.835,0,0,0,2.835,2.835H67.8a2.834,2.834,0,0,0,2.834-2.834v-88.9H38.6V231.67a74.307,74.307,0,0,0,13.03-1.12,40.581,40.581,0,0,0,11.46-3.72,29.29,29.29,0,0,0,8.75-6.71,20.519,20.519,0,0,0,4.75-10.05H93.9V337.325a2.835,2.835,0,0,0,2.835,2.835h37.685a1.286,1.286,0,0,0,.682-2.378c-.61-.371-1.2-.761-1.772-1.182a44.122,44.122,0,0,1-13.78-16.39,72.826,72.826,0,0,1-6.7-21.88,151.492,151.492,0,0,1,0-46.18,72.987,72.987,0,0,1,6.7-21.879,44.086,44.086,0,0,1,13.78-16.381q7.56-5.49,18.86-6.27a1.282,1.282,0,0,1,1.37,1.29v15.27a1.281,1.281,0,0,1-1.05,1.28,15.8,15.8,0,0,0-8.01,3.7,27.554,27.554,0,0,0-7.26,10.89,66.028,66.028,0,0,0-3.82,15.92,158.188,158.188,0,0,0-1.12,19.27,160.48,160.48,0,0,0,1.12,19.37,64.663,64.663,0,0,0,3.82,15.92,27.636,27.636,0,0,0,7.26,10.8,18.791,18.791,0,0,0,23.18,0,27.076,27.076,0,0,0,7.36-10.8,64.663,64.663,0,0,0,3.82-15.92,160.545,160.545,0,0,0,1.11-19.37,158.257,158.257,0,0,0-1.11-19.27,66.028,66.028,0,0,0-3.82-15.92,27,27,0,0,0-7.36-10.89,16.149,16.149,0,0,0-7.874-3.68,1.346,1.346,0,0,1-1.1-1.27v-15.3a1.287,1.287,0,0,1,1.37-1.29q11.3.8,18.87,6.27a44.179,44.179,0,0,1,13.78,16.381,73.275,73.275,0,0,1,6.7,21.879,151.492,151.492,0,0,1,0,46.18,73.112,73.112,0,0,1-6.7,21.88,44.216,44.216,0,0,1-13.78,16.39c-.569.42-1.167.808-1.765,1.178a1.286,1.286,0,0,0,.675,2.382h32.411a2.832,2.832,0,0,0,2.832-2.711c0-.055,0-.1.007-.14a51.986,51.986,0,0,1,7.72-25.319,71.522,71.522,0,0,1,20.86-21.05q6.33-4.65,13.22-9.03a104.45,104.45,0,0,0,12.66-9.4,50.207,50.207,0,0,0,9.5-10.89,25.936,25.936,0,0,0,3.91-13.5,36.955,36.955,0,0,0-.84-7.55,20.017,20.017,0,0,0-3.26-7.44,19.276,19.276,0,0,0-6.7-5.78q-4.29-2.325-11.18-2.32a20.133,20.133,0,0,0-10.52,2.51,18.854,18.854,0,0,0-6.7,6.89,34.094,34.094,0,0,0-3.72,10.33,74.142,74.142,0,0,0-1.4,12.85h-21.23a66.466,66.466,0,0,1,2.89-20.01,44.187,44.187,0,0,1,8.66-15.92,40.813,40.813,0,0,1,14.06-10.53,45.669,45.669,0,0,1,19.27-3.81q11.91,0,19.92,3.91a38.111,38.111,0,0,1,12.94,9.87,36.112,36.112,0,0,1,6.99,12.94,47.431,47.431,0,0,1,2.04,13.31,39.2,39.2,0,0,1-2.42,14.151,45.368,45.368,0,0,1-6.51,11.639,66.6,66.6,0,0,1-9.31,9.78q-5.22,4.47-10.8,8.38t-11.18,7.44q-5.58,3.54-10.33,7.08a60.319,60.319,0,0,0-8.29,7.36,20.8,20.8,0,0,0-4.84,8.1h63.5v16.026a2.834,2.834,0,0,0,2.835,2.834h32.466a2.843,2.843,0,0,0,2.835-2.834V2.834A2.843,2.843,0,0,0,337.325,0Z"/>
      </g>
    </g>
</svg>
