<svg xmlns="http://www.w3.org/2000/svg" width="120mm" height="120mm" viewBox="0 0 340.157 340.158">
  <g id="Zimmernummer">
      <g id="Z-03-614-M">
        <path fill="#D4AF37" stroke="none" d="M337.323,0H2.835A2.835,2.835,0,0,0,0,2.835V337.323a2.834,2.834,0,0,0,2.834,2.835H49.292a2.835,2.835,0,0,0,1.6-5.168q-1.364-.972-2.615-2.052a38.7,38.7,0,0,1-8.719-10.807,62.4,62.4,0,0,1-5.4-13.488,90.08,90.08,0,0,1-2.77-15.258q-.773-7.989-.772-15.985a144.16,144.16,0,0,1,.954-16.482A97.413,97.413,0,0,1,34.792,244.8a70.959,70.959,0,0,1,6.041-14.623,46.694,46.694,0,0,1,9.308-11.9,40.714,40.714,0,0,1,13.123-7.992,48.671,48.671,0,0,1,17.484-2.906,38.923,38.923,0,0,1,26.337,10.08,37.11,37.11,0,0,1,8.356,11.217,35.8,35.8,0,0,1,3.542,14.213H97.822a24.092,24.092,0,0,0-1.726-6.9,19.209,19.209,0,0,0-3.633-5.72,16.457,16.457,0,0,0-5.4-3.86A16.748,16.748,0,0,0,80.112,225q-16.8,0-22.978,15.893a76.734,76.734,0,0,0-4.268,16.847,129.709,129.709,0,0,0-1.272,18.119q0,6.63.59,12.942t1.59,12.125a55.826,55.826,0,0,0,2.543,9.308,27.239,27.239,0,0,0,4.314,7.721,19.069,19.069,0,0,0,6.629,5.221,21.672,21.672,0,0,0,9.491,1.908A22.707,22.707,0,0,0,87.2,322.811a21.643,21.643,0,0,0,7.356-6,25.079,25.079,0,0,0,4.314-8.671,37.2,37.2,0,0,0,1.408-10.219,35.5,35.5,0,0,0-1.453-10.217,24.82,24.82,0,0,0-4.36-8.492,20.984,20.984,0,0,0-7.265-5.766,22.862,22.862,0,0,0-10.172-2.135,22.657,22.657,0,0,0-10.263,2.27,21.752,21.752,0,0,0-7.992,7.176q-.273-4.088-.272-8.084,0-2.812.136-5.494t.318-5.405a29.127,29.127,0,0,1,9.944-5.4,40.206,40.206,0,0,1,12.216-1.772,40.473,40.473,0,0,1,16.938,3.407,37.194,37.194,0,0,1,12.669,9.263,41.022,41.022,0,0,1,7.947,13.758,51.006,51.006,0,0,1,2.77,16.985,50.187,50.187,0,0,1-3.134,18.027,41.834,41.834,0,0,1-8.808,14.168,38.306,38.306,0,0,1-5.593,4.819,2.83,2.83,0,0,0,1.661,5.126h61.174a2.835,2.835,0,0,0,2.835-2.835V248.248H137.6V231.537q22.887,0,33.149-11.535a20.287,20.287,0,0,0,4.723-10.08H192.82v127.4a2.834,2.834,0,0,0,2.834,2.835h74.272a2.834,2.834,0,0,0,2.834-2.835V235.26h-.454l-39.053,57.308h32.7v16.711H216.906V288.3l55.854-78.377h20.072v82.646h16.71v16.711h-16.71v28.044a2.834,2.834,0,0,0,2.834,2.835h41.657a2.834,2.834,0,0,0,2.834-2.835V2.834A2.834,2.834,0,0,0,337.323,0Z"/>
      </g>
    </g>
</svg>
