<svg xmlns="http://www.w3.org/2000/svg" width="120mm" height="120mm" viewBox="0 0 340.157 340.158">
  <g id="Zimmernummer">
      <g id="Z-03-427-E">
        <path fill="#A09f9d" stroke="none" d="M337.323,0H2.835A2.835,2.835,0,0,0,0,2.835V337.323a2.835,2.835,0,0,0,2.835,2.835H74.153a2.835,2.835,0,0,0,2.835-2.835V235.261h-.454L37.481,292.568h32.7v16.711H21.133V288.3l55.855-78.379H97.059v82.647H113.77v16.711H97.059v28.044a2.835,2.835,0,0,0,2.835,2.835h24.674a2.823,2.823,0,0,0,2.823-2.659q1.536-28.176,28.52-46.656,6.356-4.632,13.26-8.992,25.519-16.162,25.974-33.785,0-9.264-3.269-13.805a24.46,24.46,0,0,0-7.538-6.9A21.829,21.829,0,0,0,173.53,225q-6.63,0-10.808,2.543-11.171,6.811-11.806,30.062H129.664q0-22.251,11.806-36.238t33.059-13.987q21.252,0,32.877,13.715,8.991,10.989,8.991,26.246,0,20.075-18.255,35.512a149.579,149.579,0,0,1-18.073,13.35q-9.447,5.994-14.168,9.537-10.809,8.082-13.169,15.439h63.484v16.146a2.834,2.834,0,0,0,2.834,2.835h25.522a2.838,2.838,0,0,0,2.82-2.606q3.8-43.308,31.217-84.219a235.36,235.36,0,0,1,18.8-24.429h-67.48V209.921h89.1v17.711q-32.514,36.51-43.412,79.377a188.2,188.2,0,0,0-4.936,30.086,2.835,2.835,0,0,0,2.829,3.063h63.818a2.834,2.834,0,0,0,2.834-2.835V2.835A2.834,2.834,0,0,0,337.323,0Z"/>
      </g>
    </g>
</svg>
