<svg xmlns="http://www.w3.org/2000/svg" width="120mm" height="120mm" viewBox="0 0 340.157 340.157">
  <g id="Zimmernummer">
      <g id="Z-03-311-M">
        <path fill="#D4AF37" stroke="none" d="M337.323,0H2.834A2.834,2.834,0,0,0,0,2.834V337.323a2.834,2.834,0,0,0,2.834,2.834H61.676a2.828,2.828,0,0,0,1.672-5.111q-9.015-6.613-13.494-18.6a57.906,57.906,0,0,1-3.179-18.617H67.927q-.272,11.9,5.9,19.8t17.71,7.9q11.533,0,18.709-5.994t7.175-17.256q0-13.623-10.807-18.89-7.629-3.724-23.25-3.27v-15.8q19.344.636,26.337-10.353,2.453-4.088,2.453-11.262a15.677,15.677,0,0,0-5.631-12.17,18.7,18.7,0,0,0-12.9-5.086q-17.709-.087-22.16,16.893a32.576,32.576,0,0,0-1.09,9.719H49.127q.726-18.982,12.17-31.606t30.97-12.625a47.99,47.99,0,0,1,28.7,8.992q12.443,9.083,12.443,25.793,0,21.344-18.437,27.881v.364a27.209,27.209,0,0,1,17.438,11.08,33.612,33.612,0,0,1,6.266,19.8q-.091,19.709-13.623,30.608-1.746,1.406-3.586,2.629a2.829,2.829,0,0,0,1.564,5.189H179.62a2.834,2.834,0,0,0,2.835-2.834V248.692H150.486V231.981q22.887,0,33.15-11.533a20.288,20.288,0,0,0,4.722-10.082h17.347V337.323a2.834,2.834,0,0,0,2.835,2.834h52.114a2.834,2.834,0,0,0,2.835-2.834V248.692H231.52V231.981q22.887,0,33.149-11.533a20.3,20.3,0,0,0,4.723-10.082h17.347V337.323a2.834,2.834,0,0,0,2.834,2.834h47.75a2.834,2.834,0,0,0,2.834-2.834V2.834A2.834,2.834,0,0,0,337.323,0Z"/>
      </g>
    </g>
</svg>
