<svg xmlns="http://www.w3.org/2000/svg" width="120.001mm" height="120.001mm" viewBox="0 0 340.16 340.16">
  <g id="Zimmernummer">
      <g id="Z-03-103-R">
        <path fill="#A0552B" stroke="none" d="M337.325,0H2.835A2.835,2.835,0,0,0,0,2.835V337.326a2.834,2.834,0,0,0,2.835,2.834H67.516a2.834,2.834,0,0,0,2.835-2.834v-88.9H38.321V231.67a74.323,74.323,0,0,0,13.03-1.12,40.581,40.581,0,0,0,11.46-3.72,29.29,29.29,0,0,0,8.75-6.71,20.519,20.519,0,0,0,4.75-10.05H93.62V337.326a2.834,2.834,0,0,0,2.835,2.834h37.686a1.286,1.286,0,0,0,.682-2.378c-.611-.371-1.2-.761-1.772-1.182a44.122,44.122,0,0,1-13.78-16.39,72.8,72.8,0,0,1-6.7-21.88,151.492,151.492,0,0,1,0-46.18,72.959,72.959,0,0,1,6.7-21.879,44.086,44.086,0,0,1,13.78-16.381q7.56-5.49,18.859-6.27a1.283,1.283,0,0,1,1.371,1.29v15.27a1.281,1.281,0,0,1-1.05,1.28,15.8,15.8,0,0,0-8.01,3.7,27.554,27.554,0,0,0-7.26,10.89,65.981,65.981,0,0,0-3.82,15.92,158.188,158.188,0,0,0-1.12,19.27,160.48,160.48,0,0,0,1.12,19.37,64.618,64.618,0,0,0,3.82,15.92,27.636,27.636,0,0,0,7.26,10.8,18.791,18.791,0,0,0,23.18,0,27.076,27.076,0,0,0,7.36-10.8,64.665,64.665,0,0,0,3.819-15.92,160.334,160.334,0,0,0,1.111-19.37,158.049,158.049,0,0,0-1.111-19.27,66.029,66.029,0,0,0-3.819-15.92,27,27,0,0,0-7.36-10.89,16.158,16.158,0,0,0-7.874-3.68,1.346,1.346,0,0,1-1.1-1.27v-15.3a1.287,1.287,0,0,1,1.37-1.29q11.294.8,18.87,6.27a44.177,44.177,0,0,1,13.779,16.381,73.276,73.276,0,0,1,6.7,21.879,151.492,151.492,0,0,1,0,46.18,73.113,73.113,0,0,1-6.7,21.88,44.213,44.213,0,0,1-13.779,16.39c-.569.42-1.168.808-1.766,1.178a1.286,1.286,0,0,0,.675,2.382h57.488a1.194,1.194,0,0,0,.537-2.26l-.06-.03c-.28-.14-.57-.29-.849-.43a36.457,36.457,0,0,1-9.311-7.02,39.762,39.762,0,0,1-8.66-14.34,58.277,58.277,0,0,1-3.16-18.62h21.22q-.375,11.91,5.871,19.83t18.709,7.91q10.622,0,17.791-6.05,7.154-6.045,7.169-17.22,0-7.635-2.98-12.11a19.383,19.383,0,0,0-7.82-6.79,31.716,31.716,0,0,0-10.9-2.89,103.289,103.289,0,0,0-12.38-.369V263.94a48.9,48.9,0,0,0,10.43-.74,29.085,29.085,0,0,0,9.31-3.26,18.179,18.179,0,0,0,6.61-6.43,18.922,18.922,0,0,0,2.51-10.05q0-8.385-5.68-13.41t-14.62-5.029a19.209,19.209,0,0,0-16.47,8.29,26.994,26.994,0,0,0-4.01,8.569,32.256,32.256,0,0,0-1.12,9.77h-21.22a53.573,53.573,0,0,1,3.53-17.589A44.283,44.283,0,0,1,228.175,220a38.376,38.376,0,0,1,13.32-9.31,44.4,44.4,0,0,1,17.69-3.36,51.321,51.321,0,0,1,14.99,2.24,43.785,43.785,0,0,1,13.22,6.52,31.333,31.333,0,0,1,12.94,26.06,32.5,32.5,0,0,1-4.47,17.23q-4.47,7.35-13.97,10.71v.37a26.9,26.9,0,0,1,17.41,11.08q6.24,8.85,6.24,21.51a36.394,36.394,0,0,1-3.72,16.66,37.951,37.951,0,0,1-10.06,12.48,44.508,44.508,0,0,1-7.95,5.121c-.43.21-.86.419-1.29.619l-.06.03a1.162,1.162,0,0,0,.523,2.2h54.337a2.843,2.843,0,0,0,2.835-2.834V2.835A2.844,2.844,0,0,0,337.325,0Z"/>
      </g>
    </g>
</svg>
