<svg xmlns="http://www.w3.org/2000/svg" width="120mm" height="120mm" viewBox="0 0 340.157 340.157">
  <g id="Zimmernummer">
      <g id="Z-03-400-R">
        <path fill="#A0552B" stroke="none" d="M337.323,0H2.835A2.835,2.835,0,0,0,0,2.835V337.323a2.834,2.834,0,0,0,2.834,2.834H73.608a2.834,2.834,0,0,0,2.835-2.834V235.261h-.454L36.936,292.568h32.7v16.711H20.589V288.3l55.854-78.378H96.514v82.646h16.711v16.711H96.514v28.044a2.835,2.835,0,0,0,2.835,2.834h45.628a2.834,2.834,0,0,0,1.685-5.109,34.969,34.969,0,0,1-3.648-3.2,42.914,42.914,0,0,1-8.219-11.761,75.536,75.536,0,0,1-5.131-14.3,105.29,105.29,0,0,1-2.68-15.531q-.772-7.946-.771-15.484,0-6.994.681-14.532a105.923,105.923,0,0,1,2.407-14.849,78.463,78.463,0,0,1,4.677-13.941,44.266,44.266,0,0,1,7.583-11.76,37.778,37.778,0,0,1,11.08-8.4,38.565,38.565,0,0,1,15.167-3.814v17.8q-20.434,3.36-20.434,49.769,0,3.906.181,9.173a104.264,104.264,0,0,0,.955,10.808,79.632,79.632,0,0,0,2.315,10.944A37.6,37.6,0,0,0,155,315.592a22.089,22.089,0,0,0,6.63,6.856,17.089,17.089,0,0,0,9.627,2.634q23.7,0,23.7-50.042,0-46.227-20.344-49.769v-17.8a38.57,38.57,0,0,1,15.167,3.814,36.838,36.838,0,0,1,11.035,8.446,46.688,46.688,0,0,1,7.583,11.807,76.347,76.347,0,0,1,4.723,13.942,106.473,106.473,0,0,1,2.407,14.848q.679,7.54.681,14.531,0,7.629-.773,15.667a100.388,100.388,0,0,1-2.724,15.576,74.931,74.931,0,0,1-5.222,14.213,42.752,42.752,0,0,1-8.31,11.67,35.562,35.562,0,0,1-3.517,3.054,2.836,2.836,0,0,0,1.675,5.119h50.986a2.834,2.834,0,0,0,1.684-5.109,35.061,35.061,0,0,1-3.647-3.2,42.939,42.939,0,0,1-8.22-11.761,75.674,75.674,0,0,1-5.131-14.3,105.288,105.288,0,0,1-2.679-15.531q-.772-7.946-.772-15.484,0-6.994.682-14.532a106.067,106.067,0,0,1,2.406-14.849,78.385,78.385,0,0,1,4.678-13.941,44.266,44.266,0,0,1,7.583-11.76,37.765,37.765,0,0,1,11.08-8.4,38.561,38.561,0,0,1,15.167-3.814v17.8q-20.434,3.36-20.435,49.769,0,3.906.182,9.173a103.982,103.982,0,0,0,.954,10.808,79.78,79.78,0,0,0,2.315,10.944,37.631,37.631,0,0,0,4.178,9.627,22.089,22.089,0,0,0,6.63,6.856,17.089,17.089,0,0,0,9.627,2.634q23.7,0,23.7-50.042,0-46.227-20.344-49.769v-17.8a38.561,38.561,0,0,1,15.167,3.814,36.842,36.842,0,0,1,11.036,8.446,46.743,46.743,0,0,1,7.583,11.807,76.269,76.269,0,0,1,4.722,13.942,106.326,106.326,0,0,1,2.407,14.848q.681,7.54.681,14.531,0,7.629-.772,15.667a100.27,100.27,0,0,1-2.725,15.576,74.931,74.931,0,0,1-5.222,14.213,42.749,42.749,0,0,1-8.309,11.67,35.689,35.689,0,0,1-3.518,3.054,2.836,2.836,0,0,0,1.675,5.119h36.625a2.834,2.834,0,0,0,2.834-2.834V2.834A2.834,2.834,0,0,0,337.323,0Z"/>
      </g>
    </g>
</svg>
