<svg xmlns="http://www.w3.org/2000/svg" width="120mm" height="120mm" viewBox="0 0 340.157 340.157">
  <g id="Zimmernummer">
      <g id="Z-03-233-R">
        <path fill="#A0552B" stroke="none" d="M337.323,0H2.835A2.835,2.835,0,0,0,0,2.835V337.323a2.834,2.834,0,0,0,2.834,2.834H19.823a2.821,2.821,0,0,0,2.821-2.645q1.664-27.975,28.5-46.36,6.355-4.632,13.26-8.991Q89.919,266,90.373,248.376q0-9.264-3.269-13.805a24.447,24.447,0,0,0-7.538-6.9,21.829,21.829,0,0,0-10.808-2.361q-6.63,0-10.807,2.543-11.172,6.811-11.807,30.061H24.892q0-22.251,11.807-36.237t33.058-13.987q21.252,0,32.877,13.714,8.991,10.991,8.991,26.247,0,20.073-18.254,35.511A149.676,149.676,0,0,1,75.3,296.511q-9.447,5.994-14.168,9.536Q50.32,314.132,47.96,321.486h63.484v15.837a2.834,2.834,0,0,0,2.834,2.834h22.451a2.828,2.828,0,0,0,1.657-5.122q-9.138-6.627-13.657-18.725a57.918,57.918,0,0,1-3.179-18.619H142.8q-.271,11.9,5.9,19.8t17.709,7.9q11.534,0,18.709-6t7.175-17.255q0-13.623-10.807-18.891-7.629-3.723-23.25-3.27v-15.8q19.344.636,26.338-10.354,2.451-4.086,2.452-11.262a15.674,15.674,0,0,0-5.631-12.169,18.69,18.69,0,0,0-12.9-5.086q-17.709-.09-22.16,16.892a32.577,32.577,0,0,0-1.09,9.718H124q.726-18.981,12.17-31.605t30.97-12.625a47.99,47.99,0,0,1,28.7,8.992q12.442,9.081,12.443,25.793,0,21.342-18.437,27.881v.364a27.205,27.205,0,0,1,17.438,11.08,33.611,33.611,0,0,1,6.266,19.8Q213.46,321.3,199.928,332.2q-1.841,1.484-3.786,2.762a2.829,2.829,0,0,0,1.559,5.192h43.312a2.828,2.828,0,0,0,1.657-5.122q-9.138-6.627-13.657-18.725a57.918,57.918,0,0,1-3.179-18.619h21.252q-.273,11.9,5.9,19.8t17.71,7.9q11.533,0,18.709-6t7.175-17.255q0-13.623-10.808-18.891-7.629-3.723-23.25-3.27v-15.8q19.346.636,26.338-10.354,2.452-4.086,2.452-11.262a15.673,15.673,0,0,0-5.63-12.169,18.692,18.692,0,0,0-12.9-5.086q-17.711-.09-22.16,16.892a32.545,32.545,0,0,0-1.09,9.718H228.286q.726-18.981,12.17-31.605t30.97-12.625a47.992,47.992,0,0,1,28.7,8.992q12.441,9.081,12.442,25.793,0,21.342-18.436,27.881v.364a27.2,27.2,0,0,1,17.437,11.08,33.6,33.6,0,0,1,6.267,19.8q-.091,19.707-13.623,30.606-1.842,1.484-3.786,2.762a2.829,2.829,0,0,0,1.558,5.192h35.339a2.834,2.834,0,0,0,2.834-2.834V2.834A2.834,2.834,0,0,0,337.323,0Z"/>
      </g>
    </g>
</svg>
