<svg xmlns="http://www.w3.org/2000/svg" width="120.001mm" height="120.001mm" viewBox="0 0 340.16 340.16">
  <g id="Zimmernummer">
      <g id="Z-03-011">
        <path fill="#000000" stroke="none" d="M340.16,2.835v334.49a2.835,2.835,0,0,1-2.835,2.835h-29.88a2.843,2.843,0,0,1-2.835-2.835V209.94H287.3A20.553,20.553,0,0,1,282.55,220a29.425,29.425,0,0,1-8.75,6.7,40.91,40.91,0,0,1-11.46,3.73,75.283,75.283,0,0,1-13.03,1.11V248.3h32.03v89.025a2.844,2.844,0,0,1-2.835,2.835H222.534a2.843,2.843,0,0,1-2.834-2.835V209.94H202.39A20.553,20.553,0,0,1,197.64,220a29.425,29.425,0,0,1-8.75,6.7,40.91,40.91,0,0,1-11.46,3.73,75.283,75.283,0,0,1-13.03,1.11V248.3h32.03v89.025a2.844,2.844,0,0,1-2.835,2.835H2.835A2.835,2.835,0,0,1,0,337.325V2.835A2.835,2.835,0,0,1,2.835,0h334.49A2.835,2.835,0,0,1,340.16,2.835Z"/>
      </g>
    </g>
</svg>
