<svg xmlns="http://www.w3.org/2000/svg" width="120mm" height="120mm" viewBox="0 0 340.157 340.158">
  <g id="Zimmernummer">
      <g id="Z-03-342-R">
        <path fill="#A0552B" stroke="none" d="M337.323,0H2.835A2.835,2.835,0,0,0,0,2.835V337.323a2.835,2.835,0,0,0,2.835,2.835h36a2.835,2.835,0,0,0,1.6-5.172Q31.043,328.331,26.444,316a57.891,57.891,0,0,1-3.178-18.619H44.518q-.273,11.9,5.9,19.8t17.71,7.9q11.532,0,18.709-6t7.175-17.255q0-13.623-10.808-18.891-7.629-3.723-23.25-3.27v-15.8Q79.3,264.5,86.3,253.514q2.453-4.086,2.452-11.262a15.674,15.674,0,0,0-5.631-12.169A18.689,18.689,0,0,0,70.22,225q-17.711-.09-22.16,16.892a32.545,32.545,0,0,0-1.09,9.718H25.718q.725-18.981,12.17-31.606t30.97-12.624a47.992,47.992,0,0,1,28.7,8.992Q110,225.45,110,242.162q0,21.342-18.436,27.881v.364A27.2,27.2,0,0,1,109,281.487a33.6,33.6,0,0,1,6.267,19.8q-.093,19.707-13.623,30.606a48.893,48.893,0,0,1-4.251,3.065,2.829,2.829,0,0,0,1.546,5.2h79.429a2.834,2.834,0,0,0,2.834-2.835V235.259h-.454L141.7,292.567h32.7v16.711H125.348V288.3L181.2,209.92h20.072v82.647h16.71v16.711h-16.71v28.045a2.834,2.834,0,0,0,2.834,2.835h21.143a2.822,2.822,0,0,0,2.819-2.577c1.631-20.087,11.063-34.911,28.335-46.74q6.357-4.632,13.26-8.991,25.519-16.164,25.975-33.785,0-9.264-3.27-13.805a24.439,24.439,0,0,0-7.539-6.9A21.821,21.821,0,0,0,274.025,225q-6.631,0-10.809,2.543-11.171,6.811-11.807,30.061H230.157q0-22.251,11.807-36.237t33.059-13.987q21.252,0,32.877,13.714,8.991,10.989,8.992,26.247,0,20.073-18.256,35.511A149.734,149.734,0,0,1,280.564,296.2q-9.447,5.994-14.168,9.536-10.809,8.084-13.17,15.439H316.71v16.148a2.835,2.835,0,0,0,2.835,2.835h17.778a2.834,2.834,0,0,0,2.834-2.835V2.834A2.834,2.834,0,0,0,337.323,0Z"/>
      </g>
    </g>
</svg>
