<svg xmlns="http://www.w3.org/2000/svg" width="120mm" height="120mm" viewBox="0 0 340.157 340.158">
  <g id="Zimmernummer">
      <g id="Z-03-404">
        <path fill="#000000" stroke="none" d="M337.323,0H2.835A2.835,2.835,0,0,0,0,2.835V337.323a2.834,2.834,0,0,0,2.834,2.835H73.427a2.834,2.834,0,0,0,2.834-2.835V235.261h-.454L36.755,292.568h32.7v16.711H20.407V288.3l55.854-78.378H96.333v82.646h16.711v16.711H96.333v28.044a2.834,2.834,0,0,0,2.834,2.835H144.8a2.834,2.834,0,0,0,1.685-5.109,35.1,35.1,0,0,1-3.648-3.2,42.917,42.917,0,0,1-8.22-11.761,75.674,75.674,0,0,1-5.131-14.3,105.421,105.421,0,0,1-2.68-15.531q-.771-7.946-.771-15.484,0-6.994.682-14.532a106.067,106.067,0,0,1,2.406-14.849,78.385,78.385,0,0,1,4.678-13.941,44.242,44.242,0,0,1,7.583-11.76,37.765,37.765,0,0,1,11.08-8.4,38.561,38.561,0,0,1,15.167-3.814v17.8q-20.435,3.36-20.435,49.769,0,3.906.182,9.173a103.982,103.982,0,0,0,.954,10.808,79.78,79.78,0,0,0,2.315,10.944,37.631,37.631,0,0,0,4.178,9.627,22.089,22.089,0,0,0,6.63,6.856,17.089,17.089,0,0,0,9.627,2.634q23.7,0,23.7-50.042,0-46.227-20.344-49.769v-17.8a38.565,38.565,0,0,1,15.167,3.814,36.825,36.825,0,0,1,11.035,8.446,46.688,46.688,0,0,1,7.583,11.807,76.271,76.271,0,0,1,4.723,13.942,106.473,106.473,0,0,1,2.407,14.848q.68,7.54.681,14.531,0,7.629-.773,15.667a100.151,100.151,0,0,1-2.724,15.576,74.931,74.931,0,0,1-5.222,14.213,42.77,42.77,0,0,1-8.309,11.67,35.728,35.728,0,0,1-3.519,3.055,2.836,2.836,0,0,0,1.676,5.119h82.971a2.835,2.835,0,0,0,2.835-2.835V235.261h-.455l-39.052,57.307h32.695v16.711H227.114V288.3l55.855-78.378H303.04v82.646h16.711v16.711H303.04v28.044a2.834,2.834,0,0,0,2.834,2.835h31.449a2.834,2.834,0,0,0,2.834-2.835V2.835A2.834,2.834,0,0,0,337.323,0Z"/>
      </g>
    </g>
</svg>
