<svg xmlns="http://www.w3.org/2000/svg" width="120mm" height="120mm" viewBox="0 0 340.157 340.157">
  <g id="Zimmernummer">
      <g id="Z-03-126-R">
        <path fill="#A0552B" stroke="none" d="M337.323,0H2.834A2.834,2.834,0,0,0,0,2.834V337.323a2.834,2.834,0,0,0,2.834,2.834H61.221a2.834,2.834,0,0,0,2.834-2.834V248.839H32.087V232.128q22.885,0,33.149-11.534a20.3,20.3,0,0,0,4.723-10.081H87.305v126.81a2.834,2.834,0,0,0,2.835,2.834h21.382a2.82,2.82,0,0,0,2.82-2.633q1.776-27.793,28.473-46.09,6.356-4.632,13.259-8.992,25.521-16.164,25.975-33.785,0-9.264-3.27-13.8a24.417,24.417,0,0,0-7.538-6.9,21.822,21.822,0,0,0-10.807-2.361q-6.631,0-10.808,2.543-11.171,6.811-11.807,30.061H116.567q0-22.251,11.807-36.237t33.059-13.986q21.252,0,32.877,13.714,8.991,10.989,8.991,26.247,0,20.071-18.255,35.51a149.638,149.638,0,0,1-18.073,13.351q-9.447,5.994-14.168,9.536-10.809,8.085-13.169,15.44h63.483v15.555a2.834,2.834,0,0,0,2.835,2.834h28.482a2.829,2.829,0,0,0,1.7-5.093q-.987-.738-1.91-1.536a38.7,38.7,0,0,1-8.719-10.806,62.428,62.428,0,0,1-5.4-13.488,89.853,89.853,0,0,1-2.77-15.257q-.774-7.992-.772-15.985a144.632,144.632,0,0,1,.953-16.483,97.435,97.435,0,0,1,3.224-16.121,71,71,0,0,1,6.04-14.622,46.72,46.72,0,0,1,9.309-11.9,40.709,40.709,0,0,1,13.124-7.992,48.631,48.631,0,0,1,17.482-2.906,38.91,38.91,0,0,1,26.338,10.081,37.093,37.093,0,0,1,8.356,11.216,35.835,35.835,0,0,1,3.542,14.213H283.768a24.119,24.119,0,0,0-1.726-6.9,19.219,19.219,0,0,0-3.633-5.722,16.5,16.5,0,0,0-5.4-3.859,16.764,16.764,0,0,0-6.947-1.408q-16.8,0-22.978,15.893a76.72,76.72,0,0,0-4.268,16.847,129.709,129.709,0,0,0-1.272,18.119q0,6.63.59,12.942t1.59,12.125a55.826,55.826,0,0,0,2.543,9.308,27.225,27.225,0,0,0,4.314,7.721,19.046,19.046,0,0,0,6.63,5.222,21.661,21.661,0,0,0,9.49,1.907,22.7,22.7,0,0,0,10.445-2.271,21.652,21.652,0,0,0,7.356-5.994,25.089,25.089,0,0,0,4.314-8.673,37.183,37.183,0,0,0,1.408-10.217,35.537,35.537,0,0,0-1.453-10.218,24.841,24.841,0,0,0-4.36-8.491,20.987,20.987,0,0,0-7.265-5.767,22.878,22.878,0,0,0-10.172-2.135,22.641,22.641,0,0,0-10.263,2.271,21.732,21.732,0,0,0-7.992,7.175q-.273-4.088-.273-8.083,0-2.814.137-5.5t.318-5.4a29.1,29.1,0,0,1,9.944-5.4A43.467,43.467,0,0,1,284,258.6a37.184,37.184,0,0,1,12.669,9.263,41.034,41.034,0,0,1,7.947,13.759,51,51,0,0,1,2.77,16.983,50.214,50.214,0,0,1-3.133,18.028,41.855,41.855,0,0,1-8.81,14.168,39.856,39.856,0,0,1-4.772,4.286,2.828,2.828,0,0,0,1.735,5.067h44.922a2.834,2.834,0,0,0,2.834-2.834V2.834A2.834,2.834,0,0,0,337.323,0Z"/>
      </g>
    </g>
</svg>
