<svg xmlns="http://www.w3.org/2000/svg" width="120mm" height="120mm" viewBox="0 0 340.158 340.157">
  <g id="Zimmernummer">
      <g id="Z-03-025-E">
        <path fill="#A09f9d" stroke="none" d="M337.323,0H2.834A2.834,2.834,0,0,0,0,2.834V337.323a2.834,2.834,0,0,0,2.834,2.834H116.62a2.821,2.821,0,0,0,2.821-2.649q1.627-28.032,28.5-46.443,6.357-4.63,13.26-8.991,25.52-16.164,25.975-33.785,0-9.264-3.27-13.8a24.447,24.447,0,0,0-7.538-6.9,21.829,21.829,0,0,0-10.808-2.361q-6.63,0-10.807,2.543-11.171,6.811-11.807,30.061H121.7q0-22.251,11.807-36.237T166.562,207.6q21.25,0,32.876,13.713,8.993,10.99,8.992,26.247,0,20.073-18.255,35.511A149.638,149.638,0,0,1,172.1,296.424q-9.447,5.994-14.168,9.536-10.809,8.085-13.169,15.439h63.483v15.924a2.834,2.834,0,0,0,2.835,2.834h25.771a2.833,2.833,0,0,0,1.536-5.211q-1.545-1.031-2.987-2.194-12.715-10.263-13.441-29.426h21.161q.908,10.717,7.266,16.348t16.711,5.631q23.793,0,24.249-28.609,0-18.344-13.714-24.975a24.51,24.51,0,0,0-11.08-2.18q-16.62,0-20.98,11.9H224.323l13.987-71.293h67.3v18.981h-51.5l-6.72,33.149.363.364q8.808-9.9,25.611-9.9a39.509,39.509,0,0,1,15.712,3.27q14.985,6.45,20.707,22.977a50.867,50.867,0,0,1,2.725,16.53q0,18.709-10.535,31.968a43.042,43.042,0,0,1-7.786,7.6,2.832,2.832,0,0,0,1.742,5.071h41.392a2.834,2.834,0,0,0,2.835-2.834V2.834A2.834,2.834,0,0,0,337.323,0Z"/>
      </g>
    </g>
</svg>
