<svg xmlns="http://www.w3.org/2000/svg" width="120mm" height="120mm" viewBox="0 0 340.158 340.157">
  <g id="Zimmernummer">
      <g id="Z-03-225-E">
        <path fill="#A09f9d" stroke="none" d="M337.323,0H2.834A2.834,2.834,0,0,0,0,2.834V337.323a2.834,2.834,0,0,0,2.834,2.834H22.1a2.821,2.821,0,0,0,2.821-2.645q1.662-27.977,28.5-46.361,6.356-4.632,13.26-8.991Q92.2,266,92.651,248.375q0-9.264-3.269-13.805a24.447,24.447,0,0,0-7.538-6.9,21.829,21.829,0,0,0-10.808-2.361q-6.63,0-10.808,2.543-11.171,6.811-11.806,30.061H27.17q0-22.251,11.806-36.237t33.059-13.986q21.252,0,32.877,13.713,8.991,10.99,8.991,26.247,0,20.073-18.255,35.511A149.665,149.665,0,0,1,77.575,296.51q-9.447,5.994-14.168,9.536Q52.6,314.131,50.238,321.485h63.483v15.838a2.835,2.835,0,0,0,2.835,2.834h6.108a2.822,2.822,0,0,0,2.822-2.645q1.66-27.977,28.494-46.361,6.357-4.632,13.26-8.991Q192.761,266,193.215,248.375q0-9.264-3.27-13.805a24.436,24.436,0,0,0-7.538-6.9,21.826,21.826,0,0,0-10.808-2.361q-6.63,0-10.807,2.543-11.171,6.811-11.807,30.061H127.733q0-22.251,11.807-36.237T172.6,207.688q21.252,0,32.877,13.713,8.993,10.99,8.992,26.247,0,20.073-18.255,35.511a149.676,149.676,0,0,1-18.074,13.351q-9.446,5.994-14.167,9.536-10.81,8.085-13.169,15.439h63.483v15.838a2.834,2.834,0,0,0,2.835,2.834h22.85a2.834,2.834,0,0,0,1.54-5.21q-1.477-.993-2.86-2.109-12.715-10.263-13.441-29.426H246.37q.906,10.718,7.266,16.348t16.71,5.631q23.794,0,24.25-28.609,0-18.344-13.714-24.975a24.51,24.51,0,0,0-11.08-2.18q-16.622,0-20.98,11.9H227.57l13.986-71.294h67.3v18.982H257.359l-6.721,33.149.364.364q8.808-9.9,25.611-9.9a39.505,39.505,0,0,1,15.712,3.27q14.985,6.45,20.707,22.977a50.894,50.894,0,0,1,2.725,16.53q0,18.71-10.536,31.968a43.088,43.088,0,0,1-7.681,7.527,2.831,2.831,0,0,0,1.756,5.06h38.027a2.835,2.835,0,0,0,2.835-2.835V2.834A2.834,2.834,0,0,0,337.323,0Z"/>
      </g>
    </g>
</svg>
