<svg xmlns="http://www.w3.org/2000/svg" width="120mm" height="120mm" viewBox="0 0 340.158 340.157">
  <g id="Zimmernummer">
      <g id="Z-03-041-M">
        <path fill="#D4AF37" stroke="none" d="M337.323,0H2.834A2.834,2.834,0,0,0,0,2.834V337.323a2.834,2.834,0,0,0,2.834,2.834H185.667a2.834,2.834,0,0,0,2.834-2.834V235.31h-.454L149,292.618H181.69v16.711H132.647v-20.98L188.5,209.971h20.072v82.647h16.711v16.711H208.573v27.994a2.834,2.834,0,0,0,2.834,2.834h59.177a2.834,2.834,0,0,0,2.834-2.834V248.3H241.45V231.586q22.887,0,33.149-11.534a20.3,20.3,0,0,0,4.723-10.081h17.346V337.323a2.835,2.835,0,0,0,2.835,2.834h37.82a2.835,2.835,0,0,0,2.835-2.835V2.835A2.835,2.835,0,0,0,337.323,0Z"/>
      </g>
    </g>
</svg>
