<svg xmlns="http://www.w3.org/2000/svg" width="120.001mm" height="119.997mm" viewBox="0 0 340.16 340.149">
  <g id="Zimmernummer">
      <g id="Z-03-101-E">
        <path fill="#A09f9d" stroke="none" d="M337.325,0H2.834A2.834,2.834,0,0,0,0,2.834V337.315a2.843,2.843,0,0,0,2.835,2.834h73.8a2.834,2.834,0,0,0,2.835-2.834V249.27H47.742V232.66a73.985,73.985,0,0,0,12.91-1.11A39.887,39.887,0,0,0,72,227.859a29,29,0,0,0,8.67-6.639,20.192,20.192,0,0,0,4.7-9.96h17.16V337.315a2.834,2.834,0,0,0,2.835,2.834h46.026a1.407,1.407,0,0,0,.736-2.605c-.461-.293-.907-.6-1.347-.914a43.738,43.738,0,0,1-13.65-16.24,72.548,72.548,0,0,1-6.65-21.68,150.379,150.379,0,0,1,0-45.75,72.539,72.539,0,0,1,6.65-21.68,43.66,43.66,0,0,1,13.65-16.24q7.485-5.43,18.69-6.21a1.277,1.277,0,0,1,1.36,1.279V225.24a1.355,1.355,0,0,1-1.111,1.281,15.706,15.706,0,0,0-7.869,3.649,27.314,27.314,0,0,0-7.2,10.79,65.462,65.462,0,0,0-3.78,15.78,155.361,155.361,0,0,0-1.11,19.09,157.509,157.509,0,0,0,1.11,19.19,64.1,64.1,0,0,0,3.78,15.78,27.4,27.4,0,0,0,7.2,10.7,18.634,18.634,0,0,0,22.97,0,27.024,27.024,0,0,0,7.29-10.7,64.1,64.1,0,0,0,3.78-15.78A157.509,157.509,0,0,0,197,275.83a155.361,155.361,0,0,0-1.11-19.09,65.462,65.462,0,0,0-3.78-15.78,26.943,26.943,0,0,0-7.29-10.79,15.994,15.994,0,0,0-7.87-3.65,1.275,1.275,0,0,1-1.02-1.25V210.109a1.28,1.28,0,0,1,1.358-1.279q11.19.78,18.692,6.21a43.753,43.753,0,0,1,13.65,16.24,72.539,72.539,0,0,1,6.65,21.68,150.379,150.379,0,0,1,0,45.75,72.548,72.548,0,0,1-6.65,21.68,43.832,43.832,0,0,1-13.65,16.24c-.435.313-.876.614-1.332.9a1.413,1.413,0,0,0,.74,2.615h70.237a2.834,2.834,0,0,0,2.835-2.834V249.14h-31.73V232.53a74.97,74.97,0,0,0,12.91-1.1,40.587,40.587,0,0,0,11.35-3.69,29.217,29.217,0,0,0,8.67-6.65,20.192,20.192,0,0,0,4.7-9.96h17.16V337.315a2.834,2.834,0,0,0,2.834,2.834h42.969a2.834,2.834,0,0,0,2.835-2.834V2.834A2.834,2.834,0,0,0,337.325,0Z"/>
      </g>
    </g>
</svg>
