<svg xmlns="http://www.w3.org/2000/svg" width="120.001mm" height="119.997mm" viewBox="0 0 340.159 340.15">
  <g id="Zimmernummer">
      <g id="Z-03-306-E">
        <path fill="#A09f9d" stroke="none" d="M0,2.835V337.316a2.834,2.834,0,0,0,2.835,2.834h45.6a1.191,1.191,0,0,0,.506-2.254l-.06-.031c-.28-.139-.57-.29-.85-.429a36.492,36.492,0,0,1-9.31-7.02,39.758,39.758,0,0,1-8.66-14.341,58.271,58.271,0,0,1-3.16-18.619h21.22q-.375,11.91,5.87,19.829T72.7,325.2q10.62,0,17.79-6.05t7.17-17.22q0-7.635-2.98-12.11a19.368,19.368,0,0,0-7.82-6.79,31.745,31.745,0,0,0-10.9-2.891,103.5,103.5,0,0,0-12.38-.369v-15.83a48.9,48.9,0,0,0,10.43-.74,29.109,29.109,0,0,0,9.31-3.26,18.2,18.2,0,0,0,6.61-6.43,18.922,18.922,0,0,0,2.51-10.05q0-8.386-5.68-13.41t-14.62-5.03a19.215,19.215,0,0,0-16.47,8.29,26.988,26.988,0,0,0-4.01,8.57,32.253,32.253,0,0,0-1.12,9.77H29.324a53.559,53.559,0,0,1,3.53-17.59A44.306,44.306,0,0,1,41.514,220a38.387,38.387,0,0,1,13.32-9.309,44.4,44.4,0,0,1,17.69-3.361,51.289,51.289,0,0,1,14.99,2.241,43.761,43.761,0,0,1,13.22,6.52,31.333,31.333,0,0,1,12.94,26.06,32.5,32.5,0,0,1-4.47,17.23q-4.47,7.35-13.97,10.71v.37a26.9,26.9,0,0,1,17.41,11.079q6.24,8.851,6.24,21.511a36.4,36.4,0,0,1-3.72,16.66,37.971,37.971,0,0,1-10.06,12.48,44.449,44.449,0,0,1-7.95,5.12c-.43.21-.86.42-1.29.62l-.06.03a1.159,1.159,0,0,0,.491,2.194H150.33a1.283,1.283,0,0,0,.65-2.373c-.611-.371-1.2-.761-1.772-1.182a44.115,44.115,0,0,1-13.78-16.39,72.808,72.808,0,0,1-6.7-21.88,155.626,155.626,0,0,1,0-46.179,72.994,72.994,0,0,1,6.7-21.88,44.1,44.1,0,0,1,13.78-16.381q7.56-5.488,18.86-6.27a1.283,1.283,0,0,1,1.37,1.291v15.27a1.279,1.279,0,0,1-1.05,1.279,15.8,15.8,0,0,0-8.01,3.7,27.539,27.539,0,0,0-7.26,10.89,66.016,66.016,0,0,0-3.82,15.92,159.9,159.9,0,0,0,0,38.64,64.675,64.675,0,0,0,3.82,15.92c2.278,5.732,6.209,11.572,12.258,13.732,5.962,2.128,13.319,1.256,18.182-2.933a27.072,27.072,0,0,0,7.36-10.8,64.675,64.675,0,0,0,3.82-15.92,159.946,159.946,0,0,0,0-38.64c-1.175-9.435-3.632-20.331-11.18-26.81a16.142,16.142,0,0,0-7.874-3.681,1.346,1.346,0,0,1-1.1-1.27v-15.3a1.289,1.289,0,0,1,1.37-1.291q11.295.8,18.87,6.27a44.2,44.2,0,0,1,13.78,16.381,73.281,73.281,0,0,1,6.7,21.88,156.774,156.774,0,0,1,0,46.179,73.094,73.094,0,0,1-6.7,21.88,44.208,44.208,0,0,1-13.78,16.39c-.568.419-1.167.809-1.765,1.178a1.284,1.284,0,0,0,.643,2.377h56.418a.924.924,0,0,0,.37-1.754l-.05-.021c-8.6-4.12-14.99-11.4-18.94-19.99-4.5-9.77-6-20.63-6.74-31.28a131.366,131.366,0,0,1,1.78-34.8c3.81-19.3,15.24-39.45,35.83-44.06,10.39-2.32,21.6-1.3,31.01,3.83A37.15,37.15,0,0,1,311.6,234.8a37.71,37.71,0,0,1,1.18,7.83h-21.23a20.376,20.376,0,0,0-6.46-13.65c-3.94-3.45-9.24-4.47-14.34-4.15a21.162,21.162,0,0,0-14.35,6.75c-4.08,4.4-6.21,10.15-7.73,15.85-1.84,6.93-2.43,13.92-3.12,21.02a150.13,150.13,0,0,0,.34,18.49,125.2,125.2,0,0,0,2.33,17.461,30.542,30.542,0,0,0,.88,3.539,22.708,22.708,0,0,0,18.2,16.67c8.81,1.26,17.31-2.23,22.18-9.79,9.1-14.149,4.88-40.09-14.04-43.36-9.39-1.62-18.81,2.12-23.76,10.211a.517.517,0,0,1-.96-.241c-.19-4.2-.22-8.42-.02-12.63.16-1.82.31-3.66.48-5.48a1.3,1.3,0,0,1,.41-.83c8.85-8.33,22.55-9.67,33.91-6.79a38.323,38.323,0,0,1,25.61,21.8,51.038,51.038,0,0,1,4.09,20.58c0,10.5-3.06,20.99-9.72,29.22a40.6,40.6,0,0,1-12.89,10.43,1.279,1.279,0,0,0,.539,2.425h44.192a2.834,2.834,0,0,0,2.834-2.834V2.835A2.834,2.834,0,0,0,337.325,0H2.835A2.835,2.835,0,0,0,0,2.835Z"/>
      </g>
    </g>
</svg>
