<svg xmlns="http://www.w3.org/2000/svg" width="120.001mm" height="120.001mm" viewBox="0 0 340.16 340.16">
  <g id="Zimmernummer">
      <g id="Z-03-111">
        <path fill="#000000" stroke="none" d="M0,2.835v334.49a2.835,2.835,0,0,0,2.835,2.835H89.484a2.835,2.835,0,0,0,2.835-2.835V248.43H60.289V231.67a74.307,74.307,0,0,0,13.03-1.12,40.581,40.581,0,0,0,11.46-3.72,29.29,29.29,0,0,0,8.75-6.71,20.528,20.528,0,0,0,4.75-10.05h17.31V337.325a2.835,2.835,0,0,0,2.835,2.835h55.329a2.834,2.834,0,0,0,2.834-2.835V248.3h-32.03V231.54a75.283,75.283,0,0,0,13.03-1.11,40.91,40.91,0,0,0,11.46-3.73,29.425,29.425,0,0,0,8.75-6.7,20.553,20.553,0,0,0,4.75-10.06h17.31V337.325a2.835,2.835,0,0,0,2.835,2.835h55.971a2.834,2.834,0,0,0,2.834-2.835V248.3h-32.03V231.54a75.283,75.283,0,0,0,13.03-1.11,40.91,40.91,0,0,0,11.46-3.73,29.425,29.425,0,0,0,8.75-6.7,20.553,20.553,0,0,0,4.75-10.06h17.31V337.325a2.835,2.835,0,0,0,2.835,2.835h49.723a2.835,2.835,0,0,0,2.835-2.835V2.835A2.835,2.835,0,0,0,337.325,0H2.835A2.835,2.835,0,0,0,0,2.835Z"/>
      </g>
    </g>
</svg>
