<svg xmlns="http://www.w3.org/2000/svg" width="120mm" height="120mm" viewBox="0 0 340.157 340.158">
  <g id="Zimmernummer">
      <g id="Z-03-407">
        <path fill="#000000" stroke="none" d="M337.323,0H2.835A2.835,2.835,0,0,0,0,2.835V337.323a2.835,2.835,0,0,0,2.835,2.835H77.874a2.834,2.834,0,0,0,2.834-2.835V235.261h-.454L41.2,292.568H73.9v16.711H24.854V288.3l55.854-78.379H100.78v82.647h16.71v16.711H100.78v28.044a2.834,2.834,0,0,0,2.834,2.835h45.631a2.834,2.834,0,0,0,1.684-5.11,34.873,34.873,0,0,1-3.649-3.2,42.876,42.876,0,0,1-8.22-11.76,75.511,75.511,0,0,1-5.131-14.3,105.3,105.3,0,0,1-2.68-15.532q-.771-7.944-.771-15.484,0-6.993.681-14.531a106.06,106.06,0,0,1,2.407-14.85,78.442,78.442,0,0,1,4.677-13.939,44.318,44.318,0,0,1,7.583-11.762,37.772,37.772,0,0,1,11.08-8.4,38.565,38.565,0,0,1,15.167-3.815v17.8q-20.435,3.36-20.434,49.77,0,3.9.182,9.171a104,104,0,0,0,.954,10.809,79.555,79.555,0,0,0,2.315,10.943,37.551,37.551,0,0,0,4.178,9.627,22.085,22.085,0,0,0,6.63,6.858,17.1,17.1,0,0,0,9.627,2.633q23.7,0,23.7-50.041,0-46.228-20.344-49.77v-17.8a38.565,38.565,0,0,1,15.167,3.815,36.806,36.806,0,0,1,11.035,8.445,46.688,46.688,0,0,1,7.583,11.807,76.388,76.388,0,0,1,4.723,13.941,106.5,106.5,0,0,1,2.407,14.85q.679,7.538.681,14.531,0,7.629-.773,15.666a100.269,100.269,0,0,1-2.724,15.576,74.956,74.956,0,0,1-5.222,14.213,42.752,42.752,0,0,1-8.31,11.67,35.728,35.728,0,0,1-3.519,3.055,2.836,2.836,0,0,0,1.675,5.119h39.243a2.838,2.838,0,0,0,2.821-2.606q3.8-43.308,31.217-84.219a235.222,235.222,0,0,1,18.8-24.429h-67.48V209.921H315.3v17.711q-32.514,36.51-43.412,79.377a188.092,188.092,0,0,0-4.936,30.086,2.834,2.834,0,0,0,2.829,3.063h67.538a2.834,2.834,0,0,0,2.834-2.835V2.835A2.834,2.834,0,0,0,337.323,0Z"/>
      </g>
    </g>
</svg>
