<svg xmlns="http://www.w3.org/2000/svg" width="120.001mm" height="120.001mm" viewBox="0 0 340.16 340.16">
  <g id="Zimmernummer">
      <g id="Z-03-109">
        <path fill="#000000" stroke="none" d="M2.835,0A2.835,2.835,0,0,0,0,2.835v334.49a2.835,2.835,0,0,0,2.835,2.835H66.524a2.834,2.834,0,0,0,2.834-2.835V248.43H37.328V231.67a74.307,74.307,0,0,0,13.03-1.12,40.581,40.581,0,0,0,11.46-3.72,29.29,29.29,0,0,0,8.75-6.71,20.519,20.519,0,0,0,4.75-10.05h17.31V337.325a2.835,2.835,0,0,0,2.835,2.835h37.686a1.286,1.286,0,0,0,.681-2.379c-.61-.37-1.2-.76-1.772-1.181a44.132,44.132,0,0,1-13.78-16.39,72.826,72.826,0,0,1-6.7-21.88,151.492,151.492,0,0,1,0-46.18,72.987,72.987,0,0,1,6.7-21.879,44.1,44.1,0,0,1,13.78-16.381q7.56-5.49,18.86-6.27a1.282,1.282,0,0,1,1.37,1.29v15.27a1.281,1.281,0,0,1-1.05,1.28,15.8,15.8,0,0,0-8.01,3.7,27.541,27.541,0,0,0-7.259,10.89,65.979,65.979,0,0,0-3.821,15.92,158.389,158.389,0,0,0-1.12,19.27,160.685,160.685,0,0,0,1.12,19.37,64.617,64.617,0,0,0,3.821,15.92,27.624,27.624,0,0,0,7.259,10.8,18.792,18.792,0,0,0,23.181,0,27.074,27.074,0,0,0,7.359-10.8,64.663,64.663,0,0,0,3.82-15.92,160.539,160.539,0,0,0,1.111-19.37,158.25,158.25,0,0,0-1.111-19.27,66.028,66.028,0,0,0-3.82-15.92,27,27,0,0,0-7.359-10.89,16.157,16.157,0,0,0-7.875-3.68,1.346,1.346,0,0,1-1.1-1.27v-15.3a1.287,1.287,0,0,1,1.37-1.29q11.3.8,18.871,6.27a44.186,44.186,0,0,1,13.779,16.381,73.3,73.3,0,0,1,6.7,21.879,151.492,151.492,0,0,1,0,46.18,73.141,73.141,0,0,1-6.7,21.88,44.223,44.223,0,0,1-13.779,16.39c-.569.419-1.168.808-1.766,1.177a1.287,1.287,0,0,0,.675,2.383h58.935a1.282,1.282,0,0,0,.6-2.414,38.507,38.507,0,0,1-4.323-2.756,36.651,36.651,0,0,1-14.97-27.74h21.23c.6,6.39,3.68,12.7,9.56,15.77s13.97,2.81,19.78-.26c14.23-7.53,15.31-27.27,16.66-41.33.02-.36.04-.73.04-1.11a134.057,134.057,0,0,0-2.71-34.84,30.861,30.861,0,0,0-.88-3.53,22.7,22.7,0,0,0-18.54-16.72,22,22,0,0,0-21.78,9.76c-9.22,14.2-4.91,40.29,14.14,43.46,9.08,1.51,18.17-2.01,23.19-9.59a.766.766,0,0,1,1.41.39,110.4,110.4,0,0,1-.01,11.79c-.17,1.8-.34,3.61-.48,5.42a1.538,1.538,0,0,1-.479,1.009c-12.24,11.381-33.32,10.081-46.421.971-14.39-10.01-19.28-29.14-16.36-45.77,2.92-16.68,15.04-30.32,31.69-34.14,15.37-3.53,33.24-.2,44.08,11.82,13.01,14.42,14.33,36.64,14.33,55.08,0,20.21-4.75,43.41-20.72,57.25a39.815,39.815,0,0,1-7.39,5.06,1.292,1.292,0,0,0,.63,2.42h59.522a2.835,2.835,0,0,0,2.835-2.835V2.835A2.835,2.835,0,0,0,337.325,0Z"/>
      </g>
    </g>
</svg>
