<svg xmlns="http://www.w3.org/2000/svg" width="120mm" height="120mm" viewBox="0 0 340.157 340.158">
  <g id="Zimmernummer">
      <g id="Z-03-522-R">
        <path fill="#A0552B" stroke="none" d="M337.323,0H2.835A2.835,2.835,0,0,0,0,2.835V337.323a2.835,2.835,0,0,0,2.835,2.835H37.05a2.831,2.831,0,0,0,1.524-5.215,40.873,40.873,0,0,1-3.317-2.414Q22.539,322.266,21.815,303.1h21.16q.909,10.717,7.266,16.348t16.711,5.631q23.795,0,24.25-28.609,0-18.344-13.715-24.975a24.5,24.5,0,0,0-11.08-2.18q-16.62,0-20.979,11.9H24.177l13.986-71.294h67.3V228.9H53.966l-6.721,33.149.363.364q8.807-9.9,25.611-9.9a39.5,39.5,0,0,1,15.711,3.27q14.987,6.448,20.707,22.977a50.865,50.865,0,0,1,2.725,16.529q0,18.711-10.535,31.969a42.8,42.8,0,0,1-8.054,7.8,2.84,2.84,0,0,0,1.728,5.1h27.66a2.821,2.821,0,0,0,2.822-2.659q1.536-28.178,28.52-46.657,6.357-4.632,13.259-8.991,25.521-16.164,25.975-33.785,0-9.264-3.269-13.805a24.447,24.447,0,0,0-7.538-6.9A21.824,21.824,0,0,0,172.122,225q-6.63,0-10.807,2.543-11.171,6.811-11.806,30.061H128.257q0-22.251,11.806-36.237t33.059-13.987q21.252,0,32.877,13.714,8.991,10.989,8.99,26.247,0,20.073-18.254,35.511A149.676,149.676,0,0,1,178.661,296.2q-9.445,5.994-14.168,9.536-10.807,8.083-13.168,15.439h63.482v16.147a2.835,2.835,0,0,0,2.835,2.835h8.872a2.822,2.822,0,0,0,2.823-2.659q1.535-28.178,28.519-46.657,6.357-4.632,13.26-8.991,25.521-16.164,25.975-33.785,0-9.264-3.27-13.805a24.445,24.445,0,0,0-7.537-6.9A21.828,21.828,0,0,0,275.475,225q-6.63,0-10.806,2.543Q253.5,234.353,252.862,257.6H231.61q0-22.251,11.807-36.237t33.058-13.987q21.252,0,32.877,13.714,8.991,10.989,8.991,26.247,0,20.073-18.254,35.511A149.687,149.687,0,0,1,282.014,296.2q-9.444,5.994-14.168,9.536-10.808,8.083-13.168,15.439h63.483v16.147A2.835,2.835,0,0,0,321,340.158h16.327a2.834,2.834,0,0,0,2.834-2.835V2.834A2.834,2.834,0,0,0,337.323,0Z"/>
      </g>
    </g>
</svg>
