<svg xmlns="http://www.w3.org/2000/svg" width="120.001mm" height="119.997mm" viewBox="0 0 340.16 340.15">
  <g id="Zimmernummer">
      <g id="Z-03-005-E">
        <path fill="#A09f9d" stroke="none" d="M340.16,2.835v334.48a2.835,2.835,0,0,1-2.835,2.835H289.85a1.285,1.285,0,0,1-.56-2.44c.09-.04.15-.08.19-.1a42.03,42.03,0,0,0,12.37-10.27,44.331,44.331,0,0,0,8.01-15.08,55.564,55.564,0,0,0,2.51-16.11,53.88,53.88,0,0,0-2.7-17.32,39.84,39.84,0,0,0-7.91-13.87,35.641,35.641,0,0,0-12.85-9.12,43.773,43.773,0,0,0-17.32-3.26,36.9,36.9,0,0,0-13.13,2.51,27.216,27.216,0,0,0-10.89,7.36l-.37-.38,6.7-33.14h51.58V209.94H238.07l-13.96,71.31h21.23q2.595-6.885,8.47-9.4a31.667,31.667,0,0,1,12.57-2.51,25.783,25.783,0,0,1,11.08,2.23,21.463,21.463,0,0,1,7.73,5.96,25.507,25.507,0,0,1,4.46,8.66,35.3,35.3,0,0,1,1.49,10.33,49.19,49.19,0,0,1-1.21,11.18,24.642,24.642,0,0,1-4.09,9.12,19.814,19.814,0,0,1-7.54,6.14,25.971,25.971,0,0,1-11.36,2.24q-10.44,0-16.76-5.68t-7.26-16.29H221.69a42.144,42.144,0,0,0,4,17.22,36.732,36.732,0,0,0,9.78,12.38,39.559,39.559,0,0,0,7.572,4.876,1.286,1.286,0,0,1-.562,2.444H2.835A2.835,2.835,0,0,1,0,337.315V2.835A2.835,2.835,0,0,1,2.835,0h334.49A2.835,2.835,0,0,1,340.16,2.835Z"/>
      </g>
    </g>
</svg>
