<svg xmlns="http://www.w3.org/2000/svg" width="120mm" height="120mm" viewBox="0 0 340.157 340.158">
  <g id="Zimmernummer">
      <g id="Z-03-424-R">
        <path fill="#A0552B" stroke="none" d="M337.323,0H2.835A2.835,2.835,0,0,0,0,2.835V337.323a2.834,2.834,0,0,0,2.834,2.835H73.427a2.834,2.834,0,0,0,2.834-2.835V235.261h-.454L36.755,292.568h32.7v16.711H20.407V288.3l55.854-78.378H96.333v82.646h16.711v16.711H96.333v28.044a2.834,2.834,0,0,0,2.834,2.835h24.675a2.821,2.821,0,0,0,2.822-2.659q1.536-28.176,28.52-46.656,6.357-4.632,13.26-8.991,25.521-16.165,25.975-33.786,0-9.263-3.27-13.8a24.44,24.44,0,0,0-7.538-6.9A21.826,21.826,0,0,0,172.8,225q-6.629,0-10.807,2.543-11.171,6.811-11.807,30.062H128.937q0-22.251,11.807-36.238T173.8,207.379q21.252,0,32.877,13.714,8.993,10.989,8.992,26.247,0,20.073-18.255,35.511a149.736,149.736,0,0,1-18.073,13.35q-9.447,5.994-14.168,9.536-10.809,8.085-13.169,15.44h63.483v16.146a2.835,2.835,0,0,0,2.835,2.835h61.81a2.835,2.835,0,0,0,2.835-2.835V235.261h-.455l-39.052,57.307h32.695v16.711H227.114V288.3l55.855-78.378H303.04v82.646h16.711v16.711H303.04v28.044a2.834,2.834,0,0,0,2.834,2.835h31.449a2.834,2.834,0,0,0,2.834-2.835V2.835A2.834,2.834,0,0,0,337.323,0Z"/>
      </g>
    </g>
</svg>
