<svg xmlns="http://www.w3.org/2000/svg" width="120mm" height="120mm" viewBox="0 0 340.157 340.157">
  <g id="Zimmernummer">
      <g id="Z-03-441-E">
        <path fill="#A09f9d" stroke="none" d="M337.323,0H2.835A2.835,2.835,0,0,0,0,2.835V337.323a2.834,2.834,0,0,0,2.834,2.834H94.991a2.834,2.834,0,0,0,2.835-2.834V235.26h-.454L58.319,292.568H91.014v16.711H41.971V288.3l55.855-78.377H117.9v82.646h16.711v16.711H117.9v28.044a2.834,2.834,0,0,0,2.835,2.834h77.613a2.834,2.834,0,0,0,2.834-2.834V235.26h-.454l-39.053,57.308h32.7v16.711H145.325V288.3l55.854-78.377H221.25v82.646h16.711v16.711H221.25v28.044a2.835,2.835,0,0,0,2.835,2.834H272.1a2.834,2.834,0,0,0,2.835-2.834V248.248H242.967V231.537q22.887,0,33.15-11.535a20.285,20.285,0,0,0,4.722-10.08h17.347v127.4a2.834,2.834,0,0,0,2.835,2.834h36.3a2.834,2.834,0,0,0,2.834-2.834V2.834A2.834,2.834,0,0,0,337.323,0Z"/>
      </g>
    </g>
</svg>
