<svg xmlns="http://www.w3.org/2000/svg" width="120.001mm" height="120.001mm" viewBox="0 0 340.16 340.16">
  <g id="Zimmernummer">
      <g id="Z-03-003-R">
        <path fill="#A0552B" stroke="none" d="M340.16,2.835V337.326a2.834,2.834,0,0,1-2.835,2.834H289.083a1.162,1.162,0,0,1-.523-2.2l.06-.03c.43-.2.86-.409,1.29-.619a44.508,44.508,0,0,0,7.95-5.121,37.951,37.951,0,0,0,10.06-12.48,36.394,36.394,0,0,0,3.72-16.66q0-12.675-6.24-21.51a26.9,26.9,0,0,0-17.41-11.08v-.37q9.51-3.36,13.97-10.71a32.5,32.5,0,0,0,4.47-17.23,31.333,31.333,0,0,0-12.94-26.06,43.785,43.785,0,0,0-13.22-6.52,51.321,51.321,0,0,0-14.99-2.24,44.4,44.4,0,0,0-17.69,3.36A38.376,38.376,0,0,0,234.27,220a44.283,44.283,0,0,0-8.66,14.061,53.547,53.547,0,0,0-3.53,17.589H243.3a32.256,32.256,0,0,1,1.12-9.77,26.973,26.973,0,0,1,4.01-8.569,19.209,19.209,0,0,1,16.47-8.29q8.94,0,14.62,5.029t5.68,13.41a18.922,18.922,0,0,1-2.51,10.05,18.179,18.179,0,0,1-6.61,6.43,29.085,29.085,0,0,1-9.31,3.26,48.9,48.9,0,0,1-10.43.74v15.831a103.289,103.289,0,0,1,12.38.369,31.722,31.722,0,0,1,10.9,2.89,19.383,19.383,0,0,1,7.82,6.79q2.97,4.47,2.98,12.11,0,11.175-7.17,17.22-7.17,6.06-17.79,6.05-12.465,0-18.71-7.91t-5.87-19.83H219.66a58.277,58.277,0,0,0,3.16,18.62,39.762,39.762,0,0,0,8.66,14.34,36.469,36.469,0,0,0,9.31,7.02c.28.14.57.29.85.43l.06.03a1.194,1.194,0,0,1-.538,2.26H2.835A2.834,2.834,0,0,1,0,337.326V2.835A2.835,2.835,0,0,1,2.835,0h334.49A2.835,2.835,0,0,1,340.16,2.835Z"/>
      </g>
    </g>
</svg>
