<svg xmlns="http://www.w3.org/2000/svg" width="120.001mm" height="119.997mm" viewBox="0 0 340.16 340.15">
  <g id="Zimmernummer">
      <g id="Z-03-018-R">
        <path fill="#A0552B" stroke="none" d="M340.16,2.835V337.316a2.834,2.834,0,0,1-2.835,2.834H289.75a1.125,1.125,0,0,1-.42-2.17l.87-.42a40.01,40.01,0,0,0,8.41-5.57,36.761,36.761,0,0,0,9.59-12.94,41.3,41.3,0,0,0,3.44-17.13q0-12.285-6.42-20.67a30.768,30.768,0,0,0-17.41-11.17v-.37a27.806,27.806,0,0,0,13.69-10.34,28.6,28.6,0,0,0,4.74-16.48q0-16.755-10.52-26.16-9.435-8.43-26.14-9.3a1.3,1.3,0,0,0-1.36,1.29v14.36a1.3,1.3,0,0,0,1.14,1.28,20.73,20.73,0,0,1,10.81,4.85q5.97,5.115,5.96,14.8,0,9.315-5.77,14.25a20.6,20.6,0,0,1-10.99,4.69,1.3,1.3,0,0,0-1.15,1.28v13.71a1.3,1.3,0,0,0,1.17,1.28,25.169,25.169,0,0,1,13.95,5.85q7.08,6.06,7.08,16.85,0,11.55-7.08,17.88t-17.69,6.33q-10.62,0-17.69-6.33t-7.08-17.88q0-10.8,7.08-16.85a25.169,25.169,0,0,1,13.95-5.85,1.29,1.29,0,0,0,1.16-1.28V264.23a1.288,1.288,0,0,0-1.14-1.28,20.6,20.6,0,0,1-10.99-4.69q-5.775-4.935-5.77-14.25,0-9.675,5.96-14.8a20.7,20.7,0,0,1,10.81-4.85,1.294,1.294,0,0,0,1.13-1.28V208.72a1.289,1.289,0,0,0-1.35-1.29q-16.7.87-26.14,9.3-10.53,9.405-10.52,26.16a28.6,28.6,0,0,0,4.74,16.48,27.806,27.806,0,0,0,13.69,10.34v.37a30.735,30.735,0,0,0-17.41,11.17q-6.42,8.385-6.42,20.67a41.143,41.143,0,0,0,3.44,17.13,36.761,36.761,0,0,0,9.59,12.94,40.183,40.183,0,0,0,7.87,5.3c.42.21,1.27.62,1.27.62a1.161,1.161,0,0,1-.43,2.24H198.264a2.834,2.834,0,0,1-2.834-2.834V210.07H178.12a20.561,20.561,0,0,1-4.75,10.05,29.261,29.261,0,0,1-8.75,6.7,40.91,40.91,0,0,1-11.46,3.73,75.279,75.279,0,0,1-13.03,1.12v16.75h32.03v88.9a2.834,2.834,0,0,1-2.835,2.834H2.835A2.834,2.834,0,0,1,0,337.316V2.835A2.835,2.835,0,0,1,2.835,0h334.49A2.835,2.835,0,0,1,340.16,2.835Z"/>
      </g>
    </g>
</svg>
