<svg xmlns="http://www.w3.org/2000/svg" width="120.001mm" height="120.001mm" viewBox="0 0 340.16 340.16">
  <g id="Zimmernummer">
      <g id="Z-03-107-M">
        <path fill="#D4AF37" stroke="none" d="M337.325,0H2.834A2.834,2.834,0,0,0,0,2.834V337.325a2.835,2.835,0,0,0,2.835,2.835H67.8a2.835,2.835,0,0,0,2.835-2.835V248.43H38.6V231.67a74.307,74.307,0,0,0,13.03-1.12,40.581,40.581,0,0,0,11.46-3.72,29.29,29.29,0,0,0,8.75-6.71,20.519,20.519,0,0,0,4.75-10.05H93.9V337.325a2.834,2.834,0,0,0,2.834,2.835h37.687a1.286,1.286,0,0,0,.68-2.379c-.61-.37-1.2-.76-1.771-1.181a44.122,44.122,0,0,1-13.78-16.39,72.826,72.826,0,0,1-6.7-21.88,151.492,151.492,0,0,1,0-46.18,72.987,72.987,0,0,1,6.7-21.879,44.086,44.086,0,0,1,13.78-16.381q7.56-5.49,18.86-6.27a1.282,1.282,0,0,1,1.37,1.29v15.27a1.281,1.281,0,0,1-1.05,1.28,15.8,15.8,0,0,0-8.01,3.7,27.554,27.554,0,0,0-7.26,10.89,66.028,66.028,0,0,0-3.82,15.92,158.188,158.188,0,0,0-1.12,19.27,160.48,160.48,0,0,0,1.12,19.37,64.663,64.663,0,0,0,3.82,15.92,27.636,27.636,0,0,0,7.26,10.8,18.791,18.791,0,0,0,23.18,0,27.076,27.076,0,0,0,7.36-10.8,64.663,64.663,0,0,0,3.82-15.92,160.545,160.545,0,0,0,1.11-19.37,158.257,158.257,0,0,0-1.11-19.27,66.028,66.028,0,0,0-3.82-15.92,27,27,0,0,0-7.36-10.89,16.149,16.149,0,0,0-7.874-3.68,1.346,1.346,0,0,1-1.1-1.27v-15.3a1.287,1.287,0,0,1,1.37-1.29q11.3.8,18.87,6.27a44.179,44.179,0,0,1,13.78,16.381,73.275,73.275,0,0,1,6.7,21.879,151.492,151.492,0,0,1,0,46.18,73.112,73.112,0,0,1-6.7,21.88,44.216,44.216,0,0,1-13.78,16.39c-.569.419-1.167.808-1.766,1.177a1.287,1.287,0,0,0,.675,2.383h51.475a2.836,2.836,0,0,0,2.829-2.65c.041-.632.084-1.222.118-1.563a155.71,155.71,0,0,1,4.934-26.2,187.052,187.052,0,0,1,10.8-29.24,201.135,201.135,0,0,1,15.36-27.18,231.659,231.659,0,0,1,18.8-24.4h-67.59V209.94h89.19v17.69a234.429,234.429,0,0,0-18.62,23.93,174.609,174.609,0,0,0-14.61,26.25,177.894,177.894,0,0,0-10.15,29.33,188.418,188.418,0,0,0-4.9,29.294c-.015.162-.033.419-.051.726a2.834,2.834,0,0,0,2.83,3h79.048a2.835,2.835,0,0,0,2.835-2.835V2.834A2.834,2.834,0,0,0,337.325,0Z"/>
      </g>
    </g>
</svg>
