<svg xmlns="http://www.w3.org/2000/svg" width="120mm" height="120mm" viewBox="0 0 340.157 340.157">
  <g id="Zimmernummer">
      <g id="Z-03-626">
        <path fill="#000000" stroke="none" d="M337.323,0H2.834A2.834,2.834,0,0,0,0,2.834V337.323a2.834,2.834,0,0,0,2.834,2.834H39.991a2.834,2.834,0,0,0,1.6-5.167q-1.365-.972-2.615-2.052a38.7,38.7,0,0,1-8.719-10.807,62.4,62.4,0,0,1-5.4-13.488,90.08,90.08,0,0,1-2.77-15.258q-.773-7.989-.772-15.985a144.16,144.16,0,0,1,.954-16.482A97.312,97.312,0,0,1,25.493,244.8a70.9,70.9,0,0,1,6.04-14.623,46.694,46.694,0,0,1,9.308-11.9,40.736,40.736,0,0,1,13.123-7.992,48.671,48.671,0,0,1,17.484-2.906,38.928,38.928,0,0,1,26.338,10.08,37.123,37.123,0,0,1,8.355,11.217,35.8,35.8,0,0,1,3.542,14.213H88.522a24.06,24.06,0,0,0-1.726-6.9,19.227,19.227,0,0,0-3.632-5.72,16.471,16.471,0,0,0-5.405-3.86A16.748,16.748,0,0,0,70.812,225q-16.8,0-22.978,15.893a76.79,76.79,0,0,0-4.268,16.847,129.709,129.709,0,0,0-1.272,18.119q0,6.63.59,12.942t1.59,12.125a55.923,55.923,0,0,0,2.543,9.308,27.217,27.217,0,0,0,4.315,7.721,19.066,19.066,0,0,0,6.628,5.221,21.673,21.673,0,0,0,9.492,1.908A22.705,22.705,0,0,0,77.9,322.811a21.643,21.643,0,0,0,7.356-6,25.079,25.079,0,0,0,4.314-8.671,37.2,37.2,0,0,0,1.408-10.219,35.5,35.5,0,0,0-1.453-10.217,24.836,24.836,0,0,0-4.359-8.492,21,21,0,0,0-7.266-5.766,22.862,22.862,0,0,0-10.172-2.135,22.66,22.66,0,0,0-10.263,2.27,21.752,21.752,0,0,0-7.992,7.176q-.272-4.088-.272-8.084,0-2.812.136-5.494t.318-5.405a29.136,29.136,0,0,1,9.944-5.4,40.206,40.206,0,0,1,12.216-1.772,40.481,40.481,0,0,1,16.939,3.407,37.19,37.19,0,0,1,12.668,9.263,41.005,41.005,0,0,1,7.947,13.758,51.006,51.006,0,0,1,2.77,16.985A50.187,50.187,0,0,1,109,316.045a41.819,41.819,0,0,1-8.808,14.168,37.147,37.147,0,0,1-5.621,4.809,2.83,2.83,0,0,0,1.647,5.135h26.714a2.822,2.822,0,0,0,2.823-2.658q1.536-28.178,28.52-46.657,6.356-4.632,13.26-8.99,25.519-16.167,25.974-33.786,0-9.263-3.269-13.8a24.439,24.439,0,0,0-7.538-6.9A21.829,21.829,0,0,0,171.9,225q-6.63,0-10.808,2.543-11.171,6.811-11.806,30.061H128.029q0-22.251,11.806-36.237t33.059-13.986q21.252,0,32.877,13.713,8.991,10.989,8.991,26.248,0,20.071-18.255,35.51A149.587,149.587,0,0,1,178.434,296.2q-9.447,5.994-14.168,9.535-10.809,8.087-13.169,15.44h63.484v16.147a2.834,2.834,0,0,0,2.834,2.834H246.7a2.837,2.837,0,0,0,1.594-5.177q-1.349-.959-2.606-2.042a38.7,38.7,0,0,1-8.719-10.807,62.4,62.4,0,0,1-5.4-13.488,90.08,90.08,0,0,1-2.77-15.258q-.773-7.989-.772-15.985a144.16,144.16,0,0,1,.954-16.482A97.312,97.312,0,0,1,232.2,244.8a70.9,70.9,0,0,1,6.04-14.623,46.694,46.694,0,0,1,9.308-11.9,40.736,40.736,0,0,1,13.123-7.992,48.671,48.671,0,0,1,17.484-2.906,38.928,38.928,0,0,1,26.338,10.08,37.123,37.123,0,0,1,8.355,11.217,35.8,35.8,0,0,1,3.542,14.213H295.229a24.06,24.06,0,0,0-1.726-6.9,19.227,19.227,0,0,0-3.632-5.72,16.471,16.471,0,0,0-5.4-3.86A16.748,16.748,0,0,0,277.519,225q-16.8,0-22.977,15.893a76.735,76.735,0,0,0-4.269,16.847A129.709,129.709,0,0,0,249,275.857q0,6.63.59,12.942t1.59,12.125a55.923,55.923,0,0,0,2.543,9.308,27.217,27.217,0,0,0,4.315,7.721,19.066,19.066,0,0,0,6.628,5.221,21.673,21.673,0,0,0,9.492,1.908,22.705,22.705,0,0,0,10.444-2.271,21.643,21.643,0,0,0,7.356-6,25.079,25.079,0,0,0,4.314-8.671,37.2,37.2,0,0,0,1.408-10.219,35.5,35.5,0,0,0-1.453-10.217,24.836,24.836,0,0,0-4.359-8.492,21,21,0,0,0-7.266-5.766,24.8,24.8,0,0,0-20.435.135,21.752,21.752,0,0,0-7.992,7.176q-.271-4.088-.272-8.084,0-2.812.137-5.494t.317-5.405a29.136,29.136,0,0,1,9.944-5.4,43.47,43.47,0,0,1,29.155,1.635,37.19,37.19,0,0,1,12.668,9.263,41.005,41.005,0,0,1,7.947,13.758,51.006,51.006,0,0,1,2.77,16.985,50.187,50.187,0,0,1-3.134,18.027,41.819,41.819,0,0,1-8.808,14.168,38.42,38.42,0,0,1-5.592,4.819,2.83,2.83,0,0,0,1.661,5.125h34.354a2.834,2.834,0,0,0,2.834-2.834V2.834A2.834,2.834,0,0,0,337.323,0Z"/>
      </g>
    </g>
</svg>
