<svg xmlns="http://www.w3.org/2000/svg" width="120.001mm" height="119.997mm" viewBox="0 0 340.16 340.149">
  <g id="Zimmernummer">
      <g id="Z-03-201">
        <path fill="#000000" stroke="none" d="M0,2.835V337.8a2.344,2.344,0,0,0,2.345,2.345H30.9a2.33,2.33,0,0,0,2.328-2.226l0-.036a52.182,52.182,0,0,1,7.75-25.9,71.51,71.51,0,0,1,20.86-21.05q6.329-4.65,13.219-9.03a104.294,104.294,0,0,0,12.66-9.4,50.153,50.153,0,0,0,9.5-10.89,25.928,25.928,0,0,0,3.911-13.5,37.025,37.025,0,0,0-.84-7.55,20.033,20.033,0,0,0-3.26-7.44,19.285,19.285,0,0,0-6.7-5.78c-2.861-1.55-6.58-2.32-11.18-2.32a20.128,20.128,0,0,0-10.52,2.51,18.864,18.864,0,0,0-6.7,6.89,34.12,34.12,0,0,0-3.719,10.33,74.129,74.129,0,0,0-1.4,12.85H35.576a66.5,66.5,0,0,1,2.889-20.01,44.189,44.189,0,0,1,8.661-15.92,40.8,40.8,0,0,1,14.06-10.53,45.669,45.669,0,0,1,19.27-3.81q11.91,0,19.92,3.91a38.121,38.121,0,0,1,12.94,9.87,36.094,36.094,0,0,1,6.989,12.94,47.4,47.4,0,0,1,2.04,13.31,39.167,39.167,0,0,1-2.42,14.15,45.324,45.324,0,0,1-6.509,11.64,66.654,66.654,0,0,1-9.31,9.78q-5.22,4.47-10.8,8.38t-11.179,7.44q-5.58,3.54-10.33,7.08a60.319,60.319,0,0,0-8.29,7.36,20.8,20.8,0,0,0-4.84,8.1h63.5V337.8a2.344,2.344,0,0,0,2.345,2.345h38.2a1.411,1.411,0,0,0,.769-2.6c-.467-.3-.918-.6-1.363-.924a43.729,43.729,0,0,1-13.65-16.24,72.549,72.549,0,0,1-6.651-21.68,150.379,150.379,0,0,1,0-45.75,72.54,72.54,0,0,1,6.651-21.68,43.651,43.651,0,0,1,13.65-16.24q7.484-5.43,18.69-6.21a1.277,1.277,0,0,1,1.36,1.279V225.24a1.355,1.355,0,0,1-1.111,1.281,15.689,15.689,0,0,0-7.869,3.649,27.315,27.315,0,0,0-7.2,10.79,65.464,65.464,0,0,0-3.779,15.78,155.361,155.361,0,0,0-1.11,19.09,157.509,157.509,0,0,0,1.11,19.19,64.1,64.1,0,0,0,3.779,15.78,27.4,27.4,0,0,0,7.2,10.7,18.634,18.634,0,0,0,22.97,0,27.012,27.012,0,0,0,7.289-10.7,64.1,64.1,0,0,0,3.781-15.78,157.516,157.516,0,0,0,1.109-19.19,155.368,155.368,0,0,0-1.109-19.09,65.461,65.461,0,0,0-3.781-15.78,26.931,26.931,0,0,0-7.289-10.79,16,16,0,0,0-7.87-3.65,1.274,1.274,0,0,1-1.02-1.25V210.109a1.279,1.279,0,0,1,1.357-1.279q11.192.778,18.692,6.21a43.746,43.746,0,0,1,13.651,16.24,72.567,72.567,0,0,1,6.65,21.68,150.379,150.379,0,0,1,0,45.75,72.576,72.576,0,0,1-6.65,21.68,43.825,43.825,0,0,1-13.651,16.24c-.436.314-.877.615-1.334.906a1.411,1.411,0,0,0,.736,2.613h70.244a2.834,2.834,0,0,0,2.834-2.834V249.14H248.07V232.53a74.991,74.991,0,0,0,12.911-1.1,40.587,40.587,0,0,0,11.35-3.69,29.217,29.217,0,0,0,8.67-6.65,20.182,20.182,0,0,0,4.7-9.96h17.16V337.315a2.835,2.835,0,0,0,2.835,2.834h31.63a2.834,2.834,0,0,0,2.835-2.834V2.835A2.835,2.835,0,0,0,337.325,0H2.835A2.835,2.835,0,0,0,0,2.835Z"/>
      </g>
    </g>
</svg>
