<svg xmlns="http://www.w3.org/2000/svg" width="120mm" height="120mm" viewBox="0 0 340.157 340.157">
  <g id="Zimmernummer">
      <g id="Z-03-028-M">
        <path fill="#D4AF37" stroke="none" d="M337.323,0H2.835A2.835,2.835,0,0,0,0,2.835V337.323a2.834,2.834,0,0,0,2.835,2.834H114.418a2.821,2.821,0,0,0,2.822-2.649q1.628-28.032,28.5-46.443,6.356-4.63,13.26-8.991,25.519-16.164,25.975-33.785,0-9.264-3.27-13.8a24.447,24.447,0,0,0-7.538-6.9,21.829,21.829,0,0,0-10.808-2.361q-6.63,0-10.807,2.543-11.172,6.811-11.807,30.061H119.5q0-22.251,11.807-36.237T164.36,207.6q21.252,0,32.877,13.713,8.991,10.99,8.992,26.247,0,20.073-18.255,35.511A149.57,149.57,0,0,1,169.9,296.424q-9.446,5.994-14.168,9.536-10.809,8.085-13.169,15.439h63.484v15.924a2.834,2.834,0,0,0,2.835,2.834H234.1a2.831,2.831,0,0,0,1.542-5.2,39.293,39.293,0,0,1-3.163-2.338,36.422,36.422,0,0,1-9.9-12.8,41.065,41.065,0,0,1-3.633-17.756,36.551,36.551,0,0,1,1.681-11.353,31.191,31.191,0,0,1,4.768-9.264,29,29,0,0,1,7.538-6.948,32.939,32.939,0,0,1,9.9-4.222V269.9a26.967,26.967,0,0,1-18.436-26.792,38.868,38.868,0,0,1,2.724-15.122,29.344,29.344,0,0,1,7.675-10.852,34.817,34.817,0,0,1,11.761-6.721,52.753,52.753,0,0,1,14.985-2.725v16.8a20.715,20.715,0,0,0-12.488,6.313q-4.587,5.039-4.586,13.3,0,8.175,4.5,13.123t12.579,5.95V279.35a26.867,26.867,0,0,0-8.764,2.27,21.3,21.3,0,0,0-6.721,4.769,21.08,21.08,0,0,0-4.314,6.992,27.36,27.36,0,0,0,.318,18.982,21.842,21.842,0,0,0,5.131,7.492A22.134,22.134,0,0,0,255,324.578a30.787,30.787,0,0,0,19.8,0,22.619,22.619,0,0,0,7.856-4.723,21.481,21.481,0,0,0,5.177-7.538,27.865,27.865,0,0,0,.363-19.026,19.7,19.7,0,0,0-4.314-6.948,22.435,22.435,0,0,0-6.721-4.723,26.556,26.556,0,0,0-8.809-2.27V263.184q8.082-1,12.533-5.858t4.45-13.033q0-8.264-4.5-13.441t-12.487-6.358v-16.8a51.248,51.248,0,0,1,15.848,2.953,33.388,33.388,0,0,1,11.67,7.128,29.8,29.8,0,0,1,7.175,10.9,39.892,39.892,0,0,1,2.452,14.44,28.812,28.812,0,0,1-4.677,16.484A27.456,27.456,0,0,1,287.059,269.9v.364a33.209,33.209,0,0,1,9.763,4.177,30.117,30.117,0,0,1,12.4,15.621,31.56,31.56,0,0,1,1.725,10.536,45.254,45.254,0,0,1-3.451,18.254,37.447,37.447,0,0,1-9.581,13.306,37.989,37.989,0,0,1-3.665,2.851,2.83,2.83,0,0,0,1.638,5.144h41.438a2.834,2.834,0,0,0,2.834-2.834V2.834A2.834,2.834,0,0,0,337.323,0Z"/>
      </g>
    </g>
</svg>
