<svg xmlns="http://www.w3.org/2000/svg" width="120mm" height="120mm" viewBox="0 0 340.157 340.157">
  <g id="Zimmernummer">
      <g id="Z-03-053-M">
        <path fill="#D4AF37" stroke="none" d="M337.323,0H2.835A2.835,2.835,0,0,0,0,2.835V337.323a2.834,2.834,0,0,0,2.835,2.834H134.021a2.831,2.831,0,0,0,1.527-5.214q-1.683-1.105-3.244-2.365-12.717-10.263-13.442-29.426h21.161q.907,10.716,7.266,16.348T164,325.13q23.793,0,24.249-28.608,0-18.345-13.714-24.976a24.523,24.523,0,0,0-11.08-2.179q-16.62,0-20.979,11.9H121.224L135.21,209.97h67.3v18.982H151.013L144.292,262.1l.363.363q8.808-9.9,25.612-9.9a39.528,39.528,0,0,1,15.712,3.269q14.985,6.45,20.707,22.978a50.891,50.891,0,0,1,2.724,16.529q0,18.711-10.535,31.969a42.821,42.821,0,0,1-8,7.754,2.837,2.837,0,0,0,1.73,5.093H236.9a2.835,2.835,0,0,0,1.605-5.168q-9.347-6.649-13.931-18.941A57.907,57.907,0,0,1,221.4,297.43H242.65q-.272,11.9,5.9,19.8t17.71,7.9q11.532,0,18.709-5.994t7.174-17.256q0-13.623-10.807-18.89-7.629-3.725-23.25-3.27v-15.8q19.344.636,26.338-10.353,2.451-4.088,2.452-11.262a15.676,15.676,0,0,0-5.631-12.17,18.7,18.7,0,0,0-12.9-5.086q-17.711-.089-22.161,16.893a32.54,32.54,0,0,0-1.089,9.718H223.851q.725-18.982,12.17-31.606t30.969-12.624a47.987,47.987,0,0,1,28.7,8.991q12.441,9.083,12.443,25.793,0,21.343-18.437,27.882v.364a27.2,27.2,0,0,1,17.438,11.08,33.6,33.6,0,0,1,6.266,19.8q-.091,19.709-13.623,30.607a49.1,49.1,0,0,1-4.173,3.017,2.828,2.828,0,0,0,1.549,5.2h40.171a2.834,2.834,0,0,0,2.834-2.834V2.834A2.834,2.834,0,0,0,337.323,0Z"/>
      </g>
    </g>
</svg>
