<svg xmlns="http://www.w3.org/2000/svg" width="120mm" height="120mm" viewBox="0 0 340.158 340.158">
  <g id="Zimmernummer">
      <g id="Z-03-532">
        <path fill="#000000" stroke="none" d="M337.323,0H2.835A2.835,2.835,0,0,0,0,2.835V337.323a2.835,2.835,0,0,0,2.835,2.835H37.049a2.831,2.831,0,0,0,1.524-5.215q-1.722-1.126-3.317-2.414Q22.541,322.266,21.814,303.1H42.977q.9,10.717,7.265,16.348t16.711,5.631q23.791,0,24.248-28.609,0-18.344-13.713-24.975a24.507,24.507,0,0,0-11.08-2.18q-16.62,0-20.98,11.9H24.176l13.986-71.294h67.3V228.9h-51.5l-6.721,33.149.363.364q8.81-9.9,25.612-9.9a39.513,39.513,0,0,1,15.713,3.27q14.985,6.448,20.707,22.977a50.891,50.891,0,0,1,2.724,16.529q0,18.711-10.535,31.969a42.8,42.8,0,0,1-8.055,7.8,2.84,2.84,0,0,0,1.727,5.1h44.417a2.835,2.835,0,0,0,1.6-5.172q-9.39-6.656-13.988-18.986a57.919,57.919,0,0,1-3.177-18.619H145.6q-.273,11.9,5.9,19.8t17.711,7.9q11.53,0,18.709-6t7.174-17.255q0-13.623-10.807-18.891-7.629-3.724-23.25-3.27v-15.8q19.344.634,26.338-10.354,2.452-4.086,2.451-11.262a15.674,15.674,0,0,0-5.631-12.17,18.691,18.691,0,0,0-12.9-5.085q-17.711-.09-22.16,16.892a32.61,32.61,0,0,0-1.09,9.718H126.8q.726-18.981,12.17-31.606t30.97-12.624a47.989,47.989,0,0,1,28.7,8.992q12.442,9.081,12.441,25.793,0,21.342-18.436,27.881v.364a27.2,27.2,0,0,1,17.438,11.08,33.6,33.6,0,0,1,6.266,19.8q-.092,19.707-13.623,30.606a49,49,0,0,1-4.249,3.064,2.829,2.829,0,0,0,1.546,5.2h26.488a2.821,2.821,0,0,0,2.822-2.659q1.537-28.176,28.521-46.657,6.355-4.632,13.26-8.991,25.521-16.164,25.975-33.785,0-9.264-3.27-13.805a24.428,24.428,0,0,0-7.539-6.9A21.821,21.821,0,0,0,275.477,225q-6.63,0-10.809,2.543Q253.5,234.353,252.861,257.6H231.609q0-22.251,11.807-36.237t33.059-13.987q21.252,0,32.877,13.714,8.991,10.989,8.992,26.247,0,20.073-18.256,35.511A149.734,149.734,0,0,1,282.016,296.2q-9.449,5.994-14.168,9.536-10.81,8.083-13.17,15.439h63.484v16.147A2.835,2.835,0,0,0,321,340.158h16.326a2.836,2.836,0,0,0,2.835-2.835V2.835A2.835,2.835,0,0,0,337.323,0Z"/>
      </g>
    </g>
</svg>
