<svg xmlns="http://www.w3.org/2000/svg" width="120.001mm" height="120.001mm" viewBox="0 0 340.16 340.16">
  <g id="Zimmernummer">
      <g id="Z-03-002-M">
        <path fill="#D4AF37" stroke="none" d="M337.325,0H2.834A2.834,2.834,0,0,0,0,2.834V337.326a2.834,2.834,0,0,0,2.834,2.834H218.925a2.833,2.833,0,0,0,2.833-2.728c.006-.178.013-.326.019-.425a51.889,51.889,0,0,1,7.7-25.017,71.522,71.522,0,0,1,20.86-21.05q6.33-4.65,13.22-9.03a104.45,104.45,0,0,0,12.66-9.4,50.207,50.207,0,0,0,9.5-10.89,25.936,25.936,0,0,0,3.91-13.5,36.955,36.955,0,0,0-.84-7.55,20.017,20.017,0,0,0-3.26-7.44,19.276,19.276,0,0,0-6.7-5.78q-4.29-2.325-11.18-2.32a20.133,20.133,0,0,0-10.52,2.51,18.854,18.854,0,0,0-6.7,6.89,34.094,34.094,0,0,0-3.72,10.33,74.131,74.131,0,0,0-1.4,12.85H224.08a66.466,66.466,0,0,1,2.89-20.01,44.187,44.187,0,0,1,8.66-15.92,40.813,40.813,0,0,1,14.06-10.53,45.669,45.669,0,0,1,19.27-3.81q11.91,0,19.92,3.91a38.111,38.111,0,0,1,12.94,9.87,36.112,36.112,0,0,1,6.99,12.94,47.431,47.431,0,0,1,2.04,13.31,39.189,39.189,0,0,1-2.42,14.15,45.357,45.357,0,0,1-6.51,11.64,66.6,66.6,0,0,1-9.31,9.78q-5.22,4.47-10.8,8.38-5.6,3.9-11.18,7.44t-10.33,7.08a60.319,60.319,0,0,0-8.29,7.36,20.8,20.8,0,0,0-4.84,8.1h63.5v16.026a2.834,2.834,0,0,0,2.835,2.834h23.82a2.834,2.834,0,0,0,2.835-2.834V2.834A2.834,2.834,0,0,0,337.325,0Z"/>
      </g>
    </g>
</svg>
