<svg xmlns="http://www.w3.org/2000/svg" width="120mm" height="120mm" viewBox="0 0 340.158 340.158">
  <g id="Zimmernummer">
      <g id="Z-03-412-R">
        <path fill="#A0552B" stroke="none" d="M337.323,0H2.834A2.834,2.834,0,0,0,0,2.834V337.323a2.835,2.835,0,0,0,2.835,2.835H88.67a2.835,2.835,0,0,0,2.835-2.835V235.26h-.454L52,292.568h32.7v16.711H35.65V288.3l55.855-78.378h20.071v82.647h16.711v16.711H111.576v28.044a2.835,2.835,0,0,0,2.835,2.835h48.016a2.834,2.834,0,0,0,2.834-2.835V248.248H133.293V231.537q22.887,0,33.149-11.535a20.3,20.3,0,0,0,4.723-10.081h17.346v127.4a2.835,2.835,0,0,0,2.835,2.835h21.333A2.822,2.822,0,0,0,215.5,337.5q1.536-28.178,28.52-46.657,6.357-4.632,13.26-8.991,25.521-16.164,25.975-33.785,0-9.264-3.27-13.805a24.436,24.436,0,0,0-7.538-6.9A21.826,21.826,0,0,0,261.64,225q-6.63,0-10.807,2.543-11.172,6.811-11.807,30.061H217.774q0-22.251,11.807-36.237t33.058-13.987q21.252,0,32.877,13.714,8.991,10.989,8.992,26.247,0,20.073-18.255,35.511A149.676,149.676,0,0,1,268.179,296.2q-9.445,5.994-14.168,9.536-10.809,8.083-13.168,15.439h63.483v16.147a2.835,2.835,0,0,0,2.835,2.835h30.162a2.835,2.835,0,0,0,2.835-2.835V2.835A2.835,2.835,0,0,0,337.323,0Z"/>
      </g>
    </g>
</svg>
