<svg xmlns="http://www.w3.org/2000/svg" width="120mm" height="120mm" viewBox="0 0 340.157 340.157">
  <g id="Zimmernummer">
      <g id="Z-03-433-M">
        <path fill="#D4AF37" stroke="none" d="M337.323,0H2.835A2.835,2.835,0,0,0,0,2.835V337.323a2.834,2.834,0,0,0,2.835,2.834H73.109a2.835,2.835,0,0,0,2.835-2.834V235.26H75.49L36.437,292.568h32.7v16.711H20.089V288.3l55.855-78.378H96.015v82.647h16.711v16.711H96.015v28.044a2.834,2.834,0,0,0,2.835,2.834h41.43a2.835,2.835,0,0,0,1.6-5.172q-9.388-6.654-13.987-18.985a57.918,57.918,0,0,1-3.179-18.619h21.252q-.273,11.9,5.9,19.8t17.71,7.9q11.534,0,18.709-6t7.175-17.255q0-13.623-10.807-18.891-7.629-3.724-23.25-3.27v-15.8q19.344.634,26.337-10.354,2.452-4.086,2.453-11.262a15.674,15.674,0,0,0-5.631-12.17,18.694,18.694,0,0,0-12.9-5.085q-17.709-.09-22.16,16.892a32.545,32.545,0,0,0-1.09,9.718H127.166q.727-18.981,12.17-31.606t30.97-12.624a47.984,47.984,0,0,1,28.7,8.992q12.443,9.081,12.443,25.793,0,21.342-18.437,27.881v.364a27.2,27.2,0,0,1,17.437,11.08,33.6,33.6,0,0,1,6.267,19.8q-.09,19.707-13.623,30.606a48.838,48.838,0,0,1-4.248,3.064,2.828,2.828,0,0,0,1.546,5.2h43.244a2.835,2.835,0,0,0,1.6-5.172q-9.39-6.654-13.988-18.985a57.918,57.918,0,0,1-3.178-18.619H249.32q-.273,11.9,5.9,19.8t17.71,7.9q11.532,0,18.709-6t7.175-17.255q0-13.623-10.808-18.891-7.629-3.724-23.25-3.27v-15.8q19.346.634,26.338-10.354,2.453-4.086,2.452-11.262a15.674,15.674,0,0,0-5.631-12.17,18.693,18.693,0,0,0-12.9-5.085q-17.711-.09-22.16,16.892a32.545,32.545,0,0,0-1.09,9.718H230.52q.726-18.981,12.17-31.606t30.969-12.624a47.987,47.987,0,0,1,28.7,8.992q12.443,9.081,12.442,25.793,0,21.342-18.436,27.881v.364a27.2,27.2,0,0,1,17.437,11.08,33.6,33.6,0,0,1,6.267,19.8q-.092,19.707-13.623,30.606a49,49,0,0,1-4.249,3.064,2.828,2.828,0,0,0,1.547,5.2h33.579a2.834,2.834,0,0,0,2.834-2.834V2.834A2.834,2.834,0,0,0,337.323,0Z"/>
      </g>
    </g>
</svg>
