<svg xmlns="http://www.w3.org/2000/svg" width="120mm" height="120mm" viewBox="0 0 340.157 340.157">
  <g id="Zimmernummer">
      <g id="Z-03-037-R">
        <path fill="#A0552B" stroke="none" d="M337.323,0H2.835A2.835,2.835,0,0,0,0,2.835V337.323a2.834,2.834,0,0,0,2.834,2.834H133.975a2.828,2.828,0,0,0,1.648-5.129q-9.217-6.635-13.762-18.805a57.918,57.918,0,0,1-3.179-18.619h21.252q-.272,11.9,5.9,19.8t17.71,7.9q11.532,0,18.709-5.994t7.174-17.256q0-13.623-10.807-18.891-7.629-3.723-23.25-3.269v-15.8q19.344.636,26.338-10.354,2.451-4.086,2.452-11.261a15.671,15.671,0,0,0-5.631-12.17,18.69,18.69,0,0,0-12.9-5.086q-17.709-.09-22.16,16.892a32.577,32.577,0,0,0-1.09,9.718H121.135q.726-18.981,12.169-31.6t30.97-12.624a47.987,47.987,0,0,1,28.7,8.991q12.442,9.081,12.443,25.793,0,21.342-18.437,27.882v.363a27.206,27.206,0,0,1,17.438,11.08,33.613,33.613,0,0,1,6.266,19.8q-.09,19.707-13.623,30.606-1.9,1.532-3.914,2.847a2.829,2.829,0,0,0,1.556,5.194h42.817a2.837,2.837,0,0,0,2.82-2.6q3.846-43.192,31.194-84a235.142,235.142,0,0,1,18.8-24.431h-67.48V210.145h89.095v17.709q-32.514,36.51-43.412,79.377a187.974,187.974,0,0,0-4.914,29.861,2.834,2.834,0,0,0,2.828,3.065h70.873a2.834,2.834,0,0,0,2.834-2.834V2.835A2.834,2.834,0,0,0,337.323,0Z"/>
      </g>
    </g>
</svg>
