<svg xmlns="http://www.w3.org/2000/svg" width="120mm" height="120mm" viewBox="0 0 340.157 340.157">
  <g id="Zimmernummer">
      <g id="Z-03-621">
        <path fill="#000000" stroke="none" d="M337.323,0H2.834A2.834,2.834,0,0,0,0,2.834V337.323a2.834,2.834,0,0,0,2.834,2.834H55.976a2.834,2.834,0,0,0,1.6-5.167q-1.363-.972-2.615-2.052a38.673,38.673,0,0,1-8.718-10.807,62.351,62.351,0,0,1-5.405-13.488,89.981,89.981,0,0,1-2.769-15.258Q37.3,285.4,37.3,277.4a144.389,144.389,0,0,1,.954-16.482A97.312,97.312,0,0,1,41.477,244.8a70.956,70.956,0,0,1,6.04-14.623,46.7,46.7,0,0,1,9.309-11.9,40.714,40.714,0,0,1,13.123-7.992,48.666,48.666,0,0,1,17.483-2.906,38.923,38.923,0,0,1,26.338,10.08,37.123,37.123,0,0,1,8.355,11.217,35.785,35.785,0,0,1,3.542,14.213H104.506a24.091,24.091,0,0,0-1.725-6.9,19.209,19.209,0,0,0-3.633-5.72,16.477,16.477,0,0,0-5.4-3.86A16.753,16.753,0,0,0,86.8,225q-16.8,0-22.977,15.893a76.791,76.791,0,0,0-4.269,16.847,129.86,129.86,0,0,0-1.271,18.119q0,6.63.59,12.942t1.589,12.125A56.019,56.019,0,0,0,63,310.232a27.241,27.241,0,0,0,4.315,7.721,19.06,19.06,0,0,0,6.629,5.221,21.672,21.672,0,0,0,9.491,1.908,22.7,22.7,0,0,0,10.444-2.271,21.657,21.657,0,0,0,7.357-6,25.078,25.078,0,0,0,4.313-8.671,37.165,37.165,0,0,0,1.408-10.219,35.5,35.5,0,0,0-1.453-10.217,24.818,24.818,0,0,0-4.359-8.492,20.978,20.978,0,0,0-7.266-5.766,22.859,22.859,0,0,0-10.172-2.135,22.653,22.653,0,0,0-10.262,2.27,21.736,21.736,0,0,0-7.992,7.176q-.273-4.088-.273-8.084,0-2.812.137-5.494t.317-5.405a29.14,29.14,0,0,1,9.945-5.4A40.2,40.2,0,0,1,87.8,254.605a40.478,40.478,0,0,1,16.939,3.407,37.194,37.194,0,0,1,12.669,9.263,41.02,41.02,0,0,1,7.946,13.758,50.981,50.981,0,0,1,2.771,16.985,50.187,50.187,0,0,1-3.134,18.027,41.837,41.837,0,0,1-8.809,14.168,38.36,38.36,0,0,1-5.591,4.819,2.83,2.83,0,0,0,1.661,5.125h26.671a2.82,2.82,0,0,0,2.822-2.658q1.537-28.178,28.52-46.657,6.357-4.632,13.26-8.99,25.521-16.167,25.975-33.786,0-9.263-3.27-13.8a24.428,24.428,0,0,0-7.538-6.9A21.826,21.826,0,0,0,187.879,225q-6.63,0-10.807,2.543Q165.9,234.353,165.265,257.6H144.013q0-22.251,11.807-36.237t33.058-13.986q21.252,0,32.877,13.713,8.993,10.989,8.992,26.248,0,20.071-18.255,35.51A149.676,149.676,0,0,1,194.418,296.2q-9.445,5.994-14.168,9.535-10.809,8.087-13.168,15.44h63.483v16.147a2.834,2.834,0,0,0,2.835,2.834h43.373a2.834,2.834,0,0,0,2.835-2.834V248.248H247.639V231.537q22.887,0,33.15-11.535a20.294,20.294,0,0,0,4.722-10.08h17.347v127.4a2.834,2.834,0,0,0,2.835,2.834h31.63a2.834,2.834,0,0,0,2.834-2.834V2.834A2.834,2.834,0,0,0,337.323,0Z"/>
      </g>
    </g>
</svg>
