<svg xmlns="http://www.w3.org/2000/svg" width="120mm" height="120mm" viewBox="0 0 340.157 340.157">
  <g id="Zimmernummer">
      <g id="Z-03-239-R">
        <path fill="#A0552B" stroke="none" d="M337.323,0H2.835A2.835,2.835,0,0,0,0,2.835V337.323a2.834,2.834,0,0,0,2.835,2.834H20.311a2.822,2.822,0,0,0,2.822-2.645q1.662-27.975,28.5-46.36,6.356-4.632,13.259-8.991Q90.407,266,90.862,248.376q0-9.264-3.269-13.805a24.45,24.45,0,0,0-7.539-6.9,21.825,21.825,0,0,0-10.807-2.361q-6.632,0-10.808,2.543-11.171,6.811-11.806,30.061H25.381q0-22.251,11.806-36.237t33.059-13.987q21.252,0,32.877,13.714,8.991,10.991,8.991,26.247,0,20.073-18.255,35.511a149.744,149.744,0,0,1-18.073,13.351q-9.447,5.994-14.168,9.536-10.809,8.085-13.169,15.439h63.483v15.837a2.834,2.834,0,0,0,2.835,2.834h22.451a2.828,2.828,0,0,0,1.657-5.122q-9.139-6.627-13.657-18.725a57.864,57.864,0,0,1-3.179-18.619h21.252q-.273,11.9,5.9,19.8t17.71,7.9q11.534,0,18.709-6t7.175-17.255q0-13.623-10.808-18.891-7.629-3.723-23.25-3.27v-15.8q19.346.636,26.338-10.354,2.452-4.086,2.452-11.262a15.674,15.674,0,0,0-5.631-12.169,18.688,18.688,0,0,0-12.9-5.086q-17.71-.09-22.16,16.892a32.545,32.545,0,0,0-1.09,9.718H124.491q.725-18.981,12.17-31.606t30.97-12.624a47.992,47.992,0,0,1,28.7,8.992q12.441,9.081,12.442,25.793,0,21.342-18.436,27.881v.364a27.2,27.2,0,0,1,17.437,11.08,33.6,33.6,0,0,1,6.267,19.8q-.093,19.707-13.623,30.606-1.842,1.484-3.786,2.762a2.829,2.829,0,0,0,1.558,5.192h43.758a2.83,2.83,0,0,0,1.766-5.05q-1.291-.987-2.5-2.086a37.069,37.069,0,0,1-8.356-11.217,35.755,35.755,0,0,1-3.542-14.213H250.48a24.037,24.037,0,0,0,1.726,6.9,19.2,19.2,0,0,0,3.633,5.722,16.457,16.457,0,0,0,5.4,3.86,16.751,16.751,0,0,0,6.947,1.407q16.8,0,22.978-15.893a76.728,76.728,0,0,0,4.268-16.848,129.8,129.8,0,0,0,1.272-18.118q0-6.628-.59-12.942t-1.59-12.124a56,56,0,0,0-2.543-9.31,27.3,27.3,0,0,0-4.313-7.719,19.052,19.052,0,0,0-6.63-5.222,21.657,21.657,0,0,0-9.491-1.908,22.7,22.7,0,0,0-10.445,2.271,21.68,21.68,0,0,0-7.356,5.994,25.092,25.092,0,0,0-4.314,8.628,37,37,0,0,0-1.408,10.263,35.456,35.456,0,0,0,1.453,10.217,24.758,24.758,0,0,0,4.36,8.492,20.966,20.966,0,0,0,7.265,5.767,24.81,24.81,0,0,0,20.435-.136,21.764,21.764,0,0,0,7.992-7.175q.273,4.086.272,8.083,0,2.815-.135,5.494t-.319,5.4a29.1,29.1,0,0,1-9.944,5.4,43.487,43.487,0,0,1-29.153-1.634,37.256,37.256,0,0,1-12.67-9.264,41.015,41.015,0,0,1-7.947-13.76,50.964,50.964,0,0,1-2.77-16.983A50.218,50.218,0,0,1,230,234.435a41.841,41.841,0,0,1,8.809-14.168A39.621,39.621,0,0,1,252.478,211a45.811,45.811,0,0,1,17.71-3.315,50.8,50.8,0,0,1,17.211,2.634,39.709,39.709,0,0,1,12.624,7.22,38.739,38.739,0,0,1,8.719,10.809,62.462,62.462,0,0,1,5.4,13.486,90.415,90.415,0,0,1,2.771,15.258q.769,7.992.771,15.984a144.841,144.841,0,0,1-.953,16.439,97.534,97.534,0,0,1-3.224,16.166,71.091,71.091,0,0,1-6.04,14.622,46.764,46.764,0,0,1-9.309,11.9,37.954,37.954,0,0,1-3.488,2.84,2.829,2.829,0,0,0,1.673,5.114h40.977a2.834,2.834,0,0,0,2.834-2.834V2.835A2.834,2.834,0,0,0,337.323,0Z"/>
      </g>
    </g>
</svg>
