<svg xmlns="http://www.w3.org/2000/svg" width="120mm" height="120mm" viewBox="0 0 340.157 340.158">
  <g id="Zimmernummer">
      <g id="Z-03-067-M">
        <path fill="#D4AF37" stroke="none" d="M337.322,0H2.834A2.834,2.834,0,0,0,0,2.834V337.323a2.835,2.835,0,0,0,2.835,2.835H141.284a2.832,2.832,0,0,0,1.63-5.147q-1.374-.984-2.643-2.08a38.694,38.694,0,0,1-8.719-10.806,62.387,62.387,0,0,1-5.4-13.489,89.963,89.963,0,0,1-2.77-15.258q-.772-7.989-.772-15.984a144.389,144.389,0,0,1,.954-16.482,97.312,97.312,0,0,1,3.224-16.121,70.939,70.939,0,0,1,6.039-14.624,46.692,46.692,0,0,1,9.309-11.9,40.7,40.7,0,0,1,13.124-7.992,48.64,48.64,0,0,1,17.483-2.906,38.916,38.916,0,0,1,26.338,10.08,37.119,37.119,0,0,1,8.355,11.216,35.827,35.827,0,0,1,3.542,14.213H189.813a24.086,24.086,0,0,0-1.726-6.9,19.232,19.232,0,0,0-3.632-5.721,16.485,16.485,0,0,0-5.4-3.859,16.74,16.74,0,0,0-6.948-1.408q-16.8,0-22.978,15.892a76.729,76.729,0,0,0-4.268,16.848,129.688,129.688,0,0,0-1.272,18.119q0,6.63.591,12.941t1.589,12.125a55.908,55.908,0,0,0,2.543,9.309,27.239,27.239,0,0,0,4.314,7.721,19.04,19.04,0,0,0,6.63,5.22,21.651,21.651,0,0,0,9.491,1.909,22.693,22.693,0,0,0,10.444-2.272,21.652,21.652,0,0,0,7.356-5.994,25.093,25.093,0,0,0,4.314-8.672,37.2,37.2,0,0,0,1.408-10.219,35.494,35.494,0,0,0-1.453-10.216,24.831,24.831,0,0,0-4.359-8.493,21.006,21.006,0,0,0-7.266-5.765,24.8,24.8,0,0,0-20.435.135,21.748,21.748,0,0,0-7.992,7.175q-.271-4.086-.272-8.084,0-2.812.136-5.494t.318-5.4a29.105,29.105,0,0,1,9.945-5.4,43.471,43.471,0,0,1,29.153,1.634,37.2,37.2,0,0,1,12.669,9.264,40.986,40.986,0,0,1,7.947,13.758,51,51,0,0,1,2.77,16.984,50.214,50.214,0,0,1-3.133,18.028,41.839,41.839,0,0,1-8.81,14.168,38.357,38.357,0,0,1-5.6,4.825,2.83,2.83,0,0,0,1.66,5.126H240.9a2.838,2.838,0,0,0,2.82-2.6c2.568-29.041,12.962-57.032,31.191-84.227a235.285,235.285,0,0,1,18.8-24.432H226.232v-18.98h89.1v17.709Q282.811,264.134,271.915,307A186.572,186.572,0,0,0,267,337.065a2.841,2.841,0,0,0,2.823,3.093h67.5a2.834,2.834,0,0,0,2.834-2.835V2.835A2.835,2.835,0,0,0,337.322,0Z"/>
      </g>
    </g>
</svg>
