<svg xmlns="http://www.w3.org/2000/svg" width="120mm" height="120mm" viewBox="0 0 340.157 340.157">
  <g id="Zimmernummer">
      <g id="Z-03-405">
        <path fill="#000000" stroke="none" d="M337.323,0H2.835A2.835,2.835,0,0,0,0,2.835V337.323a2.834,2.834,0,0,0,2.834,2.834H75.287a2.834,2.834,0,0,0,2.834-2.834V235.261h-.454L38.615,292.567h32.7v16.711H22.267V288.3l55.854-78.379H98.193v82.646H114.9v16.711H98.193v28.045a2.834,2.834,0,0,0,2.834,2.834h45.629a2.834,2.834,0,0,0,1.685-5.108,35.223,35.223,0,0,1-3.648-3.2,42.927,42.927,0,0,1-8.22-11.76,75.59,75.59,0,0,1-5.131-14.305,105.4,105.4,0,0,1-2.68-15.531q-.771-7.945-.771-15.484,0-6.995.682-14.532a105.921,105.921,0,0,1,2.406-14.849,78.452,78.452,0,0,1,4.677-13.94,44.275,44.275,0,0,1,7.584-11.761,37.766,37.766,0,0,1,11.08-8.4,38.556,38.556,0,0,1,15.167-3.814v17.8q-20.434,3.36-20.435,49.769,0,3.906.182,9.172a104.025,104.025,0,0,0,.954,10.809,79.587,79.587,0,0,0,2.315,10.943,37.581,37.581,0,0,0,4.178,9.627,22.092,22.092,0,0,0,6.63,6.857,17.1,17.1,0,0,0,9.627,2.633q23.7,0,23.7-50.041,0-46.227-20.344-49.769v-17.8a38.565,38.565,0,0,1,15.167,3.814,36.822,36.822,0,0,1,11.035,8.445,46.706,46.706,0,0,1,7.583,11.807,76.3,76.3,0,0,1,4.723,13.942,106.511,106.511,0,0,1,2.407,14.849q.679,7.539.681,14.531,0,7.629-.773,15.666A100.282,100.282,0,0,1,214.4,306.1a74.946,74.946,0,0,1-5.222,14.212,42.737,42.737,0,0,1-8.31,11.67,35.842,35.842,0,0,1-3.518,3.056,2.835,2.835,0,0,0,1.675,5.118h43.563a2.829,2.829,0,0,0,1.543-5.2,40.245,40.245,0,0,1-3.344-2.426q-12.716-10.262-13.441-29.425H248.5q.908,10.716,7.266,16.347t16.711,5.631q23.793,0,24.249-28.607,0-18.346-13.714-24.977a24.55,24.55,0,0,0-11.08-2.18q-16.62,0-20.98,11.9H229.7l13.987-71.3h67.3V228.9h-51.5l-6.72,33.149.363.363q8.808-9.9,25.611-9.9a39.5,39.5,0,0,1,15.712,3.269q14.985,6.448,20.707,22.977a50.87,50.87,0,0,1,2.725,16.529q0,18.713-10.535,31.969a42.794,42.794,0,0,1-8.055,7.8,2.84,2.84,0,0,0,1.728,5.1h36.294a2.834,2.834,0,0,0,2.834-2.834V2.835A2.834,2.834,0,0,0,337.323,0Z"/>
      </g>
    </g>
</svg>
