<svg xmlns="http://www.w3.org/2000/svg" width="120mm" height="120mm" viewBox="0 0 340.158 340.157">
  <g id="Zimmernummer">
      <g id="Z-03-120-R">
        <path fill="#A0552B" stroke="none" d="M337.323,0H2.835A2.835,2.835,0,0,0,0,2.835V337.323a2.834,2.834,0,0,0,2.835,2.834H65.07a2.834,2.834,0,0,0,2.835-2.834V248.556H35.936V231.845q22.887,0,33.149-11.534a20.288,20.288,0,0,0,4.722-10.082H91.155V337.323a2.834,2.834,0,0,0,2.835,2.834h17.637a2.822,2.822,0,0,0,2.822-2.645q1.662-27.977,28.495-46.362,6.356-4.632,13.26-8.991Q181.724,266,182.178,248.374q0-9.264-3.269-13.805a24.436,24.436,0,0,0-7.538-6.9,21.829,21.829,0,0,0-10.808-2.361q-6.63,0-10.808,2.543-11.171,6.811-11.806,30.061H116.7q0-22.251,11.807-36.237t33.058-13.986q21.252,0,32.877,13.713,8.991,10.99,8.991,26.247,0,20.073-18.255,35.511A149.665,149.665,0,0,1,167.1,296.509q-9.447,5.994-14.168,9.536-10.809,8.085-13.169,15.439h63.484v15.839a2.834,2.834,0,0,0,2.834,2.834H235.5a2.837,2.837,0,0,0,1.708-5.1,35.126,35.126,0,0,1-3.262-2.906,42.894,42.894,0,0,1-8.219-11.76,75.632,75.632,0,0,1-5.132-14.3,105.2,105.2,0,0,1-2.678-15.531q-.774-7.946-.773-15.485,0-6.993.681-14.531a106.23,106.23,0,0,1,2.407-14.85,78.452,78.452,0,0,1,4.677-13.94,44.291,44.291,0,0,1,7.584-11.761,37.745,37.745,0,0,1,11.08-8.4,38.578,38.578,0,0,1,15.167-3.815v17.8q-20.435,3.36-20.435,49.77,0,3.9.182,9.173a104.231,104.231,0,0,0,.953,10.807,79.752,79.752,0,0,0,2.316,10.944,37.6,37.6,0,0,0,4.178,9.627,22.081,22.081,0,0,0,6.63,6.857,17.086,17.086,0,0,0,9.627,2.634q23.7,0,23.7-50.042,0-46.229-20.344-49.77v-17.8a38.578,38.578,0,0,1,15.167,3.815,36.821,36.821,0,0,1,11.035,8.446,46.729,46.729,0,0,1,7.584,11.807,76.284,76.284,0,0,1,4.722,13.941,106.02,106.02,0,0,1,2.406,14.849q.684,7.539.682,14.531,0,7.629-.771,15.667a100.5,100.5,0,0,1-2.725,15.575,74.986,74.986,0,0,1-5.223,14.214,42.725,42.725,0,0,1-8.31,11.67,35.868,35.868,0,0,1-3.2,2.817,2.829,2.829,0,0,0,1.76,5.048h48.648a2.835,2.835,0,0,0,2.835-2.834V2.834A2.835,2.835,0,0,0,337.323,0Z"/>
      </g>
    </g>
</svg>
