<svg xmlns="http://www.w3.org/2000/svg" width="120mm" height="120mm" viewBox="0 0 340.157 340.157">
  <g id="Zimmernummer">
      <g id="Z-03-508-R">
        <path fill="#A0552B" stroke="none" d="M337.323,0H2.835A2.835,2.835,0,0,0,0,2.835V337.323a2.834,2.834,0,0,0,2.834,2.834H36.367a2.831,2.831,0,0,0,1.524-5.215,40.834,40.834,0,0,1-3.316-2.412Q21.858,322.267,21.134,303.1H42.3q.906,10.718,7.265,16.348t16.711,5.631q23.795,0,24.249-28.61,0-18.342-13.714-24.974a24.477,24.477,0,0,0-11.08-2.18q-16.62,0-20.979,11.9H23.5l13.986-71.293h67.3V228.9H53.284l-6.721,33.15.364.364q8.808-9.9,25.611-9.9a39.505,39.505,0,0,1,15.712,3.27q14.985,6.45,20.707,22.978a50.887,50.887,0,0,1,2.724,16.529q0,18.484-10.283,31.649a2.959,2.959,0,0,1-.579.561l-10.252,7.536a2.834,2.834,0,0,0,1.679,5.118H143.4a2.835,2.835,0,0,0,1.7-5.1,38.031,38.031,0,0,1-3.629-3.207,42.874,42.874,0,0,1-8.219-11.762,75.541,75.541,0,0,1-5.131-14.3,105.348,105.348,0,0,1-2.68-15.532q-.771-7.944-.771-15.484,0-6.993.681-14.531a105.913,105.913,0,0,1,2.407-14.85,78.463,78.463,0,0,1,4.677-13.941,44.282,44.282,0,0,1,7.583-11.76,37.744,37.744,0,0,1,11.08-8.4,38.582,38.582,0,0,1,15.167-3.815v17.8q-20.435,3.36-20.434,49.77,0,3.9.181,9.173a104.2,104.2,0,0,0,.955,10.807,79.646,79.646,0,0,0,2.315,10.945,37.581,37.581,0,0,0,4.178,9.627,22.078,22.078,0,0,0,6.63,6.856,17.081,17.081,0,0,0,9.627,2.635q23.7,0,23.7-50.043,0-46.229-20.344-49.77v-17.8a38.587,38.587,0,0,1,15.167,3.815,36.824,36.824,0,0,1,11.035,8.447,46.653,46.653,0,0,1,7.583,11.807,76.337,76.337,0,0,1,4.723,13.941,106.425,106.425,0,0,1,2.407,14.848q.679,7.54.681,14.531,0,7.629-.773,15.668a100.244,100.244,0,0,1-2.724,15.574,74.925,74.925,0,0,1-5.222,14.215,42.782,42.782,0,0,1-8.31,11.67,38.175,38.175,0,0,1-3.485,3.06,2.837,2.837,0,0,0,1.687,5.112h47.977a2.834,2.834,0,0,0,1.323-5.341l-4.309-2.275a2.988,2.988,0,0,1-.526-.35,36.466,36.466,0,0,1-9.654-12.6,41.061,41.061,0,0,1-3.633-17.755,36.583,36.583,0,0,1,1.681-11.354,31.212,31.212,0,0,1,4.767-9.264,29.034,29.034,0,0,1,7.539-6.947,32.955,32.955,0,0,1,9.9-4.223v-.363a26.97,26.97,0,0,1-18.437-26.793,38.862,38.862,0,0,1,2.725-15.121,29.337,29.337,0,0,1,7.675-10.853,34.834,34.834,0,0,1,11.761-6.721,52.719,52.719,0,0,1,14.985-2.725v16.8a20.711,20.711,0,0,0-12.488,6.312q-4.587,5.04-4.586,13.305,0,8.173,4.5,13.123t12.578,5.949v16.166a26.861,26.861,0,0,0-8.764,2.27,21.276,21.276,0,0,0-6.72,4.77,21.046,21.046,0,0,0-4.315,6.992,27.36,27.36,0,0,0,.318,18.982,21.875,21.875,0,0,0,5.131,7.492,22.134,22.134,0,0,0,7.811,4.723,30.787,30.787,0,0,0,19.8,0,22.6,22.6,0,0,0,7.855-4.723,21.484,21.484,0,0,0,5.178-7.539,27.863,27.863,0,0,0,.363-19.025,19.719,19.719,0,0,0-4.314-6.949,22.441,22.441,0,0,0-6.721-4.723,26.555,26.555,0,0,0-8.81-2.27V262.961q8.084-1,12.534-5.857t4.45-13.033q0-8.265-4.5-13.442t-12.488-6.357v-16.8a51.255,51.255,0,0,1,15.849,2.953,33.4,33.4,0,0,1,11.67,7.129,29.784,29.784,0,0,1,7.175,10.9,39.883,39.883,0,0,1,2.452,14.439,28.816,28.816,0,0,1-4.678,16.485,27.459,27.459,0,0,1-13.759,10.308v.363a33.165,33.165,0,0,1,9.763,4.178,30.112,30.112,0,0,1,12.4,15.621,31.554,31.554,0,0,1,1.725,10.535,45.233,45.233,0,0,1-3.451,18.254,37.458,37.458,0,0,1-9.582,13.307,42.423,42.423,0,0,1-3.98,3.067,2.83,2.83,0,0,0,1.629,5.15h33.683a2.834,2.834,0,0,0,2.834-2.834V2.834A2.834,2.834,0,0,0,337.323,0Z"/>
      </g>
    </g>
</svg>
