<svg xmlns="http://www.w3.org/2000/svg" width="120mm" height="120mm" viewBox="0 0 340.158 340.158">
  <g id="Zimmernummer">
      <g id="Z-03-534-E">
        <path fill="#A09f9d" stroke="none" d="M337.323,0H2.835A2.835,2.835,0,0,0,0,2.835V337.323a2.835,2.835,0,0,0,2.835,2.835h33.85a2.831,2.831,0,0,0,1.524-5.215q-1.721-1.126-3.316-2.414Q22.178,322.268,21.451,303.1H42.613q.906,10.716,7.266,16.347t16.711,5.631q23.791,0,24.248-28.608,0-18.345-13.713-24.976a24.523,24.523,0,0,0-11.08-2.18q-16.62,0-20.981,11.9H23.812L37.8,209.922h67.3V228.9H53.6l-6.721,33.15.363.363q8.81-9.9,25.611-9.9a39.509,39.509,0,0,1,15.713,3.269q14.986,6.45,20.707,22.978A50.865,50.865,0,0,1,112,295.293q0,18.711-10.535,31.969a42.855,42.855,0,0,1-8.055,7.8,2.84,2.84,0,0,0,1.727,5.1h44.417a2.835,2.835,0,0,0,1.6-5.172q-9.388-6.656-13.987-18.986a57.907,57.907,0,0,1-3.178-18.618H145.24q-.272,11.9,5.9,19.8t17.711,7.9q11.53,0,18.708-5.994t7.174-17.256q0-13.623-10.806-18.891-7.629-3.723-23.25-3.269v-15.8q19.344.636,26.338-10.353,2.451-4.088,2.451-11.262a15.673,15.673,0,0,0-5.631-12.17,18.688,18.688,0,0,0-12.9-5.086q-17.709-.09-22.16,16.893a32.632,32.632,0,0,0-1.09,9.717H126.439q.728-18.981,12.17-31.605t30.971-12.624a47.992,47.992,0,0,1,28.7,8.991q12.443,9.083,12.442,25.793,0,21.343-18.436,27.882v.363a27.209,27.209,0,0,1,17.438,11.08,33.612,33.612,0,0,1,6.265,19.8Q215.9,321,202.365,331.894a49.038,49.038,0,0,1-4.248,3.063,2.829,2.829,0,0,0,1.547,5.2h79.425a2.835,2.835,0,0,0,2.835-2.835V235.261h-.453l-39.053,57.307h32.695v16.711H226.07V288.3l55.854-78.378H302v82.646h16.711v16.711H302v28.044a2.835,2.835,0,0,0,2.835,2.835h32.492a2.836,2.836,0,0,0,2.835-2.835V2.835A2.835,2.835,0,0,0,337.323,0Z"/>
      </g>
    </g>
</svg>
