<svg xmlns="http://www.w3.org/2000/svg" width="120mm" height="120mm" viewBox="0 0 340.157 340.157">
  <g id="Zimmernummer">
      <g id="Z-03-315-M">
        <path fill="#D4AF37" stroke="none" d="M337.323,0H2.835A2.835,2.835,0,0,0,0,2.835V337.323a2.834,2.834,0,0,0,2.834,2.834H47.451a2.828,2.828,0,0,0,1.672-5.111q-9.015-6.613-13.494-18.6a57.88,57.88,0,0,1-3.179-18.618H53.7q-.273,11.9,5.9,19.8t17.71,7.9q11.534,0,18.709-5.994t7.175-17.256q0-13.623-10.808-18.89-7.629-3.724-23.25-3.27v-15.8q19.345.636,26.338-10.353,2.453-4.088,2.452-11.262a15.673,15.673,0,0,0-5.631-12.17,18.692,18.692,0,0,0-12.9-5.086q-17.711-.089-22.16,16.893a32.541,32.541,0,0,0-1.09,9.718H34.9q.726-18.983,12.17-31.606t30.97-12.624a47.992,47.992,0,0,1,28.7,8.991q12.441,9.083,12.442,25.793,0,21.344-18.436,27.882v.364a27.2,27.2,0,0,1,17.437,11.08,33.6,33.6,0,0,1,6.267,19.8q-.091,19.709-13.623,30.607-1.748,1.407-3.588,2.63a2.829,2.829,0,0,0,1.564,5.189H165.4a2.834,2.834,0,0,0,2.835-2.834V248.692H136.261V231.981q22.887,0,33.149-11.534a20.3,20.3,0,0,0,4.723-10.081H191.48V337.323a2.834,2.834,0,0,0,2.834,2.834h37.9a2.837,2.837,0,0,0,1.549-5.208q-1.373-.935-2.662-1.975-12.717-10.263-13.442-29.426h21.162q.906,10.716,7.265,16.348t16.711,5.63q23.793,0,24.249-28.608,0-18.345-13.714-24.976a24.52,24.52,0,0,0-11.08-2.179q-16.62,0-20.979,11.9H220.016L234,210.366h67.3v18.982H249.805L243.084,262.5l.363.363q8.809-9.9,25.612-9.9a39.525,39.525,0,0,1,15.712,3.269q14.985,6.45,20.707,22.978a50.891,50.891,0,0,1,2.724,16.529q0,18.711-10.535,31.969a43.2,43.2,0,0,1-7.515,7.4,2.83,2.83,0,0,0,1.764,5.052h45.407a2.834,2.834,0,0,0,2.834-2.834V2.835A2.834,2.834,0,0,0,337.323,0Z"/>
      </g>
    </g>
</svg>
