<svg xmlns="http://www.w3.org/2000/svg" width="120mm" height="120mm" viewBox="0 0 340.158 340.157">
  <g id="Zimmernummer">
      <g id="Z-03-536-R">
        <path fill="#A0552B" stroke="none" d="M337.323,0H2.835A2.835,2.835,0,0,0,0,2.835V337.323a2.834,2.834,0,0,0,2.834,2.834H36.685a2.831,2.831,0,0,0,1.524-5.215,40.607,40.607,0,0,1-3.316-2.413Q22.178,322.268,21.451,303.1H42.613q.906,10.716,7.266,16.347t16.711,5.631q23.791,0,24.248-28.609,0-18.344-13.713-24.975a24.5,24.5,0,0,0-11.08-2.18q-16.62,0-20.981,11.9H23.812L37.8,209.922h67.3V228.9H53.6l-6.721,33.151.363.363q8.81-9.9,25.611-9.9a39.509,39.509,0,0,1,15.713,3.269q14.986,6.452,20.707,22.979A50.861,50.861,0,0,1,112,295.293q0,18.483-10.283,31.649a2.932,2.932,0,0,1-.58.56l-10.253,7.537a2.834,2.834,0,0,0,1.679,5.118h46.99a2.835,2.835,0,0,0,1.6-5.172q-9.388-6.654-13.987-18.985a57.909,57.909,0,0,1-3.178-18.619H145.24q-.272,11.9,5.9,19.8t17.711,7.9q11.53,0,18.708-5.994t7.174-17.256q0-13.623-10.806-18.891-7.629-3.723-23.25-3.269v-15.8q19.344.636,26.338-10.353,2.451-4.088,2.451-11.262a15.671,15.671,0,0,0-5.631-12.17,18.688,18.688,0,0,0-12.9-5.086q-17.709-.09-22.16,16.893a32.629,32.629,0,0,0-1.09,9.716H126.439q.728-18.981,12.17-31.6t30.971-12.623a47.991,47.991,0,0,1,28.7,8.99q12.443,9.083,12.442,25.793,0,21.344-18.436,27.883v.363a27.205,27.205,0,0,1,17.438,11.08,33.61,33.61,0,0,1,6.265,19.8q-.09,19.546-13.4,30.427a2.992,2.992,0,0,1-.469.313l-5.161,2.805a2.834,2.834,0,0,0,1.353,5.325H247.52a2.834,2.834,0,0,0,1.4-5.3l-3.106-1.77a3.02,3.02,0,0,1-.5-.355,38.68,38.68,0,0,1-8.486-10.6,62.45,62.45,0,0,1-5.4-13.488,90.08,90.08,0,0,1-2.77-15.258q-.772-7.989-.771-15.985a144.158,144.158,0,0,1,.953-16.482,97.415,97.415,0,0,1,3.224-16.121,70.9,70.9,0,0,1,6.04-14.623,46.694,46.694,0,0,1,9.308-11.9,40.736,40.736,0,0,1,13.123-7.992,48.681,48.681,0,0,1,17.485-2.906,38.928,38.928,0,0,1,26.337,10.08,37.126,37.126,0,0,1,8.356,11.217,35.8,35.8,0,0,1,3.541,14.213h-21.16a24.094,24.094,0,0,0-1.727-6.9,19.19,19.19,0,0,0-3.633-5.72,16.457,16.457,0,0,0-5.4-3.86A16.748,16.748,0,0,0,277.383,225q-16.8,0-22.977,15.893a76.735,76.735,0,0,0-4.269,16.847,129.861,129.861,0,0,0-1.272,18.119q0,6.63.59,12.942t1.59,12.125a55.923,55.923,0,0,0,2.543,9.308,27.239,27.239,0,0,0,4.314,7.721,19.069,19.069,0,0,0,6.629,5.221,21.676,21.676,0,0,0,9.492,1.908,22.7,22.7,0,0,0,10.444-2.271,21.647,21.647,0,0,0,7.357-6,25.06,25.06,0,0,0,4.313-8.671,37.165,37.165,0,0,0,1.408-10.219,35.466,35.466,0,0,0-1.453-10.217,24.82,24.82,0,0,0-4.36-8.492,20.975,20.975,0,0,0-7.265-5.766,24.8,24.8,0,0,0-20.434.135,21.744,21.744,0,0,0-7.992,7.176q-.273-4.088-.273-8.084,0-2.812.136-5.494t.319-5.405a29.122,29.122,0,0,1,9.943-5.4,43.467,43.467,0,0,1,29.154,1.635,37.2,37.2,0,0,1,12.67,9.263,41,41,0,0,1,7.946,13.758,50.981,50.981,0,0,1,2.771,16.985,50.187,50.187,0,0,1-3.135,18.027,41.834,41.834,0,0,1-8.808,14.168,43.026,43.026,0,0,1-5.635,4.822,2.829,2.829,0,0,0,1.664,5.122h34.53a2.835,2.835,0,0,0,2.835-2.835V2.835A2.835,2.835,0,0,0,337.323,0Z"/>
      </g>
    </g>
</svg>
