<svg xmlns="http://www.w3.org/2000/svg" width="120.001mm" height="119.997mm" viewBox="0 0 340.16 340.15">
  <g id="Zimmernummer">
      <g id="Z-03-105">
        <path fill="#000000" stroke="none" d="M337.325,0H2.834A2.834,2.834,0,0,0,0,2.834V337.315a2.834,2.834,0,0,0,2.834,2.835H67.941a2.835,2.835,0,0,0,2.835-2.835v-88.89H38.746v-16.76a74.323,74.323,0,0,0,13.03-1.12,40.581,40.581,0,0,0,11.46-3.72,29.29,29.29,0,0,0,8.75-6.71,20.519,20.519,0,0,0,4.75-10.05h17.31v127.25a2.834,2.834,0,0,0,2.834,2.835H134.6a1.284,1.284,0,0,0,.651-2.374c-.61-.37-1.2-.76-1.771-1.181a44.122,44.122,0,0,1-13.78-16.39,72.826,72.826,0,0,1-6.7-21.88,151.492,151.492,0,0,1,0-46.18,73,73,0,0,1,6.7-21.88,44.091,44.091,0,0,1,13.78-16.38q7.56-5.49,18.86-6.27a1.282,1.282,0,0,1,1.37,1.29v15.27a1.281,1.281,0,0,1-1.05,1.28,15.8,15.8,0,0,0-8.01,3.7,27.554,27.554,0,0,0-7.26,10.89,66.028,66.028,0,0,0-3.82,15.92,158.188,158.188,0,0,0-1.12,19.27,160.48,160.48,0,0,0,1.12,19.37,64.663,64.663,0,0,0,3.82,15.92,27.636,27.636,0,0,0,7.26,10.8,18.791,18.791,0,0,0,23.18,0,27.076,27.076,0,0,0,7.36-10.8,64.663,64.663,0,0,0,3.82-15.92,160.545,160.545,0,0,0,1.11-19.37,158.257,158.257,0,0,0-1.11-19.27,66.028,66.028,0,0,0-3.82-15.92,27,27,0,0,0-7.36-10.89,16.153,16.153,0,0,0-7.874-3.68,1.345,1.345,0,0,1-1.1-1.27v-15.3a1.287,1.287,0,0,1,1.37-1.29q11.3.8,18.87,6.27a44.184,44.184,0,0,1,13.78,16.38,73.29,73.29,0,0,1,6.7,21.88,151.492,151.492,0,0,1,0,46.18,73.112,73.112,0,0,1-6.7,21.88A44.216,44.216,0,0,1,179.1,336.6c-.569.419-1.168.808-1.766,1.177a1.284,1.284,0,0,0,.645,2.378h58.836a1.286,1.286,0,0,0,.562-2.443,39.62,39.62,0,0,1-7.573-4.877,36.729,36.729,0,0,1-9.779-12.38,42.128,42.128,0,0,1-4-17.22h21.23q.93,10.605,7.259,16.29t16.761,5.68a25.974,25.974,0,0,0,11.36-2.24,19.821,19.821,0,0,0,7.54-6.14,24.657,24.657,0,0,0,4.089-9.12,49.19,49.19,0,0,0,1.21-11.18,35.3,35.3,0,0,0-1.489-10.33,25.525,25.525,0,0,0-4.46-8.66,21.48,21.48,0,0,0-7.73-5.96,25.786,25.786,0,0,0-11.08-2.23,31.668,31.668,0,0,0-12.571,2.51q-5.863,2.52-8.469,9.4h-21.23l13.96-71.31h67.41v18.99h-51.58l-6.7,33.14.371.38a27.2,27.2,0,0,1,10.89-7.36,36.892,36.892,0,0,1,13.13-2.51,43.764,43.764,0,0,1,17.319,3.26,35.633,35.633,0,0,1,12.85,9.12A39.842,39.842,0,0,1,304,278.83a53.908,53.908,0,0,1,2.7,17.32,55.6,55.6,0,0,1-2.509,16.11,44.351,44.351,0,0,1-8.011,15.08,42.039,42.039,0,0,1-12.369,10.27c-.04.02-.1.06-.19.1a1.285,1.285,0,0,0,.559,2.44h53.145a2.835,2.835,0,0,0,2.835-2.835V2.835A2.835,2.835,0,0,0,337.325,0Z"/>
      </g>
    </g>
</svg>
