<svg xmlns="http://www.w3.org/2000/svg" width="120mm" height="120mm" viewBox="0 0 340.157 340.157">
  <g id="Zimmernummer">
      <g id="Z-03-030">
        <path fill="#000000" stroke="none" d="M337.323,0H2.834A2.834,2.834,0,0,0,0,2.834V337.323a2.834,2.834,0,0,0,2.834,2.834H133.368a2.828,2.828,0,0,0,1.648-5.129q-9.217-6.635-13.762-18.805a57.891,57.891,0,0,1-3.178-18.619h21.252q-.273,11.9,5.9,19.8t17.71,7.9q11.532,0,18.709-5.994t7.175-17.256q0-13.623-10.808-18.891-7.629-3.723-23.25-3.269v-15.8q19.345.636,26.338-10.354,2.453-4.086,2.452-11.261a15.671,15.671,0,0,0-5.631-12.17,18.689,18.689,0,0,0-12.9-5.086q-17.71-.09-22.16,16.892a32.545,32.545,0,0,0-1.09,9.718H120.528q.726-18.981,12.17-31.6T163.667,207.6a47.993,47.993,0,0,1,28.7,8.991q12.441,9.081,12.442,25.793,0,21.342-18.436,27.882v.363a27.207,27.207,0,0,1,17.437,11.08,33.607,33.607,0,0,1,6.267,19.8q-.091,19.707-13.623,30.606-1.9,1.532-3.914,2.847a2.828,2.828,0,0,0,1.555,5.194H240.9a2.836,2.836,0,0,0,1.7-5.1,34.758,34.758,0,0,1-3.369-2.985,42.851,42.851,0,0,1-8.219-11.76,75.607,75.607,0,0,1-5.132-14.3,105.334,105.334,0,0,1-2.679-15.531q-.772-7.946-.772-15.485,0-6.993.681-14.531a106.083,106.083,0,0,1,2.407-14.85,78.533,78.533,0,0,1,4.677-13.94,44.291,44.291,0,0,1,7.584-11.761,37.762,37.762,0,0,1,11.08-8.4,38.573,38.573,0,0,1,15.167-3.815v17.8q-20.434,3.36-20.435,49.77,0,3.9.182,9.173a103.964,103.964,0,0,0,.954,10.807,79.47,79.47,0,0,0,2.316,10.945,37.538,37.538,0,0,0,4.177,9.626,22.081,22.081,0,0,0,6.63,6.857,17.089,17.089,0,0,0,9.627,2.634q23.7,0,23.7-50.042,0-46.228-20.344-49.77v-17.8A38.578,38.578,0,0,1,286,211.507a36.825,36.825,0,0,1,11.035,8.446,46.674,46.674,0,0,1,7.584,11.807,76.36,76.36,0,0,1,4.722,13.941,106.169,106.169,0,0,1,2.407,14.849q.681,7.539.681,14.531,0,7.629-.772,15.667a100.375,100.375,0,0,1-2.724,15.575,74.986,74.986,0,0,1-5.223,14.214,42.725,42.725,0,0,1-8.31,11.67,35.771,35.771,0,0,1-3.308,2.895,2.828,2.828,0,0,0,1.75,5.055h43.479a2.834,2.834,0,0,0,2.834-2.834V2.834A2.834,2.834,0,0,0,337.323,0Z"/>
      </g>
    </g>
</svg>
