<svg xmlns="http://www.w3.org/2000/svg" width="120mm" height="120mm" viewBox="0 0 340.157 340.158">
  <g id="Zimmernummer">
      <g id="Z-03-512-M">
        <path fill="#D4AF37" stroke="none" d="M337.323,0H2.834A2.834,2.834,0,0,0,0,2.834V337.323a2.835,2.835,0,0,0,2.835,2.835H50.069a2.831,2.831,0,0,0,1.524-5.215q-1.721-1.126-3.317-2.414Q35.559,322.266,34.834,303.1H56q.906,10.717,7.265,16.348t16.711,5.631q23.793,0,24.249-28.609,0-18.344-13.714-24.975a24.5,24.5,0,0,0-11.08-2.18q-16.62,0-20.979,11.9H37.2l13.986-71.294h67.3V228.9H66.985l-6.721,33.149.363.364q8.809-9.9,25.612-9.9a39.509,39.509,0,0,1,15.712,3.27q14.985,6.448,20.707,22.977a50.891,50.891,0,0,1,2.724,16.529q0,18.711-10.535,31.969a42.8,42.8,0,0,1-8.054,7.8,2.84,2.84,0,0,0,1.727,5.1h54.722a2.835,2.835,0,0,0,2.835-2.835V248.248H134.108V231.537q22.887,0,33.149-11.535a20.3,20.3,0,0,0,4.723-10.081h17.347v127.4a2.834,2.834,0,0,0,2.834,2.835h21.333a2.821,2.821,0,0,0,2.822-2.659q1.537-28.178,28.52-46.657,6.357-4.632,13.26-8.991,25.521-16.164,25.975-33.785,0-9.264-3.27-13.805a24.436,24.436,0,0,0-7.538-6.9A21.822,21.822,0,0,0,262.456,225q-6.63,0-10.808,2.543-11.171,6.811-11.807,30.061H218.589q0-22.251,11.807-36.237t33.059-13.987q21.252,0,32.877,13.714,8.991,10.989,8.991,26.247,0,20.073-18.255,35.511A149.744,149.744,0,0,1,269,296.2q-9.447,5.994-14.168,9.536-10.809,8.083-13.169,15.439h63.483v16.147a2.835,2.835,0,0,0,2.835,2.835h29.347a2.834,2.834,0,0,0,2.834-2.835V2.835A2.834,2.834,0,0,0,337.323,0Z"/>
      </g>
    </g>
</svg>
