<svg xmlns="http://www.w3.org/2000/svg" width="120mm" height="120mm" viewBox="0 0 340.157 340.158">
  <g id="Zimmernummer">
      <g id="Z-03-437-R">
        <path fill="#A0552B" stroke="none" d="M337.323,0H2.835A2.835,2.835,0,0,0,0,2.835V337.323a2.835,2.835,0,0,0,2.835,2.835H76.013a2.835,2.835,0,0,0,2.835-2.835V235.261h-.454L39.341,292.568h32.7v16.711H22.993V288.3l55.855-78.379H98.919v82.647H115.63v16.711H98.919v28.044a2.835,2.835,0,0,0,2.835,2.835h41.431a2.836,2.836,0,0,0,1.6-5.172Q135.4,328.331,130.8,316a57.944,57.944,0,0,1-3.179-18.618H148.87q-.272,11.9,5.9,19.8t17.71,7.9q11.532,0,18.709-6t7.174-17.255q0-13.623-10.807-18.891-7.629-3.724-23.25-3.27v-15.8q19.344.634,26.338-10.354,2.451-4.086,2.452-11.262a15.676,15.676,0,0,0-5.631-12.17,18.693,18.693,0,0,0-12.9-5.085q-17.711-.089-22.161,16.892a32.547,32.547,0,0,0-1.089,9.719H130.071Q130.8,232.628,142.24,220t30.97-12.625a47.982,47.982,0,0,1,28.7,8.993q12.443,9.081,12.443,25.793,0,21.342-18.437,27.88v.364a27.206,27.206,0,0,1,17.438,11.08,33.606,33.606,0,0,1,6.266,19.8q-.09,19.707-13.623,30.607a48.6,48.6,0,0,1-4.247,3.063,2.829,2.829,0,0,0,1.546,5.2h39.417a2.838,2.838,0,0,0,2.82-2.606q3.8-43.308,31.217-84.219a235.36,235.36,0,0,1,18.8-24.429H228.07V209.921h89.094v17.711q-32.513,36.51-43.412,79.377a188.2,188.2,0,0,0-4.936,30.086,2.835,2.835,0,0,0,2.829,3.063h65.678a2.834,2.834,0,0,0,2.834-2.835V2.835A2.834,2.834,0,0,0,337.323,0Z"/>
      </g>
    </g>
</svg>
