<svg xmlns="http://www.w3.org/2000/svg" width="120mm" height="120mm" viewBox="0 0 340.157 340.158">
  <g id="Zimmernummer">
      <g id="Z-03-402-M">
        <path fill="#D4AF37" stroke="none" d="M337.323,0H2.835A2.835,2.835,0,0,0,0,2.835V337.323a2.835,2.835,0,0,0,2.835,2.835H75.65a2.835,2.835,0,0,0,2.835-2.835V235.26h-.454L38.978,292.568h32.7v16.711H22.63V288.3l55.855-78.378H98.556v82.647h16.711v16.711H98.556v28.044a2.835,2.835,0,0,0,2.835,2.835h45.63a2.834,2.834,0,0,0,1.684-5.11,34.975,34.975,0,0,1-3.649-3.2,42.909,42.909,0,0,1-8.22-11.761,75.665,75.665,0,0,1-5.131-14.3,105.324,105.324,0,0,1-2.679-15.532q-.773-7.944-.772-15.484,0-6.993.682-14.531a106.058,106.058,0,0,1,2.406-14.85,78.374,78.374,0,0,1,4.678-13.94,44.288,44.288,0,0,1,7.583-11.761,37.745,37.745,0,0,1,11.08-8.4,38.578,38.578,0,0,1,15.167-3.815v17.8q-20.434,3.36-20.435,49.77,0,3.9.182,9.172a103.958,103.958,0,0,0,.954,10.808,79.749,79.749,0,0,0,2.315,10.944,37.6,37.6,0,0,0,4.178,9.627,22.081,22.081,0,0,0,6.63,6.857,17.089,17.089,0,0,0,9.627,2.634q23.7,0,23.7-50.042,0-46.229-20.344-49.77v-17.8a38.578,38.578,0,0,1,15.167,3.815,36.826,36.826,0,0,1,11.036,8.446,46.726,46.726,0,0,1,7.583,11.807,76.284,76.284,0,0,1,4.722,13.941,106.316,106.316,0,0,1,2.407,14.849q.681,7.539.681,14.531,0,7.629-.772,15.667A100.257,100.257,0,0,1,214.76,306.1a74.94,74.94,0,0,1-5.222,14.214,42.764,42.764,0,0,1-8.309,11.67,35.712,35.712,0,0,1-3.52,3.054,2.836,2.836,0,0,0,1.675,5.12H225.7a2.822,2.822,0,0,0,2.822-2.659q1.536-28.178,28.52-46.657,6.357-4.632,13.26-8.991,25.521-16.164,25.975-33.785,0-9.264-3.27-13.805a24.436,24.436,0,0,0-7.538-6.9A21.826,21.826,0,0,0,274.66,225q-6.63,0-10.807,2.543-11.171,6.811-11.807,30.061H230.794q0-22.251,11.807-36.237t33.058-13.987q21.252,0,32.877,13.714,8.993,10.989,8.992,26.247,0,20.073-18.255,35.511A149.676,149.676,0,0,1,281.2,296.2q-9.446,5.994-14.168,9.536-10.809,8.083-13.168,15.439h63.483v16.147a2.835,2.835,0,0,0,2.835,2.835h17.142a2.834,2.834,0,0,0,2.834-2.835V2.834A2.834,2.834,0,0,0,337.323,0Z"/>
      </g>
    </g>
</svg>
