<svg xmlns="http://www.w3.org/2000/svg" width="120mm" height="120mm" viewBox="0 0 340.157 340.158">
  <g id="Zimmernummer">
      <g id="Z-03-062">
        <path fill="#000000" stroke="none" d="M337.323,0H2.834A2.834,2.834,0,0,0,0,2.834V337.323a2.835,2.835,0,0,0,2.835,2.835h133.4a2.837,2.837,0,0,0,1.61-5.167q-1.266-.912-2.433-1.92a38.7,38.7,0,0,1-8.719-10.807,62.4,62.4,0,0,1-5.4-13.487,89.883,89.883,0,0,1-2.77-15.258q-.774-7.99-.772-15.984a144.407,144.407,0,0,1,.953-16.484,97.435,97.435,0,0,1,3.224-16.121,71,71,0,0,1,6.04-14.622,46.7,46.7,0,0,1,9.309-11.9,40.717,40.717,0,0,1,13.123-7.993,48.662,48.662,0,0,1,17.483-2.906,38.923,38.923,0,0,1,26.338,10.081,37.134,37.134,0,0,1,8.356,11.216,35.836,35.836,0,0,1,3.542,14.214H184.954a24.1,24.1,0,0,0-1.726-6.9A19.219,19.219,0,0,0,179.6,230.4a16.475,16.475,0,0,0-5.4-3.859,16.749,16.749,0,0,0-6.947-1.409q-16.8,0-22.978,15.894A76.706,76.706,0,0,0,140,257.872a129.7,129.7,0,0,0-1.272,18.119q0,6.63.59,12.941t1.59,12.125a55.838,55.838,0,0,0,2.543,9.309,27.233,27.233,0,0,0,4.314,7.72,19.034,19.034,0,0,0,6.63,5.222,21.644,21.644,0,0,0,9.49,1.907,22.712,22.712,0,0,0,10.445-2.27,21.685,21.685,0,0,0,7.356-5.994A25.1,25.1,0,0,0,186,308.278a37.19,37.19,0,0,0,1.408-10.218,35.547,35.547,0,0,0-1.453-10.218,24.85,24.85,0,0,0-4.36-8.491,20.987,20.987,0,0,0-7.265-5.767,22.892,22.892,0,0,0-10.172-2.134,22.654,22.654,0,0,0-10.263,2.27A21.741,21.741,0,0,0,145.9,280.9q-.273-4.087-.273-8.083,0-2.814.137-5.5t.318-5.4a29.114,29.114,0,0,1,9.944-5.4,43.483,43.483,0,0,1,29.154,1.635,37.186,37.186,0,0,1,12.669,9.264,41.029,41.029,0,0,1,7.947,13.758,51,51,0,0,1,2.77,16.984,50.226,50.226,0,0,1-3.133,18.027,41.845,41.845,0,0,1-8.81,14.168,38.185,38.185,0,0,1-5.416,4.692,2.83,2.83,0,0,0,1.668,5.12h26.5a2.822,2.822,0,0,0,2.822-2.653q1.591-28.09,28.51-46.529,6.355-4.632,13.259-8.991,25.52-16.165,25.975-33.785,0-9.264-3.27-13.8a24.436,24.436,0,0,0-7.538-6.9,21.811,21.811,0,0,0-10.807-2.362q-6.631,0-10.808,2.543-11.171,6.811-11.807,30.062H224.46q0-22.251,11.807-36.237t33.059-13.987q21.252,0,32.877,13.714,8.991,10.989,8.991,26.247,0,20.073-18.255,35.511a149.736,149.736,0,0,1-18.073,13.35q-9.447,6-14.168,9.537-10.809,8.084-13.169,15.439h63.483v16.013a2.835,2.835,0,0,0,2.835,2.835h23.476a2.834,2.834,0,0,0,2.834-2.835V2.834A2.834,2.834,0,0,0,337.323,0Z"/>
      </g>
    </g>
</svg>
