<svg xmlns="http://www.w3.org/2000/svg" width="120.001mm" height="120.001mm" viewBox="0 0 340.16 340.16">
  <g id="Zimmernummer">
      <g id="Z-03-012-M">
        <path fill="#D4AF37" stroke="none" d="M337.325,0H2.834A2.834,2.834,0,0,0,0,2.834V337.325a2.835,2.835,0,0,0,2.835,2.835h166.49a2.834,2.834,0,0,0,2.835-2.834v-88.9H140.13V231.67a74.307,74.307,0,0,0,13.03-1.12,40.581,40.581,0,0,0,11.46-3.72,29.29,29.29,0,0,0,8.75-6.71,20.519,20.519,0,0,0,4.75-10.05h17.31V337.325a2.834,2.834,0,0,0,2.834,2.835h20.665a2.833,2.833,0,0,0,2.833-2.73c.01-.284.02-.524.03-.675a51.877,51.877,0,0,1,7.688-24.775,71.493,71.493,0,0,1,20.86-21.04q6.33-4.65,13.22-9.03a105.513,105.513,0,0,0,12.66-9.4,50.486,50.486,0,0,0,9.5-10.9,25.936,25.936,0,0,0,3.91-13.5,36.862,36.862,0,0,0-.84-7.54,20.061,20.061,0,0,0-3.26-7.45,19.253,19.253,0,0,0-6.7-5.77q-4.29-2.325-11.18-2.33a20.133,20.133,0,0,0-10.52,2.52,18.777,18.777,0,0,0-6.7,6.89,34,34,0,0,0-3.72,10.33,74.131,74.131,0,0,0-1.4,12.85H224.08a66.533,66.533,0,0,1,2.89-20.02,44.354,44.354,0,0,1,8.66-15.92,40.786,40.786,0,0,1,14.06-10.52,45.668,45.668,0,0,1,19.27-3.82q11.91,0,19.92,3.91a38.364,38.364,0,0,1,12.94,9.87,36.279,36.279,0,0,1,6.99,12.94,47.552,47.552,0,0,1,2.04,13.32,39.227,39.227,0,0,1-2.42,14.15,45.524,45.524,0,0,1-6.51,11.64,66.533,66.533,0,0,1-9.31,9.77q-5.22,4.47-10.8,8.38-5.6,3.915-11.18,7.45t-10.33,7.08a60.942,60.942,0,0,0-8.29,7.35,20.948,20.948,0,0,0-4.84,8.1h63.5v16.035a2.835,2.835,0,0,0,2.835,2.835h23.82a2.834,2.834,0,0,0,2.835-2.834V2.835A2.835,2.835,0,0,0,337.325,0Z"/>
      </g>
    </g>
</svg>
