<svg xmlns="http://www.w3.org/2000/svg" width="120mm" height="120mm" viewBox="0 0 340.157 340.157">
  <g id="Zimmernummer">
      <g id="Z-03-426-M">
        <path fill="#D4AF37" stroke="none" d="M337.323,0H2.835A2.835,2.835,0,0,0,0,2.835V337.323a2.834,2.834,0,0,0,2.834,2.834H73.427a2.834,2.834,0,0,0,2.834-2.834V235.26h-.454L36.755,292.568h32.7v16.711H20.407V288.3l55.854-78.377H96.333v82.646h16.711v16.711H96.333v28.044a2.834,2.834,0,0,0,2.834,2.834h24.675a2.82,2.82,0,0,0,2.822-2.658q1.537-28.178,28.52-46.657,6.357-4.632,13.26-8.99,25.521-16.167,25.975-33.786,0-9.263-3.27-13.8a24.428,24.428,0,0,0-7.538-6.9A21.826,21.826,0,0,0,172.8,225q-6.629,0-10.807,2.543-11.171,6.811-11.807,30.061H128.937q0-22.251,11.807-36.237T173.8,207.379q21.252,0,32.877,13.713,8.993,10.989,8.992,26.248,0,20.071-18.255,35.51A149.744,149.744,0,0,1,179.343,296.2q-9.447,5.994-14.168,9.535-10.809,8.087-13.169,15.44h63.483v16.147a2.834,2.834,0,0,0,2.835,2.834h30.24a2.834,2.834,0,0,0,1.4-5.3l-3.106-1.77a3.054,3.054,0,0,1-.5-.355,38.661,38.661,0,0,1-8.486-10.6,62.351,62.351,0,0,1-5.405-13.488,90.08,90.08,0,0,1-2.769-15.258q-.774-7.989-.773-15.985a144.163,144.163,0,0,1,.955-16.482,97.208,97.208,0,0,1,3.223-16.121,71.012,71.012,0,0,1,6.04-14.623,46.7,46.7,0,0,1,9.309-11.9,40.714,40.714,0,0,1,13.123-7.992,48.666,48.666,0,0,1,17.483-2.906,38.923,38.923,0,0,1,26.338,10.08,37.143,37.143,0,0,1,8.356,11.217,35.819,35.819,0,0,1,3.542,14.213H296.137a24.091,24.091,0,0,0-1.725-6.9,19.209,19.209,0,0,0-3.633-5.72,16.467,16.467,0,0,0-5.4-3.86A16.753,16.753,0,0,0,278.427,225q-16.8,0-22.977,15.893a76.791,76.791,0,0,0-4.269,16.847,129.86,129.86,0,0,0-1.271,18.119q0,6.63.59,12.942t1.59,12.125a55.826,55.826,0,0,0,2.543,9.308,27.214,27.214,0,0,0,4.314,7.721,19.06,19.06,0,0,0,6.629,5.221,21.672,21.672,0,0,0,9.491,1.908,22.7,22.7,0,0,0,10.444-2.271,21.657,21.657,0,0,0,7.357-6,25.078,25.078,0,0,0,4.313-8.671,37.165,37.165,0,0,0,1.409-10.219,35.5,35.5,0,0,0-1.454-10.217,24.8,24.8,0,0,0-4.359-8.492,20.978,20.978,0,0,0-7.266-5.766,24.8,24.8,0,0,0-20.434.135,21.744,21.744,0,0,0-7.992,7.176q-.273-4.088-.273-8.084,0-2.812.137-5.494t.317-5.405a29.14,29.14,0,0,1,9.945-5.4,43.467,43.467,0,0,1,29.154,1.635,37.194,37.194,0,0,1,12.669,9.263,41,41,0,0,1,7.946,13.758,50.981,50.981,0,0,1,2.771,16.985,50.187,50.187,0,0,1-3.134,18.027,41.821,41.821,0,0,1-8.809,14.168,42.96,42.96,0,0,1-5.635,4.822,2.829,2.829,0,0,0,1.664,5.122h33.486a2.834,2.834,0,0,0,2.834-2.834V2.834A2.834,2.834,0,0,0,337.323,0Z"/>
      </g>
    </g>
</svg>
