<svg xmlns="http://www.w3.org/2000/svg" width="120mm" height="120mm" viewBox="0 0 340.157 340.157">
  <g id="Zimmernummer">
      <g id="Z-03-331-R">
        <path fill="#A0552B" stroke="none" d="M337.323,0H2.834A2.834,2.834,0,0,0,0,2.834V337.323a2.834,2.834,0,0,0,2.834,2.834H58.311a2.835,2.835,0,0,0,1.6-5.17q-9.372-6.652-13.964-18.967A57.918,57.918,0,0,1,42.77,297.4H64.022q-.273,11.9,5.9,19.8t17.71,7.9q11.533,0,18.709-5.995t7.175-17.255q0-13.623-10.808-18.891-7.629-3.723-23.25-3.27v-15.8q19.346.635,26.338-10.354,2.452-4.086,2.452-11.262a15.673,15.673,0,0,0-5.63-12.169,18.692,18.692,0,0,0-12.9-5.086q-17.711-.09-22.16,16.892a32.545,32.545,0,0,0-1.09,9.718H45.222q.726-18.981,12.17-31.606T88.362,207.4a47.992,47.992,0,0,1,28.7,8.992q12.441,9.081,12.442,25.793,0,21.342-18.436,27.881v.364a27.2,27.2,0,0,1,17.437,11.08,33.6,33.6,0,0,1,6.267,19.8q-.091,19.707-13.623,30.606a48.9,48.9,0,0,1-4.218,3.044,2.828,2.828,0,0,0,1.547,5.2h41.877a2.835,2.835,0,0,0,1.6-5.17q-9.371-6.652-13.964-18.967a57.891,57.891,0,0,1-3.178-18.619h21.252q-.273,11.9,5.9,19.8t17.71,7.9q11.532,0,18.709-5.995t7.175-17.255q0-13.623-10.808-18.891-7.629-3.723-23.25-3.27v-15.8q19.346.635,26.338-10.354,2.452-4.086,2.452-11.262a15.671,15.671,0,0,0-5.631-12.169,18.689,18.689,0,0,0-12.9-5.086q-17.71-.09-22.16,16.892a32.545,32.545,0,0,0-1.09,9.718H147.265q.726-18.981,12.17-31.606T190.4,207.4a47.993,47.993,0,0,1,28.7,8.992q12.441,9.081,12.442,25.793,0,21.342-18.436,27.881v.364a27.2,27.2,0,0,1,17.437,11.08,33.6,33.6,0,0,1,6.267,19.8q-.092,19.707-13.623,30.606a48.9,48.9,0,0,1-4.218,3.044,2.828,2.828,0,0,0,1.547,5.2h51.109a2.834,2.834,0,0,0,2.834-2.834V248.268H242.5V231.557q22.885,0,33.149-11.535a20.29,20.29,0,0,0,4.723-10.081h17.346V337.323a2.834,2.834,0,0,0,2.835,2.834h36.775a2.834,2.834,0,0,0,2.834-2.834V2.834A2.834,2.834,0,0,0,337.323,0Z"/>
      </g>
    </g>
</svg>
