<svg xmlns="http://www.w3.org/2000/svg" width="120mm" height="120mm" viewBox="0 0 340.157 340.157">
  <g id="Zimmernummer">
      <g id="Z-03-226-M">
        <path fill="#D4AF37" stroke="none" d="M337.323,0H2.834A2.834,2.834,0,0,0,0,2.834V337.323a2.834,2.834,0,0,0,2.834,2.834H22.865a2.821,2.821,0,0,0,2.822-2.645q1.662-27.977,28.5-46.361,6.355-4.632,13.259-8.991Q92.962,266,93.416,248.375q0-9.264-3.27-13.805a24.425,24.425,0,0,0-7.538-6.9A21.822,21.822,0,0,0,71.8,225.307q-6.63,0-10.808,2.543-11.171,6.811-11.806,30.061H27.935q0-22.251,11.806-36.237T72.8,207.688q21.252,0,32.877,13.713,8.991,10.99,8.991,26.247,0,20.073-18.255,35.511A149.665,149.665,0,0,1,78.34,296.51q-9.447,5.994-14.168,9.536Q53.363,314.131,51,321.485h63.483v15.838a2.834,2.834,0,0,0,2.835,2.834h6.108a2.821,2.821,0,0,0,2.821-2.645q1.662-27.977,28.5-46.361,6.356-4.632,13.26-8.991Q193.526,266,193.979,248.375q0-9.264-3.269-13.805a24.436,24.436,0,0,0-7.538-6.9,21.826,21.826,0,0,0-10.808-2.361q-6.63,0-10.807,2.543-11.172,6.811-11.807,30.061H128.5q0-22.251,11.807-36.237t33.058-13.986q21.252,0,32.877,13.713,8.991,10.99,8.991,26.247,0,20.073-18.254,35.511A149.676,149.676,0,0,1,178.9,296.51q-9.447,5.994-14.168,9.536-10.809,8.085-13.169,15.439H215.05v15.838a2.834,2.834,0,0,0,2.834,2.834h26.074a2.828,2.828,0,0,0,1.69-5.1q-1.185-.863-2.282-1.81a38.7,38.7,0,0,1-8.719-10.807,62.4,62.4,0,0,1-5.4-13.487,89.981,89.981,0,0,1-2.769-15.258q-.774-7.99-.773-15.984a144.635,144.635,0,0,1,.954-16.483,97.447,97.447,0,0,1,3.224-16.122,70.948,70.948,0,0,1,6.04-14.622,46.715,46.715,0,0,1,9.309-11.9,40.691,40.691,0,0,1,13.124-7.992,48.631,48.631,0,0,1,17.482-2.906,38.91,38.91,0,0,1,26.338,10.081,37.114,37.114,0,0,1,8.355,11.215,35.807,35.807,0,0,1,3.542,14.214H292.908a24.076,24.076,0,0,0-1.725-6.9,19.259,19.259,0,0,0-3.633-5.722,16.475,16.475,0,0,0-5.4-3.859,16.753,16.753,0,0,0-6.948-1.408q-16.8,0-22.977,15.893a76.762,76.762,0,0,0-4.269,16.847,129.849,129.849,0,0,0-1.271,18.119q0,6.63.59,12.941t1.589,12.125a55.934,55.934,0,0,0,2.543,9.309,27.227,27.227,0,0,0,4.315,7.721,19.031,19.031,0,0,0,6.63,5.221,21.647,21.647,0,0,0,9.49,1.908,22.693,22.693,0,0,0,10.444-2.271,21.689,21.689,0,0,0,7.357-5.994,25.089,25.089,0,0,0,4.314-8.673,37.19,37.19,0,0,0,1.407-10.218,35.5,35.5,0,0,0-1.453-10.217,24.826,24.826,0,0,0-4.359-8.492,21,21,0,0,0-7.266-5.766,22.875,22.875,0,0,0-10.172-2.135,22.64,22.64,0,0,0-10.262,2.271,21.74,21.74,0,0,0-7.993,7.174q-.271-4.086-.272-8.083,0-2.814.137-5.5t.317-5.4a29.1,29.1,0,0,1,9.945-5.4,43.473,43.473,0,0,1,29.154,1.634,37.2,37.2,0,0,1,12.669,9.264,41.024,41.024,0,0,1,7.947,13.759,50.994,50.994,0,0,1,2.769,16.983,50.214,50.214,0,0,1-3.132,18.028,41.84,41.84,0,0,1-8.81,14.167,39.6,39.6,0,0,1-13.669,9.264c-.319.132-.646.248-.97.372h47.383a2.834,2.834,0,0,0,2.834-2.834V2.834A2.834,2.834,0,0,0,337.323,0Z"/>
      </g>
    </g>
</svg>
