<svg xmlns="http://www.w3.org/2000/svg" width="120mm" height="120mm" viewBox="0 0 340.158 340.157">
  <g id="Zimmernummer">
      <g id="Z-03-138">
        <path fill="#000000" stroke="none" d="M337.323,0H2.835A2.835,2.835,0,0,0,0,2.835V337.323a2.834,2.834,0,0,0,2.834,2.834H64.7a2.834,2.834,0,0,0,2.834-2.834V248.839H35.564V232.128q22.886,0,33.149-11.534a20.3,20.3,0,0,0,4.723-10.081H90.782v126.81a2.835,2.835,0,0,0,2.835,2.834h37.327a2.828,2.828,0,0,0,1.689-5.1q-8.88-6.6-13.314-18.467a57.884,57.884,0,0,1-3.18-18.618h21.252q-.273,11.9,5.9,19.8t17.709,7.9q11.535,0,18.709-5.994t7.176-17.256q0-13.623-10.809-18.891-7.629-3.723-23.25-3.269v-15.8q19.345.636,26.338-10.354,2.452-4.086,2.453-11.261a15.674,15.674,0,0,0-5.631-12.17,18.689,18.689,0,0,0-12.9-5.086q-17.71-.09-22.16,16.892a32.48,32.48,0,0,0-1.09,9.718H118.592q.725-18.981,12.17-31.605t30.969-12.624a47.989,47.989,0,0,1,28.7,8.991q12.442,9.082,12.443,25.793,0,21.342-18.437,27.882V271a27.207,27.207,0,0,1,17.437,11.08,33.608,33.608,0,0,1,6.268,19.8q-.093,19.709-13.623,30.606-1.645,1.326-3.374,2.487a2.83,2.83,0,0,0,1.57,5.186h41.377a2.836,2.836,0,0,0,1.564-5.2q-1.361-.937-2.629-1.977a36.436,36.436,0,0,1-9.9-12.8,41.062,41.062,0,0,1-3.633-17.756,36.581,36.581,0,0,1,1.681-11.353,31.176,31.176,0,0,1,4.769-9.263,29,29,0,0,1,7.537-6.949,32.945,32.945,0,0,1,9.9-4.222v-.364a26.966,26.966,0,0,1-18.437-26.792,38.872,38.872,0,0,1,2.724-15.122,29.344,29.344,0,0,1,7.675-10.852,34.844,34.844,0,0,1,11.761-6.721,52.726,52.726,0,0,1,14.986-2.724v16.8q-7.9,1.274-12.488,6.313t-4.586,13.3q0,8.175,4.495,13.124t12.579,5.949v16.166a26.867,26.867,0,0,0-8.765,2.27,21.308,21.308,0,0,0-6.72,4.769,21.074,21.074,0,0,0-4.314,6.992,27.345,27.345,0,0,0,.318,18.982,21.855,21.855,0,0,0,5.131,7.493,22.137,22.137,0,0,0,7.811,4.722,30.787,30.787,0,0,0,19.8,0,22.636,22.636,0,0,0,7.855-4.722,21.486,21.486,0,0,0,5.177-7.538,27.853,27.853,0,0,0,.363-19.027,19.713,19.713,0,0,0-4.313-6.948,22.448,22.448,0,0,0-6.721-4.723,26.562,26.562,0,0,0-8.81-2.27V263.552q8.082-1,12.533-5.858t4.451-13.033q0-8.264-4.5-13.441T268.9,224.862v-16.8a51.22,51.22,0,0,1,15.848,2.952,33.379,33.379,0,0,1,11.671,7.129,29.8,29.8,0,0,1,7.174,10.9,39.892,39.892,0,0,1,2.453,14.44,28.813,28.813,0,0,1-4.678,16.484,27.452,27.452,0,0,1-13.759,10.308v.364a33.213,33.213,0,0,1,9.763,4.177,30.114,30.114,0,0,1,12.4,15.622,31.525,31.525,0,0,1,1.726,10.535,45.262,45.262,0,0,1-3.451,18.255,37.03,37.03,0,0,1-12.716,15.785,2.83,2.83,0,0,0,1.625,5.147h40.371a2.835,2.835,0,0,0,2.835-2.834V2.835A2.835,2.835,0,0,0,337.323,0Z"/>
      </g>
    </g>
</svg>
