<svg xmlns="http://www.w3.org/2000/svg" width="120mm" height="120mm" viewBox="0 0 340.157 340.158">
  <g id="Zimmernummer">
      <g id="Z-03-439-R">
        <path fill="#A0552B" stroke="none" d="M337.323,0H2.835A2.835,2.835,0,0,0,0,2.835V337.323a2.835,2.835,0,0,0,2.835,2.835h70.62a2.806,2.806,0,0,0,2.806-2.806V235.262h-.454L36.755,292.568h32.7v16.711H20.407V288.3l55.854-78.379H96.333v82.646h16.711v16.711H96.333v28.073a2.806,2.806,0,0,0,2.806,2.806H140.69a2.806,2.806,0,0,0,1.583-5.119q-9.446-6.658-14.062-19.039a57.906,57.906,0,0,1-3.179-18.617h21.252q-.273,11.9,5.9,19.8t17.71,7.9q11.534,0,18.709-5.994t7.175-17.256q0-13.623-10.808-18.891-7.629-3.723-23.25-3.269v-15.8q19.345.636,26.338-10.353,2.452-4.088,2.452-11.262a15.676,15.676,0,0,0-5.63-12.17,18.69,18.69,0,0,0-12.9-5.086q-17.71-.089-22.16,16.893a32.537,32.537,0,0,0-1.09,9.718H127.484q.728-18.981,12.17-31.605t30.97-12.625a47.99,47.99,0,0,1,28.7,8.992q12.442,9.082,12.442,25.793,0,21.343-18.436,27.881v.363a27.208,27.208,0,0,1,17.437,11.08,33.609,33.609,0,0,1,6.267,19.8q-.09,19.548-13.4,30.431a3.025,3.025,0,0,1-.464.31l-5.259,2.858a2.806,2.806,0,0,0,1.34,5.272h45.229a2.8,2.8,0,0,0,1.672-5.051q-1.474-1.115-2.866-2.4a37.07,37.07,0,0,1-8.355-11.217,35.734,35.734,0,0,1-3.542-14.213h21.161a24.042,24.042,0,0,0,1.725,6.9,19.212,19.212,0,0,0,3.633,5.722,16.467,16.467,0,0,0,5.4,3.86,16.753,16.753,0,0,0,6.948,1.408q16.8,0,22.977-15.895a76.79,76.79,0,0,0,4.269-16.847,129.966,129.966,0,0,0,1.271-18.118q0-6.629-.59-12.943t-1.589-12.123a56.193,56.193,0,0,0-2.543-9.31,27.281,27.281,0,0,0-4.315-7.719A19.075,19.075,0,0,0,283.105,227a21.675,21.675,0,0,0-9.491-1.906,22.725,22.725,0,0,0-10.444,2.269,21.684,21.684,0,0,0-7.357,6,25.108,25.108,0,0,0-4.313,8.628,36.958,36.958,0,0,0-1.408,10.262,35.446,35.446,0,0,0,1.453,10.217,24.747,24.747,0,0,0,4.359,8.492,20.961,20.961,0,0,0,7.266,5.768,22.858,22.858,0,0,0,10.172,2.134,22.63,22.63,0,0,0,10.262-2.271,21.728,21.728,0,0,0,7.992-7.174q.273,4.087.273,8.082,0,2.815-.137,5.494t-.317,5.405a29.153,29.153,0,0,1-9.945,5.4,43.483,43.483,0,0,1-29.154-1.635,37.236,37.236,0,0,1-12.669-9.264,41.018,41.018,0,0,1-7.946-13.759,50.944,50.944,0,0,1-2.771-16.983,50.2,50.2,0,0,1,3.134-18.029,41.85,41.85,0,0,1,8.809-14.168,39.634,39.634,0,0,1,13.669-9.264,45.807,45.807,0,0,1,17.71-3.314,50.8,50.8,0,0,1,17.211,2.635,39.689,39.689,0,0,1,12.623,7.218,38.711,38.711,0,0,1,8.718,10.809,62.405,62.405,0,0,1,5.405,13.486,90.252,90.252,0,0,1,2.769,15.258q.772,7.992.773,15.985a144.832,144.832,0,0,1-.954,16.439,97.35,97.35,0,0,1-3.224,16.166A71.05,71.05,0,0,1,309.533,320a46.752,46.752,0,0,1-9.309,11.9,42.1,42.1,0,0,1-3.9,3.139,2.808,2.808,0,0,0,1.579,5.124h39.418a2.834,2.834,0,0,0,2.834-2.835V2.835A2.834,2.834,0,0,0,337.323,0Z"/>
      </g>
    </g>
</svg>
