<svg xmlns="http://www.w3.org/2000/svg" width="120mm" height="120mm" viewBox="0 0 340.158 340.157">
  <g id="Zimmernummer">
      <g id="Z-03-323">
        <path fill="#000000" stroke="none" d="M337.323,0H2.835A2.835,2.835,0,0,0,0,2.835V337.323a2.834,2.834,0,0,0,2.834,2.834H39.2a2.835,2.835,0,0,0,1.6-5.17q-9.372-6.654-13.965-18.968A57.918,57.918,0,0,1,23.658,297.4H44.91q-.271,11.9,5.9,19.8t17.71,7.9q11.532,0,18.709-6t7.174-17.255q0-13.623-10.807-18.891-7.629-3.723-23.25-3.27v-15.8q19.344.636,26.338-10.354,2.451-4.086,2.452-11.262A15.671,15.671,0,0,0,83.509,230.1a18.69,18.69,0,0,0-12.9-5.086q-17.709-.09-22.16,16.892a32.577,32.577,0,0,0-1.09,9.718H26.11q.727-18.981,12.17-31.606T69.25,207.4a47.99,47.99,0,0,1,28.7,8.992q12.443,9.081,12.443,25.793,0,21.342-18.437,27.881v.364a27.205,27.205,0,0,1,17.438,11.08,33.611,33.611,0,0,1,6.266,19.8q-.09,19.707-13.623,30.606a48.558,48.558,0,0,1-4.219,3.045,2.829,2.829,0,0,0,1.548,5.2H122.1a2.82,2.82,0,0,0,2.822-2.658q1.545-28.164,28.519-46.638,6.357-4.632,13.26-8.991,25.519-16.164,25.975-33.785,0-9.264-3.27-13.805a24.447,24.447,0,0,0-7.538-6.9,21.825,21.825,0,0,0-10.807-2.361q-6.631,0-10.808,2.543-11.171,6.811-11.807,30.061H127.2q0-22.251,11.807-36.237T172.063,207.4q21.252,0,32.877,13.714,8.991,10.99,8.991,26.247,0,20.073-18.255,35.511A149.744,149.744,0,0,1,177.6,296.22q-9.447,5.994-14.168,9.536-10.809,8.085-13.169,15.439h63.483v16.128a2.834,2.834,0,0,0,2.835,2.834h25.6a2.835,2.835,0,0,0,1.6-5.17q-9.372-6.654-13.965-18.968a57.891,57.891,0,0,1-3.178-18.619H247.9q-.273,11.9,5.9,19.8t17.71,7.9q11.532,0,18.709-6t7.175-17.255q0-13.623-10.808-18.891-7.629-3.723-23.25-3.27v-15.8q19.346.636,26.338-10.354,2.452-4.086,2.452-11.262A15.674,15.674,0,0,0,286.5,230.1a18.689,18.689,0,0,0-12.9-5.086q-17.711-.09-22.16,16.892a32.545,32.545,0,0,0-1.09,9.718H229.1q.724-18.981,12.17-31.606T272.237,207.4a47.993,47.993,0,0,1,28.7,8.992q12.441,9.081,12.442,25.793,0,21.342-18.436,27.881v.364a27.2,27.2,0,0,1,17.437,11.08,33.6,33.6,0,0,1,6.267,19.8q-.093,19.707-13.623,30.606a48.572,48.572,0,0,1-4.22,3.045,2.829,2.829,0,0,0,1.548,5.2h34.971a2.835,2.835,0,0,0,2.835-2.835V2.834A2.834,2.834,0,0,0,337.323,0Z"/>
      </g>
    </g>
</svg>
