<svg xmlns="http://www.w3.org/2000/svg" width="120mm" height="120mm" viewBox="0 0 340.157 340.157">
  <g id="Zimmernummer">
      <g id="Z-04-540-E">
        <path fill="#A09f9d" stroke="none" d="M337.322,0H2.835A2.836,2.836,0,0,0,0,2.835V337.323a2.834,2.834,0,0,0,2.835,2.834H337.322a2.834,2.834,0,0,0,2.835-2.834V2.835A2.836,2.836,0,0,0,337.322,0Zm-162,280.65H133.4L164,235.877q2.829-4.236,6.191-9.949t5.484-10.319h.353q-.179,4.794-.442,9.766t-.265,9.765Zm63.942,10.871q-3.276-11.055-3.273-27.084t3.273-27.086q3.27-11.055,9.728-16.674a25.106,25.106,0,0,1,31.661,0q6.456,5.622,9.729,16.674t3.272,27.086q0,16.029-3.272,27.084T280.656,308.2a25.109,25.109,0,0,1-31.661,0Q242.534,302.577,239.267,291.521Zm82.465,30.211H285.149a39.84,39.84,0,0,0,11.427-10.68q11.761-16.031,11.763-46.615T296.576,217.82q-11.766-16.029-31.75-16.03-19.814,0-31.662,16.03t-11.852,46.617q0,30.585,11.852,46.615a40.3,40.3,0,0,0,11.452,10.68h-55.14V293.363h20.695V280.65H189.476V203.633H171.61l-53.241,78.86v10.87h56.956v28.369h-85.9A35.2,35.2,0,0,0,105.282,303.5a45.5,45.5,0,0,0,3.007-16.951,44.145,44.145,0,0,0-4.6-20.636,33.627,33.627,0,0,0-12.824-13.726A37.247,37.247,0,0,0,71.5,247.3a41.055,41.055,0,0,0-15.831,2.763,30.485,30.485,0,0,0-10.879,7.371h-.353l.353-1.659,4.6-38.324h53.594V203.633H37.359l-6.9,66.884,12.382,2.395a24.094,24.094,0,0,1,6.721-6.817,27.693,27.693,0,0,1,8.756-3.778,44,44,0,0,1,10.525-1.2,28.11,28.11,0,0,1,13.442,2.948,19.716,19.716,0,0,1,8.4,8.752q2.919,5.8,2.918,14.464a28.51,28.51,0,0,1-3.183,13.911,22.03,22.03,0,0,1-8.933,8.937,28.63,28.63,0,0,1-13.885,3.132q-11.5,0-17.422-5.989a36.185,36.185,0,0,1-8.756-15.569l-13.8,7.555q5.129,13.085,14.593,20.452a30.171,30.171,0,0,0,2.95,2.02H18.425V18.425H321.732Z"/>
      </g>
    </g>
</svg>
