<svg xmlns="http://www.w3.org/2000/svg" width="120mm" height="120mm" viewBox="0 0 340.158 340.158">
  <g id="Zimmernummer">
      <g id="Z-04-507">
        <path fill="#000000" stroke="none" d="M337.323,0H2.835A2.836,2.836,0,0,0,0,2.835V337.323a2.836,2.836,0,0,0,2.835,2.835H337.323a2.836,2.836,0,0,0,2.835-2.835V2.835A2.836,2.836,0,0,0,337.323,0ZM147.112,291.522q-3.276-11.055-3.273-27.085t3.273-27.086q3.27-11.053,9.728-16.674a25.107,25.107,0,0,1,31.662,0q6.454,5.622,9.729,16.674t3.272,27.086q0,16.031-3.272,27.085T188.5,308.2a25.111,25.111,0,0,1-31.662,0Q150.383,302.578,147.112,291.522Zm174.62,30.21H263.1a171.645,171.645,0,0,1,4.2-35.554,139.2,139.2,0,0,1,13.531-35.469A173.264,173.264,0,0,1,304.8,217.453v-13.82H218.836v13.82H289.42a164.52,164.52,0,0,0-21.234,30.033,156.12,156.12,0,0,0-14.769,37.679,165.514,165.514,0,0,0-4.813,36.567H193a39.823,39.823,0,0,0,11.426-10.68q11.762-16.029,11.763-46.615t-11.763-46.616q-11.764-16.031-31.75-16.03-19.812,0-31.662,16.03t-11.85,46.616q0,30.586,11.85,46.615a40.309,40.309,0,0,0,11.452,10.68H103.574A35.208,35.208,0,0,0,119.432,303.5a45.508,45.508,0,0,0,3.007-16.952,44.126,44.126,0,0,0-4.6-20.635,33.623,33.623,0,0,0-12.824-13.727A37.247,37.247,0,0,0,85.648,247.3a41.035,41.035,0,0,0-15.831,2.764,30.483,30.483,0,0,0-10.878,7.37h-.354l.354-1.658,4.6-38.324h53.6v-13.82H51.509l-6.9,66.884,12.382,2.4a24.111,24.111,0,0,1,6.721-6.818,27.7,27.7,0,0,1,8.756-3.777A43.953,43.953,0,0,1,83,261.12a28.117,28.117,0,0,1,13.443,2.948,19.719,19.719,0,0,1,8.4,8.752q2.921,5.8,2.919,14.464a28.521,28.521,0,0,1-3.183,13.911,22.039,22.039,0,0,1-8.933,8.936,28.637,28.637,0,0,1-13.886,3.132q-11.5,0-17.423-5.988a36.2,36.2,0,0,1-8.755-15.569l-13.8,7.554q5.129,13.086,14.593,20.452a30.171,30.171,0,0,0,2.95,2.02h-40.9V18.425H321.732Z"/>
      </g>
    </g>
</svg>
