<svg xmlns="http://www.w3.org/2000/svg" width="120mm" height="120mm" viewBox="0 0 340.158 340.157">
  <g id="Zimmernummer">
      <g id="Z-04-420-R">
        <path fill="#A0552B" stroke="none" d="M337.323,0H2.835A2.836,2.836,0,0,0,0,2.835V337.323a2.834,2.834,0,0,0,2.835,2.834H337.323a2.834,2.834,0,0,0,2.835-2.834V2.835A2.836,2.836,0,0,0,337.323,0ZM86.442,280.65H44.521l30.6-44.773q2.828-4.236,6.191-9.949T86.8,215.609h.353q-.178,4.794-.442,9.766t-.266,9.765Zm147.606,10.871q-3.276-11.055-3.273-27.084t3.273-27.086q3.272-11.055,9.728-16.674a25.107,25.107,0,0,1,31.662,0q6.454,5.622,9.729,16.674t3.272,27.086q0,16.029-3.272,27.084T275.438,308.2a25.111,25.111,0,0,1-31.662,0Q237.319,302.577,234.048,291.521Zm87.684,30.211h-41.8a39.827,39.827,0,0,0,11.427-10.68q11.761-16.031,11.763-46.615T291.357,217.82q-11.765-16.029-31.75-16.03-19.812,0-31.662,16.03T216.1,264.437q0,30.585,11.85,46.615a40.313,40.313,0,0,0,11.453,10.68H209.021V311.42h-40.86q-1.772,0-5.219.093t-6.9.183q-3.448.1-5.4.277v-.184q20.87-14.553,33.078-26.532t17.51-22.94a50.849,50.849,0,0,0,5.307-22.386,42.164,42.164,0,0,0-2.741-15.478,34.42,34.42,0,0,0-7.871-12.068,35.378,35.378,0,0,0-12.294-7.83,44.679,44.679,0,0,0-16.185-2.765q-11.852,0-20.43,4.606A35.548,35.548,0,0,0,133.4,219.11a48.8,48.8,0,0,0-6.632,18.794l12.381,7.739q1.236-13.633,8.491-21.834t19.28-8.2q11.5,0,18.13,6.726t6.633,17.6a41.281,41.281,0,0,1-3.007,15.569A58.812,58.812,0,0,1,178.6,271.254a176.031,176.031,0,0,1-18.838,18.425q-11.766,10.135-29.275,23.584v8.469H100.593V293.363h20.695V280.65H100.593V203.633H82.729l-53.243,78.86v10.87H86.442v28.369H18.425V18.425H321.732Z"/>
      </g>
    </g>
</svg>
