<svg xmlns="http://www.w3.org/2000/svg" width="120mm" height="120mm" viewBox="0 0 340.158 340.157">
  <g id="Zimmernummer">
      <g id="Z-04-416-M">
        <path fill="#D4AF37" stroke="none" d="M337.323,0H2.835A2.836,2.836,0,0,0,0,2.835V337.323a2.834,2.834,0,0,0,2.835,2.834H337.323a2.834,2.834,0,0,0,2.835-2.834V2.835A2.836,2.836,0,0,0,337.323,0ZM100.857,280.65H58.936l30.6-44.773q2.827-4.236,6.191-9.949t5.484-10.319h.353q-.178,4.794-.442,9.766t-.266,9.765Zm126.117,19.623a25.081,25.081,0,0,1-3.36-12.805,25.9,25.9,0,0,1,3.184-12.99,22.971,22.971,0,0,1,8.932-8.844,26.85,26.85,0,0,1,13.355-3.225,28.849,28.849,0,0,1,13.8,3.04,20.784,20.784,0,0,1,8.667,8.66,27.961,27.961,0,0,1,3.006,13.359q0,11.979-6.721,18.7T249.085,312.9a24.992,24.992,0,0,1-22.111-12.622Zm94.758,21.459h-50.2a33.846,33.846,0,0,0,12.924-13.168,42.474,42.474,0,0,0,4.953-20.913q0-12.159-4.864-21a33.651,33.651,0,0,0-13.708-13.634,42.813,42.813,0,0,0-20.7-4.791,39.5,39.5,0,0,0-13,2.3,33.079,33.079,0,0,0-11.851,7.186,25.306,25.306,0,0,0-7.163,12.806h-.708V267.2a95.657,95.657,0,0,1,2.034-20.267,55.968,55.968,0,0,1,6.1-16.4,32.977,32.977,0,0,1,9.906-10.964,23.38,23.38,0,0,1,13.443-3.961q10.434,0,16.361,4.883a27.405,27.405,0,0,1,8.579,13.359l13.089-6.45a46.934,46.934,0,0,0-8.667-14.647,31.435,31.435,0,0,0-12.116-8.292,45.766,45.766,0,0,0-16.362-2.672,39.821,39.821,0,0,0-23.26,7.187q-10.347,7.185-16.361,21.1t-6.014,34.364q0,18.24,5.129,32.335t15.212,22.2a35.524,35.524,0,0,0,3.945,2.757H183.462v-118.1H171.08a36.732,36.732,0,0,1-7.075,7.185,88.815,88.815,0,0,1-10,6.911,90.571,90.571,0,0,1-10.258,5.342,29.8,29.8,0,0,1-8.048,2.488l3.714,13.451a65.993,65.993,0,0,0,30.247-17.136q-.179,3.869-.266,7.462t-.088,6.726v85.67h-54.3V293.363H135.7V280.65H115.009V203.633H97.143L43.9,282.493v10.87h56.956v28.369H18.425V18.425H321.732Z"/>
      </g>
    </g>
</svg>
