<svg xmlns="http://www.w3.org/2000/svg" width="120mm" height="120mm" viewBox="0 0 340.158 340.157">
  <g id="Zimmernummer">
      <g id="Z-04-061-M">
        <path fill="#D4AF37" stroke="none" d="M337.323,0H2.835A2.834,2.834,0,0,0,0,2.835V337.323a2.834,2.834,0,0,0,2.835,2.834H337.323a2.834,2.834,0,0,0,2.835-2.834V2.835A2.834,2.834,0,0,0,337.323,0ZM164.248,300.273a24.3,24.3,0,0,1-3.5-12.805,25.086,25.086,0,0,1,3.316-12.99,23.482,23.482,0,0,1,9.305-8.844,28.907,28.907,0,0,1,13.911-3.225,31.086,31.086,0,0,1,14.371,3.04,21.238,21.238,0,0,1,9.029,8.66,27.039,27.039,0,0,1,3.132,13.359q0,11.979-7,18.7T187.279,312.9a26.855,26.855,0,0,1-13.543-3.41A25.722,25.722,0,0,1,164.248,300.273Zm157.484,21.459H284.377v-118.1h-12.9a37.424,37.424,0,0,1-7.37,7.185,92.514,92.514,0,0,1-10.41,6.911,95.854,95.854,0,0,1-10.687,5.342,31.992,31.992,0,0,1-8.383,2.488l3.87,13.451a67.569,67.569,0,0,0,16.951-6.541,66.182,66.182,0,0,0,14.555-10.595q-.186,3.869-.276,7.462t-.092,6.726v85.67h-58.97a34.55,34.55,0,0,0,13.462-13.168,41.094,41.094,0,0,0,5.159-20.913q0-12.159-5.067-21a34.381,34.381,0,0,0-14.279-13.634q-9.216-4.791-21.558-4.791a42.682,42.682,0,0,0-13.542,2.3,34.746,34.746,0,0,0-12.345,7.186,25.074,25.074,0,0,0-7.462,12.806H154.3V267.2a91.944,91.944,0,0,1,2.119-20.267,54.588,54.588,0,0,1,6.356-16.4,33.525,33.525,0,0,1,10.318-10.964,25.091,25.091,0,0,1,14-3.961q10.871,0,17.044,4.883a27.33,27.33,0,0,1,8.936,13.359l13.634-6.45a46.573,46.573,0,0,0-9.028-14.647,32.813,32.813,0,0,0-12.621-8.292,49.467,49.467,0,0,0-17.043-2.672,42.7,42.7,0,0,0-24.229,7.187q-10.779,7.185-17.043,21.1t-6.265,34.364q0,18.24,5.343,32.335t15.845,22.2a37.122,37.122,0,0,0,4.11,2.757H18.425V18.425H321.732Z"/>
      </g>
    </g>
</svg>
