<svg xmlns="http://www.w3.org/2000/svg" width="120mm" height="120mm" viewBox="0 0 340.158 340.157">
  <g id="Zimmernummer">
      <g id="Z-04-211-E">
        <path fill="#A09f9d" stroke="none" d="M337.323,0H2.835A2.834,2.834,0,0,0,0,2.835V337.323a2.834,2.834,0,0,0,2.835,2.834H337.323a2.834,2.834,0,0,0,2.835-2.834V2.835A2.834,2.834,0,0,0,337.323,0ZM321.732,321.732H253.591v-118.1H241.209a36.675,36.675,0,0,1-7.075,7.185,88.71,88.71,0,0,1-9.994,6.911,90.58,90.58,0,0,1-10.259,5.342,29.776,29.776,0,0,1-8.048,2.488l3.714,13.451a65.98,65.98,0,0,0,30.247-17.136q-.177,3.869-.265,7.462t-.089,6.726v85.67H189.914v-118.1H177.532a36.7,36.7,0,0,1-7.075,7.185,88.71,88.71,0,0,1-9.994,6.911,90.665,90.665,0,0,1-10.259,5.342,29.8,29.8,0,0,1-8.048,2.488l3.714,13.451a65.98,65.98,0,0,0,30.247-17.136q-.179,3.869-.265,7.462t-.089,6.726v85.67H136.32V311.42H95.46q-1.77,0-5.218.093t-6.9.183q-3.45.1-5.395.277v-.184q20.87-14.553,33.077-26.532t17.511-22.94a50.849,50.849,0,0,0,5.307-22.386,42.144,42.144,0,0,0-2.742-15.478,34.408,34.408,0,0,0-7.872-12.068,35.369,35.369,0,0,0-12.292-7.83,44.681,44.681,0,0,0-16.186-2.765q-11.852,0-20.429,4.606A35.527,35.527,0,0,0,60.7,219.11,48.788,48.788,0,0,0,54.07,237.9l12.382,7.739q1.235-13.633,8.49-21.834t19.28-8.2q11.5,0,18.131,6.726t6.632,17.6a41.3,41.3,0,0,1-3.006,15.569A58.842,58.842,0,0,1,105.9,271.254a176.031,176.031,0,0,1-18.838,18.425q-11.765,10.135-29.274,23.584v8.469H18.425V18.425H321.732Z"/>
      </g>
    </g>
</svg>
