<svg xmlns="http://www.w3.org/2000/svg" width="120mm" height="120mm" viewBox="0 0 340.158 340.157">
  <g id="Zimmernummer">
      <g id="Z-04-002">
        <path fill="#000000" stroke="none" d="M339.328.831a2.835,2.835,0,0,0-2-.831H2.835A2.836,2.836,0,0,0,0,2.835V337.323a2.834,2.834,0,0,0,2.835,2.834H337.323a2.834,2.834,0,0,0,2.835-2.834V2.835A2.835,2.835,0,0,0,339.328.831Zm-17.6,320.9H300.654V311.3H258.092q-1.845,0-5.436.092t-7.185.184q-3.594.1-5.62.276v-.184q21.738-14.553,34.455-26.532T292.547,262.2a49.2,49.2,0,0,0,5.527-22.387,40.644,40.644,0,0,0-2.855-15.477,34.308,34.308,0,0,0-8.2-12.068,37.087,37.087,0,0,0-12.806-7.831,48.286,48.286,0,0,0-16.86-2.764q-12.345,0-21.28,4.606a36.446,36.446,0,0,0-14.188,12.714,47.548,47.548,0,0,0-6.909,18.793l12.9,7.739q1.286-13.633,8.844-21.834t20.083-8.2q11.975,0,18.886,6.725t6.909,17.6a39.842,39.842,0,0,1-3.132,15.569,58.553,58.553,0,0,1-10.5,15.754,179.975,179.975,0,0,1-19.622,18.425q-12.256,10.136-30.494,23.585v8.586H18.425V18.425H321.732Z"/>
      </g>
    </g>
</svg>
