<svg xmlns="http://www.w3.org/2000/svg" width="120mm" height="120mm" viewBox="0 0 340.158 340.158">
  <g id="Zimmernummer">
      <g id="Z-04-047-E">
        <path fill="#A09f9d" stroke="none" d="M337.323,0H2.835A2.836,2.836,0,0,0,0,2.835V337.323a2.836,2.836,0,0,0,2.835,2.835H337.323a2.836,2.836,0,0,0,2.835-2.835V2.835A2.836,2.836,0,0,0,337.323,0Zm-148.7,280.651H144.951l31.875-44.774q2.946-4.236,6.449-9.949a116.873,116.873,0,0,0,5.712-10.318h.368q-.186,4.792-.46,9.765t-.277,9.765Zm133.114,41.081H268.816a165.147,165.147,0,0,1,4.375-35.554,135.839,135.839,0,0,1,14.1-35.469,173.667,173.667,0,0,1,24.966-33.256v-13.82H222.706v13.82H296.23a164.735,164.735,0,0,0-22.118,30.033,152.433,152.433,0,0,0-15.385,37.679,159.277,159.277,0,0,0-5.013,36.567H203.358V293.364h21.558V280.651H203.358V203.633H184.749l-55.46,78.861v10.87h59.329v28.368H18.425V18.425H321.732Z"/>
      </g>
    </g>
</svg>
