<svg xmlns="http://www.w3.org/2000/svg" width="120mm" height="120mm" viewBox="0 0 340.158 340.157">
  <g id="Zimmernummer">
      <g id="Z-04-206-E">
        <path fill="#A09f9d" stroke="none" d="M337.323,0H2.835A2.836,2.836,0,0,0,0,2.835V337.323a2.834,2.834,0,0,0,2.835,2.834H337.323a2.834,2.834,0,0,0,2.835-2.834V2.835A2.836,2.836,0,0,0,337.323,0ZM140.4,291.521q-3.274-11.055-3.272-27.084t3.272-27.086q3.27-11.055,9.728-16.674a25.107,25.107,0,0,1,31.662,0q6.456,5.622,9.729,16.674t3.272,27.086q0,16.029-3.272,27.084T181.786,308.2a25.111,25.111,0,0,1-31.662,0Q143.666,302.577,140.4,291.521Zm98.964,8.752A25.081,25.081,0,0,1,236,287.468a25.912,25.912,0,0,1,3.183-12.99,22.967,22.967,0,0,1,8.933-8.844,26.852,26.852,0,0,1,13.354-3.225,28.846,28.846,0,0,1,13.8,3.04,20.773,20.773,0,0,1,8.667,8.66,27.95,27.95,0,0,1,3.008,13.359q0,11.979-6.722,18.7T261.47,312.9a24.988,24.988,0,0,1-22.11-12.622Zm82.372,21.459H283.923a33.846,33.846,0,0,0,12.924-13.168,42.463,42.463,0,0,0,4.953-20.913q0-12.159-4.865-21a33.633,33.633,0,0,0-13.708-13.634,42.806,42.806,0,0,0-20.695-4.791,39.5,39.5,0,0,0-13,2.3,33.079,33.079,0,0,0-11.851,7.186,25.307,25.307,0,0,0-7.164,12.806h-.707V267.2a95.657,95.657,0,0,1,2.034-20.267,55.968,55.968,0,0,1,6.1-16.4,32.977,32.977,0,0,1,9.906-10.964,23.377,23.377,0,0,1,13.443-3.961q10.434,0,16.361,4.883a27.405,27.405,0,0,1,8.579,13.359l13.089-6.45a46.934,46.934,0,0,0-8.667-14.647,31.42,31.42,0,0,0-12.116-8.292,45.766,45.766,0,0,0-16.362-2.672,39.824,39.824,0,0,0-23.26,7.187q-10.347,7.185-16.362,21.1t-6.013,34.364q0,18.24,5.129,32.335t15.212,22.2a35.524,35.524,0,0,0,3.945,2.757h-54.55a39.84,39.84,0,0,0,11.427-10.68q11.762-16.031,11.763-46.615T197.706,217.82q-11.766-16.029-31.751-16.03-19.812,0-31.661,16.03t-11.851,46.617q0,30.585,11.851,46.615a40.3,40.3,0,0,0,11.452,10.68H115.368V311.42H74.509q-1.77,0-5.218.093t-6.9.183q-3.449.1-5.4.277v-.184q20.87-14.553,33.077-26.532t17.512-22.94a50.861,50.861,0,0,0,5.306-22.386,42.164,42.164,0,0,0-2.741-15.478,34.408,34.408,0,0,0-7.872-12.068,35.373,35.373,0,0,0-12.293-7.83A44.679,44.679,0,0,0,73.8,201.79q-11.851,0-20.43,4.606A35.524,35.524,0,0,0,39.752,219.11,48.789,48.789,0,0,0,33.118,237.9L45.5,245.643q1.236-13.633,8.49-21.834t19.281-8.2q11.495,0,18.13,6.726t6.633,17.6A41.281,41.281,0,0,1,95.027,255.5a58.812,58.812,0,0,1-10.082,15.754,176.031,176.031,0,0,1-18.838,18.425q-11.766,10.135-29.274,23.584v8.469H18.425V18.425H321.732Z"/>
      </g>
    </g>
</svg>
