<svg xmlns="http://www.w3.org/2000/svg" width="120mm" height="120mm" viewBox="0 0 340.158 340.158">
  <g id="Zimmernummer">
      <g id="Z-04-404-M">
        <path fill="#D4AF37" stroke="none" d="M337.323,0H2.835A2.836,2.836,0,0,0,0,2.835V337.323a2.836,2.836,0,0,0,2.835,2.835H337.323a2.836,2.836,0,0,0,2.835-2.835V2.835A2.836,2.836,0,0,0,337.323,0ZM84.85,280.65H42.929l30.6-44.773q2.828-4.236,6.19-9.949T85.2,215.609h.354q-.179,4.794-.442,9.766t-.266,9.765Zm55.982,10.871q-3.274-11.055-3.272-27.084t3.272-27.086q3.27-11.055,9.728-16.674a25.107,25.107,0,0,1,31.662,0q6.456,5.622,9.729,16.674t3.272,27.086q0,16.029-3.272,27.084T182.222,308.2a25.111,25.111,0,0,1-31.662,0Q144.1,302.577,140.832,291.521ZM272.874,280.65H230.953l30.6-44.773q2.829-4.236,6.192-9.949t5.483-10.319h.354q-.18,4.794-.443,9.766t-.264,9.765Zm48.858,41.082H287.024V293.363h20.695V280.65H287.024V203.633H269.159l-53.242,78.86v10.87h56.957v28.369h-86.16a39.83,39.83,0,0,0,11.428-10.68Q209.9,295.022,209.9,264.437T198.142,217.82q-11.766-16.029-31.751-16.03-19.812,0-31.661,16.03t-11.852,46.617q0,30.585,11.852,46.615a40.31,40.31,0,0,0,11.452,10.68H99V293.363h20.7V280.65H99V203.633H81.135l-53.241,78.86v10.87H84.85v28.369H18.425V18.425H321.732Z"/>
      </g>
    </g>
</svg>
