<svg xmlns="http://www.w3.org/2000/svg" width="120mm" height="120mm" viewBox="0 0 340.158 340.157">
  <g id="Zimmernummer">
      <g id="Z-04-645">
        <path fill="#000000" stroke="none" d="M337.323,0H2.835A2.836,2.836,0,0,0,0,2.835V337.323a2.834,2.834,0,0,0,2.835,2.834H337.323a2.834,2.834,0,0,0,2.835-2.834V2.835A2.836,2.836,0,0,0,337.323,0ZM53.812,300.273a25.063,25.063,0,0,1-3.362-12.805,25.913,25.913,0,0,1,3.184-12.99,22.971,22.971,0,0,1,8.932-8.844,26.856,26.856,0,0,1,13.355-3.225,28.849,28.849,0,0,1,13.8,3.04,20.787,20.787,0,0,1,8.668,8.66,27.961,27.961,0,0,1,3.007,13.359q0,11.979-6.722,18.7T75.921,312.9a24.988,24.988,0,0,1-22.109-12.622ZM182.933,280.65H141.012l30.6-44.773q2.828-4.236,6.191-9.949t5.483-10.319h.354q-.178,4.794-.442,9.766t-.265,9.765Zm138.8,41.082H286.821A35.212,35.212,0,0,0,302.68,303.5a45.5,45.5,0,0,0,3.008-16.951,44.145,44.145,0,0,0-4.6-20.636,33.624,33.624,0,0,0-12.823-13.726A37.253,37.253,0,0,0,268.9,247.3a41.064,41.064,0,0,0-15.832,2.763,30.476,30.476,0,0,0-10.877,7.371h-.354l.354-1.659,4.6-38.324h53.6V203.633H234.758l-6.9,66.884,12.382,2.395a24.084,24.084,0,0,1,6.722-6.817,27.7,27.7,0,0,1,8.755-3.778,44,44,0,0,1,10.524-1.2,28.118,28.118,0,0,1,13.444,2.948,19.727,19.727,0,0,1,8.4,8.752q2.917,5.8,2.918,14.464a28.521,28.521,0,0,1-3.184,13.911,22.033,22.033,0,0,1-8.932,8.937A28.635,28.635,0,0,1,265,313.263q-11.5,0-17.423-5.989a36.2,36.2,0,0,1-8.755-15.569l-13.8,7.555q5.129,13.085,14.593,20.452a30.306,30.306,0,0,0,2.951,2.02h-45.49V293.363h20.695V280.65H197.083V203.633H179.218l-53.241,78.86v10.87h56.956v28.369H98.373A33.849,33.849,0,0,0,111.3,308.564a42.463,42.463,0,0,0,4.952-20.913q0-12.159-4.864-21a33.633,33.633,0,0,0-13.708-13.634,42.807,42.807,0,0,0-20.7-4.791,39.505,39.505,0,0,0-13,2.3,33.075,33.075,0,0,0-11.85,7.186,25.314,25.314,0,0,0-7.164,12.806H44.26V267.2a95.657,95.657,0,0,1,2.034-20.267,55.94,55.94,0,0,1,6.1-16.4A32.977,32.977,0,0,1,62.3,219.57a23.376,23.376,0,0,1,13.442-3.961q10.435,0,16.362,4.883a27.405,27.405,0,0,1,8.579,13.359l13.089-6.45a46.935,46.935,0,0,0-8.668-14.647,31.413,31.413,0,0,0-12.116-8.292,45.757,45.757,0,0,0-16.361-2.672,39.824,39.824,0,0,0-23.26,7.187q-10.347,7.185-16.361,21.1t-6.015,34.364q0,18.24,5.13,32.335t15.212,22.2a35.536,35.536,0,0,0,3.946,2.757H18.425V18.425H321.732Z"/>
      </g>
    </g>
</svg>
