<svg xmlns="http://www.w3.org/2000/svg" width="120mm" height="120mm" viewBox="0 0 340.158 340.157">
  <g id="Zimmernummer">
      <g id="Z-04-004">
        <path fill="#000000" stroke="none" d="M339.327.831a2.833,2.833,0,0,0-2-.831H2.835A2.836,2.836,0,0,0,0,2.835V337.323a2.834,2.834,0,0,0,2.835,2.834H337.323a2.836,2.836,0,0,0,2.835-2.834V2.835A2.831,2.831,0,0,0,339.327.831Zm-71.839,279.7H223.821L255.7,235.759q2.946-4.236,6.449-9.949a117.015,117.015,0,0,0,5.712-10.318h.369q-.186,4.794-.461,9.765t-.277,9.765Zm54.244,41.2h-39.5V293.246h21.557V280.533H282.229V203.516h-18.61l-55.46,78.859v10.871h59.329v28.486H18.425V18.425H321.732Z"/>
      </g>
    </g>
</svg>
