<svg xmlns="http://www.w3.org/2000/svg" width="120mm" height="120mm" viewBox="0 0 340.158 340.157">
  <g id="Zimmernummer">
      <g id="Z-04-208-E">
        <path fill="#A09f9d" stroke="none" d="M337.323,0H2.835A2.836,2.836,0,0,0,0,2.835V337.323a2.834,2.834,0,0,0,2.835,2.834H337.323a2.834,2.834,0,0,0,2.835-2.834V2.835A2.836,2.836,0,0,0,337.323,0ZM141.456,291.522q-3.274-11.056-3.272-27.086t3.272-27.086q3.272-11.054,9.729-16.674a25.109,25.109,0,0,1,31.661,0q6.456,5.622,9.729,16.674t3.272,27.086q0,16.032-3.272,27.086T182.846,308.2a25.109,25.109,0,0,1-31.661,0Q144.726,302.577,141.456,291.522Zm101-20.361a41.426,41.426,0,0,1,29.274,0,21.78,21.78,0,0,1,9.64,7.738,21.22,21.22,0,0,1-9.463,31.691,42.4,42.4,0,0,1-29.628,0,21.772,21.772,0,0,1-9.552-31.691A21.7,21.7,0,0,1,242.455,271.161Zm-7.871-35.836q0-9.211,6.1-14.371t16.362-5.161q10.434,0,16.449,5.161t6.014,14.371q0,9.029-6.19,14.187t-16.273,5.158q-10.083,0-16.274-5.158T234.584,235.325Zm87.148,86.407H281.72a33.78,33.78,0,0,0,12.473-10.864,31.785,31.785,0,0,0,5.306-18.426q0-11.423-5.926-19.346a35.349,35.349,0,0,0-15.83-11.793v-.183a27.773,27.773,0,0,0,12.116-10.78,30.993,30.993,0,0,0,4.334-16.49,30.659,30.659,0,0,0-4.6-17.043,30.139,30.139,0,0,0-12.913-10.963,51.527,51.527,0,0,0-39.179,0,30.024,30.024,0,0,0-13,10.963q-4.6,7.1-4.6,17.043a30.408,30.408,0,0,0,4.511,16.676,27.9,27.9,0,0,0,12.116,10.594v.183a34.29,34.29,0,0,0-16.1,11.885Q214.6,281.2,214.6,292.442a31.785,31.785,0,0,0,5.306,18.426,33.639,33.639,0,0,0,12.541,10.864h-45.1a39.84,39.84,0,0,0,11.426-10.681q11.762-16.027,11.763-46.615t-11.763-46.615Q187,201.789,167.016,201.79q-19.814,0-31.662,16.031T123.5,264.436q0,30.587,11.851,46.615a40.3,40.3,0,0,0,11.451,10.681H116.429V311.42H75.569q-1.77,0-5.218.092t-6.9.184q-3.45.1-5.4.277v-.183q20.868-14.556,33.077-26.534t17.511-22.939a50.869,50.869,0,0,0,5.306-22.387,42.137,42.137,0,0,0-2.741-15.476,34.4,34.4,0,0,0-7.871-12.069,35.392,35.392,0,0,0-12.294-7.83,44.653,44.653,0,0,0-16.184-2.765q-11.853,0-20.431,4.607A35.528,35.528,0,0,0,40.812,219.11a48.8,48.8,0,0,0-6.634,18.795l12.382,7.738q1.236-13.635,8.491-21.834t19.28-8.2q11.5,0,18.13,6.724t6.633,17.6a41.282,41.282,0,0,1-3.007,15.57,58.827,58.827,0,0,1-10.082,15.754,175.937,175.937,0,0,1-18.838,18.424Q55.4,299.815,37.893,313.262v8.47H18.425V18.425H321.732Z"/>
      </g>
    </g>
</svg>
