<svg xmlns="http://www.w3.org/2000/svg" width="120mm" height="120mm" viewBox="0 0 340.158 340.158">
  <g id="Zimmernummer">
      <g id="Z-04-307-M">
        <path fill="#D4AF37" stroke="none" d="M337.323,0H2.835A2.836,2.836,0,0,0,0,2.835V337.323a2.836,2.836,0,0,0,2.835,2.835H337.323a2.836,2.836,0,0,0,2.835-2.835V2.835A2.836,2.836,0,0,0,337.323,0ZM148.975,291.522q-3.274-11.055-3.272-27.085t3.272-27.086q3.272-11.053,9.729-16.674a25.106,25.106,0,0,1,31.661,0q6.456,5.622,9.729,16.674t3.272,27.086q0,16.031-3.272,27.085T190.365,308.2a25.109,25.109,0,0,1-31.661,0Q152.245,302.578,148.975,291.522Zm172.757,30.21h-60.3a171.644,171.644,0,0,1,4.2-35.554,139.2,139.2,0,0,1,13.531-35.469,173.307,173.307,0,0,1,23.968-33.256v-13.82H217.162v13.82h70.584a164.52,164.52,0,0,0-21.234,30.033,156.123,156.123,0,0,0-14.77,37.679,165.573,165.573,0,0,0-4.812,36.567H194.858a39.826,39.826,0,0,0,11.427-10.68q11.762-16.029,11.762-46.615t-11.762-46.616q-11.766-16.031-31.75-16.03-19.812,0-31.662,16.03t-11.851,46.616q0,30.586,11.851,46.615a40.292,40.292,0,0,0,11.451,10.68h-48.5a34.76,34.76,0,0,0,12.9-12.338,35.8,35.8,0,0,0,5.041-18.977,29.064,29.064,0,0,0-1.681-9.858,26.234,26.234,0,0,0-4.864-8.384,24.013,24.013,0,0,0-7.694-5.9,25.056,25.056,0,0,0-10.348-2.395v-.369a23.858,23.858,0,0,0,8.314-3.04,25.77,25.77,0,0,0,6.986-6.172,29.58,29.58,0,0,0,4.865-9.121,37.188,37.188,0,0,0,1.769-11.884,32.157,32.157,0,0,0-3.98-15.845,29.139,29.139,0,0,0-11.94-11.516q-7.959-4.328-20.164-4.33a46.224,46.224,0,0,0-17.777,3.316,39.705,39.705,0,0,0-13.709,9.213,38.621,38.621,0,0,0-8.49,13.634L58.5,234.4a34.064,34.064,0,0,1,9.2-13.727q5.837-5.067,16.981-5.067,10.434,0,16.1,4.974t5.66,14.556q0,11.241-5.483,16.491t-18.4,5.251H79.816a26.647,26.647,0,0,1-3.1-.184v14.74a45.408,45.408,0,0,1,4.776-.46q2.3-.092,4.245-.093,8.313,0,13.443,2.119a14.474,14.474,0,0,1,7.518,6.541,23.068,23.068,0,0,1,2.387,11.055,23.606,23.606,0,0,1-2.83,11.7,20.457,20.457,0,0,1-8.136,8.015,26.618,26.618,0,0,1-13.089,2.948q-9.2,0-15.3-2.763a24.356,24.356,0,0,1-9.817-7.832,40.005,40.005,0,0,1-5.838-11.883l-14.15,7.554a37.878,37.878,0,0,0,16.184,21.1c1.306.836,2.648,1.6,4.019,2.3H18.425V18.425H321.732Z"/>
      </g>
    </g>
</svg>
