<svg xmlns="http://www.w3.org/2000/svg" width="120mm" height="120mm" viewBox="0 0 340.158 340.158">
  <g id="Zimmernummer">
      <g id="Z-04-037-M">
        <path fill="#D4AF37" stroke="none" d="M337.323,0H2.835A2.836,2.836,0,0,0,0,2.835V337.323a2.836,2.836,0,0,0,2.835,2.835H337.323a2.836,2.836,0,0,0,2.835-2.835V2.835A2.836,2.836,0,0,0,337.323,0ZM321.732,321.732H268.816a165.21,165.21,0,0,1,4.375-35.554,135.874,135.874,0,0,1,14.1-35.469,173.708,173.708,0,0,1,24.966-33.256v-13.82H222.706v13.82h73.525a164.694,164.694,0,0,0-22.119,30.033,152.392,152.392,0,0,0-15.384,37.679,159.222,159.222,0,0,0-5.013,36.567H201.069a35.6,35.6,0,0,0,13.438-12.338,34.7,34.7,0,0,0,5.251-18.977,28.033,28.033,0,0,0-1.75-9.858,26.021,26.021,0,0,0-5.067-8.384,24.934,24.934,0,0,0-8.015-5.9,27,27,0,0,0-10.779-2.395v-.369a25.5,25.5,0,0,0,8.66-3.04,26.538,26.538,0,0,0,7.278-6.172,29.252,29.252,0,0,0,5.067-9.121A35.822,35.822,0,0,0,217,233.3a31.15,31.15,0,0,0-4.146-15.845,29.832,29.832,0,0,0-12.437-11.516q-8.292-4.328-21-4.33a49.913,49.913,0,0,0-18.517,3.316,41.49,41.49,0,0,0-14.28,9.213,38.4,38.4,0,0,0-8.844,13.634l14,6.634a34.023,34.023,0,0,1,9.581-13.727q6.079-5.067,17.688-5.067,10.869,0,16.767,4.974t5.9,14.556q0,11.241-5.712,16.491t-19.162,5.251h-2.856a28.922,28.922,0,0,1-3.225-.184v14.74a49.22,49.22,0,0,1,4.975-.46q2.393-.092,4.422-.093,8.659,0,14,2.119a14.9,14.9,0,0,1,7.831,6.541,22.308,22.308,0,0,1,2.487,11.055,22.869,22.869,0,0,1-2.947,11.7,20.934,20.934,0,0,1-8.476,8.015,28.682,28.682,0,0,1-13.635,2.948q-9.582,0-15.938-2.763a25.224,25.224,0,0,1-10.226-7.832,39.408,39.408,0,0,1-6.08-11.883l-14.74,7.554a38.112,38.112,0,0,0,16.859,21.1c1.36.836,2.758,1.6,4.185,2.3H18.425V18.425H321.732Z"/>
      </g>
    </g>
</svg>
