<svg xmlns="http://www.w3.org/2000/svg" width="120mm" height="120mm" viewBox="0 0 340.158 340.157">
  <g id="Zimmernummer">
      <g id="Z-04-310-M">
        <path fill="#D4AF37" stroke="none" d="M337.323,0H2.835A2.836,2.836,0,0,0,0,2.835V337.323a2.834,2.834,0,0,0,2.835,2.834H337.323a2.834,2.834,0,0,0,2.835-2.834V2.835A2.836,2.836,0,0,0,337.323,0ZM221.584,291.521q-3.274-11.055-3.272-27.084t3.272-27.086q3.271-11.055,9.729-16.674a25.107,25.107,0,0,1,31.662,0q6.454,5.622,9.728,16.674t3.272,27.086q0,16.029-3.272,27.084T262.975,308.2a25.111,25.111,0,0,1-31.662,0Q224.854,302.577,221.584,291.521Zm100.148,30.211H267.467a39.84,39.84,0,0,0,11.427-10.68q11.762-16.031,11.763-46.615T278.894,217.82q-11.764-16.029-31.75-16.03-19.812,0-31.662,16.03t-11.851,46.617q0,30.585,11.851,46.615a40.323,40.323,0,0,0,11.452,10.68h-44v-118.1H170.554a36.7,36.7,0,0,1-7.075,7.185,88.71,88.71,0,0,1-9.994,6.911,90.58,90.58,0,0,1-10.259,5.342,29.787,29.787,0,0,1-8.048,2.488l3.714,13.451a65.993,65.993,0,0,0,30.247-17.136q-.178,3.869-.265,7.462t-.089,6.726v85.67h-61.1a34.745,34.745,0,0,0,12.9-12.338,35.8,35.8,0,0,0,5.042-18.978,29.083,29.083,0,0,0-1.681-9.857,26.252,26.252,0,0,0-4.864-8.384,24.045,24.045,0,0,0-7.695-5.9,25.067,25.067,0,0,0-10.347-2.394v-.369a23.865,23.865,0,0,0,8.313-3.04,25.776,25.776,0,0,0,6.987-6.172,29.6,29.6,0,0,0,4.864-9.121,37.16,37.16,0,0,0,1.769-11.884,32.147,32.147,0,0,0-3.98-15.846,29.128,29.128,0,0,0-11.939-11.515q-7.96-4.328-20.165-4.331a46.219,46.219,0,0,0-17.776,3.317,39.669,39.669,0,0,0-13.708,9.213,38.578,38.578,0,0,0-8.491,13.634L60.358,234.4a34.059,34.059,0,0,1,9.2-13.726q5.837-5.067,16.98-5.068,10.435,0,16.1,4.975t5.66,14.556q0,11.241-5.483,16.491t-18.4,5.251H81.672a26.649,26.649,0,0,1-3.095-.185v14.741a44.88,44.88,0,0,1,4.776-.46q2.3-.092,4.245-.093,8.311,0,13.443,2.119a14.468,14.468,0,0,1,7.517,6.541,23.065,23.065,0,0,1,2.388,11.055,23.609,23.609,0,0,1-2.83,11.7,20.461,20.461,0,0,1-8.136,8.014,26.622,26.622,0,0,1-13.09,2.949q-9.2,0-15.3-2.764a24.36,24.36,0,0,1-9.817-7.831,40.046,40.046,0,0,1-5.837-11.884l-14.151,7.555a37.884,37.884,0,0,0,16.185,21.1c1.306.836,2.648,1.6,4.019,2.3H18.425V18.425H321.732Z"/>
      </g>
    </g>
</svg>
