<svg xmlns="http://www.w3.org/2000/svg" width="120mm" height="120mm" viewBox="0 0 340.158 340.158">
  <g id="Zimmernummer">
      <g id="Z-04-627-R">
        <path fill="#A0552B" stroke="none" d="M337.323,0H2.835A2.836,2.836,0,0,0,0,2.835V337.323a2.836,2.836,0,0,0,2.835,2.835H337.323a2.836,2.836,0,0,0,2.835-2.835V2.835A2.836,2.836,0,0,0,337.323,0ZM64.335,300.274a25.085,25.085,0,0,1-3.36-12.806,25.912,25.912,0,0,1,3.183-12.99,22.987,22.987,0,0,1,8.933-8.844,26.862,26.862,0,0,1,13.354-3.224,28.835,28.835,0,0,1,13.8,3.04,20.767,20.767,0,0,1,8.667,8.66,27.946,27.946,0,0,1,3.007,13.358q0,11.98-6.721,18.7T86.445,312.9a24.985,24.985,0,0,1-22.11-12.621Zm257.4,21.458H263.723a171.644,171.644,0,0,1,4.2-35.554,139.2,139.2,0,0,1,13.531-35.469,173.264,173.264,0,0,1,23.968-33.256v-13.82H219.457v13.82h70.584a164.52,164.52,0,0,0-21.234,30.033,156.082,156.082,0,0,0-14.77,37.679,165.513,165.513,0,0,0-4.812,36.567h-32.42V311.42h-40.86q-1.77,0-5.217.093t-6.9.184q-3.45.094-5.4.276v-.183q20.87-14.555,33.077-26.533t17.511-22.939a50.855,50.855,0,0,0,5.306-22.387,42.142,42.142,0,0,0-2.741-15.477,34.41,34.41,0,0,0-7.871-12.069,35.392,35.392,0,0,0-12.294-7.83,44.676,44.676,0,0,0-16.185-2.764q-11.851,0-20.429,4.606a35.527,35.527,0,0,0-13.62,12.714,48.782,48.782,0,0,0-6.633,18.794l12.382,7.738q1.234-13.633,8.49-21.834t19.28-8.2q11.5,0,18.131,6.725t6.633,17.6a41.3,41.3,0,0,1-3.007,15.569,58.818,58.818,0,0,1-10.083,15.754,175.935,175.935,0,0,1-18.838,18.425q-11.766,10.135-29.273,23.584v8.469H108.9a33.837,33.837,0,0,0,12.924-13.167,42.466,42.466,0,0,0,4.952-20.913q0-12.16-4.864-21A33.629,33.629,0,0,0,108.2,253.013a42.82,42.82,0,0,0-20.695-4.791,39.5,39.5,0,0,0-13,2.3,33.089,33.089,0,0,0-11.852,7.185,25.317,25.317,0,0,0-7.163,12.806h-.708V267.2a95.739,95.739,0,0,1,2.034-20.268,55.991,55.991,0,0,1,6.1-16.4,32.986,32.986,0,0,1,9.905-10.964,23.375,23.375,0,0,1,13.444-3.961q10.434,0,16.361,4.883a27.414,27.414,0,0,1,8.579,13.358L124.3,227.4a46.928,46.928,0,0,0-8.667-14.648,31.438,31.438,0,0,0-12.116-8.292,45.771,45.771,0,0,0-16.362-2.671,39.82,39.82,0,0,0-23.26,7.186q-10.349,7.185-16.362,21.1t-6.013,34.363q0,18.24,5.128,32.336t15.212,22.2a35.629,35.629,0,0,0,3.946,2.757H18.425V18.425H321.732Z"/>
      </g>
    </g>
</svg>
