<svg xmlns="http://www.w3.org/2000/svg" width="120mm" height="120mm" viewBox="0 0 340.158 340.157">
  <g id="Zimmernummer">
      <g id="Z-04-238-R">
        <path fill="#A0552B" stroke="none" d="M337.323,0H2.835A2.836,2.836,0,0,0,0,2.835V337.323a2.834,2.834,0,0,0,2.835,2.834H337.323a2.834,2.834,0,0,0,2.835-2.834V2.835A2.836,2.836,0,0,0,337.323,0ZM247.85,271.161a41.426,41.426,0,0,1,29.274,0,21.775,21.775,0,0,1,9.64,7.738,22.769,22.769,0,0,1,.089,23.953,21.151,21.151,0,0,1-9.552,7.738,42.4,42.4,0,0,1-29.628,0,21.772,21.772,0,0,1-9.552-31.691A21.7,21.7,0,0,1,247.85,271.161Zm-7.871-35.836q0-9.211,6.1-14.371t16.362-5.161q10.434,0,16.45,5.161t6.014,14.371q0,9.029-6.191,14.187t-16.273,5.158q-10.083,0-16.273-5.158T239.979,235.325Zm81.753,86.407H287.115a33.772,33.772,0,0,0,12.473-10.864,31.777,31.777,0,0,0,5.306-18.426q0-11.423-5.925-19.346A35.352,35.352,0,0,0,283.138,261.3v-.183a27.768,27.768,0,0,0,12.116-10.78,30.984,30.984,0,0,0,4.334-16.49,30.659,30.659,0,0,0-4.6-17.043,30.142,30.142,0,0,0-12.912-10.963,51.53,51.53,0,0,0-39.18,0,30.022,30.022,0,0,0-13,10.963q-4.6,7.1-4.6,17.043a30.408,30.408,0,0,0,4.51,16.676,27.894,27.894,0,0,0,12.117,10.594v.183a34.288,34.288,0,0,0-16.1,11.885q-5.836,8.016-5.837,19.254a31.778,31.778,0,0,0,5.307,18.426,33.629,33.629,0,0,0,12.54,10.864H187.191a34.743,34.743,0,0,0,12.9-12.339,35.786,35.786,0,0,0,5.042-18.976,29.084,29.084,0,0,0-1.681-9.858,26.257,26.257,0,0,0-4.864-8.385,24.031,24.031,0,0,0-7.695-5.9,25.071,25.071,0,0,0-10.347-2.4v-.369a23.824,23.824,0,0,0,8.313-3.039,25.822,25.822,0,0,0,6.987-6.172,29.611,29.611,0,0,0,4.864-9.121,37.171,37.171,0,0,0,1.769-11.885,32.151,32.151,0,0,0-3.98-15.845,29.136,29.136,0,0,0-11.939-11.516q-7.961-4.328-20.165-4.33a46.224,46.224,0,0,0-17.777,3.316,39.7,39.7,0,0,0-13.708,9.213,38.62,38.62,0,0,0-8.49,13.635l13.443,6.633a34.072,34.072,0,0,1,9.2-13.727q5.837-5.065,16.98-5.066,10.435,0,16.1,4.974t5.66,14.555q0,11.241-5.483,16.492t-18.4,5.25h-2.742a26.86,26.86,0,0,1-3.095-.183v14.74a45.392,45.392,0,0,1,4.776-.461q2.3-.09,4.245-.092,8.311,0,13.443,2.119a14.468,14.468,0,0,1,7.517,6.541,23.065,23.065,0,0,1,2.388,11.055,23.6,23.6,0,0,1-2.83,11.7,20.46,20.46,0,0,1-8.136,8.016,26.622,26.622,0,0,1-13.09,2.947q-9.2,0-15.3-2.763a24.36,24.36,0,0,1-9.817-7.831,40,40,0,0,1-5.837-11.884l-14.151,7.554a37.874,37.874,0,0,0,16.185,21.1c1.306.836,2.647,1.6,4.018,2.3H111.034V311.42H70.175q-1.771,0-5.218.092t-6.9.184q-3.449.1-5.4.277v-.183q20.87-14.556,33.077-26.534t17.512-22.939a50.869,50.869,0,0,0,5.306-22.387,42.157,42.157,0,0,0-2.741-15.476,34.4,34.4,0,0,0-7.872-12.069,35.379,35.379,0,0,0-12.293-7.83,44.658,44.658,0,0,0-16.185-2.765q-11.851,0-20.43,4.607a35.524,35.524,0,0,0-13.62,12.713,48.819,48.819,0,0,0-6.633,18.795l12.382,7.738q1.236-13.635,8.49-21.834t19.281-8.2q11.5,0,18.13,6.724t6.633,17.6a41.282,41.282,0,0,1-3.007,15.57,58.827,58.827,0,0,1-10.082,15.754,175.937,175.937,0,0,1-18.838,18.424Q50.007,299.815,32.5,313.262v8.47H18.425V18.425H321.732Z"/>
      </g>
    </g>
</svg>
