<svg xmlns="http://www.w3.org/2000/svg" width="120mm" height="120mm" viewBox="0 0 340.158 340.158">
  <g id="Zimmernummer">
      <g id="Z-04-607-R">
        <path fill="#A0552B" stroke="none" d="M337.323,0H2.835A2.836,2.836,0,0,0,0,2.835V337.323a2.836,2.836,0,0,0,2.835,2.835H337.323a2.836,2.836,0,0,0,2.835-2.835V2.835A2.836,2.836,0,0,0,337.323,0ZM62.654,300.274a25.086,25.086,0,0,1-3.361-12.806,25.913,25.913,0,0,1,3.184-12.99,22.987,22.987,0,0,1,8.933-8.844,26.862,26.862,0,0,1,13.354-3.224,28.835,28.835,0,0,1,13.8,3.04,20.773,20.773,0,0,1,8.667,8.66,27.946,27.946,0,0,1,3.008,13.358q0,11.98-6.722,18.7T84.764,312.9a24.985,24.985,0,0,1-22.11-12.621Zm86.759-8.752q-3.276-11.055-3.273-27.085t3.273-27.086q3.27-11.053,9.728-16.674a25.106,25.106,0,0,1,31.661,0q6.456,5.622,9.729,16.674t3.272,27.086q0,16.031-3.272,27.085T190.8,308.2a25.109,25.109,0,0,1-31.661,0Q152.681,302.578,149.413,291.522Zm172.319,30.21H265.4a171.712,171.712,0,0,1,4.2-35.554,139.238,139.238,0,0,1,13.532-35.469A173.3,173.3,0,0,1,307.1,217.453v-13.82H221.137v13.82h70.584a164.52,164.52,0,0,0-21.234,30.033,156.082,156.082,0,0,0-14.77,37.679,165.513,165.513,0,0,0-4.812,36.567H195.3a39.836,39.836,0,0,0,11.426-10.68q11.761-16.029,11.763-46.615t-11.763-46.616q-11.766-16.031-31.75-16.03-19.814,0-31.662,16.03t-11.852,46.616q0,30.586,11.852,46.615a40.292,40.292,0,0,0,11.451,10.68H107.217a33.844,33.844,0,0,0,12.924-13.167,42.466,42.466,0,0,0,4.952-20.913q0-12.16-4.864-21a33.629,33.629,0,0,0-13.708-13.635,42.82,42.82,0,0,0-20.7-4.791,39.5,39.5,0,0,0-13,2.3,33.076,33.076,0,0,0-11.851,7.185,25.311,25.311,0,0,0-7.164,12.806H53.1V267.2a95.74,95.74,0,0,1,2.033-20.268,55.991,55.991,0,0,1,6.1-16.4,32.986,32.986,0,0,1,9.905-10.964,23.374,23.374,0,0,1,13.443-3.961q10.435,0,16.362,4.883a27.407,27.407,0,0,1,8.579,13.358l13.089-6.449a46.928,46.928,0,0,0-8.667-14.648,31.427,31.427,0,0,0-12.117-8.292,45.761,45.761,0,0,0-16.361-2.671,39.823,39.823,0,0,0-23.26,7.186q-10.347,7.185-16.362,21.1t-6.014,34.363q0,18.24,5.13,32.336t15.212,22.2a35.524,35.524,0,0,0,3.945,2.757h-45.7V18.425H321.732Z"/>
      </g>
    </g>
</svg>
