<svg xmlns="http://www.w3.org/2000/svg" width="120mm" height="120mm" viewBox="0 0 340.158 340.157">
  <g id="Zimmernummer">
      <g id="Z-04-115-R">
        <path fill="#A0552B" stroke="none" d="M337.323,0H2.835A2.836,2.836,0,0,0,0,2.835V337.323a2.834,2.834,0,0,0,2.835,2.834H337.323a2.834,2.834,0,0,0,2.835-2.834V2.835A2.836,2.836,0,0,0,337.323,0ZM321.732,321.732h-66.66A35.2,35.2,0,0,0,270.931,303.5a45.5,45.5,0,0,0,3.007-16.951,44.145,44.145,0,0,0-4.6-20.636,33.631,33.631,0,0,0-12.823-13.726,37.255,37.255,0,0,0-19.37-4.883,41.053,41.053,0,0,0-15.83,2.763,30.472,30.472,0,0,0-10.878,7.371h-.354l.354-1.659,4.6-38.324h53.6V203.633H203.009l-6.9,66.884,12.382,2.395a24.094,24.094,0,0,1,6.721-6.817,27.712,27.712,0,0,1,8.756-3.778,44,44,0,0,1,10.525-1.2,28.117,28.117,0,0,1,13.443,2.948,19.719,19.719,0,0,1,8.4,8.752q2.919,5.8,2.919,14.464a28.51,28.51,0,0,1-3.184,13.911,22.039,22.039,0,0,1-8.932,8.937,28.637,28.637,0,0,1-13.886,3.132q-11.5,0-17.422-5.989a36.2,36.2,0,0,1-8.756-15.569l-13.8,7.555q5.129,13.085,14.593,20.452a30.306,30.306,0,0,0,2.951,2.02H169.4v-118.1H157.02a36.712,36.712,0,0,1-7.076,7.185,88.71,88.71,0,0,1-9.994,6.911,90.58,90.58,0,0,1-10.259,5.342,29.787,29.787,0,0,1-8.048,2.488l3.714,13.451A65.98,65.98,0,0,0,155.6,221.874q-.179,3.869-.265,7.462t-.089,6.726v85.67H102.186v-118.1H89.8a36.7,36.7,0,0,1-7.075,7.185,88.71,88.71,0,0,1-9.994,6.911,90.58,90.58,0,0,1-10.259,5.342,29.787,29.787,0,0,1-8.048,2.488l3.715,13.451a65.983,65.983,0,0,0,30.246-17.136q-.177,3.869-.265,7.462t-.088,6.726v85.67H18.425V18.425H321.732Z"/>
      </g>
    </g>
</svg>
