<svg xmlns="http://www.w3.org/2000/svg" width="120mm" height="120mm" viewBox="0 0 340.158 340.157">
  <g id="Zimmernummer">
      <g id="Z-04-138-E">
        <path fill="#A09f9d" stroke="none" d="M337.323,0H2.835A2.836,2.836,0,0,0,0,2.835V337.323a2.834,2.834,0,0,0,2.835,2.834H337.323a2.834,2.834,0,0,0,2.835-2.834V2.835A2.836,2.836,0,0,0,337.323,0ZM230.777,271.161a41.426,41.426,0,0,1,29.274,0,21.775,21.775,0,0,1,9.64,7.738,22.769,22.769,0,0,1,.089,23.953,21.151,21.151,0,0,1-9.552,7.738,42.4,42.4,0,0,1-29.628,0,21.77,21.77,0,0,1-9.551-31.691A21.7,21.7,0,0,1,230.777,271.161Zm-7.871-35.836q0-9.211,6.1-14.371t16.362-5.161q10.434,0,16.45,5.161t6.014,14.371q0,9.029-6.191,14.187T245.37,254.67q-10.083,0-16.273-5.158T222.906,235.325Zm98.826,86.407h-51.69a33.772,33.772,0,0,0,12.473-10.864,31.785,31.785,0,0,0,5.307-18.426q0-11.423-5.926-19.346A35.347,35.347,0,0,0,266.065,261.3v-.183a27.768,27.768,0,0,0,12.116-10.78,30.984,30.984,0,0,0,4.334-16.49,30.659,30.659,0,0,0-4.6-17.043A30.142,30.142,0,0,0,265,205.844a51.53,51.53,0,0,0-39.18,0,30.024,30.024,0,0,0-13,10.963q-4.6,7.1-4.6,17.043a30.408,30.408,0,0,0,4.51,16.676,27.9,27.9,0,0,0,12.116,10.594v.183a34.3,34.3,0,0,0-16.1,11.885q-5.837,8.016-5.837,19.254a31.778,31.778,0,0,0,5.307,18.426,33.629,33.629,0,0,0,12.54,10.864H170.118a34.743,34.743,0,0,0,12.9-12.339,35.786,35.786,0,0,0,5.041-18.976,29.083,29.083,0,0,0-1.68-9.858,26.257,26.257,0,0,0-4.864-8.385,24.049,24.049,0,0,0-7.694-5.9,25.076,25.076,0,0,0-10.348-2.4v-.369a23.824,23.824,0,0,0,8.313-3.039,25.792,25.792,0,0,0,6.987-6.172,29.611,29.611,0,0,0,4.864-9.121,37.171,37.171,0,0,0,1.769-11.885,32.162,32.162,0,0,0-3.98-15.845,29.136,29.136,0,0,0-11.939-11.516q-7.961-4.328-20.165-4.33a46.219,46.219,0,0,0-17.776,3.316,39.7,39.7,0,0,0-13.709,9.213,38.62,38.62,0,0,0-8.49,13.635l13.443,6.633a34.072,34.072,0,0,1,9.2-13.727q5.837-5.065,16.98-5.066,10.435,0,16.1,4.974t5.66,14.555q0,11.241-5.484,16.492t-18.395,5.25h-2.742a26.86,26.86,0,0,1-3.095-.183v14.74a45.424,45.424,0,0,1,4.775-.461q2.3-.09,4.246-.092,8.311,0,13.443,2.119a14.468,14.468,0,0,1,7.517,6.541A23.065,23.065,0,0,1,173.38,290.6a23.6,23.6,0,0,1-2.83,11.7,20.462,20.462,0,0,1-8.137,8.016,26.616,26.616,0,0,1-13.089,2.947q-9.2,0-15.3-2.763a24.36,24.36,0,0,1-9.817-7.831,40.022,40.022,0,0,1-5.837-11.884l-14.151,7.554a37.883,37.883,0,0,0,16.185,21.1c1.306.836,2.648,1.6,4.018,2.3H87.416v-118.1H75.034a36.733,36.733,0,0,1-7.075,7.186,88.574,88.574,0,0,1-9.994,6.91,90.665,90.665,0,0,1-10.259,5.342,29.756,29.756,0,0,1-8.049,2.488l3.715,13.451a63.308,63.308,0,0,0,16.273-6.541,63.737,63.737,0,0,0,13.974-10.595q-.178,3.87-.265,7.462t-.089,6.725v85.671H18.425V18.425H321.732Z"/>
      </g>
    </g>
</svg>
