<svg xmlns="http://www.w3.org/2000/svg" width="120mm" height="120mm" viewBox="0 0 340.158 340.157">
  <g id="Zimmernummer">
      <g id="Z-04-215-M">
        <path fill="#D4AF37" stroke="none" d="M337.323,0H2.835A2.836,2.836,0,0,0,0,2.835V337.323a2.834,2.834,0,0,0,2.835,2.834H337.323a2.834,2.834,0,0,0,2.835-2.834V2.835A2.836,2.836,0,0,0,337.323,0ZM321.732,321.732H266.838A35.2,35.2,0,0,0,282.7,303.5a45.5,45.5,0,0,0,3.007-16.951,44.145,44.145,0,0,0-4.6-20.636,33.62,33.62,0,0,0-12.824-13.726,37.247,37.247,0,0,0-19.368-4.883,41.055,41.055,0,0,0-15.831,2.763,30.472,30.472,0,0,0-10.878,7.371h-.354l.354-1.659,4.6-38.324H280.4V203.633H214.774l-6.9,66.884,12.382,2.395a24.094,24.094,0,0,1,6.721-6.817,27.7,27.7,0,0,1,8.756-3.778,44,44,0,0,1,10.525-1.2,28.117,28.117,0,0,1,13.443,2.948,19.719,19.719,0,0,1,8.4,8.752q2.919,5.8,2.919,14.464a28.51,28.51,0,0,1-3.184,13.911,22.039,22.039,0,0,1-8.932,8.937,28.637,28.637,0,0,1-13.886,3.132q-11.5,0-17.422-5.989a36.2,36.2,0,0,1-8.756-15.569l-13.8,7.555q5.129,13.085,14.593,20.452a30.185,30.185,0,0,0,2.951,2.02H184.705v-118.1H172.323a36.732,36.732,0,0,1-7.075,7.185,88.71,88.71,0,0,1-9.994,6.911A90.665,90.665,0,0,1,145,223.071a29.8,29.8,0,0,1-8.048,2.488l3.714,13.451a65.993,65.993,0,0,0,30.247-17.136q-.179,3.869-.265,7.462t-.089,6.726v85.67H131.111V311.42H90.251q-1.77,0-5.218.093t-6.9.183q-3.45.1-5.4.277v-.184q20.87-14.553,33.076-26.532t17.512-22.94a50.848,50.848,0,0,0,5.306-22.386,42.144,42.144,0,0,0-2.741-15.478,34.408,34.408,0,0,0-7.872-12.068,35.364,35.364,0,0,0-12.293-7.83,44.676,44.676,0,0,0-16.185-2.765q-11.852,0-20.429,4.606a35.527,35.527,0,0,0-13.62,12.714A48.788,48.788,0,0,0,48.861,237.9l12.381,7.739q1.236-13.633,8.491-21.834t19.28-8.2q11.5,0,18.131,6.726t6.632,17.6A41.3,41.3,0,0,1,110.77,255.5a58.842,58.842,0,0,1-10.083,15.754,176.031,176.031,0,0,1-18.838,18.425q-11.766,10.135-29.274,23.584v8.469H18.425V18.425H321.732Z"/>
      </g>
    </g>
</svg>
