<svg xmlns="http://www.w3.org/2000/svg" width="120mm" height="120mm" viewBox="0 0 340.158 340.158">
  <g id="Zimmernummer">
      <g id="Z-04-424-E">
        <path fill="#A09f9d" stroke="none" d="M337.323,0H2.835A2.836,2.836,0,0,0,0,2.835V337.323a2.836,2.836,0,0,0,2.835,2.835H337.323a2.836,2.836,0,0,0,2.835-2.835V2.835A2.836,2.836,0,0,0,337.323,0ZM94.491,280.65H52.57l30.6-44.773q2.829-4.236,6.191-9.949t5.484-10.319H95.2q-.178,4.794-.442,9.766t-.265,9.765Zm168.742,0H221.312l30.6-44.773q2.827-4.236,6.191-9.949t5.483-10.319h.354q-.178,4.794-.442,9.766t-.266,9.765Zm58.5,41.082H277.384V293.363h20.695V280.65H277.384V203.633H259.519l-53.242,78.86v10.87h56.956v28.369H209.109V311.42h-40.86q-1.77,0-5.218.093t-6.9.183q-3.45.1-5.4.277v-.184q20.868-14.553,33.076-26.532t17.512-22.94a50.863,50.863,0,0,0,5.307-22.386,42.144,42.144,0,0,0-2.742-15.478,34.406,34.406,0,0,0-7.871-12.068,35.383,35.383,0,0,0-12.293-7.83,44.683,44.683,0,0,0-16.185-2.765q-11.853,0-20.431,4.606a35.538,35.538,0,0,0-13.619,12.714,48.788,48.788,0,0,0-6.633,18.794l12.381,7.739q1.236-13.633,8.49-21.834t19.281-8.2q11.5,0,18.131,6.726t6.632,17.6a41.3,41.3,0,0,1-3.006,15.569,58.861,58.861,0,0,1-10.082,15.754,176.125,176.125,0,0,1-18.838,18.425q-11.766,10.135-29.275,23.584v8.469H108.642V293.363h20.695V280.65H108.642V203.633H90.776l-53.241,78.86v10.87H94.491v28.369H18.425V18.425H321.732Z"/>
      </g>
    </g>
</svg>
