<svg xmlns="http://www.w3.org/2000/svg" width="120mm" height="120mm" viewBox="0 0 340.158 340.158">
  <g id="Zimmernummer">
      <g id="Z-04-414-M">
        <path fill="#D4AF37" stroke="none" d="M337.323,0H2.835A2.836,2.836,0,0,0,0,2.835V337.323a2.836,2.836,0,0,0,2.835,2.835H337.323a2.836,2.836,0,0,0,2.835-2.835V2.835A2.836,2.836,0,0,0,337.323,0ZM105.013,280.65H63.093l30.6-44.773q2.828-4.236,6.192-9.949t5.483-10.319h.353q-.178,4.794-.442,9.766t-.266,9.765Zm147.7,0H210.789l30.6-44.773q2.827-4.236,6.192-9.949t5.483-10.319h.354q-.178,4.794-.443,9.766t-.265,9.765Zm69.022,41.082H266.861V293.363h20.694V280.65H266.861V203.633H249l-53.241,78.86v10.87H252.71v28.369H183.2v-118.1H170.814a36.732,36.732,0,0,1-7.075,7.185,88.71,88.71,0,0,1-9.994,6.911,90.749,90.749,0,0,1-10.259,5.342,29.792,29.792,0,0,1-8.049,2.488l3.715,13.451A65.98,65.98,0,0,0,169.4,221.874q-.178,3.869-.265,7.462t-.089,6.726v85.67H119.164V293.363h20.7V280.65h-20.7V203.633H101.3l-53.243,78.86v10.87h56.956v28.369H18.425V18.425H321.732Z"/>
      </g>
    </g>
</svg>
