<svg xmlns="http://www.w3.org/2000/svg" width="120mm" height="120mm" viewBox="0 0 340.158 340.157">
  <g id="Zimmernummer">
      <g id="Z-04-501-E">
        <path fill="#A09f9d" stroke="none" d="M337.323,0H2.835A2.834,2.834,0,0,0,0,2.835V337.323a2.834,2.834,0,0,0,2.835,2.834H337.323a2.834,2.834,0,0,0,2.835-2.834V2.835A2.834,2.834,0,0,0,337.323,0ZM144.274,291.521Q141,280.466,141,264.437t3.273-27.086Q147.546,226.3,154,220.677a25.109,25.109,0,0,1,31.663,0q6.453,5.622,9.728,16.674t3.272,27.086q0,16.029-3.272,27.084T185.665,308.2a25.112,25.112,0,0,1-31.663,0Q147.545,302.577,144.274,291.521Zm177.458,30.211H274.015v-118.1H261.634a36.683,36.683,0,0,1-7.076,7.185,88.606,88.606,0,0,1-9.993,6.911,90.674,90.674,0,0,1-10.26,5.342,29.776,29.776,0,0,1-8.048,2.488l3.715,13.451a65.983,65.983,0,0,0,30.246-17.136q-.177,3.869-.264,7.462t-.089,6.726v85.67H190.157a39.837,39.837,0,0,0,11.426-10.68q11.762-16.031,11.763-46.615T201.583,217.82q-11.764-16.029-31.75-16.03-19.812,0-31.662,16.03T126.32,264.437q0,30.585,11.851,46.615a40.323,40.323,0,0,0,11.452,10.68H97.2A35.205,35.205,0,0,0,113.056,303.5a45.5,45.5,0,0,0,3.008-16.951,44.133,44.133,0,0,0-4.6-20.636,33.618,33.618,0,0,0-12.823-13.726A37.248,37.248,0,0,0,79.272,247.3a41.058,41.058,0,0,0-15.831,2.763,30.472,30.472,0,0,0-10.878,7.371h-.354l.354-1.659,4.6-38.324h53.6V203.633H45.134l-6.9,66.884,12.382,2.395a24.081,24.081,0,0,1,6.721-6.817,27.7,27.7,0,0,1,8.755-3.778,44,44,0,0,1,10.525-1.2,28.114,28.114,0,0,1,13.443,2.948,19.727,19.727,0,0,1,8.4,8.752q2.919,5.8,2.918,14.464A28.521,28.521,0,0,1,98.2,301.194a22.036,22.036,0,0,1-8.933,8.937,28.635,28.635,0,0,1-13.886,3.132q-11.5,0-17.422-5.989A36.184,36.184,0,0,1,49.2,291.705l-13.8,7.555Q40.535,312.345,50,319.712a30.348,30.348,0,0,0,2.95,2.02H18.425V18.425H321.732Z"/>
      </g>
    </g>
</svg>
