<svg xmlns="http://www.w3.org/2000/svg" width="120mm" height="120mm" viewBox="0 0 340.158 340.158">
  <g id="Zimmernummer">
      <g id="Z-04-014">
        <path fill="#000000" stroke="none" d="M339.327.831a2.833,2.833,0,0,0-2-.831H2.835A2.836,2.836,0,0,0,0,2.835V337.323a2.836,2.836,0,0,0,2.835,2.835H337.323a2.837,2.837,0,0,0,2.835-2.835V2.835A2.831,2.831,0,0,0,339.327.831Zm-71.838,279.7H223.821L255.7,235.76q2.945-4.237,6.449-9.95a116.84,116.84,0,0,0,5.711-10.318h.369q-.186,4.794-.461,9.766t-.276,9.765Zm54.243,41.2h-39.5V293.246h21.558V280.533H282.229V203.516H263.62l-55.46,78.86v10.87h59.329v28.486H192.314V203.516h-12.9a37.488,37.488,0,0,1-7.371,7.185,92.373,92.373,0,0,1-10.41,6.91,95.861,95.861,0,0,1-10.686,5.343,32,32,0,0,1-8.384,2.488l3.87,13.45a67.455,67.455,0,0,0,16.951-6.541,66.178,66.178,0,0,0,14.555-10.594q-.185,3.869-.276,7.462t-.092,6.725v85.788H18.425V18.425H321.732Z"/>
      </g>
    </g>
</svg>
