<svg xmlns="http://www.w3.org/2000/svg" width="120mm" height="120mm" viewBox="0 0 340.158 340.157">
  <g id="Zimmernummer">
      <g id="Z-04-616-M">
        <path fill="#D4AF37" stroke="none" d="M337.323,0H2.835A2.836,2.836,0,0,0,0,2.835V337.323a2.834,2.834,0,0,0,2.835,2.834H337.323a2.834,2.834,0,0,0,2.835-2.834V2.835A2.836,2.836,0,0,0,337.323,0ZM67.518,300.273a25.081,25.081,0,0,1-3.36-12.805,25.912,25.912,0,0,1,3.183-12.99,22.973,22.973,0,0,1,8.933-8.844,26.852,26.852,0,0,1,13.354-3.225,28.846,28.846,0,0,1,13.8,3.04,20.773,20.773,0,0,1,8.667,8.66,27.95,27.95,0,0,1,3.007,13.359q0,11.979-6.721,18.7T89.628,312.9a24.988,24.988,0,0,1-22.11-12.622Zm162.375,0a25.081,25.081,0,0,1-3.36-12.805,25.912,25.912,0,0,1,3.183-12.99,22.973,22.973,0,0,1,8.933-8.844A26.852,26.852,0,0,1,252,262.409a28.846,28.846,0,0,1,13.8,3.04,20.773,20.773,0,0,1,8.667,8.66,27.95,27.95,0,0,1,3.007,13.359q0,11.979-6.721,18.7T252,312.9a24.988,24.988,0,0,1-22.11-12.622Zm91.839,21.459H274.456a33.846,33.846,0,0,0,12.924-13.168,42.463,42.463,0,0,0,4.953-20.913q0-12.159-4.865-21a33.633,33.633,0,0,0-13.708-13.634,42.809,42.809,0,0,0-20.695-4.791,39.5,39.5,0,0,0-13,2.3,33.079,33.079,0,0,0-11.851,7.186,25.307,25.307,0,0,0-7.164,12.806h-.708V267.2a95.722,95.722,0,0,1,2.034-20.267,56,56,0,0,1,6.1-16.4,33.006,33.006,0,0,1,9.905-10.964,23.383,23.383,0,0,1,13.444-3.961q10.434,0,16.361,4.883a27.405,27.405,0,0,1,8.579,13.359l13.089-6.45a46.934,46.934,0,0,0-8.667-14.647,31.428,31.428,0,0,0-12.116-8.292,45.766,45.766,0,0,0-16.362-2.672,39.821,39.821,0,0,0-23.26,7.187q-10.347,7.185-16.362,21.1t-6.013,34.364q0,18.24,5.13,32.335t15.211,22.2a35.524,35.524,0,0,0,3.945,2.757H189.918v-118.1H177.537a36.74,36.74,0,0,1-7.076,7.185,88.71,88.71,0,0,1-9.994,6.911,90.58,90.58,0,0,1-10.259,5.342,29.787,29.787,0,0,1-8.048,2.488l3.715,13.451a65.993,65.993,0,0,0,30.247-17.136q-.18,3.869-.266,7.462t-.088,6.726v85.67H112.081A33.844,33.844,0,0,0,125,308.564a42.453,42.453,0,0,0,4.954-20.913q0-12.159-4.865-21a33.639,33.639,0,0,0-13.708-13.634,42.809,42.809,0,0,0-20.7-4.791,39.5,39.5,0,0,0-13,2.3,33.079,33.079,0,0,0-11.851,7.186,25.307,25.307,0,0,0-7.164,12.806h-.708V267.2A95.722,95.722,0,0,1,60,246.933a56,56,0,0,1,6.1-16.4,33.006,33.006,0,0,1,9.905-10.964,23.383,23.383,0,0,1,13.444-3.961q10.434,0,16.361,4.883a27.405,27.405,0,0,1,8.579,13.359l13.089-6.45a46.934,46.934,0,0,0-8.667-14.647,31.428,31.428,0,0,0-12.116-8.292,45.77,45.77,0,0,0-16.362-2.672,39.821,39.821,0,0,0-23.26,7.187q-10.348,7.185-16.362,21.1T44.7,264.437q0,18.24,5.13,32.335t15.211,22.2a35.524,35.524,0,0,0,3.945,2.757H18.425V18.425H321.732Z"/>
      </g>
    </g>
</svg>
