<svg xmlns="http://www.w3.org/2000/svg" width="120mm" height="120mm" viewBox="0 0 340.158 340.158">
  <g id="Zimmernummer">
      <g id="Z-04-117">
        <path fill="#000000" stroke="none" d="M337.323,0H2.835A2.836,2.836,0,0,0,0,2.835V337.323a2.836,2.836,0,0,0,2.835,2.835H337.323a2.836,2.836,0,0,0,2.835-2.835V2.835A2.836,2.836,0,0,0,337.323,0ZM321.732,321.732H241.525a171.712,171.712,0,0,1,4.2-35.554,139.163,139.163,0,0,1,13.532-35.469,173.257,173.257,0,0,1,23.967-33.256v-13.82H197.259v13.82h70.584a164.568,164.568,0,0,0-21.234,30.033,156.12,156.12,0,0,0-14.769,37.679,165.454,165.454,0,0,0-4.812,36.567H173.911v-118.1H161.529a36.678,36.678,0,0,1-7.075,7.186,88.574,88.574,0,0,1-9.994,6.91,90.6,90.6,0,0,1-10.259,5.343,29.743,29.743,0,0,1-8.048,2.487l3.714,13.451a65.99,65.99,0,0,0,30.247-17.135q-.177,3.869-.265,7.461t-.088,6.726v85.67h-56.6v-118.1H90.777a36.686,36.686,0,0,1-7.076,7.186,88.56,88.56,0,0,1-9.993,6.91,90.69,90.69,0,0,1-10.26,5.343,29.732,29.732,0,0,1-8.048,2.487l3.715,13.451a66,66,0,0,0,30.247-17.135q-.178,3.869-.265,7.461t-.089,6.726v85.67H18.425V18.425H321.732Z"/>
      </g>
    </g>
</svg>
