<svg xmlns="http://www.w3.org/2000/svg" width="120mm" height="120mm" viewBox="0 0 340.158 340.158">
  <g id="Zimmernummer">
      <g id="Z-04-422">
        <path fill="#000000" stroke="none" d="M337.323,0H2.835A2.836,2.836,0,0,0,0,2.835V337.323a2.836,2.836,0,0,0,2.835,2.835H337.323a2.836,2.836,0,0,0,2.835-2.835V2.835A2.836,2.836,0,0,0,337.323,0ZM89.892,280.651H47.971l30.6-44.774q2.828-4.236,6.192-9.949t5.483-10.318H90.6q-.18,4.792-.443,9.765t-.265,9.765Zm231.84,41.081H299.671V311.42H258.812q-1.772,0-5.218.093t-6.9.184q-3.449.094-5.395.276v-.183q20.869-14.555,33.077-26.533t17.512-22.939a50.868,50.868,0,0,0,5.305-22.387,42.142,42.142,0,0,0-2.741-15.477,34.41,34.41,0,0,0-7.871-12.069,35.4,35.4,0,0,0-12.293-7.83,44.68,44.68,0,0,0-16.185-2.764q-11.853,0-20.43,4.606a35.527,35.527,0,0,0-13.62,12.714,48.782,48.782,0,0,0-6.633,18.794l12.382,7.738q1.235-13.633,8.49-21.834t19.28-8.2q11.5,0,18.131,6.725t6.633,17.6A41.3,41.3,0,0,1,279.33,255.5a58.818,58.818,0,0,1-10.083,15.754,175.935,175.935,0,0,1-18.838,18.425q-11.764,10.135-29.273,23.584v8.469h-12.2V311.42h-40.86q-1.769,0-5.218.093t-6.9.184q-3.45.094-5.395.276v-.183q20.869-14.555,33.077-26.533t17.511-22.939a50.856,50.856,0,0,0,5.307-22.387,42.142,42.142,0,0,0-2.742-15.477,34.4,34.4,0,0,0-7.871-12.069,35.4,35.4,0,0,0-12.293-7.83,44.684,44.684,0,0,0-16.185-2.764q-11.853,0-20.43,4.606a35.527,35.527,0,0,0-13.62,12.714,48.782,48.782,0,0,0-6.633,18.794l12.381,7.738q1.238-13.633,8.491-21.834t19.28-8.2q11.5,0,18.131,6.725t6.633,17.6a41.277,41.277,0,0,1-3.007,15.569,58.837,58.837,0,0,1-10.082,15.754,175.935,175.935,0,0,1-18.838,18.425q-11.766,10.135-29.275,23.584v8.469H104.043V293.364h20.694V280.651H104.043V203.633H86.178L32.936,282.494v10.87H89.892v28.368H18.425V18.425H321.732Z"/>
      </g>
    </g>
</svg>
