<svg xmlns="http://www.w3.org/2000/svg" width="120mm" height="120mm" viewBox="0 0 340.158 340.157">
  <g id="Zimmernummer">
      <g id="Z-04-338-R">
        <path fill="#A0552B" stroke="none" d="M337.323,0H2.835A2.836,2.836,0,0,0,0,2.835V337.323a2.834,2.834,0,0,0,2.835,2.834H337.323a2.834,2.834,0,0,0,2.835-2.834V2.835A2.836,2.836,0,0,0,337.323,0ZM244.314,271.161a41.423,41.423,0,0,1,29.273,0,21.778,21.778,0,0,1,9.641,7.738,21.219,21.219,0,0,1-9.464,31.691,42.4,42.4,0,0,1-29.628,0,21.772,21.772,0,0,1-9.551-31.691A21.692,21.692,0,0,1,244.314,271.161Zm-7.871-35.836q0-9.211,6.1-14.371t16.362-5.161q10.434,0,16.45,5.161t6.014,14.371q0,9.029-6.191,14.187t-16.273,5.158q-10.082,0-16.273-5.158T236.443,235.325Zm85.289,86.407H283.578a33.764,33.764,0,0,0,12.473-10.864,31.778,31.778,0,0,0,5.307-18.426q0-11.423-5.926-19.346A35.347,35.347,0,0,0,279.6,261.3v-.183a27.776,27.776,0,0,0,12.117-10.78,30.992,30.992,0,0,0,4.333-16.49,30.651,30.651,0,0,0-4.6-17.043,30.137,30.137,0,0,0-12.912-10.963,51.527,51.527,0,0,0-39.179,0,30.019,30.019,0,0,0-13,10.963q-4.6,7.1-4.6,17.043a30.408,30.408,0,0,0,4.511,16.676,27.9,27.9,0,0,0,12.116,10.594v.183a34.293,34.293,0,0,0-16.1,11.885q-5.835,8.016-5.837,19.254a31.778,31.778,0,0,0,5.307,18.426,33.629,33.629,0,0,0,12.54,10.864H187.193a34.747,34.747,0,0,0,12.9-12.339,35.786,35.786,0,0,0,5.041-18.976,29.083,29.083,0,0,0-1.68-9.858,26.257,26.257,0,0,0-4.864-8.385,24.038,24.038,0,0,0-7.694-5.9,25.08,25.08,0,0,0-10.348-2.4v-.369a23.824,23.824,0,0,0,8.313-3.039,25.822,25.822,0,0,0,6.987-6.172,29.632,29.632,0,0,0,4.864-9.121,37.171,37.171,0,0,0,1.769-11.885,32.162,32.162,0,0,0-3.98-15.845,29.136,29.136,0,0,0-11.939-11.516q-7.96-4.328-20.165-4.33a46.224,46.224,0,0,0-17.777,3.316,39.7,39.7,0,0,0-13.708,9.213,38.62,38.62,0,0,0-8.49,13.635l13.442,6.633a34.084,34.084,0,0,1,9.2-13.727q5.837-5.065,16.98-5.066,10.435,0,16.1,4.974t5.66,14.555q0,11.241-5.483,16.492t-18.4,5.25H161.18a26.86,26.86,0,0,1-3.095-.183v14.74a45.392,45.392,0,0,1,4.776-.461q2.3-.09,4.245-.092,8.311,0,13.443,2.119a14.474,14.474,0,0,1,7.518,6.541,23.077,23.077,0,0,1,2.387,11.055,23.6,23.6,0,0,1-2.83,11.7,20.456,20.456,0,0,1-8.137,8.016,26.618,26.618,0,0,1-13.089,2.947q-9.2,0-15.3-2.763a24.363,24.363,0,0,1-9.818-7.831,40.044,40.044,0,0,1-5.836-11.884l-14.151,7.554a37.878,37.878,0,0,0,16.185,21.1c1.306.836,2.647,1.6,4.018,2.3H96.453a34.75,34.75,0,0,0,12.9-12.339,35.786,35.786,0,0,0,5.041-18.976,29.083,29.083,0,0,0-1.68-9.858,26.257,26.257,0,0,0-4.864-8.385,24.042,24.042,0,0,0-7.7-5.9,25.067,25.067,0,0,0-10.347-2.4v-.369a23.824,23.824,0,0,0,8.313-3.039,25.822,25.822,0,0,0,6.987-6.172,29.611,29.611,0,0,0,4.864-9.121,37.171,37.171,0,0,0,1.769-11.885,32.162,32.162,0,0,0-3.98-15.845,29.133,29.133,0,0,0-11.94-11.516q-7.959-4.328-20.164-4.33a46.224,46.224,0,0,0-17.777,3.316,39.692,39.692,0,0,0-13.708,9.213,38.62,38.62,0,0,0-8.49,13.635L49.127,234.4a34.071,34.071,0,0,1,9.2-13.727q5.838-5.065,16.981-5.066,10.435,0,16.1,4.974t5.66,14.555q0,11.241-5.484,16.492t-18.395,5.25H70.441a26.847,26.847,0,0,1-3.095-.183v14.74a45.373,45.373,0,0,1,4.775-.461q2.3-.09,4.245-.092,8.313,0,13.444,2.119a14.464,14.464,0,0,1,7.517,6.541A23.065,23.065,0,0,1,99.715,290.6a23.6,23.6,0,0,1-2.83,11.7,20.462,20.462,0,0,1-8.137,8.016,26.616,26.616,0,0,1-13.089,2.947q-9.2,0-15.3-2.763a24.354,24.354,0,0,1-9.817-7.831A40.023,40.023,0,0,1,44.7,290.784l-14.15,7.554a37.877,37.877,0,0,0,16.184,21.1c1.306.836,2.648,1.6,4.019,2.3H18.425V18.425H321.732Z"/>
      </g>
    </g>
</svg>
