<svg xmlns="http://www.w3.org/2000/svg" width="120mm" height="120mm" viewBox="0 0 340.158 340.157">
  <g id="Zimmernummer">
      <g id="Z-04-608-R">
        <path fill="#A0552B" stroke="none" d="M337.323,0H2.835A2.836,2.836,0,0,0,0,2.835V337.323a2.834,2.834,0,0,0,2.835,2.834H337.323a2.834,2.834,0,0,0,2.835-2.834V2.835A2.836,2.836,0,0,0,337.323,0ZM55.136,300.274a25.089,25.089,0,0,1-3.361-12.807,25.9,25.9,0,0,1,3.184-12.99,22.987,22.987,0,0,1,8.933-8.844,26.868,26.868,0,0,1,13.355-3.224,28.824,28.824,0,0,1,13.8,3.041,20.762,20.762,0,0,1,8.667,8.66,27.944,27.944,0,0,1,3.007,13.357q0,11.981-6.721,18.7T77.247,312.9a24.993,24.993,0,0,1-22.111-12.621Zm86.758-8.752q-3.276-11.056-3.272-27.086t3.272-27.086q3.271-11.054,9.729-16.674a25.111,25.111,0,0,1,31.662,0q6.453,5.622,9.728,16.674t3.273,27.086q0,16.032-3.273,27.086T183.285,308.2a25.111,25.111,0,0,1-31.662,0Q145.164,302.577,141.894,291.522ZM246.43,271.161a41.429,41.429,0,0,1,29.275,0,21.778,21.778,0,0,1,9.639,7.738,22.769,22.769,0,0,1,.089,23.953,21.151,21.151,0,0,1-9.552,7.738,42.4,42.4,0,0,1-29.628,0A21.77,21.77,0,0,1,236.7,278.9,21.7,21.7,0,0,1,246.43,271.161Zm-7.871-35.836q0-9.211,6.1-14.371t16.361-5.161q10.435,0,16.45,5.161t6.014,14.371q0,9.029-6.191,14.187t-16.273,5.158q-10.083,0-16.273-5.158T238.559,235.325Zm83.173,86.407H285.7a33.772,33.772,0,0,0,12.473-10.864,31.778,31.778,0,0,0,5.307-18.426q0-11.423-5.926-19.346A35.347,35.347,0,0,0,281.718,261.3v-.183a27.762,27.762,0,0,0,12.116-10.78,30.984,30.984,0,0,0,4.334-16.49,30.666,30.666,0,0,0-4.6-17.043,30.145,30.145,0,0,0-12.913-10.963,51.527,51.527,0,0,0-39.179,0,30.019,30.019,0,0,0-13,10.963q-4.6,7.1-4.6,17.043a30.408,30.408,0,0,0,4.51,16.676A27.9,27.9,0,0,0,240.5,261.12v.183a34.292,34.292,0,0,0-16.095,11.885q-5.838,8.016-5.837,19.254a31.777,31.777,0,0,0,5.306,18.426,33.629,33.629,0,0,0,12.54,10.864h-48.64A39.827,39.827,0,0,0,199.2,311.051q11.76-16.027,11.762-46.615T199.2,217.821q-11.765-16.032-31.75-16.031-19.812,0-31.662,16.031t-11.851,46.615q0,30.587,11.851,46.615a40.286,40.286,0,0,0,11.452,10.681H99.7a33.848,33.848,0,0,0,12.923-13.167,42.483,42.483,0,0,0,4.953-20.914q0-12.159-4.865-21A33.638,33.638,0,0,0,99,253.012a42.811,42.811,0,0,0-20.694-4.791,39.5,39.5,0,0,0-13,2.305,33.059,33.059,0,0,0-11.851,7.185,25.312,25.312,0,0,0-7.164,12.805h-.708V267.2a95.613,95.613,0,0,1,2.035-20.268,55.983,55.983,0,0,1,6.1-16.4,32.972,32.972,0,0,1,9.905-10.963A23.368,23.368,0,0,1,77.07,215.61q10.434,0,16.361,4.883a27.4,27.4,0,0,1,8.578,13.357L115.1,227.4a46.934,46.934,0,0,0-8.667-14.647,31.459,31.459,0,0,0-12.116-8.293,45.767,45.767,0,0,0-16.362-2.671,39.819,39.819,0,0,0-23.26,7.187q-10.349,7.183-16.361,21.1t-6.015,34.363q0,18.24,5.13,32.336t15.212,22.2a35.512,35.512,0,0,0,3.944,2.757H18.425V18.425H321.732Z"/>
      </g>
    </g>
</svg>
