<svg xmlns="http://www.w3.org/2000/svg" width="120mm" height="120mm" viewBox="0 0 340.158 340.158">
  <g id="Zimmernummer">
      <g id="Z-04-409">
        <path fill="#000000" stroke="none" d="M337.323,0H2.835A2.836,2.836,0,0,0,0,2.835V337.323a2.836,2.836,0,0,0,2.835,2.835H337.323a2.836,2.836,0,0,0,2.835-2.835V2.835A2.836,2.836,0,0,0,337.323,0ZM86.973,280.65H45.052l30.6-44.773q2.827-4.236,6.19-9.949t5.484-10.319h.353q-.177,4.794-.441,9.766t-.266,9.765Zm56.866,10.871q-3.274-11.055-3.272-27.084t3.272-27.086q3.272-11.055,9.729-16.674a25.107,25.107,0,0,1,31.662,0q6.454,5.622,9.728,16.674t3.272,27.086q0,16.029-3.272,27.084T185.23,308.2a25.111,25.111,0,0,1-31.662,0Q147.108,302.577,143.839,291.521Zm177.893,30.211H279.48c.98-.57,1.937-1.175,2.856-1.836q9.993-7.186,15.124-21.1t5.129-34.362q0-18.425-5.129-32.521t-15.211-22.11q-10.083-8.016-24.764-8.016-12.561,0-21.58,5.067a34.112,34.112,0,0,0-13.8,14.188q-4.776,9.12-4.775,21.649,0,11.609,4.953,20.084a34.221,34.221,0,0,0,13.8,13.174,42.7,42.7,0,0,0,20.341,4.7,41.482,41.482,0,0,0,13.178-2.211,31.608,31.608,0,0,0,11.94-7.278A27.353,27.353,0,0,0,288.97,257.8h.707v1.658a148.866,148.866,0,0,1-1.5,22.11,57.358,57.358,0,0,1-5.041,17.044,26.1,26.1,0,0,1-9.639,10.87q-6.1,3.78-15.3,3.778-11.322,0-17.776-5.9a33.088,33.088,0,0,1-9.287-15.477l-13.973,7.738q5.128,13.452,15.565,20.452,1.314.882,2.693,1.652H189.721a39.83,39.83,0,0,0,11.428-10.68q11.762-16.031,11.763-46.615T201.149,217.82q-11.766-16.029-31.75-16.03-19.812,0-31.662,16.03t-11.852,46.617q0,30.585,11.852,46.615a40.31,40.31,0,0,0,11.452,10.68H101.124V293.363h20.7V280.65h-20.7V203.633H83.258l-53.241,78.86v10.87H86.973v28.369H18.425V18.425H321.732Zm-38.6-80.328a25.892,25.892,0,0,1-3.183,12.991,22.951,22.951,0,0,1-8.933,8.843,26.833,26.833,0,0,1-13.354,3.225q-11.676,0-18.573-6.357t-6.9-17.227q0-12.714,6.544-19.808t18.927-7.093a27.484,27.484,0,0,1,13.354,3.132,22.209,22.209,0,0,1,8.933,8.844A27.185,27.185,0,0,1,283.132,241.4Z"/>
      </g>
    </g>
</svg>
