<svg xmlns="http://www.w3.org/2000/svg" width="120mm" height="120mm" viewBox="0 0 340.158 340.157">
  <g id="Zimmernummer">
      <g id="Z-04-223-M">
        <path fill="#D4AF37" stroke="none" d="M337.323,0H2.835A2.836,2.836,0,0,0,0,2.835V337.323a2.834,2.834,0,0,0,2.835,2.834H337.323a2.834,2.834,0,0,0,2.835-2.834V2.835A2.836,2.836,0,0,0,337.323,0ZM321.732,321.732H282.618a34.758,34.758,0,0,0,12.9-12.339,35.789,35.789,0,0,0,5.041-18.977,29.088,29.088,0,0,0-1.68-9.858,26.271,26.271,0,0,0-4.864-8.384,24.028,24.028,0,0,0-7.695-5.9,25.055,25.055,0,0,0-10.347-2.4v-.369a23.86,23.86,0,0,0,8.313-3.04,25.77,25.77,0,0,0,6.986-6.172,29.6,29.6,0,0,0,4.865-9.121,37.188,37.188,0,0,0,1.769-11.884,32.157,32.157,0,0,0-3.98-15.845,29.139,29.139,0,0,0-11.94-11.516q-7.959-4.328-20.164-4.33a46.224,46.224,0,0,0-17.777,3.316,39.692,39.692,0,0,0-13.708,9.213,38.579,38.579,0,0,0-8.49,13.634l13.443,6.634a34.064,34.064,0,0,1,9.2-13.727q5.838-5.067,16.981-5.067,10.435,0,16.1,4.974t5.661,14.556q0,11.241-5.484,16.491t-18.395,5.251h-2.742a26.673,26.673,0,0,1-3.1-.184v14.74a45.408,45.408,0,0,1,4.776-.46q2.3-.09,4.245-.093,8.313,0,13.444,2.119a14.48,14.48,0,0,1,7.517,6.541A23.068,23.068,0,0,1,285.88,290.6a23.606,23.606,0,0,1-2.83,11.7,20.466,20.466,0,0,1-8.137,8.015,26.618,26.618,0,0,1-13.089,2.948q-9.2,0-15.3-2.763a24.359,24.359,0,0,1-9.816-7.832,40,40,0,0,1-5.837-11.883l-14.151,7.554a37.875,37.875,0,0,0,16.185,21.1c1.306.837,2.648,1.6,4.019,2.3H210V311.419h-40.86q-1.77,0-5.218.093t-6.9.184q-3.448.094-5.394.276v-.183q20.87-14.554,33.077-26.533t17.511-22.939a50.869,50.869,0,0,0,5.306-22.387,42.163,42.163,0,0,0-2.741-15.477,34.413,34.413,0,0,0-7.872-12.069,35.379,35.379,0,0,0-12.293-7.83,44.678,44.678,0,0,0-16.184-2.764q-11.853,0-20.431,4.606a35.531,35.531,0,0,0-13.619,12.714,48.782,48.782,0,0,0-6.633,18.794l12.381,7.738q1.236-13.633,8.491-21.834t19.28-8.2q11.5,0,18.13,6.725t6.633,17.6a41.286,41.286,0,0,1-3.007,15.57,58.824,58.824,0,0,1-10.082,15.753,175.935,175.935,0,0,1-18.838,18.425q-11.764,10.135-29.274,23.584v8.47H115.722V311.419H74.862q-1.77,0-5.217.093t-6.9.184q-3.45.094-5.4.276v-.183q20.869-14.554,33.077-26.533t17.511-22.939a50.856,50.856,0,0,0,5.307-22.387,42.142,42.142,0,0,0-2.742-15.477,34.41,34.41,0,0,0-7.871-12.069,35.392,35.392,0,0,0-12.294-7.83,44.674,44.674,0,0,0-16.184-2.764q-11.853,0-20.43,4.606A35.527,35.527,0,0,0,40.1,219.11,48.782,48.782,0,0,0,33.472,237.9l12.382,7.738q1.234-13.633,8.49-21.834t19.28-8.2q11.5,0,18.13,6.725t6.634,17.6a41.305,41.305,0,0,1-3.007,15.57A58.854,58.854,0,0,1,85.3,271.253,175.841,175.841,0,0,1,66.46,289.678Q54.7,299.814,37.187,313.262v8.47H18.425V18.425H321.732Z"/>
      </g>
    </g>
</svg>
