<svg xmlns="http://www.w3.org/2000/svg" width="120mm" height="120mm" viewBox="0 0 340.158 340.158">
  <g id="Zimmernummer">
      <g id="Z-04-329">
        <path fill="#000000" stroke="none" d="M337.323,0H2.835A2.836,2.836,0,0,0,0,2.835V337.323a2.836,2.836,0,0,0,2.835,2.835H337.323a2.836,2.836,0,0,0,2.835-2.835V2.835A2.836,2.836,0,0,0,337.323,0ZM321.732,321.732H277.1c.98-.57,1.936-1.175,2.856-1.836q9.992-7.186,15.124-21.1t5.13-34.362q0-18.425-5.13-32.521t-15.212-22.11q-10.082-8.016-24.763-8.016-12.562,0-21.58,5.067a34.1,34.1,0,0,0-13.8,14.188q-4.778,9.12-4.777,21.649,0,11.609,4.953,20.084a34.23,34.23,0,0,0,13.8,13.174,42.7,42.7,0,0,0,20.341,4.7,41.487,41.487,0,0,0,13.178-2.211,31.589,31.589,0,0,0,11.939-7.278,27.346,27.346,0,0,0,7.43-13.358h.707v1.658a149.008,149.008,0,0,1-1.5,22.11,57.417,57.417,0,0,1-5.041,17.044,26.1,26.1,0,0,1-9.641,10.87q-6.1,3.78-15.3,3.778-11.322,0-17.778-5.9a33.1,33.1,0,0,1-9.286-15.477l-13.974,7.738Q219.9,313.08,230.34,320.08q1.314.882,2.693,1.652h-26.04V311.42h-40.86q-1.77,0-5.217.093t-6.9.183q-3.449.1-5.395.277v-.184q20.869-14.553,33.077-26.532t17.511-22.94a50.849,50.849,0,0,0,5.307-22.386,42.144,42.144,0,0,0-2.742-15.478,34.42,34.42,0,0,0-7.871-12.068,35.368,35.368,0,0,0-12.294-7.83,44.674,44.674,0,0,0-16.184-2.765q-11.853,0-20.43,4.606a35.534,35.534,0,0,0-13.62,12.714,48.788,48.788,0,0,0-6.633,18.794l12.382,7.739q1.235-13.633,8.49-21.834t19.28-8.2q11.5,0,18.13,6.726t6.633,17.6a41.281,41.281,0,0,1-3.007,15.569,58.787,58.787,0,0,1-10.082,15.754,175.936,175.936,0,0,1-18.838,18.425q-11.764,10.135-29.273,23.584v8.469H98.134a34.74,34.74,0,0,0,12.9-12.338,35.8,35.8,0,0,0,5.041-18.978,29.058,29.058,0,0,0-1.681-9.857,26.234,26.234,0,0,0-4.864-8.384,24.03,24.03,0,0,0-7.694-5.9,25.072,25.072,0,0,0-10.348-2.394v-.369a23.863,23.863,0,0,0,8.314-3.04,25.805,25.805,0,0,0,6.987-6.172,29.6,29.6,0,0,0,4.864-9.121,37.16,37.16,0,0,0,1.769-11.884,32.158,32.158,0,0,0-3.98-15.846A29.125,29.125,0,0,0,97.5,205.937q-7.959-4.328-20.164-4.331a46.228,46.228,0,0,0-17.777,3.317,39.678,39.678,0,0,0-13.708,9.213,38.589,38.589,0,0,0-8.49,13.634L50.808,234.4a34.067,34.067,0,0,1,9.2-13.726q5.838-5.067,16.981-5.068,10.434,0,16.1,4.975t5.66,14.556q0,11.241-5.484,16.491t-18.395,5.251H72.122a26.679,26.679,0,0,1-3.1-.185v14.741a44.9,44.9,0,0,1,4.776-.46q2.3-.092,4.245-.093,8.313,0,13.443,2.119a14.474,14.474,0,0,1,7.518,6.541A23.065,23.065,0,0,1,101.4,290.6a23.609,23.609,0,0,1-2.83,11.7,20.458,20.458,0,0,1-8.137,8.014,26.618,26.618,0,0,1-13.089,2.949q-9.2,0-15.3-2.764a24.354,24.354,0,0,1-9.817-7.831,40.046,40.046,0,0,1-5.837-11.884l-14.151,7.555a37.875,37.875,0,0,0,16.185,21.1c1.306.836,2.648,1.6,4.019,2.3H18.425V18.425H321.732ZM280.752,241.4a25.893,25.893,0,0,1-3.185,12.991,22.941,22.941,0,0,1-8.932,8.843,26.832,26.832,0,0,1-13.355,3.225q-11.673,0-18.572-6.357t-6.9-17.227q0-12.714,6.544-19.808t18.926-7.093a27.483,27.483,0,0,1,13.355,3.132,22.2,22.2,0,0,1,8.932,8.844A27.185,27.185,0,0,1,280.752,241.4Z"/>
      </g>
    </g>
</svg>
