<svg xmlns="http://www.w3.org/2000/svg" width="120mm" height="120mm" viewBox="0 0 340.158 340.157">
  <g id="Zimmernummer">
      <g id="Z-04-410-E">
        <path fill="#A09f9d" stroke="none" d="M337.323,0H2.835A2.836,2.836,0,0,0,0,2.835V337.323a2.834,2.834,0,0,0,2.835,2.834H337.323a2.834,2.834,0,0,0,2.835-2.834V2.835A2.836,2.836,0,0,0,337.323,0ZM99.619,280.65H57.7l30.6-44.773q2.826-4.236,6.19-9.949t5.483-10.319h.354q-.177,4.794-.442,9.766t-.265,9.765Zm121.252,10.871q-3.275-11.055-3.272-27.084t3.272-27.086q3.271-11.055,9.728-16.674a25.107,25.107,0,0,1,31.662,0q6.456,5.622,9.729,16.674t3.272,27.086q0,16.029-3.272,27.084T262.261,308.2a25.111,25.111,0,0,1-31.662,0Q224.142,302.577,220.871,291.521Zm100.861,30.211H266.754a39.84,39.84,0,0,0,11.427-10.68q11.762-16.031,11.763-46.615T278.181,217.82q-11.764-16.029-31.751-16.03-19.812,0-31.661,16.03t-11.851,46.617q0,30.585,11.851,46.615a40.323,40.323,0,0,0,11.452,10.68h-44v-118.1H169.841a36.683,36.683,0,0,1-7.076,7.185,88.606,88.606,0,0,1-9.993,6.911,90.505,90.505,0,0,1-10.26,5.342,29.782,29.782,0,0,1-8.047,2.488l3.714,13.451a65.993,65.993,0,0,0,30.247-17.136q-.178,3.869-.265,7.462t-.089,6.726v85.67h-54.3V293.363h20.7V280.65h-20.7V203.633H95.9l-53.241,78.86v10.87H99.619v28.369H18.425V18.425H321.732Z"/>
      </g>
    </g>
</svg>
