<svg xmlns="http://www.w3.org/2000/svg" width="120mm" height="120mm" viewBox="0 0 340.158 340.157">
  <g id="Zimmernummer">
      <g id="Z-04-405-R">
        <path fill="#A0552B" stroke="none" d="M337.323,0H2.835A2.836,2.836,0,0,0,0,2.835V337.323a2.834,2.834,0,0,0,2.835,2.834H337.323a2.834,2.834,0,0,0,2.835-2.834V2.835A2.836,2.836,0,0,0,337.323,0ZM88.3,280.65H46.379l30.6-44.773q2.827-4.236,6.19-9.949t5.484-10.319h.353q-.178,4.794-.442,9.766T88.3,235.14Zm56.867,10.871q-3.276-11.055-3.273-27.084t3.273-27.086q3.27-11.055,9.728-16.674a25.106,25.106,0,0,1,31.661,0q6.456,5.622,9.729,16.674t3.272,27.086q0,16.029-3.272,27.084T186.556,308.2a25.109,25.109,0,0,1-31.661,0Q148.435,302.577,145.167,291.521Zm176.565,30.211H282.751A35.2,35.2,0,0,0,298.61,303.5a45.5,45.5,0,0,0,3.007-16.951,44.145,44.145,0,0,0-4.6-20.636,33.627,33.627,0,0,0-12.824-13.726,37.252,37.252,0,0,0-19.368-4.883A41.055,41.055,0,0,0,249,250.064a30.472,30.472,0,0,0-10.878,7.371h-.354l.354-1.659,4.6-38.324h53.6V203.633H230.687l-6.9,66.884,12.38,2.395a24.11,24.11,0,0,1,6.722-6.817,27.712,27.712,0,0,1,8.756-3.778,44,44,0,0,1,10.524-1.2,28.121,28.121,0,0,1,13.444,2.948,19.719,19.719,0,0,1,8.4,8.752q2.919,5.8,2.919,14.464a28.51,28.51,0,0,1-3.184,13.911,22.039,22.039,0,0,1-8.932,8.937,28.637,28.637,0,0,1-13.886,3.132q-11.5,0-17.423-5.989a36.216,36.216,0,0,1-8.756-15.569l-13.8,7.555q5.129,13.085,14.594,20.452a30.306,30.306,0,0,0,2.951,2.02H191.049a39.84,39.84,0,0,0,11.427-10.68q11.762-16.031,11.763-46.615T202.476,217.82q-11.766-16.029-31.75-16.03-19.814,0-31.662,16.03t-11.852,46.617q0,30.585,11.852,46.615a40.3,40.3,0,0,0,11.452,10.68H102.451V293.363h20.7V280.65h-20.7V203.633H84.585l-53.241,78.86v10.87H88.3v28.369H18.425V18.425H321.732Z"/>
      </g>
    </g>
</svg>
