<svg xmlns="http://www.w3.org/2000/svg" width="120mm" height="120mm" viewBox="0 0 340.158 340.157">
  <g id="Zimmernummer">
      <g id="Z-04-105-E">
        <path fill="#A09f9d" stroke="none" d="M337.323,0H2.835A2.836,2.836,0,0,0,0,2.835V337.323a2.834,2.834,0,0,0,2.835,2.834H337.323a2.834,2.834,0,0,0,2.835-2.834V2.835A2.836,2.836,0,0,0,337.323,0Zm-211.7,291.521q-3.276-11.055-3.272-27.084t3.272-27.086q3.27-11.055,9.728-16.674a25.107,25.107,0,0,1,31.662,0q6.454,5.622,9.728,16.674t3.273,27.086q0,16.029-3.273,27.084T167.014,308.2a25.111,25.111,0,0,1-31.662,0Q128.893,302.577,125.624,291.521Zm196.108,30.211H263.208A35.2,35.2,0,0,0,279.067,303.5a45.5,45.5,0,0,0,3.007-16.951,44.145,44.145,0,0,0-4.6-20.636,33.629,33.629,0,0,0-12.825-13.726,37.247,37.247,0,0,0-19.368-4.883,41.055,41.055,0,0,0-15.831,2.763,30.472,30.472,0,0,0-10.878,7.371h-.354l.354-1.659,4.6-38.324h53.595V203.633H211.145l-6.9,66.884,12.381,2.395a24.1,24.1,0,0,1,6.722-6.817,27.7,27.7,0,0,1,8.755-3.778,44,44,0,0,1,10.525-1.2,28.111,28.111,0,0,1,13.443,2.948,19.721,19.721,0,0,1,8.4,8.752q2.918,5.8,2.919,14.464a28.51,28.51,0,0,1-3.185,13.911,22.033,22.033,0,0,1-8.932,8.937,28.636,28.636,0,0,1-13.885,3.132q-11.5,0-17.423-5.989a36.205,36.205,0,0,1-8.756-15.569l-13.8,7.555q5.127,13.085,14.592,20.452a30.428,30.428,0,0,0,2.951,2.02H171.506a39.856,39.856,0,0,0,11.428-10.68q11.76-16.031,11.762-46.615T182.934,217.82q-11.766-16.029-31.751-16.03-19.812,0-31.662,16.03T107.67,264.437q0,30.585,11.851,46.615a40.31,40.31,0,0,0,11.452,10.68H94.05v-118.1H81.668a36.675,36.675,0,0,1-7.075,7.185,88.787,88.787,0,0,1-9.993,6.911,90.674,90.674,0,0,1-10.26,5.342,29.776,29.776,0,0,1-8.048,2.488l3.715,13.451a63.308,63.308,0,0,0,16.273-6.541,63.723,63.723,0,0,0,13.973-10.595q-.177,3.869-.265,7.462t-.089,6.726v85.67H18.426V18.425H321.732Z"/>
      </g>
    </g>
</svg>
