<svg xmlns="http://www.w3.org/2000/svg" width="120mm" height="120mm" viewBox="0 0 340.158 340.158">
  <g id="Zimmernummer">
      <g id="Z-04-229-R">
        <path fill="#A0552B" stroke="none" d="M337.323,0H2.835A2.836,2.836,0,0,0,0,2.835V337.323a2.836,2.836,0,0,0,2.835,2.835H337.323a2.836,2.836,0,0,0,2.835-2.835V2.835A2.836,2.836,0,0,0,337.323,0ZM321.732,321.732H282.4c.979-.57,1.936-1.175,2.856-1.836q9.992-7.186,15.123-21.1t5.13-34.362q0-18.425-5.13-32.521t-15.212-22.11q-10.082-8.016-24.763-8.016-12.561,0-21.579,5.067a34.106,34.106,0,0,0-13.8,14.188q-4.776,9.12-4.776,21.649,0,11.609,4.952,20.084a34.236,34.236,0,0,0,13.8,13.174,42.7,42.7,0,0,0,20.342,4.7,41.476,41.476,0,0,0,13.177-2.211,31.6,31.6,0,0,0,11.94-7.278,27.345,27.345,0,0,0,7.429-13.358h.708v1.658a148.866,148.866,0,0,1-1.5,22.11,57.358,57.358,0,0,1-5.041,17.044,26.106,26.106,0,0,1-9.64,10.87q-6.1,3.78-15.3,3.778-11.322,0-17.777-5.9a33.079,33.079,0,0,1-9.286-15.477l-13.974,7.738q5.128,13.452,15.566,20.452,1.314.882,2.693,1.652H205.223V311.42h-40.86q-1.769,0-5.217.093t-6.9.183q-3.449.1-5.4.277v-.184q20.869-14.553,33.077-26.532t17.511-22.94a50.849,50.849,0,0,0,5.307-22.386,42.144,42.144,0,0,0-2.742-15.478,34.392,34.392,0,0,0-7.871-12.068,35.383,35.383,0,0,0-12.293-7.83,44.679,44.679,0,0,0-16.185-2.765q-11.853,0-20.43,4.606a35.534,35.534,0,0,0-13.62,12.714,48.8,48.8,0,0,0-6.633,18.794l12.382,7.739q1.236-13.633,8.49-21.834t19.28-8.2q11.5,0,18.131,6.726t6.633,17.6a41.281,41.281,0,0,1-3.007,15.569A58.818,58.818,0,0,1,174.8,271.254a175.936,175.936,0,0,1-18.838,18.425q-11.765,10.135-29.273,23.584v8.469H110.946V311.42H70.087q-1.77,0-5.218.093t-6.9.183q-3.448.1-5.394.277v-.184q20.868-14.553,33.076-26.532t17.512-22.94a50.861,50.861,0,0,0,5.306-22.386,42.164,42.164,0,0,0-2.741-15.478,34.408,34.408,0,0,0-7.872-12.068,35.364,35.364,0,0,0-12.293-7.83,44.679,44.679,0,0,0-16.185-2.765q-11.852,0-20.43,4.606A35.531,35.531,0,0,0,35.33,219.11,48.805,48.805,0,0,0,28.7,237.9l12.382,7.739q1.236-13.633,8.49-21.834t19.281-8.2q11.5,0,18.13,6.726t6.633,17.6A41.281,41.281,0,0,1,90.605,255.5a58.812,58.812,0,0,1-10.082,15.754,176.031,176.031,0,0,1-18.838,18.425q-11.766,10.135-29.274,23.584v8.469H18.425V18.425H321.732ZM286.057,241.4a25.893,25.893,0,0,1-3.184,12.991,22.951,22.951,0,0,1-8.933,8.843,26.831,26.831,0,0,1-13.354,3.225q-11.675,0-18.573-6.357t-6.9-17.227q0-12.714,6.545-19.808t18.926-7.093a27.482,27.482,0,0,1,13.354,3.132,22.209,22.209,0,0,1,8.933,8.844A27.185,27.185,0,0,1,286.057,241.4Z"/>
      </g>
    </g>
</svg>
