<svg xmlns="http://www.w3.org/2000/svg" width="120mm" height="120mm" viewBox="0 0 340.158 340.158">
  <g id="Zimmernummer">
      <g id="Z-04-044-R">
        <path fill="#A0552B" stroke="none" d="M337.323,0H2.835A2.836,2.836,0,0,0,0,2.835V337.323a2.836,2.836,0,0,0,2.835,2.835H337.323a2.836,2.836,0,0,0,2.835-2.835V2.835A2.836,2.836,0,0,0,337.323,0ZM161.9,280.65H118.236l31.876-44.773q2.944-4.236,6.449-9.949a116.845,116.845,0,0,0,5.711-10.319h.369q-.186,4.794-.461,9.766t-.276,9.765Zm106.127,0H224.364l31.875-44.773q2.946-4.236,6.449-9.949a116.619,116.619,0,0,0,5.712-10.319h.369q-.186,4.794-.461,9.766t-.277,9.765Zm53.7,41.082H282.771V293.363h21.558V280.65H282.771V203.633H264.162l-55.46,78.86v10.87h59.329v28.369H176.644V293.363H198.2V280.65H176.644V203.633H158.035l-55.46,78.86v10.87H161.9v28.369H18.425V18.425H321.732Z"/>
      </g>
    </g>
</svg>
