<svg xmlns="http://www.w3.org/2000/svg" width="120mm" height="120mm" viewBox="0 0 340.158 340.157">
  <g id="Zimmernummer">
      <g id="Z-04-335-R">
        <path fill="#A0552B" stroke="none" d="M337.323,0H2.835A2.836,2.836,0,0,0,0,2.835V337.323a2.834,2.834,0,0,0,2.835,2.834H337.323a2.834,2.834,0,0,0,2.835-2.834V2.835A2.836,2.836,0,0,0,337.323,0ZM321.732,321.732H280.371A35.223,35.223,0,0,0,296.23,303.5a45.519,45.519,0,0,0,3.007-16.951,44.145,44.145,0,0,0-4.6-20.636,33.624,33.624,0,0,0-12.823-13.726,37.253,37.253,0,0,0-19.369-4.883,41.064,41.064,0,0,0-15.832,2.763,30.476,30.476,0,0,0-10.877,7.371h-.354l.354-1.659,4.6-38.324h53.6V203.633H228.307l-6.9,66.884,12.382,2.395a24.094,24.094,0,0,1,6.721-6.817,27.712,27.712,0,0,1,8.756-3.778,44,44,0,0,1,10.524-1.2,28.118,28.118,0,0,1,13.444,2.948,19.727,19.727,0,0,1,8.4,8.752q2.917,5.8,2.918,14.464a28.521,28.521,0,0,1-3.184,13.911,22.039,22.039,0,0,1-8.932,8.937,28.635,28.635,0,0,1-13.886,3.132q-11.5,0-17.423-5.989a36.2,36.2,0,0,1-8.755-15.569l-13.8,7.555q5.129,13.085,14.593,20.452a30.306,30.306,0,0,0,2.951,2.02H190.2a34.752,34.752,0,0,0,12.9-12.338,35.8,35.8,0,0,0,5.042-18.978,29.083,29.083,0,0,0-1.681-9.857,26.252,26.252,0,0,0-4.864-8.384,24.045,24.045,0,0,0-7.695-5.9,25.067,25.067,0,0,0-10.347-2.394v-.369a23.865,23.865,0,0,0,8.313-3.04,25.805,25.805,0,0,0,6.987-6.172,29.6,29.6,0,0,0,4.864-9.121A37.16,37.16,0,0,0,205.49,233.3a32.158,32.158,0,0,0-3.98-15.846,29.125,29.125,0,0,0-11.94-11.515q-7.959-4.328-20.164-4.331a46.224,46.224,0,0,0-17.777,3.317,39.687,39.687,0,0,0-13.708,9.213,38.589,38.589,0,0,0-8.49,13.634l13.443,6.633a34.077,34.077,0,0,1,9.2-13.726q5.838-5.067,16.981-5.068,10.435,0,16.1,4.975t5.66,14.556q0,11.241-5.484,16.491t-18.395,5.251h-2.741a26.653,26.653,0,0,1-3.1-.185v14.741a44.862,44.862,0,0,1,4.775-.46q2.3-.092,4.245-.093,8.313,0,13.444,2.119a14.468,14.468,0,0,1,7.517,6.541,23.065,23.065,0,0,1,2.388,11.055,23.609,23.609,0,0,1-2.83,11.7,20.458,20.458,0,0,1-8.137,8.014,26.615,26.615,0,0,1-13.089,2.949q-9.2,0-15.3-2.764a24.354,24.354,0,0,1-9.817-7.831,40.022,40.022,0,0,1-5.837-11.884L124.3,298.339a37.879,37.879,0,0,0,16.185,21.1c1.306.836,2.647,1.6,4.018,2.3H99.462a34.752,34.752,0,0,0,12.9-12.338,35.8,35.8,0,0,0,5.041-18.978,29.082,29.082,0,0,0-1.68-9.857,26.252,26.252,0,0,0-4.864-8.384,24.045,24.045,0,0,0-7.695-5.9,25.071,25.071,0,0,0-10.347-2.394v-.369a23.865,23.865,0,0,0,8.313-3.04,25.79,25.79,0,0,0,6.987-6.172,29.6,29.6,0,0,0,4.864-9.121,37.188,37.188,0,0,0,1.769-11.884,32.158,32.158,0,0,0-3.98-15.846,29.125,29.125,0,0,0-11.94-11.515q-7.959-4.328-20.164-4.331a46.219,46.219,0,0,0-17.776,3.317,39.673,39.673,0,0,0-13.709,9.213,38.561,38.561,0,0,0-8.49,13.634L52.135,234.4a34.077,34.077,0,0,1,9.2-13.726q5.838-5.067,16.982-5.068,10.434,0,16.1,4.975t5.661,14.556q0,11.241-5.484,16.491t-18.395,5.251H73.449a26.636,26.636,0,0,1-3.095-.185v14.741a44.862,44.862,0,0,1,4.775-.46q2.3-.092,4.245-.093,8.313,0,13.444,2.119a14.472,14.472,0,0,1,7.517,6.541,23.065,23.065,0,0,1,2.388,11.055,23.609,23.609,0,0,1-2.83,11.7,20.458,20.458,0,0,1-8.137,8.014,26.615,26.615,0,0,1-13.089,2.949q-9.2,0-15.3-2.764a24.364,24.364,0,0,1-9.816-7.831,40.022,40.022,0,0,1-5.837-11.884l-14.151,7.555a37.875,37.875,0,0,0,16.185,21.1c1.306.836,2.648,1.6,4.019,2.3H18.425V18.425H321.732Z"/>
      </g>
    </g>
</svg>
