<svg xmlns="http://www.w3.org/2000/svg" width="120mm" height="120mm" viewBox="0 0 340.158 340.158">
  <g id="Zimmernummer">
      <g id="Z-04-509">
        <path fill="#000000" stroke="none" d="M337.323,0H2.835A2.836,2.836,0,0,0,0,2.835V337.323a2.836,2.836,0,0,0,2.835,2.835H337.323a2.836,2.836,0,0,0,2.835-2.835V2.835A2.836,2.836,0,0,0,337.323,0ZM137.737,291.521q-3.274-11.055-3.273-27.084t3.273-27.086q3.27-11.055,9.728-16.674a25.107,25.107,0,0,1,31.662,0q6.456,5.622,9.729,16.674t3.272,27.086q0,16.029-3.272,27.084T179.127,308.2a25.111,25.111,0,0,1-31.662,0Q141.008,302.577,137.737,291.521Zm184,30.211H280.454c.979-.57,1.936-1.175,2.856-1.836q9.99-7.186,15.123-21.1t5.13-34.362q0-18.425-5.13-32.521t-15.212-22.11q-10.082-8.016-24.763-8.016-12.563,0-21.58,5.067a34.11,34.11,0,0,0-13.8,14.188q-4.776,9.12-4.776,21.649,0,11.609,4.952,20.084a34.236,34.236,0,0,0,13.8,13.174,42.7,42.7,0,0,0,20.342,4.7,41.491,41.491,0,0,0,13.178-2.211,31.6,31.6,0,0,0,11.939-7.278,27.353,27.353,0,0,0,7.429-13.358h.708v1.658a148.866,148.866,0,0,1-1.5,22.11,57.388,57.388,0,0,1-5.041,17.044,26.106,26.106,0,0,1-9.64,10.87q-6.1,3.78-15.3,3.778-11.322,0-17.777-5.9A33.087,33.087,0,0,1,232.1,291.89l-13.975,7.738q5.129,13.452,15.567,20.452,1.314.882,2.693,1.652H183.619a39.827,39.827,0,0,0,11.427-10.68q11.763-16.031,11.763-46.615T195.046,217.82q-11.763-16.029-31.75-16.03-19.812,0-31.662,16.03t-11.85,46.617q0,30.585,11.85,46.615a40.313,40.313,0,0,0,11.453,10.68H94.2A35.2,35.2,0,0,0,110.058,303.5a45.519,45.519,0,0,0,3.007-16.951,44.133,44.133,0,0,0-4.6-20.636,33.624,33.624,0,0,0-12.823-13.726A37.248,37.248,0,0,0,76.273,247.3a41.058,41.058,0,0,0-15.831,2.763,30.472,30.472,0,0,0-10.878,7.371H49.21l.354-1.659,4.6-38.324h53.6V203.633H42.135l-6.9,66.884,12.382,2.395A24.081,24.081,0,0,1,54.34,266.1a27.7,27.7,0,0,1,8.755-3.778,44.01,44.01,0,0,1,10.525-1.2,28.114,28.114,0,0,1,13.443,2.948,19.727,19.727,0,0,1,8.4,8.752q2.919,5.8,2.918,14.464A28.521,28.521,0,0,1,95.2,301.194a22.036,22.036,0,0,1-8.933,8.937,28.633,28.633,0,0,1-13.885,3.132q-11.5,0-17.424-5.989A36.192,36.192,0,0,1,46.2,291.705l-13.8,7.555Q37.536,312.345,47,319.712a30.485,30.485,0,0,0,2.951,2.02H18.425V18.425H321.732ZM284.106,241.4a25.9,25.9,0,0,1-3.184,12.991,22.955,22.955,0,0,1-8.932,8.843,26.837,26.837,0,0,1-13.355,3.225q-11.674,0-18.573-6.357t-6.9-17.227q0-12.714,6.544-19.808t18.927-7.093a27.488,27.488,0,0,1,13.355,3.132,22.213,22.213,0,0,1,8.932,8.844A27.2,27.2,0,0,1,284.106,241.4Z"/>
      </g>
    </g>
</svg>
