<svg xmlns="http://www.w3.org/2000/svg" width="120mm" height="120mm" viewBox="0 0 340.158 340.158">
  <g id="Zimmernummer">
      <g id="Z-04-025-R">
        <path fill="#A0552B" stroke="none" d="M339.327.831a2.835,2.835,0,0,0-2-.831H2.835A2.836,2.836,0,0,0,0,2.835V337.323a2.836,2.836,0,0,0,2.835,2.835H337.323a2.837,2.837,0,0,0,2.835-2.835V2.835A2.831,2.831,0,0,0,339.327.831Zm-17.595,320.9H281.161a37.418,37.418,0,0,0,7.886-5.546,35.751,35.751,0,0,0,8.845-12.806,43.9,43.9,0,0,0,3.132-16.951,42.679,42.679,0,0,0-4.791-20.636,34.226,34.226,0,0,0-13.358-13.727q-8.568-4.881-20.176-4.882a44.331,44.331,0,0,0-16.49,2.763,31.845,31.845,0,0,0-11.332,7.37h-.368l.368-1.658,4.791-38.325H295.5V203.516H227.139L219.953,270.4l12.9,2.395a24.6,24.6,0,0,1,7-6.817,29.492,29.492,0,0,1,9.121-3.777,47.6,47.6,0,0,1,10.963-1.2,30.3,30.3,0,0,1,14,2.948,20.1,20.1,0,0,1,8.753,8.752q3.039,5.8,3.04,14.464a27.591,27.591,0,0,1-3.317,13.911,22.5,22.5,0,0,1-9.305,8.936,30.833,30.833,0,0,1-14.463,3.133q-11.979,0-18.149-5.989a35.866,35.866,0,0,1-9.121-15.569l-14.371,7.555q5.341,13.083,15.2,20.451a31.7,31.7,0,0,0,3.278,2.138H208.162V311.3H165.6q-1.843,0-5.435.092t-7.186.184q-3.594.1-5.62.276v-.184q21.739-14.551,34.455-26.532T200.055,262.2a49.2,49.2,0,0,0,5.528-22.387,40.648,40.648,0,0,0-2.856-15.477,34.3,34.3,0,0,0-8.2-12.068,37.093,37.093,0,0,0-12.806-7.831,48.284,48.284,0,0,0-16.859-2.764q-12.346,0-21.281,4.606A36.45,36.45,0,0,0,129.4,218.993a47.549,47.549,0,0,0-6.91,18.793l12.9,7.739q1.287-13.632,8.844-21.834t20.083-8.2q11.975,0,18.886,6.725t6.909,17.6a39.833,39.833,0,0,1-3.132,15.57,58.583,58.583,0,0,1-10.5,15.753,180,180,0,0,1-19.623,18.426q-12.255,10.134-30.494,23.584v8.586H18.425V18.425H321.732Z"/>
      </g>
    </g>
</svg>
