<svg xmlns="http://www.w3.org/2000/svg" width="120mm" height="120mm" viewBox="0 0 340.158 340.158">
  <g id="Zimmernummer">
      <g id="Z-04-129">
        <path fill="#000000" stroke="none" d="M337.323,0H2.835A2.836,2.836,0,0,0,0,2.835V337.323a2.836,2.836,0,0,0,2.835,2.835H337.323a2.836,2.836,0,0,0,2.835-2.835V2.835A2.836,2.836,0,0,0,337.323,0ZM321.732,321.732h-56.4c.98-.57,1.937-1.175,2.856-1.836q9.991-7.186,15.124-21.1t5.129-34.362q0-18.425-5.129-32.521T268.1,209.806q-10.083-8.016-24.764-8.016-12.561,0-21.579,5.067a34.112,34.112,0,0,0-13.8,14.188q-4.776,9.12-4.776,21.649,0,11.609,4.953,20.084a34.23,34.23,0,0,0,13.8,13.174,42.7,42.7,0,0,0,20.341,4.7,41.487,41.487,0,0,0,13.178-2.211,31.608,31.608,0,0,0,11.94-7.278,27.352,27.352,0,0,0,7.428-13.358h.708v1.658a148.866,148.866,0,0,1-1.5,22.11,57.358,57.358,0,0,1-5.041,17.044,26.1,26.1,0,0,1-9.64,10.87q-6.1,3.78-15.3,3.778-11.322,0-17.776-5.9a33.08,33.08,0,0,1-9.287-15.477l-13.974,7.738q5.128,13.452,15.566,20.452,1.314.882,2.693,1.652H188.15V311.42H147.291q-1.77,0-5.218.093t-6.9.183q-3.448.1-5.4.277v-.184q20.87-14.553,33.077-26.532t17.512-22.94a50.861,50.861,0,0,0,5.306-22.386,42.164,42.164,0,0,0-2.741-15.478,34.42,34.42,0,0,0-7.871-12.068,35.378,35.378,0,0,0-12.294-7.83,44.679,44.679,0,0,0-16.185-2.765q-11.852,0-20.43,4.606a35.538,35.538,0,0,0-13.619,12.714A48.805,48.805,0,0,0,105.9,237.9l12.382,7.739q1.236-13.633,8.49-21.834t19.281-8.2q11.5,0,18.13,6.726t6.633,17.6a41.281,41.281,0,0,1-3.007,15.569,58.812,58.812,0,0,1-10.082,15.754,176.031,176.031,0,0,1-18.838,18.425q-11.766,10.135-29.274,23.584v8.469H87.328v-118.1H74.946a36.7,36.7,0,0,1-7.075,7.185,88.71,88.71,0,0,1-9.994,6.911,90.58,90.58,0,0,1-10.259,5.342,29.787,29.787,0,0,1-8.048,2.488l3.714,13.451a63.314,63.314,0,0,0,16.274-6.541,63.723,63.723,0,0,0,13.973-10.595q-.177,3.869-.265,7.462t-.088,6.726v85.67H18.425V18.425H321.732ZM268.984,241.4A25.893,25.893,0,0,1,265.8,254.4a22.941,22.941,0,0,1-8.932,8.843,26.835,26.835,0,0,1-13.355,3.225q-11.675,0-18.572-6.357t-6.9-17.227q0-12.714,6.545-19.808t18.926-7.093a27.486,27.486,0,0,1,13.355,3.132,22.2,22.2,0,0,1,8.932,8.844A27.185,27.185,0,0,1,268.984,241.4Z"/>
      </g>
    </g>
</svg>
