<svg xmlns="http://www.w3.org/2000/svg" width="120mm" height="120mm" viewBox="0 0 340.158 340.158">
  <g id="Zimmernummer">
      <g id="Z-04-134-M">
        <path fill="#D4AF37" stroke="none" d="M337.323,0H2.835A2.836,2.836,0,0,0,0,2.835V337.323a2.836,2.836,0,0,0,2.835,2.835H337.323a2.836,2.836,0,0,0,2.835-2.835V2.835A2.836,2.836,0,0,0,337.323,0ZM251.65,280.65H209.729l30.6-44.773q2.827-4.236,6.191-9.949T252,215.609h.354q-.177,4.794-.442,9.766t-.265,9.765Zm70.082,41.082H265.8V293.363H286.5V280.65H265.8V203.633H247.935l-53.241,78.86v10.87H251.65v28.369H170.561a34.748,34.748,0,0,0,12.9-12.338,35.8,35.8,0,0,0,5.041-18.978,29.058,29.058,0,0,0-1.681-9.857,26.234,26.234,0,0,0-4.864-8.384,24.03,24.03,0,0,0-7.694-5.9,25.072,25.072,0,0,0-10.348-2.394v-.369a23.863,23.863,0,0,0,8.314-3.04,25.805,25.805,0,0,0,6.987-6.172,29.6,29.6,0,0,0,4.864-9.121,37.16,37.16,0,0,0,1.769-11.884,32.158,32.158,0,0,0-3.98-15.846,29.125,29.125,0,0,0-11.94-11.515q-7.959-4.328-20.164-4.331a46.228,46.228,0,0,0-17.777,3.317,39.678,39.678,0,0,0-13.708,9.213,38.589,38.589,0,0,0-8.49,13.634l13.443,6.633a34.067,34.067,0,0,1,9.2-13.726q5.838-5.067,16.981-5.068,10.434,0,16.1,4.975t5.66,14.556q0,11.241-5.484,16.491t-18.4,5.251h-2.742a26.679,26.679,0,0,1-3.1-.185v14.741a44.9,44.9,0,0,1,4.776-.46q2.3-.092,4.245-.093,8.313,0,13.443,2.119a14.474,14.474,0,0,1,7.518,6.541,23.065,23.065,0,0,1,2.388,11.055,23.609,23.609,0,0,1-2.83,11.7,20.458,20.458,0,0,1-8.137,8.014,26.618,26.618,0,0,1-13.089,2.949q-9.2,0-15.3-2.764a24.354,24.354,0,0,1-9.817-7.831,40.046,40.046,0,0,1-5.837-11.884l-14.151,7.555a37.875,37.875,0,0,0,16.185,21.1c1.306.836,2.648,1.6,4.019,2.3H92.281v-118.1H79.9a36.712,36.712,0,0,1-7.076,7.185,88.619,88.619,0,0,1-9.994,6.911,90.656,90.656,0,0,1-10.258,5.342,29.792,29.792,0,0,1-8.049,2.488l3.715,13.451a63.322,63.322,0,0,0,16.273-6.541,63.729,63.729,0,0,0,13.974-10.595q-.178,3.869-.265,7.462t-.089,6.726v85.67h-59.7V18.425H321.732Z"/>
      </g>
    </g>
</svg>
