<svg xmlns="http://www.w3.org/2000/svg" width="120mm" height="120mm" viewBox="0 0 340.158 340.157">
  <g id="Zimmernummer">
      <g id="Z-04-348">
        <path fill="#000000" stroke="none" d="M337.323,0H2.835A2.836,2.836,0,0,0,0,2.835V337.323a2.834,2.834,0,0,0,2.835,2.834H337.323a2.834,2.834,0,0,0,2.835-2.834V2.835A2.836,2.836,0,0,0,337.323,0ZM175.943,280.651H134.022l30.6-44.774q2.827-4.236,6.191-9.949T176.3,215.61h.354q-.177,4.792-.442,9.765t-.265,9.764Zm70.84-9.49a41.423,41.423,0,0,1,29.273,0A21.778,21.778,0,0,1,285.7,278.9a21.22,21.22,0,0,1-9.463,31.691,42.4,42.4,0,0,1-29.628,0,21.772,21.772,0,0,1-9.552-31.691A21.7,21.7,0,0,1,246.783,271.161Zm-7.872-35.836q0-9.211,6.1-14.371t16.361-5.161q10.434,0,16.451,5.161t6.013,14.371q0,9.029-6.19,14.187t-16.274,5.158q-10.082,0-16.273-5.158T238.911,235.325Zm82.821,86.407H286.047a33.775,33.775,0,0,0,12.474-10.864,31.785,31.785,0,0,0,5.306-18.426q0-11.423-5.925-19.346A35.352,35.352,0,0,0,282.071,261.3v-.183a27.773,27.773,0,0,0,12.116-10.78,30.993,30.993,0,0,0,4.334-16.49,30.651,30.651,0,0,0-4.6-17.043,30.137,30.137,0,0,0-12.912-10.963,51.53,51.53,0,0,0-39.18,0,30.036,30.036,0,0,0-13,10.963q-4.6,7.1-4.6,17.043a30.408,30.408,0,0,0,4.511,16.676,27.891,27.891,0,0,0,12.116,10.594v.183a34.29,34.29,0,0,0-16.1,11.885q-5.836,8.016-5.838,19.254a31.785,31.785,0,0,0,5.307,18.426,33.629,33.629,0,0,0,12.54,10.864H190.093V293.364h20.7V280.651h-20.7V203.633H172.228l-53.241,78.86v10.871h56.956v28.368H93.969a34.743,34.743,0,0,0,12.9-12.339,35.777,35.777,0,0,0,5.041-18.976,29.083,29.083,0,0,0-1.679-9.858,26.26,26.26,0,0,0-4.865-8.385,24.031,24.031,0,0,0-7.695-5.9,25.07,25.07,0,0,0-10.346-2.4v-.369a23.826,23.826,0,0,0,8.312-3.039,25.792,25.792,0,0,0,6.987-6.172,29.612,29.612,0,0,0,4.865-9.121,37.2,37.2,0,0,0,1.768-11.885,32.161,32.161,0,0,0-3.979-15.845,29.139,29.139,0,0,0-11.94-11.516q-7.959-4.328-20.165-4.33A46.219,46.219,0,0,0,55.4,204.922a39.692,39.692,0,0,0-13.708,9.213A38.591,38.591,0,0,0,33.2,227.77L46.643,234.4a34.083,34.083,0,0,1,9.2-13.727q5.838-5.065,16.981-5.066,10.434,0,16.1,4.974t5.66,14.555q0,11.241-5.483,16.492T70.7,256.881H67.957a26.86,26.86,0,0,1-3.095-.183v14.74a45.417,45.417,0,0,1,4.776-.461q2.3-.09,4.245-.092,8.312,0,13.444,2.119a14.469,14.469,0,0,1,7.516,6.541A23.053,23.053,0,0,1,97.232,290.6a23.613,23.613,0,0,1-2.83,11.7,20.469,20.469,0,0,1-8.137,8.016,26.62,26.62,0,0,1-13.09,2.947q-9.2,0-15.3-2.763a24.367,24.367,0,0,1-9.817-7.831,40.022,40.022,0,0,1-5.837-11.884l-14.15,7.554a37.872,37.872,0,0,0,16.184,21.1c1.306.836,2.648,1.6,4.019,2.3H18.425V18.425H321.732Z"/>
      </g>
    </g>
</svg>
