<svg xmlns="http://www.w3.org/2000/svg" width="120mm" height="120mm" viewBox="0 0 340.158 340.157">
  <g id="Zimmernummer">
      <g id="Z-04-241-E">
        <path fill="#A09f9d" stroke="none" d="M337.323,0H2.835A2.834,2.834,0,0,0,0,2.835V337.323a2.834,2.834,0,0,0,2.835,2.834H337.323a2.834,2.834,0,0,0,2.835-2.834V2.835A2.834,2.834,0,0,0,337.323,0ZM181.159,280.65H139.238l30.6-44.773q2.827-4.236,6.191-9.949t5.483-10.319h.354q-.179,4.794-.443,9.766t-.265,9.765Zm140.573,41.082H267.3v-118.1H254.917a36.675,36.675,0,0,1-7.075,7.185,88.787,88.787,0,0,1-9.993,6.911,90.589,90.589,0,0,1-10.26,5.342,29.782,29.782,0,0,1-8.047,2.488l3.714,13.451A65.983,65.983,0,0,0,253.5,221.874q-.177,3.869-.265,7.462t-.088,6.726v85.67H195.31V293.363h20.695V280.65H195.31V203.633H177.445L124.2,282.493v10.87h56.956v28.369H122.613V311.42H81.753q-1.77,0-5.218.093t-6.9.183q-3.45.1-5.395.277v-.184q20.87-14.553,33.076-26.532t17.512-22.94a50.848,50.848,0,0,0,5.306-22.386,42.144,42.144,0,0,0-2.741-15.478,34.408,34.408,0,0,0-7.872-12.068,35.364,35.364,0,0,0-12.293-7.83,44.676,44.676,0,0,0-16.185-2.765q-11.852,0-20.429,4.606A35.527,35.527,0,0,0,47,219.11,48.788,48.788,0,0,0,40.363,237.9l12.381,7.739q1.236-13.633,8.491-21.834t19.28-8.2q11.5,0,18.13,6.726t6.633,17.6a41.281,41.281,0,0,1-3.007,15.569,58.812,58.812,0,0,1-10.082,15.754,176.031,176.031,0,0,1-18.838,18.425q-11.766,10.135-29.274,23.584v8.469H18.425V18.425H321.732Z"/>
      </g>
    </g>
</svg>
