<svg xmlns="http://www.w3.org/2000/svg" width="120mm" height="120mm" viewBox="0 0 340.158 340.158">
  <g id="Zimmernummer">
      <g id="Z-04-512-R">
        <path fill="#A0552B" stroke="none" d="M337.323,0H2.835A2.836,2.836,0,0,0,0,2.835V337.323a2.836,2.836,0,0,0,2.835,2.835H337.323a2.836,2.836,0,0,0,2.835-2.835V2.835A2.836,2.836,0,0,0,337.323,0ZM321.732,321.732H283.576V311.42h-40.86q-1.77,0-5.218.093t-6.9.184q-3.448.094-5.394.276v-.183q20.869-14.555,33.077-26.533t17.511-22.939a50.855,50.855,0,0,0,5.306-22.387,42.142,42.142,0,0,0-2.742-15.477,34.4,34.4,0,0,0-7.871-12.069,35.379,35.379,0,0,0-12.293-7.83,44.678,44.678,0,0,0-16.184-2.764q-11.853,0-20.43,4.606a35.512,35.512,0,0,0-13.62,12.714,48.749,48.749,0,0,0-6.633,18.794l12.382,7.738q1.234-13.633,8.49-21.834t19.279-8.2q11.5,0,18.131,6.725t6.633,17.6a41.277,41.277,0,0,1-3.007,15.569,58.837,58.837,0,0,1-10.082,15.754,175.935,175.935,0,0,1-18.838,18.425q-11.766,10.135-29.274,23.584v8.469H182.753v-118.1H170.372a36.714,36.714,0,0,1-7.076,7.186,88.574,88.574,0,0,1-9.994,6.91,90.6,90.6,0,0,1-10.259,5.343A29.732,29.732,0,0,1,135,225.559l3.715,13.451a66.007,66.007,0,0,0,30.246-17.135q-.177,3.869-.265,7.461t-.089,6.726v85.67H114.187A35.219,35.219,0,0,0,130.045,303.5a45.508,45.508,0,0,0,3.007-16.952,44.138,44.138,0,0,0-4.6-20.635,33.636,33.636,0,0,0-12.824-13.727A37.253,37.253,0,0,0,96.26,247.3a41.039,41.039,0,0,0-15.831,2.764,30.487,30.487,0,0,0-10.877,7.37H69.2l.355-1.658,4.6-38.324h53.6v-13.82H62.122l-6.9,66.884,12.382,2.4a24.1,24.1,0,0,1,6.722-6.818,27.7,27.7,0,0,1,8.756-3.777,43.951,43.951,0,0,1,10.524-1.2,28.121,28.121,0,0,1,13.444,2.948,19.719,19.719,0,0,1,8.4,8.752q2.919,5.8,2.919,14.464a28.51,28.51,0,0,1-3.185,13.911,22.028,22.028,0,0,1-8.931,8.936,28.637,28.637,0,0,1-13.886,3.132q-11.5,0-17.423-5.988a36.211,36.211,0,0,1-8.756-15.569l-13.8,7.554q5.128,13.086,14.593,20.452a30.414,30.414,0,0,0,2.95,2.02H18.425V18.425H321.732Z"/>
      </g>
    </g>
</svg>
