<svg xmlns="http://www.w3.org/2000/svg" width="120mm" height="120mm" viewBox="0 0 340.158 340.157">
  <g id="Zimmernummer">
      <g id="Z-04-136-E">
        <path fill="#A09f9d" stroke="none" d="M337.323,0H2.835A2.836,2.836,0,0,0,0,2.835V337.323a2.834,2.834,0,0,0,2.835,2.834H337.323a2.834,2.834,0,0,0,2.835-2.834V2.835A2.836,2.836,0,0,0,337.323,0ZM225.914,300.273a25.072,25.072,0,0,1-3.361-12.805,25.913,25.913,0,0,1,3.184-12.99,22.971,22.971,0,0,1,8.932-8.844,26.853,26.853,0,0,1,13.355-3.225,28.846,28.846,0,0,1,13.8,3.04,20.773,20.773,0,0,1,8.667,8.66,27.95,27.95,0,0,1,3.007,13.359q0,11.979-6.721,18.7t-18.75,6.726a24.988,24.988,0,0,1-22.11-12.622Zm95.818,21.459H270.476A33.842,33.842,0,0,0,283.4,308.564a42.474,42.474,0,0,0,4.952-20.913q0-12.159-4.864-21a33.639,33.639,0,0,0-13.708-13.634,42.81,42.81,0,0,0-20.7-4.791,39.505,39.505,0,0,0-13,2.3,33.066,33.066,0,0,0-11.85,7.186,25.307,25.307,0,0,0-7.164,12.806h-.708V267.2a95.657,95.657,0,0,1,2.034-20.267,55.969,55.969,0,0,1,6.1-16.4A32.985,32.985,0,0,1,234.4,219.57a23.382,23.382,0,0,1,13.443-3.961q10.434,0,16.362,4.883a27.4,27.4,0,0,1,8.578,13.359l13.09-6.45a46.972,46.972,0,0,0-8.667-14.647,31.431,31.431,0,0,0-12.117-8.292,45.76,45.76,0,0,0-16.361-2.672,39.824,39.824,0,0,0-23.261,7.187q-10.347,7.185-16.361,21.1T203.1,264.437q0,18.24,5.13,32.335t15.211,22.2a35.443,35.443,0,0,0,3.946,2.757H170.828a34.768,34.768,0,0,0,12.9-12.338,35.8,35.8,0,0,0,5.041-18.978,29.082,29.082,0,0,0-1.68-9.857,26.236,26.236,0,0,0-4.865-8.384,24.03,24.03,0,0,0-7.694-5.9,25.076,25.076,0,0,0-10.348-2.394v-.369a23.863,23.863,0,0,0,8.314-3.04,25.805,25.805,0,0,0,6.987-6.172,29.62,29.62,0,0,0,4.864-9.121,37.189,37.189,0,0,0,1.768-11.884,32.157,32.157,0,0,0-3.979-15.846A29.128,29.128,0,0,0,170.2,205.937q-7.961-4.328-20.165-4.331a46.22,46.22,0,0,0-17.777,3.317,39.687,39.687,0,0,0-13.708,9.213,38.606,38.606,0,0,0-8.491,13.634L123.5,234.4a34.079,34.079,0,0,1,9.2-13.726q5.838-5.067,16.981-5.068,10.434,0,16.1,4.975t5.66,14.556q0,11.241-5.483,16.491t-18.4,5.251h-2.741a26.666,26.666,0,0,1-3.1-.185v14.741a44.88,44.88,0,0,1,4.776-.46q2.3-.092,4.245-.093,8.311,0,13.443,2.119a14.474,14.474,0,0,1,7.518,6.541,23.065,23.065,0,0,1,2.388,11.055,23.619,23.619,0,0,1-2.83,11.7,20.464,20.464,0,0,1-8.137,8.014,26.621,26.621,0,0,1-13.089,2.949q-9.2,0-15.3-2.764a24.363,24.363,0,0,1-9.818-7.831,40.046,40.046,0,0,1-5.837-11.884l-14.15,7.555a37.875,37.875,0,0,0,16.185,21.1c1.305.836,2.647,1.6,4.018,2.3H88.124v-118.1H75.742a36.675,36.675,0,0,1-7.075,7.185,88.787,88.787,0,0,1-9.993,6.911,90.674,90.674,0,0,1-10.26,5.342,29.776,29.776,0,0,1-8.048,2.488l3.715,13.451a63.322,63.322,0,0,0,16.273-6.541,63.723,63.723,0,0,0,13.973-10.595q-.177,3.869-.265,7.462t-.088,6.726v85.67H18.425V18.425H321.732Z"/>
      </g>
    </g>
</svg>
