<svg xmlns="http://www.w3.org/2000/svg" width="120mm" height="120mm" viewBox="0 0 340.158 340.158">
  <g id="Zimmernummer">
      <g id="Z-04-429-M">
        <path fill="#D4AF37" stroke="none" d="M337.323,0H2.835A2.836,2.836,0,0,0,0,2.835V337.323a2.836,2.836,0,0,0,2.835,2.835H337.323a2.836,2.836,0,0,0,2.835-2.835V2.835A2.836,2.836,0,0,0,337.323,0ZM86.885,280.65H44.964l30.6-44.773q2.828-4.236,6.192-9.949t5.483-10.319h.354q-.178,4.794-.443,9.766t-.265,9.765Zm234.847,41.082H279.569c.98-.57,1.937-1.175,2.857-1.836q9.99-7.186,15.123-21.1t5.13-34.362q0-18.425-5.13-32.521t-15.212-22.11q-10.083-8.016-24.764-8.016-12.561,0-21.579,5.067a34.112,34.112,0,0,0-13.8,14.188q-4.774,9.12-4.775,21.649,0,11.609,4.952,20.084a34.23,34.23,0,0,0,13.8,13.174,42.7,42.7,0,0,0,20.342,4.7,41.481,41.481,0,0,0,13.177-2.211,31.608,31.608,0,0,0,11.94-7.278,27.353,27.353,0,0,0,7.429-13.358h.708v1.658a149,149,0,0,1-1.5,22.11,57.388,57.388,0,0,1-5.041,17.044,26.115,26.115,0,0,1-9.641,10.87q-6.1,3.78-15.3,3.778-11.322,0-17.776-5.9a33.079,33.079,0,0,1-9.286-15.477l-13.975,7.738q5.129,13.452,15.567,20.452,1.314.882,2.693,1.652H205.926V311.42H165.065q-1.769,0-5.217.093t-6.9.183q-3.45.1-5.394.277v-.184q20.868-14.553,33.076-26.532t17.512-22.94a50.848,50.848,0,0,0,5.306-22.386,42.144,42.144,0,0,0-2.742-15.478,34.392,34.392,0,0,0-7.871-12.068,35.373,35.373,0,0,0-12.293-7.83,44.679,44.679,0,0,0-16.185-2.765q-11.852,0-20.429,4.606a35.52,35.52,0,0,0-13.62,12.714,48.755,48.755,0,0,0-6.633,18.794l12.381,7.739q1.236-13.633,8.491-21.834t19.279-8.2q11.5,0,18.131,6.726t6.633,17.6a41.281,41.281,0,0,1-3.007,15.569A58.837,58.837,0,0,1,175.5,271.254a176.031,176.031,0,0,1-18.838,18.425Q144.9,299.814,127.39,313.263v8.469H101.036V293.363H121.73V280.65H101.036V203.633H83.171L29.93,282.493v10.87H86.885v28.369H18.425V18.425H321.732ZM283.222,241.4a25.9,25.9,0,0,1-3.184,12.991,22.951,22.951,0,0,1-8.933,8.843,26.836,26.836,0,0,1-13.354,3.225q-11.674,0-18.573-6.357t-6.9-17.227q0-12.714,6.545-19.808t18.927-7.093a27.487,27.487,0,0,1,13.354,3.132,22.209,22.209,0,0,1,8.933,8.844A27.2,27.2,0,0,1,283.222,241.4Z"/>
      </g>
    </g>
</svg>
