<svg xmlns="http://www.w3.org/2000/svg" width="120mm" height="120mm" viewBox="0 0 340.158 340.157">
  <g id="Zimmernummer">
      <g id="Z-04-108-R">
        <path fill="#A0552B" stroke="none" d="M337.323,0H2.835A2.836,2.836,0,0,0,0,2.835V337.323a2.834,2.834,0,0,0,2.835,2.834H337.323a2.834,2.834,0,0,0,2.835-2.834V2.835A2.836,2.836,0,0,0,337.323,0ZM122.615,291.522q-3.274-11.056-3.272-27.086t3.272-27.086q3.272-11.054,9.729-16.674a25.111,25.111,0,0,1,31.662,0q6.454,5.622,9.728,16.674t3.273,27.086q0,16.032-3.273,27.086T164.006,308.2a25.111,25.111,0,0,1-31.662,0Q125.885,302.577,122.615,291.522Zm104.536-20.361a41.429,41.429,0,0,1,29.275,0,21.772,21.772,0,0,1,9.639,7.738A21.219,21.219,0,0,1,256.6,310.59a42.4,42.4,0,0,1-29.628,0,21.772,21.772,0,0,1-9.552-31.691A21.7,21.7,0,0,1,227.151,271.161Zm-7.871-35.836q0-9.211,6.1-14.371t16.361-5.161q10.435,0,16.45,5.161t6.014,14.371q0,9.029-6.19,14.187t-16.274,5.158q-10.082,0-16.273-5.158T219.28,235.325Zm102.452,86.407H266.417a33.788,33.788,0,0,0,12.473-10.864,31.785,31.785,0,0,0,5.306-18.426q0-11.423-5.925-19.346A35.355,35.355,0,0,0,262.439,261.3v-.183a27.771,27.771,0,0,0,12.117-10.78,30.993,30.993,0,0,0,4.334-16.49,30.667,30.667,0,0,0-4.6-17.043,30.139,30.139,0,0,0-12.913-10.963,51.527,51.527,0,0,0-39.179,0,30.024,30.024,0,0,0-13,10.963q-4.6,7.1-4.6,17.043a30.416,30.416,0,0,0,4.51,16.676,27.9,27.9,0,0,0,12.117,10.594v.183a34.29,34.29,0,0,0-16.1,11.885q-5.838,8.016-5.837,19.254a31.785,31.785,0,0,0,5.306,18.426,33.624,33.624,0,0,0,12.541,10.864H168.5a39.84,39.84,0,0,0,11.426-10.681q11.761-16.027,11.763-46.615t-11.763-46.615q-11.765-16.032-31.75-16.031-19.812,0-31.662,16.031t-11.851,46.615q0,30.587,11.851,46.615a40.313,40.313,0,0,0,11.452,10.681H91.042v-118.1H78.66a36.7,36.7,0,0,1-7.075,7.186,88.483,88.483,0,0,1-9.994,6.91,90.58,90.58,0,0,1-10.259,5.342,29.751,29.751,0,0,1-8.048,2.488L47,239.01a63.3,63.3,0,0,0,16.272-6.541,63.737,63.737,0,0,0,13.974-10.595q-.178,3.87-.265,7.462t-.088,6.725v85.671H18.426V18.425H321.732Z"/>
      </g>
    </g>
</svg>
