<svg xmlns="http://www.w3.org/2000/svg" width="120mm" height="120mm" viewBox="0 0 340.157 340.157">
  <g id="Zimmernummer">
      <g id="Z-04-541-M">
        <path fill="#D4AF37" stroke="none" d="M337.322,0H2.835A2.834,2.834,0,0,0,0,2.835V337.323a2.834,2.834,0,0,0,2.835,2.834H337.322a2.834,2.834,0,0,0,2.835-2.834V2.835A2.834,2.834,0,0,0,337.322,0ZM187.257,280.65H145.336l30.6-44.773q2.826-4.236,6.19-9.949t5.483-10.319h.354q-.177,4.794-.443,9.766t-.264,9.765Zm134.475,41.082H266.321v-118.1H253.939a36.647,36.647,0,0,1-7.075,7.185,88.606,88.606,0,0,1-9.993,6.911,90.589,90.589,0,0,1-10.26,5.342,29.776,29.776,0,0,1-8.048,2.488l3.715,13.451a65.983,65.983,0,0,0,30.246-17.136q-.177,3.869-.264,7.462t-.089,6.726v85.67H201.407V293.363h20.7V280.65h-20.7V203.633H183.542L130.3,282.493v10.87h56.956v28.369H104.894A35.205,35.205,0,0,0,120.752,303.5a45.5,45.5,0,0,0,3.007-16.951,44.145,44.145,0,0,0-4.6-20.636,33.633,33.633,0,0,0-12.824-13.726A37.251,37.251,0,0,0,86.967,247.3a41.05,41.05,0,0,0-15.83,2.763,30.467,30.467,0,0,0-10.879,7.371H59.9l.354-1.659,4.6-38.324h53.6V203.633H52.829l-6.9,66.884,12.381,2.395a24.084,24.084,0,0,1,6.722-6.817,27.7,27.7,0,0,1,8.755-3.778,44.01,44.01,0,0,1,10.525-1.2,28.114,28.114,0,0,1,13.443,2.948,19.721,19.721,0,0,1,8.4,8.752q2.917,5.8,2.918,14.464a28.521,28.521,0,0,1-3.183,13.911,22.036,22.036,0,0,1-8.933,8.937,28.633,28.633,0,0,1-13.885,3.132q-11.5,0-17.423-5.989A36.205,36.205,0,0,1,56.9,291.705L43.1,299.26q5.129,13.085,14.592,20.452a30.485,30.485,0,0,0,2.951,2.02H18.425V18.425H321.732Z"/>
      </g>
    </g>
</svg>
