<svg xmlns="http://www.w3.org/2000/svg" width="120mm" height="120mm" viewBox="0 0 340.158 340.158">
  <g id="Zimmernummer">
      <g id="Z-04-059">
        <path fill="#000000" stroke="none" d="M337.323,0H2.835A2.836,2.836,0,0,0,0,2.835V337.323a2.836,2.836,0,0,0,2.835,2.835H337.323a2.836,2.836,0,0,0,2.835-2.835V2.835A2.836,2.836,0,0,0,337.323,0ZM321.732,321.732H277.125c1.021-.57,2.018-1.175,2.976-1.836q10.407-7.186,15.753-21.1t5.344-34.362q0-18.425-5.344-32.521t-15.845-22.11q-10.5-8.016-25.8-8.016-13.084,0-22.478,5.067a34.8,34.8,0,0,0-14.372,14.188q-4.976,9.12-4.975,21.649,0,11.609,5.159,20.084a35.073,35.073,0,0,0,14.372,13.174,46,46,0,0,0,21.189,4.7,44.837,44.837,0,0,0,13.726-2.211,33.2,33.2,0,0,0,12.438-7.278A27.075,27.075,0,0,0,287.01,257.8h.738v1.658a143.1,143.1,0,0,1-1.567,22.11,55.678,55.678,0,0,1-5.251,17.044,26.5,26.5,0,0,1-10.042,10.87q-6.357,3.78-15.937,3.778-11.794,0-18.518-5.9a32.876,32.876,0,0,1-9.673-15.477L212.2,299.628q5.341,13.452,16.214,20.452,1.369.882,2.806,1.652H177.446a37.409,37.409,0,0,0,7.676-5.429,35.744,35.744,0,0,0,8.844-12.806,43.9,43.9,0,0,0,3.132-16.951,42.7,42.7,0,0,0-4.79-20.636,34.232,34.232,0,0,0-13.359-13.726q-8.568-4.881-20.175-4.883a44.353,44.353,0,0,0-16.491,2.763,31.829,31.829,0,0,0-11.331,7.371h-.369l.369-1.659,4.79-38.324h55.829V203.633H123.213l-7.186,66.884,12.9,2.395a24.6,24.6,0,0,1,7-6.817,29.494,29.494,0,0,1,9.121-3.778,47.658,47.658,0,0,1,10.963-1.2,30.3,30.3,0,0,1,14,2.948,20.106,20.106,0,0,1,8.752,8.752q3.041,5.8,3.04,14.464a27.588,27.588,0,0,1-3.316,13.911,22.517,22.517,0,0,1-9.305,8.937,30.85,30.85,0,0,1-14.464,3.132q-11.979,0-18.149-5.989a35.874,35.874,0,0,1-9.12-15.569l-14.372,7.555q5.342,13.085,15.2,20.452a31.937,31.937,0,0,0,3.074,2.02H18.425V18.425H321.732ZM280.93,241.4a25.077,25.077,0,0,1-3.316,12.991,23.471,23.471,0,0,1-9.3,8.843,28.889,28.889,0,0,1-13.911,3.225q-12.16,0-19.347-6.357t-7.185-17.227q0-12.714,6.817-19.808t19.715-7.093a29.6,29.6,0,0,1,13.911,3.132,22.714,22.714,0,0,1,9.3,8.844A26.317,26.317,0,0,1,280.93,241.4Z"/>
      </g>
    </g>
</svg>
