<svg xmlns="http://www.w3.org/2000/svg" width="120mm" height="120mm" viewBox="0 0 340.158 340.157">
  <g id="Zimmernummer">
      <g id="Z-04-111-E">
        <path fill="#A09f9d" stroke="none" d="M337.323,0H2.835A2.834,2.834,0,0,0,0,2.835V337.323a2.834,2.834,0,0,0,2.835,2.834H337.323a2.834,2.834,0,0,0,2.835-2.834V2.835A2.834,2.834,0,0,0,337.323,0ZM321.732,321.732H241.825v-118.1H229.444a36.683,36.683,0,0,1-7.076,7.185,88.7,88.7,0,0,1-9.993,6.911,90.674,90.674,0,0,1-10.26,5.342,29.776,29.776,0,0,1-8.048,2.488l3.715,13.451a65.993,65.993,0,0,0,30.247-17.136q-.178,3.869-.265,7.462t-.089,6.726v85.67H174.61v-118.1H162.229a36.683,36.683,0,0,1-7.076,7.185,88.7,88.7,0,0,1-9.993,6.911,90.505,90.505,0,0,1-10.26,5.342,29.782,29.782,0,0,1-8.047,2.488l3.714,13.451a65.983,65.983,0,0,0,30.246-17.136q-.177,3.869-.265,7.462t-.088,6.726v85.67H107.4v-118.1H95.014a36.712,36.712,0,0,1-7.076,7.185,88.619,88.619,0,0,1-9.994,6.911,90.571,90.571,0,0,1-10.258,5.342,29.8,29.8,0,0,1-8.048,2.488l3.714,13.451A65.993,65.993,0,0,0,93.6,221.874q-.178,3.869-.266,7.462t-.088,6.726v85.67H18.425V18.425H321.732Z"/>
      </g>
    </g>
</svg>
