<svg xmlns="http://www.w3.org/2000/svg" width="120mm" height="120mm" viewBox="0 0 340.158 340.157">
  <g id="Zimmernummer">
      <g id="Z-04-128">
        <path fill="#000000" stroke="none" d="M337.323,0H2.835A2.836,2.836,0,0,0,0,2.835V337.323a2.834,2.834,0,0,0,2.835,2.834H337.323a2.834,2.834,0,0,0,2.835-2.834V2.835A2.836,2.836,0,0,0,337.323,0ZM230.777,271.161a41.426,41.426,0,0,1,29.274,0,21.775,21.775,0,0,1,9.64,7.738,21.22,21.22,0,0,1-9.463,31.691,42.4,42.4,0,0,1-29.628,0,21.772,21.772,0,0,1-9.551-31.691A21.7,21.7,0,0,1,230.777,271.161Zm-7.871-35.836q0-9.211,6.1-14.371t16.362-5.161q10.434,0,16.45,5.161t6.014,14.371q0,9.029-6.191,14.187T245.37,254.67q-10.083,0-16.273-5.158T222.906,235.325Zm98.826,86.407h-51.69a33.772,33.772,0,0,0,12.473-10.864,31.777,31.777,0,0,0,5.306-18.426q0-11.423-5.925-19.346A35.352,35.352,0,0,0,266.065,261.3v-.183a27.776,27.776,0,0,0,12.117-10.78,31,31,0,0,0,4.333-16.49,30.659,30.659,0,0,0-4.6-17.043A30.142,30.142,0,0,0,265,205.844a51.53,51.53,0,0,0-39.18,0,30.022,30.022,0,0,0-13,10.963q-4.6,7.1-4.6,17.043a30.408,30.408,0,0,0,4.51,16.676,27.894,27.894,0,0,0,12.117,10.594v.183a34.288,34.288,0,0,0-16.1,11.885q-5.837,8.016-5.837,19.254a31.778,31.778,0,0,0,5.307,18.426,33.629,33.629,0,0,0,12.54,10.864H188.238V311.42h-40.86q-1.77,0-5.217.092t-6.9.184q-3.449.1-5.4.277v-.183q20.87-14.556,33.077-26.534t17.512-22.939a50.869,50.869,0,0,0,5.306-22.387,42.157,42.157,0,0,0-2.741-15.476,34.417,34.417,0,0,0-7.872-12.069,35.383,35.383,0,0,0-12.294-7.83,44.649,44.649,0,0,0-16.184-2.765q-11.851,0-20.43,4.607a35.524,35.524,0,0,0-13.62,12.713,48.8,48.8,0,0,0-6.633,18.795l12.382,7.738q1.234-13.635,8.49-21.834t19.281-8.2q11.495,0,18.13,6.724t6.633,17.6A41.3,41.3,0,0,1,167.9,255.5a58.808,58.808,0,0,1-10.083,15.754,175.916,175.916,0,0,1-18.837,18.424q-11.766,10.137-29.274,23.584v8.47H87.416v-118.1H75.034a36.733,36.733,0,0,1-7.075,7.186,88.574,88.574,0,0,1-9.994,6.91,90.665,90.665,0,0,1-10.259,5.342,29.761,29.761,0,0,1-8.048,2.488l3.714,13.451a63.314,63.314,0,0,0,16.274-6.541,63.754,63.754,0,0,0,13.973-10.595q-.178,3.87-.265,7.462t-.089,6.725v85.671H18.425V18.425H321.732Z"/>
      </g>
    </g>
</svg>
