<svg xmlns="http://www.w3.org/2000/svg" width="120mm" height="120mm" viewBox="0 0 340.158 340.158">
  <g id="Zimmernummer">
      <g id="Z-04-322-M">
        <path fill="#D4AF37" stroke="none" d="M337.323,0H2.835A2.836,2.836,0,0,0,0,2.835V337.323a2.836,2.836,0,0,0,2.835,2.835H337.323a2.836,2.836,0,0,0,2.835-2.835V2.835A2.836,2.836,0,0,0,337.323,0ZM321.732,321.732H302.508V311.42h-40.86q-1.77,0-5.218.093t-6.9.184q-3.449.094-5.394.276v-.183q20.87-14.555,33.077-26.533t17.511-22.939a50.855,50.855,0,0,0,5.306-22.387,42.163,42.163,0,0,0-2.741-15.477,34.413,34.413,0,0,0-7.872-12.069,35.379,35.379,0,0,0-12.293-7.83,44.676,44.676,0,0,0-16.185-2.764q-11.852,0-20.429,4.606a35.519,35.519,0,0,0-13.62,12.714,48.782,48.782,0,0,0-6.633,18.794l12.382,7.738q1.235-13.633,8.49-21.834t19.28-8.2q11.5,0,18.13,6.725t6.633,17.6a41.277,41.277,0,0,1-3.007,15.569,58.812,58.812,0,0,1-10.082,15.754,175.935,175.935,0,0,1-18.838,18.425q-11.766,10.135-29.274,23.584v8.469H208.23V311.42H167.371q-1.77,0-5.218.093t-6.9.184q-3.45.094-5.395.276v-.183q20.869-14.555,33.077-26.533t17.511-22.939a50.87,50.87,0,0,0,5.307-22.387,42.142,42.142,0,0,0-2.742-15.477,34.4,34.4,0,0,0-7.871-12.069,35.4,35.4,0,0,0-12.293-7.83,44.684,44.684,0,0,0-16.185-2.764q-11.853,0-20.43,4.606a35.527,35.527,0,0,0-13.62,12.714,48.782,48.782,0,0,0-6.633,18.794l12.381,7.738q1.236-13.633,8.491-21.834t19.28-8.2q11.5,0,18.131,6.725t6.632,17.6A41.276,41.276,0,0,1,187.89,255.5a58.861,58.861,0,0,1-10.082,15.754,175.956,175.956,0,0,1-18.839,18.425Q147.2,299.814,129.7,313.263v8.469H95.836a34.757,34.757,0,0,0,12.9-12.338,35.789,35.789,0,0,0,5.041-18.977,29.088,29.088,0,0,0-1.68-9.858,26.236,26.236,0,0,0-4.865-8.384,24.013,24.013,0,0,0-7.694-5.9,25.056,25.056,0,0,0-10.348-2.395v-.369a23.843,23.843,0,0,0,8.314-3.04,25.774,25.774,0,0,0,6.987-6.172,29.6,29.6,0,0,0,4.864-9.121,37.16,37.16,0,0,0,1.769-11.884,32.157,32.157,0,0,0-3.98-15.845,29.136,29.136,0,0,0-11.939-11.516q-7.961-4.328-20.165-4.33a46.219,46.219,0,0,0-17.776,3.316,39.7,39.7,0,0,0-13.709,9.213,38.607,38.607,0,0,0-8.49,13.634L48.508,234.4a34.066,34.066,0,0,1,9.2-13.727q5.837-5.067,16.981-5.067,10.434,0,16.1,4.974t5.66,14.556q0,11.241-5.484,16.491t-18.4,5.251H69.822a26.643,26.643,0,0,1-3.095-.184v14.74a45.39,45.39,0,0,1,4.775-.46q2.3-.092,4.246-.093,8.311,0,13.442,2.119a14.474,14.474,0,0,1,7.518,6.541A23.068,23.068,0,0,1,99.1,290.6a23.606,23.606,0,0,1-2.83,11.7,20.466,20.466,0,0,1-8.137,8.015,26.615,26.615,0,0,1-13.089,2.948q-9.2,0-15.3-2.763a24.356,24.356,0,0,1-9.817-7.832,40.028,40.028,0,0,1-5.837-11.883l-14.151,7.554a37.879,37.879,0,0,0,16.185,21.1c1.306.836,2.647,1.6,4.018,2.3H18.425V18.425H321.732Z"/>
      </g>
    </g>
</svg>
