<svg xmlns="http://www.w3.org/2000/svg" width="120mm" height="120mm" viewBox="0 0 340.158 340.158">
  <g id="Zimmernummer">
      <g id="Z-04-209-M">
        <path fill="#D4AF37" stroke="none" d="M337.323,0H2.835A2.836,2.836,0,0,0,0,2.835V337.323a2.836,2.836,0,0,0,2.835,2.835H337.323a2.836,2.836,0,0,0,2.835-2.835V2.835A2.836,2.836,0,0,0,337.323,0ZM141.368,291.521q-3.274-11.055-3.272-27.084t3.272-27.086q3.272-11.055,9.729-16.674a25.107,25.107,0,0,1,31.662,0q6.455,5.622,9.729,16.674t3.272,27.086q0,16.029-3.272,27.084T182.759,308.2a25.111,25.111,0,0,1-31.662,0Q144.638,302.577,141.368,291.521Zm180.364,30.211H277.01c.979-.57,1.936-1.175,2.856-1.836q9.991-7.186,15.124-21.1t5.129-34.362q0-18.425-5.129-32.521t-15.212-22.11q-10.083-8.016-24.764-8.016-12.561,0-21.58,5.067a34.124,34.124,0,0,0-13.8,14.188q-4.774,9.12-4.775,21.649,0,11.609,4.953,20.084a34.234,34.234,0,0,0,13.8,13.174,42.7,42.7,0,0,0,20.342,4.7,41.491,41.491,0,0,0,13.178-2.211,31.612,31.612,0,0,0,11.939-7.278A27.345,27.345,0,0,0,286.5,257.8h.708v1.658a149,149,0,0,1-1.5,22.11,57.388,57.388,0,0,1-5.041,17.044,26.106,26.106,0,0,1-9.64,10.87q-6.1,3.78-15.3,3.778-11.32,0-17.776-5.9a33.1,33.1,0,0,1-9.287-15.477l-13.973,7.738q5.129,13.452,15.566,20.452,1.314.882,2.693,1.652H187.251a39.84,39.84,0,0,0,11.427-10.68q11.762-16.031,11.763-46.615T198.678,217.82q-11.764-16.029-31.75-16.03-19.812,0-31.662,16.03t-11.851,46.617q0,30.585,11.851,46.615a40.313,40.313,0,0,0,11.453,10.68H116.341V311.42H75.481q-1.77,0-5.218.093t-6.9.183q-3.449.1-5.4.277v-.184q20.869-14.553,33.077-26.532t17.511-22.94a50.849,50.849,0,0,0,5.307-22.386,42.144,42.144,0,0,0-2.742-15.478,34.406,34.406,0,0,0-7.871-12.068,35.383,35.383,0,0,0-12.293-7.83,44.679,44.679,0,0,0-16.185-2.765q-11.853,0-20.43,4.606a35.534,35.534,0,0,0-13.62,12.714A48.788,48.788,0,0,0,34.091,237.9l12.382,7.739q1.234-13.633,8.49-21.834t19.28-8.2q11.5,0,18.131,6.726t6.633,17.6A41.3,41.3,0,0,1,96,255.5a58.818,58.818,0,0,1-10.083,15.754,176.031,176.031,0,0,1-18.838,18.425q-11.764,10.135-29.274,23.584v8.469H18.425V18.425H321.732ZM280.662,241.4a25.9,25.9,0,0,1-3.184,12.991,22.955,22.955,0,0,1-8.932,8.843,26.837,26.837,0,0,1-13.355,3.225q-11.675,0-18.573-6.357t-6.9-17.227q0-12.714,6.544-19.808t18.927-7.093a27.488,27.488,0,0,1,13.355,3.132,22.213,22.213,0,0,1,8.932,8.844A27.2,27.2,0,0,1,280.662,241.4Z"/>
      </g>
    </g>
</svg>
