<svg xmlns="http://www.w3.org/2000/svg" width="120mm" height="120mm" viewBox="0 0 340.158 340.158">
  <g id="Zimmernummer">
      <g id="Z-04-539-R">
        <path fill="#A0552B" stroke="none" d="M337.323,0H2.835A2.836,2.836,0,0,0,0,2.835V337.323a2.836,2.836,0,0,0,2.835,2.835H337.323a2.836,2.836,0,0,0,2.835-2.835V2.835A2.836,2.836,0,0,0,337.323,0ZM321.732,321.732H278.774c.979-.57,1.936-1.175,2.856-1.836q9.991-7.186,15.123-21.1t5.13-34.362q0-18.425-5.13-32.521t-15.211-22.11q-10.083-8.016-24.764-8.016-12.563,0-21.58,5.067a34.124,34.124,0,0,0-13.8,14.188q-4.775,9.12-4.775,21.649,0,11.609,4.952,20.084a34.242,34.242,0,0,0,13.8,13.174,42.7,42.7,0,0,0,20.342,4.7,41.487,41.487,0,0,0,13.178-2.211,31.612,31.612,0,0,0,11.939-7.278,27.345,27.345,0,0,0,7.429-13.358h.708v1.658a148.866,148.866,0,0,1-1.5,22.11,57.388,57.388,0,0,1-5.041,17.044,26.113,26.113,0,0,1-9.64,10.87q-6.1,3.78-15.3,3.778-11.321,0-17.776-5.9a33.087,33.087,0,0,1-9.286-15.477l-13.974,7.738q5.128,13.452,15.566,20.452,1.314.882,2.693,1.652h-47.7a34.755,34.755,0,0,0,12.9-12.338,35.8,35.8,0,0,0,5.041-18.978,29.058,29.058,0,0,0-1.681-9.857,26.234,26.234,0,0,0-4.864-8.384,24.03,24.03,0,0,0-7.694-5.9,25.072,25.072,0,0,0-10.348-2.394v-.369a23.87,23.87,0,0,0,8.314-3.04,25.79,25.79,0,0,0,6.987-6.172,29.6,29.6,0,0,0,4.864-9.121A37.188,37.188,0,0,0,202.3,233.3a32.158,32.158,0,0,0-3.98-15.846,29.125,29.125,0,0,0-11.94-11.515q-7.959-4.328-20.164-4.331a46.224,46.224,0,0,0-17.777,3.317,39.692,39.692,0,0,0-13.709,9.213,38.589,38.589,0,0,0-8.49,13.634l13.444,6.633a34.059,34.059,0,0,1,9.2-13.726q5.835-5.067,16.98-5.068,10.434,0,16.1,4.975t5.66,14.556q0,11.241-5.483,16.491t-18.4,5.251H161a26.666,26.666,0,0,1-3.1-.185v14.741a44.93,44.93,0,0,1,4.776-.46q2.3-.092,4.245-.093,8.313,0,13.443,2.119a14.474,14.474,0,0,1,7.518,6.541,23.066,23.066,0,0,1,2.387,11.055,23.609,23.609,0,0,1-2.83,11.7,20.449,20.449,0,0,1-8.136,8.014,26.618,26.618,0,0,1-13.089,2.949q-9.2,0-15.3-2.764a24.364,24.364,0,0,1-9.816-7.831,40.022,40.022,0,0,1-5.837-11.884l-14.151,7.555a37.875,37.875,0,0,0,16.185,21.1c1.306.836,2.648,1.6,4.019,2.3H95.88A35.205,35.205,0,0,0,111.738,303.5a45.5,45.5,0,0,0,3.008-16.951,44.133,44.133,0,0,0-4.6-20.636,33.618,33.618,0,0,0-12.823-13.726A37.248,37.248,0,0,0,77.954,247.3a41.058,41.058,0,0,0-15.831,2.763,30.472,30.472,0,0,0-10.878,7.371h-.353l.353-1.659,4.6-38.324h53.595V203.633H43.816l-6.9,66.884L49.3,272.912a24.094,24.094,0,0,1,6.721-6.817,27.7,27.7,0,0,1,8.755-3.778,44.01,44.01,0,0,1,10.525-1.2,28.114,28.114,0,0,1,13.443,2.948,19.727,19.727,0,0,1,8.4,8.752q2.919,5.8,2.918,14.464a28.521,28.521,0,0,1-3.183,13.911,22.042,22.042,0,0,1-8.933,8.937,28.637,28.637,0,0,1-13.886,3.132q-11.5,0-17.422-5.989a36.2,36.2,0,0,1-8.755-15.569l-13.8,7.555q5.128,13.085,14.593,20.452a30.485,30.485,0,0,0,2.951,2.02H18.425V18.425H321.732ZM282.426,241.4a25.9,25.9,0,0,1-3.184,12.991,22.955,22.955,0,0,1-8.932,8.843,26.837,26.837,0,0,1-13.355,3.225q-11.674,0-18.573-6.357t-6.9-17.227q0-12.714,6.544-19.808t18.927-7.093a27.488,27.488,0,0,1,13.355,3.132,22.213,22.213,0,0,1,8.932,8.844A27.2,27.2,0,0,1,282.426,241.4Z"/>
      </g>
    </g>
</svg>
