<svg xmlns="http://www.w3.org/2000/svg" width="120mm" height="120mm" viewBox="0 0 340.158 340.157">
  <g id="Zimmernummer">
      <g id="Z-04-340-R">
        <path fill="#A0552B" stroke="none" d="M337.323,0H2.835A2.836,2.836,0,0,0,0,2.835V337.323a2.834,2.834,0,0,0,2.835,2.834H337.323a2.834,2.834,0,0,0,2.835-2.834V2.835A2.836,2.836,0,0,0,337.323,0ZM175.412,280.65h-41.92l30.6-44.773q2.827-4.236,6.191-9.949t5.483-10.319h.354q-.178,4.794-.443,9.766t-.265,9.765Zm60.4,10.871q-3.274-11.055-3.273-27.084t3.273-27.086q3.27-11.055,9.728-16.674a25.107,25.107,0,0,1,31.662,0q6.456,5.622,9.729,16.674t3.272,27.086q0,16.029-3.272,27.084T277.206,308.2a25.111,25.111,0,0,1-31.662,0Q239.087,302.577,235.816,291.521Zm85.916,30.211H281.7a39.824,39.824,0,0,0,11.426-10.68q11.762-16.031,11.763-46.615T293.125,217.82q-11.763-16.029-31.75-16.03-19.812,0-31.662,16.03t-11.85,46.617q0,30.585,11.85,46.615a40.313,40.313,0,0,0,11.453,10.68h-51.6V293.363h20.7V280.65h-20.7V203.633H171.7l-53.242,78.86v10.87h56.956v28.369H93.44a34.752,34.752,0,0,0,12.9-12.338,35.8,35.8,0,0,0,5.041-18.978,29.057,29.057,0,0,0-1.68-9.857,26.255,26.255,0,0,0-4.865-8.384,24.019,24.019,0,0,0-7.694-5.9A25.072,25.072,0,0,0,86.8,263.884v-.369a23.863,23.863,0,0,0,8.314-3.04A25.776,25.776,0,0,0,102.1,254.3a29.6,29.6,0,0,0,4.864-9.121,37.16,37.16,0,0,0,1.769-11.884,32.147,32.147,0,0,0-3.98-15.846A29.122,29.122,0,0,0,92.81,205.937q-7.96-4.328-20.165-4.331a46.219,46.219,0,0,0-17.776,3.317,39.669,39.669,0,0,0-13.708,9.213A38.578,38.578,0,0,0,32.67,227.77L46.113,234.4a34.069,34.069,0,0,1,9.2-13.726q5.838-5.067,16.98-5.068,10.434,0,16.1,4.975t5.66,14.556q0,11.241-5.483,16.491t-18.4,5.251H67.427a26.679,26.679,0,0,1-3.1-.185v14.741a44.923,44.923,0,0,1,4.777-.46q2.3-.092,4.245-.093,8.312,0,13.442,2.119a14.474,14.474,0,0,1,7.518,6.541A23.065,23.065,0,0,1,96.7,290.6a23.609,23.609,0,0,1-2.831,11.7,20.455,20.455,0,0,1-8.136,8.014,26.625,26.625,0,0,1-13.09,2.949q-9.2,0-15.3-2.764a24.36,24.36,0,0,1-9.817-7.831,40.022,40.022,0,0,1-5.837-11.884L27.54,298.339a37.875,37.875,0,0,0,16.185,21.1c1.306.836,2.648,1.6,4.019,2.3H18.425V18.425H321.732Z"/>
      </g>
    </g>
</svg>
