<svg xmlns="http://www.w3.org/2000/svg" width="120mm" height="120mm" viewBox="0 0 340.158 340.157">
  <g id="Zimmernummer">
      <g id="Z-04-436-E">
        <path fill="#A09f9d" stroke="none" d="M337.323,0H2.835A2.836,2.836,0,0,0,0,2.835V337.323a2.834,2.834,0,0,0,2.835,2.834H337.323a2.834,2.834,0,0,0,2.835-2.834V2.835A2.836,2.836,0,0,0,337.323,0ZM85.913,280.65H43.991l30.6-44.773q2.829-4.236,6.191-9.949t5.484-10.319h.353q-.178,4.794-.442,9.766t-.265,9.765ZM241.92,300.273a25.081,25.081,0,0,1-3.36-12.805,25.9,25.9,0,0,1,3.183-12.99,22.96,22.96,0,0,1,8.933-8.844,26.846,26.846,0,0,1,13.354-3.225,28.849,28.849,0,0,1,13.8,3.04,20.779,20.779,0,0,1,8.667,8.66,27.95,27.95,0,0,1,3.007,13.359q0,11.979-6.722,18.7T264.03,312.9a24.988,24.988,0,0,1-22.11-12.622Zm79.812,21.459H286.483a33.844,33.844,0,0,0,12.923-13.168,42.463,42.463,0,0,0,4.953-20.913q0-12.159-4.864-21a33.635,33.635,0,0,0-13.709-13.634,42.8,42.8,0,0,0-20.694-4.791,39.5,39.5,0,0,0-13,2.3,33.083,33.083,0,0,0-11.852,7.186,25.313,25.313,0,0,0-7.163,12.806h-.708V267.2a95.657,95.657,0,0,1,2.034-20.267,56,56,0,0,1,6.1-16.4,32.985,32.985,0,0,1,9.905-10.964,23.38,23.38,0,0,1,13.444-3.961q10.434,0,16.361,4.883a27.419,27.419,0,0,1,8.579,13.359l13.089-6.45a46.953,46.953,0,0,0-8.667-14.647,31.435,31.435,0,0,0-12.116-8.292,45.776,45.776,0,0,0-16.363-2.672,39.818,39.818,0,0,0-23.259,7.187q-10.349,7.185-16.362,21.1T219.1,264.437q0,18.24,5.128,32.335t15.212,22.2a35.629,35.629,0,0,0,3.946,2.757H190.371a34.753,34.753,0,0,0,12.9-12.338,35.8,35.8,0,0,0,5.041-18.978,29.057,29.057,0,0,0-1.68-9.857,26.234,26.234,0,0,0-4.864-8.384,24.045,24.045,0,0,0-7.695-5.9,25.071,25.071,0,0,0-10.347-2.394v-.369a23.865,23.865,0,0,0,8.313-3.04,25.776,25.776,0,0,0,6.987-6.172,29.622,29.622,0,0,0,4.865-9.121A37.189,37.189,0,0,0,205.66,233.3a32.157,32.157,0,0,0-3.979-15.846,29.131,29.131,0,0,0-11.94-11.515q-7.959-4.328-20.165-4.331a46.219,46.219,0,0,0-17.776,3.317,39.678,39.678,0,0,0-13.708,9.213A38.578,38.578,0,0,0,129.6,227.77l13.443,6.633a34.079,34.079,0,0,1,9.2-13.726q5.838-5.067,16.981-5.068,10.434,0,16.1,4.975t5.66,14.556q0,11.241-5.483,16.491t-18.4,5.251h-2.742a26.649,26.649,0,0,1-3.095-.185v14.741a44.88,44.88,0,0,1,4.776-.46q2.3-.092,4.245-.093,8.311,0,13.443,2.119a14.472,14.472,0,0,1,7.517,6.541,23.065,23.065,0,0,1,2.388,11.055,23.6,23.6,0,0,1-2.83,11.7,20.455,20.455,0,0,1-8.136,8.014,26.622,26.622,0,0,1-13.09,2.949q-9.2,0-15.3-2.764a24.367,24.367,0,0,1-9.817-7.831,40.022,40.022,0,0,1-5.837-11.884l-14.15,7.555a37.873,37.873,0,0,0,16.184,21.1c1.306.836,2.648,1.6,4.019,2.3H100.063V293.363h20.7V280.65h-20.7V203.633H82.2l-53.241,78.86v10.87H85.913v28.369H18.425V18.425H321.732Z"/>
      </g>
    </g>
</svg>
