<svg xmlns="http://www.w3.org/2000/svg" width="120mm" height="120mm" viewBox="0 0 340.158 340.158">
  <g id="Zimmernummer">
      <g id="Z-04-647">
        <path fill="#000000" stroke="none" d="M337.323,0H2.835A2.836,2.836,0,0,0,0,2.835V337.323a2.836,2.836,0,0,0,2.835,2.835H337.323a2.836,2.836,0,0,0,2.835-2.835V2.835A2.836,2.836,0,0,0,337.323,0ZM60.975,300.274a25.077,25.077,0,0,1-3.362-12.806,25.9,25.9,0,0,1,3.185-12.99,22.971,22.971,0,0,1,8.932-8.844,26.863,26.863,0,0,1,13.355-3.224,28.84,28.84,0,0,1,13.8,3.04,20.779,20.779,0,0,1,8.667,8.66,27.946,27.946,0,0,1,3.007,13.358q0,11.98-6.722,18.7T83.085,312.9a24.985,24.985,0,0,1-22.11-12.621ZM190.1,280.651H148.175l30.6-44.774q2.827-4.236,6.191-9.949t5.483-10.318h.355q-.179,4.792-.443,9.765t-.265,9.765Zm131.636,41.081H267.083a171.712,171.712,0,0,1,4.2-35.554,139.235,139.235,0,0,1,13.531-35.469,173.35,173.35,0,0,1,23.968-33.256v-13.82H222.817v13.82H293.4a164.563,164.563,0,0,0-21.233,30.033,156.082,156.082,0,0,0-14.77,37.679,165.513,165.513,0,0,0-4.812,36.567h-48.34V293.364h20.695V280.651H204.246V203.633H186.381L133.14,282.494v10.87H190.1v28.368H105.538a33.848,33.848,0,0,0,12.923-13.167,42.466,42.466,0,0,0,4.953-20.913q0-12.16-4.864-21a33.638,33.638,0,0,0-13.709-13.635,42.817,42.817,0,0,0-20.695-4.791,39.488,39.488,0,0,0-13,2.3,33.072,33.072,0,0,0-11.852,7.185,25.318,25.318,0,0,0-7.164,12.806h-.707V267.2a95.673,95.673,0,0,1,2.034-20.268,55.991,55.991,0,0,1,6.1-16.4,32.965,32.965,0,0,1,9.905-10.964,23.37,23.37,0,0,1,13.443-3.961q10.434,0,16.362,4.883a27.412,27.412,0,0,1,8.578,13.358l13.09-6.449a46.985,46.985,0,0,0-8.667-14.648,31.438,31.438,0,0,0-12.118-8.292,45.757,45.757,0,0,0-16.361-2.671,39.823,39.823,0,0,0-23.26,7.186q-10.347,7.185-16.361,21.1t-6.015,34.363q0,18.24,5.13,32.336t15.212,22.2a35.524,35.524,0,0,0,3.945,2.757H18.425V18.425H321.732Z"/>
      </g>
    </g>
</svg>
