<svg xmlns="http://www.w3.org/2000/svg" width="120mm" height="120mm" viewBox="0 0 340.158 340.158">
  <g id="Zimmernummer">
      <g id="Z-04-137-R">
        <path fill="#A0552B" stroke="none" d="M337.323,0H2.835A2.836,2.836,0,0,0,0,2.835V337.323a2.836,2.836,0,0,0,2.835,2.835H337.323a2.836,2.836,0,0,0,2.835-2.835V2.835A2.836,2.836,0,0,0,337.323,0ZM321.732,321.732H246.213a171.645,171.645,0,0,1,4.2-35.554,139.2,139.2,0,0,1,13.532-35.469,173.3,173.3,0,0,1,23.967-33.256v-13.82H201.947v13.82h70.584A164.471,164.471,0,0,0,251.3,247.486a156.082,156.082,0,0,0-14.77,37.679,165.513,165.513,0,0,0-4.812,36.567h-50.54a34.757,34.757,0,0,0,12.9-12.338,35.789,35.789,0,0,0,5.041-18.977,29.088,29.088,0,0,0-1.68-9.858,26.234,26.234,0,0,0-4.864-8.384,24.024,24.024,0,0,0-7.694-5.9,25.064,25.064,0,0,0-10.348-2.395v-.369a23.858,23.858,0,0,0,8.314-3.04,25.77,25.77,0,0,0,6.986-6.172,29.622,29.622,0,0,0,4.865-9.121,37.189,37.189,0,0,0,1.768-11.884,32.167,32.167,0,0,0-3.979-15.845,29.145,29.145,0,0,0-11.94-11.516q-7.959-4.328-20.165-4.33a46.219,46.219,0,0,0-17.776,3.316,39.705,39.705,0,0,0-13.709,9.213,38.607,38.607,0,0,0-8.49,13.634l13.443,6.634a34.076,34.076,0,0,1,9.2-13.727q5.837-5.067,16.981-5.067,10.434,0,16.1,4.974t5.66,14.556q0,11.241-5.483,16.491t-18.4,5.251h-2.742a26.643,26.643,0,0,1-3.095-.184v14.74a45.408,45.408,0,0,1,4.776-.46q2.3-.092,4.245-.093,8.311,0,13.443,2.119a14.482,14.482,0,0,1,7.518,6.541,23.08,23.08,0,0,1,2.387,11.055,23.606,23.606,0,0,1-2.83,11.7,20.464,20.464,0,0,1-8.136,8.015,26.622,26.622,0,0,1-13.09,2.948q-9.2,0-15.3-2.763a24.369,24.369,0,0,1-9.817-7.832,40.028,40.028,0,0,1-5.837-11.883l-14.15,7.554a37.873,37.873,0,0,0,16.184,21.1c1.306.836,2.647,1.6,4.018,2.3H98.471v-118.1H86.089a36.706,36.706,0,0,1-7.075,7.186,88.664,88.664,0,0,1-9.994,6.91,90.6,90.6,0,0,1-10.259,5.343,29.753,29.753,0,0,1-8.048,2.487l3.714,13.451a66,66,0,0,0,30.247-17.135q-.178,3.869-.265,7.461t-.088,6.726v85.67h-65.9V18.425H321.732Z"/>
      </g>
    </g>
</svg>
