<svg xmlns="http://www.w3.org/2000/svg" width="120mm" height="120mm" viewBox="0 0 340.158 340.157">
  <g id="Zimmernummer">
      <g id="Z-04-030-E">
        <path fill="#A09f9d" stroke="none" d="M337.323,0H2.835A2.836,2.836,0,0,0,0,2.835V337.323a2.834,2.834,0,0,0,2.835,2.834H337.323a2.834,2.834,0,0,0,2.835-2.834V2.835A2.836,2.836,0,0,0,337.323,0ZM229.247,291.521q-3.413-11.055-3.409-27.084t3.409-27.086q3.406-11.055,10.133-16.674a27,27,0,0,1,32.981,0q6.725,5.622,10.134,16.674t3.409,27.086q0,16.029-3.409,27.084T272.361,308.2a27.007,27.007,0,0,1-32.981,0Q232.653,302.577,229.247,291.521Zm92.485,30.211H277.041a40.884,40.884,0,0,0,11.9-10.68Q301.2,295.022,301.2,264.437T288.944,217.82q-12.257-16.029-33.073-16.03-20.639,0-32.981,16.03t-12.345,46.617q0,30.585,12.345,46.615a41.381,41.381,0,0,0,11.929,10.68H176.932a35.607,35.607,0,0,0,13.439-12.338,34.706,34.706,0,0,0,5.251-18.978,28.051,28.051,0,0,0-1.75-9.857,26.021,26.021,0,0,0-5.067-8.384,24.952,24.952,0,0,0-8.015-5.9,27.023,27.023,0,0,0-10.779-2.394v-.369a25.532,25.532,0,0,0,8.66-3.04,26.57,26.57,0,0,0,7.278-6.172,29.272,29.272,0,0,0,5.067-9.121,35.823,35.823,0,0,0,1.842-11.884,31.141,31.141,0,0,0-4.146-15.846,29.812,29.812,0,0,0-12.437-11.515q-8.291-4.328-21-4.331a49.919,49.919,0,0,0-18.518,3.317,41.471,41.471,0,0,0-14.279,9.213,38.373,38.373,0,0,0-8.844,13.634l14,6.633a34.035,34.035,0,0,1,9.581-13.726q6.081-5.067,17.688-5.068,10.869,0,16.767,4.975t5.9,14.556q0,11.241-5.711,16.491t-19.163,5.251h-2.856a28.9,28.9,0,0,1-3.224-.185v14.741a48.647,48.647,0,0,1,4.975-.46q2.392-.092,4.422-.093,8.658,0,14,2.119a14.9,14.9,0,0,1,7.831,6.541,22.305,22.305,0,0,1,2.487,11.055,22.862,22.862,0,0,1-2.948,11.7,20.919,20.919,0,0,1-8.476,8.014,28.678,28.678,0,0,1-13.634,2.949q-9.583,0-15.938-2.764a25.222,25.222,0,0,1-10.226-7.831,39.4,39.4,0,0,1-6.081-11.884l-14.74,7.555a38.114,38.114,0,0,0,16.86,21.1c1.36.836,2.757,1.6,4.186,2.3H18.425V18.425H321.732Z"/>
      </g>
    </g>
</svg>
