<svg xmlns="http://www.w3.org/2000/svg" width="120mm" height="120mm" viewBox="0 0 340.158 340.158">
  <g id="Zimmernummer">
      <g id="Z-04-534-E">
        <path fill="#A09f9d" stroke="none" d="M337.323,0H2.835A2.836,2.836,0,0,0,0,2.835V337.323a2.836,2.836,0,0,0,2.835,2.835H337.323a2.836,2.836,0,0,0,2.835-2.835V2.835A2.836,2.836,0,0,0,337.323,0ZM268.629,280.65H226.708l30.6-44.773q2.826-4.236,6.19-9.949t5.483-10.319h.354q-.177,4.794-.442,9.766t-.265,9.765Zm53.1,41.082H282.779V293.363h20.7V280.65h-20.7V203.633H264.914l-53.241,78.86v10.87h56.956v28.369H187.541a34.767,34.767,0,0,0,12.9-12.338,35.8,35.8,0,0,0,5.041-18.978,29.082,29.082,0,0,0-1.68-9.857,26.218,26.218,0,0,0-4.865-8.384,24.03,24.03,0,0,0-7.694-5.9,25.072,25.072,0,0,0-10.348-2.394v-.369a23.863,23.863,0,0,0,8.314-3.04A25.776,25.776,0,0,0,196.2,254.3a29.622,29.622,0,0,0,4.865-9.121A37.216,37.216,0,0,0,202.83,233.3a32.168,32.168,0,0,0-3.979-15.846,29.137,29.137,0,0,0-11.94-11.515q-7.96-4.328-20.165-4.331a46.219,46.219,0,0,0-17.776,3.317,39.692,39.692,0,0,0-13.709,9.213,38.561,38.561,0,0,0-8.49,13.634l13.443,6.633a34.069,34.069,0,0,1,9.2-13.726q5.836-5.067,16.981-5.068,10.434,0,16.1,4.975t5.66,14.556q0,11.241-5.483,16.491t-18.395,5.251h-2.742a26.636,26.636,0,0,1-3.095-.185v14.741a44.887,44.887,0,0,1,4.775-.46q2.3-.092,4.246-.093,8.311,0,13.442,2.119a14.474,14.474,0,0,1,7.518,6.541A23.065,23.065,0,0,1,190.8,290.6a23.619,23.619,0,0,1-2.83,11.7,20.458,20.458,0,0,1-8.137,8.014,26.615,26.615,0,0,1-13.089,2.949q-9.2,0-15.3-2.764a24.36,24.36,0,0,1-9.817-7.831,40.022,40.022,0,0,1-5.837-11.884l-14.15,7.555a37.873,37.873,0,0,0,16.184,21.1c1.306.836,2.648,1.6,4.019,2.3H97.294A35.2,35.2,0,0,0,113.153,303.5a45.5,45.5,0,0,0,3.007-16.951,44.145,44.145,0,0,0-4.6-20.636,33.629,33.629,0,0,0-12.825-13.726A37.247,37.247,0,0,0,79.369,247.3a41.055,41.055,0,0,0-15.831,2.763,30.472,30.472,0,0,0-10.878,7.371h-.354l.354-1.659,4.6-38.324h53.6V203.633H45.23l-6.9,66.884,12.382,2.395a24.1,24.1,0,0,1,6.722-6.817,27.687,27.687,0,0,1,8.755-3.778,44.01,44.01,0,0,1,10.525-1.2,28.117,28.117,0,0,1,13.443,2.948,19.727,19.727,0,0,1,8.4,8.752q2.919,5.8,2.918,14.464A28.521,28.521,0,0,1,98.3,301.194a22.042,22.042,0,0,1-8.933,8.937,28.636,28.636,0,0,1-13.885,3.132q-11.5,0-17.423-5.989A36.205,36.205,0,0,1,49.3,291.705L35.5,299.26q5.128,13.085,14.593,20.452a30.306,30.306,0,0,0,2.951,2.02H18.425V18.425H321.732Z"/>
      </g>
    </g>
</svg>
