<svg xmlns="http://www.w3.org/2000/svg" width="120mm" height="120mm" viewBox="0 0 340.158 340.157">
  <g id="Zimmernummer">
      <g id="Z-04-328-E">
        <path fill="#A09f9d" stroke="none" d="M337.323,0H2.835A2.836,2.836,0,0,0,0,2.835V337.323a2.834,2.834,0,0,0,2.835,2.834H337.323a2.834,2.834,0,0,0,2.835-2.834V2.835A2.836,2.836,0,0,0,337.323,0ZM242.544,271.161a41.426,41.426,0,0,1,29.274,0,21.775,21.775,0,0,1,9.64,7.738,22.769,22.769,0,0,1,.089,23.953A21.146,21.146,0,0,1,272,310.59a42.4,42.4,0,0,1-29.628,0,21.772,21.772,0,0,1-9.552-31.691A21.7,21.7,0,0,1,242.544,271.161Zm-7.871-35.836q0-9.211,6.1-14.371t16.362-5.161q10.435,0,16.45,5.161t6.014,14.371q0,9.029-6.191,14.187t-16.273,5.158q-10.082,0-16.273-5.158T234.673,235.325Zm87.059,86.407H281.809a33.772,33.772,0,0,0,12.473-10.864,31.778,31.778,0,0,0,5.307-18.426q0-11.423-5.926-19.346A35.347,35.347,0,0,0,277.832,261.3v-.183a27.762,27.762,0,0,0,12.116-10.78,30.984,30.984,0,0,0,4.334-16.49,30.666,30.666,0,0,0-4.6-17.043,30.151,30.151,0,0,0-12.913-10.963,51.527,51.527,0,0,0-39.179,0,30.019,30.019,0,0,0-13,10.963q-4.6,7.1-4.6,17.043a30.408,30.408,0,0,0,4.51,16.676,27.9,27.9,0,0,0,12.117,10.594v.183a34.293,34.293,0,0,0-16.1,11.885q-5.837,8.016-5.836,19.254a31.777,31.777,0,0,0,5.306,18.426,33.629,33.629,0,0,0,12.54,10.864H207.081V311.42h-40.86q-1.77,0-5.218.092t-6.9.184q-3.448.1-5.394.277v-.183q20.869-14.556,33.077-26.534T199.3,262.317A50.855,50.855,0,0,0,204.6,239.93a42.137,42.137,0,0,0-2.742-15.476,34.387,34.387,0,0,0-7.871-12.069,35.379,35.379,0,0,0-12.293-7.83,44.656,44.656,0,0,0-16.184-2.765q-11.853,0-20.431,4.607a35.528,35.528,0,0,0-13.619,12.713,48.787,48.787,0,0,0-6.633,18.795l12.381,7.738q1.236-13.635,8.491-21.834t19.28-8.2q11.494,0,18.13,6.724t6.633,17.6a41.282,41.282,0,0,1-3.007,15.57,58.852,58.852,0,0,1-10.082,15.754,175.937,175.937,0,0,1-18.838,18.424q-11.764,10.137-29.274,23.584v8.47H98.222a34.758,34.758,0,0,0,12.9-12.339,35.8,35.8,0,0,0,5.041-18.976,29.06,29.06,0,0,0-1.681-9.858,26.239,26.239,0,0,0-4.864-8.385,24.027,24.027,0,0,0-7.694-5.9,25.072,25.072,0,0,0-10.348-2.4v-.369a23.836,23.836,0,0,0,8.314-3.039,25.8,25.8,0,0,0,6.986-6.172,29.634,29.634,0,0,0,4.865-9.121,37.2,37.2,0,0,0,1.769-11.885,32.162,32.162,0,0,0-3.98-15.845,29.145,29.145,0,0,0-11.94-11.516q-7.959-4.328-20.164-4.33a46.224,46.224,0,0,0-17.777,3.316,39.692,39.692,0,0,0-13.708,9.213,38.608,38.608,0,0,0-8.491,13.635L50.9,234.4a34.071,34.071,0,0,1,9.2-13.727q5.837-5.065,16.981-5.066,10.434,0,16.1,4.974t5.661,14.555q0,11.241-5.484,16.492t-18.4,5.25H72.209a26.873,26.873,0,0,1-3.095-.183v14.74a45.417,45.417,0,0,1,4.776-.461q2.3-.09,4.245-.092,8.313,0,13.443,2.119a14.47,14.47,0,0,1,7.518,6.541,23.077,23.077,0,0,1,2.387,11.055,23.592,23.592,0,0,1-2.83,11.7,20.453,20.453,0,0,1-8.136,8.016,26.621,26.621,0,0,1-13.089,2.947q-9.2,0-15.3-2.763a24.357,24.357,0,0,1-9.816-7.831,40,40,0,0,1-5.838-11.884l-14.15,7.554a37.877,37.877,0,0,0,16.184,21.1c1.306.836,2.648,1.6,4.019,2.3h-34.1V18.425H321.732Z"/>
      </g>
    </g>
</svg>
