<svg xmlns="http://www.w3.org/2000/svg" width="120mm" height="120mm" viewBox="0 0 340.158 340.157">
  <g id="Zimmernummer">
      <g id="Z-04-031-R">
        <path fill="#A0552B" stroke="none" d="M337.323,0H2.835A2.834,2.834,0,0,0,0,2.835V337.323a2.834,2.834,0,0,0,2.835,2.834H337.323a2.834,2.834,0,0,0,2.835-2.834V2.835A2.834,2.834,0,0,0,337.323,0ZM321.732,321.732H284.377v-118.1h-12.9a37.424,37.424,0,0,1-7.37,7.185,92.514,92.514,0,0,1-10.41,6.911,95.845,95.845,0,0,1-10.686,5.342,32,32,0,0,1-8.384,2.488l3.87,13.451a67.569,67.569,0,0,0,16.951-6.541,66.188,66.188,0,0,0,14.556-10.595q-.186,3.869-.277,7.462t-.092,6.726v85.67h-59.96a35.612,35.612,0,0,0,13.438-12.338,34.706,34.706,0,0,0,5.251-18.978,28.028,28.028,0,0,0-1.75-9.857,26.021,26.021,0,0,0-5.067-8.384,24.952,24.952,0,0,0-8.015-5.9,27.019,27.019,0,0,0-10.779-2.394v-.369a25.532,25.532,0,0,0,8.66-3.04,26.57,26.57,0,0,0,7.278-6.172,29.252,29.252,0,0,0,5.067-9.121A35.822,35.822,0,0,0,225.6,233.3a31.141,31.141,0,0,0-4.146-15.846,29.824,29.824,0,0,0-12.437-11.515q-8.292-4.328-21.005-4.331a49.91,49.91,0,0,0-18.517,3.317,41.475,41.475,0,0,0-14.28,9.213,38.373,38.373,0,0,0-8.844,13.634l14,6.633a34.045,34.045,0,0,1,9.581-13.726q6.081-5.067,17.688-5.068,10.871,0,16.767,4.975t5.9,14.556q0,11.241-5.712,16.491t-19.162,5.251H182.58a28.9,28.9,0,0,1-3.225-.185v14.741a48.647,48.647,0,0,1,4.975-.46q2.393-.092,4.422-.093,8.658,0,14,2.119a14.9,14.9,0,0,1,7.831,6.541,22.305,22.305,0,0,1,2.487,11.055,22.852,22.852,0,0,1-2.948,11.7,20.919,20.919,0,0,1-8.476,8.014,28.675,28.675,0,0,1-13.634,2.949q-9.583,0-15.938-2.764a25.222,25.222,0,0,1-10.226-7.831,39.4,39.4,0,0,1-6.08-11.884l-14.74,7.555a38.116,38.116,0,0,0,16.859,21.1c1.36.836,2.757,1.6,4.185,2.3H18.425V18.425H321.732Z"/>
      </g>
    </g>
</svg>
