<svg xmlns="http://www.w3.org/2000/svg" width="120mm" height="120mm" viewBox="0 0 340.158 340.158">
  <g id="Zimmernummer">
      <g id="Z-04-349">
        <path fill="#000000" stroke="none" d="M337.323,0H2.835A2.836,2.836,0,0,0,0,2.835V337.323a2.836,2.836,0,0,0,2.835,2.835H337.323a2.836,2.836,0,0,0,2.835-2.835V2.835A2.836,2.836,0,0,0,337.323,0Zm-159.7,280.65H135.7l30.6-44.773q2.827-4.236,6.192-9.949t5.482-10.319h.354q-.179,4.794-.442,9.766t-.266,9.765Zm144.109,41.082H283.106c.98-.57,1.936-1.175,2.856-1.836q9.991-7.186,15.124-21.1t5.129-34.362q0-18.425-5.129-32.521t-15.212-22.11q-10.082-8.016-24.763-8.016-12.561,0-21.58,5.067a34.112,34.112,0,0,0-13.8,14.188q-4.776,9.12-4.776,21.649,0,11.609,4.953,20.084a34.234,34.234,0,0,0,13.8,13.174,42.7,42.7,0,0,0,20.342,4.7,41.482,41.482,0,0,0,13.178-2.211,31.6,31.6,0,0,0,11.939-7.278A27.354,27.354,0,0,0,292.6,257.8h.707v1.658a148.866,148.866,0,0,1-1.5,22.11,57.358,57.358,0,0,1-5.041,17.044,26.1,26.1,0,0,1-9.639,10.87q-6.1,3.78-15.3,3.778-11.322,0-17.777-5.9a33.1,33.1,0,0,1-9.286-15.477l-13.973,7.738q5.128,13.452,15.565,20.452,1.314.882,2.693,1.652H191.774V293.363h20.695V280.65H191.774V203.633H173.91l-53.243,78.86v10.87h56.956v28.369H92.113a34.74,34.74,0,0,0,12.9-12.338,35.8,35.8,0,0,0,5.041-18.978,29.058,29.058,0,0,0-1.681-9.857,26.234,26.234,0,0,0-4.864-8.384,24.019,24.019,0,0,0-7.694-5.9,25.072,25.072,0,0,0-10.348-2.394v-.369a23.87,23.87,0,0,0,8.314-3.04,25.805,25.805,0,0,0,6.987-6.172,29.641,29.641,0,0,0,4.864-9.121A37.16,37.16,0,0,0,107.4,233.3a32.147,32.147,0,0,0-3.98-15.846,29.128,29.128,0,0,0-11.939-11.515q-7.96-4.328-20.165-4.331a46.224,46.224,0,0,0-17.777,3.317,39.687,39.687,0,0,0-13.708,9.213,38.589,38.589,0,0,0-8.49,13.634L44.786,234.4a34.08,34.08,0,0,1,9.2-13.726q5.837-5.067,16.98-5.068,10.434,0,16.1,4.975t5.66,14.556q0,11.241-5.483,16.491t-18.4,5.251H66.1a26.679,26.679,0,0,1-3.1-.185v14.741a44.9,44.9,0,0,1,4.777-.46q2.3-.092,4.245-.093,8.311,0,13.442,2.119a14.474,14.474,0,0,1,7.518,6.541A23.077,23.077,0,0,1,95.375,290.6a23.609,23.609,0,0,1-2.83,11.7,20.455,20.455,0,0,1-8.136,8.014,26.627,26.627,0,0,1-13.09,2.949q-9.2,0-15.3-2.764a24.36,24.36,0,0,1-9.817-7.831,40.022,40.022,0,0,1-5.837-11.884l-14.151,7.555a37.875,37.875,0,0,0,16.185,21.1c1.306.836,2.648,1.6,4.019,2.3H18.425V18.425H321.732ZM286.758,241.4a25.892,25.892,0,0,1-3.183,12.991,22.951,22.951,0,0,1-8.933,8.843,26.835,26.835,0,0,1-13.355,3.225q-11.674,0-18.572-6.357t-6.9-17.227q0-12.714,6.544-19.808t18.926-7.093a27.486,27.486,0,0,1,13.355,3.132,22.209,22.209,0,0,1,8.933,8.844A27.185,27.185,0,0,1,286.758,241.4Z"/>
      </g>
    </g>
</svg>
