<svg xmlns="http://www.w3.org/2000/svg" width="120mm" height="120mm" viewBox="0 0 340.158 340.157">
  <g id="Zimmernummer">
      <g id="Z-04-425-M">
        <path fill="#D4AF37" stroke="none" d="M337.323,0H2.835A2.836,2.836,0,0,0,0,2.835V337.323a2.834,2.834,0,0,0,2.835,2.834H337.323a2.834,2.834,0,0,0,2.835-2.834V2.835A2.836,2.836,0,0,0,337.323,0ZM89.98,280.65H48.06l30.6-44.773q2.828-4.236,6.192-9.949t5.483-10.319h.353q-.178,4.794-.442,9.766t-.266,9.765Zm231.752,41.082H281.071A35.212,35.212,0,0,0,296.93,303.5a45.5,45.5,0,0,0,3.008-16.951,44.145,44.145,0,0,0-4.6-20.636,33.624,33.624,0,0,0-12.823-13.726,37.253,37.253,0,0,0-19.369-4.883,41.06,41.06,0,0,0-15.832,2.763,30.476,30.476,0,0,0-10.877,7.371h-.354l.354-1.659,4.6-38.324h53.6V203.633H229.008l-6.9,66.884,12.382,2.395a24.094,24.094,0,0,1,6.721-6.817,27.712,27.712,0,0,1,8.756-3.778,44,44,0,0,1,10.524-1.2,28.118,28.118,0,0,1,13.444,2.948,19.727,19.727,0,0,1,8.4,8.752q2.917,5.8,2.918,14.464a28.521,28.521,0,0,1-3.184,13.911,22.039,22.039,0,0,1-8.932,8.937,28.635,28.635,0,0,1-13.886,3.132q-11.5,0-17.423-5.989a36.2,36.2,0,0,1-8.755-15.569l-13.8,7.555q5.129,13.085,14.593,20.452a30.306,30.306,0,0,0,2.951,2.02h-27.8V311.42h-40.86q-1.77,0-5.218.093t-6.9.183q-3.45.1-5.395.277v-.184q20.868-14.553,33.077-26.532t17.511-22.94a50.849,50.849,0,0,0,5.307-22.386,42.144,42.144,0,0,0-2.742-15.478,34.392,34.392,0,0,0-7.871-12.068,35.373,35.373,0,0,0-12.293-7.83,44.683,44.683,0,0,0-16.185-2.765q-11.852,0-20.43,4.606A35.534,35.534,0,0,0,133.4,219.11a48.788,48.788,0,0,0-6.633,18.794l12.381,7.739q1.238-13.633,8.492-21.834t19.279-8.2q11.5,0,18.131,6.726t6.633,17.6A41.281,41.281,0,0,1,188.68,255.5,58.861,58.861,0,0,1,178.6,271.254a176.031,176.031,0,0,1-18.838,18.425q-11.766,10.135-29.275,23.584v8.469H104.132V293.363h20.694V280.65H104.132V203.633H86.267l-53.242,78.86v10.87H89.98v28.369H18.425V18.425H321.732Z"/>
      </g>
    </g>
</svg>
