<svg xmlns="http://www.w3.org/2000/svg" width="120mm" height="120mm" viewBox="0 0 340.158 340.158">
  <g id="Zimmernummer">
      <g id="Z-04-302">
        <path fill="#000000" stroke="none" d="M337.323,0H2.835A2.836,2.836,0,0,0,0,2.835V337.323a2.836,2.836,0,0,0,2.835,2.835H337.323a2.836,2.836,0,0,0,2.835-2.835V2.835A2.836,2.836,0,0,0,337.323,0ZM142.607,291.522q-3.274-11.055-3.272-27.085t3.272-27.086q3.272-11.053,9.729-16.674a25.107,25.107,0,0,1,31.662,0q6.454,5.622,9.728,16.674T197,264.437q0,16.031-3.273,27.085T184,308.2a25.111,25.111,0,0,1-31.662,0Q145.877,302.578,142.607,291.522Zm179.125,30.21H298.881V311.42H258.022q-1.772,0-5.219.093t-6.9.184q-3.448.094-5.4.276v-.183q20.87-14.555,33.077-26.533T291.1,262.318a50.869,50.869,0,0,0,5.306-22.387,42.142,42.142,0,0,0-2.742-15.477,34.4,34.4,0,0,0-7.871-12.069,35.379,35.379,0,0,0-12.293-7.83,44.68,44.68,0,0,0-16.185-2.764q-11.852,0-20.43,4.606a35.527,35.527,0,0,0-13.62,12.714,48.8,48.8,0,0,0-6.633,18.794l12.382,7.738q1.236-13.633,8.491-21.834t19.279-8.2q11.5,0,18.131,6.725t6.633,17.6A41.277,41.277,0,0,1,278.54,255.5a58.861,58.861,0,0,1-10.082,15.754,175.935,175.935,0,0,1-18.838,18.425q-11.766,10.135-29.274,23.584v8.469H188.491a39.85,39.85,0,0,0,11.426-10.68q11.762-16.029,11.763-46.615t-11.763-46.616q-11.766-16.031-31.75-16.03-19.812,0-31.662,16.03t-11.851,46.616q0,30.586,11.851,46.615a40.307,40.307,0,0,0,11.451,10.68H99.461a34.752,34.752,0,0,0,12.9-12.338,35.8,35.8,0,0,0,5.041-18.977,29.064,29.064,0,0,0-1.681-9.858,26.234,26.234,0,0,0-4.864-8.384,24.024,24.024,0,0,0-7.694-5.9,25.056,25.056,0,0,0-10.348-2.395v-.369a23.85,23.85,0,0,0,8.314-3.04,25.788,25.788,0,0,0,6.987-6.172,29.62,29.62,0,0,0,4.864-9.121A37.188,37.188,0,0,0,114.75,233.3a32.157,32.157,0,0,0-3.98-15.845,29.133,29.133,0,0,0-11.94-11.516q-7.959-4.328-20.164-4.33a46.224,46.224,0,0,0-17.777,3.316,39.692,39.692,0,0,0-13.708,9.213,38.579,38.579,0,0,0-8.49,13.634L52.133,234.4a34.076,34.076,0,0,1,9.2-13.727q5.838-5.067,16.981-5.067,10.434,0,16.1,4.974t5.66,14.556q0,11.241-5.483,16.491T76.19,256.882H73.448a26.66,26.66,0,0,1-3.1-.184v14.74a45.408,45.408,0,0,1,4.776-.46q2.3-.092,4.245-.093,8.313,0,13.443,2.119a14.474,14.474,0,0,1,7.518,6.541,23.068,23.068,0,0,1,2.388,11.055,23.617,23.617,0,0,1-2.83,11.7,20.466,20.466,0,0,1-8.137,8.015,26.621,26.621,0,0,1-13.089,2.948q-9.2,0-15.3-2.763a24.369,24.369,0,0,1-9.817-7.832,40.026,40.026,0,0,1-5.836-11.883l-14.151,7.554a37.875,37.875,0,0,0,16.185,21.1c1.3.836,2.647,1.6,4.017,2.3H18.425V18.425H321.732Z"/>
      </g>
    </g>
</svg>
