<svg xmlns="http://www.w3.org/2000/svg" width="120mm" height="120mm" viewBox="0 0 340.158 340.158">
  <g id="Zimmernummer">
      <g id="Z-04-339-M">
        <path fill="#D4AF37" stroke="none" d="M337.323,0H2.835A2.836,2.836,0,0,0,0,2.835V337.323a2.836,2.836,0,0,0,2.835,2.835H337.323a2.836,2.836,0,0,0,2.835-2.835V2.835A2.836,2.836,0,0,0,337.323,0ZM321.732,321.732H278.868c.98-.57,1.937-1.175,2.857-1.836q9.99-7.186,15.123-21.1t5.13-34.362q0-18.425-5.13-32.521t-15.212-22.11q-10.083-8.016-24.764-8.016-12.561,0-21.579,5.067a34.112,34.112,0,0,0-13.8,14.188q-4.775,9.12-4.776,21.649,0,11.609,4.953,20.084a34.224,34.224,0,0,0,13.8,13.174,42.7,42.7,0,0,0,20.342,4.7,41.481,41.481,0,0,0,13.177-2.211,31.608,31.608,0,0,0,11.94-7.278,27.353,27.353,0,0,0,7.429-13.358h.708v1.658a149,149,0,0,1-1.5,22.11,57.388,57.388,0,0,1-5.041,17.044,26.115,26.115,0,0,1-9.641,10.87q-6.1,3.78-15.3,3.778-11.322,0-17.776-5.9a33.088,33.088,0,0,1-9.287-15.477l-13.974,7.738q5.128,13.452,15.567,20.452,1.314.882,2.693,1.652h-47.7a34.745,34.745,0,0,0,12.9-12.338,35.8,35.8,0,0,0,5.041-18.978,29.057,29.057,0,0,0-1.68-9.857,26.252,26.252,0,0,0-4.864-8.384,24.041,24.041,0,0,0-7.694-5.9,25.072,25.072,0,0,0-10.348-2.394v-.369a23.878,23.878,0,0,0,8.314-3.04,25.816,25.816,0,0,0,6.986-6.172,29.6,29.6,0,0,0,4.864-9.121,37.16,37.16,0,0,0,1.769-11.884,32.147,32.147,0,0,0-3.98-15.846,29.128,29.128,0,0,0-11.939-11.515q-7.96-4.328-20.164-4.331a46.229,46.229,0,0,0-17.778,3.317,39.687,39.687,0,0,0-13.708,9.213,38.589,38.589,0,0,0-8.49,13.634l13.444,6.633a34.057,34.057,0,0,1,9.2-13.726q5.837-5.067,16.98-5.068,10.436,0,16.1,4.975t5.66,14.556q0,11.241-5.483,16.491t-18.4,5.251h-2.742A26.649,26.649,0,0,1,158,256.7v14.741a44.855,44.855,0,0,1,4.776-.46q2.3-.092,4.245-.093,8.313,0,13.443,2.119a14.478,14.478,0,0,1,7.518,6.541,23.077,23.077,0,0,1,2.387,11.055,23.609,23.609,0,0,1-2.83,11.7,20.449,20.449,0,0,1-8.136,8.014,26.621,26.621,0,0,1-13.089,2.949q-9.2,0-15.3-2.764a24.35,24.35,0,0,1-9.816-7.831,40.023,40.023,0,0,1-5.838-11.884l-14.151,7.555a37.879,37.879,0,0,0,16.185,21.1c1.306.836,2.648,1.6,4.019,2.3H96.366a34.745,34.745,0,0,0,12.9-12.338,35.8,35.8,0,0,0,5.042-18.978,29.083,29.083,0,0,0-1.681-9.857,26.252,26.252,0,0,0-4.864-8.384,24.052,24.052,0,0,0-7.694-5.9,25.076,25.076,0,0,0-10.348-2.394v-.369a23.865,23.865,0,0,0,8.313-3.04,25.79,25.79,0,0,0,6.987-6.172,29.6,29.6,0,0,0,4.864-9.121,37.16,37.16,0,0,0,1.769-11.884,32.158,32.158,0,0,0-3.98-15.846,29.128,29.128,0,0,0-11.939-11.515q-7.961-4.328-20.165-4.331a46.228,46.228,0,0,0-17.777,3.317,39.687,39.687,0,0,0-13.708,9.213A38.589,38.589,0,0,0,35.6,227.77L49.039,234.4a34.079,34.079,0,0,1,9.2-13.726q5.836-5.067,16.981-5.068,10.434,0,16.1,4.975t5.66,14.556q0,11.241-5.484,16.491T73.1,256.882H70.354a26.666,26.666,0,0,1-3.1-.185v14.741a44.862,44.862,0,0,1,4.775-.46q2.3-.092,4.246-.093,8.311,0,13.443,2.119a14.468,14.468,0,0,1,7.517,6.541A23.065,23.065,0,0,1,99.627,290.6a23.609,23.609,0,0,1-2.83,11.7,20.458,20.458,0,0,1-8.137,8.014,26.615,26.615,0,0,1-13.089,2.949q-9.2,0-15.3-2.764a24.36,24.36,0,0,1-9.817-7.831,40.046,40.046,0,0,1-5.837-11.884l-14.151,7.555a37.877,37.877,0,0,0,16.186,21.1c1.306.836,2.647,1.6,4.018,2.3H18.425V18.425H321.732ZM282.521,241.4a25.9,25.9,0,0,1-3.184,12.991,22.951,22.951,0,0,1-8.933,8.843,26.836,26.836,0,0,1-13.354,3.225q-11.675,0-18.573-6.357t-6.9-17.227q0-12.714,6.545-19.808t18.927-7.093A27.487,27.487,0,0,1,270.4,219.11a22.209,22.209,0,0,1,8.933,8.844A27.2,27.2,0,0,1,282.521,241.4Z"/>
      </g>
    </g>
</svg>
