<svg xmlns="http://www.w3.org/2000/svg" width="120mm" height="120mm" viewBox="0 0 340.158 340.158">
  <g id="Zimmernummer">
      <g id="Z-04-427-M">
        <path fill="#D4AF37" stroke="none" d="M337.323,0H2.835A2.836,2.836,0,0,0,0,2.835V337.323a2.836,2.836,0,0,0,2.835,2.835H337.323a2.836,2.836,0,0,0,2.835-2.835V2.835A2.836,2.836,0,0,0,337.323,0ZM96.26,280.651H54.339l30.6-44.774q2.828-4.236,6.191-9.949t5.483-10.318h.355q-.178,4.792-.443,9.765t-.265,9.765Zm225.472,41.081H262.217a171.711,171.711,0,0,1,4.2-35.554,139.2,139.2,0,0,1,13.531-35.469,173.3,173.3,0,0,1,23.967-33.256v-13.82H217.952v13.82h70.584A164.52,164.52,0,0,0,267.3,247.486a156.082,156.082,0,0,0-14.77,37.679,165.513,165.513,0,0,0-4.812,36.567H215.3V311.42H174.44q-1.77,0-5.217.093t-6.9.184q-3.45.094-5.4.276v-.183q20.87-14.555,33.077-26.533t17.512-22.939a50.868,50.868,0,0,0,5.305-22.387,42.142,42.142,0,0,0-2.741-15.477,34.41,34.41,0,0,0-7.871-12.069,35.392,35.392,0,0,0-12.294-7.83,44.672,44.672,0,0,0-16.185-2.764q-11.852,0-20.429,4.606a35.527,35.527,0,0,0-13.62,12.714,48.782,48.782,0,0,0-6.633,18.794l12.382,7.738q1.234-13.633,8.49-21.834t19.28-8.2q11.5,0,18.13,6.725t6.634,17.6a41.3,41.3,0,0,1-3.007,15.569,58.818,58.818,0,0,1-10.083,15.754,175.935,175.935,0,0,1-18.838,18.425q-11.766,10.135-29.273,23.584v8.469H110.41V293.364H131.1V280.651H110.41V203.633H92.545L39.3,282.494v10.87H96.26v28.368H18.425V18.425H321.732Z"/>
      </g>
    </g>
</svg>
