<svg xmlns="http://www.w3.org/2000/svg" width="120mm" height="120mm" viewBox="0 0 340.158 340.158">
  <g id="Zimmernummer">
      <g id="Z-04-069">
        <path fill="#000000" stroke="none" d="M337.323,0H2.835A2.836,2.836,0,0,0,0,2.835V337.323a2.836,2.836,0,0,0,2.835,2.835H337.323a2.836,2.836,0,0,0,2.835-2.835V2.835A2.836,2.836,0,0,0,337.323,0Zm-204.9,300.273a24.3,24.3,0,0,1-3.5-12.805,25.087,25.087,0,0,1,3.317-12.99,23.479,23.479,0,0,1,9.3-8.844,28.914,28.914,0,0,1,13.912-3.225,31.094,31.094,0,0,1,14.372,3.04,21.236,21.236,0,0,1,9.028,8.66,27.039,27.039,0,0,1,3.132,13.359q0,11.979-7,18.7t-19.53,6.726a26.85,26.85,0,0,1-13.543-3.41A25.733,25.733,0,0,1,132.425,300.273Zm189.307,21.459H277.125c1.021-.57,2.017-1.175,2.976-1.836q10.407-7.186,15.753-21.1t5.344-34.362q0-18.425-5.344-32.521t-15.846-22.11q-10.5-8.016-25.795-8.016-13.084,0-22.479,5.067a34.8,34.8,0,0,0-14.371,14.188q-4.976,9.12-4.975,21.649,0,11.609,5.159,20.084a35.077,35.077,0,0,0,14.371,13.174,46.007,46.007,0,0,0,21.19,4.7,44.841,44.841,0,0,0,13.726-2.211,33.186,33.186,0,0,0,12.437-7.278A27.076,27.076,0,0,0,287.01,257.8h.737v1.658a143.108,143.108,0,0,1-1.566,22.11,55.705,55.705,0,0,1-5.251,17.044,26.5,26.5,0,0,1-10.042,10.87q-6.357,3.78-15.938,3.778-11.793,0-18.517-5.9a32.876,32.876,0,0,1-9.673-15.477L212.2,299.628q5.341,13.452,16.214,20.452,1.369.882,2.806,1.652h-52.38a34.546,34.546,0,0,0,13.463-13.168,41.094,41.094,0,0,0,5.159-20.913q0-12.159-5.067-21a34.386,34.386,0,0,0-14.279-13.634q-9.216-4.791-21.558-4.791a42.682,42.682,0,0,0-13.542,2.3,34.746,34.746,0,0,0-12.345,7.186,25.076,25.076,0,0,0-7.463,12.806h-.736V267.2a92.006,92.006,0,0,1,2.118-20.267,54.615,54.615,0,0,1,6.357-16.4,33.514,33.514,0,0,1,10.318-10.964,25.091,25.091,0,0,1,14-3.961q10.871,0,17.044,4.883a27.324,27.324,0,0,1,8.936,13.359l13.635-6.45a46.611,46.611,0,0,0-9.029-14.647,32.813,32.813,0,0,0-12.621-8.292,49.467,49.467,0,0,0-17.043-2.672,42.7,42.7,0,0,0-24.23,7.187q-10.778,7.185-17.043,21.1t-6.264,34.364q0,18.24,5.343,32.335t15.846,22.2a37.122,37.122,0,0,0,4.11,2.757H18.425V18.425H321.732ZM280.93,241.4a25.078,25.078,0,0,1-3.317,12.991,23.462,23.462,0,0,1-9.3,8.843,28.9,28.9,0,0,1-13.912,3.225q-12.159,0-19.346-6.357t-7.186-17.227q0-12.714,6.818-19.808t19.714-7.093a29.609,29.609,0,0,1,13.912,3.132,22.705,22.705,0,0,1,9.3,8.844A26.317,26.317,0,0,1,280.93,241.4Z"/>
      </g>
    </g>
</svg>
