<svg xmlns="http://www.w3.org/2000/svg" width="120mm" height="120mm" viewBox="0 0 340.158 340.157">
  <g id="Zimmernummer">
      <g id="Z-04-343-M">
        <path fill="#D4AF37" stroke="none" d="M337.323,0H2.835A2.836,2.836,0,0,0,0,2.835V337.323a2.834,2.834,0,0,0,2.835,2.834H337.323a2.834,2.834,0,0,0,2.835-2.834V2.835A2.836,2.836,0,0,0,337.323,0ZM180.63,280.65H138.709l30.6-44.774q2.827-4.236,6.19-9.949t5.484-10.318h.354q-.179,4.792-.442,9.766t-.266,9.764Zm141.1,41.082H285.088a34.76,34.76,0,0,0,12.9-12.339,35.8,35.8,0,0,0,5.041-18.977,29.088,29.088,0,0,0-1.681-9.858,26.234,26.234,0,0,0-4.864-8.384,24.028,24.028,0,0,0-7.7-5.9,25.052,25.052,0,0,0-10.347-2.4v-.369a23.853,23.853,0,0,0,8.313-3.04,25.774,25.774,0,0,0,6.987-6.172,29.622,29.622,0,0,0,4.865-9.121,37.216,37.216,0,0,0,1.768-11.884,32.157,32.157,0,0,0-3.98-15.845,29.133,29.133,0,0,0-11.94-11.516q-7.958-4.328-20.164-4.33a46.219,46.219,0,0,0-17.776,3.316,39.7,39.7,0,0,0-13.709,9.213,38.593,38.593,0,0,0-8.49,13.634l13.443,6.634a34.074,34.074,0,0,1,9.2-13.727q5.838-5.067,16.982-5.067,10.434,0,16.1,4.974t5.661,14.556q0,11.241-5.484,16.491t-18.4,5.251h-2.741a26.647,26.647,0,0,1-3.1-.184v14.74a45.39,45.39,0,0,1,4.775-.46q2.3-.09,4.245-.093,8.313,0,13.444,2.119a14.476,14.476,0,0,1,7.517,6.541A23.068,23.068,0,0,1,288.35,290.6a23.606,23.606,0,0,1-2.83,11.7,20.466,20.466,0,0,1-8.137,8.015,26.615,26.615,0,0,1-13.089,2.948q-9.2,0-15.3-2.763a24.362,24.362,0,0,1-9.817-7.832,40.028,40.028,0,0,1-5.837-11.883l-14.151,7.554a37.879,37.879,0,0,0,16.185,21.1c1.306.837,2.648,1.6,4.02,2.3H194.781V293.363h20.695V280.65H194.781V203.632H176.915l-53.241,78.861v10.87H180.63v28.369H95.12a34.758,34.758,0,0,0,12.9-12.339,35.8,35.8,0,0,0,5.041-18.977,29.088,29.088,0,0,0-1.681-9.858,26.234,26.234,0,0,0-4.864-8.384,24.024,24.024,0,0,0-7.694-5.9,25.056,25.056,0,0,0-10.348-2.4v-.369a23.838,23.838,0,0,0,8.313-3.04,25.777,25.777,0,0,0,6.988-6.172,29.641,29.641,0,0,0,4.864-9.121A37.188,37.188,0,0,0,110.41,233.3a32.157,32.157,0,0,0-3.98-15.845,29.142,29.142,0,0,0-11.939-11.516q-7.961-4.328-20.165-4.33a46.22,46.22,0,0,0-17.777,3.316,39.715,39.715,0,0,0-13.709,9.213,38.636,38.636,0,0,0-8.49,13.634L47.793,234.4a34.067,34.067,0,0,1,9.2-13.727q5.835-5.067,16.98-5.067,10.434,0,16.1,4.974t5.661,14.556q0,11.241-5.484,16.491t-18.4,5.251H69.108a26.66,26.66,0,0,1-3.1-.184v14.74a45.408,45.408,0,0,1,4.776-.46q2.3-.09,4.246-.093,8.311,0,13.442,2.119a14.478,14.478,0,0,1,7.518,6.541A23.08,23.08,0,0,1,98.381,290.6a23.606,23.606,0,0,1-2.83,11.7,20.46,20.46,0,0,1-8.137,8.015,26.614,26.614,0,0,1-13.088,2.948q-9.2,0-15.3-2.763a24.366,24.366,0,0,1-9.818-7.832,40.028,40.028,0,0,1-5.837-11.883l-14.15,7.554a37.875,37.875,0,0,0,16.185,21.1c1.306.837,2.648,1.6,4.019,2.3h-31V18.425H321.732Z"/>
      </g>
    </g>
</svg>
