<svg xmlns="http://www.w3.org/2000/svg" width="120mm" height="120mm" viewBox="0 0 340.158 340.158">
  <g id="Zimmernummer">
      <g id="Z-04-532">
        <path fill="#000000" stroke="none" d="M337.323,0H2.835A2.836,2.836,0,0,0,0,2.835V337.323a2.836,2.836,0,0,0,2.835,2.835H337.323a2.836,2.836,0,0,0,2.835-2.835V2.835A2.836,2.836,0,0,0,337.323,0ZM321.732,321.732H298.876V311.42h-40.86q-1.77,0-5.218.093t-6.9.184q-3.449.094-5.394.276v-.183q20.868-14.555,33.076-26.533t17.512-22.939a50.869,50.869,0,0,0,5.306-22.387,42.142,42.142,0,0,0-2.742-15.477,34.4,34.4,0,0,0-7.871-12.069,35.388,35.388,0,0,0-12.293-7.83,44.678,44.678,0,0,0-16.184-2.764q-11.855,0-20.431,4.606a35.517,35.517,0,0,0-13.619,12.714,48.765,48.765,0,0,0-6.633,18.794l12.381,7.738q1.236-13.633,8.49-21.834t19.28-8.2q11.5,0,18.131,6.725t6.633,17.6a41.277,41.277,0,0,1-3.007,15.569,58.837,58.837,0,0,1-10.082,15.754,175.935,175.935,0,0,1-18.838,18.425q-11.765,10.135-29.274,23.584v8.469H190.018a34.76,34.76,0,0,0,12.9-12.338,35.8,35.8,0,0,0,5.041-18.977,29.088,29.088,0,0,0-1.681-9.858,26.252,26.252,0,0,0-4.864-8.384,24.024,24.024,0,0,0-7.694-5.9,25.056,25.056,0,0,0-10.348-2.395v-.369a23.858,23.858,0,0,0,8.314-3.04,25.785,25.785,0,0,0,6.986-6.172,29.6,29.6,0,0,0,4.864-9.121,37.159,37.159,0,0,0,1.77-11.884,32.157,32.157,0,0,0-3.981-15.845,29.136,29.136,0,0,0-11.939-11.516q-7.96-4.328-20.164-4.33a46.22,46.22,0,0,0-17.777,3.316,39.7,39.7,0,0,0-13.709,9.213,38.607,38.607,0,0,0-8.49,13.634L142.69,234.4a34.076,34.076,0,0,1,9.2-13.727q5.836-5.067,16.981-5.067,10.434,0,16.1,4.974t5.66,14.556q0,11.241-5.483,16.491t-18.4,5.251h-2.741a26.66,26.66,0,0,1-3.1-.184v14.74a45.408,45.408,0,0,1,4.776-.46q2.3-.092,4.245-.093,8.313,0,13.443,2.119a14.474,14.474,0,0,1,7.518,6.541,23.08,23.08,0,0,1,2.387,11.055,23.606,23.606,0,0,1-2.83,11.7,20.457,20.457,0,0,1-8.136,8.015,26.621,26.621,0,0,1-13.089,2.948q-9.2,0-15.3-2.763a24.369,24.369,0,0,1-9.817-7.832,40.026,40.026,0,0,1-5.836-11.883l-14.152,7.554a37.879,37.879,0,0,0,16.185,21.1c1.305.836,2.647,1.6,4.018,2.3H98.887A35.208,35.208,0,0,0,114.745,303.5a45.508,45.508,0,0,0,3.007-16.952,44.126,44.126,0,0,0-4.6-20.635,33.629,33.629,0,0,0-12.824-13.727A37.245,37.245,0,0,0,80.961,247.3a41.035,41.035,0,0,0-15.831,2.764,30.483,30.483,0,0,0-10.878,7.37H53.9l.354-1.658,4.6-38.324h53.6v-13.82H46.823l-6.9,66.884,12.381,2.4a24.111,24.111,0,0,1,6.721-6.818,27.7,27.7,0,0,1,8.756-3.777,43.953,43.953,0,0,1,10.525-1.2,28.114,28.114,0,0,1,13.443,2.948,19.719,19.719,0,0,1,8.4,8.752q2.921,5.8,2.919,14.464A28.521,28.521,0,0,1,99.888,301.2a22.039,22.039,0,0,1-8.933,8.936,28.637,28.637,0,0,1-13.886,3.132q-11.5,0-17.423-5.988a36.21,36.21,0,0,1-8.755-15.569L37.1,299.26q5.127,13.086,14.592,20.452a30.171,30.171,0,0,0,2.95,2.02H18.425V18.425H321.732Z"/>
      </g>
    </g>
</svg>
