<svg xmlns="http://www.w3.org/2000/svg" width="120mm" height="120mm" viewBox="0 0 340.158 340.158">
  <g id="Zimmernummer">
      <g id="Z-04-239-M">
        <path fill="#D4AF37" stroke="none" d="M337.323,0H2.835A2.836,2.836,0,0,0,0,2.835V337.323a2.836,2.836,0,0,0,2.835,2.835H337.323a2.836,2.836,0,0,0,2.835-2.835V2.835A2.836,2.836,0,0,0,337.323,0ZM321.732,321.732H282.4c.98-.57,1.936-1.175,2.856-1.836q9.992-7.186,15.124-21.1t5.129-34.362q0-18.425-5.129-32.521t-15.212-22.11q-10.083-8.016-24.764-8.016-12.561,0-21.579,5.067a34.112,34.112,0,0,0-13.8,14.188q-4.776,9.12-4.776,21.649,0,11.609,4.953,20.084a34.23,34.23,0,0,0,13.8,13.174,42.7,42.7,0,0,0,20.341,4.7,41.487,41.487,0,0,0,13.178-2.211,31.6,31.6,0,0,0,11.939-7.278,27.345,27.345,0,0,0,7.429-13.358h.708v1.658a148.866,148.866,0,0,1-1.5,22.11,57.358,57.358,0,0,1-5.041,17.044,26.1,26.1,0,0,1-9.64,10.87q-6.1,3.78-15.3,3.778-11.322,0-17.777-5.9a33.087,33.087,0,0,1-9.286-15.477l-13.974,7.738q5.128,13.452,15.566,20.452,1.314.882,2.693,1.652H187.1a34.755,34.755,0,0,0,12.9-12.338,35.8,35.8,0,0,0,5.041-18.978,29.058,29.058,0,0,0-1.681-9.857,26.252,26.252,0,0,0-4.864-8.384,24.034,24.034,0,0,0-7.7-5.9,25.067,25.067,0,0,0-10.347-2.394v-.369a23.878,23.878,0,0,0,8.314-3.04,25.787,25.787,0,0,0,6.986-6.172,29.578,29.578,0,0,0,4.864-9.121,37.16,37.16,0,0,0,1.769-11.884,32.147,32.147,0,0,0-3.98-15.846,29.122,29.122,0,0,0-11.939-11.515q-7.96-4.328-20.165-4.331a46.219,46.219,0,0,0-17.776,3.317,39.682,39.682,0,0,0-13.709,9.213,38.589,38.589,0,0,0-8.49,13.634l13.443,6.633a34.079,34.079,0,0,1,9.2-13.726q5.837-5.067,16.981-5.068,10.434,0,16.1,4.975t5.66,14.556q0,11.241-5.483,16.491t-18.4,5.251h-2.741a26.653,26.653,0,0,1-3.1-.185v14.741a44.88,44.88,0,0,1,4.776-.46q2.3-.092,4.245-.093,8.311,0,13.443,2.119a14.472,14.472,0,0,1,7.517,6.541,23.054,23.054,0,0,1,2.388,11.055,23.609,23.609,0,0,1-2.83,11.7,20.455,20.455,0,0,1-8.136,8.014,26.622,26.622,0,0,1-13.09,2.949q-9.2,0-15.3-2.764a24.367,24.367,0,0,1-9.817-7.831,40.046,40.046,0,0,1-5.837-11.884L121.2,298.339a37.875,37.875,0,0,0,16.185,21.1c1.307.836,2.648,1.6,4.019,2.3H110.947V311.42H70.087q-1.77,0-5.218.093t-6.9.183q-3.448.1-5.394.277v-.184q20.87-14.553,33.077-26.532t17.511-22.94a50.861,50.861,0,0,0,5.306-22.386,42.164,42.164,0,0,0-2.741-15.478,34.42,34.42,0,0,0-7.871-12.068,35.378,35.378,0,0,0-12.294-7.83A44.678,44.678,0,0,0,69.38,201.79q-11.853,0-20.431,4.606A35.538,35.538,0,0,0,35.33,219.11,48.788,48.788,0,0,0,28.7,237.9l12.381,7.739q1.236-13.633,8.491-21.834t19.28-8.2q11.5,0,18.13,6.726t6.634,17.6A41.281,41.281,0,0,1,90.605,255.5a58.812,58.812,0,0,1-10.082,15.754,176.031,176.031,0,0,1-18.838,18.425q-11.765,10.135-29.274,23.584v8.469H18.425V18.425H321.732ZM286.057,241.4a25.893,25.893,0,0,1-3.184,12.991,22.948,22.948,0,0,1-8.932,8.843,26.835,26.835,0,0,1-13.355,3.225q-11.675,0-18.573-6.357t-6.9-17.227q0-12.714,6.545-19.808t18.926-7.093a27.486,27.486,0,0,1,13.355,3.132,22.206,22.206,0,0,1,8.932,8.844A27.185,27.185,0,0,1,286.057,241.4Z"/>
      </g>
    </g>
</svg>
