<svg xmlns="http://www.w3.org/2000/svg" width="120mm" height="120mm" viewBox="0 0 340.158 340.158">
  <g id="Zimmernummer">
      <g id="Z-04-612-M">
        <path fill="#D4AF37" stroke="none" d="M337.323,0H2.835A2.836,2.836,0,0,0,0,2.835V337.323a2.836,2.836,0,0,0,2.835,2.835H337.323a2.836,2.836,0,0,0,2.835-2.835V2.835A2.836,2.836,0,0,0,337.323,0ZM67.959,300.274a25.085,25.085,0,0,1-3.36-12.806,25.913,25.913,0,0,1,3.184-12.99,22.984,22.984,0,0,1,8.932-8.844A26.866,26.866,0,0,1,90.07,262.41a28.838,28.838,0,0,1,13.8,3.04,20.781,20.781,0,0,1,8.668,8.66,27.957,27.957,0,0,1,3.007,13.358q0,11.98-6.722,18.7T90.07,312.9a24.991,24.991,0,0,1-22.111-12.621Zm253.773,21.458h-30.55V311.42H250.323q-1.77,0-5.218.093t-6.9.184q-3.45.094-5.4.276v-.183q20.869-14.555,33.077-26.533T283.4,262.318a50.869,50.869,0,0,0,5.306-22.387,42.121,42.121,0,0,0-2.742-15.477,34.4,34.4,0,0,0-7.871-12.069,35.388,35.388,0,0,0-12.293-7.83,44.68,44.68,0,0,0-16.185-2.764q-11.853,0-20.43,4.606a35.527,35.527,0,0,0-13.62,12.714,48.815,48.815,0,0,0-6.633,18.794l12.382,7.738q1.234-13.633,8.49-21.834t19.28-8.2q11.5,0,18.131,6.725t6.633,17.6a41.3,41.3,0,0,1-3.007,15.569,58.818,58.818,0,0,1-10.083,15.754,175.841,175.841,0,0,1-18.838,18.425q-11.763,10.135-29.273,23.584v8.469H190.36v-118.1H177.978a36.678,36.678,0,0,1-7.075,7.186,88.664,88.664,0,0,1-9.994,6.91,90.6,90.6,0,0,1-10.259,5.343,29.753,29.753,0,0,1-8.048,2.487l3.714,13.451a66,66,0,0,0,30.247-17.135q-.178,3.869-.266,7.461t-.088,6.726v85.67H112.523a33.844,33.844,0,0,0,12.924-13.167,42.466,42.466,0,0,0,4.952-20.913q0-12.16-4.864-21a33.629,33.629,0,0,0-13.708-13.635,42.819,42.819,0,0,0-20.7-4.791,39.507,39.507,0,0,0-13,2.3,33.064,33.064,0,0,0-11.85,7.185,25.318,25.318,0,0,0-7.164,12.806h-.707V267.2a95.608,95.608,0,0,1,2.034-20.268,55.934,55.934,0,0,1,6.1-16.4,32.967,32.967,0,0,1,9.906-10.964,23.367,23.367,0,0,1,13.442-3.961q10.435,0,16.361,4.883a27.393,27.393,0,0,1,8.579,13.358l13.09-6.449a46.929,46.929,0,0,0-8.668-14.648,31.431,31.431,0,0,0-12.116-8.292,45.757,45.757,0,0,0-16.361-2.671,39.82,39.82,0,0,0-23.26,7.186q-10.347,7.185-16.362,21.1t-6.014,34.363q0,18.24,5.13,32.336t15.212,22.2a35.524,35.524,0,0,0,3.945,2.757h-51V18.425H321.732Z"/>
      </g>
    </g>
</svg>
