<svg xmlns="http://www.w3.org/2000/svg" width="120mm" height="120mm" viewBox="0 0 340.158 340.158">
  <g id="Zimmernummer">
      <g id="Z-04-227-R">
        <path fill="#A0552B" stroke="none" d="M337.323,0H2.835A2.836,2.836,0,0,0,0,2.835V337.323a2.836,2.836,0,0,0,2.835,2.835H337.323a2.836,2.836,0,0,0,2.835-2.835V2.835A2.836,2.836,0,0,0,337.323,0ZM321.732,321.732H265.054a171.712,171.712,0,0,1,4.2-35.554,139.2,139.2,0,0,1,13.532-35.469,173.3,173.3,0,0,1,23.967-33.256v-13.82H220.789v13.82h70.583a164.514,164.514,0,0,0-21.233,30.033,156.082,156.082,0,0,0-14.77,37.679,165.454,165.454,0,0,0-4.812,36.567H214.6V311.42h-40.86q-1.77,0-5.218.093t-6.9.184q-3.45.094-5.4.276v-.183q20.87-14.555,33.077-26.533t17.511-22.939a50.856,50.856,0,0,0,5.307-22.387,42.142,42.142,0,0,0-2.742-15.477,34.424,34.424,0,0,0-7.871-12.069,35.392,35.392,0,0,0-12.294-7.83,44.678,44.678,0,0,0-16.184-2.764q-11.853,0-20.43,4.606a35.527,35.527,0,0,0-13.62,12.714,48.782,48.782,0,0,0-6.633,18.794l12.382,7.738q1.234-13.633,8.49-21.834t19.28-8.2q11.5,0,18.13,6.725t6.634,17.6a41.278,41.278,0,0,1-3.008,15.569,58.812,58.812,0,0,1-10.082,15.754,175.841,175.841,0,0,1-18.838,18.425q-11.765,10.135-29.273,23.584v8.469H120.32V311.42H79.46q-1.77,0-5.218.093t-6.9.184q-3.45.094-5.395.276v-.183q20.87-14.555,33.077-26.533t17.511-22.939a50.856,50.856,0,0,0,5.307-22.387,42.142,42.142,0,0,0-2.742-15.477,34.424,34.424,0,0,0-7.871-12.069,35.388,35.388,0,0,0-12.293-7.83,44.68,44.68,0,0,0-16.185-2.764q-11.853,0-20.43,4.606A35.527,35.527,0,0,0,44.7,219.111a48.782,48.782,0,0,0-6.633,18.794l12.382,7.738q1.234-13.633,8.49-21.834t19.28-8.2q11.5,0,18.131,6.725t6.633,17.6A41.3,41.3,0,0,1,99.979,255.5,58.842,58.842,0,0,1,89.9,271.254a175.915,175.915,0,0,1-18.837,18.425q-11.766,10.135-29.274,23.584v8.469H18.425V18.425H321.732Z"/>
      </g>
    </g>
</svg>
