<svg xmlns="http://www.w3.org/2000/svg" width="120mm" height="120mm" viewBox="0 0 340.158 340.158">
  <g id="Zimmernummer">
      <g id="Z-04-514-E">
        <path fill="#A09f9d" stroke="none" d="M337.323,0H2.835A2.836,2.836,0,0,0,0,2.835V337.323a2.836,2.836,0,0,0,2.835,2.835H337.323a2.836,2.836,0,0,0,2.835-2.835V2.835A2.836,2.836,0,0,0,337.323,0ZM249.791,280.65H207.87l30.6-44.773q2.827-4.236,6.192-9.949t5.483-10.319h.354q-.179,4.794-.443,9.766t-.265,9.765Zm71.941,41.082h-57.79V293.363h20.694V280.65H263.942V203.633H246.077l-53.242,78.86v10.87h56.956v28.369H180.277v-118.1H167.9a36.7,36.7,0,0,1-7.075,7.185,88.71,88.71,0,0,1-9.994,6.911,90.749,90.749,0,0,1-10.259,5.342,29.792,29.792,0,0,1-8.049,2.488l3.715,13.451a65.98,65.98,0,0,0,30.247-17.136q-.179,3.869-.265,7.462t-.089,6.726v85.67H116.132A35.2,35.2,0,0,0,131.991,303.5,45.519,45.519,0,0,0,135,286.546a44.133,44.133,0,0,0-4.6-20.636,33.624,33.624,0,0,0-12.823-13.726A37.251,37.251,0,0,0,98.206,247.3a41.058,41.058,0,0,0-15.831,2.763A30.472,30.472,0,0,0,71.5,257.435h-.354l.354-1.659,4.6-38.324h53.6V203.633H64.068l-6.9,66.884,12.382,2.395a24.068,24.068,0,0,1,6.721-6.817,27.7,27.7,0,0,1,8.755-3.778,44.008,44.008,0,0,1,10.524-1.2A28.116,28.116,0,0,1,109,264.067a19.727,19.727,0,0,1,8.4,8.752q2.919,5.8,2.918,14.464a28.521,28.521,0,0,1-3.183,13.911,22.036,22.036,0,0,1-8.933,8.937,28.633,28.633,0,0,1-13.885,3.132q-11.5,0-17.424-5.989a36.2,36.2,0,0,1-8.755-15.569l-13.8,7.555q5.128,13.085,14.592,20.452a30.428,30.428,0,0,0,2.951,2.02H18.425V18.425H321.732Z"/>
      </g>
    </g>
</svg>
