<svg xmlns="http://www.w3.org/2000/svg" width="120mm" height="120mm" viewBox="0 0 340.158 340.158">
  <g id="Zimmernummer">
      <g id="Z-04-337-E">
        <path fill="#A09f9d" stroke="none" d="M337.323,0H2.835A2.836,2.836,0,0,0,0,2.835V337.323a2.836,2.836,0,0,0,2.835,2.835H337.323a2.836,2.836,0,0,0,2.835-2.835V2.835A2.836,2.836,0,0,0,337.323,0ZM321.732,321.732H259.748a171.645,171.645,0,0,1,4.2-35.554,139.2,139.2,0,0,1,13.533-35.469,173.25,173.25,0,0,1,23.966-33.256v-13.82H215.483v13.82h70.583a164.471,164.471,0,0,0-21.234,30.033,156.12,156.12,0,0,0-14.769,37.679,165.454,165.454,0,0,0-4.812,36.567h-47a34.757,34.757,0,0,0,12.9-12.338,35.789,35.789,0,0,0,5.041-18.977,29.088,29.088,0,0,0-1.68-9.858,26.252,26.252,0,0,0-4.864-8.384,24.028,24.028,0,0,0-7.695-5.9,25.055,25.055,0,0,0-10.347-2.395v-.369a23.853,23.853,0,0,0,8.313-3.04A25.77,25.77,0,0,0,206.9,254.3a29.6,29.6,0,0,0,4.865-9.121,37.188,37.188,0,0,0,1.769-11.884,32.157,32.157,0,0,0-3.98-15.845,29.139,29.139,0,0,0-11.94-11.516q-7.959-4.328-20.164-4.33a46.224,46.224,0,0,0-17.777,3.316,39.692,39.692,0,0,0-13.708,9.213,38.593,38.593,0,0,0-8.49,13.634l13.443,6.634a34.064,34.064,0,0,1,9.2-13.727q5.838-5.067,16.981-5.067,10.435,0,16.1,4.974t5.661,14.556q0,11.241-5.484,16.491t-18.395,5.251h-2.742a26.63,26.63,0,0,1-3.095-.184v14.74a45.364,45.364,0,0,1,4.775-.46q2.3-.092,4.245-.093,8.311,0,13.444,2.119a14.472,14.472,0,0,1,7.517,6.541A23.068,23.068,0,0,1,201.51,290.6a23.606,23.606,0,0,1-2.83,11.7,20.466,20.466,0,0,1-8.137,8.015,26.618,26.618,0,0,1-13.089,2.948q-9.2,0-15.3-2.763a24.356,24.356,0,0,1-9.817-7.832,40.029,40.029,0,0,1-5.838-11.883l-14.15,7.554a37.878,37.878,0,0,0,16.184,21.1c1.306.836,2.648,1.6,4.019,2.3H107.51a34.75,34.75,0,0,0,12.9-12.338,35.781,35.781,0,0,0,5.042-18.977,29.088,29.088,0,0,0-1.68-9.858,26.255,26.255,0,0,0-4.865-8.384,24.024,24.024,0,0,0-7.694-5.9,25.056,25.056,0,0,0-10.348-2.395v-.369a23.85,23.85,0,0,0,8.314-3.04,25.77,25.77,0,0,0,6.986-6.172,29.557,29.557,0,0,0,4.864-9.121A37.159,37.159,0,0,0,122.8,233.3a32.157,32.157,0,0,0-3.98-15.845,29.139,29.139,0,0,0-11.94-11.516q-7.961-4.328-20.164-4.33a46.224,46.224,0,0,0-17.777,3.316,39.683,39.683,0,0,0-13.708,9.213,38.6,38.6,0,0,0-8.491,13.634L60.183,234.4a34.064,34.064,0,0,1,9.2-13.727q5.838-5.067,16.981-5.067,10.435,0,16.1,4.974t5.66,14.556q0,11.241-5.483,16.491t-18.4,5.251H81.5A26.617,26.617,0,0,1,78.4,256.7v14.74a45.39,45.39,0,0,1,4.775-.46q2.3-.092,4.245-.093,8.313,0,13.443,2.119a14.474,14.474,0,0,1,7.518,6.541,23.068,23.068,0,0,1,2.388,11.055,23.617,23.617,0,0,1-2.83,11.7,20.466,20.466,0,0,1-8.137,8.015,26.615,26.615,0,0,1-13.089,2.948q-9.2,0-15.3-2.763a24.353,24.353,0,0,1-9.816-7.832,39.98,39.98,0,0,1-5.837-11.883L41.61,298.339a37.878,37.878,0,0,0,16.184,21.1c1.306.836,2.648,1.6,4.018,2.3H18.425V18.425H321.732Z"/>
      </g>
    </g>
</svg>
