<svg xmlns="http://www.w3.org/2000/svg" width="120mm" height="120mm" viewBox="0 0 340.158 340.157">
  <g id="Zimmernummer">
      <g id="Z-04-618-R">
        <path fill="#A0552B" stroke="none" d="M337.323,0H2.835A2.836,2.836,0,0,0,0,2.835V337.323a2.834,2.834,0,0,0,2.835,2.834H337.323a2.834,2.834,0,0,0,2.835-2.834V2.835A2.836,2.836,0,0,0,337.323,0ZM66.81,300.274a25.089,25.089,0,0,1-3.361-12.807,25.9,25.9,0,0,1,3.184-12.99,22.984,22.984,0,0,1,8.932-8.844,26.874,26.874,0,0,1,13.355-3.224,28.826,28.826,0,0,1,13.8,3.041,20.767,20.767,0,0,1,8.667,8.66,27.944,27.944,0,0,1,3.007,13.357q0,11.981-6.722,18.7T88.92,312.9a24.99,24.99,0,0,1-22.11-12.621Zm167.946-29.113a41.429,41.429,0,0,1,29.275,0,21.766,21.766,0,0,1,9.639,7.738,22.763,22.763,0,0,1,.089,23.953,21.148,21.148,0,0,1-9.551,7.738,42.4,42.4,0,0,1-29.628,0,21.772,21.772,0,0,1-9.552-31.691A21.706,21.706,0,0,1,234.756,271.161Zm-7.871-35.836q0-9.211,6.1-14.371t16.361-5.161q10.435,0,16.45,5.161t6.014,14.371q0,9.029-6.19,14.187t-16.274,5.158q-10.083,0-16.272-5.158T226.885,235.325Zm94.847,86.407H274.021A33.783,33.783,0,0,0,286.5,310.868a31.785,31.785,0,0,0,5.306-18.426q0-11.423-5.926-19.346A35.347,35.347,0,0,0,270.044,261.3v-.183a27.771,27.771,0,0,0,12.117-10.78,30.993,30.993,0,0,0,4.334-16.49,30.667,30.667,0,0,0-4.6-17.043,30.139,30.139,0,0,0-12.913-10.963,51.527,51.527,0,0,0-39.179,0,30.024,30.024,0,0,0-13,10.963q-4.6,7.1-4.6,17.043a30.416,30.416,0,0,0,4.509,16.676,27.894,27.894,0,0,0,12.117,10.594v.183a34.29,34.29,0,0,0-16.1,11.885Q206.9,281.2,206.9,292.442a31.778,31.778,0,0,0,5.307,18.426,33.618,33.618,0,0,0,12.539,10.864H189.209v-118.1H176.828a36.713,36.713,0,0,1-7.076,7.186,88.483,88.483,0,0,1-9.994,6.91,90.487,90.487,0,0,1-10.258,5.342,29.761,29.761,0,0,1-8.048,2.488l3.715,13.451a66,66,0,0,0,30.246-17.136q-.178,3.87-.265,7.462t-.089,6.725v85.671H111.373A33.841,33.841,0,0,0,124.3,308.565a42.473,42.473,0,0,0,4.954-20.914q0-12.159-4.865-21a33.638,33.638,0,0,0-13.709-13.635,42.815,42.815,0,0,0-20.7-4.791,39.5,39.5,0,0,0-13,2.305,33.072,33.072,0,0,0-11.852,7.185,25.327,25.327,0,0,0-7.164,12.805h-.707V267.2a95.68,95.68,0,0,1,2.034-20.268,55.984,55.984,0,0,1,6.1-16.4A32.972,32.972,0,0,1,75.3,219.571a23.365,23.365,0,0,1,13.443-3.961q10.436,0,16.362,4.883a27.4,27.4,0,0,1,8.578,13.357l13.09-6.449a46.953,46.953,0,0,0-8.667-14.647,31.455,31.455,0,0,0-12.117-8.293,45.763,45.763,0,0,0-16.362-2.671,39.818,39.818,0,0,0-23.259,7.187q-10.348,7.183-16.362,21.1t-6.014,34.363q0,18.24,5.13,32.336t15.211,22.2a35.524,35.524,0,0,0,3.945,2.757H18.425V18.425H321.732Z"/>
      </g>
    </g>
</svg>
