<svg xmlns="http://www.w3.org/2000/svg" width="120mm" height="120mm" viewBox="0 0 340.158 340.157">
  <g id="Zimmernummer">
      <g id="Z-04-341-E">
        <path fill="#A09f9d" stroke="none" d="M337.323,0H2.835A2.834,2.834,0,0,0,0,2.835V337.323a2.834,2.834,0,0,0,2.835,2.834H337.323a2.834,2.834,0,0,0,2.835-2.834V2.835A2.834,2.834,0,0,0,337.323,0ZM187.343,280.65H145.422l30.6-44.773q2.827-4.236,6.191-9.949t5.484-10.319h.353q-.178,4.794-.442,9.766t-.266,9.765Zm134.389,41.082H269.948v-118.1H257.566a36.732,36.732,0,0,1-7.075,7.185,88.815,88.815,0,0,1-10,6.911,90.571,90.571,0,0,1-10.258,5.342,29.8,29.8,0,0,1-8.048,2.488L225.9,239.01a65.993,65.993,0,0,0,30.247-17.136q-.179,3.869-.266,7.462t-.088,6.726v85.67h-54.3V293.363h20.695V280.65H201.494V203.633H183.629l-53.242,78.86v10.87h56.956v28.369H101.834a34.76,34.76,0,0,0,12.9-12.338,35.8,35.8,0,0,0,5.041-18.978,29.058,29.058,0,0,0-1.681-9.857,26.234,26.234,0,0,0-4.864-8.384,24.034,24.034,0,0,0-7.695-5.9,25.067,25.067,0,0,0-10.347-2.394v-.369a23.858,23.858,0,0,0,8.313-3.04,25.794,25.794,0,0,0,6.988-6.172,29.641,29.641,0,0,0,4.864-9.121,37.161,37.161,0,0,0,1.768-11.884,32.157,32.157,0,0,0-3.979-15.846,29.125,29.125,0,0,0-11.94-11.515q-7.959-4.328-20.165-4.331a46.219,46.219,0,0,0-17.776,3.317,39.687,39.687,0,0,0-13.708,9.213,38.606,38.606,0,0,0-8.491,13.634L54.506,234.4a34.079,34.079,0,0,1,9.2-13.726q5.838-5.067,16.981-5.068,10.434,0,16.1,4.975t5.66,14.556q0,11.241-5.484,16.491t-18.4,5.251H75.821a26.666,26.666,0,0,1-3.1-.185v14.741a44.88,44.88,0,0,1,4.776-.46q2.3-.092,4.245-.093,8.312,0,13.443,2.119a14.468,14.468,0,0,1,7.517,6.541,23.065,23.065,0,0,1,2.388,11.055,23.6,23.6,0,0,1-2.83,11.7,20.455,20.455,0,0,1-8.136,8.014,26.622,26.622,0,0,1-13.09,2.949q-9.2,0-15.3-2.764a24.363,24.363,0,0,1-9.818-7.831,40.046,40.046,0,0,1-5.837-11.884l-14.15,7.555a37.875,37.875,0,0,0,16.185,21.1c1.3.836,2.647,1.6,4.018,2.3H18.425V18.425H321.732Z"/>
      </g>
    </g>
</svg>
