<svg xmlns="http://www.w3.org/2000/svg" width="120mm" height="120mm" viewBox="0 0 340.158 340.157">
  <g id="Zimmernummer">
      <g id="Z-04-413-R">
        <path fill="#A0552B" stroke="none" d="M337.323,0H2.835A2.836,2.836,0,0,0,0,2.835V337.323a2.834,2.834,0,0,0,2.835,2.834H337.323a2.834,2.834,0,0,0,2.835-2.834V2.835A2.836,2.836,0,0,0,337.323,0ZM103.068,280.65H61.147l30.6-44.774q2.827-4.236,6.19-9.949t5.484-10.318h.353q-.177,4.792-.441,9.766t-.266,9.764Zm218.664,41.082H268.375a34.747,34.747,0,0,0,12.9-12.339,35.79,35.79,0,0,0,5.042-18.977,29.064,29.064,0,0,0-1.681-9.858,26.252,26.252,0,0,0-4.864-8.384,24.024,24.024,0,0,0-7.694-5.9,25.056,25.056,0,0,0-10.348-2.4v-.369a23.858,23.858,0,0,0,8.314-3.04,25.77,25.77,0,0,0,6.986-6.172,29.557,29.557,0,0,0,4.864-9.121,37.159,37.159,0,0,0,1.77-11.884,32.147,32.147,0,0,0-3.981-15.845,29.13,29.13,0,0,0-11.939-11.516q-7.961-4.328-20.164-4.33a46.232,46.232,0,0,0-17.778,3.316,39.7,39.7,0,0,0-13.708,9.213,38.607,38.607,0,0,0-8.49,13.634l13.444,6.634a34.064,34.064,0,0,1,9.2-13.727q5.836-5.067,16.981-5.067,10.434,0,16.1,4.974t5.66,14.556q0,11.241-5.483,16.491t-18.4,5.251h-2.741a26.66,26.66,0,0,1-3.1-.184v14.74a45.433,45.433,0,0,1,4.776-.46q2.3-.09,4.245-.093,8.313,0,13.443,2.119a14.478,14.478,0,0,1,7.518,6.541,23.068,23.068,0,0,1,2.387,11.055,23.606,23.606,0,0,1-2.83,11.7,20.457,20.457,0,0,1-8.136,8.015,26.618,26.618,0,0,1-13.089,2.948q-9.2,0-15.3-2.763a24.359,24.359,0,0,1-9.816-7.832,40,40,0,0,1-5.837-11.883l-14.152,7.554a37.877,37.877,0,0,0,16.186,21.1c1.306.837,2.648,1.6,4.019,2.3H185.672v-118.1H173.29a36.706,36.706,0,0,1-7.075,7.186,88.574,88.574,0,0,1-9.994,6.91,90.6,90.6,0,0,1-10.259,5.343,29.732,29.732,0,0,1-8.048,2.487l3.715,13.451a66.017,66.017,0,0,0,30.247-17.135q-.179,3.869-.266,7.461t-.089,6.726v85.671h-54.3V293.363h20.695V280.65H117.219V203.632H99.353L46.112,282.493v10.87h56.956v28.369H18.425V18.425H321.732Z"/>
      </g>
    </g>
</svg>
