<svg xmlns="http://www.w3.org/2000/svg" width="120mm" height="120mm" viewBox="0 0 340.158 340.157">
  <g id="Zimmernummer">
      <g id="Z-04-008-R">
        <path fill="#A0552B" stroke="none" d="M339.327.831a2.835,2.835,0,0,0-2-.831H2.835A2.836,2.836,0,0,0,0,2.835V337.323a2.834,2.834,0,0,0,2.835,2.834H337.323a2.836,2.836,0,0,0,2.835-2.834V2.835A2.831,2.831,0,0,0,339.327.831ZM240.679,271.044a44.837,44.837,0,0,1,30.494,0,22.531,22.531,0,0,1,10.042,7.738,21.994,21.994,0,0,1,.092,23.953,21.9,21.9,0,0,1-9.95,7.739,45.893,45.893,0,0,1-30.862,0,21.817,21.817,0,0,1-10.042-7.739,22,22,0,0,1,.092-23.953A22.452,22.452,0,0,1,240.679,271.044Zm-8.2-35.837q0-9.211,6.356-14.372t17.044-5.159q10.869,0,17.136,5.159t6.264,14.372q0,9.03-6.449,14.187t-16.951,5.159q-10.5,0-16.951-5.159T232.48,235.207Zm89.252,86.525H281.327a34.887,34.887,0,0,0,13.246-10.982,30.863,30.863,0,0,0,5.528-18.425q0-11.423-6.173-19.346a36.72,36.72,0,0,0-16.49-11.793V261a28.581,28.581,0,0,0,12.621-10.779,30.056,30.056,0,0,0,4.514-16.49,29.74,29.74,0,0,0-4.791-17.044,31.07,31.07,0,0,0-13.45-10.962q-8.662-3.87-20.452-3.87a49.953,49.953,0,0,0-20.36,3.87,30.961,30.961,0,0,0-13.542,10.962,32.327,32.327,0,0,0-.093,33.719A28.722,28.722,0,0,0,234.507,261v.184A35.644,35.644,0,0,0,217.74,273.07q-6.081,8.016-6.08,19.255a30.862,30.862,0,0,0,5.527,18.425,34.758,34.758,0,0,0,13.318,10.982H18.425V18.425H321.732Z"/>
      </g>
    </g>
</svg>
