<svg xmlns="http://www.w3.org/2000/svg" width="120mm" height="120mm" viewBox="0 0 340.158 340.158">
  <g id="Zimmernummer">
      <g id="Z-04-347-E">
        <path fill="#A09f9d" stroke="none" d="M337.323,0H2.835A2.836,2.836,0,0,0,0,2.835V337.323a2.836,2.836,0,0,0,2.835,2.835H337.323a2.836,2.836,0,0,0,2.835-2.835V2.835A2.836,2.836,0,0,0,337.323,0ZM186.114,280.651H144.193l30.6-44.774q2.827-4.236,6.192-9.949t5.482-10.318h.355q-.178,4.792-.443,9.765t-.265,9.765Zm135.618,41.081H263.1a171.712,171.712,0,0,1,4.2-35.554,139.235,139.235,0,0,1,13.531-35.469A173.35,173.35,0,0,1,304.8,217.453v-13.82H218.835v13.82h70.584a164.514,164.514,0,0,0-21.233,30.033,156.082,156.082,0,0,0-14.77,37.679,165.513,165.513,0,0,0-4.812,36.567h-48.34V293.364h20.695V280.651H200.264V203.633H182.4l-53.242,78.861v10.87h56.956v28.368H104.142a34.752,34.752,0,0,0,12.9-12.338,35.789,35.789,0,0,0,5.041-18.977,29.088,29.088,0,0,0-1.68-9.858,26.255,26.255,0,0,0-4.865-8.384,24.024,24.024,0,0,0-7.694-5.9A25.056,25.056,0,0,0,97.5,263.884v-.369a23.85,23.85,0,0,0,8.314-3.04A25.755,25.755,0,0,0,112.8,254.3a29.557,29.557,0,0,0,4.864-9.121,37.159,37.159,0,0,0,1.77-11.884,32.157,32.157,0,0,0-3.98-15.845,29.139,29.139,0,0,0-11.94-11.516q-7.96-4.328-20.164-4.33a46.215,46.215,0,0,0-17.776,3.316,39.687,39.687,0,0,0-13.709,9.213,38.6,38.6,0,0,0-8.491,13.634L56.815,234.4a34.064,34.064,0,0,1,9.2-13.727q5.838-5.067,16.982-5.067,10.434,0,16.1,4.974t5.66,14.556q0,11.241-5.483,16.491t-18.4,5.251H78.129a26.63,26.63,0,0,1-3.095-.184v14.74a45.39,45.39,0,0,1,4.775-.46q2.3-.092,4.245-.093,8.313,0,13.443,2.119a14.474,14.474,0,0,1,7.518,6.541A23.068,23.068,0,0,1,107.4,290.6a23.617,23.617,0,0,1-2.83,11.7,20.466,20.466,0,0,1-8.137,8.015,26.615,26.615,0,0,1-13.089,2.948q-9.2,0-15.3-2.763a24.359,24.359,0,0,1-9.816-7.832,40,40,0,0,1-5.837-11.883l-14.151,7.554a37.878,37.878,0,0,0,16.184,21.1c1.306.836,2.648,1.6,4.018,2.3H18.425V18.425H321.732Z"/>
      </g>
    </g>
</svg>
