<svg xmlns="http://www.w3.org/2000/svg" width="120mm" height="120mm" viewBox="0 0 340.158 340.158">
  <g id="Zimmernummer">
      <g id="Z-04-034-R">
        <path fill="#A0552B" stroke="none" d="M337.323,0H2.835A2.836,2.836,0,0,0,0,2.835V337.323a2.836,2.836,0,0,0,2.835,2.835H337.323a2.836,2.836,0,0,0,2.835-2.835V2.835A2.836,2.836,0,0,0,337.323,0ZM268.032,280.65H224.364l31.876-44.773q2.944-4.236,6.448-9.949a116.619,116.619,0,0,0,5.712-10.319h.369q-.186,4.794-.461,9.766t-.276,9.765Zm53.7,41.082h-38.96V293.363H304.33V280.65H282.772V203.633H264.163l-55.46,78.86v10.87h59.329v28.369H176.2a35.6,35.6,0,0,0,13.439-12.338,34.706,34.706,0,0,0,5.251-18.978,28.028,28.028,0,0,0-1.75-9.857,26.021,26.021,0,0,0-5.067-8.384,24.952,24.952,0,0,0-8.015-5.9,27.019,27.019,0,0,0-10.779-2.394v-.369a25.532,25.532,0,0,0,8.66-3.04,26.556,26.556,0,0,0,7.278-6.172,29.252,29.252,0,0,0,5.067-9.121,35.823,35.823,0,0,0,1.842-11.884,31.15,31.15,0,0,0-4.145-15.846,29.824,29.824,0,0,0-12.437-11.515q-8.292-4.328-21-4.331a49.91,49.91,0,0,0-18.517,3.317,41.475,41.475,0,0,0-14.28,9.213,38.386,38.386,0,0,0-8.844,13.634l14,6.633a34.037,34.037,0,0,1,9.582-13.726q6.079-5.067,17.688-5.068,10.869,0,16.767,4.975t5.9,14.556q0,11.241-5.712,16.491t-19.162,5.251H149.1a28.915,28.915,0,0,1-3.225-.185v14.741a48.647,48.647,0,0,1,4.975-.46q2.392-.092,4.422-.093,8.658,0,14,2.119a14.908,14.908,0,0,1,7.831,6.541,22.305,22.305,0,0,1,2.487,11.055,22.862,22.862,0,0,1-2.948,11.7,20.912,20.912,0,0,1-8.476,8.014,28.675,28.675,0,0,1-13.634,2.949q-9.582,0-15.938-2.764a25.222,25.222,0,0,1-10.226-7.831,39.426,39.426,0,0,1-6.08-11.884l-14.74,7.555a38.112,38.112,0,0,0,16.859,21.1c1.36.836,2.758,1.6,4.186,2.3H18.425V18.425H321.732Z"/>
      </g>
    </g>
</svg>
