<svg xmlns="http://www.w3.org/2000/svg" width="120mm" height="120mm" viewBox="0 0 340.158 340.158">
  <g id="Zimmernummer">
      <g id="Z-04-614-M">
        <path fill="#D4AF37" stroke="none" d="M337.323,0H2.835A2.836,2.836,0,0,0,0,2.835V337.323a2.836,2.836,0,0,0,2.835,2.835H337.323a2.836,2.836,0,0,0,2.835-2.835V2.835A2.836,2.836,0,0,0,337.323,0ZM68.137,300.273a25.072,25.072,0,0,1-3.361-12.805,25.912,25.912,0,0,1,3.183-12.99,22.98,22.98,0,0,1,8.933-8.844,26.853,26.853,0,0,1,13.355-3.225,28.845,28.845,0,0,1,13.8,3.04,20.77,20.77,0,0,1,8.668,8.66,27.95,27.95,0,0,1,3.007,13.359q0,11.979-6.721,18.7T90.247,312.9a24.991,24.991,0,0,1-22.11-12.622Zm191.03-19.623H217.246l30.6-44.773q2.827-4.236,6.192-9.949t5.482-10.319h.355q-.18,4.794-.443,9.766t-.265,9.765Zm62.565,41.082H273.317V293.363h20.695V280.65H273.317V203.633H255.453l-53.243,78.86v10.87h56.957v28.369H189.652v-118.1H177.271a36.732,36.732,0,0,1-7.075,7.185,88.892,88.892,0,0,1-9.994,6.911,90.674,90.674,0,0,1-10.26,5.342,29.776,29.776,0,0,1-8.048,2.488l3.715,13.451a66.007,66.007,0,0,0,30.247-17.136q-.178,3.869-.266,7.462t-.089,6.726v85.67H112.7a33.842,33.842,0,0,0,12.925-13.168,42.474,42.474,0,0,0,4.953-20.913q0-12.159-4.866-21A33.627,33.627,0,0,0,112,253.013a42.8,42.8,0,0,0-20.695-4.791,39.505,39.505,0,0,0-13,2.3,33.066,33.066,0,0,0-11.85,7.186,25.315,25.315,0,0,0-7.165,12.806h-.707V267.2a95.59,95.59,0,0,1,2.035-20.267,55.912,55.912,0,0,1,6.1-16.4,32.985,32.985,0,0,1,9.905-10.964,23.382,23.382,0,0,1,13.443-3.961q10.436,0,16.362,4.883a27.4,27.4,0,0,1,8.578,13.359l13.09-6.45a46.935,46.935,0,0,0-8.668-14.647,31.42,31.42,0,0,0-12.116-8.292,45.757,45.757,0,0,0-16.361-2.672,39.819,39.819,0,0,0-23.26,7.187q-10.348,7.185-16.362,21.1t-6.014,34.364q0,18.24,5.13,32.335t15.212,22.2a35.524,35.524,0,0,0,3.945,2.757H18.425V18.425H321.732Z"/>
      </g>
    </g>
</svg>
