<svg xmlns="http://www.w3.org/2000/svg" width="120mm" height="120mm" viewBox="0 0 340.157 340.158">
  <g id="Zimmernummer">
      <g id="Z-04-547-M">
        <path fill="#D4AF37" stroke="none" d="M337.322,0H2.835A2.836,2.836,0,0,0,0,2.835V337.323a2.836,2.836,0,0,0,2.835,2.835H337.322a2.836,2.836,0,0,0,2.835-2.835V2.835A2.836,2.836,0,0,0,337.322,0ZM189.564,280.651H147.643l30.6-44.774q2.829-4.236,6.192-9.949t5.483-10.318h.353q-.179,4.792-.442,9.765t-.265,9.765Zm132.168,41.081H263.014a171.644,171.644,0,0,1,4.2-35.554,139.235,139.235,0,0,1,13.531-35.469,173.35,173.35,0,0,1,23.968-33.256v-13.82H218.748v13.82h70.584A164.514,164.514,0,0,0,268.1,247.486a156.085,156.085,0,0,0-14.771,37.679,165.512,165.512,0,0,0-4.811,36.567h-44.8V293.364H224.41V280.651H203.715V203.633H185.85l-53.242,78.861v10.87h56.956v28.368h-85.9A35.208,35.208,0,0,0,119.521,303.5a45.508,45.508,0,0,0,3.007-16.952,44.15,44.15,0,0,0-4.6-20.635,33.638,33.638,0,0,0-12.825-13.727A37.247,37.247,0,0,0,85.737,247.3a41.035,41.035,0,0,0-15.831,2.764,30.487,30.487,0,0,0-10.879,7.37h-.353l.353-1.658,4.6-38.324h53.595v-13.82H51.6l-6.9,66.884,12.382,2.4A24.088,24.088,0,0,1,63.8,266.1a27.681,27.681,0,0,1,8.756-3.777,43.945,43.945,0,0,1,10.524-1.2,28.107,28.107,0,0,1,13.442,2.948,19.723,19.723,0,0,1,8.4,8.752q2.917,5.8,2.919,14.464a28.51,28.51,0,0,1-3.185,13.911,22.021,22.021,0,0,1-8.933,8.936,28.629,28.629,0,0,1-13.884,3.132q-11.5,0-17.423-5.988a36.211,36.211,0,0,1-8.756-15.569l-13.8,7.554Q47,312.346,56.463,319.712a30.292,30.292,0,0,0,2.95,2.02H18.425V18.425H321.732Z"/>
      </g>
    </g>
</svg>
