<svg xmlns="http://www.w3.org/2000/svg" width="120mm" height="120mm" viewBox="0 0 340.158 340.157">
  <g id="Zimmernummer">
      <g id="Z-04-403-R">
        <path fill="#A0552B" stroke="none" d="M337.323,0H2.835A2.836,2.836,0,0,0,0,2.835V337.323a2.834,2.834,0,0,0,2.835,2.834H337.323a2.834,2.834,0,0,0,2.835-2.834V2.835A2.836,2.836,0,0,0,337.323,0ZM88.21,280.65H46.29l30.6-44.774q2.828-4.236,6.192-9.949t5.483-10.318h.353q-.178,4.792-.442,9.766t-.266,9.764Zm56.867,10.871q-3.274-11.055-3.272-27.085t3.272-27.086q3.27-11.054,9.728-16.674a25.107,25.107,0,0,1,31.662,0q6.456,5.622,9.729,16.674t3.272,27.086q0,16.031-3.272,27.085T186.467,308.2a25.111,25.111,0,0,1-31.662,0Q148.348,302.577,145.077,291.521Zm176.655,30.211h-38.5a34.75,34.75,0,0,0,12.9-12.339,35.789,35.789,0,0,0,5.041-18.977,29.088,29.088,0,0,0-1.68-9.858,26.236,26.236,0,0,0-4.865-8.384,24.013,24.013,0,0,0-7.694-5.9,25.056,25.056,0,0,0-10.348-2.4v-.369a23.843,23.843,0,0,0,8.314-3.04,25.759,25.759,0,0,0,6.987-6.172,29.6,29.6,0,0,0,4.864-9.121,37.188,37.188,0,0,0,1.769-11.884,32.156,32.156,0,0,0-3.979-15.845,29.145,29.145,0,0,0-11.94-11.516q-7.96-4.328-20.165-4.33a46.219,46.219,0,0,0-17.776,3.316,39.683,39.683,0,0,0-13.708,9.213,38.612,38.612,0,0,0-8.492,13.634l13.444,6.634a34.066,34.066,0,0,1,9.2-13.727q5.837-5.067,16.98-5.067,10.435,0,16.1,4.974t5.661,14.556q0,11.241-5.483,16.491t-18.4,5.251h-2.741a26.643,26.643,0,0,1-3.095-.184v14.74a45.408,45.408,0,0,1,4.776-.46q2.3-.09,4.245-.093,8.312,0,13.442,2.119a14.478,14.478,0,0,1,7.518,6.541,23.068,23.068,0,0,1,2.388,11.055,23.606,23.606,0,0,1-2.83,11.7,20.47,20.47,0,0,1-8.136,8.015,26.622,26.622,0,0,1-13.09,2.948q-9.2,0-15.3-2.763a24.362,24.362,0,0,1-9.817-7.832,40,40,0,0,1-5.837-11.883l-14.15,7.554a37.873,37.873,0,0,0,16.184,21.1c1.306.837,2.648,1.6,4.02,2.3H190.959a39.821,39.821,0,0,0,11.428-10.681q11.762-16.029,11.763-46.615T202.387,217.82q-11.766-16.03-31.751-16.03-19.812,0-31.661,16.03t-11.851,46.616q0,30.587,11.851,46.615a40.313,40.313,0,0,0,11.452,10.681H102.362V293.363h20.694V280.65H102.362V203.632H84.5L31.255,282.493v10.87H88.21v28.369H18.425V18.425H321.732Z"/>
      </g>
    </g>
</svg>
