<svg xmlns="http://www.w3.org/2000/svg" width="120mm" height="120mm" viewBox="0 0 340.158 340.157">
  <g id="Zimmernummer">
      <g id="Z-04-533-M">
        <path fill="#D4AF37" stroke="none" d="M337.323,0H2.835A2.836,2.836,0,0,0,0,2.835V337.323a2.834,2.834,0,0,0,2.835,2.834H337.323a2.834,2.834,0,0,0,2.835-2.834V2.835A2.836,2.836,0,0,0,337.323,0ZM321.732,321.732H280.756a34.747,34.747,0,0,0,12.9-12.339,35.78,35.78,0,0,0,5.041-18.977,29.087,29.087,0,0,0-1.679-9.858,26.274,26.274,0,0,0-4.865-8.384,24.024,24.024,0,0,0-7.694-5.9,25.056,25.056,0,0,0-10.348-2.4v-.369a23.85,23.85,0,0,0,8.314-3.04,25.77,25.77,0,0,0,6.986-6.172,29.578,29.578,0,0,0,4.864-9.121,37.159,37.159,0,0,0,1.77-11.884,32.147,32.147,0,0,0-3.981-15.845,29.13,29.13,0,0,0-11.939-11.516q-7.96-4.328-20.164-4.33a46.224,46.224,0,0,0-17.777,3.316,39.683,39.683,0,0,0-13.708,9.213,38.6,38.6,0,0,0-8.491,13.634L233.43,234.4a34.054,34.054,0,0,1,9.2-13.727q5.838-5.067,16.98-5.067,10.435,0,16.1,4.974t5.66,14.556q0,11.241-5.483,16.491t-18.4,5.251h-2.742a26.643,26.643,0,0,1-3.095-.184v14.74a45.408,45.408,0,0,1,4.776-.46q2.3-.09,4.245-.093,8.312,0,13.443,2.119a14.478,14.478,0,0,1,7.518,6.541,23.068,23.068,0,0,1,2.388,11.055,23.617,23.617,0,0,1-2.83,11.7,20.466,20.466,0,0,1-8.137,8.015,26.621,26.621,0,0,1-13.089,2.948q-9.2,0-15.3-2.763a24.353,24.353,0,0,1-9.816-7.832,40.005,40.005,0,0,1-5.838-11.883l-14.151,7.554a37.884,37.884,0,0,0,16.185,21.1c1.306.837,2.648,1.6,4.02,2.3H190.017a34.758,34.758,0,0,0,12.9-12.339,35.8,35.8,0,0,0,5.041-18.977,29.088,29.088,0,0,0-1.681-9.858,26.252,26.252,0,0,0-4.864-8.384,24.024,24.024,0,0,0-7.694-5.9,25.056,25.056,0,0,0-10.348-2.4v-.369a23.858,23.858,0,0,0,8.314-3.04,25.785,25.785,0,0,0,6.986-6.172,29.6,29.6,0,0,0,4.864-9.121,37.159,37.159,0,0,0,1.77-11.884,32.157,32.157,0,0,0-3.981-15.845,29.136,29.136,0,0,0-11.939-11.516q-7.96-4.328-20.164-4.33a46.22,46.22,0,0,0-17.777,3.316,39.7,39.7,0,0,0-13.709,9.213,38.607,38.607,0,0,0-8.49,13.634L142.69,234.4a34.076,34.076,0,0,1,9.2-13.727q5.836-5.067,16.981-5.067,10.434,0,16.1,4.974t5.66,14.556q0,11.241-5.483,16.491t-18.4,5.251h-2.741a26.66,26.66,0,0,1-3.1-.184v14.74a45.408,45.408,0,0,1,4.776-.46q2.3-.09,4.245-.093,8.313,0,13.443,2.119a14.478,14.478,0,0,1,7.518,6.541,23.08,23.08,0,0,1,2.387,11.055,23.606,23.606,0,0,1-2.83,11.7,20.457,20.457,0,0,1-8.136,8.015,26.621,26.621,0,0,1-13.089,2.948q-9.2,0-15.3-2.763a24.369,24.369,0,0,1-9.817-7.832,40.026,40.026,0,0,1-5.836-11.883l-14.152,7.554a37.879,37.879,0,0,0,16.185,21.1c1.306.837,2.648,1.6,4.019,2.3H98.886A35.212,35.212,0,0,0,114.745,303.5a45.508,45.508,0,0,0,3.007-16.952,44.126,44.126,0,0,0-4.6-20.635,33.629,33.629,0,0,0-12.824-13.727A37.245,37.245,0,0,0,80.961,247.3a41.035,41.035,0,0,0-15.831,2.764,30.483,30.483,0,0,0-10.878,7.37H53.9l.354-1.658,4.6-38.324h53.6v-13.82H46.823l-6.9,66.884,12.381,2.4a24.111,24.111,0,0,1,6.721-6.818,27.7,27.7,0,0,1,8.756-3.777,43.953,43.953,0,0,1,10.525-1.2,28.114,28.114,0,0,1,13.443,2.948,19.719,19.719,0,0,1,8.4,8.752q2.921,5.8,2.919,14.464a28.521,28.521,0,0,1-3.183,13.911,22.039,22.039,0,0,1-8.933,8.936,28.637,28.637,0,0,1-13.886,3.132q-11.5,0-17.423-5.988a36.21,36.21,0,0,1-8.755-15.569l-13.8,7.554q5.127,13.086,14.592,20.452a30.494,30.494,0,0,0,2.951,2.021H18.425V18.425H321.732Z"/>
      </g>
    </g>
</svg>
