<svg xmlns="http://www.w3.org/2000/svg" width="120mm" height="120mm" viewBox="0 0 340.158 340.157">
  <g id="Zimmernummer">
      <g id="Z-04-623-M">
        <path fill="#D4AF37" stroke="none" d="M337.323,0H2.835A2.836,2.836,0,0,0,0,2.835V337.323a2.834,2.834,0,0,0,2.835,2.834H337.323a2.834,2.834,0,0,0,2.835-2.834V2.835A2.836,2.836,0,0,0,337.323,0ZM57.967,300.273a25.086,25.086,0,0,1-3.361-12.806,25.913,25.913,0,0,1,3.184-12.99,22.987,22.987,0,0,1,8.933-8.844,26.862,26.862,0,0,1,13.354-3.224,28.835,28.835,0,0,1,13.8,3.04,20.773,20.773,0,0,1,8.667,8.66,27.946,27.946,0,0,1,3.008,13.358q0,11.981-6.722,18.7t-18.75,6.726a24.985,24.985,0,0,1-22.11-12.621Zm263.765,21.459H283.056a34.743,34.743,0,0,0,12.9-12.339A35.8,35.8,0,0,0,301,290.416a29.064,29.064,0,0,0-1.681-9.858,26.25,26.25,0,0,0-4.863-8.384,24.017,24.017,0,0,0-7.695-5.9,25.056,25.056,0,0,0-10.348-2.4v-.369a23.863,23.863,0,0,0,8.315-3.04,25.8,25.8,0,0,0,6.986-6.172,29.62,29.62,0,0,0,4.864-9.121,37.16,37.16,0,0,0,1.769-11.884,32.146,32.146,0,0,0-3.98-15.845,29.136,29.136,0,0,0-11.939-11.516q-7.961-4.328-20.165-4.33a46.224,46.224,0,0,0-17.777,3.316,39.7,39.7,0,0,0-13.708,9.213,38.607,38.607,0,0,0-8.49,13.634l13.442,6.634a34.077,34.077,0,0,1,9.2-13.727q5.837-5.067,16.98-5.067,10.435,0,16.1,4.974t5.66,14.556q0,11.241-5.483,16.491t-18.4,5.251h-2.742a26.673,26.673,0,0,1-3.1-.184v14.74a45.426,45.426,0,0,1,4.777-.46q2.3-.09,4.245-.093,8.312,0,13.442,2.119a14.478,14.478,0,0,1,7.518,6.541,23.068,23.068,0,0,1,2.388,11.055,23.606,23.606,0,0,1-2.83,11.7,20.464,20.464,0,0,1-8.136,8.015,26.627,26.627,0,0,1-13.09,2.948q-9.2,0-15.3-2.763a24.362,24.362,0,0,1-9.817-7.832,40.028,40.028,0,0,1-5.837-11.883l-14.151,7.554a37.875,37.875,0,0,0,16.185,21.1c1.306.837,2.648,1.6,4.019,2.3H210.437V311.419h-40.86q-1.77,0-5.218.093t-6.9.184q-3.45.094-5.4.276v-.183q20.87-14.554,33.077-26.533t17.511-22.939a50.87,50.87,0,0,0,5.307-22.387,42.142,42.142,0,0,0-2.742-15.477,34.4,34.4,0,0,0-7.871-12.069,35.4,35.4,0,0,0-12.293-7.83,44.684,44.684,0,0,0-16.185-2.764q-11.853,0-20.431,4.606A35.531,35.531,0,0,0,134.82,219.11a48.782,48.782,0,0,0-6.633,18.794l12.381,7.738q1.237-13.633,8.491-21.834t19.28-8.2q11.5,0,18.131,6.725t6.633,17.6A41.286,41.286,0,0,1,190.1,255.5a58.848,58.848,0,0,1-10.082,15.753,175.935,175.935,0,0,1-18.838,18.425Q149.41,299.814,131.9,313.262v8.47H102.529a33.842,33.842,0,0,0,12.925-13.168,42.466,42.466,0,0,0,4.952-20.913q0-12.161-4.864-21a33.635,33.635,0,0,0-13.708-13.635,42.82,42.82,0,0,0-20.7-4.791,39.5,39.5,0,0,0-13,2.3,33.091,33.091,0,0,0-11.851,7.185,25.318,25.318,0,0,0-7.164,12.806h-.707V267.2a95.74,95.74,0,0,1,2.033-20.268,55.991,55.991,0,0,1,6.1-16.4,32.986,32.986,0,0,1,9.9-10.964A23.374,23.374,0,0,1,79.9,215.609q10.435,0,16.362,4.883a27.407,27.407,0,0,1,8.579,13.358L117.93,227.4a46.928,46.928,0,0,0-8.667-14.648,31.427,31.427,0,0,0-12.117-8.292,45.761,45.761,0,0,0-16.361-2.671,39.823,39.823,0,0,0-23.26,7.186q-10.347,7.185-16.362,21.1t-6.014,34.363q0,18.24,5.13,32.336t15.212,22.2a35.412,35.412,0,0,0,3.946,2.758H18.425V18.425H321.732Z"/>
      </g>
    </g>
</svg>
