<svg xmlns="http://www.w3.org/2000/svg" width="120mm" height="120mm" viewBox="0 0 340.158 340.157">
  <g id="Zimmernummer">
      <g id="Z-04-610-E">
        <path fill="#A09f9d" stroke="none" d="M337.323,0H2.835A2.836,2.836,0,0,0,0,2.835V337.323a2.834,2.834,0,0,0,2.835,2.834H337.323a2.834,2.834,0,0,0,2.835-2.834V2.835A2.836,2.836,0,0,0,337.323,0ZM64.51,300.273a25.081,25.081,0,0,1-3.36-12.805,25.912,25.912,0,0,1,3.183-12.99,22.98,22.98,0,0,1,8.933-8.844,26.853,26.853,0,0,1,13.355-3.225,28.845,28.845,0,0,1,13.8,3.04,20.767,20.767,0,0,1,8.667,8.66,27.95,27.95,0,0,1,3.008,13.359q0,11.979-6.721,18.7T86.621,312.9A24.992,24.992,0,0,1,64.51,300.273Zm161.049-8.752q-3.276-11.055-3.272-27.084t3.272-27.086q3.272-11.055,9.729-16.674a25.107,25.107,0,0,1,31.662,0q6.453,5.622,9.728,16.674t3.273,27.086q0,16.029-3.273,27.084T266.95,308.2a25.111,25.111,0,0,1-31.662,0Q228.829,302.577,225.559,291.521Zm96.173,30.211h-50.29a39.853,39.853,0,0,0,11.427-10.68q11.76-16.031,11.762-46.615T282.869,217.82q-11.766-16.029-31.75-16.03-19.812,0-31.662,16.03t-11.851,46.617q0,30.585,11.851,46.615a40.31,40.31,0,0,0,11.452,10.68h-44v-118.1H174.529a36.732,36.732,0,0,1-7.075,7.185,88.815,88.815,0,0,1-10,6.911,90.571,90.571,0,0,1-10.258,5.342,29.8,29.8,0,0,1-8.048,2.488l3.714,13.451a65.993,65.993,0,0,0,30.247-17.136q-.179,3.869-.266,7.462t-.088,6.726v85.67H109.073A33.855,33.855,0,0,0,122,308.564a42.474,42.474,0,0,0,4.952-20.913q0-12.159-4.865-21a33.633,33.633,0,0,0-13.708-13.634,42.806,42.806,0,0,0-20.695-4.791,39.5,39.5,0,0,0-13,2.3,33.066,33.066,0,0,0-11.85,7.186,25.3,25.3,0,0,0-7.164,12.806h-.708V267.2a95.657,95.657,0,0,1,2.034-20.267,55.968,55.968,0,0,1,6.1-16.4A33.006,33.006,0,0,1,73,219.57a23.385,23.385,0,0,1,13.444-3.961q10.435,0,16.361,4.883a27.4,27.4,0,0,1,8.579,13.359l13.089-6.45a46.915,46.915,0,0,0-8.667-14.647,31.42,31.42,0,0,0-12.116-8.292,45.76,45.76,0,0,0-16.361-2.672,39.819,39.819,0,0,0-23.26,7.187q-10.349,7.185-16.362,21.1t-6.014,34.364q0,18.24,5.13,32.335t15.212,22.2a35.524,35.524,0,0,0,3.945,2.757H18.425V18.425H321.732Z"/>
      </g>
    </g>
</svg>
