<svg xmlns="http://www.w3.org/2000/svg" width="120mm" height="120mm" viewBox="0 0 340.158 340.157">
  <g id="Zimmernummer">
      <g id="Z-04-036-M">
        <path fill="#D4AF37" stroke="none" d="M337.323,0H2.835A2.836,2.836,0,0,0,0,2.835V337.323a2.834,2.834,0,0,0,2.835,2.834H337.323a2.834,2.834,0,0,0,2.835-2.834V2.835A2.836,2.836,0,0,0,337.323,0ZM236.9,300.273a24.3,24.3,0,0,1-3.5-12.805,25.086,25.086,0,0,1,3.316-12.99,23.475,23.475,0,0,1,9.3-8.844,28.907,28.907,0,0,1,13.911-3.225,31.086,31.086,0,0,1,14.371,3.04,21.227,21.227,0,0,1,9.029,8.66,27.039,27.039,0,0,1,3.132,13.359q0,11.979-7,18.7T259.926,312.9a26.855,26.855,0,0,1-13.543-3.41A25.73,25.73,0,0,1,236.9,300.273Zm84.837,21.459H283.314a34.55,34.55,0,0,0,13.462-13.168,41.1,41.1,0,0,0,5.16-20.913q0-12.159-5.068-21a34.386,34.386,0,0,0-14.279-13.634q-9.216-4.791-21.558-4.791a42.682,42.682,0,0,0-13.542,2.3,34.754,34.754,0,0,0-12.345,7.186,25.074,25.074,0,0,0-7.462,12.806h-.737V267.2a92.006,92.006,0,0,1,2.118-20.267,54.641,54.641,0,0,1,6.357-16.4,33.525,33.525,0,0,1,10.318-10.964,25.092,25.092,0,0,1,14-3.961q10.869,0,17.043,4.883a27.324,27.324,0,0,1,8.936,13.359l13.634-6.45a46.573,46.573,0,0,0-9.028-14.647,32.813,32.813,0,0,0-12.621-8.292,49.463,49.463,0,0,0-17.043-2.672,42.7,42.7,0,0,0-24.229,7.187q-10.779,7.185-17.043,21.1t-6.265,34.364q0,18.24,5.343,32.335t15.846,22.2a37.109,37.109,0,0,0,4.109,2.757H179.513a35.615,35.615,0,0,0,13.439-12.338,34.715,34.715,0,0,0,5.251-18.978,28.029,28.029,0,0,0-1.751-9.857,26.019,26.019,0,0,0-5.066-8.384,24.962,24.962,0,0,0-8.015-5.9,27.019,27.019,0,0,0-10.779-2.394v-.369a25.519,25.519,0,0,0,8.659-3.04,26.541,26.541,0,0,0,7.278-6.172,29.254,29.254,0,0,0,5.068-9.121,35.823,35.823,0,0,0,1.842-11.884,31.141,31.141,0,0,0-4.146-15.846,29.818,29.818,0,0,0-12.437-11.515q-8.29-4.328-21-4.331a49.919,49.919,0,0,0-18.518,3.317,41.462,41.462,0,0,0-14.279,9.213,38.373,38.373,0,0,0-8.844,13.634l14,6.633a34.035,34.035,0,0,1,9.581-13.726q6.081-5.067,17.688-5.068,10.869,0,16.767,4.975t5.9,14.556q0,11.241-5.711,16.491t-19.163,5.251h-2.856a28.9,28.9,0,0,1-3.224-.185v14.741a48.622,48.622,0,0,1,4.975-.46q2.393-.092,4.422-.093,8.658,0,14,2.119a14.9,14.9,0,0,1,7.83,6.541A22.294,22.294,0,0,1,182.91,290.6a22.862,22.862,0,0,1-2.948,11.7,20.919,20.919,0,0,1-8.476,8.014,28.678,28.678,0,0,1-13.634,2.949q-9.584,0-15.938-2.764a25.222,25.222,0,0,1-10.226-7.831,39.428,39.428,0,0,1-6.081-11.884l-14.74,7.555a38.114,38.114,0,0,0,16.86,21.1c1.36.836,2.757,1.6,4.185,2.3H18.425V18.425H321.732Z"/>
      </g>
    </g>
</svg>
