<svg xmlns="http://www.w3.org/2000/svg" width="120mm" height="120mm" viewBox="0 0 340.158 340.158">
  <g id="Zimmernummer">
      <g id="Z-04-522-R">
        <path fill="#A0552B" stroke="none" d="M337.323,0H2.835A2.836,2.836,0,0,0,0,2.835V337.323a2.836,2.836,0,0,0,2.835,2.835H337.323a2.836,2.836,0,0,0,2.835-2.835V2.835A2.836,2.836,0,0,0,337.323,0ZM321.732,321.732H298.876V311.42h-40.86q-1.77,0-5.218.093t-6.9.184q-3.449.094-5.394.276v-.183q20.868-14.555,33.076-26.533t17.512-22.939a50.855,50.855,0,0,0,5.306-22.387,42.142,42.142,0,0,0-2.742-15.477,34.4,34.4,0,0,0-7.871-12.069,35.379,35.379,0,0,0-12.293-7.83,44.678,44.678,0,0,0-16.184-2.764q-11.855,0-20.43,4.606a35.512,35.512,0,0,0-13.62,12.714,48.783,48.783,0,0,0-6.634,18.794l12.382,7.738q1.236-13.633,8.491-21.834t19.279-8.2q11.5,0,18.131,6.725t6.633,17.6a41.277,41.277,0,0,1-3.007,15.569,58.837,58.837,0,0,1-10.082,15.754,175.935,175.935,0,0,1-18.838,18.425q-11.765,10.135-29.274,23.584v8.469h-12.2V311.42H167.276q-1.769,0-5.217.093t-6.9.184q-3.448.094-5.394.276v-.183q20.87-14.555,33.077-26.533t17.511-22.939a50.855,50.855,0,0,0,5.306-22.387,42.142,42.142,0,0,0-2.742-15.477,34.4,34.4,0,0,0-7.871-12.069,35.388,35.388,0,0,0-12.293-7.83,44.676,44.676,0,0,0-16.185-2.764q-11.851,0-20.429,4.606a35.512,35.512,0,0,0-13.62,12.714,48.749,48.749,0,0,0-6.633,18.794l12.382,7.738q1.235-13.633,8.49-21.834t19.28-8.2q11.495,0,18.13,6.725t6.633,17.6A41.277,41.277,0,0,1,187.8,255.5a58.812,58.812,0,0,1-10.082,15.754,175.935,175.935,0,0,1-18.838,18.425q-11.766,10.135-29.274,23.584v8.469H98.887A35.208,35.208,0,0,0,114.745,303.5a45.508,45.508,0,0,0,3.007-16.952,44.126,44.126,0,0,0-4.6-20.635,33.629,33.629,0,0,0-12.824-13.727A37.247,37.247,0,0,0,80.961,247.3a41.035,41.035,0,0,0-15.831,2.764,30.483,30.483,0,0,0-10.878,7.37H53.9l.354-1.658,4.6-38.324h53.6v-13.82H46.822l-6.9,66.884,12.381,2.4a24.111,24.111,0,0,1,6.721-6.818,27.711,27.711,0,0,1,8.756-3.777,43.953,43.953,0,0,1,10.525-1.2,28.117,28.117,0,0,1,13.443,2.948,19.719,19.719,0,0,1,8.4,8.752q2.921,5.8,2.919,14.464A28.521,28.521,0,0,1,99.888,301.2a22.039,22.039,0,0,1-8.933,8.936,28.637,28.637,0,0,1-13.886,3.132q-11.5,0-17.423-5.988a36.21,36.21,0,0,1-8.755-15.569l-13.8,7.554q5.128,13.086,14.594,20.452a30.278,30.278,0,0,0,2.949,2.02H18.425V18.425H321.732Z"/>
      </g>
    </g>
</svg>
