<svg xmlns="http://www.w3.org/2000/svg" width="120mm" height="120mm" viewBox="0 0 340.158 340.157">
  <g id="Zimmernummer">
      <g id="Z-04-318-R">
        <path fill="#A0552B" stroke="none" d="M337.323,0H2.835A2.836,2.836,0,0,0,0,2.835V337.323a2.834,2.834,0,0,0,2.835,2.834H337.323a2.834,2.834,0,0,0,2.835-2.834V2.835A2.836,2.836,0,0,0,337.323,0Zm-103,271.161a41.426,41.426,0,0,1,29.274,0,21.78,21.78,0,0,1,9.64,7.738,21.219,21.219,0,0,1-9.464,31.691,42.4,42.4,0,0,1-29.627,0,21.772,21.772,0,0,1-9.552-31.691A21.7,21.7,0,0,1,234.32,271.161Zm-7.871-35.836q0-9.211,6.1-14.371t16.361-5.161q10.435,0,16.451,5.161t6.013,14.371q0,9.029-6.191,14.187t-16.273,5.158q-10.082,0-16.273-5.158T226.449,235.325Zm95.283,86.407H273.585a33.769,33.769,0,0,0,12.472-10.864,31.77,31.77,0,0,0,5.307-18.426q0-11.423-5.925-19.346A35.358,35.358,0,0,0,269.608,261.3v-.183a27.773,27.773,0,0,0,12.116-10.78,30.992,30.992,0,0,0,4.333-16.49,30.658,30.658,0,0,0-4.6-17.043,30.139,30.139,0,0,0-12.913-10.963,51.527,51.527,0,0,0-39.179,0,30.024,30.024,0,0,0-13,10.963q-4.6,7.1-4.6,17.043a30.408,30.408,0,0,0,4.511,16.676,27.9,27.9,0,0,0,12.116,10.594v.183a34.29,34.29,0,0,0-16.1,11.885q-5.837,8.016-5.837,19.254a31.785,31.785,0,0,0,5.306,18.426,33.644,33.644,0,0,0,12.54,10.864H185.235v-118.1H172.853a36.7,36.7,0,0,1-7.075,7.186,88.574,88.574,0,0,1-9.994,6.91,90.58,90.58,0,0,1-10.259,5.342,29.751,29.751,0,0,1-8.048,2.488l3.715,13.451a65.983,65.983,0,0,0,30.246-17.136q-.177,3.87-.265,7.462t-.088,6.725v85.671H106.446a34.758,34.758,0,0,0,12.9-12.339,35.786,35.786,0,0,0,5.041-18.976,29.083,29.083,0,0,0-1.68-9.858,26.257,26.257,0,0,0-4.864-8.385,24.042,24.042,0,0,0-7.695-5.9,25.071,25.071,0,0,0-10.347-2.4v-.369a23.824,23.824,0,0,0,8.313-3.039A25.822,25.822,0,0,0,115.1,254.3a29.632,29.632,0,0,0,4.864-9.121,37.2,37.2,0,0,0,1.769-11.885,32.162,32.162,0,0,0-3.98-15.845,29.133,29.133,0,0,0-11.94-11.516q-7.959-4.328-20.164-4.33a46.224,46.224,0,0,0-17.777,3.316,39.692,39.692,0,0,0-13.708,9.213,38.591,38.591,0,0,0-8.49,13.635L59.119,234.4a34.074,34.074,0,0,1,9.2-13.727q5.837-5.065,16.98-5.066,10.435,0,16.1,4.974t5.661,14.555q0,11.241-5.484,16.492t-18.395,5.25H80.434a26.847,26.847,0,0,1-3.095-.183v14.74a45.4,45.4,0,0,1,4.775-.461q2.3-.09,4.245-.092,8.313,0,13.444,2.119a14.471,14.471,0,0,1,7.517,6.541,23.065,23.065,0,0,1,2.388,11.055,23.6,23.6,0,0,1-2.83,11.7,20.462,20.462,0,0,1-8.137,8.016,26.618,26.618,0,0,1-13.089,2.947q-9.2,0-15.3-2.763a24.374,24.374,0,0,1-9.817-7.831A40.02,40.02,0,0,1,54.7,290.784l-14.151,7.554a37.874,37.874,0,0,0,16.185,21.1c1.306.836,2.647,1.6,4.018,2.3H18.425V18.425H321.732Z"/>
      </g>
    </g>
</svg>
