<svg xmlns="http://www.w3.org/2000/svg" width="120mm" height="120mm" viewBox="0 0 340.158 340.157">
  <g id="Zimmernummer">
      <g id="Z-04-050">
        <path fill="#000000" stroke="none" d="M337.323,0H2.835A2.836,2.836,0,0,0,0,2.835V337.323a2.834,2.834,0,0,0,2.835,2.834H337.323a2.834,2.834,0,0,0,2.835-2.834V2.835A2.836,2.836,0,0,0,337.323,0ZM229.247,291.521q-3.413-11.055-3.409-27.084t3.409-27.086q3.406-11.055,10.133-16.674a27,27,0,0,1,32.981,0q6.725,5.622,10.135,16.674t3.408,27.086q0,16.029-3.408,27.084T272.361,308.2a27.007,27.007,0,0,1-32.981,0Q232.653,302.577,229.247,291.521Zm92.485,30.211H277.041a40.884,40.884,0,0,0,11.9-10.68Q301.2,295.022,301.2,264.437T288.944,217.82q-12.255-16.029-33.073-16.03-20.637,0-32.981,16.03t-12.345,46.617q0,30.585,12.345,46.615a41.381,41.381,0,0,0,11.929,10.68H176.524A37.409,37.409,0,0,0,184.2,316.3a35.729,35.729,0,0,0,8.843-12.806,43.876,43.876,0,0,0,3.133-16.951,42.688,42.688,0,0,0-4.791-20.636,34.223,34.223,0,0,0-13.358-13.726q-8.568-4.881-20.175-4.883a44.353,44.353,0,0,0-16.491,2.763,31.82,31.82,0,0,0-11.331,7.371h-.369l.369-1.659,4.79-38.324h55.828V203.633H122.291l-7.186,66.884,12.9,2.395a24.615,24.615,0,0,1,7-6.817,29.494,29.494,0,0,1,9.121-3.778,47.649,47.649,0,0,1,10.962-1.2,30.3,30.3,0,0,1,14,2.948,20.106,20.106,0,0,1,8.752,8.752q3.041,5.8,3.04,14.464a27.589,27.589,0,0,1-3.317,13.911,22.515,22.515,0,0,1-9.3,8.937,30.853,30.853,0,0,1-14.464,3.132q-11.979,0-18.149-5.989a35.855,35.855,0,0,1-9.12-15.569l-14.372,7.555q5.342,13.085,15.2,20.452a31.507,31.507,0,0,0,3.074,2.02H18.425V18.425H321.732Z"/>
      </g>
    </g>
</svg>
