<svg xmlns="http://www.w3.org/2000/svg" width="120mm" height="120mm" viewBox="0 0 340.158 340.157">
  <g id="Zimmernummer">
      <g id="Z-04-511-E">
        <path fill="#A09f9d" stroke="none" d="M337.323,0H2.835A2.834,2.834,0,0,0,0,2.835V337.323a2.834,2.834,0,0,0,2.835,2.834H337.323a2.834,2.834,0,0,0,2.835-2.834V2.835A2.834,2.834,0,0,0,337.323,0ZM321.732,321.732H258.8v-118.1H246.423a36.683,36.683,0,0,1-7.076,7.185,88.619,88.619,0,0,1-9.994,6.911,90.5,90.5,0,0,1-10.259,5.342,29.792,29.792,0,0,1-8.047,2.488l3.713,13.451a65.99,65.99,0,0,0,30.248-17.136q-.18,3.869-.266,7.462t-.088,6.726v85.67h-56.6v-118.1H175.67a36.683,36.683,0,0,1-7.076,7.185,88.606,88.606,0,0,1-9.993,6.911,90.58,90.58,0,0,1-10.259,5.342,29.787,29.787,0,0,1-8.048,2.488l3.715,13.451a66,66,0,0,0,30.246-17.136q-.178,3.869-.265,7.462t-.089,6.726v85.67H112.41A35.205,35.205,0,0,0,128.268,303.5a45.5,45.5,0,0,0,3.007-16.951,44.157,44.157,0,0,0-4.6-20.636,33.636,33.636,0,0,0-12.825-13.726A37.247,37.247,0,0,0,94.484,247.3a41.055,41.055,0,0,0-15.831,2.763,30.485,30.485,0,0,0-10.879,7.371h-.353l.353-1.659,4.6-38.324h53.6V203.633H60.345l-6.9,66.884,12.382,2.395a24.1,24.1,0,0,1,6.722-6.817,27.687,27.687,0,0,1,8.755-3.778,44,44,0,0,1,10.525-1.2,28.11,28.11,0,0,1,13.442,2.948,19.723,19.723,0,0,1,8.4,8.752q2.917,5.8,2.918,14.464a28.51,28.51,0,0,1-3.184,13.911,22.03,22.03,0,0,1-8.933,8.937,28.629,28.629,0,0,1-13.884,3.132q-11.5,0-17.423-5.989a36.205,36.205,0,0,1-8.756-15.569l-13.8,7.555q5.129,13.085,14.593,20.452a30.47,30.47,0,0,0,2.95,2.02H18.425V18.425H321.732Z"/>
      </g>
    </g>
</svg>
