<svg xmlns="http://www.w3.org/2000/svg" width="120mm" height="120mm" viewBox="0 0 340.158 340.157">
  <g id="Zimmernummer">
      <g id="Z-04-521-R">
        <path fill="#A0552B" stroke="none" d="M337.323,0H2.835A2.834,2.834,0,0,0,0,2.835V337.323a2.834,2.834,0,0,0,2.835,2.834H337.323a2.834,2.834,0,0,0,2.835-2.834V2.835A2.834,2.834,0,0,0,337.323,0ZM321.732,321.732H268.8v-118.1H256.416a36.675,36.675,0,0,1-7.075,7.185,88.8,88.8,0,0,1-9.994,6.911,90.58,90.58,0,0,1-10.259,5.342,29.8,29.8,0,0,1-8.048,2.488l3.714,13.451A65.993,65.993,0,0,0,255,221.874q-.179,3.869-.266,7.462t-.088,6.726v85.67H211.666V311.42H170.807q-1.77,0-5.218.093t-6.9.183q-3.449.1-5.4.277v-.184q20.87-14.553,33.077-26.532t17.512-22.94a50.861,50.861,0,0,0,5.306-22.386,42.144,42.144,0,0,0-2.742-15.478,34.392,34.392,0,0,0-7.871-12.068,35.373,35.373,0,0,0-12.293-7.83A44.678,44.678,0,0,0,170.1,201.79q-11.855,0-20.431,4.606A35.524,35.524,0,0,0,136.05,219.11a48.789,48.789,0,0,0-6.634,18.794l12.382,7.739q1.236-13.633,8.49-21.834t19.28-8.2q11.5,0,18.131,6.726t6.633,17.6a41.281,41.281,0,0,1-3.007,15.569,58.818,58.818,0,0,1-10.083,15.754A175.842,175.842,0,0,1,162.4,289.679q-11.763,10.135-29.273,23.584v8.469H102.417A35.205,35.205,0,0,0,118.275,303.5a45.5,45.5,0,0,0,3.007-16.951,44.157,44.157,0,0,0-4.6-20.636,33.636,33.636,0,0,0-12.825-13.726A37.247,37.247,0,0,0,84.491,247.3a41.055,41.055,0,0,0-15.831,2.763,30.476,30.476,0,0,0-10.879,7.371h-.353l.353-1.659,4.6-38.324h53.6V203.633H50.353l-6.9,66.884,12.382,2.395a24.084,24.084,0,0,1,6.722-6.817,27.687,27.687,0,0,1,8.755-3.778,44,44,0,0,1,10.525-1.2,28.107,28.107,0,0,1,13.442,2.948,19.723,19.723,0,0,1,8.4,8.752q2.917,5.8,2.919,14.464a28.51,28.51,0,0,1-3.185,13.911,22.03,22.03,0,0,1-8.933,8.937A28.632,28.632,0,0,1,80.6,313.263q-11.5,0-17.423-5.989a36.205,36.205,0,0,1-8.756-15.569l-13.8,7.555q5.128,13.085,14.593,20.452a30.47,30.47,0,0,0,2.95,2.02H18.425V18.425H321.732Z"/>
      </g>
    </g>
</svg>
