<svg xmlns="http://www.w3.org/2000/svg" width="120mm" height="120mm" viewBox="0 0 340.158 340.158">
  <g id="Zimmernummer">
      <g id="Z-04-067">
        <path fill="#000000" stroke="none" d="M337.323,0H2.835A2.836,2.836,0,0,0,0,2.835V337.323a2.836,2.836,0,0,0,2.835,2.835H337.323a2.836,2.836,0,0,0,2.835-2.835V2.835A2.836,2.836,0,0,0,337.323,0ZM150.112,300.274a24.308,24.308,0,0,1-3.5-12.806,25.087,25.087,0,0,1,3.317-12.99,23.5,23.5,0,0,1,9.305-8.844,28.918,28.918,0,0,1,13.911-3.224,31.074,31.074,0,0,1,14.371,3.04,21.219,21.219,0,0,1,9.028,8.66,27.025,27.025,0,0,1,3.133,13.358q0,11.98-7,18.7t-19.53,6.726a26.859,26.859,0,0,1-13.543-3.409A25.748,25.748,0,0,1,150.112,300.274Zm171.62,21.458H268.816a165.147,165.147,0,0,1,4.375-35.554,135.839,135.839,0,0,1,14.1-35.469,173.667,173.667,0,0,1,24.966-33.256v-13.82H222.706v13.82h73.525a164.694,164.694,0,0,0-22.119,30.033,152.433,152.433,0,0,0-15.385,37.679,159.277,159.277,0,0,0-5.013,36.567H196.532a34.541,34.541,0,0,0,13.462-13.167,41.107,41.107,0,0,0,5.159-20.913q0-12.16-5.067-21a34.377,34.377,0,0,0-14.279-13.635q-9.216-4.79-21.558-4.791a42.684,42.684,0,0,0-13.542,2.3,34.734,34.734,0,0,0-12.345,7.185,25.08,25.08,0,0,0-7.463,12.806h-.736V267.2a91.959,91.959,0,0,1,2.119-20.268,54.581,54.581,0,0,1,6.356-16.4,33.5,33.5,0,0,1,10.319-10.964,25.075,25.075,0,0,1,14-3.961q10.87,0,17.043,4.883a27.327,27.327,0,0,1,8.937,13.358l13.635-6.449a46.6,46.6,0,0,0-9.029-14.648,32.825,32.825,0,0,0-12.621-8.292,49.47,49.47,0,0,0-17.044-2.671,42.7,42.7,0,0,0-24.229,7.186q-10.779,7.185-17.043,21.1t-6.264,34.363q0,18.24,5.343,32.336t15.846,22.2a37.016,37.016,0,0,0,4.109,2.757H18.425V18.425H321.732Z"/>
      </g>
    </g>
</svg>
