<svg xmlns="http://www.w3.org/2000/svg" width="120mm" height="120mm" viewBox="0 0 340.158 340.158">
  <g id="Zimmernummer">
      <g id="Z-04-449-M">
        <path fill="#D4AF37" stroke="none" d="M337.323,0H2.835A2.836,2.836,0,0,0,0,2.835V337.323a2.836,2.836,0,0,0,2.835,2.835H337.323a2.836,2.836,0,0,0,2.835-2.835V2.835A2.836,2.836,0,0,0,337.323,0ZM89.715,280.65H47.794l30.6-44.773q2.828-4.236,6.191-9.949t5.484-10.319h.353q-.178,4.794-.442,9.766t-.266,9.765Zm34.846,12.713h53.771v28.369H103.866V293.363h20.7ZM178.6,225.375q-.266,4.974-.265,9.765v45.51H136.411l30.6-44.773q2.827-4.236,6.19-9.949t5.484-10.319h.353Q178.862,220.4,178.6,225.375Zm143.135,96.357H276.74c.979-.57,1.936-1.175,2.856-1.836q9.99-7.186,15.123-21.1t5.13-34.362q0-18.425-5.13-32.521t-15.212-22.11q-10.083-8.016-24.764-8.016-12.561,0-21.579,5.067a34.118,34.118,0,0,0-13.8,14.188q-4.774,9.12-4.776,21.649,0,11.609,4.953,20.084a34.23,34.23,0,0,0,13.8,13.174,42.7,42.7,0,0,0,20.342,4.7,41.485,41.485,0,0,0,13.177-2.211,31.608,31.608,0,0,0,11.94-7.278,27.353,27.353,0,0,0,7.429-13.358h.707v1.658a149.008,149.008,0,0,1-1.5,22.11,57.388,57.388,0,0,1-5.041,17.044,26.108,26.108,0,0,1-9.641,10.87q-6.1,3.78-15.3,3.778-11.321,0-17.776-5.9a33.088,33.088,0,0,1-9.287-15.477l-13.974,7.738q5.129,13.452,15.567,20.452,1.314.882,2.693,1.652H192.483V293.363h20.695V280.65H192.483V203.633H174.617l-52,77.017H103.866V203.633H86L32.76,282.493v10.87H89.715v28.369H18.425V18.425H321.732ZM280.392,241.4a25.893,25.893,0,0,1-3.185,12.991,22.945,22.945,0,0,1-8.931,8.843,26.838,26.838,0,0,1-13.356,3.225q-11.673,0-18.572-6.357t-6.9-17.227q0-12.714,6.545-19.808t18.926-7.093a27.49,27.49,0,0,1,13.356,3.132,22.2,22.2,0,0,1,8.931,8.844A27.185,27.185,0,0,1,280.392,241.4Z"/>
      </g>
    </g>
</svg>
