<svg xmlns="http://www.w3.org/2000/svg" width="120mm" height="120mm" viewBox="0 0 340.158 340.157">
  <g id="Zimmernummer">
      <g id="Z-04-613-M">
        <path fill="#D4AF37" stroke="none" d="M337.323,0H2.835A2.836,2.836,0,0,0,0,2.835V337.323a2.834,2.834,0,0,0,2.835,2.834H337.323a2.834,2.834,0,0,0,2.835-2.834V2.835A2.836,2.836,0,0,0,337.323,0ZM67.959,300.273a25.085,25.085,0,0,1-3.36-12.806,25.913,25.913,0,0,1,3.184-12.99,22.984,22.984,0,0,1,8.932-8.844,26.866,26.866,0,0,1,13.355-3.224,28.838,28.838,0,0,1,13.8,3.04,20.781,20.781,0,0,1,8.668,8.66,27.957,27.957,0,0,1,3.007,13.358q0,11.981-6.722,18.7t-18.75,6.726a24.991,24.991,0,0,1-22.111-12.621Zm253.773,21.459h-48.67a34.743,34.743,0,0,0,12.9-12.339,35.789,35.789,0,0,0,5.041-18.977,29.063,29.063,0,0,0-1.68-9.858,26.252,26.252,0,0,0-4.864-8.384,24.017,24.017,0,0,0-7.695-5.9,25.056,25.056,0,0,0-10.348-2.4v-.369a23.855,23.855,0,0,0,8.315-3.04,25.77,25.77,0,0,0,6.986-6.172,29.578,29.578,0,0,0,4.864-9.121,37.16,37.16,0,0,0,1.769-11.884,32.156,32.156,0,0,0-3.979-15.845,29.139,29.139,0,0,0-11.94-11.516q-7.961-4.328-20.165-4.33a46.219,46.219,0,0,0-17.776,3.316,39.692,39.692,0,0,0-13.708,9.213,38.6,38.6,0,0,0-8.491,13.634l13.443,6.634a34.066,34.066,0,0,1,9.2-13.727q5.838-5.067,16.981-5.067,10.436,0,16.1,4.974t5.66,14.556q0,11.241-5.483,16.491t-18.4,5.251H247.05a26.643,26.643,0,0,1-3.095-.184v14.74a45.408,45.408,0,0,1,4.776-.46q2.3-.09,4.245-.093,8.312,0,13.442,2.119a14.478,14.478,0,0,1,7.518,6.541,23.056,23.056,0,0,1,2.389,11.055,23.617,23.617,0,0,1-2.83,11.7,20.473,20.473,0,0,1-8.137,8.015,26.622,26.622,0,0,1-13.09,2.948q-9.2,0-15.3-2.763a24.362,24.362,0,0,1-9.817-7.832,40.028,40.028,0,0,1-5.837-11.883l-14.15,7.554a37.873,37.873,0,0,0,16.184,21.1c1.306.837,2.649,1.6,4.02,2.3H190.36v-118.1H177.978a36.678,36.678,0,0,1-7.075,7.186,88.664,88.664,0,0,1-9.994,6.91,90.6,90.6,0,0,1-10.259,5.343,29.753,29.753,0,0,1-8.048,2.487l3.714,13.451a66,66,0,0,0,30.247-17.135q-.178,3.869-.266,7.461t-.088,6.726v85.671H112.521a33.844,33.844,0,0,0,12.926-13.168,42.466,42.466,0,0,0,4.952-20.913q0-12.161-4.864-21a33.635,33.635,0,0,0-13.708-13.635,42.819,42.819,0,0,0-20.7-4.791,39.507,39.507,0,0,0-13,2.3,33.078,33.078,0,0,0-11.85,7.185,25.318,25.318,0,0,0-7.164,12.806h-.707V267.2a95.608,95.608,0,0,1,2.034-20.268,55.934,55.934,0,0,1,6.1-16.4,32.967,32.967,0,0,1,9.906-10.964,23.367,23.367,0,0,1,13.442-3.961q10.435,0,16.361,4.883a27.393,27.393,0,0,1,8.579,13.358l13.09-6.449a46.929,46.929,0,0,0-8.668-14.648,31.431,31.431,0,0,0-12.116-8.292,45.757,45.757,0,0,0-16.361-2.671,39.82,39.82,0,0,0-23.26,7.186q-10.347,7.185-16.362,21.1t-6.014,34.363q0,18.24,5.13,32.336t15.212,22.2a35.5,35.5,0,0,0,3.946,2.758H18.425V18.425H321.732Z"/>
      </g>
    </g>
</svg>
