<svg xmlns="http://www.w3.org/2000/svg" width="120mm" height="120mm" viewBox="0 0 340.158 340.157">
  <g id="Zimmernummer">
      <g id="Z-04-053-R">
        <path fill="#A0552B" stroke="none" d="M337.323,0H2.835A2.836,2.836,0,0,0,0,2.835V337.323a2.834,2.834,0,0,0,2.835,2.834H337.323a2.834,2.834,0,0,0,2.835-2.834V2.835A2.836,2.836,0,0,0,337.323,0ZM321.732,321.732h-39.41a35.6,35.6,0,0,0,13.44-12.339,34.709,34.709,0,0,0,5.251-18.977,28.034,28.034,0,0,0-1.751-9.858,26.019,26.019,0,0,0-5.066-8.384,24.945,24.945,0,0,0-8.015-5.9,27,27,0,0,0-10.779-2.4v-.369a25.51,25.51,0,0,0,8.66-3.04,26.534,26.534,0,0,0,7.277-6.172,29.254,29.254,0,0,0,5.068-9.121,35.823,35.823,0,0,0,1.842-11.884,31.149,31.149,0,0,0-4.145-15.845,29.838,29.838,0,0,0-12.437-11.516q-8.292-4.328-21-4.33a49.919,49.919,0,0,0-18.518,3.316,41.476,41.476,0,0,0-14.279,9.213,38.39,38.39,0,0,0-8.844,13.634l14,6.634a34.032,34.032,0,0,1,9.581-13.727q6.081-5.067,17.688-5.067,10.87,0,16.767,4.974t5.9,14.556q0,11.241-5.711,16.491t-19.163,5.251h-2.856A28.891,28.891,0,0,1,252,256.7v14.74a49.193,49.193,0,0,1,4.975-.46q2.393-.09,4.422-.093,8.658,0,14,2.119a14.907,14.907,0,0,1,7.83,6.541A22.3,22.3,0,0,1,285.72,290.6a22.859,22.859,0,0,1-2.948,11.7,20.928,20.928,0,0,1-8.476,8.015,28.678,28.678,0,0,1-13.634,2.948q-9.583,0-15.938-2.763a25.224,25.224,0,0,1-10.226-7.832,39.41,39.41,0,0,1-6.081-11.883l-14.74,7.554a38.114,38.114,0,0,0,16.86,21.1c1.36.837,2.758,1.6,4.186,2.3H183.709a37.382,37.382,0,0,0,7.677-5.43A35.727,35.727,0,0,0,200.23,303.5a43.9,43.9,0,0,0,3.132-16.952,42.692,42.692,0,0,0-4.79-20.635,34.235,34.235,0,0,0-13.359-13.727q-8.568-4.881-20.175-4.883a44.332,44.332,0,0,0-16.491,2.764,31.854,31.854,0,0,0-11.332,7.37h-.368l.368-1.658,4.791-38.324h55.828v-13.82H129.477l-7.186,66.884,12.9,2.4a24.6,24.6,0,0,1,7-6.818,29.492,29.492,0,0,1,9.121-3.777,47.6,47.6,0,0,1,10.963-1.2,30.3,30.3,0,0,1,14,2.948,20.106,20.106,0,0,1,8.752,8.752q3.041,5.8,3.04,14.464a27.589,27.589,0,0,1-3.317,13.911,22.506,22.506,0,0,1-9.3,8.936,30.853,30.853,0,0,1-14.464,3.132q-11.979,0-18.149-5.988a35.861,35.861,0,0,1-9.12-15.569l-14.372,7.554q5.341,13.086,15.2,20.452a31.946,31.946,0,0,0,3.074,2.021H18.425V18.425H321.732Z"/>
      </g>
    </g>
</svg>
