<svg xmlns="http://www.w3.org/2000/svg" width="120mm" height="120mm" viewBox="0 0 340.158 340.157">
  <g id="Zimmernummer">
      <g id="Z-04-636-E">
        <path fill="#A09f9d" stroke="none" d="M337.323,0H2.835A2.836,2.836,0,0,0,0,2.835V337.323a2.834,2.834,0,0,0,2.835,2.834H337.323a2.834,2.834,0,0,0,2.835-2.834V2.835A2.836,2.836,0,0,0,337.323,0ZM55.757,300.273A25.082,25.082,0,0,1,52.4,287.468a25.9,25.9,0,0,1,3.184-12.99,22.96,22.96,0,0,1,8.933-8.844,26.849,26.849,0,0,1,13.354-3.225,28.849,28.849,0,0,1,13.8,3.04,20.779,20.779,0,0,1,8.667,8.66,27.95,27.95,0,0,1,3.007,13.359q0,11.979-6.722,18.7T77.867,312.9a24.988,24.988,0,0,1-22.11-12.622Zm185.9,0a25.072,25.072,0,0,1-3.361-12.805,25.9,25.9,0,0,1,3.184-12.99,22.971,22.971,0,0,1,8.932-8.844,26.854,26.854,0,0,1,13.356-3.225,28.841,28.841,0,0,1,13.8,3.04,20.77,20.77,0,0,1,8.668,8.66,27.961,27.961,0,0,1,3.007,13.359q0,11.979-6.721,18.7T263.767,312.9a24.992,24.992,0,0,1-22.111-12.622Zm80.076,21.459H286.218a33.855,33.855,0,0,0,12.925-13.168,42.474,42.474,0,0,0,4.952-20.913q0-12.159-4.864-21a33.635,33.635,0,0,0-13.709-13.634,42.8,42.8,0,0,0-20.695-4.791,39.505,39.505,0,0,0-13,2.3,33.066,33.066,0,0,0-11.85,7.186,25.307,25.307,0,0,0-7.164,12.806H232.1V267.2a95.59,95.59,0,0,1,2.035-20.267,55.94,55.94,0,0,1,6.1-16.4,32.985,32.985,0,0,1,9.9-10.964,23.382,23.382,0,0,1,13.443-3.961q10.435,0,16.362,4.883a27.4,27.4,0,0,1,8.578,13.359l13.09-6.45a46.953,46.953,0,0,0-8.667-14.647,31.431,31.431,0,0,0-12.117-8.292,45.757,45.757,0,0,0-16.361-2.672,39.819,39.819,0,0,0-23.26,7.187q-10.349,7.185-16.361,21.1t-6.015,34.364q0,18.24,5.13,32.335t15.212,22.2a35.524,35.524,0,0,0,3.945,2.757H190.107a34.771,34.771,0,0,0,12.9-12.338,35.8,35.8,0,0,0,5.041-18.978,29.083,29.083,0,0,0-1.681-9.857,26.234,26.234,0,0,0-4.864-8.384,24.041,24.041,0,0,0-7.694-5.9,25.076,25.076,0,0,0-10.348-2.394v-.369a23.858,23.858,0,0,0,8.313-3.04,25.794,25.794,0,0,0,6.988-6.172,29.641,29.641,0,0,0,4.864-9.121A37.189,37.189,0,0,0,205.4,233.3a32.168,32.168,0,0,0-3.979-15.846,29.134,29.134,0,0,0-11.939-11.515q-7.961-4.328-20.166-4.331a46.219,46.219,0,0,0-17.776,3.317,39.7,39.7,0,0,0-13.709,9.213,38.589,38.589,0,0,0-8.49,13.634L142.78,234.4a34.07,34.07,0,0,1,9.2-13.726q5.835-5.067,16.98-5.068,10.434,0,16.1,4.975t5.66,14.556q0,11.241-5.484,16.491t-18.395,5.251H164.1a26.666,26.666,0,0,1-3.1-.185v14.741a44.887,44.887,0,0,1,4.775-.46q2.3-.092,4.247-.093,8.312,0,13.442,2.119a14.468,14.468,0,0,1,7.517,6.541,23.065,23.065,0,0,1,2.388,11.055,23.609,23.609,0,0,1-2.83,11.7,20.458,20.458,0,0,1-8.137,8.014,26.615,26.615,0,0,1-13.089,2.949q-9.2,0-15.3-2.764a24.363,24.363,0,0,1-9.818-7.831,40.046,40.046,0,0,1-5.837-11.884l-14.15,7.555a37.875,37.875,0,0,0,16.185,21.1c1.305.836,2.647,1.6,4.018,2.3H100.32a33.844,33.844,0,0,0,12.923-13.168,42.463,42.463,0,0,0,4.953-20.913q0-12.159-4.864-21a33.635,33.635,0,0,0-13.709-13.634,42.8,42.8,0,0,0-20.694-4.791,39.5,39.5,0,0,0-13,2.3,33.083,33.083,0,0,0-11.852,7.186,25.313,25.313,0,0,0-7.163,12.806h-.708V267.2a95.657,95.657,0,0,1,2.034-20.267,56,56,0,0,1,6.1-16.4,32.975,32.975,0,0,1,9.905-10.964,23.38,23.38,0,0,1,13.443-3.961q10.434,0,16.362,4.883a27.419,27.419,0,0,1,8.579,13.359l13.089-6.45a46.953,46.953,0,0,0-8.667-14.647,31.435,31.435,0,0,0-12.116-8.292,45.776,45.776,0,0,0-16.363-2.672,39.826,39.826,0,0,0-23.26,7.187q-10.347,7.185-16.361,21.1t-6.015,34.364q0,18.24,5.13,32.335t15.212,22.2a35.536,35.536,0,0,0,3.946,2.757h-38.8V18.425H321.732Z"/>
      </g>
    </g>
</svg>
