<svg xmlns="http://www.w3.org/2000/svg" width="120mm" height="120mm" viewBox="0 0 340.158 340.158">
  <g id="Zimmernummer">
      <g id="Z-04-144">
        <path fill="#000000" stroke="none" d="M337.323,0H2.835A2.836,2.836,0,0,0,0,2.835V337.323a2.836,2.836,0,0,0,2.835,2.835H337.323a2.836,2.836,0,0,0,2.835-2.835V2.835A2.836,2.836,0,0,0,337.323,0ZM155.785,280.65H113.864l30.6-44.773q2.827-4.236,6.191-9.949t5.483-10.319h.354q-.177,4.794-.442,9.766t-.265,9.765Zm101.882,0H215.746l30.6-44.773q2.826-4.236,6.191-9.949t5.483-10.319h.354q-.179,4.794-.442,9.766t-.266,9.765Zm64.065,41.082H271.818V293.363h20.695V280.65H271.818V203.633H253.953l-53.242,78.86v10.87h56.956v28.369H169.935V293.363H190.63V280.65H169.935V203.633H152.07l-53.241,78.86v10.87h56.956v28.369H86.27v-118.1H73.888a36.675,36.675,0,0,1-7.075,7.185,88.71,88.71,0,0,1-9.994,6.911,90.58,90.58,0,0,1-10.259,5.342,29.787,29.787,0,0,1-8.048,2.488l3.715,13.451A63.322,63.322,0,0,0,58.5,232.469a63.723,63.723,0,0,0,13.973-10.595q-.178,3.869-.265,7.462t-.088,6.726v85.67h-53.7V18.425H321.732Z"/>
      </g>
    </g>
</svg>
