<svg xmlns="http://www.w3.org/2000/svg" width="120mm" height="120mm" viewBox="0 0 340.158 340.158">
  <g id="Zimmernummer">
      <g id="Z-04-407-M">
        <path fill="#D4AF37" stroke="none" d="M337.323,0H2.835A2.836,2.836,0,0,0,0,2.835V337.323a2.836,2.836,0,0,0,2.835,2.835H337.323a2.836,2.836,0,0,0,2.835-2.835V2.835A2.836,2.836,0,0,0,337.323,0ZM92.81,280.651H50.889l30.6-44.774q2.828-4.236,6.19-9.949t5.484-10.318h.353q-.177,4.792-.441,9.765t-.266,9.765Zm56.866,10.871q-3.274-11.055-3.272-27.085t3.272-27.086q3.272-11.053,9.729-16.674a25.107,25.107,0,0,1,31.662,0q6.454,5.622,9.728,16.674t3.273,27.086q0,16.031-3.273,27.085T191.067,308.2a25.111,25.111,0,0,1-31.662,0Q152.946,302.578,149.676,291.522Zm172.056,30.21H265.667a171.644,171.644,0,0,1,4.2-35.554A139.2,139.2,0,0,1,283.4,250.709a173.221,173.221,0,0,1,23.968-33.256v-13.82H221.4v13.82h70.584a164.574,164.574,0,0,0-21.235,30.033,156.12,156.12,0,0,0-14.769,37.679,165.573,165.573,0,0,0-4.812,36.567h-55.61a39.826,39.826,0,0,0,11.427-10.68q11.762-16.029,11.763-46.615t-11.763-46.616q-11.766-16.031-31.75-16.03-19.812,0-31.662,16.03t-11.851,46.616q0,30.586,11.851,46.615a40.282,40.282,0,0,0,11.452,10.68H106.96V293.364h20.7V280.651h-20.7V203.633H89.1L35.854,282.494v10.87H92.81v28.368H18.425V18.425H321.732Z"/>
      </g>
    </g>
</svg>
