<svg xmlns="http://www.w3.org/2000/svg" width="120mm" height="120mm" viewBox="0 0 340.158 340.157">
  <g id="Zimmernummer">
      <g id="Z-04-033-M">
        <path fill="#D4AF37" stroke="none" d="M337.323,0H2.835A2.836,2.836,0,0,0,0,2.835V337.323a2.834,2.834,0,0,0,2.835,2.834H337.323a2.834,2.834,0,0,0,2.835-2.834V2.835A2.836,2.836,0,0,0,337.323,0ZM321.732,321.732h-39.41a35.6,35.6,0,0,0,13.44-12.339,34.7,34.7,0,0,0,5.251-18.977,28.033,28.033,0,0,0-1.75-9.858,26.006,26.006,0,0,0-5.068-8.384,24.93,24.93,0,0,0-8.014-5.9,27,27,0,0,0-10.779-2.4v-.369a25.51,25.51,0,0,0,8.66-3.04,26.553,26.553,0,0,0,7.278-6.172,29.272,29.272,0,0,0,5.067-9.121,35.823,35.823,0,0,0,1.842-11.884,31.149,31.149,0,0,0-4.145-15.845,29.832,29.832,0,0,0-12.437-11.516q-8.292-4.328-21-4.33a49.91,49.91,0,0,0-18.517,3.316,41.49,41.49,0,0,0-14.28,9.213,38.39,38.39,0,0,0-8.844,13.634l14,6.634a34.042,34.042,0,0,1,9.581-13.727q6.081-5.067,17.688-5.067,10.87,0,16.767,4.974t5.9,14.556q0,11.241-5.712,16.491t-19.162,5.251h-2.855A28.9,28.9,0,0,1,252,256.7v14.74a49.22,49.22,0,0,1,4.975-.46q2.391-.09,4.421-.093,8.659,0,14,2.119a14.907,14.907,0,0,1,7.83,6.541A22.3,22.3,0,0,1,285.72,290.6a22.859,22.859,0,0,1-2.948,11.7,20.928,20.928,0,0,1-8.476,8.015,28.678,28.678,0,0,1-13.634,2.948q-9.583,0-15.938-2.763a25.217,25.217,0,0,1-10.226-7.832,39.41,39.41,0,0,1-6.081-11.883l-14.739,7.554a38.108,38.108,0,0,0,16.859,21.1c1.36.837,2.758,1.6,4.187,2.3H184.117a35.6,35.6,0,0,0,13.44-12.339,34.7,34.7,0,0,0,5.251-18.977,28.033,28.033,0,0,0-1.75-9.858,26.021,26.021,0,0,0-5.067-8.384,24.945,24.945,0,0,0-8.015-5.9,27.006,27.006,0,0,0-10.779-2.4v-.369a25.5,25.5,0,0,0,8.659-3.04,26.542,26.542,0,0,0,7.279-6.172,29.252,29.252,0,0,0,5.067-9.121,35.823,35.823,0,0,0,1.842-11.884,31.14,31.14,0,0,0-4.146-15.845,29.82,29.82,0,0,0-12.437-11.516q-8.291-4.328-21-4.33a49.919,49.919,0,0,0-18.518,3.316,41.5,41.5,0,0,0-14.279,9.213,38.4,38.4,0,0,0-8.844,13.634l14,6.634a34.042,34.042,0,0,1,9.581-13.727q6.081-5.067,17.688-5.067,10.869,0,16.767,4.974t5.9,14.556q0,11.241-5.711,16.491t-19.163,5.251h-2.856a28.9,28.9,0,0,1-3.224-.184v14.74a49.227,49.227,0,0,1,4.974-.46q2.394-.09,4.423-.093,8.658,0,14,2.119a14.907,14.907,0,0,1,7.83,6.541,22.3,22.3,0,0,1,2.488,11.055,22.859,22.859,0,0,1-2.948,11.7,20.928,20.928,0,0,1-8.476,8.015,28.678,28.678,0,0,1-13.634,2.948q-9.583,0-15.938-2.763a25.224,25.224,0,0,1-10.226-7.832,39.386,39.386,0,0,1-6.08-11.883l-14.74,7.554a38.108,38.108,0,0,0,16.859,21.1c1.36.837,2.758,1.6,4.187,2.3H18.425V18.425H321.732Z"/>
      </g>
    </g>
</svg>
