<svg xmlns="http://www.w3.org/2000/svg" width="120mm" height="120mm" viewBox="0 0 340.158 340.157">
  <g id="Zimmernummer">
      <g id="Z-04-605-E">
        <path fill="#A09f9d" stroke="none" d="M337.323,0H2.835A2.836,2.836,0,0,0,0,2.835V337.323a2.834,2.834,0,0,0,2.835,2.834H337.323a2.834,2.834,0,0,0,2.835-2.834V2.835A2.836,2.836,0,0,0,337.323,0ZM54.607,300.273a25.072,25.072,0,0,1-3.361-12.805,25.912,25.912,0,0,1,3.183-12.99,22.973,22.973,0,0,1,8.933-8.844,26.852,26.852,0,0,1,13.354-3.225,28.846,28.846,0,0,1,13.8,3.04,20.781,20.781,0,0,1,8.668,8.66,27.961,27.961,0,0,1,3.007,13.359q0,11.979-6.722,18.7T76.716,312.9a24.988,24.988,0,0,1-22.109-12.622Zm90.295-8.752q-3.274-11.055-3.272-27.084t3.272-27.086q3.272-11.055,9.728-16.674a25.107,25.107,0,0,1,31.662,0q6.456,5.622,9.729,16.674t3.272,27.086q0,16.029-3.272,27.084T186.292,308.2a25.111,25.111,0,0,1-31.662,0Q148.172,302.577,144.9,291.521Zm176.83,30.211H286.025A35.2,35.2,0,0,0,301.884,303.5a45.519,45.519,0,0,0,3.007-16.951,44.145,44.145,0,0,0-4.6-20.636,33.627,33.627,0,0,0-12.824-13.726A37.248,37.248,0,0,0,268.1,247.3a41.058,41.058,0,0,0-15.831,2.763,30.472,30.472,0,0,0-10.878,7.371h-.353l.353-1.659,4.6-38.324h53.6V203.633H233.961l-6.9,66.884,12.382,2.395a24.084,24.084,0,0,1,6.722-6.817,27.682,27.682,0,0,1,8.754-3.778,44.016,44.016,0,0,1,10.525-1.2,28.114,28.114,0,0,1,13.443,2.948,19.734,19.734,0,0,1,8.4,8.752q2.918,5.8,2.917,14.464a28.521,28.521,0,0,1-3.183,13.911,22.036,22.036,0,0,1-8.933,8.937,28.633,28.633,0,0,1-13.885,3.132q-11.5,0-17.423-5.989a36.2,36.2,0,0,1-8.755-15.569l-13.8,7.555q5.128,13.085,14.593,20.452a30.292,30.292,0,0,0,2.95,2.02H190.785a39.84,39.84,0,0,0,11.427-10.68q11.762-16.031,11.762-46.615T202.212,217.82q-11.764-16.029-31.751-16.03-19.812,0-31.661,16.03t-11.851,46.617q0,30.585,11.851,46.615a40.31,40.31,0,0,0,11.452,10.68H99.168a33.842,33.842,0,0,0,12.925-13.168,42.463,42.463,0,0,0,4.952-20.913q0-12.159-4.864-21a33.627,33.627,0,0,0-13.708-13.634,42.8,42.8,0,0,0-20.695-4.791,39.5,39.5,0,0,0-13,2.3,33.079,33.079,0,0,0-11.851,7.186,25.314,25.314,0,0,0-7.164,12.806h-.707V267.2a95.657,95.657,0,0,1,2.034-20.267,55.968,55.968,0,0,1,6.1-16.4A33,33,0,0,1,63.1,219.57a23.377,23.377,0,0,1,13.443-3.961q10.435,0,16.362,4.883a27.411,27.411,0,0,1,8.578,13.359l13.09-6.45a46.954,46.954,0,0,0-8.668-14.647,31.42,31.42,0,0,0-12.116-8.292,45.766,45.766,0,0,0-16.362-2.672,39.818,39.818,0,0,0-23.259,7.187q-10.349,7.185-16.363,21.1t-6.013,34.364q0,18.24,5.129,32.335t15.212,22.2a35.629,35.629,0,0,0,3.946,2.757H18.425V18.425H321.732Z"/>
      </g>
    </g>
</svg>
