<svg xmlns="http://www.w3.org/2000/svg" width="120mm" height="120mm" viewBox="0 0 340.158 340.157">
  <g id="Zimmernummer">
      <g id="Z-04-120-E">
        <path fill="#A09f9d" stroke="none" d="M337.323,0H2.835A2.836,2.836,0,0,0,0,2.835V337.323a2.834,2.834,0,0,0,2.835,2.834H337.323a2.834,2.834,0,0,0,2.835-2.834V2.835A2.836,2.836,0,0,0,337.323,0ZM214.5,291.521q-3.274-11.055-3.272-27.084t3.272-27.086q3.272-11.055,9.729-16.674a25.107,25.107,0,0,1,31.662,0q6.454,5.622,9.728,16.674t3.273,27.086q0,16.029-3.273,27.084T255.9,308.2a25.111,25.111,0,0,1-31.662,0Q217.774,302.577,214.5,291.521Zm107.228,30.211H260.387a39.84,39.84,0,0,0,11.427-10.68q11.761-16.031,11.763-46.615T271.814,217.82q-11.766-16.029-31.751-16.03-19.812,0-31.661,16.03t-11.851,46.617q0,30.585,11.851,46.615a40.3,40.3,0,0,0,11.452,10.68H189.477V311.42h-40.86q-1.77,0-5.218.093t-6.9.183q-3.449.1-5.394.277v-.184q20.87-14.553,33.077-26.532t17.511-22.94A50.861,50.861,0,0,0,187,239.931a42.164,42.164,0,0,0-2.741-15.478,34.42,34.42,0,0,0-7.871-12.068,35.378,35.378,0,0,0-12.294-7.83,44.678,44.678,0,0,0-16.184-2.765q-11.853,0-20.431,4.606A35.538,35.538,0,0,0,113.86,219.11a48.788,48.788,0,0,0-6.633,18.794l12.381,7.739q1.236-13.633,8.491-21.834t19.28-8.2q11.5,0,18.13,6.726t6.634,17.6a41.281,41.281,0,0,1-3.008,15.569,58.812,58.812,0,0,1-10.082,15.754,176.031,176.031,0,0,1-18.838,18.425q-11.764,10.135-29.274,23.584v8.469H92.192v-118.1H79.81a36.7,36.7,0,0,1-7.075,7.185,88.71,88.71,0,0,1-9.994,6.911,90.58,90.58,0,0,1-10.259,5.342,29.8,29.8,0,0,1-8.048,2.488l3.714,13.451a63.308,63.308,0,0,0,16.273-6.541A63.706,63.706,0,0,0,78.4,221.874q-.178,3.869-.265,7.462t-.088,6.726v85.67H18.425V18.425H321.732Z"/>
      </g>
    </g>
</svg>
