<svg xmlns="http://www.w3.org/2000/svg" width="120mm" height="120mm" viewBox="0 0 340.158 340.157">
  <g id="Zimmernummer">
      <g id="Z-04-530-M">
        <path fill="#D4AF37" stroke="none" d="M337.323,0H2.835A2.836,2.836,0,0,0,0,2.835V337.323a2.834,2.834,0,0,0,2.835,2.834H337.323a2.834,2.834,0,0,0,2.835-2.834V2.835A2.836,2.836,0,0,0,337.323,0ZM233.252,291.521q-3.275-11.055-3.273-27.084t3.273-27.086q3.271-11.055,9.728-16.674a25.109,25.109,0,0,1,31.663,0q6.455,5.622,9.728,16.674t3.273,27.086q0,16.029-3.273,27.084T274.643,308.2a25.112,25.112,0,0,1-31.663,0Q236.523,302.577,233.252,291.521Zm88.48,30.211h-42.6a39.84,39.84,0,0,0,11.427-10.68q11.76-16.031,11.762-46.615T290.562,217.82q-11.764-16.029-31.75-16.03-19.812,0-31.663,16.03T215.3,264.437q0,30.585,11.85,46.615a40.326,40.326,0,0,0,11.453,10.68H186.568a34.752,34.752,0,0,0,12.9-12.338,35.8,35.8,0,0,0,5.042-18.978,29.083,29.083,0,0,0-1.681-9.857,26.252,26.252,0,0,0-4.864-8.384,24.045,24.045,0,0,0-7.7-5.9,25.067,25.067,0,0,0-10.347-2.394v-.369a23.865,23.865,0,0,0,8.313-3.04,25.805,25.805,0,0,0,6.987-6.172,29.6,29.6,0,0,0,4.864-9.121,37.16,37.16,0,0,0,1.769-11.884,32.158,32.158,0,0,0-3.98-15.846,29.128,29.128,0,0,0-11.939-11.515q-7.96-4.328-20.165-4.331A46.224,46.224,0,0,0,148,204.923a39.687,39.687,0,0,0-13.708,9.213,38.589,38.589,0,0,0-8.49,13.634l13.443,6.633a34.067,34.067,0,0,1,9.2-13.726q5.838-5.067,16.981-5.068,10.435,0,16.1,4.975t5.66,14.556q0,11.241-5.484,16.491t-18.4,5.251h-2.742a26.649,26.649,0,0,1-3.095-.185v14.741a44.837,44.837,0,0,1,4.775-.46q2.3-.092,4.245-.093,8.313,0,13.444,2.119a14.468,14.468,0,0,1,7.517,6.541,23.065,23.065,0,0,1,2.388,11.055A23.609,23.609,0,0,1,187,302.3a20.458,20.458,0,0,1-8.137,8.014,26.615,26.615,0,0,1-13.089,2.949q-9.2,0-15.3-2.764a24.354,24.354,0,0,1-9.817-7.831,40.047,40.047,0,0,1-5.838-11.884l-14.15,7.555a37.879,37.879,0,0,0,16.185,21.1c1.306.836,2.647,1.6,4.018,2.3H95.437A35.2,35.2,0,0,0,111.3,303.5a45.5,45.5,0,0,0,3.007-16.951,44.133,44.133,0,0,0-4.6-20.636A33.627,33.627,0,0,0,96.88,252.184,37.252,37.252,0,0,0,77.512,247.3a41.055,41.055,0,0,0-15.831,2.763A30.472,30.472,0,0,0,50.8,257.435h-.355l.355-1.659,4.6-38.324H109V203.633H43.373l-6.9,66.884,12.381,2.395a24.1,24.1,0,0,1,6.722-6.817,27.7,27.7,0,0,1,8.756-3.778,44,44,0,0,1,10.524-1.2A28.118,28.118,0,0,1,88.3,264.067a19.719,19.719,0,0,1,8.4,8.752q2.919,5.8,2.919,14.464a28.51,28.51,0,0,1-3.184,13.911,22.039,22.039,0,0,1-8.932,8.937,28.637,28.637,0,0,1-13.886,3.132q-11.5,0-17.423-5.989a36.205,36.205,0,0,1-8.756-15.569l-13.8,7.555q5.127,13.085,14.592,20.452a30.428,30.428,0,0,0,2.951,2.02H18.425V18.425H321.732Z"/>
      </g>
    </g>
</svg>
