<svg xmlns="http://www.w3.org/2000/svg" width="120mm" height="120mm" viewBox="0 0 340.158 340.158">
  <g id="Zimmernummer">
      <g id="Z-04-629">
        <path fill="#000000" stroke="none" d="M337.323,0H2.835A2.836,2.836,0,0,0,0,2.835V337.323a2.836,2.836,0,0,0,2.835,2.835H337.323a2.836,2.836,0,0,0,2.835-2.835V2.835A2.836,2.836,0,0,0,337.323,0ZM54.961,300.273A25.072,25.072,0,0,1,51.6,287.468a25.912,25.912,0,0,1,3.183-12.99,22.973,22.973,0,0,1,8.933-8.844,26.852,26.852,0,0,1,13.354-3.225,28.846,28.846,0,0,1,13.8,3.04,20.775,20.775,0,0,1,8.668,8.66,27.961,27.961,0,0,1,3.007,13.359q0,11.979-6.722,18.7T77.07,312.9a24.988,24.988,0,0,1-22.109-12.622Zm266.771,21.459H281.074c.98-.57,1.937-1.175,2.857-1.836q9.99-7.186,15.123-21.1t5.13-34.362q0-18.425-5.13-32.521t-15.212-22.11q-10.083-8.016-24.764-8.016-12.561,0-21.579,5.067a34.112,34.112,0,0,0-13.8,14.188q-4.774,9.12-4.776,21.649,0,11.609,4.953,20.084a34.224,34.224,0,0,0,13.8,13.174,42.7,42.7,0,0,0,20.342,4.7,41.485,41.485,0,0,0,13.177-2.211,31.608,31.608,0,0,0,11.94-7.278,27.352,27.352,0,0,0,7.428-13.358h.708v1.658a149.008,149.008,0,0,1-1.5,22.11,57.388,57.388,0,0,1-5.041,17.044,26.115,26.115,0,0,1-9.641,10.87q-6.1,3.78-15.3,3.778-11.322,0-17.776-5.9a33.08,33.08,0,0,1-9.287-15.477l-13.974,7.738q5.129,13.452,15.566,20.452,1.314.882,2.694,1.652H207.431V311.42H166.57q-1.769,0-5.217.093t-6.9.183q-3.45.1-5.394.277v-.184q20.87-14.553,33.076-26.532t17.511-22.94a50.835,50.835,0,0,0,5.307-22.386,42.144,42.144,0,0,0-2.742-15.478,34.392,34.392,0,0,0-7.871-12.068,35.373,35.373,0,0,0-12.293-7.83,44.683,44.683,0,0,0-16.185-2.765q-11.853,0-20.429,4.606a35.53,35.53,0,0,0-13.621,12.714,48.77,48.77,0,0,0-6.632,18.794l12.381,7.739q1.236-13.633,8.491-21.834t19.279-8.2q11.5,0,18.131,6.726t6.633,17.6a41.281,41.281,0,0,1-3.007,15.569,58.837,58.837,0,0,1-10.082,15.754,176.031,176.031,0,0,1-18.838,18.425Q146.4,299.814,128.9,313.263v8.469H99.522a33.842,33.842,0,0,0,12.925-13.168,42.463,42.463,0,0,0,4.952-20.913q0-12.159-4.864-21a33.627,33.627,0,0,0-13.708-13.634,42.8,42.8,0,0,0-20.695-4.791,39.505,39.505,0,0,0-13,2.3,33.079,33.079,0,0,0-11.851,7.186,25.321,25.321,0,0,0-7.164,12.806h-.707V267.2a95.657,95.657,0,0,1,2.034-20.267,55.941,55.941,0,0,1,6.1-16.4,32.985,32.985,0,0,1,9.905-10.964,23.377,23.377,0,0,1,13.443-3.961q10.435,0,16.362,4.883a27.411,27.411,0,0,1,8.578,13.359l13.09-6.45a46.954,46.954,0,0,0-8.668-14.647,31.42,31.42,0,0,0-12.116-8.292,45.766,45.766,0,0,0-16.362-2.672,39.818,39.818,0,0,0-23.259,7.187q-10.349,7.185-16.363,21.1t-6.013,34.364q0,18.24,5.129,32.335t15.212,22.2a35.547,35.547,0,0,0,3.947,2.757H18.425V18.425H321.732ZM284.727,241.4a25.9,25.9,0,0,1-3.184,12.991,22.957,22.957,0,0,1-8.933,8.843,26.836,26.836,0,0,1-13.354,3.225q-11.674,0-18.573-6.357t-6.9-17.227q0-12.714,6.545-19.808t18.927-7.093a27.487,27.487,0,0,1,13.354,3.132,22.215,22.215,0,0,1,8.933,8.844A27.2,27.2,0,0,1,284.727,241.4Z"/>
      </g>
    </g>
</svg>
