<svg xmlns="http://www.w3.org/2000/svg" width="120mm" height="120mm" viewBox="0 0 340.158 340.157">
  <g id="Zimmernummer">
      <g id="Z-04-628-E">
        <path fill="#A09f9d" stroke="none" d="M337.323,0H2.835A2.836,2.836,0,0,0,0,2.835V337.323a2.834,2.834,0,0,0,2.835,2.834H337.323a2.834,2.834,0,0,0,2.835-2.834V2.835A2.836,2.836,0,0,0,337.323,0ZM55.048,300.274a25.089,25.089,0,0,1-3.36-12.807,25.915,25.915,0,0,1,3.183-12.99,22.993,22.993,0,0,1,8.933-8.844,26.873,26.873,0,0,1,13.354-3.224,28.823,28.823,0,0,1,13.8,3.041,20.762,20.762,0,0,1,8.667,8.66,27.944,27.944,0,0,1,3.008,13.357q0,11.981-6.722,18.7T77.158,312.9a24.99,24.99,0,0,1-22.11-12.621ZM246.52,271.161a41.423,41.423,0,0,1,29.273,0,21.778,21.778,0,0,1,9.641,7.738,21.221,21.221,0,0,1-9.464,31.691,42.4,42.4,0,0,1-29.628,0,21.772,21.772,0,0,1-9.551-31.691A21.692,21.692,0,0,1,246.52,271.161Zm-7.872-35.836q0-9.211,6.1-14.371t16.362-5.161q10.434,0,16.45,5.161t6.014,14.371q0,9.029-6.191,14.187t-16.273,5.158q-10.082,0-16.273-5.158T238.648,235.325Zm83.084,86.407H285.784a33.772,33.772,0,0,0,12.473-10.864,31.777,31.777,0,0,0,5.306-18.426q0-11.423-5.925-19.346A35.347,35.347,0,0,0,281.807,261.3v-.183a27.776,27.776,0,0,0,12.117-10.78,30.992,30.992,0,0,0,4.333-16.49,30.651,30.651,0,0,0-4.6-17.043,30.137,30.137,0,0,0-12.912-10.963,51.53,51.53,0,0,0-39.18,0,30.03,30.03,0,0,0-13,10.963q-4.6,7.1-4.6,17.043a30.408,30.408,0,0,0,4.511,16.676,27.885,27.885,0,0,0,12.116,10.594v.183a34.293,34.293,0,0,0-16.1,11.885q-5.837,8.016-5.837,19.254a31.778,31.778,0,0,0,5.307,18.426,33.621,33.621,0,0,0,12.54,10.864H207.518V311.42h-40.86q-1.768,0-5.218.092t-6.9.184q-3.45.1-5.4.277v-.183q20.871-14.556,33.078-26.534t17.511-22.939a50.87,50.87,0,0,0,5.307-22.387,42.137,42.137,0,0,0-2.742-15.476,34.387,34.387,0,0,0-7.871-12.069,35.4,35.4,0,0,0-12.293-7.83,44.662,44.662,0,0,0-16.185-2.765q-11.853,0-20.43,4.607A35.524,35.524,0,0,0,131.9,219.11a48.787,48.787,0,0,0-6.633,18.795l12.381,7.738q1.237-13.635,8.491-21.834t19.28-8.2q11.5,0,18.131,6.724t6.633,17.6a41.282,41.282,0,0,1-3.007,15.57A58.852,58.852,0,0,1,177.1,271.254a175.937,175.937,0,0,1-18.838,18.424q-11.766,10.137-29.275,23.584v8.47H99.611a33.843,33.843,0,0,0,12.924-13.167,42.472,42.472,0,0,0,4.952-20.914q0-12.159-4.864-21a33.629,33.629,0,0,0-13.708-13.635,42.817,42.817,0,0,0-20.7-4.791,39.5,39.5,0,0,0-13,2.305,33.076,33.076,0,0,0-11.851,7.185A25.319,25.319,0,0,0,46.2,270.516H45.5V267.2a95.68,95.68,0,0,1,2.034-20.268,55.983,55.983,0,0,1,6.1-16.4,32.974,32.974,0,0,1,9.906-10.963,23.361,23.361,0,0,1,13.442-3.961q10.436,0,16.362,4.883a27.4,27.4,0,0,1,8.579,13.357l13.089-6.449a46.934,46.934,0,0,0-8.667-14.647,31.444,31.444,0,0,0-12.116-8.293,45.767,45.767,0,0,0-16.362-2.671,39.824,39.824,0,0,0-23.26,7.187q-10.347,7.183-16.362,21.1T32.23,264.436q0,18.24,5.13,32.336t15.212,22.2a35.524,35.524,0,0,0,3.945,2.757H18.425V18.425H321.732Z"/>
      </g>
    </g>
</svg>
