<svg xmlns="http://www.w3.org/2000/svg" width="120mm" height="120mm" viewBox="0 0 340.158 340.157">
  <g id="Zimmernummer">
      <g id="Z-04-056">
        <path fill="#000000" stroke="none" d="M337.323,0H2.835A2.836,2.836,0,0,0,0,2.835V337.323a2.834,2.834,0,0,0,2.835,2.834H337.323a2.834,2.834,0,0,0,2.835-2.834V2.835A2.836,2.836,0,0,0,337.323,0ZM236.894,300.273a24.312,24.312,0,0,1-3.5-12.805,25.086,25.086,0,0,1,3.316-12.99,23.482,23.482,0,0,1,9.3-8.844,28.907,28.907,0,0,1,13.911-3.225,31.086,31.086,0,0,1,14.371,3.04,21.232,21.232,0,0,1,9.029,8.66,27.039,27.039,0,0,1,3.132,13.359q0,11.979-7,18.7T259.926,312.9a26.855,26.855,0,0,1-13.543-3.41A25.733,25.733,0,0,1,236.894,300.273Zm84.838,21.459H283.314a34.55,34.55,0,0,0,13.462-13.168,41.1,41.1,0,0,0,5.159-20.913q0-12.159-5.066-21a34.389,34.389,0,0,0-14.28-13.634q-9.216-4.791-21.558-4.791a42.682,42.682,0,0,0-13.542,2.3,34.746,34.746,0,0,0-12.345,7.186,25.074,25.074,0,0,0-7.462,12.806h-.737V267.2a91.944,91.944,0,0,1,2.119-20.267,54.588,54.588,0,0,1,6.356-16.4,33.517,33.517,0,0,1,10.319-10.964,25.084,25.084,0,0,1,14-3.961q10.869,0,17.043,4.883a27.33,27.33,0,0,1,8.936,13.359l13.635-6.45a46.609,46.609,0,0,0-9.028-14.647,32.824,32.824,0,0,0-12.622-8.292,49.467,49.467,0,0,0-17.043-2.672,42.7,42.7,0,0,0-24.229,7.187q-10.779,7.185-17.044,21.1t-6.264,34.364q0,18.24,5.343,32.335t15.846,22.2a37.109,37.109,0,0,0,4.109,2.757H179.105a37.409,37.409,0,0,0,7.676-5.429,35.744,35.744,0,0,0,8.844-12.806,43.9,43.9,0,0,0,3.132-16.951,42.688,42.688,0,0,0-4.791-20.636,34.223,34.223,0,0,0-13.358-13.726q-8.568-4.881-20.176-4.883a44.351,44.351,0,0,0-16.49,2.763,31.824,31.824,0,0,0-11.332,7.371h-.368l.368-1.659,4.791-38.324h55.828V203.633H124.872l-7.186,66.884,12.9,2.395a24.615,24.615,0,0,1,7-6.817,29.494,29.494,0,0,1,9.121-3.778,47.655,47.655,0,0,1,10.962-1.2,30.3,30.3,0,0,1,14,2.948,20.106,20.106,0,0,1,8.752,8.752q3.04,5.8,3.04,14.464a27.589,27.589,0,0,1-3.317,13.911,22.515,22.515,0,0,1-9.3,8.937,30.853,30.853,0,0,1-14.464,3.132q-11.979,0-18.149-5.989a35.855,35.855,0,0,1-9.12-15.569l-14.372,7.555q5.342,13.085,15.2,20.452a31.922,31.922,0,0,0,3.073,2.02H18.425V18.425H321.732Z"/>
      </g>
    </g>
</svg>
