<svg xmlns="http://www.w3.org/2000/svg" width="120mm" height="120mm" viewBox="0 0 340.158 340.157">
  <g id="Zimmernummer">
      <g id="Z-04-046">
        <path fill="#000000" stroke="none" d="M337.323,0H2.835A2.836,2.836,0,0,0,0,2.835V337.323a2.834,2.834,0,0,0,2.835,2.834H337.323a2.834,2.834,0,0,0,2.835-2.834V2.835A2.836,2.836,0,0,0,337.323,0Zm-172.1,280.65H121.554l31.875-44.773q2.946-4.236,6.449-9.949a116.878,116.878,0,0,0,5.712-10.319h.368q-.184,4.794-.46,9.766t-.276,9.765Zm71.672,19.623a24.3,24.3,0,0,1-3.5-12.805,25.086,25.086,0,0,1,3.316-12.99,23.475,23.475,0,0,1,9.3-8.844,28.907,28.907,0,0,1,13.911-3.225,31.089,31.089,0,0,1,14.371,3.04,21.238,21.238,0,0,1,9.029,8.66,27.039,27.039,0,0,1,3.132,13.359q0,11.979-7,18.7t-19.53,6.726a26.853,26.853,0,0,1-13.543-3.41A25.733,25.733,0,0,1,236.894,300.273Zm84.838,21.459H283.313a34.546,34.546,0,0,0,13.463-13.168,41.1,41.1,0,0,0,5.159-20.913q0-12.159-5.067-21a34.386,34.386,0,0,0-14.279-13.634q-9.216-4.791-21.558-4.791a42.693,42.693,0,0,0-13.543,2.3,34.75,34.75,0,0,0-12.344,7.186,25.068,25.068,0,0,0-7.462,12.806h-.738V267.2a92,92,0,0,1,2.119-20.267,54.615,54.615,0,0,1,6.357-16.4,33.514,33.514,0,0,1,10.318-10.964,25.088,25.088,0,0,1,14-3.961q10.869,0,17.044,4.883a27.337,27.337,0,0,1,8.936,13.359l13.634-6.45a46.573,46.573,0,0,0-9.028-14.647,32.813,32.813,0,0,0-12.621-8.292,49.467,49.467,0,0,0-17.043-2.672,42.693,42.693,0,0,0-24.229,7.187q-10.779,7.185-17.044,21.1t-6.265,34.364q0,18.24,5.344,32.335t15.845,22.2a37.122,37.122,0,0,0,4.11,2.757H179.962V293.363h21.557V280.65H179.962V203.633h-18.61l-55.459,78.86v10.87h59.329v28.369H18.425V18.425H321.732Z"/>
      </g>
    </g>
</svg>
