<svg xmlns="http://www.w3.org/2000/svg" width="120mm" height="120mm" viewBox="0 0 340.158 340.157">
  <g id="Zimmernummer">
      <g id="Z-04-006-M">
        <path fill="#D4AF37" stroke="none" d="M339.327.831a2.835,2.835,0,0,0-2-.831H2.835A2.836,2.836,0,0,0,0,2.835V337.323a2.834,2.834,0,0,0,2.835,2.834H337.323a2.836,2.836,0,0,0,2.835-2.834V2.835A2.831,2.831,0,0,0,339.327.831ZM236.352,300.156a24.31,24.31,0,0,1-3.5-12.806,25.086,25.086,0,0,1,3.316-12.99,23.5,23.5,0,0,1,9.305-8.844,28.918,28.918,0,0,1,13.911-3.224,31.074,31.074,0,0,1,14.371,3.04,21.221,21.221,0,0,1,9.029,8.66,27.036,27.036,0,0,1,3.132,13.358q0,11.979-7,18.7t-19.531,6.725a26.855,26.855,0,0,1-13.543-3.409A25.73,25.73,0,0,1,236.352,300.156Zm85.38,21.576H282.561a34.57,34.57,0,0,0,13.672-13.285,41.1,41.1,0,0,0,5.159-20.913q0-12.16-5.067-21A34.377,34.377,0,0,0,282.046,252.9q-9.216-4.79-21.558-4.791a42.684,42.684,0,0,0-13.542,2.3,34.743,34.743,0,0,0-12.345,7.185,25.083,25.083,0,0,0-7.462,12.806H226.4v-3.316a91.975,91.975,0,0,1,2.119-20.269,54.6,54.6,0,0,1,6.356-16.4A33.521,33.521,0,0,1,245.2,219.453a25.084,25.084,0,0,1,14-3.961q10.869,0,17.043,4.883a27.323,27.323,0,0,1,8.936,13.358l13.634-6.449a46.567,46.567,0,0,0-9.028-14.648,32.8,32.8,0,0,0-12.621-8.291,49.443,49.443,0,0,0-17.043-2.672,42.7,42.7,0,0,0-24.229,7.186q-10.779,7.185-17.044,21.1t-6.264,34.362q0,18.241,5.343,32.337t15.846,22.2a37.035,37.035,0,0,0,4.324,2.875H18.425V18.425H321.732Z"/>
      </g>
    </g>
</svg>
