<svg xmlns="http://www.w3.org/2000/svg" width="120mm" height="120mm" viewBox="0 0 340.158 340.158">
  <g id="Zimmernummer">
      <g id="Z-04-219-R">
        <path fill="#A0552B" stroke="none" d="M337.323,0H2.835A2.836,2.836,0,0,0,0,2.835V337.323a2.836,2.836,0,0,0,2.835,2.835H337.323a2.836,2.836,0,0,0,2.835-2.835V2.835A2.836,2.836,0,0,0,337.323,0ZM321.732,321.732h-56.4c.98-.57,1.936-1.175,2.856-1.836q9.991-7.186,15.124-21.1t5.129-34.362q0-18.425-5.129-32.521T268.1,209.806q-10.083-8.016-24.763-8.016-12.562,0-21.58,5.067a34.112,34.112,0,0,0-13.8,14.188q-4.776,9.12-4.776,21.649,0,11.609,4.953,20.084a34.23,34.23,0,0,0,13.8,13.174,42.7,42.7,0,0,0,20.341,4.7,41.482,41.482,0,0,0,13.178-2.211,31.6,31.6,0,0,0,11.939-7.278,27.346,27.346,0,0,0,7.43-13.358h.707v1.658a148.866,148.866,0,0,1-1.5,22.11,57.358,57.358,0,0,1-5.041,17.044,26.1,26.1,0,0,1-9.639,10.87q-6.1,3.78-15.3,3.778-11.322,0-17.777-5.9a33.087,33.087,0,0,1-9.286-15.477l-13.973,7.738q5.127,13.452,15.565,20.452,1.314.882,2.694,1.652H181.609v-118.1H169.227a36.7,36.7,0,0,1-7.075,7.185,88.71,88.71,0,0,1-9.994,6.911,90.58,90.58,0,0,1-10.259,5.342,29.8,29.8,0,0,1-8.048,2.488l3.714,13.451a65.993,65.993,0,0,0,30.247-17.136q-.178,3.869-.265,7.462t-.089,6.726v85.67H128.015V311.42H87.155q-1.77,0-5.217.093t-6.9.183q-3.45.1-5.395.277v-.184q20.869-14.553,33.077-26.532t17.511-22.94a50.849,50.849,0,0,0,5.307-22.386,42.144,42.144,0,0,0-2.742-15.478,34.406,34.406,0,0,0-7.871-12.068,35.378,35.378,0,0,0-12.294-7.83,44.674,44.674,0,0,0-16.184-2.765q-11.853,0-20.43,4.606A35.534,35.534,0,0,0,52.4,219.11,48.788,48.788,0,0,0,45.765,237.9l12.381,7.739q1.236-13.633,8.491-21.834t19.28-8.2q11.5,0,18.13,6.726t6.634,17.6a41.3,41.3,0,0,1-3.007,15.569,58.842,58.842,0,0,1-10.083,15.754,175.936,175.936,0,0,1-18.838,18.425q-11.765,10.135-29.274,23.584v8.469H18.425V18.425H321.732ZM268.988,241.4a25.9,25.9,0,0,1-3.183,12.991,22.951,22.951,0,0,1-8.933,8.843,26.833,26.833,0,0,1-13.354,3.225q-11.676,0-18.573-6.357t-6.9-17.227q0-12.714,6.545-19.808t18.927-7.093a27.484,27.484,0,0,1,13.354,3.132,22.209,22.209,0,0,1,8.933,8.844A27.2,27.2,0,0,1,268.988,241.4Z"/>
      </g>
    </g>
</svg>
