<svg xmlns="http://www.w3.org/2000/svg" width="120mm" height="120mm" viewBox="0 0 340.158 340.157">
  <g id="Zimmernummer">
      <g id="Z-04-525">
        <path fill="#000000" stroke="none" d="M337.323,0H2.835A2.836,2.836,0,0,0,0,2.835V337.323a2.834,2.834,0,0,0,2.835,2.834H337.323a2.834,2.834,0,0,0,2.835-2.834V2.835A2.836,2.836,0,0,0,337.323,0ZM321.732,321.732H280.276A35.2,35.2,0,0,0,296.135,303.5a45.5,45.5,0,0,0,3.007-16.951,44.157,44.157,0,0,0-4.6-20.636,33.633,33.633,0,0,0-12.824-13.726A37.253,37.253,0,0,0,262.35,247.3a41.046,41.046,0,0,0-15.83,2.763,30.467,30.467,0,0,0-10.879,7.371h-.354l.354-1.659,4.6-38.324h53.595V203.633H228.212l-6.9,66.884,12.382,2.395a24.084,24.084,0,0,1,6.722-6.817,27.693,27.693,0,0,1,8.756-3.778,44,44,0,0,1,10.524-1.2,28.117,28.117,0,0,1,13.443,2.948,19.721,19.721,0,0,1,8.4,8.752q2.918,5.8,2.918,14.464a28.51,28.51,0,0,1-3.184,13.911,22.027,22.027,0,0,1-8.932,8.937,28.633,28.633,0,0,1-13.885,3.132q-11.5,0-17.423-5.989a36.205,36.205,0,0,1-8.756-15.569l-13.8,7.555q5.128,13.085,14.593,20.452a30.306,30.306,0,0,0,2.951,2.02h-27.8V311.42h-40.86q-1.77,0-5.219.093t-6.9.183q-3.448.1-5.395.277v-.184q20.871-14.553,33.078-26.532t17.51-22.94a50.849,50.849,0,0,0,5.307-22.386,42.164,42.164,0,0,0-2.741-15.478,34.42,34.42,0,0,0-7.871-12.068,35.378,35.378,0,0,0-12.294-7.83,44.679,44.679,0,0,0-16.185-2.765q-11.851,0-20.429,4.606a35.544,35.544,0,0,0-13.621,12.714,48.8,48.8,0,0,0-6.632,18.794l12.381,7.739q1.236-13.633,8.491-21.834t19.28-8.2q11.5,0,18.13,6.726t6.634,17.6a41.281,41.281,0,0,1-3.008,15.569A58.812,58.812,0,0,1,177.8,271.254a176.031,176.031,0,0,1-18.838,18.425Q147.2,299.814,129.69,313.263v8.469H98.976A35.205,35.205,0,0,0,114.834,303.5a45.5,45.5,0,0,0,3.008-16.951,44.133,44.133,0,0,0-4.6-20.636,33.624,33.624,0,0,0-12.823-13.726A37.251,37.251,0,0,0,81.05,247.3a41.058,41.058,0,0,0-15.831,2.763,30.472,30.472,0,0,0-10.878,7.371h-.354l.354-1.659,4.6-38.324h53.6V203.633H46.912l-6.9,66.884L52.4,272.912a24.068,24.068,0,0,1,6.721-6.817,27.7,27.7,0,0,1,8.755-3.778,44,44,0,0,1,10.524-1.2,28.116,28.116,0,0,1,13.444,2.948,19.727,19.727,0,0,1,8.4,8.752q2.919,5.8,2.918,14.464a28.521,28.521,0,0,1-3.183,13.911,22.036,22.036,0,0,1-8.933,8.937,28.635,28.635,0,0,1-13.886,3.132q-11.5,0-17.423-5.989a36.2,36.2,0,0,1-8.755-15.569l-13.8,7.555q5.129,13.085,14.592,20.452a30.306,30.306,0,0,0,2.951,2.02h-36.3V18.425H321.732Z"/>
      </g>
    </g>
</svg>
