<svg xmlns="http://www.w3.org/2000/svg" width="120mm" height="120mm" viewBox="0 0 340.158 340.158">
  <g id="Zimmernummer">
      <g id="Z-04-617-M">
        <path fill="#D4AF37" stroke="none" d="M337.323,0H2.835A2.836,2.836,0,0,0,0,2.835V337.323a2.836,2.836,0,0,0,2.835,2.835H337.323a2.836,2.836,0,0,0,2.835-2.835V2.835A2.836,2.836,0,0,0,337.323,0ZM72.559,300.274a25.085,25.085,0,0,1-3.36-12.806,25.9,25.9,0,0,1,3.183-12.99,22.973,22.973,0,0,1,8.933-8.844,26.859,26.859,0,0,1,13.354-3.224,28.835,28.835,0,0,1,13.8,3.04,20.773,20.773,0,0,1,8.667,8.66,27.946,27.946,0,0,1,3.007,13.358q0,11.98-6.722,18.7T94.669,312.9a24.985,24.985,0,0,1-22.11-12.621Zm249.173,21.458H255.5a171.644,171.644,0,0,1,4.2-35.554,139.235,139.235,0,0,1,13.531-35.469A173.221,173.221,0,0,1,297.2,217.453v-13.82H211.232v13.82h70.584a164.568,164.568,0,0,0-21.234,30.033,156.082,156.082,0,0,0-14.77,37.679A165.513,165.513,0,0,0,241,321.732H194.958v-118.1H182.577a36.686,36.686,0,0,1-7.076,7.186,88.47,88.47,0,0,1-9.993,6.91,90.6,90.6,0,0,1-10.259,5.343,29.743,29.743,0,0,1-8.048,2.487l3.715,13.451a66.017,66.017,0,0,0,30.247-17.135q-.18,3.869-.266,7.461t-.089,6.726v85.67H117.123a33.839,33.839,0,0,0,12.922-13.167A42.466,42.466,0,0,0,135,287.652q0-12.16-4.865-21a33.632,33.632,0,0,0-13.709-13.635,42.813,42.813,0,0,0-20.694-4.791,39.5,39.5,0,0,0-13,2.3,33.089,33.089,0,0,0-11.852,7.185,25.317,25.317,0,0,0-7.163,12.806h-.708V267.2a95.606,95.606,0,0,1,2.035-20.268,55.962,55.962,0,0,1,6.1-16.4,32.975,32.975,0,0,1,9.905-10.964,23.373,23.373,0,0,1,13.444-3.961q10.434,0,16.361,4.883a27.414,27.414,0,0,1,8.579,13.358l13.089-6.449a46.928,46.928,0,0,0-8.667-14.648,31.446,31.446,0,0,0-12.116-8.292,45.773,45.773,0,0,0-16.363-2.671,39.82,39.82,0,0,0-23.259,7.186q-10.349,7.185-16.362,21.1t-6.013,34.363q0,18.24,5.129,32.336t15.212,22.2a35.524,35.524,0,0,0,3.945,2.757h-55.6V18.425H321.732Z"/>
      </g>
    </g>
</svg>
