<svg xmlns="http://www.w3.org/2000/svg" width="120mm" height="120mm" viewBox="0 0 340.158 340.158">
  <g id="Zimmernummer">
      <g id="Z-04-021">
        <path fill="#000000" stroke="none" d="M339.328.831a2.835,2.835,0,0,0-2-.831H2.835A2.836,2.836,0,0,0,0,2.835V337.323a2.836,2.836,0,0,0,2.835,2.835H337.323a2.836,2.836,0,0,0,2.835-2.835V2.835A2.835,2.835,0,0,0,339.328.831Zm-17.6,320.9h-27.9V203.516h-12.9a37.46,37.46,0,0,1-7.371,7.185,92.373,92.373,0,0,1-10.41,6.91,95.861,95.861,0,0,1-10.686,5.343,31.95,31.95,0,0,1-8.384,2.487l3.87,13.451a67.493,67.493,0,0,0,16.951-6.541,66.178,66.178,0,0,0,14.555-10.594q-.185,3.869-.276,7.462t-.092,6.725v85.788H236.166V311.3H193.6q-1.845,0-5.436.092t-7.186.184q-3.593.1-5.62.276v-.184q21.739-14.551,34.456-26.532T228.059,262.2a49.2,49.2,0,0,0,5.527-22.387,40.648,40.648,0,0,0-2.856-15.477,34.3,34.3,0,0,0-8.2-12.068,37.089,37.089,0,0,0-12.805-7.831,48.29,48.29,0,0,0-16.86-2.764q-12.345,0-21.281,4.606A36.45,36.45,0,0,0,157.4,218.993a47.549,47.549,0,0,0-6.91,18.793l12.9,7.739q1.287-13.632,8.844-21.834t20.083-8.2q11.976,0,18.887,6.725t6.909,17.6a39.85,39.85,0,0,1-3.132,15.57,58.565,58.565,0,0,1-10.5,15.753,180.07,180.07,0,0,1-19.622,18.426Q172.6,299.7,154.358,313.146v8.586H18.425V18.425H321.732Z"/>
      </g>
    </g>
</svg>
