<svg xmlns="http://www.w3.org/2000/svg" width="120mm" height="120mm" viewBox="0 0 340.158 340.157">
  <g id="Zimmernummer">
      <g id="Z-04-601-R">
        <path fill="#A0552B" stroke="none" d="M337.323,0H2.835A2.834,2.834,0,0,0,0,2.835V337.323a2.834,2.834,0,0,0,2.835,2.834H337.323a2.834,2.834,0,0,0,2.835-2.834V2.835A2.834,2.834,0,0,0,337.323,0ZM58.047,300.273a25.081,25.081,0,0,1-3.36-12.805,25.9,25.9,0,0,1,3.184-12.99,22.957,22.957,0,0,1,8.932-8.844,26.848,26.848,0,0,1,13.355-3.225,28.852,28.852,0,0,1,13.8,3.04,20.784,20.784,0,0,1,8.667,8.66,27.961,27.961,0,0,1,3.006,13.359q0,11.979-6.721,18.7T80.158,312.9a24.992,24.992,0,0,1-22.111-12.622Zm90.3-8.752q-3.274-11.055-3.272-27.084t3.272-27.086q3.272-11.055,9.729-16.674a25.107,25.107,0,0,1,31.662,0q6.454,5.622,9.728,16.674t3.272,27.086q0,16.029-3.272,27.084T189.734,308.2a25.111,25.111,0,0,1-31.662,0Q151.611,302.577,148.343,291.521Zm173.389,30.211H274.547v-118.1H262.166a36.712,36.712,0,0,1-7.076,7.185,88.71,88.71,0,0,1-9.994,6.911,90.5,90.5,0,0,1-10.259,5.342,29.792,29.792,0,0,1-8.047,2.488L230.5,239.01a65.98,65.98,0,0,0,30.247-17.136q-.179,3.869-.265,7.462t-.088,6.726v85.67H194.226a39.853,39.853,0,0,0,11.427-10.68q11.762-16.031,11.763-46.615T205.653,217.82q-11.766-16.029-31.75-16.03-19.812,0-31.662,16.03t-11.852,46.617q0,30.585,11.852,46.615a40.307,40.307,0,0,0,11.451,10.68H102.61a33.846,33.846,0,0,0,12.924-13.168,42.474,42.474,0,0,0,4.953-20.913q0-12.159-4.864-21a33.647,33.647,0,0,0-13.709-13.634,42.806,42.806,0,0,0-20.7-4.791,39.5,39.5,0,0,0-13,2.3,33.07,33.07,0,0,0-11.851,7.186A25.306,25.306,0,0,0,49.2,270.517H48.5V267.2a95.592,95.592,0,0,1,2.034-20.267,55.968,55.968,0,0,1,6.1-16.4,32.977,32.977,0,0,1,9.906-10.964,23.377,23.377,0,0,1,13.443-3.961q10.434,0,16.361,4.883a27.405,27.405,0,0,1,8.579,13.359l13.089-6.45a46.934,46.934,0,0,0-8.667-14.647,31.435,31.435,0,0,0-12.116-8.292,45.766,45.766,0,0,0-16.362-2.672,39.819,39.819,0,0,0-23.26,7.187q-10.347,7.185-16.361,21.1T35.23,264.437q0,18.24,5.129,32.335t15.212,22.2a35.524,35.524,0,0,0,3.945,2.757H18.425V18.425H321.732Z"/>
      </g>
    </g>
</svg>
