<svg xmlns="http://www.w3.org/2000/svg" width="120mm" height="120mm" viewBox="0 0 340.158 340.157">
  <g id="Zimmernummer">
      <g id="Z-04-228-R">
        <path fill="#A0552B" stroke="none" d="M337.323,0H2.835A2.836,2.836,0,0,0,0,2.835V337.323a2.834,2.834,0,0,0,2.835,2.834H337.323a2.834,2.834,0,0,0,2.835-2.834V2.835A2.836,2.836,0,0,0,337.323,0ZM247.85,271.161a41.426,41.426,0,0,1,29.274,0,21.78,21.78,0,0,1,9.64,7.738,22.769,22.769,0,0,1,.089,23.953,21.151,21.151,0,0,1-9.552,7.738,42.4,42.4,0,0,1-29.628,0,21.772,21.772,0,0,1-9.552-31.691A21.7,21.7,0,0,1,247.85,271.161Zm-7.871-35.836q0-9.211,6.1-14.371t16.361-5.161q10.435,0,16.451,5.161t6.014,14.371q0,9.029-6.191,14.187t-16.274,5.158q-10.082,0-16.273-5.158T239.979,235.325Zm81.753,86.407H287.115a33.772,33.772,0,0,0,12.473-10.864,31.785,31.785,0,0,0,5.306-18.426q0-11.423-5.925-19.346A35.352,35.352,0,0,0,283.138,261.3v-.183a27.773,27.773,0,0,0,12.116-10.78,30.984,30.984,0,0,0,4.334-16.49,30.659,30.659,0,0,0-4.6-17.043,30.142,30.142,0,0,0-12.912-10.963,51.53,51.53,0,0,0-39.18,0,30.024,30.024,0,0,0-13,10.963q-4.6,7.1-4.6,17.043a30.408,30.408,0,0,0,4.511,16.676,27.9,27.9,0,0,0,12.116,10.594v.183a34.29,34.29,0,0,0-16.1,11.885q-5.836,8.016-5.837,19.254a31.785,31.785,0,0,0,5.306,18.426,33.636,33.636,0,0,0,12.54,10.864H205.311V311.42h-40.86q-1.77,0-5.218.092t-6.9.184q-3.45.1-5.4.277v-.183q20.87-14.556,33.077-26.534t17.511-22.939a50.855,50.855,0,0,0,5.306-22.387,42.137,42.137,0,0,0-2.741-15.476,34.4,34.4,0,0,0-7.871-12.069,35.392,35.392,0,0,0-12.294-7.83,44.653,44.653,0,0,0-16.184-2.765q-11.853,0-20.43,4.607a35.524,35.524,0,0,0-13.62,12.713,48.787,48.787,0,0,0-6.633,18.795l12.381,7.738q1.236-13.635,8.491-21.834t19.28-8.2q11.5,0,18.131,6.724t6.633,17.6a41.3,41.3,0,0,1-3.007,15.57,58.833,58.833,0,0,1-10.083,15.754,175.937,175.937,0,0,1-18.838,18.424q-11.765,10.137-29.274,23.584v8.47H111.034V311.42H70.174q-1.77,0-5.217.092t-6.9.184q-3.449.1-5.4.277v-.183q20.87-14.556,33.077-26.534t17.511-22.939a50.856,50.856,0,0,0,5.307-22.387,42.137,42.137,0,0,0-2.742-15.476,34.4,34.4,0,0,0-7.871-12.069,35.388,35.388,0,0,0-12.293-7.83,44.658,44.658,0,0,0-16.185-2.765q-11.853,0-20.43,4.607a35.524,35.524,0,0,0-13.62,12.713,48.819,48.819,0,0,0-6.633,18.795l12.382,7.738q1.234-13.635,8.49-21.834t19.281-8.2q11.5,0,18.13,6.724t6.633,17.6a41.3,41.3,0,0,1-3.007,15.57A58.808,58.808,0,0,1,80.61,271.254a175.843,175.843,0,0,1-18.838,18.424Q50.008,299.815,32.5,313.262v8.47H18.425V18.425H321.732Z"/>
      </g>
    </g>
</svg>
