<svg xmlns="http://www.w3.org/2000/svg" width="120mm" height="120mm" viewBox="0 0 340.158 340.157">
  <g id="Zimmernummer">
      <g id="Z-04-300-R">
        <path fill="#A0552B" stroke="none" d="M337.323,0H2.835A2.836,2.836,0,0,0,0,2.835V337.323a2.834,2.834,0,0,0,2.835,2.834H337.323a2.834,2.834,0,0,0,2.835-2.834V2.835A2.836,2.836,0,0,0,337.323,0ZM139.158,291.521q-3.274-11.055-3.273-27.084t3.273-27.086q3.272-11.055,9.728-16.674a25.107,25.107,0,0,1,31.662,0q6.456,5.622,9.729,16.674t3.272,27.086q0,16.029-3.272,27.084T180.548,308.2a25.111,25.111,0,0,1-31.662,0Q142.429,302.577,139.158,291.521Zm94.1,0q-3.275-11.055-3.272-27.084t3.272-27.086q3.271-11.055,9.728-16.674a25.109,25.109,0,0,1,31.663,0q6.454,5.622,9.728,16.674t3.272,27.086q0,16.029-3.272,27.084T274.649,308.2a25.112,25.112,0,0,1-31.663,0Q236.527,302.577,233.258,291.521Zm88.474,30.211H279.141a39.84,39.84,0,0,0,11.427-10.68q11.762-16.031,11.762-46.615T290.568,217.82q-11.766-16.029-31.75-16.03-19.813,0-31.663,16.03T215.3,264.437q0,30.585,11.851,46.615a40.313,40.313,0,0,0,11.453,10.68H185.041a39.837,39.837,0,0,0,11.426-10.68q11.761-16.031,11.763-46.615T196.467,217.82q-11.765-16.029-31.75-16.03-19.812,0-31.662,16.03T121.2,264.437q0,30.585,11.851,46.615a40.313,40.313,0,0,0,11.453,10.68h-48.5a34.745,34.745,0,0,0,12.9-12.338,35.8,35.8,0,0,0,5.042-18.978,29.058,29.058,0,0,0-1.681-9.857,26.252,26.252,0,0,0-4.864-8.384,24.045,24.045,0,0,0-7.7-5.9,25.067,25.067,0,0,0-10.347-2.394v-.369a23.865,23.865,0,0,0,8.313-3.04,25.776,25.776,0,0,0,6.987-6.172,29.6,29.6,0,0,0,4.864-9.121A37.16,37.16,0,0,0,111.3,233.3a32.147,32.147,0,0,0-3.98-15.846,29.128,29.128,0,0,0-11.939-11.515q-7.96-4.328-20.165-4.331a46.219,46.219,0,0,0-17.776,3.317,39.669,39.669,0,0,0-13.708,9.213,38.578,38.578,0,0,0-8.491,13.634L48.684,234.4a34.079,34.079,0,0,1,9.2-13.726q5.838-5.067,16.981-5.068,10.434,0,16.1,4.975t5.66,14.556q0,11.241-5.483,16.491t-18.4,5.251H70a26.653,26.653,0,0,1-3.1-.185v14.741a44.88,44.88,0,0,1,4.776-.46q2.3-.092,4.245-.093,8.311,0,13.443,2.119a14.468,14.468,0,0,1,7.517,6.541A23.065,23.065,0,0,1,99.272,290.6a23.609,23.609,0,0,1-2.83,11.7,20.461,20.461,0,0,1-8.136,8.014,26.622,26.622,0,0,1-13.09,2.949q-9.2,0-15.3-2.764a24.367,24.367,0,0,1-9.817-7.831,40.046,40.046,0,0,1-5.837-11.884l-14.151,7.555a37.884,37.884,0,0,0,16.185,21.1c1.306.836,2.648,1.6,4.019,2.3H18.425V18.425H321.732Z"/>
      </g>
    </g>
</svg>
