<svg xmlns="http://www.w3.org/2000/svg" width="120mm" height="120mm" viewBox="0 0 340.158 340.157">
  <g id="Zimmernummer">
      <g id="Z-04-051-M">
        <path fill="#D4AF37" stroke="none" d="M337.323,0H2.835A2.834,2.834,0,0,0,0,2.835V337.323a2.834,2.834,0,0,0,2.835,2.834H337.323a2.834,2.834,0,0,0,2.835-2.834V2.835A2.834,2.834,0,0,0,337.323,0ZM321.732,321.732H284.377v-118.1h-12.9a37.48,37.48,0,0,1-7.37,7.185,92.7,92.7,0,0,1-10.41,6.911,95.94,95.94,0,0,1-10.687,5.342,32,32,0,0,1-8.384,2.488l3.87,13.451a67.569,67.569,0,0,0,16.951-6.541,66.188,66.188,0,0,0,14.556-10.595q-.186,3.869-.277,7.462t-.092,6.726v85.67H209.269a37.4,37.4,0,0,0,7.675-5.429,35.731,35.731,0,0,0,8.844-12.806,43.9,43.9,0,0,0,3.132-16.951,42.688,42.688,0,0,0-4.791-20.636,34.223,34.223,0,0,0-13.358-13.726Q202.2,247.3,190.6,247.3a44.356,44.356,0,0,0-16.491,2.763,31.829,31.829,0,0,0-11.331,7.371h-.369l.369-1.659,4.79-38.324h55.829V203.633H155.035l-7.186,66.884,12.9,2.395a24.589,24.589,0,0,1,7-6.817,29.478,29.478,0,0,1,9.12-3.778,47.658,47.658,0,0,1,10.963-1.2,30.3,30.3,0,0,1,14,2.948,20.106,20.106,0,0,1,8.752,8.752q3.041,5.8,3.04,14.464a27.588,27.588,0,0,1-3.316,13.911,22.517,22.517,0,0,1-9.305,8.937,30.85,30.85,0,0,1-14.464,3.132q-11.979,0-18.149-5.989a35.855,35.855,0,0,1-9.12-15.569L144.9,299.26q5.341,13.085,15.2,20.452a31.922,31.922,0,0,0,3.073,2.02H18.425V18.425H321.732Z"/>
      </g>
    </g>
</svg>
