<svg xmlns="http://www.w3.org/2000/svg" width="120mm" height="120mm" viewBox="0 0 340.158 340.157">
  <g id="Zimmernummer">
      <g id="Z-04-243-R">
        <path fill="#A0552B" stroke="none" d="M337.323,0H2.835A2.836,2.836,0,0,0,0,2.835V337.323a2.834,2.834,0,0,0,2.835,2.834H337.323a2.834,2.834,0,0,0,2.835-2.834V2.835A2.836,2.836,0,0,0,337.323,0ZM176.215,280.65H134.294l30.6-44.774q2.826-4.236,6.19-9.949t5.483-10.318h.354q-.179,4.792-.442,9.766t-.265,9.764Zm145.517,41.082h-41.06a34.753,34.753,0,0,0,12.9-12.339,35.8,35.8,0,0,0,5.041-18.977,29.064,29.064,0,0,0-1.681-9.858,26.234,26.234,0,0,0-4.864-8.384,24.017,24.017,0,0,0-7.7-5.9,25.052,25.052,0,0,0-10.347-2.4v-.369a23.838,23.838,0,0,0,8.313-3.04,25.777,25.777,0,0,0,6.988-6.172,29.62,29.62,0,0,0,4.864-9.121,37.189,37.189,0,0,0,1.768-11.884,32.146,32.146,0,0,0-3.98-15.845,29.124,29.124,0,0,0-11.939-11.516q-7.959-4.328-20.165-4.33a46.219,46.219,0,0,0-17.776,3.316,39.692,39.692,0,0,0-13.708,9.213,38.6,38.6,0,0,0-8.491,13.634l13.443,6.634a34.076,34.076,0,0,1,9.2-13.727q5.838-5.067,16.981-5.067,10.434,0,16.1,4.974t5.66,14.556q0,11.241-5.483,16.491t-18.4,5.251h-2.741a26.647,26.647,0,0,1-3.1-.184v14.74a45.408,45.408,0,0,1,4.776-.46q2.3-.09,4.245-.093,8.312,0,13.443,2.119a14.472,14.472,0,0,1,7.517,6.541,23.056,23.056,0,0,1,2.389,11.055,23.606,23.606,0,0,1-2.831,11.7,20.464,20.464,0,0,1-8.136,8.015,26.622,26.622,0,0,1-13.09,2.948q-9.2,0-15.3-2.763a24.369,24.369,0,0,1-9.817-7.832,40.028,40.028,0,0,1-5.837-11.883l-14.151,7.554a37.884,37.884,0,0,0,16.185,21.1c1.307.837,2.649,1.6,4.02,2.3H190.365V293.363h20.7V280.65h-20.7V203.632H172.5l-53.241,78.861v10.87h56.956v28.369H117.668V311.419H76.809q-1.772,0-5.219.093t-6.9.184q-3.448.094-5.395.276v-.183q20.869-14.554,33.077-26.533t17.511-22.939a50.856,50.856,0,0,0,5.307-22.387,42.142,42.142,0,0,0-2.742-15.477,34.4,34.4,0,0,0-7.871-12.069,35.388,35.388,0,0,0-12.293-7.83A44.68,44.68,0,0,0,76.1,201.79q-11.853,0-20.43,4.606a35.527,35.527,0,0,0-13.62,12.714A48.782,48.782,0,0,0,35.418,237.9L47.8,245.642q1.236-13.633,8.49-21.834t19.28-8.2q11.5,0,18.131,6.725t6.633,17.6a41.286,41.286,0,0,1-3.007,15.57,58.873,58.873,0,0,1-10.082,15.753,175.935,175.935,0,0,1-18.838,18.425q-11.766,10.135-29.274,23.584v8.47H18.425V18.425H321.732Z"/>
      </g>
    </g>
</svg>
