<svg xmlns="http://www.w3.org/2000/svg" width="120mm" height="120mm" viewBox="0 0 340.158 340.157">
  <g id="Zimmernummer">
      <g id="Z-04-043-M">
        <path fill="#D4AF37" stroke="none" d="M337.323,0H2.835A2.836,2.836,0,0,0,0,2.835V337.323a2.834,2.834,0,0,0,2.835,2.834H337.323a2.834,2.834,0,0,0,2.835-2.834V2.835A2.836,2.836,0,0,0,337.323,0Zm-167.5,280.65H126.159l31.875-44.774q2.946-4.236,6.449-9.949a116.873,116.873,0,0,0,5.712-10.318h.368q-.184,4.792-.46,9.766t-.276,9.764Zm151.905,41.082h-39.41a35.612,35.612,0,0,0,13.44-12.339,34.709,34.709,0,0,0,5.251-18.977,28.034,28.034,0,0,0-1.751-9.858,26.021,26.021,0,0,0-5.067-8.384,24.934,24.934,0,0,0-8.015-5.9,27,27,0,0,0-10.779-2.4v-.369a25.508,25.508,0,0,0,8.661-3.04,26.549,26.549,0,0,0,7.277-6.172,29.232,29.232,0,0,0,5.067-9.121,35.8,35.8,0,0,0,1.843-11.884,31.14,31.14,0,0,0-4.146-15.845,29.826,29.826,0,0,0-12.437-11.516q-8.291-4.328-21-4.33a49.913,49.913,0,0,0-18.517,3.316,41.49,41.49,0,0,0-14.28,9.213,38.4,38.4,0,0,0-8.843,13.634l14,6.634a34.042,34.042,0,0,1,9.581-13.727q6.081-5.067,17.689-5.067,10.869,0,16.767,4.974t5.9,14.556q0,11.241-5.712,16.491t-19.162,5.251h-2.856A28.922,28.922,0,0,1,252,256.7v14.74a49.238,49.238,0,0,1,4.976-.46q2.391-.09,4.421-.093,8.659,0,14,2.119a14.905,14.905,0,0,1,7.831,6.541A22.3,22.3,0,0,1,285.72,290.6a22.85,22.85,0,0,1-2.949,11.7,20.919,20.919,0,0,1-8.475,8.015,28.679,28.679,0,0,1-13.635,2.948q-9.582,0-15.937-2.763a25.217,25.217,0,0,1-10.226-7.832,39.41,39.41,0,0,1-6.081-11.883l-14.74,7.554a38.116,38.116,0,0,0,16.859,21.1c1.36.837,2.759,1.6,4.187,2.3H184.567V293.363h21.557V280.65H184.567V203.632h-18.61L110.5,282.493v10.87h59.329v28.369H18.425V18.425H321.732Z"/>
      </g>
    </g>
</svg>
