<svg xmlns="http://www.w3.org/2000/svg" width="120mm" height="120mm" viewBox="0 0 340.158 340.157">
  <g id="Zimmernummer">
      <g id="Z-04-421-M">
        <path fill="#D4AF37" stroke="none" d="M337.323,0H2.835A2.834,2.834,0,0,0,0,2.835V337.323a2.834,2.834,0,0,0,2.835,2.834H337.323a2.834,2.834,0,0,0,2.835-2.834V2.835A2.834,2.834,0,0,0,337.323,0ZM91.653,280.65H49.732l30.6-44.773q2.829-4.236,6.191-9.949t5.484-10.319h.353q-.178,4.794-.442,9.766t-.265,9.765Zm230.079,41.082h-50.37v-118.1H258.98a36.647,36.647,0,0,1-7.075,7.185,88.619,88.619,0,0,1-9.994,6.911,90.5,90.5,0,0,1-10.259,5.342,29.787,29.787,0,0,1-8.048,2.488l3.714,13.451a65.98,65.98,0,0,0,30.247-17.136q-.178,3.869-.265,7.462t-.088,6.726v85.67H217.769V311.42H176.908q-1.768,0-5.218.093t-6.9.183q-3.448.1-5.4.277v-.184q20.871-14.553,33.078-26.532t17.51-22.94a50.849,50.849,0,0,0,5.307-22.386,42.164,42.164,0,0,0-2.741-15.478,34.408,34.408,0,0,0-7.872-12.068,35.364,35.364,0,0,0-12.293-7.83A44.679,44.679,0,0,0,176.2,201.79q-11.851,0-20.43,4.606a35.534,35.534,0,0,0-13.62,12.714,48.8,48.8,0,0,0-6.632,18.794l12.381,7.739q1.236-13.633,8.491-21.834t19.28-8.2q11.495,0,18.13,6.726t6.633,17.6a41.281,41.281,0,0,1-3.007,15.569,58.812,58.812,0,0,1-10.082,15.754,176.031,176.031,0,0,1-18.838,18.425q-11.766,10.135-29.275,23.584v8.469H105.8V293.363H126.5V280.65H105.8V203.633H87.938L34.7,282.493v10.87H91.653v28.369H18.425V18.425H321.732Z"/>
      </g>
    </g>
</svg>
