<svg xmlns="http://www.w3.org/2000/svg" width="120mm" height="120mm" viewBox="0 0 340.158 340.158">
  <g id="Zimmernummer">
      <g id="Z-04-124-R">
        <path fill="#A0552B" stroke="none" d="M337.323,0H2.835A2.836,2.836,0,0,0,0,2.835V337.323a2.836,2.836,0,0,0,2.835,2.835H337.323a2.836,2.836,0,0,0,2.835-2.835V2.835A2.836,2.836,0,0,0,337.323,0ZM249,280.65H207.075l30.6-44.773q2.828-4.236,6.191-9.949t5.483-10.319h.354q-.178,4.794-.442,9.766T249,235.14Zm72.735,41.082H263.147V293.363h20.695V280.65H263.147V203.633H245.282l-53.241,78.86v10.87H249v28.369H191.334V311.42H150.475q-1.771,0-5.219.093t-6.9.183q-3.449.1-5.4.277v-.184q20.87-14.553,33.077-26.532t17.511-22.94a50.849,50.849,0,0,0,5.307-22.386,42.144,42.144,0,0,0-2.742-15.478,34.392,34.392,0,0,0-7.871-12.068,35.373,35.373,0,0,0-12.293-7.83,44.679,44.679,0,0,0-16.185-2.765q-11.853,0-20.43,4.606a35.534,35.534,0,0,0-13.62,12.714,48.8,48.8,0,0,0-6.633,18.794l12.382,7.739q1.236-13.633,8.49-21.834t19.28-8.2q11.5,0,18.131,6.726t6.633,17.6a41.281,41.281,0,0,1-3.007,15.569,58.842,58.842,0,0,1-10.083,15.754,176.031,176.031,0,0,1-18.838,18.425q-11.764,10.135-29.274,23.584v8.469H94.934v-118.1H82.552a36.7,36.7,0,0,1-7.075,7.185,88.71,88.71,0,0,1-9.994,6.911,90.749,90.749,0,0,1-10.259,5.342,29.792,29.792,0,0,1-8.049,2.488L50.89,239.01a63.322,63.322,0,0,0,16.273-6.541,63.729,63.729,0,0,0,13.974-10.595q-.178,3.869-.265,7.462t-.089,6.726v85.67H18.425V18.425H321.732Z"/>
      </g>
    </g>
</svg>
