<svg xmlns="http://www.w3.org/2000/svg" width="120mm" height="120mm" viewBox="0 0 340.158 340.157">
  <g id="Zimmernummer">
      <g id="Z-04-333-R">
        <path fill="#A0552B" stroke="none" d="M337.323,0H2.835A2.836,2.836,0,0,0,0,2.835V337.323a2.834,2.834,0,0,0,2.835,2.834H337.323a2.834,2.834,0,0,0,2.835-2.834V2.835A2.836,2.836,0,0,0,337.323,0ZM321.732,321.732H280.85a34.743,34.743,0,0,0,12.9-12.339,35.8,35.8,0,0,0,5.041-18.977,29.039,29.039,0,0,0-1.681-9.858,26.25,26.25,0,0,0-4.863-8.384,24.017,24.017,0,0,0-7.7-5.9,25.056,25.056,0,0,0-10.348-2.4v-.369a23.855,23.855,0,0,0,8.315-3.04,25.785,25.785,0,0,0,6.986-6.172,29.578,29.578,0,0,0,4.864-9.121A37.16,37.16,0,0,0,296.14,233.3a32.146,32.146,0,0,0-3.98-15.845,29.13,29.13,0,0,0-11.939-11.516q-7.961-4.328-20.165-4.33a46.227,46.227,0,0,0-17.777,3.316,39.7,39.7,0,0,0-13.708,9.213,38.607,38.607,0,0,0-8.49,13.634l13.443,6.634a34.066,34.066,0,0,1,9.2-13.727q5.836-5.067,16.98-5.067,10.435,0,16.1,4.974t5.66,14.556q0,11.241-5.483,16.491t-18.4,5.251h-2.742a26.673,26.673,0,0,1-3.1-.184v14.74a45.451,45.451,0,0,1,4.777-.46q2.3-.09,4.245-.093,8.312,0,13.442,2.119a14.478,14.478,0,0,1,7.518,6.541,23.056,23.056,0,0,1,2.388,11.055,23.606,23.606,0,0,1-2.83,11.7,20.464,20.464,0,0,1-8.136,8.015,26.625,26.625,0,0,1-13.09,2.948q-9.2,0-15.3-2.763a24.362,24.362,0,0,1-9.817-7.832,40.028,40.028,0,0,1-5.837-11.883l-14.151,7.554a37.875,37.875,0,0,0,16.185,21.1c1.306.837,2.648,1.6,4.019,2.3H190.112a34.747,34.747,0,0,0,12.9-12.339,35.789,35.789,0,0,0,5.041-18.977,29.088,29.088,0,0,0-1.68-9.858,26.252,26.252,0,0,0-4.864-8.384,24.035,24.035,0,0,0-7.694-5.9,25.064,25.064,0,0,0-10.348-2.4v-.369a23.845,23.845,0,0,0,8.313-3.04,25.788,25.788,0,0,0,6.987-6.172,29.62,29.62,0,0,0,4.864-9.121A37.16,37.16,0,0,0,205.4,233.3a32.157,32.157,0,0,0-3.98-15.845,29.136,29.136,0,0,0-11.939-11.516q-7.96-4.328-20.164-4.33a46.222,46.222,0,0,0-17.778,3.316,39.7,39.7,0,0,0-13.708,9.213,38.607,38.607,0,0,0-8.49,13.634l13.442,6.634a34.077,34.077,0,0,1,9.2-13.727q5.837-5.067,16.98-5.067,10.435,0,16.1,4.974t5.66,14.556q0,11.241-5.483,16.491t-18.4,5.251H164.1a26.673,26.673,0,0,1-3.1-.184v14.74a45.433,45.433,0,0,1,4.776-.46q2.3-.09,4.246-.093,8.311,0,13.443,2.119a14.486,14.486,0,0,1,7.518,6.541,23.08,23.08,0,0,1,2.387,11.055,23.606,23.606,0,0,1-2.83,11.7,20.466,20.466,0,0,1-8.137,8.015,26.617,26.617,0,0,1-13.088,2.948q-9.2,0-15.3-2.763a24.366,24.366,0,0,1-9.818-7.832,40.076,40.076,0,0,1-5.837-11.883l-14.15,7.554a37.875,37.875,0,0,0,16.185,21.1c1.306.837,2.648,1.6,4.019,2.3H99.372a34.758,34.758,0,0,0,12.9-12.339,35.79,35.79,0,0,0,5.042-18.977,29.088,29.088,0,0,0-1.681-9.858,26.252,26.252,0,0,0-4.864-8.384,24.028,24.028,0,0,0-7.7-5.9,25.052,25.052,0,0,0-10.347-2.4v-.369a23.853,23.853,0,0,0,8.313-3.04,25.788,25.788,0,0,0,6.987-6.172,29.6,29.6,0,0,0,4.864-9.121,37.188,37.188,0,0,0,1.769-11.884,32.157,32.157,0,0,0-3.98-15.845,29.133,29.133,0,0,0-11.94-11.516q-7.959-4.328-20.164-4.33A46.224,46.224,0,0,0,60.8,204.922a39.692,39.692,0,0,0-13.708,9.213,38.593,38.593,0,0,0-8.49,13.634L52.046,234.4a34.064,34.064,0,0,1,9.2-13.727q5.838-5.067,16.981-5.067,10.435,0,16.1,4.974t5.661,14.556q0,11.241-5.484,16.491T76.1,256.881H73.36a26.63,26.63,0,0,1-3.095-.184v14.74a45.364,45.364,0,0,1,4.775-.46q2.3-.09,4.245-.093,8.313,0,13.444,2.119a14.476,14.476,0,0,1,7.517,6.541,23.068,23.068,0,0,1,2.388,11.055,23.606,23.606,0,0,1-2.83,11.7,20.466,20.466,0,0,1-8.137,8.015,26.615,26.615,0,0,1-13.089,2.948q-9.2,0-15.3-2.763a24.356,24.356,0,0,1-9.817-7.832,40.029,40.029,0,0,1-5.838-11.883l-14.15,7.554a37.878,37.878,0,0,0,16.184,21.1c1.307.837,2.649,1.6,4.02,2.3H18.425V18.425H321.732Z"/>
      </g>
    </g>
</svg>
