<svg xmlns="http://www.w3.org/2000/svg" width="120mm" height="120mm" viewBox="0 0 340.158 340.157">
  <g id="Zimmernummer">
      <g id="Z-04-045">
        <path fill="#000000" stroke="none" d="M337.323,0H2.835A2.836,2.836,0,0,0,0,2.835V337.323a2.834,2.834,0,0,0,2.835,2.834H337.323a2.834,2.834,0,0,0,2.835-2.834V2.835A2.836,2.836,0,0,0,337.323,0ZM170.012,280.65H126.345l31.875-44.773q2.946-4.236,6.449-9.949a116.878,116.878,0,0,0,5.712-10.319h.368q-.186,4.794-.46,9.766t-.277,9.765Zm151.72,41.082H281.915a37.376,37.376,0,0,0,7.675-5.429,35.746,35.746,0,0,0,8.845-12.806,43.913,43.913,0,0,0,3.131-16.951,42.687,42.687,0,0,0-4.79-20.636,34.223,34.223,0,0,0-13.358-13.726q-8.568-4.881-20.176-4.883a44.351,44.351,0,0,0-16.49,2.763,31.833,31.833,0,0,0-11.332,7.371h-.368l.368-1.659,4.791-38.324h55.828V203.633H227.682L220.5,270.517l12.9,2.395a24.586,24.586,0,0,1,7-6.817,29.494,29.494,0,0,1,9.121-3.778,47.658,47.658,0,0,1,10.963-1.2,30.3,30.3,0,0,1,14,2.948,20.1,20.1,0,0,1,8.752,8.752q3.042,5.8,3.041,14.464a27.589,27.589,0,0,1-3.317,13.911,22.511,22.511,0,0,1-9.305,8.937,30.85,30.85,0,0,1-14.464,3.132q-11.977,0-18.148-5.989a35.866,35.866,0,0,1-9.121-15.569l-14.371,7.555q5.341,13.085,15.2,20.452a31.735,31.735,0,0,0,3.073,2.02h-51.07V293.363H206.31V280.65H184.752V203.633H166.143l-55.46,78.86v10.87h59.329v28.369H18.425V18.425H321.732Z"/>
      </g>
    </g>
</svg>
