<svg xmlns="http://www.w3.org/2000/svg" width="120mm" height="120mm" viewBox="0 0 340.158 340.158">
  <g id="Zimmernummer">
      <g id="Z-04-442-M">
        <path fill="#D4AF37" stroke="none" d="M337.323,0H2.835A2.836,2.836,0,0,0,0,2.835V337.323a2.836,2.836,0,0,0,2.835,2.835H337.323a2.836,2.836,0,0,0,2.835-2.835V2.835A2.836,2.836,0,0,0,337.323,0ZM90.953,280.651H49.032l30.6-44.774q2.828-4.236,6.19-9.949t5.484-10.318h.354q-.178,4.792-.442,9.765t-.266,9.765ZM125.8,293.364H179.57v28.368H105.1V293.364h20.7Zm54.036-67.989q-.266,4.976-.265,9.765v45.511H137.649l30.6-44.774q2.827-4.236,6.192-9.949t5.483-10.318h.354Q180.1,220.4,179.835,225.375Zm141.9,96.357H298.61V311.42H257.75q-1.768,0-5.218.093t-6.9.184q-3.45.094-5.394.276v-.183q20.868-14.555,33.076-26.533t17.511-22.939a50.856,50.856,0,0,0,5.307-22.387,42.142,42.142,0,0,0-2.742-15.477,34.4,34.4,0,0,0-7.871-12.069,35.4,35.4,0,0,0-12.293-7.83,44.684,44.684,0,0,0-16.185-2.764q-11.853,0-20.43,4.606a35.527,35.527,0,0,0-13.62,12.714,48.782,48.782,0,0,0-6.633,18.794l12.381,7.738q1.237-13.633,8.491-21.834t19.28-8.2q11.5,0,18.131,6.725t6.633,17.6a41.277,41.277,0,0,1-3.007,15.569,58.837,58.837,0,0,1-10.082,15.754,175.935,175.935,0,0,1-18.838,18.425q-11.766,10.135-29.275,23.584v8.469H193.721V293.364h20.694V280.651H193.721V203.633H175.856l-52,77.018H105.1V203.633H87.239L34,282.494v10.87H90.953v28.368H18.425V18.425H321.732Z"/>
      </g>
    </g>
</svg>
