<svg xmlns="http://www.w3.org/2000/svg" width="120mm" height="120mm" viewBox="0 0 340.158 340.157">
  <g id="Zimmernummer">
      <g id="Z-04-506">
        <path fill="#000000" stroke="none" d="M337.323,0H2.835A2.836,2.836,0,0,0,0,2.835V337.323a2.834,2.834,0,0,0,2.835,2.834H337.323a2.834,2.834,0,0,0,2.835-2.834V2.835A2.836,2.836,0,0,0,337.323,0ZM138.534,291.521q-3.276-11.055-3.273-27.084t3.273-27.086q3.27-11.055,9.728-16.674a25.106,25.106,0,0,1,31.661,0q6.456,5.622,9.729,16.674t3.272,27.086q0,16.029-3.272,27.084T179.923,308.2a25.109,25.109,0,0,1-31.661,0Q141.8,302.577,138.534,291.521Zm102.5,8.752a25.073,25.073,0,0,1-3.362-12.805,25.9,25.9,0,0,1,3.185-12.99,22.964,22.964,0,0,1,8.932-8.844,26.853,26.853,0,0,1,13.355-3.225,28.852,28.852,0,0,1,13.8,3.04,20.784,20.784,0,0,1,8.667,8.66,27.95,27.95,0,0,1,3.007,13.359q0,11.979-6.722,18.7T263.146,312.9a24.988,24.988,0,0,1-22.11-12.622Zm80.7,21.459H285.6a33.846,33.846,0,0,0,12.924-13.168,42.463,42.463,0,0,0,4.953-20.913q0-12.159-4.864-21A33.641,33.641,0,0,0,284.9,253.013a42.806,42.806,0,0,0-20.695-4.791,39.486,39.486,0,0,0-13,2.3,33.074,33.074,0,0,0-11.852,7.186,25.314,25.314,0,0,0-7.164,12.806h-.707V267.2a95.657,95.657,0,0,1,2.034-20.267,55.969,55.969,0,0,1,6.1-16.4,32.975,32.975,0,0,1,9.905-10.964,23.376,23.376,0,0,1,13.442-3.961q10.435,0,16.363,4.883a27.411,27.411,0,0,1,8.578,13.359L301,227.4a46.972,46.972,0,0,0-8.667-14.647,31.427,31.427,0,0,0-12.118-8.292,45.757,45.757,0,0,0-16.361-2.672,39.824,39.824,0,0,0-23.26,7.187q-10.347,7.185-16.361,21.1t-6.015,34.364q0,18.24,5.13,32.335t15.212,22.2a35.524,35.524,0,0,0,3.945,2.757H184.417a39.85,39.85,0,0,0,11.426-10.68q11.762-16.031,11.763-46.615T195.843,217.82q-11.764-16.029-31.75-16.03-19.814,0-31.662,16.03T120.58,264.437q0,30.585,11.851,46.615a40.3,40.3,0,0,0,11.452,10.68H95A35.205,35.205,0,0,0,110.854,303.5a45.5,45.5,0,0,0,3.007-16.951,44.145,44.145,0,0,0-4.6-20.636,33.633,33.633,0,0,0-12.824-13.726A37.247,37.247,0,0,0,77.07,247.3a41.055,41.055,0,0,0-15.831,2.763,30.485,30.485,0,0,0-10.879,7.371h-.354l.354-1.659,4.6-38.324h53.6V203.633H42.931l-6.9,66.884,12.382,2.395a24.081,24.081,0,0,1,6.721-6.817,27.693,27.693,0,0,1,8.756-3.778,44,44,0,0,1,10.525-1.2,28.11,28.11,0,0,1,13.442,2.948,19.716,19.716,0,0,1,8.4,8.752q2.919,5.8,2.918,14.464A28.51,28.51,0,0,1,96,301.194a22.03,22.03,0,0,1-8.933,8.937,28.63,28.63,0,0,1-13.885,3.132q-11.5,0-17.423-5.989A36.194,36.194,0,0,1,47,291.705L33.2,299.26q5.128,13.085,14.592,20.452a30.485,30.485,0,0,0,2.951,2.02H18.425V18.425H321.732Z"/>
      </g>
    </g>
</svg>
