<svg xmlns="http://www.w3.org/2000/svg" width="120mm" height="120mm" viewBox="0 0 340.158 340.157">
  <g id="Zimmernummer">
      <g id="Z-04-331-R">
        <path fill="#A0552B" stroke="none" d="M337.323,0H2.835A2.834,2.834,0,0,0,0,2.835V337.323a2.834,2.834,0,0,0,2.835,2.834H337.323a2.834,2.834,0,0,0,2.835-2.834V2.835A2.834,2.834,0,0,0,337.323,0ZM321.732,321.732h-52.84v-118.1H256.51a36.675,36.675,0,0,1-7.075,7.185,88.787,88.787,0,0,1-9.993,6.911,90.674,90.674,0,0,1-10.26,5.342,29.776,29.776,0,0,1-8.048,2.488l3.715,13.451A66,66,0,0,0,255.1,221.874q-.177,3.869-.265,7.462t-.089,6.726v85.67h-61.1a34.75,34.75,0,0,0,12.9-12.338,35.786,35.786,0,0,0,5.041-18.978,29.081,29.081,0,0,0-1.679-9.857,26.274,26.274,0,0,0-4.865-8.384,24.041,24.041,0,0,0-7.694-5.9A25.072,25.072,0,0,0,187,263.884v-.369a23.87,23.87,0,0,0,8.314-3.04A25.787,25.787,0,0,0,202.3,254.3a29.578,29.578,0,0,0,4.864-9.121,37.159,37.159,0,0,0,1.77-11.884,32.148,32.148,0,0,0-3.981-15.846,29.122,29.122,0,0,0-11.939-11.515q-7.96-4.328-20.164-4.331a46.224,46.224,0,0,0-17.777,3.317,39.669,39.669,0,0,0-13.708,9.213,38.578,38.578,0,0,0-8.491,13.634l13.444,6.633a34.057,34.057,0,0,1,9.2-13.726q5.838-5.067,16.98-5.068,10.436,0,16.1,4.975t5.66,14.556q0,11.241-5.483,16.491t-18.4,5.251h-2.742a26.649,26.649,0,0,1-3.095-.185v14.741a44.88,44.88,0,0,1,4.776-.46q2.3-.092,4.245-.093,8.311,0,13.443,2.119a14.474,14.474,0,0,1,7.518,6.541A23.065,23.065,0,0,1,196.9,290.6a23.609,23.609,0,0,1-2.831,11.7,20.449,20.449,0,0,1-8.136,8.014,26.621,26.621,0,0,1-13.089,2.949q-9.2,0-15.3-2.764a24.35,24.35,0,0,1-9.816-7.831,40.023,40.023,0,0,1-5.838-11.884l-14.151,7.555a37.879,37.879,0,0,0,16.185,21.1c1.306.836,2.648,1.6,4.018,2.3H102.9a34.767,34.767,0,0,0,12.9-12.338,35.8,35.8,0,0,0,5.041-18.978,29.083,29.083,0,0,0-1.681-9.857,26.252,26.252,0,0,0-4.864-8.384,24.052,24.052,0,0,0-7.694-5.9,25.072,25.072,0,0,0-10.348-2.394v-.369a23.865,23.865,0,0,0,8.313-3.04,25.79,25.79,0,0,0,6.987-6.172,29.6,29.6,0,0,0,4.864-9.121,37.159,37.159,0,0,0,1.77-11.884,32.158,32.158,0,0,0-3.981-15.846,29.128,29.128,0,0,0-11.939-11.515q-7.961-4.328-20.164-4.331a46.217,46.217,0,0,0-17.777,3.317,39.682,39.682,0,0,0-13.709,9.213,38.589,38.589,0,0,0-8.49,13.634L55.575,234.4a34.079,34.079,0,0,1,9.2-13.726q5.837-5.067,16.981-5.068,10.434,0,16.1,4.975t5.66,14.556q0,11.241-5.483,16.491t-18.4,5.251H76.89a26.666,26.666,0,0,1-3.1-.185v14.741a44.88,44.88,0,0,1,4.776-.46q2.3-.092,4.245-.093,8.313,0,13.443,2.119a14.474,14.474,0,0,1,7.518,6.541,23.077,23.077,0,0,1,2.387,11.055,23.609,23.609,0,0,1-2.83,11.7,20.451,20.451,0,0,1-8.137,8.014,26.614,26.614,0,0,1-13.088,2.949q-9.2,0-15.3-2.764a24.36,24.36,0,0,1-9.817-7.831,40.044,40.044,0,0,1-5.836-11.884L37,298.339a37.879,37.879,0,0,0,16.185,21.1c1.306.836,2.647,1.6,4.018,2.3H18.425V18.425H321.732Z"/>
      </g>
    </g>
</svg>
