<svg xmlns="http://www.w3.org/2000/svg" width="120mm" height="120mm" viewBox="0 0 340.158 340.157">
  <g id="Zimmernummer">
      <g id="Z-04-116-E">
        <path fill="#A09f9d" stroke="none" d="M337.323,0H2.835A2.836,2.836,0,0,0,0,2.835V337.323a2.834,2.834,0,0,0,2.835,2.834H337.323a2.834,2.834,0,0,0,2.835-2.834V2.835A2.836,2.836,0,0,0,337.323,0ZM214.152,300.273a25.082,25.082,0,0,1-3.361-12.805,25.913,25.913,0,0,1,3.184-12.99,22.967,22.967,0,0,1,8.933-8.844,26.846,26.846,0,0,1,13.354-3.225,28.846,28.846,0,0,1,13.8,3.04,20.781,20.781,0,0,1,8.668,8.66,27.961,27.961,0,0,1,3.006,13.359q0,11.979-6.721,18.7t-18.75,6.726a24.991,24.991,0,0,1-22.11-12.622Zm107.58,21.459H258.715a33.846,33.846,0,0,0,12.924-13.168,42.474,42.474,0,0,0,4.952-20.913q0-12.159-4.864-21a33.639,33.639,0,0,0-13.708-13.634,42.807,42.807,0,0,0-20.7-4.791,39.5,39.5,0,0,0-13,2.3,33.062,33.062,0,0,0-11.851,7.186,25.307,25.307,0,0,0-7.164,12.806H204.6V267.2a95.592,95.592,0,0,1,2.034-20.267,55.968,55.968,0,0,1,6.1-16.4,32.977,32.977,0,0,1,9.906-10.964,23.376,23.376,0,0,1,13.442-3.961q10.435,0,16.362,4.883a27.4,27.4,0,0,1,8.578,13.359l13.09-6.45a46.953,46.953,0,0,0-8.667-14.647,31.431,31.431,0,0,0-12.117-8.292,45.757,45.757,0,0,0-16.361-2.672,39.819,39.819,0,0,0-23.26,7.187q-10.347,7.185-16.362,21.1t-6.014,34.364q0,18.24,5.13,32.335t15.212,22.2a35.524,35.524,0,0,0,3.945,2.757H167.1v-118.1H154.72a36.732,36.732,0,0,1-7.075,7.185,88.71,88.71,0,0,1-9.994,6.911,90.665,90.665,0,0,1-10.259,5.342,29.8,29.8,0,0,1-8.048,2.488l3.714,13.451a65.993,65.993,0,0,0,30.247-17.136q-.178,3.869-.265,7.462t-.089,6.726v85.67H99.887v-118.1H87.505a36.7,36.7,0,0,1-7.075,7.185,88.8,88.8,0,0,1-9.994,6.911,90.749,90.749,0,0,1-10.259,5.342,29.792,29.792,0,0,1-8.049,2.488l3.715,13.451A65.993,65.993,0,0,0,86.09,221.874q-.178,3.869-.266,7.462t-.088,6.726v85.67H18.425V18.425H321.732Z"/>
      </g>
    </g>
</svg>
