<svg xmlns="http://www.w3.org/2000/svg" width="120mm" height="120mm" viewBox="0 0 340.158 340.158">
  <g id="Zimmernummer">
      <g id="Z-04-032">
        <path fill="#000000" stroke="none" d="M337.323,0H2.835A2.836,2.836,0,0,0,0,2.835V337.323a2.836,2.836,0,0,0,2.835,2.835H337.323a2.836,2.836,0,0,0,2.835-2.835V2.835A2.836,2.836,0,0,0,337.323,0ZM321.732,321.732H301.2V311.42H258.635q-1.843,0-5.436.093t-7.185.184q-3.594.094-5.62.276v-.183q21.74-14.555,34.455-26.533t18.241-22.939a49.2,49.2,0,0,0,5.528-22.387,40.648,40.648,0,0,0-2.856-15.477,34.306,34.306,0,0,0-8.2-12.069,37.068,37.068,0,0,0-12.805-7.83,48.28,48.28,0,0,0-16.859-2.764q-12.347,0-21.281,4.606a36.437,36.437,0,0,0-14.187,12.714,47.532,47.532,0,0,0-6.91,18.794l12.9,7.738q1.287-13.633,8.845-21.834t20.083-8.2q11.976,0,18.886,6.725t6.91,17.6a39.829,39.829,0,0,1-3.133,15.569,58.571,58.571,0,0,1-10.5,15.754,179.9,179.9,0,0,1-19.623,18.425q-12.255,10.135-30.494,23.584v8.469h-35.27a35.6,35.6,0,0,0,13.438-12.338,34.7,34.7,0,0,0,5.251-18.977,28.033,28.033,0,0,0-1.75-9.858,26.021,26.021,0,0,0-5.067-8.384,24.945,24.945,0,0,0-8.015-5.9,27.006,27.006,0,0,0-10.779-2.395v-.369a25.5,25.5,0,0,0,8.659-3.04,26.542,26.542,0,0,0,7.279-6.172,29.252,29.252,0,0,0,5.067-9.121,35.823,35.823,0,0,0,1.842-11.884,31.14,31.14,0,0,0-4.146-15.845,29.82,29.82,0,0,0-12.437-11.516q-8.291-4.328-21-4.33a49.919,49.919,0,0,0-18.518,3.316,41.5,41.5,0,0,0-14.279,9.213,38.4,38.4,0,0,0-8.844,13.634l14,6.634a34.042,34.042,0,0,1,9.581-13.727q6.081-5.067,17.688-5.067,10.869,0,16.767,4.974t5.9,14.556q0,11.241-5.711,16.491t-19.163,5.251h-2.856a28.9,28.9,0,0,1-3.224-.184v14.74a49.227,49.227,0,0,1,4.974-.46q2.394-.092,4.423-.093,8.658,0,14,2.119a14.9,14.9,0,0,1,7.83,6.541,22.3,22.3,0,0,1,2.488,11.055,22.859,22.859,0,0,1-2.948,11.7,20.928,20.928,0,0,1-8.476,8.015,28.678,28.678,0,0,1-13.634,2.948q-9.583,0-15.938-2.763a25.224,25.224,0,0,1-10.226-7.832,39.386,39.386,0,0,1-6.08-11.883l-14.74,7.554a38.108,38.108,0,0,0,16.859,21.1c1.359.836,2.757,1.6,4.185,2.3H18.425V18.425H321.732Z"/>
      </g>
    </g>
</svg>
