<svg xmlns="http://www.w3.org/2000/svg" width="120mm" height="120mm" viewBox="0 0 340.157 340.158">
  <g id="Zimmernummer">
      <g id="Z-04-542-E">
        <path fill="#A09f9d" stroke="none" d="M337.322,0H2.835A2.836,2.836,0,0,0,0,2.835V337.323a2.836,2.836,0,0,0,2.835,2.835H337.322a2.836,2.836,0,0,0,2.835-2.835V2.835A2.836,2.836,0,0,0,337.322,0ZM178.774,280.651h-41.92l30.6-44.774q2.827-4.236,6.191-9.949t5.483-10.318h.353q-.177,4.792-.442,9.765t-.265,9.765Zm142.958,41.081h-20.38V311.42h-40.86q-1.77,0-5.218.093t-6.9.184q-3.45.094-5.4.276v-.183q20.871-14.555,33.078-26.533t17.511-22.939a50.869,50.869,0,0,0,5.306-22.387,42.142,42.142,0,0,0-2.741-15.477,34.4,34.4,0,0,0-7.871-12.069,35.4,35.4,0,0,0-12.293-7.83,44.685,44.685,0,0,0-16.186-2.764q-11.851,0-20.43,4.606a35.541,35.541,0,0,0-13.62,12.714,48.8,48.8,0,0,0-6.632,18.794l12.381,7.738q1.236-13.633,8.491-21.834t19.28-8.2q11.5,0,18.131,6.725t6.633,17.6a41.3,41.3,0,0,1-3.007,15.569,58.818,58.818,0,0,1-10.083,15.754,175.935,175.935,0,0,1-18.838,18.425q-11.764,10.135-29.274,23.584v8.469H192.925V293.364H213.62V280.651H192.925V203.633H175.06l-53.242,78.861v10.87h56.956v28.368H96.411A35.226,35.226,0,0,0,112.27,303.5a45.549,45.549,0,0,0,3.006-16.952,44.138,44.138,0,0,0-4.6-20.635,33.634,33.634,0,0,0-12.823-13.727,37.255,37.255,0,0,0-19.37-4.883,41.042,41.042,0,0,0-15.831,2.764,30.483,30.483,0,0,0-10.878,7.37h-.353l.353-1.658,4.6-38.324h53.6v-13.82H44.347l-6.9,66.884,12.382,2.4a24.1,24.1,0,0,1,6.721-6.818,27.7,27.7,0,0,1,8.756-3.777,43.951,43.951,0,0,1,10.524-1.2,28.111,28.111,0,0,1,13.443,2.948,19.729,19.729,0,0,1,8.4,8.752q2.917,5.8,2.918,14.464A28.521,28.521,0,0,1,97.411,301.2a22.037,22.037,0,0,1-8.932,8.936,28.635,28.635,0,0,1-13.886,3.132q-11.5,0-17.423-5.988a36.21,36.21,0,0,1-8.755-15.569l-13.8,7.554q5.128,13.086,14.593,20.452a30.292,30.292,0,0,0,2.95,2.02H18.425V18.425H321.732Z"/>
      </g>
    </g>
</svg>
