<svg xmlns="http://www.w3.org/2000/svg" width="120mm" height="120mm" viewBox="0 0 340.158 340.158">
  <g id="Zimmernummer">
      <g id="Z-04-104-R">
        <path fill="#A0552B" stroke="none" d="M337.323,0H2.835A2.836,2.836,0,0,0,0,2.835V337.323a2.836,2.836,0,0,0,2.835,2.835H337.323a2.836,2.836,0,0,0,2.835-2.835V2.835A2.836,2.836,0,0,0,337.323,0ZM121.289,291.521q-3.275-11.055-3.272-27.084t3.272-27.086q3.271-11.055,9.729-16.674a25.107,25.107,0,0,1,31.662,0q6.454,5.622,9.728,16.674t3.273,27.086q0,16.029-3.273,27.084T162.68,308.2a25.111,25.111,0,0,1-31.662,0Q124.559,302.577,121.289,291.521ZM256.868,280.65H214.947l30.6-44.773q2.827-4.236,6.191-9.949t5.483-10.319h.354q-.179,4.794-.442,9.766t-.266,9.765Zm64.864,41.082H271.019V293.363h20.695V280.65H271.019V203.633H253.154l-53.242,78.86v10.87h56.956v28.369h-89.7a39.84,39.84,0,0,0,11.427-10.68q11.762-16.031,11.763-46.615T178.6,217.82q-11.766-16.029-31.75-16.03-19.812,0-31.662,16.03t-11.851,46.617q0,30.585,11.851,46.615a40.313,40.313,0,0,0,11.453,10.68H87.062v-118.1H74.681a36.683,36.683,0,0,1-7.076,7.185,88.606,88.606,0,0,1-9.993,6.911,90.58,90.58,0,0,1-10.259,5.342,29.8,29.8,0,0,1-8.048,2.488l3.714,13.451a63.293,63.293,0,0,0,16.273-6.541,63.706,63.706,0,0,0,13.974-10.595q-.178,3.869-.265,7.462t-.089,6.726v85.67H18.426V18.425H321.732Z"/>
      </g>
    </g>
</svg>
