<svg xmlns="http://www.w3.org/2000/svg" width="120mm" height="120mm" viewBox="0 0 340.158 340.157">
  <g id="Zimmernummer">
      <g id="Z-04-516-M">
        <path fill="#D4AF37" stroke="none" d="M337.323,0H2.835A2.836,2.836,0,0,0,0,2.835V337.323a2.834,2.834,0,0,0,2.835,2.834H337.323a2.834,2.834,0,0,0,2.835-2.834V2.835A2.836,2.836,0,0,0,337.323,0ZM224.055,300.273a25.081,25.081,0,0,1-3.36-12.805,25.9,25.9,0,0,1,3.184-12.99,22.957,22.957,0,0,1,8.932-8.844,26.85,26.85,0,0,1,13.355-3.225,28.849,28.849,0,0,1,13.8,3.04,20.784,20.784,0,0,1,8.667,8.66,27.95,27.95,0,0,1,3.006,13.359q0,11.979-6.721,18.7T246.166,312.9a24.992,24.992,0,0,1-22.111-12.622Zm97.677,21.459H268.618a33.846,33.846,0,0,0,12.924-13.168,42.463,42.463,0,0,0,4.953-20.913q0-12.159-4.864-21a33.651,33.651,0,0,0-13.708-13.634,42.813,42.813,0,0,0-20.7-4.791,39.5,39.5,0,0,0-13,2.3,33.079,33.079,0,0,0-11.851,7.186,25.306,25.306,0,0,0-7.163,12.806H214.5V267.2a95.657,95.657,0,0,1,2.034-20.267,56,56,0,0,1,6.1-16.4,32.977,32.977,0,0,1,9.906-10.964,23.377,23.377,0,0,1,13.443-3.961q10.434,0,16.361,4.883a27.405,27.405,0,0,1,8.579,13.359l13.089-6.45a46.934,46.934,0,0,0-8.667-14.647,31.435,31.435,0,0,0-12.116-8.292,45.766,45.766,0,0,0-16.362-2.672,39.821,39.821,0,0,0-23.26,7.187q-10.347,7.185-16.361,21.1t-6.014,34.364q0,18.24,5.129,32.335t15.212,22.2a35.524,35.524,0,0,0,3.945,2.757H180.543v-118.1H168.161a36.675,36.675,0,0,1-7.075,7.185,88.8,88.8,0,0,1-9.994,6.911,90.665,90.665,0,0,1-10.259,5.342,29.8,29.8,0,0,1-8.048,2.488L136.5,239.01a65.993,65.993,0,0,0,30.247-17.136q-.179,3.869-.266,7.462t-.088,6.726v85.67H111.976A35.212,35.212,0,0,0,127.835,303.5a45.5,45.5,0,0,0,3.007-16.951,44.157,44.157,0,0,0-4.6-20.636,33.633,33.633,0,0,0-12.824-13.726A37.253,37.253,0,0,0,94.05,247.3a41.055,41.055,0,0,0-15.831,2.763,30.472,30.472,0,0,0-10.878,7.371h-.354l.354-1.659,4.6-38.324h53.6V203.633H59.912l-6.9,66.884L65.4,272.912a24.084,24.084,0,0,1,6.722-6.817,27.7,27.7,0,0,1,8.755-3.778,44.01,44.01,0,0,1,10.525-1.2,28.117,28.117,0,0,1,13.443,2.948,19.721,19.721,0,0,1,8.4,8.752q2.917,5.8,2.918,14.464a28.521,28.521,0,0,1-3.184,13.911,22.033,22.033,0,0,1-8.932,8.937,28.633,28.633,0,0,1-13.885,3.132q-11.5,0-17.423-5.989a36.205,36.205,0,0,1-8.756-15.569l-13.8,7.555q5.128,13.085,14.593,20.452a30.485,30.485,0,0,0,2.951,2.02h-49.3V18.425H321.732Z"/>
      </g>
    </g>
</svg>
