<svg xmlns="http://www.w3.org/2000/svg" width="120mm" height="120mm" viewBox="0 0 340.158 340.158">
  <g id="Zimmernummer">
      <g id="Z-04-102-R">
        <path fill="#A0552B" stroke="none" d="M337.323,0H2.835A2.836,2.836,0,0,0,0,2.835V337.323a2.836,2.836,0,0,0,2.835,2.835H337.323a2.836,2.836,0,0,0,2.835-2.835V2.835A2.836,2.836,0,0,0,337.323,0ZM125.534,291.522q-3.275-11.055-3.272-27.085t3.272-27.086q3.271-11.053,9.729-16.674a25.107,25.107,0,0,1,31.662,0q6.454,5.622,9.728,16.674t3.273,27.086q0,16.031-3.273,27.085T166.925,308.2a25.111,25.111,0,0,1-31.662,0Q128.8,302.578,125.534,291.522Zm196.2,30.21H285.346V311.42h-40.86q-1.769,0-5.217.093t-6.9.184q-3.449.094-5.4.276v-.183q20.87-14.555,33.077-26.533t17.511-22.939a50.856,50.856,0,0,0,5.307-22.387,42.142,42.142,0,0,0-2.742-15.477,34.4,34.4,0,0,0-7.871-12.069,35.4,35.4,0,0,0-12.293-7.83,44.68,44.68,0,0,0-16.185-2.764q-11.853,0-20.43,4.606a35.527,35.527,0,0,0-13.62,12.714,48.782,48.782,0,0,0-6.633,18.794l12.382,7.738q1.236-13.633,8.49-21.834t19.28-8.2q11.5,0,18.131,6.725t6.633,17.6a41.277,41.277,0,0,1-3.007,15.569,58.837,58.837,0,0,1-10.082,15.754,175.935,175.935,0,0,1-18.838,18.425q-11.766,10.135-29.274,23.584v8.469H171.418a39.837,39.837,0,0,0,11.426-10.68q11.762-16.029,11.763-46.615t-11.763-46.616q-11.766-16.031-31.75-16.03-19.812,0-31.662,16.03t-11.851,46.616q0,30.586,11.851,46.615a40.31,40.31,0,0,0,11.452,10.68H90.424v-118.1H78.042a36.734,36.734,0,0,1-7.075,7.186,88.755,88.755,0,0,1-9.994,6.91,90.681,90.681,0,0,1-10.259,5.343,29.753,29.753,0,0,1-8.048,2.487L46.38,239.01a63.236,63.236,0,0,0,16.273-6.541,63.78,63.78,0,0,0,13.974-10.594q-.178,3.869-.266,7.461t-.088,6.726v85.67H18.426V18.425H321.732Z"/>
      </g>
    </g>
</svg>
