<svg xmlns="http://www.w3.org/2000/svg" width="120mm" height="120mm" viewBox="0 0 340.158 340.157">
  <g id="Zimmernummer">
      <g id="Z-04-448">
        <path fill="#000000" stroke="none" d="M337.323,0H2.835A2.836,2.836,0,0,0,0,2.835V337.323a2.834,2.834,0,0,0,2.835,2.834H337.323a2.834,2.834,0,0,0,2.835-2.834V2.835A2.836,2.836,0,0,0,337.323,0ZM86.266,280.651H44.345l30.6-44.774q2.826-4.236,6.19-9.949t5.483-10.318h.354q-.177,4.792-.442,9.765t-.265,9.764Zm34.846,12.713h53.77v28.368H100.416V293.364h20.7Zm54.036-67.989q-.266,4.976-.266,9.764v45.512H132.961l30.6-44.774q2.827-4.236,6.19-9.949t5.484-10.318h.354Q175.412,220.4,175.148,225.375Zm70.574,45.786a41.426,41.426,0,0,1,29.274,0,21.78,21.78,0,0,1,9.64,7.738,22.769,22.769,0,0,1,.089,23.953,21.151,21.151,0,0,1-9.552,7.738,42.4,42.4,0,0,1-29.628,0,21.772,21.772,0,0,1-9.552-31.691A21.7,21.7,0,0,1,245.722,271.161Zm-7.871-35.836q0-9.211,6.1-14.371t16.362-5.161q10.434,0,16.45,5.161t6.014,14.371q0,9.029-6.191,14.187t-16.273,5.158q-10.083,0-16.274-5.158T237.851,235.325Zm83.881,86.407H284.987a33.772,33.772,0,0,0,12.473-10.864,31.785,31.785,0,0,0,5.307-18.426q0-11.423-5.926-19.346A35.347,35.347,0,0,0,281.01,261.3v-.183a27.762,27.762,0,0,0,12.116-10.78,30.984,30.984,0,0,0,4.334-16.49,30.659,30.659,0,0,0-4.6-17.043,30.139,30.139,0,0,0-12.913-10.963,51.524,51.524,0,0,0-39.178,0,30.013,30.013,0,0,0-13,10.963q-4.6,7.1-4.6,17.043a30.408,30.408,0,0,0,4.511,16.676A27.9,27.9,0,0,0,239.8,261.12v.183a34.3,34.3,0,0,0-16.1,11.885q-5.837,8.016-5.836,19.254a31.784,31.784,0,0,0,5.305,18.426,33.639,33.639,0,0,0,12.541,10.864H189.032V293.364h20.7V280.651h-20.7V203.633H171.167l-52,77.018H100.416V203.633H82.551L29.31,282.493v10.871H86.266v28.368H18.425V18.425H321.732Z"/>
      </g>
    </g>
</svg>
