<svg xmlns="http://www.w3.org/2000/svg" width="120mm" height="120mm" viewBox="0 0 340.158 340.157">
  <g id="Zimmernummer">
      <g id="Z-04-200-R">
        <path fill="#A0552B" stroke="none" d="M337.323,0H2.835A2.836,2.836,0,0,0,0,2.835V337.323a2.834,2.834,0,0,0,2.835,2.834H337.323a2.834,2.834,0,0,0,2.835-2.834V2.835A2.836,2.836,0,0,0,337.323,0ZM139.157,291.521q-3.275-11.055-3.272-27.084t3.272-27.086q3.271-11.055,9.728-16.674a25.109,25.109,0,0,1,31.663,0q6.454,5.622,9.728,16.674t3.272,27.086q0,16.029-3.272,27.084T180.548,308.2a25.112,25.112,0,0,1-31.663,0Q142.428,302.577,139.157,291.521Zm94.1,0q-3.274-11.055-3.272-27.084t3.272-27.086q3.271-11.055,9.729-16.674a25.107,25.107,0,0,1,31.662,0q6.454,5.622,9.728,16.674t3.272,27.086q0,16.029-3.272,27.084T274.648,308.2a25.111,25.111,0,0,1-31.662,0Q236.526,302.577,233.257,291.521Zm88.475,30.211H279.14a39.84,39.84,0,0,0,11.427-10.68q11.762-16.031,11.762-46.615T290.567,217.82q-11.766-16.029-31.75-16.03-19.812,0-31.662,16.03T215.3,264.437q0,30.585,11.852,46.615a40.3,40.3,0,0,0,11.452,10.68H185.04a39.84,39.84,0,0,0,11.427-10.68q11.76-16.031,11.762-46.615T196.467,217.82q-11.766-16.029-31.75-16.03-19.812,0-31.663,16.03T121.2,264.437q0,30.585,11.851,46.615a40.313,40.313,0,0,0,11.453,10.68H114.13V311.42H73.27q-1.77,0-5.218.093t-6.9.183q-3.45.1-5.4.277v-.184q20.87-14.553,33.077-26.532t17.511-22.94a50.848,50.848,0,0,0,5.306-22.386,42.123,42.123,0,0,0-2.742-15.478,34.392,34.392,0,0,0-7.871-12.068,35.364,35.364,0,0,0-12.293-7.83,44.679,44.679,0,0,0-16.185-2.765q-11.851,0-20.429,4.606A35.53,35.53,0,0,0,38.512,219.11,48.8,48.8,0,0,0,31.88,237.9l12.381,7.739q1.236-13.633,8.491-21.834t19.279-8.2q11.5,0,18.131,6.726t6.633,17.6A41.281,41.281,0,0,1,93.788,255.5a58.837,58.837,0,0,1-10.082,15.754,176.031,176.031,0,0,1-18.838,18.425Q53.1,299.814,35.594,313.263v8.469H18.425V18.425H321.732Z"/>
      </g>
    </g>
</svg>
