<svg xmlns="http://www.w3.org/2000/svg" width="120mm" height="120mm" viewBox="0 0 340.158 340.157">
  <g id="Zimmernummer">
      <g id="Z-04-245-R">
        <path fill="#A0552B" stroke="none" d="M337.323,0H2.835A2.836,2.836,0,0,0,0,2.835V337.323a2.834,2.834,0,0,0,2.835,2.834H337.323a2.834,2.834,0,0,0,2.835-2.834V2.835A2.836,2.836,0,0,0,337.323,0ZM174.535,280.65H132.614l30.6-44.773q2.829-4.236,6.191-9.949t5.484-10.319h.354q-.178,4.794-.443,9.766t-.265,9.765Zm147.2,41.082H278.424A35.212,35.212,0,0,0,294.283,303.5a45.5,45.5,0,0,0,3.007-16.951,44.145,44.145,0,0,0-4.6-20.636,33.633,33.633,0,0,0-12.824-13.726A37.252,37.252,0,0,0,260.5,247.3a41.06,41.06,0,0,0-15.832,2.763,30.472,30.472,0,0,0-10.878,7.371h-.353l.353-1.659,4.6-38.324h53.6V203.633H226.36l-6.9,66.884,12.381,2.395a24.11,24.11,0,0,1,6.722-6.817,27.693,27.693,0,0,1,8.756-3.778,44,44,0,0,1,10.524-1.2,28.117,28.117,0,0,1,13.443,2.948,19.721,19.721,0,0,1,8.4,8.752q2.919,5.8,2.918,14.464a28.521,28.521,0,0,1-3.183,13.911,22.036,22.036,0,0,1-8.933,8.937,28.633,28.633,0,0,1-13.885,3.132q-11.5,0-17.423-5.989a36.205,36.205,0,0,1-8.756-15.569l-13.8,7.555q5.129,13.085,14.593,20.452a30.306,30.306,0,0,0,2.951,2.02H188.686V293.363h20.695V280.65H188.686V203.633H170.82l-53.241,78.86v10.87h56.956v28.369H119.526V311.42H78.667q-1.772,0-5.219.093t-6.9.183q-3.45.1-5.395.277v-.184q20.869-14.553,33.077-26.532t17.511-22.94a50.849,50.849,0,0,0,5.307-22.386,42.144,42.144,0,0,0-2.742-15.478,34.406,34.406,0,0,0-7.871-12.068,35.383,35.383,0,0,0-12.293-7.83,44.679,44.679,0,0,0-16.185-2.765q-11.853,0-20.43,4.606a35.534,35.534,0,0,0-13.62,12.714A48.788,48.788,0,0,0,37.276,237.9l12.382,7.739q1.234-13.633,8.49-21.834t19.28-8.2q11.5,0,18.131,6.726t6.633,17.6A41.3,41.3,0,0,1,99.185,255.5,58.861,58.861,0,0,1,89.1,271.254a176.125,176.125,0,0,1-18.838,18.425Q58.5,299.814,40.991,313.263v8.469H18.425V18.425H321.732Z"/>
      </g>
    </g>
</svg>
