<svg xmlns="http://www.w3.org/2000/svg" width="120mm" height="120mm" viewBox="0 0 340.158 340.158">
  <g id="Zimmernummer">
      <g id="Z-04-342-E">
        <path fill="#A09f9d" stroke="none" d="M337.323,0H2.835A2.836,2.836,0,0,0,0,2.835V337.323a2.836,2.836,0,0,0,2.835,2.835H337.323a2.836,2.836,0,0,0,2.835-2.835V2.835A2.836,2.836,0,0,0,337.323,0ZM180.63,280.651H138.709l30.6-44.774q2.827-4.236,6.19-9.949t5.484-10.318h.354q-.179,4.792-.442,9.765t-.266,9.765Zm141.1,41.081H303.208V311.42h-40.86q-1.77,0-5.218.093t-6.9.184q-3.448.094-5.4.276v-.183q20.87-14.555,33.077-26.533t17.511-22.939a50.856,50.856,0,0,0,5.307-22.387,42.163,42.163,0,0,0-2.741-15.477,34.426,34.426,0,0,0-7.872-12.069,35.379,35.379,0,0,0-12.293-7.83,44.68,44.68,0,0,0-16.185-2.764q-11.852,0-20.43,4.606a35.527,35.527,0,0,0-13.62,12.714,48.815,48.815,0,0,0-6.633,18.794l12.382,7.738q1.234-13.633,8.49-21.834t19.281-8.2q11.495,0,18.13,6.725t6.632,17.6a41.3,41.3,0,0,1-3.006,15.569,58.837,58.837,0,0,1-10.082,15.754,176.03,176.03,0,0,1-18.838,18.425q-11.766,10.135-29.275,23.584v8.469H194.781V293.364h20.695V280.651H194.781V203.633H176.915l-53.241,78.861v10.87H180.63v28.368H95.121a34.767,34.767,0,0,0,12.9-12.338,35.8,35.8,0,0,0,5.041-18.977,29.088,29.088,0,0,0-1.681-9.858,26.234,26.234,0,0,0-4.864-8.384,24.024,24.024,0,0,0-7.694-5.9,25.056,25.056,0,0,0-10.348-2.395v-.369a23.838,23.838,0,0,0,8.313-3.04,25.777,25.777,0,0,0,6.988-6.172,29.641,29.641,0,0,0,4.864-9.121A37.188,37.188,0,0,0,110.41,233.3a32.157,32.157,0,0,0-3.98-15.845,29.142,29.142,0,0,0-11.939-11.516q-7.961-4.328-20.165-4.33a46.22,46.22,0,0,0-17.777,3.316,39.715,39.715,0,0,0-13.709,9.213,38.636,38.636,0,0,0-8.49,13.634L47.793,234.4a34.067,34.067,0,0,1,9.2-13.727q5.835-5.067,16.98-5.067,10.434,0,16.1,4.974t5.661,14.556q0,11.241-5.484,16.491t-18.4,5.251H69.108a26.66,26.66,0,0,1-3.1-.184v14.74a45.408,45.408,0,0,1,4.776-.46q2.3-.092,4.246-.093,8.311,0,13.442,2.119a14.474,14.474,0,0,1,7.518,6.541A23.08,23.08,0,0,1,98.381,290.6a23.606,23.606,0,0,1-2.83,11.7,20.46,20.46,0,0,1-8.137,8.015,26.614,26.614,0,0,1-13.088,2.948q-9.2,0-15.3-2.763a24.366,24.366,0,0,1-9.818-7.832,40.028,40.028,0,0,1-5.837-11.883l-14.15,7.554a37.875,37.875,0,0,0,16.185,21.1c1.3.836,2.647,1.6,4.018,2.3h-31V18.425H321.732Z"/>
      </g>
    </g>
</svg>
