<svg xmlns="http://www.w3.org/2000/svg" width="120mm" height="120mm" viewBox="0 0 340.158 340.157">
  <g id="Zimmernummer">
      <g id="Z-04-443-R">
        <path fill="#A0552B" stroke="none" d="M337.323,0H2.835A2.836,2.836,0,0,0,0,2.835V337.323a2.834,2.834,0,0,0,2.835,2.834H337.323a2.834,2.834,0,0,0,2.835-2.834V2.835A2.836,2.836,0,0,0,337.323,0ZM90.953,280.65H49.032l30.6-44.774q2.828-4.236,6.19-9.949t5.484-10.318h.354q-.178,4.792-.442,9.766t-.266,9.764ZM125.8,293.363H179.57v28.369H105.1V293.363h20.7Zm54.036-67.988q-.266,4.974-.265,9.764V280.65H137.649l30.6-44.774q2.827-4.236,6.192-9.949t5.483-10.318h.354Q180.1,220.4,179.835,225.375Zm141.9,96.357H280.49a34.743,34.743,0,0,0,12.9-12.339,35.789,35.789,0,0,0,5.041-18.977,29.088,29.088,0,0,0-1.68-9.858,26.252,26.252,0,0,0-4.864-8.384,24.035,24.035,0,0,0-7.694-5.9,25.056,25.056,0,0,0-10.348-2.4v-.369a23.845,23.845,0,0,0,8.313-3.04,25.788,25.788,0,0,0,6.987-6.172,29.62,29.62,0,0,0,4.864-9.121A37.16,37.16,0,0,0,295.78,233.3a32.157,32.157,0,0,0-3.98-15.845,29.136,29.136,0,0,0-11.939-11.516q-7.961-4.328-20.164-4.33a46.222,46.222,0,0,0-17.778,3.316,39.7,39.7,0,0,0-13.708,9.213,38.607,38.607,0,0,0-8.49,13.634l13.443,6.634a34.066,34.066,0,0,1,9.2-13.727q5.836-5.067,16.98-5.067,10.435,0,16.1,4.974t5.66,14.556q0,11.241-5.484,16.491t-18.395,5.251h-2.742a26.643,26.643,0,0,1-3.095-.184v14.74a45.364,45.364,0,0,1,4.775-.46q2.3-.09,4.246-.093,8.312,0,13.443,2.119a14.482,14.482,0,0,1,7.518,6.541,23.08,23.08,0,0,1,2.387,11.055,23.606,23.606,0,0,1-2.83,11.7,20.466,20.466,0,0,1-8.137,8.015,26.617,26.617,0,0,1-13.088,2.948q-9.2,0-15.3-2.763a24.366,24.366,0,0,1-9.818-7.832,40.052,40.052,0,0,1-5.837-11.883l-14.15,7.554a37.879,37.879,0,0,0,16.185,21.1c1.306.837,2.648,1.6,4.019,2.3H193.721V293.363h20.694V280.65H193.721V203.632H175.856l-52,77.018H105.1V203.632H87.239L34,282.493v10.87H90.953v28.369H18.425V18.425H321.732Z"/>
      </g>
    </g>
</svg>
