<svg xmlns="http://www.w3.org/2000/svg" width="120mm" height="120mm" viewBox="0 0 340.158 340.157">
  <g id="Zimmernummer">
      <g id="Z-04-226-M">
        <path fill="#D4AF37" stroke="none" d="M337.323,0H2.835A2.836,2.836,0,0,0,0,2.835V337.323a2.834,2.834,0,0,0,2.835,2.834H337.323a2.834,2.834,0,0,0,2.835-2.834V2.835A2.836,2.836,0,0,0,337.323,0ZM237.68,300.273a25.072,25.072,0,0,1-3.361-12.805,25.9,25.9,0,0,1,3.184-12.99,22.973,22.973,0,0,1,8.933-8.844,26.849,26.849,0,0,1,13.354-3.225,28.846,28.846,0,0,1,13.8,3.04,20.779,20.779,0,0,1,8.667,8.66,27.95,27.95,0,0,1,3.007,13.359q0,11.979-6.721,18.7T259.79,312.9a24.991,24.991,0,0,1-22.11-12.622Zm84.052,21.459H282.243a33.846,33.846,0,0,0,12.924-13.168,42.463,42.463,0,0,0,4.952-20.913q0-12.159-4.864-21a33.639,33.639,0,0,0-13.708-13.634,42.809,42.809,0,0,0-20.7-4.791,39.5,39.5,0,0,0-13,2.3A33.079,33.079,0,0,0,236,257.711a25.307,25.307,0,0,0-7.164,12.806h-.708V267.2a95.655,95.655,0,0,1,2.035-20.267,55.968,55.968,0,0,1,6.1-16.4,32.985,32.985,0,0,1,9.905-10.964,23.382,23.382,0,0,1,13.443-3.961q10.435,0,16.362,4.883a27.412,27.412,0,0,1,8.579,13.359l13.089-6.45a46.934,46.934,0,0,0-8.667-14.647,31.431,31.431,0,0,0-12.117-8.292A45.757,45.757,0,0,0,260.5,201.79a39.821,39.821,0,0,0-23.26,7.187q-10.349,7.185-16.362,21.1t-6.014,34.364q0,18.24,5.13,32.335t15.212,22.2a35.524,35.524,0,0,0,3.945,2.757H207.788V311.42H166.929q-1.77,0-5.219.093t-6.9.183q-3.449.1-5.4.277v-.184q20.87-14.553,33.077-26.532t17.511-22.94a50.849,50.849,0,0,0,5.307-22.386,42.144,42.144,0,0,0-2.742-15.478,34.392,34.392,0,0,0-7.871-12.068,35.373,35.373,0,0,0-12.293-7.83,44.679,44.679,0,0,0-16.185-2.765q-11.853,0-20.43,4.606a35.534,35.534,0,0,0-13.62,12.714,48.821,48.821,0,0,0-6.633,18.794l12.382,7.739q1.236-13.633,8.49-21.834t19.28-8.2q11.5,0,18.131,6.726t6.633,17.6a41.281,41.281,0,0,1-3.007,15.569,58.837,58.837,0,0,1-10.082,15.754,176.031,176.031,0,0,1-18.838,18.425q-11.766,10.135-29.274,23.584v8.469h-12.2V311.42H76.189q-1.77,0-5.217.093t-6.9.183q-3.45.1-5.395.277v-.184q20.869-14.553,33.077-26.532t17.512-22.94a50.861,50.861,0,0,0,5.306-22.386,42.144,42.144,0,0,0-2.742-15.478,34.406,34.406,0,0,0-7.871-12.068,35.373,35.373,0,0,0-12.293-7.83,44.679,44.679,0,0,0-16.185-2.765q-11.853,0-20.43,4.606a35.534,35.534,0,0,0-13.62,12.714A48.788,48.788,0,0,0,34.8,237.9l12.382,7.739q1.234-13.633,8.49-21.834t19.28-8.2q11.5,0,18.131,6.726t6.633,17.6A41.3,41.3,0,0,1,96.708,255.5a58.842,58.842,0,0,1-10.083,15.754,176.01,176.01,0,0,1-18.837,18.425q-11.766,10.135-29.274,23.584v8.469H18.425V18.425H321.732Z"/>
      </g>
    </g>
</svg>
