<svg xmlns="http://www.w3.org/2000/svg" width="120mm" height="120mm" viewBox="0 0 340.158 340.158">
  <g id="Zimmernummer">
      <g id="Z-04-309-R">
        <path fill="#A0552B" stroke="none" d="M337.323,0H2.835A2.836,2.836,0,0,0,0,2.835V337.323a2.836,2.836,0,0,0,2.835,2.835H337.323a2.836,2.836,0,0,0,2.835-2.835V2.835A2.836,2.836,0,0,0,337.323,0ZM139.6,291.521q-3.276-11.055-3.273-27.084t3.273-27.086q3.27-11.055,9.728-16.674a25.107,25.107,0,0,1,31.662,0q6.454,5.622,9.728,16.674t3.273,27.086q0,16.029-3.273,27.084T180.991,308.2a25.111,25.111,0,0,1-31.662,0Q142.87,302.577,139.6,291.521Zm182.131,30.211H278.779c.98-.57,1.936-1.175,2.856-1.836q9.993-7.186,15.124-21.1t5.13-34.362q0-18.425-5.13-32.521t-15.212-22.11q-10.082-8.016-24.763-8.016-12.562,0-21.58,5.067a34.112,34.112,0,0,0-13.8,14.188q-4.776,9.12-4.776,21.649,0,11.609,4.953,20.084a34.23,34.23,0,0,0,13.8,13.174,42.7,42.7,0,0,0,20.341,4.7,41.482,41.482,0,0,0,13.178-2.211,31.6,31.6,0,0,0,11.939-7.278,27.339,27.339,0,0,0,7.43-13.358h.707v1.658a149.008,149.008,0,0,1-1.5,22.11,57.417,57.417,0,0,1-5.041,17.044,26.113,26.113,0,0,1-9.64,10.87q-6.1,3.78-15.3,3.778-11.322,0-17.777-5.9a33.1,33.1,0,0,1-9.286-15.477l-13.973,7.738q5.128,13.452,15.565,20.452,1.314.882,2.693,1.652h-49.23a39.84,39.84,0,0,0,11.427-10.68q11.762-16.031,11.763-46.615T196.91,217.82q-11.764-16.029-31.75-16.03-19.812,0-31.662,16.03t-11.851,46.617q0,30.585,11.851,46.615a40.313,40.313,0,0,0,11.453,10.68h-48.5a34.74,34.74,0,0,0,12.9-12.338,35.8,35.8,0,0,0,5.041-18.978,29.082,29.082,0,0,0-1.68-9.857,26.252,26.252,0,0,0-4.864-8.384,24.045,24.045,0,0,0-7.7-5.9,25.071,25.071,0,0,0-10.347-2.394v-.369a23.865,23.865,0,0,0,8.313-3.04,25.79,25.79,0,0,0,6.987-6.172,29.6,29.6,0,0,0,4.864-9.121,37.188,37.188,0,0,0,1.769-11.884,32.158,32.158,0,0,0-3.98-15.846,29.128,29.128,0,0,0-11.939-11.515q-7.961-4.328-20.165-4.331a46.224,46.224,0,0,0-17.777,3.317,39.687,39.687,0,0,0-13.708,9.213,38.575,38.575,0,0,0-8.49,13.634L49.127,234.4a34.059,34.059,0,0,1,9.2-13.726q5.837-5.067,16.98-5.068,10.435,0,16.1,4.975t5.661,14.556q0,11.241-5.484,16.491t-18.395,5.251H70.441a26.679,26.679,0,0,1-3.1-.185v14.741a44.93,44.93,0,0,1,4.776-.46q2.3-.092,4.246-.093,8.311,0,13.443,2.119a14.476,14.476,0,0,1,7.517,6.541A23.065,23.065,0,0,1,99.715,290.6a23.609,23.609,0,0,1-2.83,11.7,20.458,20.458,0,0,1-8.137,8.014,26.615,26.615,0,0,1-13.089,2.949q-9.2,0-15.3-2.764a24.36,24.36,0,0,1-9.817-7.831,40.046,40.046,0,0,1-5.837-11.884l-14.151,7.555a37.875,37.875,0,0,0,16.185,21.1c1.306.836,2.648,1.6,4.019,2.3H18.425V18.425H321.732Zm-39.3-80.328a25.9,25.9,0,0,1-3.184,12.991,22.951,22.951,0,0,1-8.933,8.843,26.833,26.833,0,0,1-13.354,3.225q-11.675,0-18.573-6.357t-6.9-17.227q0-12.714,6.544-19.808t18.927-7.093a27.484,27.484,0,0,1,13.354,3.132,22.209,22.209,0,0,1,8.933,8.844A27.2,27.2,0,0,1,282.432,241.4Z"/>
      </g>
    </g>
</svg>
