<svg xmlns="http://www.w3.org/2000/svg" width="120mm" height="120mm" viewBox="0 0 340.158 340.157">
  <g id="Zimmernummer">
      <g id="Z-04-415-M">
        <path fill="#D4AF37" stroke="none" d="M337.323,0H2.835A2.836,2.836,0,0,0,0,2.835V337.323a2.834,2.834,0,0,0,2.835,2.834H337.323a2.834,2.834,0,0,0,2.835-2.834V2.835A2.836,2.836,0,0,0,337.323,0ZM103.157,280.65H61.236l30.6-44.773q2.826-4.236,6.19-9.949t5.483-10.319h.355q-.178,4.794-.442,9.766t-.266,9.765Zm218.575,41.082H267.9A35.212,35.212,0,0,0,283.754,303.5a45.5,45.5,0,0,0,3.006-16.951,44.157,44.157,0,0,0-4.6-20.636,33.633,33.633,0,0,0-12.824-13.726,37.253,37.253,0,0,0-19.369-4.883,41.058,41.058,0,0,0-15.831,2.763,30.489,30.489,0,0,0-10.878,7.371h-.354l.354-1.659,4.6-38.324h53.6V203.633H215.831l-6.9,66.884,12.382,2.395a24.084,24.084,0,0,1,6.722-6.817,27.693,27.693,0,0,1,8.756-3.778,44,44,0,0,1,10.524-1.2,28.114,28.114,0,0,1,13.443,2.948,19.716,19.716,0,0,1,8.4,8.752q2.917,5.8,2.918,14.464a28.51,28.51,0,0,1-3.184,13.911,22.027,22.027,0,0,1-8.932,8.937,28.63,28.63,0,0,1-13.885,3.132q-11.5,0-17.423-5.989a36.205,36.205,0,0,1-8.756-15.569l-13.8,7.555q5.128,13.085,14.593,20.452a30.306,30.306,0,0,0,2.951,2.02H185.761v-118.1H173.38a36.74,36.74,0,0,1-7.076,7.185,88.71,88.71,0,0,1-9.994,6.911,90.656,90.656,0,0,1-10.258,5.342A29.8,29.8,0,0,1,138,225.559l3.715,13.451a65.993,65.993,0,0,0,30.247-17.136q-.18,3.869-.266,7.462t-.089,6.726v85.67h-54.3V293.363H138V280.65h-20.7V203.633H99.442L46.2,282.493v10.87h56.956v28.369H18.425V18.425H321.732Z"/>
      </g>
    </g>
</svg>
