<svg xmlns="http://www.w3.org/2000/svg" width="120mm" height="120mm" viewBox="0 0 340.158 340.158">
  <g id="Zimmernummer">
      <g id="Z-04-517-R">
        <path fill="#A0552B" stroke="none" d="M337.323,0H2.835A2.836,2.836,0,0,0,0,2.835V337.323a2.836,2.836,0,0,0,2.835,2.835H337.323a2.836,2.836,0,0,0,2.835-2.835V2.835A2.836,2.836,0,0,0,337.323,0ZM321.732,321.732H247.891a171.644,171.644,0,0,1,4.2-35.554,139.2,139.2,0,0,1,13.531-35.469,173.307,173.307,0,0,1,23.968-33.256v-13.82H203.625v13.82h70.584a164.52,164.52,0,0,0-21.234,30.033,156.12,156.12,0,0,0-14.769,37.679,165.454,165.454,0,0,0-4.812,36.567H187.352v-118.1H174.97a36.678,36.678,0,0,1-7.075,7.186,88.574,88.574,0,0,1-9.994,6.91,90.6,90.6,0,0,1-10.259,5.343,29.743,29.743,0,0,1-8.048,2.487l3.714,13.451a65.99,65.99,0,0,0,30.247-17.135q-.178,3.869-.265,7.461t-.088,6.726v85.67H118.786A35.208,35.208,0,0,0,134.644,303.5a45.528,45.528,0,0,0,3.007-16.952,44.138,44.138,0,0,0-4.6-20.635,33.629,33.629,0,0,0-12.824-13.727,37.248,37.248,0,0,0-19.369-4.883,41.039,41.039,0,0,0-15.831,2.764,30.483,30.483,0,0,0-10.878,7.37H73.8l.353-1.658,4.6-38.324h53.6v-13.82H66.721l-6.9,66.884,12.382,2.4a24.088,24.088,0,0,1,6.722-6.818,27.68,27.68,0,0,1,8.754-3.777,43.965,43.965,0,0,1,10.525-1.2,28.114,28.114,0,0,1,13.443,2.948,19.729,19.729,0,0,1,8.4,8.752q2.917,5.8,2.917,14.464a28.51,28.51,0,0,1-3.183,13.911,22.033,22.033,0,0,1-8.933,8.936,28.632,28.632,0,0,1-13.884,3.132q-11.5,0-17.423-5.988a36.2,36.2,0,0,1-8.756-15.569l-13.8,7.554q5.128,13.086,14.593,20.452a30.292,30.292,0,0,0,2.95,2.02H18.425V18.425H321.732Z"/>
      </g>
    </g>
</svg>
