<svg xmlns="http://www.w3.org/2000/svg" width="120mm" height="120mm" viewBox="0 0 340.158 340.158">
  <g id="Zimmernummer">
      <g id="Z-04-028">
        <path fill="#000000" stroke="none" d="M339.327.831a2.835,2.835,0,0,0-2-.831H2.835A2.836,2.836,0,0,0,0,2.835V337.323a2.836,2.836,0,0,0,2.835,2.835H337.323a2.837,2.837,0,0,0,2.835-2.835V2.835A2.831,2.831,0,0,0,339.327.831ZM240.679,271.044a44.834,44.834,0,0,1,30.493,0,22.52,22.52,0,0,1,10.042,7.738,21.994,21.994,0,0,1,.092,23.953,21.888,21.888,0,0,1-9.95,7.739,45.89,45.89,0,0,1-30.861,0,21.817,21.817,0,0,1-10.042-7.739,21.994,21.994,0,0,1,.092-23.953A22.452,22.452,0,0,1,240.679,271.044Zm-8.2-35.837q0-9.211,6.357-14.372t17.043-5.159q10.87,0,17.136,5.159t6.264,14.372q0,9.03-6.448,14.188t-16.952,5.158q-10.5,0-16.951-5.158T232.479,235.207Zm89.253,86.525H281.326a34.88,34.88,0,0,0,13.246-10.982,30.863,30.863,0,0,0,5.528-18.425q0-11.423-6.172-19.346a36.708,36.708,0,0,0-16.491-11.792V261a28.575,28.575,0,0,0,12.621-10.778,30.053,30.053,0,0,0,4.514-16.491,29.742,29.742,0,0,0-4.79-17.044,31.075,31.075,0,0,0-13.45-10.962q-8.664-3.87-20.453-3.87a49.948,49.948,0,0,0-20.359,3.87,30.964,30.964,0,0,0-13.543,10.962,32.33,32.33,0,0,0-.092,33.719A28.72,28.72,0,0,0,234.506,261v.185a35.652,35.652,0,0,0-16.767,11.883,33.5,33.5,0,0,0-.552,37.68,34.751,34.751,0,0,0,13.318,10.982H205.58V311.3H163.018q-1.844,0-5.435.092t-7.186.184q-3.594.1-5.62.276v-.184q21.74-14.551,34.455-26.532T197.473,262.2A49.2,49.2,0,0,0,203,239.813a40.647,40.647,0,0,0-2.855-15.477,34.3,34.3,0,0,0-8.2-12.068,37.093,37.093,0,0,0-12.806-7.831,48.284,48.284,0,0,0-16.859-2.764q-12.346,0-21.281,4.606a36.453,36.453,0,0,0-14.188,12.714,47.563,47.563,0,0,0-6.909,18.793l12.9,7.739q1.287-13.632,8.844-21.834t20.083-8.2q11.975,0,18.886,6.725t6.909,17.6a39.833,39.833,0,0,1-3.132,15.57,58.583,58.583,0,0,1-10.5,15.753,180,180,0,0,1-19.623,18.426q-12.255,10.134-30.494,23.584v8.586H18.425V18.425H321.732Z"/>
      </g>
    </g>
</svg>
