<svg xmlns="http://www.w3.org/2000/svg" width="120mm" height="120mm" viewBox="0 0 340.158 340.158">
  <g id="Zimmernummer">
      <g id="Z-04-412-M">
        <path fill="#D4AF37" stroke="none" d="M337.323,0H2.835A2.836,2.836,0,0,0,0,2.835V337.323a2.836,2.836,0,0,0,2.835,2.835H337.323a2.836,2.836,0,0,0,2.835-2.835V2.835A2.836,2.836,0,0,0,337.323,0ZM103.068,280.651H61.147l30.6-44.774q2.827-4.236,6.19-9.949t5.484-10.318h.353q-.177,4.792-.441,9.765t-.266,9.765Zm218.664,41.081H286.5V311.42h-40.86q-1.77,0-5.218.093t-6.9.184q-3.448.094-5.394.276v-.183q20.87-14.555,33.077-26.533t17.511-22.939a50.855,50.855,0,0,0,5.306-22.387,42.142,42.142,0,0,0-2.742-15.477,34.4,34.4,0,0,0-7.871-12.069,35.388,35.388,0,0,0-12.293-7.83,44.676,44.676,0,0,0-16.185-2.764q-11.851,0-20.429,4.606a35.512,35.512,0,0,0-13.62,12.714,48.749,48.749,0,0,0-6.633,18.794l12.382,7.738q1.234-13.633,8.49-21.834t19.28-8.2q11.495,0,18.13,6.725t6.633,17.6a41.277,41.277,0,0,1-3.007,15.569,58.812,58.812,0,0,1-10.082,15.754,175.935,175.935,0,0,1-18.838,18.425q-11.766,10.135-29.274,23.584v8.469H185.672v-118.1H173.29a36.706,36.706,0,0,1-7.075,7.186,88.574,88.574,0,0,1-9.994,6.91,90.6,90.6,0,0,1-10.259,5.343,29.732,29.732,0,0,1-8.048,2.487l3.715,13.451a66.017,66.017,0,0,0,30.247-17.135q-.179,3.869-.266,7.461t-.089,6.726v85.67h-54.3V293.364h20.695V280.651H117.219V203.633H99.353L46.112,282.494v10.87h56.956v28.368H18.425V18.425H321.732Z"/>
      </g>
    </g>
</svg>
