<svg xmlns="http://www.w3.org/2000/svg" width="120mm" height="120mm" viewBox="0 0 340.158 340.157">
  <g id="Zimmernummer">
      <g id="Z-04-063">
        <path fill="#000000" stroke="none" d="M337.323,0H2.835A2.836,2.836,0,0,0,0,2.835V337.323a2.834,2.834,0,0,0,2.835,2.834H337.323a2.834,2.834,0,0,0,2.835-2.834V2.835A2.836,2.836,0,0,0,337.323,0ZM138.689,300.273a24.308,24.308,0,0,1-3.5-12.806,25.087,25.087,0,0,1,3.317-12.99,23.489,23.489,0,0,1,9.305-8.844,28.918,28.918,0,0,1,13.911-3.224,31.074,31.074,0,0,1,14.371,3.04,21.227,21.227,0,0,1,9.029,8.66,27.036,27.036,0,0,1,3.132,13.358q0,11.981-7,18.7t-19.53,6.726a26.862,26.862,0,0,1-13.543-3.409A25.748,25.748,0,0,1,138.689,300.273Zm183.043,21.459h-39.41a35.6,35.6,0,0,0,13.439-12.339,34.7,34.7,0,0,0,5.252-18.977,28.034,28.034,0,0,0-1.751-9.858,26.021,26.021,0,0,0-5.067-8.384,24.923,24.923,0,0,0-8.015-5.9,27,27,0,0,0-10.778-2.4v-.369a25.51,25.51,0,0,0,8.66-3.04,26.534,26.534,0,0,0,7.277-6.172,29.232,29.232,0,0,0,5.067-9.121,35.8,35.8,0,0,0,1.843-11.884,31.14,31.14,0,0,0-4.146-15.845,29.829,29.829,0,0,0-12.436-11.516q-8.292-4.328-21-4.33a49.919,49.919,0,0,0-18.518,3.316,41.476,41.476,0,0,0-14.279,9.213,38.39,38.39,0,0,0-8.844,13.634l14,6.634a34.032,34.032,0,0,1,9.581-13.727q6.079-5.067,17.688-5.067,10.87,0,16.767,4.974t5.9,14.556q0,11.241-5.712,16.491t-19.162,5.251h-2.856A28.922,28.922,0,0,1,252,256.7v14.74a49.212,49.212,0,0,1,4.976-.46q2.391-.09,4.421-.093,8.659,0,14,2.119a14.907,14.907,0,0,1,7.83,6.541A22.3,22.3,0,0,1,285.72,290.6a22.859,22.859,0,0,1-2.948,11.7,20.934,20.934,0,0,1-8.476,8.015,28.678,28.678,0,0,1-13.634,2.948q-9.583,0-15.938-2.763a25.217,25.217,0,0,1-10.226-7.832,39.387,39.387,0,0,1-6.081-11.883l-14.74,7.554a38.116,38.116,0,0,0,16.859,21.1c1.361.837,2.758,1.6,4.187,2.3H185.108a34.546,34.546,0,0,0,13.463-13.168,41.107,41.107,0,0,0,5.159-20.913q0-12.161-5.067-21a34.389,34.389,0,0,0-14.279-13.635q-9.216-4.79-21.558-4.791a42.684,42.684,0,0,0-13.542,2.3,34.758,34.758,0,0,0-12.345,7.185,25.072,25.072,0,0,0-7.462,12.806h-.737V267.2a92.021,92.021,0,0,1,2.118-20.268,54.608,54.608,0,0,1,6.357-16.4,33.515,33.515,0,0,1,10.318-10.964,25.081,25.081,0,0,1,14-3.961q10.869,0,17.043,4.883a27.332,27.332,0,0,1,8.936,13.358l13.635-6.449a46.6,46.6,0,0,0-9.028-14.648,32.836,32.836,0,0,0-12.622-8.292,49.468,49.468,0,0,0-17.043-2.671,42.7,42.7,0,0,0-24.229,7.186q-10.781,7.185-17.044,21.1t-6.265,34.363q0,18.24,5.344,32.336t15.846,22.2a36.991,36.991,0,0,0,4.11,2.758H18.425V18.425H321.732Z"/>
      </g>
    </g>
</svg>
