<svg xmlns="http://www.w3.org/2000/svg" width="120mm" height="120mm" viewBox="0 0 340.157 340.157">
  <g id="Zimmernummer">
      <g id="Z-04-546-M">
        <path fill="#D4AF37" stroke="none" d="M337.322,0H2.835A2.836,2.836,0,0,0,0,2.835V337.323a2.834,2.834,0,0,0,2.835,2.834H337.322a2.834,2.834,0,0,0,2.835-2.834V2.835A2.836,2.836,0,0,0,337.322,0ZM178.332,280.65H136.411l30.6-44.773q2.826-4.236,6.191-9.949t5.484-10.319h.353q-.179,4.794-.442,9.766t-.266,9.765ZM243.6,300.273a25.072,25.072,0,0,1-3.361-12.805,25.9,25.9,0,0,1,3.184-12.99,22.957,22.957,0,0,1,8.932-8.844,26.853,26.853,0,0,1,13.355-3.225,28.852,28.852,0,0,1,13.8,3.04,20.784,20.784,0,0,1,8.667,8.66,27.95,27.95,0,0,1,3.007,13.359q0,11.979-6.722,18.7T265.711,312.9a24.988,24.988,0,0,1-22.11-12.622Zm78.131,21.459H288.164a33.85,33.85,0,0,0,12.923-13.168,42.463,42.463,0,0,0,4.953-20.913q0-12.159-4.864-21a33.641,33.641,0,0,0-13.709-13.634,42.806,42.806,0,0,0-20.695-4.791,39.5,39.5,0,0,0-13,2.3,33.079,33.079,0,0,0-11.851,7.186,25.306,25.306,0,0,0-7.163,12.806h-.708V267.2a95.657,95.657,0,0,1,2.034-20.267,56,56,0,0,1,6.1-16.4,32.964,32.964,0,0,1,9.905-10.964,23.377,23.377,0,0,1,13.443-3.961q10.434,0,16.362,4.883a27.419,27.419,0,0,1,8.579,13.359l13.088-6.45a46.934,46.934,0,0,0-8.667-14.647,31.42,31.42,0,0,0-12.116-8.292,45.766,45.766,0,0,0-16.362-2.672,39.824,39.824,0,0,0-23.26,7.187q-10.347,7.185-16.361,21.1t-6.014,34.364q0,18.24,5.129,32.335t15.212,22.2a35.524,35.524,0,0,0,3.945,2.757H192.483V293.363h20.695V280.65H192.483V203.633H174.618l-53.242,78.86v10.87h56.956v28.369h-85.9A35.2,35.2,0,0,0,108.29,303.5a45.5,45.5,0,0,0,3.007-16.951,44.145,44.145,0,0,0-4.6-20.636,33.633,33.633,0,0,0-12.824-13.726A37.248,37.248,0,0,0,74.505,247.3a41.05,41.05,0,0,0-15.83,2.763A30.467,30.467,0,0,0,47.8,257.435h-.354l.354-1.659,4.6-38.324H105.99V203.633H40.367l-6.9,66.884,12.382,2.395a24.081,24.081,0,0,1,6.721-6.817,27.693,27.693,0,0,1,8.756-3.778,44,44,0,0,1,10.525-1.2A28.113,28.113,0,0,1,85.3,264.067a19.721,19.721,0,0,1,8.4,8.752q2.919,5.8,2.918,14.464a28.51,28.51,0,0,1-3.183,13.911,22.036,22.036,0,0,1-8.933,8.937,28.633,28.633,0,0,1-13.885,3.132q-11.5,0-17.423-5.989a36.194,36.194,0,0,1-8.755-15.569l-13.8,7.555q5.128,13.085,14.592,20.452a30.485,30.485,0,0,0,2.951,2.02H18.425V18.425H321.732Z"/>
      </g>
    </g>
</svg>
