<svg xmlns="http://www.w3.org/2000/svg" width="120mm" height="120mm" viewBox="0 0 340.158 340.158">
  <g id="Zimmernummer">
      <g id="Z-04-202">
        <path fill="#000000" stroke="none" d="M337.323,0H2.835A2.836,2.836,0,0,0,0,2.835V337.323a2.836,2.836,0,0,0,2.835,2.835H337.323a2.836,2.836,0,0,0,2.835-2.835V2.835A2.836,2.836,0,0,0,337.323,0ZM142.606,291.522q-3.274-11.055-3.272-27.085t3.272-27.086q3.272-11.053,9.729-16.674a25.107,25.107,0,0,1,31.662,0q6.454,5.622,9.728,16.674T197,264.437q0,16.031-3.273,27.085T184,308.2a25.111,25.111,0,0,1-31.662,0Q145.876,302.578,142.606,291.522Zm179.126,30.21H298.881V311.42h-40.86q-1.77,0-5.219.093t-6.9.184q-3.45.094-5.4.276v-.183q20.87-14.555,33.076-26.533T291.1,262.318a50.869,50.869,0,0,0,5.306-22.387,42.121,42.121,0,0,0-2.742-15.477,34.4,34.4,0,0,0-7.871-12.069,35.379,35.379,0,0,0-12.293-7.83,44.68,44.68,0,0,0-16.185-2.764q-11.851,0-20.429,4.606a35.522,35.522,0,0,0-13.621,12.714,48.8,48.8,0,0,0-6.632,18.794l12.381,7.738q1.236-13.633,8.491-21.834t19.279-8.2q11.5,0,18.131,6.725t6.633,17.6a41.277,41.277,0,0,1-3.007,15.569,58.837,58.837,0,0,1-10.082,15.754,175.935,175.935,0,0,1-18.838,18.425q-11.766,10.135-29.274,23.584v8.469H188.49a39.837,39.837,0,0,0,11.426-10.68q11.762-16.029,11.763-46.615t-11.763-46.616q-11.764-16.031-31.75-16.03-19.812,0-31.662,16.03t-11.851,46.616q0,30.586,11.851,46.615a40.31,40.31,0,0,0,11.452,10.68H117.579V311.42H76.719q-1.77,0-5.218.093t-6.9.184q-3.45.094-5.395.276v-.183q20.869-14.555,33.077-26.533T109.8,262.318a50.855,50.855,0,0,0,5.306-22.387,42.142,42.142,0,0,0-2.741-15.477,34.424,34.424,0,0,0-7.871-12.069,35.4,35.4,0,0,0-12.293-7.83,44.681,44.681,0,0,0-16.186-2.764q-11.851,0-20.429,4.606a35.527,35.527,0,0,0-13.62,12.714,48.782,48.782,0,0,0-6.633,18.794l12.382,7.738q1.234-13.633,8.49-21.834t19.28-8.2q11.5,0,18.131,6.725t6.632,17.6A41.3,41.3,0,0,1,97.238,255.5a58.842,58.842,0,0,1-10.083,15.754,175.935,175.935,0,0,1-18.838,18.425q-11.764,10.135-29.274,23.584v8.469H18.425V18.425H321.732Z"/>
      </g>
    </g>
</svg>
