<svg xmlns="http://www.w3.org/2000/svg" width="120mm" height="120mm" viewBox="0 0 340.158 340.157">
  <g id="Zimmernummer">
      <g id="Z-04-431-M">
        <path fill="#D4AF37" stroke="none" d="M337.323,0H2.835A2.834,2.834,0,0,0,0,2.835V337.323a2.834,2.834,0,0,0,2.835,2.834H337.323a2.834,2.834,0,0,0,2.835-2.834V2.835A2.834,2.834,0,0,0,337.323,0ZM88.115,280.65H46.194l30.6-44.773q2.828-4.236,6.19-9.949t5.484-10.319h.354q-.178,4.794-.442,9.766t-.266,9.765Zm233.617,41.082H274.9v-118.1H262.519a36.74,36.74,0,0,1-7.076,7.185,88.71,88.71,0,0,1-9.994,6.911,90.58,90.58,0,0,1-10.259,5.342,29.787,29.787,0,0,1-8.048,2.488l3.714,13.451A65.99,65.99,0,0,0,261.1,221.874q-.18,3.869-.266,7.462t-.089,6.726v85.67H196.112a34.752,34.752,0,0,0,12.9-12.338,35.8,35.8,0,0,0,5.041-18.978,29.082,29.082,0,0,0-1.68-9.857,26.255,26.255,0,0,0-4.865-8.384,24.023,24.023,0,0,0-7.695-5.9,25.066,25.066,0,0,0-10.346-2.394v-.369a23.86,23.86,0,0,0,8.312-3.04,25.794,25.794,0,0,0,6.988-6.172,29.62,29.62,0,0,0,4.864-9.121A37.161,37.161,0,0,0,211.4,233.3a32.157,32.157,0,0,0-3.979-15.846,29.125,29.125,0,0,0-11.94-11.515q-7.959-4.328-20.165-4.331a46.219,46.219,0,0,0-17.776,3.317,39.678,39.678,0,0,0-13.708,9.213,38.589,38.589,0,0,0-8.49,13.634l13.442,6.633a34.079,34.079,0,0,1,9.2-13.726q5.838-5.067,16.981-5.068,10.434,0,16.1,4.975t5.66,14.556q0,11.241-5.484,16.491t-18.395,5.251H170.1a26.666,26.666,0,0,1-3.1-.185v14.741a44.88,44.88,0,0,1,4.776-.46q2.3-.092,4.245-.093,8.311,0,13.444,2.119a14.47,14.47,0,0,1,7.516,6.541,23.053,23.053,0,0,1,2.389,11.055,23.609,23.609,0,0,1-2.83,11.7,20.464,20.464,0,0,1-8.137,8.014,26.619,26.619,0,0,1-13.09,2.949q-9.2,0-15.3-2.764a24.363,24.363,0,0,1-9.818-7.831,40.07,40.07,0,0,1-5.837-11.884l-14.15,7.555a37.878,37.878,0,0,0,16.184,21.1c1.306.836,2.648,1.6,4.019,2.3H102.266V293.363h20.695V280.65H102.266V203.633H84.4l-53.241,78.86v10.87H88.115v28.369H18.425V18.425H321.732Z"/>
      </g>
    </g>
</svg>
