<svg xmlns="http://www.w3.org/2000/svg" width="120mm" height="120mm" viewBox="0 0 340.158 340.157">
  <g id="Zimmernummer">
      <g id="Z-04-336-R">
        <path fill="#A0552B" stroke="none" d="M337.323,0H2.835A2.836,2.836,0,0,0,0,2.835V337.323a2.834,2.834,0,0,0,2.835,2.834H337.323a2.834,2.834,0,0,0,2.835-2.834V2.835A2.836,2.836,0,0,0,337.323,0ZM239.45,300.273a25.072,25.072,0,0,1-3.361-12.805,25.913,25.913,0,0,1,3.184-12.99,22.971,22.971,0,0,1,8.932-8.844,26.853,26.853,0,0,1,13.355-3.225,28.849,28.849,0,0,1,13.8,3.04,20.781,20.781,0,0,1,8.668,8.66,27.95,27.95,0,0,1,3.006,13.359q0,11.979-6.721,18.7T261.56,312.9a24.991,24.991,0,0,1-22.11-12.622Zm82.282,21.459H284.013a33.846,33.846,0,0,0,12.924-13.168,42.463,42.463,0,0,0,4.953-20.913q0-12.159-4.865-21a33.639,33.639,0,0,0-13.708-13.634,42.807,42.807,0,0,0-20.7-4.791,39.505,39.505,0,0,0-13,2.3,33.066,33.066,0,0,0-11.85,7.186,25.314,25.314,0,0,0-7.164,12.806H229.9V267.2a95.592,95.592,0,0,1,2.034-20.267,55.912,55.912,0,0,1,6.1-16.4,32.977,32.977,0,0,1,9.906-10.964,23.376,23.376,0,0,1,13.442-3.961q10.435,0,16.362,4.883a27.4,27.4,0,0,1,8.578,13.359l13.09-6.45a46.935,46.935,0,0,0-8.668-14.647,31.42,31.42,0,0,0-12.116-8.292,45.757,45.757,0,0,0-16.361-2.672,39.819,39.819,0,0,0-23.26,7.187q-10.347,7.185-16.361,21.1t-6.015,34.364q0,18.24,5.13,32.335t15.212,22.2a35.524,35.524,0,0,0,3.945,2.757H187.9a34.775,34.775,0,0,0,12.9-12.338,35.8,35.8,0,0,0,5.041-18.978,29.083,29.083,0,0,0-1.681-9.857,26.234,26.234,0,0,0-4.864-8.384,24.03,24.03,0,0,0-7.694-5.9,25.072,25.072,0,0,0-10.348-2.394v-.369a23.858,23.858,0,0,0,8.313-3.04,25.794,25.794,0,0,0,6.988-6.172,29.641,29.641,0,0,0,4.864-9.121,37.188,37.188,0,0,0,1.769-11.884,32.168,32.168,0,0,0-3.98-15.846,29.131,29.131,0,0,0-11.94-11.515q-7.959-4.328-20.164-4.331a46.224,46.224,0,0,0-17.777,3.317,39.692,39.692,0,0,0-13.709,9.213,38.589,38.589,0,0,0-8.49,13.634l13.443,6.633a34.07,34.07,0,0,1,9.2-13.726q5.835-5.067,16.98-5.068,10.434,0,16.1,4.975t5.66,14.556q0,11.241-5.483,16.491t-18.4,5.251h-2.741a26.666,26.666,0,0,1-3.1-.185v14.741a44.9,44.9,0,0,1,4.776-.46q2.3-.092,4.245-.093,8.313,0,13.443,2.119a14.474,14.474,0,0,1,7.518,6.541,23.077,23.077,0,0,1,2.387,11.055,23.609,23.609,0,0,1-2.83,11.7,20.445,20.445,0,0,1-8.137,8.014,26.614,26.614,0,0,1-13.088,2.949q-9.2,0-15.3-2.764a24.367,24.367,0,0,1-9.817-7.831,40.044,40.044,0,0,1-5.836-11.884L122,298.339a37.875,37.875,0,0,0,16.185,21.1c1.3.836,2.647,1.6,4.018,2.3H97.162a34.771,34.771,0,0,0,12.9-12.338,35.8,35.8,0,0,0,5.041-18.978,29.083,29.083,0,0,0-1.681-9.857,26.234,26.234,0,0,0-4.864-8.384,24.034,24.034,0,0,0-7.7-5.9,25.067,25.067,0,0,0-10.347-2.394v-.369a23.858,23.858,0,0,0,8.313-3.04,25.794,25.794,0,0,0,6.988-6.172,29.641,29.641,0,0,0,4.864-9.121,37.189,37.189,0,0,0,1.768-11.884,32.157,32.157,0,0,0-3.979-15.846,29.131,29.131,0,0,0-11.94-11.515q-7.959-4.328-20.165-4.331a46.219,46.219,0,0,0-17.776,3.317,39.692,39.692,0,0,0-13.709,9.213,38.618,38.618,0,0,0-8.49,13.634L49.835,234.4a34.069,34.069,0,0,1,9.2-13.726q5.837-5.067,16.981-5.068,10.434,0,16.1,4.975t5.661,14.556q0,11.241-5.484,16.491t-18.4,5.251H71.15a26.653,26.653,0,0,1-3.1-.185v14.741a44.88,44.88,0,0,1,4.776-.46q2.3-.092,4.245-.093,8.311,0,13.443,2.119a14.468,14.468,0,0,1,7.517,6.541,23.065,23.065,0,0,1,2.388,11.055,23.609,23.609,0,0,1-2.83,11.7,20.458,20.458,0,0,1-8.137,8.014,26.615,26.615,0,0,1-13.089,2.949q-9.2,0-15.3-2.764a24.363,24.363,0,0,1-9.818-7.831,40.046,40.046,0,0,1-5.837-11.884l-14.15,7.555a37.873,37.873,0,0,0,16.184,21.1c1.306.836,2.648,1.6,4.019,2.3H18.425V18.425H321.732Z"/>
      </g>
    </g>
</svg>
