<svg xmlns="http://www.w3.org/2000/svg" width="120mm" height="120mm" viewBox="0 0 340.158 340.157">
  <g id="Zimmernummer">
      <g id="Z-04-103">
        <path fill="#000000" stroke="none" d="M337.323,0H2.835A2.836,2.836,0,0,0,0,2.835V337.323a2.834,2.834,0,0,0,2.835,2.834H337.323a2.834,2.834,0,0,0,2.835-2.834V2.835A2.836,2.836,0,0,0,337.323,0ZM127.3,291.521q-3.274-11.055-3.272-27.085T127.3,237.35q3.272-11.054,9.729-16.674a25.106,25.106,0,0,1,31.661,0q6.456,5.622,9.729,16.674t3.272,27.086q0,16.031-3.272,27.085T168.693,308.2a25.109,25.109,0,0,1-31.661,0Q130.573,302.577,127.3,291.521Zm194.429,30.211H265.458a34.747,34.747,0,0,0,12.9-12.339,35.789,35.789,0,0,0,5.041-18.977,29.088,29.088,0,0,0-1.68-9.858,26.234,26.234,0,0,0-4.864-8.384,24.035,24.035,0,0,0-7.694-5.9,25.064,25.064,0,0,0-10.348-2.4v-.369a23.845,23.845,0,0,0,8.313-3.04,25.759,25.759,0,0,0,6.987-6.172,29.622,29.622,0,0,0,4.865-9.121,37.189,37.189,0,0,0,1.768-11.884,32.156,32.156,0,0,0-3.979-15.845,29.145,29.145,0,0,0-11.94-11.516q-7.96-4.328-20.165-4.33a46.219,46.219,0,0,0-17.776,3.316,39.692,39.692,0,0,0-13.708,9.213,38.6,38.6,0,0,0-8.491,13.634l13.443,6.634a34.076,34.076,0,0,1,9.2-13.727q5.837-5.067,16.981-5.067,10.434,0,16.1,4.974t5.66,14.556q0,11.241-5.483,16.491t-18.4,5.251h-2.742a26.643,26.643,0,0,1-3.095-.184v14.74a45.408,45.408,0,0,1,4.776-.46q2.3-.09,4.245-.093,8.311,0,13.443,2.119a14.486,14.486,0,0,1,7.518,6.541,23.08,23.08,0,0,1,2.387,11.055,23.606,23.606,0,0,1-2.83,11.7,20.47,20.47,0,0,1-8.136,8.015,26.622,26.622,0,0,1-13.09,2.948q-9.2,0-15.3-2.763a24.362,24.362,0,0,1-9.817-7.832,40.028,40.028,0,0,1-5.837-11.883l-14.15,7.554a37.873,37.873,0,0,0,16.184,21.1c1.306.837,2.648,1.6,4.02,2.3H173.186a39.83,39.83,0,0,0,11.427-10.681q11.762-16.029,11.763-46.615T184.613,217.82q-11.764-16.03-31.75-16.03-19.812,0-31.662,16.03T109.35,264.436q0,30.587,11.851,46.615a40.3,40.3,0,0,0,11.453,10.681H92.192v-118.1H79.811a36.714,36.714,0,0,1-7.076,7.186,88.574,88.574,0,0,1-9.994,6.91,90.512,90.512,0,0,1-10.259,5.343,29.738,29.738,0,0,1-8.047,2.487l3.713,13.451A66,66,0,0,0,78.4,221.874q-.178,3.869-.266,7.461t-.088,6.726v85.671H18.426V18.425H321.732Z"/>
      </g>
    </g>
</svg>
