<svg xmlns="http://www.w3.org/2000/svg" width="120mm" height="120mm" viewBox="0 0 340.158 340.158">
  <g id="Zimmernummer">
      <g id="Z-04-057-M">
        <path fill="#D4AF37" stroke="none" d="M337.323,0H2.835A2.836,2.836,0,0,0,0,2.835V337.323a2.836,2.836,0,0,0,2.835,2.835H337.323a2.836,2.836,0,0,0,2.835-2.835V2.835A2.836,2.836,0,0,0,337.323,0ZM321.732,321.732H268.816a165.21,165.21,0,0,1,4.375-35.554,135.807,135.807,0,0,1,14.1-35.469,173.618,173.618,0,0,1,24.965-33.256v-13.82H222.706v13.82h73.525a164.688,164.688,0,0,0-22.118,30.033,152.4,152.4,0,0,0-15.385,37.679,159.222,159.222,0,0,0-5.013,36.567H193.292a37.4,37.4,0,0,0,7.675-5.429,35.727,35.727,0,0,0,8.844-12.805,43.9,43.9,0,0,0,3.132-16.952,42.68,42.68,0,0,0-4.79-20.635,34.228,34.228,0,0,0-13.359-13.727q-8.567-4.881-20.175-4.883a44.339,44.339,0,0,0-16.491,2.764,31.84,31.84,0,0,0-11.331,7.37h-.369l.369-1.658,4.79-38.324h55.829v-13.82H139.058l-7.185,66.884,12.9,2.4a24.606,24.606,0,0,1,7-6.818,29.476,29.476,0,0,1,9.12-3.777,47.6,47.6,0,0,1,10.963-1.2,30.3,30.3,0,0,1,14,2.948,20.1,20.1,0,0,1,8.752,8.752q3.04,5.8,3.041,14.464a27.589,27.589,0,0,1-3.317,13.911,22.509,22.509,0,0,1-9.305,8.936,30.85,30.85,0,0,1-14.464,3.132q-11.977,0-18.148-5.988a35.872,35.872,0,0,1-9.121-15.569l-14.372,7.554q5.343,13.086,15.2,20.452a31.628,31.628,0,0,0,3.074,2.02H18.425V18.425H321.732Z"/>
      </g>
    </g>
</svg>
