<svg xmlns="http://www.w3.org/2000/svg" width="120mm" height="120mm" viewBox="0 0 340.158 340.157">
  <g id="Zimmernummer">
      <g id="Z-04-323">
        <path fill="#000000" stroke="none" d="M337.323,0H2.835A2.836,2.836,0,0,0,0,2.835V337.323a2.834,2.834,0,0,0,2.835,2.834H337.323a2.834,2.834,0,0,0,2.835-2.834V2.835A2.836,2.836,0,0,0,337.323,0ZM321.732,321.732H280.85a34.743,34.743,0,0,0,12.9-12.339,35.789,35.789,0,0,0,5.041-18.977,29.088,29.088,0,0,0-1.68-9.858,26.255,26.255,0,0,0-4.865-8.384,24,24,0,0,0-7.694-5.9,25.055,25.055,0,0,0-10.347-2.4v-.369a23.853,23.853,0,0,0,8.313-3.04,25.788,25.788,0,0,0,6.987-6.172,29.62,29.62,0,0,0,4.864-9.121A37.16,37.16,0,0,0,296.14,233.3a32.157,32.157,0,0,0-3.98-15.845,29.136,29.136,0,0,0-11.939-11.516q-7.961-4.328-20.165-4.33a46.224,46.224,0,0,0-17.777,3.316,39.7,39.7,0,0,0-13.708,9.213,38.607,38.607,0,0,0-8.49,13.634l13.442,6.634a34.077,34.077,0,0,1,9.2-13.727q5.836-5.067,16.98-5.067,10.434,0,16.1,4.974t5.66,14.556q0,11.241-5.483,16.491t-18.4,5.251h-2.742a26.673,26.673,0,0,1-3.1-.184v14.74a45.426,45.426,0,0,1,4.777-.46q2.3-.09,4.245-.093,8.312,0,13.443,2.119a14.48,14.48,0,0,1,7.517,6.541,23.068,23.068,0,0,1,2.388,11.055,23.606,23.606,0,0,1-2.83,11.7,20.464,20.464,0,0,1-8.136,8.015,26.625,26.625,0,0,1-13.09,2.948q-9.2,0-15.3-2.763a24.366,24.366,0,0,1-9.818-7.832,40.05,40.05,0,0,1-5.836-11.883l-14.151,7.554a37.875,37.875,0,0,0,16.185,21.1c1.306.837,2.648,1.6,4.019,2.3H208.23V311.419H167.371q-1.77,0-5.218.093t-6.9.184q-3.45.094-5.395.276v-.183q20.869-14.554,33.077-26.533t17.511-22.939a50.87,50.87,0,0,0,5.307-22.387,42.142,42.142,0,0,0-2.742-15.477,34.4,34.4,0,0,0-7.871-12.069,35.4,35.4,0,0,0-12.293-7.83,44.684,44.684,0,0,0-16.185-2.764q-11.853,0-20.43,4.606a35.527,35.527,0,0,0-13.62,12.714,48.782,48.782,0,0,0-6.633,18.794l12.381,7.738q1.236-13.633,8.491-21.834t19.28-8.2q11.5,0,18.131,6.725t6.632,17.6a41.285,41.285,0,0,1-3.006,15.57,58.873,58.873,0,0,1-10.082,15.753,175.956,175.956,0,0,1-18.839,18.425Q147.2,299.814,129.7,313.262v8.47H99.372a34.758,34.758,0,0,0,12.9-12.339,35.789,35.789,0,0,0,5.041-18.977,29.088,29.088,0,0,0-1.68-9.858,26.252,26.252,0,0,0-4.864-8.384,24.039,24.039,0,0,0-7.7-5.9,25.055,25.055,0,0,0-10.347-2.4v-.369a23.845,23.845,0,0,0,8.313-3.04,25.788,25.788,0,0,0,6.987-6.172,29.62,29.62,0,0,0,4.864-9.121,37.188,37.188,0,0,0,1.769-11.884,32.157,32.157,0,0,0-3.98-15.845,29.133,29.133,0,0,0-11.94-11.516q-7.959-4.328-20.164-4.33A46.224,46.224,0,0,0,60.8,204.922a39.692,39.692,0,0,0-13.708,9.213,38.579,38.579,0,0,0-8.49,13.634L52.045,234.4a34.076,34.076,0,0,1,9.2-13.727q5.838-5.067,16.981-5.067,10.435,0,16.1,4.974t5.66,14.556q0,11.241-5.483,16.491T76.1,256.881H73.36a26.66,26.66,0,0,1-3.1-.184v14.74a45.408,45.408,0,0,1,4.776-.46q2.3-.09,4.245-.093,8.313,0,13.444,2.119a14.48,14.48,0,0,1,7.517,6.541,23.068,23.068,0,0,1,2.388,11.055,23.617,23.617,0,0,1-2.83,11.7,20.466,20.466,0,0,1-8.137,8.015,26.618,26.618,0,0,1-13.089,2.948q-9.2,0-15.3-2.763a24.369,24.369,0,0,1-9.817-7.832,40.026,40.026,0,0,1-5.836-11.883l-14.151,7.554a37.875,37.875,0,0,0,16.185,21.1c1.306.837,2.648,1.6,4.019,2.3H18.425V18.425H321.732Z"/>
      </g>
    </g>
</svg>
