<svg xmlns="http://www.w3.org/2000/svg" width="120mm" height="120mm" viewBox="0 0 340.158 340.157">
  <g id="Zimmernummer">
      <g id="Z-04-236-M">
        <path fill="#D4AF37" stroke="none" d="M337.323,0H2.835A2.836,2.836,0,0,0,0,2.835V337.323a2.834,2.834,0,0,0,2.835,2.834H337.323a2.834,2.834,0,0,0,2.835-2.834V2.835A2.836,2.836,0,0,0,337.323,0ZM237.68,300.273a25.081,25.081,0,0,1-3.36-12.805,25.912,25.912,0,0,1,3.183-12.99,22.973,22.973,0,0,1,8.933-8.844,26.849,26.849,0,0,1,13.354-3.225,28.846,28.846,0,0,1,13.8,3.04,20.781,20.781,0,0,1,8.668,8.66,27.961,27.961,0,0,1,3.006,13.359q0,11.979-6.721,18.7T259.79,312.9a24.991,24.991,0,0,1-22.11-12.622Zm84.052,21.459H282.243a33.846,33.846,0,0,0,12.924-13.168,42.463,42.463,0,0,0,4.952-20.913q0-12.159-4.864-21a33.639,33.639,0,0,0-13.708-13.634,42.806,42.806,0,0,0-20.7-4.791,39.5,39.5,0,0,0-13,2.3A33.079,33.079,0,0,0,236,257.711a25.314,25.314,0,0,0-7.164,12.806h-.707V267.2a95.657,95.657,0,0,1,2.034-20.267,55.968,55.968,0,0,1,6.1-16.4,32.977,32.977,0,0,1,9.906-10.964,23.377,23.377,0,0,1,13.443-3.961q10.434,0,16.361,4.883a27.405,27.405,0,0,1,8.579,13.359l13.089-6.45a46.934,46.934,0,0,0-8.667-14.647,31.435,31.435,0,0,0-12.116-8.292A45.766,45.766,0,0,0,260.5,201.79a39.821,39.821,0,0,0-23.26,7.187q-10.347,7.185-16.362,21.1t-6.013,34.364q0,18.24,5.129,32.335t15.212,22.2a35.524,35.524,0,0,0,3.945,2.757H189.67a34.775,34.775,0,0,0,12.9-12.338,35.8,35.8,0,0,0,5.041-18.978,29.058,29.058,0,0,0-1.681-9.857,26.234,26.234,0,0,0-4.864-8.384,24.03,24.03,0,0,0-7.694-5.9,25.079,25.079,0,0,0-10.348-2.394v-.369a23.878,23.878,0,0,0,8.314-3.04,25.787,25.787,0,0,0,6.986-6.172,29.6,29.6,0,0,0,4.865-9.121,37.189,37.189,0,0,0,1.768-11.884,32.157,32.157,0,0,0-3.979-15.846,29.137,29.137,0,0,0-11.94-11.515q-7.959-4.328-20.165-4.331a46.219,46.219,0,0,0-17.776,3.317,39.692,39.692,0,0,0-13.709,9.213,38.589,38.589,0,0,0-8.49,13.634l13.443,6.633a34.079,34.079,0,0,1,9.2-13.726q5.837-5.067,16.981-5.068,10.434,0,16.1,4.975t5.66,14.556q0,11.241-5.483,16.491t-18.4,5.251h-2.742a26.649,26.649,0,0,1-3.095-.185v14.741a44.88,44.88,0,0,1,4.776-.46q2.3-.092,4.245-.093,8.311,0,13.443,2.119a14.478,14.478,0,0,1,7.518,6.541A23.066,23.066,0,0,1,192.93,290.6a23.609,23.609,0,0,1-2.83,11.7,20.455,20.455,0,0,1-8.136,8.014,26.622,26.622,0,0,1-13.09,2.949q-9.2,0-15.3-2.764a24.367,24.367,0,0,1-9.817-7.831,40.046,40.046,0,0,1-5.837-11.884l-14.15,7.555a37.873,37.873,0,0,0,16.184,21.1c1.306.836,2.648,1.6,4.019,2.3H117.05V311.42H76.19q-1.77,0-5.218.093t-6.9.183q-3.448.1-5.395.277v-.184q20.869-14.553,33.077-26.532t17.512-22.94a50.861,50.861,0,0,0,5.306-22.386,42.144,42.144,0,0,0-2.742-15.478,34.392,34.392,0,0,0-7.871-12.068,35.364,35.364,0,0,0-12.293-7.83,44.679,44.679,0,0,0-16.185-2.765q-11.853,0-20.43,4.606a35.534,35.534,0,0,0-13.62,12.714A48.8,48.8,0,0,0,34.8,237.9l12.381,7.739q1.236-13.633,8.491-21.834t19.279-8.2q11.5,0,18.131,6.726t6.633,17.6A41.281,41.281,0,0,1,96.708,255.5a58.837,58.837,0,0,1-10.082,15.754,176.031,176.031,0,0,1-18.838,18.425q-11.766,10.135-29.274,23.584v8.469H18.425V18.425H321.732Z"/>
      </g>
    </g>
</svg>
