<svg xmlns="http://www.w3.org/2000/svg" width="120mm" height="120mm" viewBox="0 0 340.158 340.158">
  <g id="Zimmernummer">
      <g id="Z-04-624-M">
        <path fill="#D4AF37" stroke="none" d="M337.323,0H2.835A2.836,2.836,0,0,0,0,2.835V337.323a2.836,2.836,0,0,0,2.835,2.835H337.323a2.836,2.836,0,0,0,2.835-2.835V2.835A2.836,2.836,0,0,0,337.323,0ZM62.566,300.273a25.082,25.082,0,0,1-3.361-12.805,25.9,25.9,0,0,1,3.185-12.99,22.957,22.957,0,0,1,8.932-8.844,26.848,26.848,0,0,1,13.355-3.225,28.852,28.852,0,0,1,13.8,3.04,20.784,20.784,0,0,1,8.667,8.66,27.95,27.95,0,0,1,3.006,13.359q0,11.979-6.721,18.7T84.677,312.9a24.992,24.992,0,0,1-22.111-12.622ZM264.738,280.65H222.817l30.6-44.773q2.827-4.236,6.191-9.949t5.483-10.319h.354q-.179,4.794-.442,9.766t-.266,9.765Zm56.994,41.082H278.889V293.363h20.695V280.65H278.889V203.633H261.023l-53.241,78.86v10.87h56.956v28.369H210.614V311.42h-40.86q-1.77,0-5.218.093t-6.9.183q-3.45.1-5.4.277v-.184q20.87-14.553,33.076-26.532t17.512-22.94a50.849,50.849,0,0,0,5.307-22.386,42.144,42.144,0,0,0-2.742-15.478,34.408,34.408,0,0,0-7.872-12.068,35.355,35.355,0,0,0-12.293-7.83,44.674,44.674,0,0,0-16.184-2.765q-11.853,0-20.43,4.606A35.527,35.527,0,0,0,135,219.11a48.788,48.788,0,0,0-6.633,18.794l12.381,7.739q1.236-13.633,8.491-21.834t19.28-8.2q11.5,0,18.13,6.726t6.633,17.6a41.281,41.281,0,0,1-3.007,15.569,58.812,58.812,0,0,1-10.082,15.754,176.01,176.01,0,0,1-18.837,18.425q-11.766,10.135-29.275,23.584v8.469H107.129a33.839,33.839,0,0,0,12.924-13.168,42.463,42.463,0,0,0,4.953-20.913q0-12.159-4.864-21a33.647,33.647,0,0,0-13.709-13.634,42.807,42.807,0,0,0-20.7-4.791,39.5,39.5,0,0,0-13,2.3,33.062,33.062,0,0,0-11.851,7.186,25.314,25.314,0,0,0-7.164,12.806h-.707V267.2a95.592,95.592,0,0,1,2.034-20.267,56,56,0,0,1,6.1-16.4,32.977,32.977,0,0,1,9.906-10.964A23.377,23.377,0,0,1,84.5,215.609q10.434,0,16.361,4.883a27.4,27.4,0,0,1,8.578,13.359l13.09-6.45a46.953,46.953,0,0,0-8.667-14.647,31.431,31.431,0,0,0-12.117-8.292,45.757,45.757,0,0,0-16.361-2.672,39.819,39.819,0,0,0-23.26,7.187q-10.347,7.185-16.361,21.1t-6.015,34.364q0,18.24,5.13,32.335t15.212,22.2a35.536,35.536,0,0,0,3.946,2.757H18.425V18.425H321.732Z"/>
      </g>
    </g>
</svg>
