<svg xmlns="http://www.w3.org/2000/svg" width="120mm" height="120mm" viewBox="0 0 340.158 340.158">
  <g id="Zimmernummer">
      <g id="Z-04-402-M">
        <path fill="#D4AF37" stroke="none" d="M337.323,0H2.835A2.836,2.836,0,0,0,0,2.835V337.323a2.836,2.836,0,0,0,2.835,2.835H337.323a2.836,2.836,0,0,0,2.835-2.835V2.835A2.836,2.836,0,0,0,337.323,0ZM84.673,280.651H42.752l30.6-44.774q2.828-4.236,6.19-9.949t5.484-10.318h.353q-.177,4.792-.441,9.765t-.266,9.765Zm60.4,10.871q-3.274-11.055-3.272-27.085t3.272-27.086q3.27-11.053,9.728-16.674a25.107,25.107,0,0,1,31.662,0q6.456,5.622,9.729,16.674t3.272,27.086q0,16.031-3.272,27.085T186.467,308.2a25.111,25.111,0,0,1-31.662,0Q148.348,302.578,145.077,291.522Zm176.655,30.21H304.889V311.42h-40.86q-1.77,0-5.218.093t-6.9.184q-3.45.094-5.4.276v-.183q20.869-14.555,33.077-26.533t17.511-22.939a50.856,50.856,0,0,0,5.307-22.387,42.122,42.122,0,0,0-2.743-15.477,34.4,34.4,0,0,0-7.871-12.069,35.379,35.379,0,0,0-12.293-7.83,44.678,44.678,0,0,0-16.184-2.764q-11.853,0-20.43,4.606a35.512,35.512,0,0,0-13.62,12.714,48.782,48.782,0,0,0-6.633,18.794l12.382,7.738q1.234-13.633,8.49-21.834t19.28-8.2q11.5,0,18.13,6.725t6.633,17.6a41.277,41.277,0,0,1-3.007,15.569,58.812,58.812,0,0,1-10.082,15.754,175.841,175.841,0,0,1-18.838,18.425q-11.765,10.135-29.274,23.584v8.469H190.96a39.84,39.84,0,0,0,11.427-10.68q11.762-16.029,11.763-46.615t-11.763-46.616q-11.766-16.031-31.751-16.03-19.812,0-31.661,16.03t-11.851,46.616q0,30.586,11.851,46.615a40.307,40.307,0,0,0,11.451,10.68h-51.6V293.364h20.7V280.651h-20.7V203.633H80.958L27.717,282.494v10.87H84.673v28.368H18.425V18.425H321.732Z"/>
      </g>
    </g>
</svg>
