<svg xmlns="http://www.w3.org/2000/svg" width="120mm" height="120mm" viewBox="0 0 340.158 340.157">
  <g id="Zimmernummer">
      <g id="Z-04-100-E">
        <path fill="#A09f9d" stroke="none" d="M337.323,0H2.835A2.836,2.836,0,0,0,0,2.835V337.323a2.834,2.834,0,0,0,2.835,2.834H337.323a2.834,2.834,0,0,0,2.835-2.834V2.835A2.836,2.836,0,0,0,337.323,0ZM122.085,291.521q-3.274-11.055-3.273-27.084t3.273-27.086q3.272-11.055,9.728-16.674a25.109,25.109,0,0,1,31.663,0q6.454,5.622,9.728,16.674t3.273,27.086q0,16.029-3.273,27.084T163.476,308.2a25.112,25.112,0,0,1-31.663,0Q125.356,302.577,122.085,291.521Zm94.1,0q-3.274-11.055-3.272-27.084t3.272-27.086q3.272-11.055,9.729-16.674a25.107,25.107,0,0,1,31.662,0q6.454,5.622,9.728,16.674t3.272,27.086q0,16.029-3.272,27.084T257.576,308.2a25.111,25.111,0,0,1-31.662,0Q219.454,302.577,216.185,291.521Zm105.547,30.211H262.068a39.84,39.84,0,0,0,11.427-10.68q11.762-16.031,11.763-46.615T273.5,217.82q-11.766-16.029-31.75-16.03-19.812,0-31.662,16.03t-11.852,46.617q0,30.585,11.852,46.615a40.31,40.31,0,0,0,11.452,10.68H167.968a39.84,39.84,0,0,0,11.427-10.68q11.76-16.031,11.762-46.615T179.4,217.82q-11.766-16.029-31.75-16.03-19.812,0-31.663,16.03t-11.85,46.617q0,30.585,11.85,46.615a40.326,40.326,0,0,0,11.453,10.68H90.512v-118.1H78.13a36.675,36.675,0,0,1-7.075,7.185,88.71,88.71,0,0,1-9.994,6.911A90.665,90.665,0,0,1,50.8,223.071a29.8,29.8,0,0,1-8.048,2.488l3.714,13.451a63.293,63.293,0,0,0,16.273-6.541,63.706,63.706,0,0,0,13.974-10.595q-.178,3.869-.265,7.462t-.089,6.726v85.67H18.426V18.425H321.732Z"/>
      </g>
    </g>
</svg>
