<svg xmlns="http://www.w3.org/2000/svg" width="120mm" height="120mm" viewBox="0 0 340.157 340.158">
  <g id="Zimmernummer">
      <g id="Z-04-549-M">
        <path fill="#D4AF37" stroke="none" d="M337.322,0H2.835A2.836,2.836,0,0,0,0,2.835V337.323a2.836,2.836,0,0,0,2.835,2.835H337.322a2.836,2.836,0,0,0,2.835-2.835V2.835A2.836,2.836,0,0,0,337.322,0ZM175.768,280.65H133.847l30.6-44.773q2.827-4.236,6.191-9.949t5.483-10.319h.354q-.179,4.794-.442,9.766t-.265,9.765Zm145.964,41.082H281.25c.979-.57,1.937-1.175,2.856-1.836q9.991-7.186,15.123-21.1t5.13-34.362q0-18.425-5.13-32.521t-15.211-22.11q-10.083-8.016-24.764-8.016-12.561,0-21.579,5.067a34.112,34.112,0,0,0-13.8,14.188q-4.776,9.12-4.776,21.649,0,11.609,4.953,20.084a34.217,34.217,0,0,0,13.8,13.174,42.7,42.7,0,0,0,20.341,4.7,41.487,41.487,0,0,0,13.178-2.211,31.616,31.616,0,0,0,11.94-7.278,27.352,27.352,0,0,0,7.428-13.358h.708v1.658a149,149,0,0,1-1.5,22.11,57.358,57.358,0,0,1-5.041,17.044,26.106,26.106,0,0,1-9.64,10.87q-6.1,3.78-15.3,3.778-11.322,0-17.776-5.9A33.09,33.09,0,0,1,232.9,291.89l-13.973,7.738q5.128,13.452,15.566,20.452,1.314.882,2.694,1.652H189.918V293.363h20.695V280.65H189.918V203.633H172.053l-53.241,78.86v10.87h56.956v28.369H93.4a35.206,35.206,0,0,0,15.86-18.235,45.519,45.519,0,0,0,3.007-16.951,44.145,44.145,0,0,0-4.6-20.636,33.624,33.624,0,0,0-12.823-13.726A37.253,37.253,0,0,0,75.478,247.3a41.064,41.064,0,0,0-15.832,2.763,30.476,30.476,0,0,0-10.877,7.371h-.354l.354-1.659,4.6-38.324h53.6V203.633H41.34l-6.9,66.884,12.382,2.395a24.084,24.084,0,0,1,6.722-6.817,27.7,27.7,0,0,1,8.755-3.778,44.008,44.008,0,0,1,10.524-1.2,28.118,28.118,0,0,1,13.444,2.948,19.721,19.721,0,0,1,8.4,8.752q2.917,5.8,2.918,14.464A28.51,28.51,0,0,1,94.4,301.194a22.033,22.033,0,0,1-8.932,8.937,28.633,28.633,0,0,1-13.885,3.132q-11.5,0-17.423-5.989a36.2,36.2,0,0,1-8.756-15.569l-13.8,7.555Q36.74,312.345,46.2,319.712a30.485,30.485,0,0,0,2.951,2.02H18.425V18.425H321.732ZM284.9,241.4a25.9,25.9,0,0,1-3.183,12.991,22.957,22.957,0,0,1-8.933,8.843,26.836,26.836,0,0,1-13.354,3.225q-11.676,0-18.574-6.357t-6.9-17.227q0-12.714,6.545-19.808t18.927-7.093a27.487,27.487,0,0,1,13.354,3.132,22.215,22.215,0,0,1,8.933,8.844A27.2,27.2,0,0,1,284.9,241.4Z"/>
      </g>
    </g>
</svg>
