<svg xmlns="http://www.w3.org/2000/svg" width="120mm" height="120mm" viewBox="0 0 340.158 340.158">
  <g id="Zimmernummer">
      <g id="Z-04-609-R">
        <path fill="#A0552B" stroke="none" d="M337.323,0H2.835A2.836,2.836,0,0,0,0,2.835V337.323a2.836,2.836,0,0,0,2.835,2.835H337.323a2.836,2.836,0,0,0,2.835-2.835V2.835A2.836,2.836,0,0,0,337.323,0ZM55.048,300.273a25.081,25.081,0,0,1-3.36-12.805,25.9,25.9,0,0,1,3.184-12.99,22.957,22.957,0,0,1,8.932-8.844,26.85,26.85,0,0,1,13.355-3.225,28.849,28.849,0,0,1,13.8,3.04,20.784,20.784,0,0,1,8.667,8.66,27.961,27.961,0,0,1,3.006,13.359q0,11.979-6.721,18.7T77.159,312.9a24.992,24.992,0,0,1-22.111-12.622Zm86.758-8.752q-3.273-11.055-3.271-27.084t3.271-27.086q3.271-11.055,9.729-16.674a25.107,25.107,0,0,1,31.662,0q6.454,5.622,9.728,16.674t3.273,27.086q0,16.029-3.273,27.084T183.2,308.2a25.111,25.111,0,0,1-31.662,0Q145.076,302.577,141.806,291.521Zm179.926,30.211H280.985c.98-.57,1.936-1.175,2.856-1.836q9.991-7.186,15.124-21.1t5.129-34.362q0-18.425-5.129-32.521t-15.212-22.11q-10.082-8.016-24.763-8.016-12.561,0-21.58,5.067a34.112,34.112,0,0,0-13.8,14.188q-4.776,9.12-4.776,21.649,0,11.609,4.954,20.084a34.221,34.221,0,0,0,13.8,13.174,42.7,42.7,0,0,0,20.341,4.7,41.482,41.482,0,0,0,13.178-2.211,31.6,31.6,0,0,0,11.939-7.278,27.346,27.346,0,0,0,7.43-13.358h.707v1.658a148.866,148.866,0,0,1-1.5,22.11,57.358,57.358,0,0,1-5.041,17.044A26.1,26.1,0,0,1,275,309.485q-6.1,3.78-15.3,3.778-11.322,0-17.777-5.9a33.1,33.1,0,0,1-9.286-15.477l-13.973,7.738q5.129,13.452,15.565,20.452,1.314.882,2.693,1.652h-49.23a39.856,39.856,0,0,0,11.428-10.68q11.76-16.031,11.761-46.615T199.117,217.82q-11.766-16.029-31.751-16.03-19.812,0-31.662,16.03t-11.851,46.617q0,30.585,11.851,46.615a40.3,40.3,0,0,0,11.453,10.68H99.611a33.846,33.846,0,0,0,12.924-13.168,42.474,42.474,0,0,0,4.953-20.913q0-12.159-4.864-21a33.651,33.651,0,0,0-13.708-13.634,42.813,42.813,0,0,0-20.7-4.791,39.5,39.5,0,0,0-13,2.3,33.079,33.079,0,0,0-11.851,7.186,25.3,25.3,0,0,0-7.163,12.806H45.5V267.2a95.657,95.657,0,0,1,2.034-20.267,55.968,55.968,0,0,1,6.1-16.4,32.977,32.977,0,0,1,9.906-10.964,23.377,23.377,0,0,1,13.443-3.961q10.434,0,16.361,4.883a27.412,27.412,0,0,1,8.579,13.359l13.089-6.45a46.934,46.934,0,0,0-8.667-14.647,31.435,31.435,0,0,0-12.116-8.292,45.766,45.766,0,0,0-16.362-2.672,39.821,39.821,0,0,0-23.26,7.187q-10.347,7.185-16.361,21.1t-6.014,34.364q0,18.24,5.129,32.335t15.212,22.2a35.536,35.536,0,0,0,3.946,2.757H18.425V18.425H321.732Zm-37.1-80.328a25.892,25.892,0,0,1-3.183,12.991,22.944,22.944,0,0,1-8.933,8.843,26.833,26.833,0,0,1-13.354,3.225q-11.676,0-18.573-6.357t-6.9-17.227q0-12.714,6.544-19.808t18.927-7.093a27.484,27.484,0,0,1,13.354,3.132,22.2,22.2,0,0,1,8.933,8.844A27.185,27.185,0,0,1,284.637,241.4Z"/>
      </g>
    </g>
</svg>
