<svg xmlns="http://www.w3.org/2000/svg" width="120mm" height="120mm" viewBox="0 0 340.158 340.157">
  <g id="Zimmernummer">
      <g id="Z-04-313-E">
        <path fill="#A09f9d" stroke="none" d="M337.323,0H2.835A2.836,2.836,0,0,0,0,2.835V337.323a2.834,2.834,0,0,0,2.835,2.834H337.323a2.834,2.834,0,0,0,2.835-2.834V2.835A2.836,2.836,0,0,0,337.323,0ZM321.732,321.732H270.857a34.758,34.758,0,0,0,12.9-12.339,35.8,35.8,0,0,0,5.041-18.977,29.064,29.064,0,0,0-1.681-9.858,26.234,26.234,0,0,0-4.864-8.384,24.013,24.013,0,0,0-7.694-5.9,25.06,25.06,0,0,0-10.348-2.4v-.369a23.858,23.858,0,0,0,8.314-3.04,25.77,25.77,0,0,0,6.986-6.172,29.6,29.6,0,0,0,4.865-9.121,37.189,37.189,0,0,0,1.768-11.884,32.156,32.156,0,0,0-3.979-15.845,29.139,29.139,0,0,0-11.94-11.516q-7.959-4.328-20.164-4.33a46.22,46.22,0,0,0-17.777,3.316,39.705,39.705,0,0,0-13.709,9.213,38.621,38.621,0,0,0-8.49,13.634L223.53,234.4a34.076,34.076,0,0,1,9.2-13.727q5.837-5.067,16.981-5.067,10.434,0,16.1,4.974t5.66,14.556q0,11.241-5.483,16.491t-18.4,5.251h-2.741a26.647,26.647,0,0,1-3.1-.184v14.74a45.408,45.408,0,0,1,4.776-.46q2.3-.09,4.245-.093,8.311,0,13.443,2.119a14.482,14.482,0,0,1,7.518,6.541,23.068,23.068,0,0,1,2.387,11.055,23.606,23.606,0,0,1-2.83,11.7,20.464,20.464,0,0,1-8.136,8.015,26.621,26.621,0,0,1-13.089,2.948q-9.2,0-15.3-2.763a24.366,24.366,0,0,1-9.818-7.832,40.028,40.028,0,0,1-5.837-11.883l-14.15,7.554a37.878,37.878,0,0,0,16.184,21.1c1.307.837,2.649,1.6,4.02,2.3H188.154v-118.1H175.772a36.706,36.706,0,0,1-7.075,7.186,88.574,88.574,0,0,1-9.994,6.91,90.6,90.6,0,0,1-10.259,5.343,29.743,29.743,0,0,1-8.048,2.487l3.715,13.451a65.993,65.993,0,0,0,30.246-17.135q-.177,3.869-.265,7.461T174,236.061v85.671H109.365a34.758,34.758,0,0,0,12.9-12.339,35.789,35.789,0,0,0,5.041-18.977,29.088,29.088,0,0,0-1.68-9.858,26.236,26.236,0,0,0-4.865-8.384,24.013,24.013,0,0,0-7.694-5.9,25.056,25.056,0,0,0-10.348-2.4v-.369a23.843,23.843,0,0,0,8.314-3.04,25.788,25.788,0,0,0,6.987-6.172,29.62,29.62,0,0,0,4.864-9.121,37.188,37.188,0,0,0,1.769-11.884,32.157,32.157,0,0,0-3.98-15.845,29.133,29.133,0,0,0-11.94-11.516q-7.959-4.328-20.164-4.33a46.224,46.224,0,0,0-17.777,3.316,39.692,39.692,0,0,0-13.708,9.213,38.579,38.579,0,0,0-8.49,13.634L62.038,234.4a34.067,34.067,0,0,1,9.2-13.727q5.837-5.067,16.98-5.067,10.436,0,16.1,4.974t5.66,14.556q0,11.241-5.483,16.491T86.1,256.881H83.353a26.63,26.63,0,0,1-3.095-.184v14.74a45.39,45.39,0,0,1,4.775-.46q2.3-.09,4.245-.093,8.313,0,13.443,2.119a14.478,14.478,0,0,1,7.518,6.541,23.068,23.068,0,0,1,2.388,11.055,23.617,23.617,0,0,1-2.83,11.7,20.466,20.466,0,0,1-8.137,8.015,26.618,26.618,0,0,1-13.089,2.948q-9.2,0-15.3-2.763a24.369,24.369,0,0,1-9.817-7.832,40.026,40.026,0,0,1-5.836-11.883l-14.151,7.554a37.875,37.875,0,0,0,16.185,21.1c1.306.837,2.648,1.6,4.019,2.3H18.425V18.425H321.732Z"/>
      </g>
    </g>
</svg>
