<svg xmlns="http://www.w3.org/2000/svg" width="120mm" height="120mm" viewBox="0 0 340.158 340.157">
  <g id="Zimmernummer">
      <g id="Z-04-041-E">
        <path fill="#A09f9d" stroke="none" d="M337.323,0H2.835A2.834,2.834,0,0,0,0,2.835V337.323a2.834,2.834,0,0,0,2.835,2.834H337.323a2.834,2.834,0,0,0,2.835-2.834V2.835A2.834,2.834,0,0,0,337.323,0ZM198.331,280.65H154.664l31.875-44.773q2.945-4.236,6.449-9.949a116.878,116.878,0,0,0,5.712-10.319h.368q-.186,4.794-.461,9.766t-.276,9.765Zm123.4,41.082H284.377v-118.1h-12.9a37.424,37.424,0,0,1-7.37,7.185,92.6,92.6,0,0,1-10.41,6.911,95.845,95.845,0,0,1-10.686,5.342,32,32,0,0,1-8.384,2.488L238.5,239.01a67.54,67.54,0,0,0,16.951-6.541,66.164,66.164,0,0,0,14.556-10.595q-.184,3.869-.276,7.462t-.092,6.726v85.67H213.071V293.363h21.558V280.65H213.071V203.633H194.462L139,282.493v10.87h59.329v28.369H18.425V18.425H321.732Z"/>
      </g>
    </g>
</svg>
