<svg xmlns="http://www.w3.org/2000/svg" width="120mm" height="120mm" viewBox="0 0 340.158 340.158">
  <g id="Zimmernummer">
      <g id="Z-04-049-E">
        <path fill="#A09f9d" stroke="none" d="M337.323,0H2.835A2.836,2.836,0,0,0,0,2.835V337.323a2.836,2.836,0,0,0,2.835,2.835H337.323a2.836,2.836,0,0,0,2.835-2.835V2.835A2.836,2.836,0,0,0,337.323,0ZM163.562,280.65H119.9l31.876-44.773q2.945-4.236,6.448-9.949a116.878,116.878,0,0,0,5.712-10.319h.369q-.186,4.794-.461,9.766t-.277,9.765Zm158.17,41.082H277.125c1.021-.57,2.017-1.175,2.976-1.836q10.407-7.186,15.753-21.1t5.343-34.362q0-18.425-5.343-32.521t-15.845-22.11q-10.5-8.016-25.8-8.016-13.084,0-22.479,5.067a34.8,34.8,0,0,0-14.371,14.188q-4.976,9.12-4.975,21.649,0,11.609,5.159,20.084a35.067,35.067,0,0,0,14.372,13.174,46,46,0,0,0,21.188,4.7,44.843,44.843,0,0,0,13.727-2.211,33.186,33.186,0,0,0,12.437-7.278A27.076,27.076,0,0,0,287.01,257.8h.737v1.658a143.108,143.108,0,0,1-1.566,22.11,55.678,55.678,0,0,1-5.251,17.044,26.5,26.5,0,0,1-10.042,10.87q-6.357,3.78-15.938,3.778-11.793,0-18.517-5.9a32.868,32.868,0,0,1-9.673-15.477L212.2,299.628q5.341,13.452,16.214,20.452,1.369.882,2.806,1.652H178.3V293.363H199.86V280.65H178.3V203.633h-18.61l-55.46,78.86v10.87h59.329v28.369H18.425V18.425H321.732ZM280.93,241.4a25.078,25.078,0,0,1-3.317,12.991,23.462,23.462,0,0,1-9.3,8.843,28.893,28.893,0,0,1-13.912,3.225q-12.159,0-19.346-6.357t-7.186-17.227q0-12.714,6.818-19.808t19.714-7.093a29.607,29.607,0,0,1,13.912,3.132,22.705,22.705,0,0,1,9.3,8.844A26.317,26.317,0,0,1,280.93,241.4Z"/>
      </g>
    </g>
</svg>
