<svg xmlns="http://www.w3.org/2000/svg" width="120mm" height="120mm" viewBox="0 0 340.158 340.157">
  <g id="Zimmernummer">
      <g id="Z-04-426-R">
        <path fill="#A0552B" stroke="none" d="M337.323,0H2.835A2.836,2.836,0,0,0,0,2.835V337.323a2.834,2.834,0,0,0,2.835,2.834H337.323a2.834,2.834,0,0,0,2.835-2.834V2.835A2.836,2.836,0,0,0,337.323,0ZM87.682,280.65H45.761l30.6-44.773q2.827-4.236,6.191-9.949t5.483-10.319h.354q-.177,4.794-.442,9.766t-.265,9.765Zm152.469,19.623a25.072,25.072,0,0,1-3.361-12.805,25.913,25.913,0,0,1,3.184-12.99,22.971,22.971,0,0,1,8.932-8.844,26.853,26.853,0,0,1,13.355-3.225,28.849,28.849,0,0,1,13.8,3.04,20.787,20.787,0,0,1,8.668,8.66,27.961,27.961,0,0,1,3.006,13.359q0,11.979-6.721,18.7t-18.75,6.726a24.991,24.991,0,0,1-22.11-12.622Zm81.581,21.459H284.713a33.849,33.849,0,0,0,12.925-13.168,42.463,42.463,0,0,0,4.952-20.913q0-12.159-4.864-21a33.639,33.639,0,0,0-13.708-13.634,42.807,42.807,0,0,0-20.7-4.791,39.505,39.505,0,0,0-13,2.3,33.066,33.066,0,0,0-11.85,7.186,25.314,25.314,0,0,0-7.164,12.806H230.6V267.2a95.592,95.592,0,0,1,2.034-20.267,55.912,55.912,0,0,1,6.1-16.4,32.977,32.977,0,0,1,9.906-10.964,23.376,23.376,0,0,1,13.442-3.961q10.435,0,16.362,4.883a27.4,27.4,0,0,1,8.578,13.359l13.09-6.45a46.935,46.935,0,0,0-8.668-14.647,31.42,31.42,0,0,0-12.116-8.292,45.757,45.757,0,0,0-16.361-2.672,39.819,39.819,0,0,0-23.26,7.187q-10.347,7.185-16.361,21.1t-6.015,34.364q0,18.24,5.13,32.335t15.212,22.2a35.524,35.524,0,0,0,3.945,2.757h-34.9V311.42h-40.86q-1.77,0-5.218.093t-6.9.183q-3.449.1-5.394.277v-.184q20.87-14.553,33.077-26.532t17.51-22.94a50.835,50.835,0,0,0,5.307-22.386,42.164,42.164,0,0,0-2.741-15.478,34.42,34.42,0,0,0-7.871-12.068,35.378,35.378,0,0,0-12.294-7.83,44.679,44.679,0,0,0-16.185-2.765q-11.852,0-20.429,4.606A35.544,35.544,0,0,0,131.1,219.11a48.8,48.8,0,0,0-6.632,18.794l12.382,7.739q1.234-13.633,8.49-21.834t19.28-8.2q11.5,0,18.13,6.726t6.633,17.6A41.281,41.281,0,0,1,186.38,255.5,58.812,58.812,0,0,1,176.3,271.254a176.031,176.031,0,0,1-18.838,18.425q-11.766,10.135-29.274,23.584v8.469H101.832V293.363h20.7V280.65h-20.7V203.633H83.967l-53.241,78.86v10.87H87.682v28.369H18.425V18.425H321.732Z"/>
      </g>
    </g>
</svg>
