<svg xmlns="http://www.w3.org/2000/svg" width="120mm" height="120mm" viewBox="0 0 340.158 340.158">
  <g id="Zimmernummer">
      <g id="Z-04-234-E">
        <path fill="#A09f9d" stroke="none" d="M337.323,0H2.835A2.836,2.836,0,0,0,0,2.835V337.323a2.836,2.836,0,0,0,2.835,2.835H337.323a2.836,2.836,0,0,0,2.835-2.835V2.835A2.836,2.836,0,0,0,337.323,0ZM270.491,280.65h-41.92l30.6-44.773q2.827-4.236,6.191-9.949t5.483-10.319h.354q-.179,4.794-.442,9.766t-.266,9.765Zm51.241,41.082h-37.09V293.363h20.695V280.65H284.642V203.633H266.777l-53.242,78.86v10.87h56.956v28.369H185.865a34.748,34.748,0,0,0,12.9-12.338,35.8,35.8,0,0,0,5.041-18.978,29.082,29.082,0,0,0-1.68-9.857,26.236,26.236,0,0,0-4.865-8.384,24.03,24.03,0,0,0-7.694-5.9,25.072,25.072,0,0,0-10.348-2.394v-.369a23.863,23.863,0,0,0,8.314-3.04,25.805,25.805,0,0,0,6.987-6.172,29.6,29.6,0,0,0,4.864-9.121,37.16,37.16,0,0,0,1.769-11.884,32.158,32.158,0,0,0-3.98-15.846,29.128,29.128,0,0,0-11.939-11.515q-7.96-4.328-20.165-4.331a46.224,46.224,0,0,0-17.777,3.317,39.687,39.687,0,0,0-13.708,9.213,38.589,38.589,0,0,0-8.49,13.634l13.443,6.633a34.069,34.069,0,0,1,9.2-13.726q5.836-5.067,16.98-5.068,10.435,0,16.1,4.975t5.66,14.556q0,11.241-5.484,16.491t-18.4,5.251h-2.741a26.649,26.649,0,0,1-3.095-.185v14.741a44.837,44.837,0,0,1,4.775-.46q2.3-.092,4.246-.093,8.311,0,13.442,2.119a14.474,14.474,0,0,1,7.518,6.541,23.065,23.065,0,0,1,2.388,11.055,23.609,23.609,0,0,1-2.83,11.7,20.458,20.458,0,0,1-8.137,8.014,26.615,26.615,0,0,1-13.089,2.949q-9.2,0-15.3-2.764a24.354,24.354,0,0,1-9.817-7.831,40.023,40.023,0,0,1-5.838-11.884l-14.15,7.555a37.875,37.875,0,0,0,16.185,21.1c1.306.836,2.648,1.6,4.019,2.3H114.13V311.42H73.271q-1.77,0-5.219.093t-6.9.183q-3.449.1-5.394.277v-.184q20.868-14.553,33.076-26.532t17.511-22.94a50.849,50.849,0,0,0,5.307-22.386,42.144,42.144,0,0,0-2.742-15.478,34.392,34.392,0,0,0-7.871-12.068,35.373,35.373,0,0,0-12.293-7.83,44.679,44.679,0,0,0-16.185-2.765q-11.853,0-20.43,4.606a35.534,35.534,0,0,0-13.62,12.714A48.821,48.821,0,0,0,31.88,237.9l12.382,7.739q1.236-13.633,8.49-21.834t19.28-8.2q11.5,0,18.131,6.726t6.633,17.6A41.281,41.281,0,0,1,93.789,255.5a58.837,58.837,0,0,1-10.082,15.754,176.031,176.031,0,0,1-18.838,18.425Q53.1,299.814,35.6,313.263v8.469H18.425V18.425H321.732Z"/>
      </g>
    </g>
</svg>
