<svg xmlns="http://www.w3.org/2000/svg" width="120mm" height="120mm" viewBox="0 0 340.158 340.157">
  <g id="Zimmernummer">
      <g id="Z-04-510">
        <path fill="#000000" stroke="none" d="M337.323,0H2.835A2.836,2.836,0,0,0,0,2.835V337.323a2.834,2.834,0,0,0,2.835,2.834H337.323a2.834,2.834,0,0,0,2.835-2.834V2.835A2.836,2.836,0,0,0,337.323,0Zm-117.6,291.521q-3.274-11.055-3.272-27.084t3.272-27.086q3.271-11.055,9.729-16.674a25.106,25.106,0,0,1,31.661,0q6.456,5.622,9.729,16.674t3.272,27.086q0,16.029-3.272,27.084T261.111,308.2a25.109,25.109,0,0,1-31.661,0Q222.99,302.577,219.721,291.521Zm102.011,30.211H265.6a39.84,39.84,0,0,0,11.427-10.68q11.762-16.031,11.763-46.615T277.031,217.82q-11.766-16.029-31.75-16.03-19.812,0-31.662,16.03t-11.852,46.617q0,30.585,11.852,46.615a40.31,40.31,0,0,0,11.452,10.68h-44v-118.1H168.691a36.732,36.732,0,0,1-7.075,7.185,88.71,88.71,0,0,1-9.994,6.911,90.674,90.674,0,0,1-10.26,5.342,29.776,29.776,0,0,1-8.048,2.488l3.715,13.451a65.993,65.993,0,0,0,30.247-17.136q-.178,3.869-.266,7.462t-.088,6.726v85.67H108.968A35.2,35.2,0,0,0,124.827,303.5a45.5,45.5,0,0,0,3.007-16.951,44.145,44.145,0,0,0-4.6-20.636,33.633,33.633,0,0,0-12.824-13.726A37.253,37.253,0,0,0,91.042,247.3a41.05,41.05,0,0,0-15.83,2.763,30.467,30.467,0,0,0-10.879,7.371h-.354l.354-1.659,4.6-38.324h53.6V203.633H56.9l-6.9,66.884,12.381,2.395a24.084,24.084,0,0,1,6.722-6.817,27.693,27.693,0,0,1,8.756-3.778,44,44,0,0,1,10.524-1.2,28.114,28.114,0,0,1,13.443,2.948,19.721,19.721,0,0,1,8.4,8.752q2.918,5.8,2.918,14.464a28.51,28.51,0,0,1-3.183,13.911,22.036,22.036,0,0,1-8.933,8.937,28.633,28.633,0,0,1-13.885,3.132q-11.5,0-17.423-5.989a36.205,36.205,0,0,1-8.756-15.569l-13.8,7.555q5.127,13.085,14.592,20.452a30.306,30.306,0,0,0,2.951,2.02H18.425V18.425H321.732Z"/>
      </g>
    </g>
</svg>
