<svg xmlns="http://www.w3.org/2000/svg" width="120mm" height="120mm" viewBox="0 0 340.158 340.157">
  <g id="Zimmernummer">
      <g id="Z-04-216">
        <path fill="#000000" stroke="none" d="M337.323,0H2.835A2.836,2.836,0,0,0,0,2.835V337.323a2.834,2.834,0,0,0,2.835,2.834H337.323a2.834,2.834,0,0,0,2.835-2.834V2.835A2.836,2.836,0,0,0,337.323,0Zm-111.4,300.273a25.082,25.082,0,0,1-3.361-12.805,25.913,25.913,0,0,1,3.184-12.99,22.967,22.967,0,0,1,8.933-8.844,26.849,26.849,0,0,1,13.354-3.225,28.846,28.846,0,0,1,13.8,3.04,20.773,20.773,0,0,1,8.667,8.66,27.95,27.95,0,0,1,3.007,13.359q0,11.979-6.721,18.7t-18.75,6.726a24.988,24.988,0,0,1-22.11-12.622Zm95.814,21.459H270.481A33.846,33.846,0,0,0,283.4,308.564a42.463,42.463,0,0,0,4.952-20.913q0-12.159-4.864-21a33.633,33.633,0,0,0-13.708-13.634,42.81,42.81,0,0,0-20.7-4.791,39.5,39.5,0,0,0-13,2.3,33.07,33.07,0,0,0-11.851,7.186,25.307,25.307,0,0,0-7.164,12.806h-.708V267.2a95.657,95.657,0,0,1,2.034-20.267,56,56,0,0,1,6.1-16.4,32.985,32.985,0,0,1,9.905-10.964,23.383,23.383,0,0,1,13.444-3.961q10.434,0,16.361,4.883a27.412,27.412,0,0,1,8.579,13.359l13.089-6.45a46.953,46.953,0,0,0-8.667-14.647,31.431,31.431,0,0,0-12.117-8.292,45.757,45.757,0,0,0-16.361-2.672,39.819,39.819,0,0,0-23.26,7.187q-10.349,7.185-16.362,21.1T203.1,264.437q0,18.24,5.13,32.335t15.211,22.2a35.629,35.629,0,0,0,3.946,2.757H182.405v-118.1H170.023a36.675,36.675,0,0,1-7.075,7.185,88.71,88.71,0,0,1-9.994,6.911,90.58,90.58,0,0,1-10.259,5.342,29.787,29.787,0,0,1-8.048,2.488l3.714,13.451a65.98,65.98,0,0,0,30.247-17.136q-.178,3.869-.265,7.462t-.089,6.726v85.67H128.811V311.42H87.952q-1.772,0-5.219.093t-6.9.183q-3.448.1-5.395.277v-.184q20.869-14.553,33.077-26.532t17.511-22.94a50.849,50.849,0,0,0,5.307-22.386,42.144,42.144,0,0,0-2.742-15.478,34.392,34.392,0,0,0-7.871-12.068,35.373,35.373,0,0,0-12.293-7.83,44.679,44.679,0,0,0-16.185-2.765q-11.853,0-20.43,4.606a35.534,35.534,0,0,0-13.62,12.714A48.8,48.8,0,0,0,46.561,237.9l12.382,7.739q1.236-13.633,8.49-21.834t19.28-8.2q11.5,0,18.131,6.726t6.633,17.6A41.281,41.281,0,0,1,108.47,255.5a58.837,58.837,0,0,1-10.082,15.754A176.031,176.031,0,0,1,79.55,289.679q-11.766,10.135-29.275,23.584v8.469H18.425V18.425H321.732Z"/>
      </g>
    </g>
</svg>
