<svg xmlns="http://www.w3.org/2000/svg" width="120mm" height="120mm" viewBox="0 0 340.158 340.157">
  <g id="Zimmernummer">
      <g id="Z-04-513">
        <path fill="#000000" stroke="none" d="M337.323,0H2.835A2.836,2.836,0,0,0,0,2.835V337.323a2.834,2.834,0,0,0,2.835,2.834H337.323a2.834,2.834,0,0,0,2.835-2.834V2.835A2.836,2.836,0,0,0,337.323,0ZM321.732,321.732H265.456a34.747,34.747,0,0,0,12.9-12.339,35.781,35.781,0,0,0,5.042-18.977,29.088,29.088,0,0,0-1.68-9.858,26.274,26.274,0,0,0-4.865-8.384,24.024,24.024,0,0,0-7.694-5.9,25.056,25.056,0,0,0-10.348-2.4v-.369a23.85,23.85,0,0,0,8.314-3.04,25.77,25.77,0,0,0,6.986-6.172,29.557,29.557,0,0,0,4.864-9.121,37.159,37.159,0,0,0,1.77-11.884,32.147,32.147,0,0,0-3.981-15.845,29.13,29.13,0,0,0-11.939-11.516q-7.961-4.328-20.164-4.33a46.224,46.224,0,0,0-17.777,3.316,39.683,39.683,0,0,0-13.708,9.213,38.6,38.6,0,0,0-8.491,13.634L218.13,234.4a34.064,34.064,0,0,1,9.2-13.727q5.838-5.067,16.98-5.067,10.436,0,16.1,4.974t5.66,14.556q0,11.241-5.483,16.491t-18.4,5.251h-2.741a26.647,26.647,0,0,1-3.1-.184v14.74a45.433,45.433,0,0,1,4.776-.46q2.3-.09,4.245-.093,8.313,0,13.443,2.119a14.478,14.478,0,0,1,7.518,6.541,23.068,23.068,0,0,1,2.388,11.055,23.606,23.606,0,0,1-2.831,11.7,20.457,20.457,0,0,1-8.136,8.015,26.618,26.618,0,0,1-13.089,2.948q-9.2,0-15.3-2.763a24.353,24.353,0,0,1-9.816-7.832,39.98,39.98,0,0,1-5.837-11.883l-14.152,7.554a37.879,37.879,0,0,0,16.185,21.1c1.306.837,2.648,1.6,4.019,2.3H182.753v-118.1H170.372a36.714,36.714,0,0,1-7.076,7.186,88.574,88.574,0,0,1-9.994,6.91,90.6,90.6,0,0,1-10.259,5.343A29.732,29.732,0,0,1,135,225.558l3.715,13.451a66.007,66.007,0,0,0,30.246-17.135q-.177,3.869-.265,7.461t-.089,6.726v85.671H114.185a35.218,35.218,0,0,0,15.86-18.235,45.508,45.508,0,0,0,3.007-16.952,44.138,44.138,0,0,0-4.6-20.635,33.636,33.636,0,0,0-12.824-13.727A37.253,37.253,0,0,0,96.26,247.3a41.039,41.039,0,0,0-15.831,2.764,30.487,30.487,0,0,0-10.877,7.37H69.2l.355-1.658,4.6-38.324h53.6v-13.82H62.122l-6.9,66.884,12.382,2.4a24.1,24.1,0,0,1,6.722-6.818,27.7,27.7,0,0,1,8.756-3.777,43.951,43.951,0,0,1,10.524-1.2,28.121,28.121,0,0,1,13.444,2.948,19.719,19.719,0,0,1,8.4,8.752q2.919,5.8,2.919,14.464a28.51,28.51,0,0,1-3.185,13.911,22.028,22.028,0,0,1-8.931,8.936,28.637,28.637,0,0,1-13.886,3.132q-11.5,0-17.423-5.988a36.211,36.211,0,0,1-8.756-15.569l-13.8,7.554q5.128,13.086,14.593,20.452a30.508,30.508,0,0,0,2.952,2.021H18.425V18.425H321.732Z"/>
      </g>
    </g>
</svg>
