<svg xmlns="http://www.w3.org/2000/svg" width="120mm" height="120mm" viewBox="0 0 340.158 340.157">
  <g id="Zimmernummer">
      <g id="Z-04-435">
        <path fill="#000000" stroke="none" d="M337.323,0H2.835A2.836,2.836,0,0,0,0,2.835V337.323a2.834,2.834,0,0,0,2.835,2.834H337.323a2.834,2.834,0,0,0,2.835-2.834V2.835A2.836,2.836,0,0,0,337.323,0ZM88.212,280.65H46.291l30.6-44.773q2.826-4.236,6.191-9.949t5.482-10.319h.355q-.178,4.794-.442,9.766t-.266,9.765Zm233.52,41.082H282.84A35.2,35.2,0,0,0,298.7,303.5a45.5,45.5,0,0,0,3.007-16.951,44.145,44.145,0,0,0-4.6-20.636,33.627,33.627,0,0,0-12.824-13.726,37.247,37.247,0,0,0-19.368-4.883,41.055,41.055,0,0,0-15.831,2.763,30.467,30.467,0,0,0-10.879,7.371h-.353l.353-1.659,4.6-38.324H296.4V203.633H230.776l-6.9,66.884,12.382,2.395a24.094,24.094,0,0,1,6.721-6.817,27.693,27.693,0,0,1,8.756-3.778,44,44,0,0,1,10.525-1.2,28.113,28.113,0,0,1,13.442,2.948,19.721,19.721,0,0,1,8.4,8.752q2.919,5.8,2.918,14.464a28.51,28.51,0,0,1-3.183,13.911,22.03,22.03,0,0,1-8.933,8.937,28.633,28.633,0,0,1-13.885,3.132q-11.5,0-17.422-5.989a36.185,36.185,0,0,1-8.756-15.569l-13.8,7.555q5.129,13.085,14.593,20.452a30.292,30.292,0,0,0,2.95,2.02h-45.92a34.76,34.76,0,0,0,12.9-12.338,35.8,35.8,0,0,0,5.041-18.978,29.082,29.082,0,0,0-1.68-9.857,26.236,26.236,0,0,0-4.865-8.384,24.03,24.03,0,0,0-7.694-5.9,25.072,25.072,0,0,0-10.348-2.394v-.369a23.863,23.863,0,0,0,8.314-3.04,25.776,25.776,0,0,0,6.987-6.172,29.6,29.6,0,0,0,4.864-9.121A37.188,37.188,0,0,0,207.96,233.3a32.158,32.158,0,0,0-3.98-15.846,29.125,29.125,0,0,0-11.94-11.515q-7.959-4.328-20.164-4.331a46.219,46.219,0,0,0-17.776,3.317,39.673,39.673,0,0,0-13.709,9.213A38.578,38.578,0,0,0,131.9,227.77l13.444,6.633a34.059,34.059,0,0,1,9.2-13.726q5.836-5.067,16.98-5.068,10.436,0,16.1,4.975t5.66,14.556q0,11.241-5.483,16.491t-18.4,5.251h-2.741a26.666,26.666,0,0,1-3.1-.185v14.741a44.93,44.93,0,0,1,4.776-.46q2.3-.092,4.245-.093,8.313,0,13.443,2.119a14.474,14.474,0,0,1,7.518,6.541,23.065,23.065,0,0,1,2.388,11.055,23.619,23.619,0,0,1-2.83,11.7,20.458,20.458,0,0,1-8.137,8.014,26.618,26.618,0,0,1-13.089,2.949q-9.2,0-15.3-2.764a24.364,24.364,0,0,1-9.816-7.831,40.022,40.022,0,0,1-5.837-11.884l-14.151,7.555a37.879,37.879,0,0,0,16.185,21.1c1.306.836,2.648,1.6,4.019,2.3H102.362V293.363h20.7V280.65h-20.7V203.633H84.5l-53.242,78.86v10.87H88.212v28.369H18.425V18.425H321.732Z"/>
      </g>
    </g>
</svg>
