<svg xmlns="http://www.w3.org/2000/svg" width="120mm" height="120mm" viewBox="0 0 340.158 340.157">
  <g id="Zimmernummer">
      <g id="Z-04-325-E">
        <path fill="#A09f9d" stroke="none" d="M337.323,0H2.835A2.836,2.836,0,0,0,0,2.835V337.323a2.834,2.834,0,0,0,2.835,2.834H337.323a2.834,2.834,0,0,0,2.835-2.834V2.835A2.836,2.836,0,0,0,337.323,0ZM321.732,321.732H280.37A35.212,35.212,0,0,0,296.229,303.5a45.519,45.519,0,0,0,3.007-16.951,44.145,44.145,0,0,0-4.6-20.636,33.627,33.627,0,0,0-12.824-13.726,37.248,37.248,0,0,0-19.369-4.883,41.062,41.062,0,0,0-15.831,2.763,30.472,30.472,0,0,0-10.878,7.371h-.353l.353-1.659,4.6-38.324h53.6V203.633H228.307l-6.9,66.884,12.382,2.395a24.084,24.084,0,0,1,6.722-6.817,27.687,27.687,0,0,1,8.755-3.778,44,44,0,0,1,10.524-1.2,28.111,28.111,0,0,1,13.443,2.948,19.729,19.729,0,0,1,8.4,8.752q2.917,5.8,2.918,14.464a28.521,28.521,0,0,1-3.184,13.911,22.03,22.03,0,0,1-8.933,8.937,28.63,28.63,0,0,1-13.885,3.132q-11.5,0-17.423-5.989a36.2,36.2,0,0,1-8.755-15.569l-13.8,7.555q5.129,13.085,14.593,20.452a30.306,30.306,0,0,0,2.951,2.02h-27.8V311.42H167.46q-1.77,0-5.218.093t-6.9.183q-3.45.1-5.395.277v-.184q20.869-14.553,33.076-26.532t17.512-22.94a50.849,50.849,0,0,0,5.307-22.386,42.144,42.144,0,0,0-2.742-15.478,34.408,34.408,0,0,0-7.872-12.068,35.355,35.355,0,0,0-12.293-7.83,44.67,44.67,0,0,0-16.184-2.765q-11.853,0-20.43,4.606A35.534,35.534,0,0,0,132.7,219.11,48.788,48.788,0,0,0,126.07,237.9l12.382,7.739q1.235-13.633,8.49-21.834t19.28-8.2q11.5,0,18.131,6.726t6.632,17.6a41.3,41.3,0,0,1-3.006,15.569A58.842,58.842,0,0,1,177.9,271.254a176.01,176.01,0,0,1-18.837,18.425q-11.766,10.135-29.275,23.584v8.469H99.462a34.76,34.76,0,0,0,12.9-12.338,35.8,35.8,0,0,0,5.041-18.978,29.082,29.082,0,0,0-1.68-9.857,26.236,26.236,0,0,0-4.865-8.384,24.03,24.03,0,0,0-7.694-5.9,25.072,25.072,0,0,0-10.348-2.394v-.369a23.863,23.863,0,0,0,8.314-3.04,25.805,25.805,0,0,0,6.987-6.172,29.6,29.6,0,0,0,4.864-9.121,37.188,37.188,0,0,0,1.769-11.884,32.158,32.158,0,0,0-3.98-15.846,29.128,29.128,0,0,0-11.939-11.515q-7.96-4.328-20.165-4.331a46.224,46.224,0,0,0-17.777,3.317,39.687,39.687,0,0,0-13.708,9.213,38.606,38.606,0,0,0-8.491,13.634L52.135,234.4a34.059,34.059,0,0,1,9.2-13.726q5.837-5.067,16.98-5.068,10.435,0,16.1,4.975t5.66,14.556q0,11.241-5.483,16.491t-18.4,5.251H73.449a26.636,26.636,0,0,1-3.095-.185v14.741a44.837,44.837,0,0,1,4.775-.46q2.3-.092,4.246-.093,8.311,0,13.442,2.119a14.474,14.474,0,0,1,7.518,6.541,23.065,23.065,0,0,1,2.388,11.055,23.619,23.619,0,0,1-2.83,11.7,20.458,20.458,0,0,1-8.137,8.014,26.618,26.618,0,0,1-13.089,2.949q-9.2,0-15.3-2.764a24.354,24.354,0,0,1-9.817-7.831,40.023,40.023,0,0,1-5.838-11.884l-14.15,7.555a37.875,37.875,0,0,0,16.185,21.1c1.306.836,2.647,1.6,4.018,2.3H18.425V18.425H321.732Z"/>
      </g>
    </g>
</svg>
