<svg xmlns="http://www.w3.org/2000/svg" width="120mm" height="120mm" viewBox="0 0 340.158 340.157">
  <g id="Zimmernummer">
      <g id="Z-04-118-E">
        <path fill="#A09f9d" stroke="none" d="M337.323,0H2.835A2.836,2.836,0,0,0,0,2.835V337.323a2.834,2.834,0,0,0,2.835,2.834H337.323a2.834,2.834,0,0,0,2.835-2.834V2.835A2.836,2.836,0,0,0,337.323,0ZM219.015,271.161a41.426,41.426,0,0,1,29.274,0,21.769,21.769,0,0,1,9.64,7.738,22.769,22.769,0,0,1,.089,23.953,21.151,21.151,0,0,1-9.552,7.738,42.4,42.4,0,0,1-29.628,0,21.772,21.772,0,0,1-9.551-31.691A21.7,21.7,0,0,1,219.015,271.161Zm-7.871-35.836q0-9.211,6.1-14.371t16.361-5.161q10.434,0,16.45,5.161t6.014,14.371q0,9.029-6.191,14.187t-16.273,5.158q-10.082,0-16.273-5.158T211.144,235.325Zm110.588,86.407H258.28a33.772,33.772,0,0,0,12.473-10.864,31.778,31.778,0,0,0,5.307-18.426q0-11.423-5.926-19.346A35.347,35.347,0,0,0,254.3,261.3v-.183a27.771,27.771,0,0,0,12.117-10.78,30.992,30.992,0,0,0,4.333-16.49,30.659,30.659,0,0,0-4.6-17.043,30.142,30.142,0,0,0-12.912-10.963,51.53,51.53,0,0,0-39.18,0,30.022,30.022,0,0,0-13,10.963q-4.6,7.1-4.6,17.043a30.4,30.4,0,0,0,4.511,16.676A27.885,27.885,0,0,0,213.09,261.12v.183a34.3,34.3,0,0,0-16.1,11.885q-5.837,8.016-5.837,19.254a31.778,31.778,0,0,0,5.307,18.426A33.629,33.629,0,0,0,209,321.732h-42.61v-118.1H154.011a36.733,36.733,0,0,1-7.075,7.186,88.574,88.574,0,0,1-9.994,6.91,90.58,90.58,0,0,1-10.259,5.342,29.751,29.751,0,0,1-8.048,2.488l3.715,13.451A65.983,65.983,0,0,0,152.6,221.874q-.177,3.87-.265,7.462t-.088,6.725v85.671H99.178v-118.1H86.8a36.7,36.7,0,0,1-7.075,7.186,88.651,88.651,0,0,1-9.993,6.91,90.674,90.674,0,0,1-10.26,5.342,29.751,29.751,0,0,1-8.048,2.488l3.715,13.451a65.983,65.983,0,0,0,30.246-17.136q-.177,3.87-.265,7.462t-.089,6.725v85.671h-66.6V18.425H321.732Z"/>
      </g>
    </g>
</svg>
