<svg xmlns="http://www.w3.org/2000/svg" width="120mm" height="120mm" viewBox="0 0 340.158 340.158">
  <g id="Zimmernummer">
      <g id="Z-04-324">
        <path fill="#000000" stroke="none" d="M337.323,0H2.835A2.836,2.836,0,0,0,0,2.835V337.323a2.836,2.836,0,0,0,2.835,2.835H337.323a2.836,2.836,0,0,0,2.835-2.835V2.835A2.836,2.836,0,0,0,337.323,0ZM269.607,280.65h-41.92l30.6-44.773q2.828-4.236,6.192-9.949t5.482-10.319h.354q-.178,4.794-.442,9.766t-.266,9.765Zm52.125,41.082H283.758V293.363h20.695V280.65H283.758V203.633H265.894l-53.243,78.86v10.87h56.956v28.369h-61.2V311.42h-40.86q-1.77,0-5.218.093t-6.9.183q-3.45.1-5.395.277v-.184q20.869-14.553,33.076-26.532t17.512-22.94a50.863,50.863,0,0,0,5.307-22.386,42.123,42.123,0,0,0-2.743-15.478,34.392,34.392,0,0,0-7.871-12.068,35.373,35.373,0,0,0-12.293-7.83,44.679,44.679,0,0,0-16.185-2.765q-11.852,0-20.429,4.606a35.52,35.52,0,0,0-13.62,12.714,48.788,48.788,0,0,0-6.633,18.794l12.382,7.739q1.234-13.633,8.49-21.834t19.28-8.2q11.5,0,18.13,6.726t6.633,17.6a41.281,41.281,0,0,1-3.007,15.569,58.812,58.812,0,0,1-10.082,15.754,175.936,175.936,0,0,1-18.838,18.425q-11.764,10.135-29.274,23.584v8.469H96.9a34.752,34.752,0,0,0,12.9-12.338,35.8,35.8,0,0,0,5.042-18.978,29.083,29.083,0,0,0-1.681-9.857,26.234,26.234,0,0,0-4.864-8.384,24.052,24.052,0,0,0-7.694-5.9,25.072,25.072,0,0,0-10.348-2.394v-.369a23.865,23.865,0,0,0,8.313-3.04,25.776,25.776,0,0,0,6.987-6.172,29.622,29.622,0,0,0,4.865-9.121,37.188,37.188,0,0,0,1.769-11.884,32.158,32.158,0,0,0-3.98-15.846,29.137,29.137,0,0,0-11.94-11.515q-7.961-4.328-20.164-4.331a46.22,46.22,0,0,0-17.777,3.317,39.678,39.678,0,0,0-13.708,9.213,38.578,38.578,0,0,0-8.491,13.634L49.569,234.4a34.069,34.069,0,0,1,9.2-13.726q5.836-5.067,16.981-5.068,10.434,0,16.1,4.975T97.5,235.14q0,11.241-5.483,16.491t-18.4,5.251H70.883a26.649,26.649,0,0,1-3.095-.185v14.741a44.88,44.88,0,0,1,4.776-.46q2.3-.092,4.245-.093,8.313,0,13.443,2.119a14.474,14.474,0,0,1,7.518,6.541,23.077,23.077,0,0,1,2.387,11.055,23.609,23.609,0,0,1-2.83,11.7,20.455,20.455,0,0,1-8.136,8.014A26.621,26.621,0,0,1,76.1,313.263q-9.2,0-15.3-2.764a24.36,24.36,0,0,1-9.817-7.831,40.046,40.046,0,0,1-5.837-11.884L31,298.339a37.878,37.878,0,0,0,16.184,21.1c1.306.836,2.648,1.6,4.019,2.3H18.425V18.425H321.732Z"/>
      </g>
    </g>
</svg>
