<svg xmlns="http://www.w3.org/2000/svg" width="120mm" height="120mm" viewBox="0 0 340.158 340.157">
  <g id="Zimmernummer">
      <g id="Z-04-121">
        <path fill="#000000" stroke="none" d="M337.323,0H2.835A2.834,2.834,0,0,0,0,2.835V337.323a2.834,2.834,0,0,0,2.835,2.834H337.323a2.834,2.834,0,0,0,2.835-2.834V2.835A2.834,2.834,0,0,0,337.323,0ZM321.732,321.732H250.05v-118.1H237.668a36.7,36.7,0,0,1-7.075,7.185,88.8,88.8,0,0,1-9.994,6.911,90.665,90.665,0,0,1-10.259,5.342,29.8,29.8,0,0,1-8.048,2.488l3.714,13.451a65.993,65.993,0,0,0,30.247-17.136q-.178,3.869-.266,7.462t-.088,6.726v85.67H196.456V311.42H155.6q-1.77,0-5.218.093t-6.9.183q-3.448.1-5.394.277v-.184q20.869-14.553,33.077-26.532t17.511-22.94a50.861,50.861,0,0,0,5.306-22.386,42.164,42.164,0,0,0-2.741-15.478,34.408,34.408,0,0,0-7.872-12.068,35.364,35.364,0,0,0-12.293-7.83,44.678,44.678,0,0,0-16.184-2.765q-11.853,0-20.431,4.606a35.538,35.538,0,0,0-13.619,12.714,48.788,48.788,0,0,0-6.633,18.794l12.381,7.739q1.236-13.633,8.491-21.834t19.28-8.2q11.5,0,18.13,6.726t6.633,17.6a41.281,41.281,0,0,1-3.007,15.569,58.812,58.812,0,0,1-10.082,15.754,176.031,176.031,0,0,1-18.838,18.425q-11.764,10.135-29.274,23.584v8.469H99.171v-118.1H86.789a36.7,36.7,0,0,1-7.075,7.185,88.8,88.8,0,0,1-9.994,6.911,90.58,90.58,0,0,1-10.259,5.342,29.8,29.8,0,0,1-8.048,2.488l3.714,13.451a65.993,65.993,0,0,0,30.247-17.136q-.178,3.869-.265,7.462t-.088,6.726v85.67h-66.6V18.425H321.732Z"/>
      </g>
    </g>
</svg>
