<svg xmlns="http://www.w3.org/2000/svg" width="120mm" height="120mm" viewBox="0 0 340.158 340.157">
  <g id="Zimmernummer">
      <g id="Z-04-346">
        <path fill="#000000" stroke="none" d="M337.323,0H2.835A2.836,2.836,0,0,0,0,2.835V337.323a2.834,2.834,0,0,0,2.835,2.834H337.323a2.834,2.834,0,0,0,2.835-2.834V2.835A2.836,2.836,0,0,0,337.323,0ZM178.42,280.65H136.5l30.6-44.773q2.828-4.236,6.19-9.949t5.484-10.319h.353q-.178,4.794-.442,9.766t-.265,9.765Zm61.731,19.623a25.073,25.073,0,0,1-3.362-12.805,25.913,25.913,0,0,1,3.184-12.99,22.973,22.973,0,0,1,8.933-8.844,26.852,26.852,0,0,1,13.354-3.225,28.846,28.846,0,0,1,13.8,3.04,20.781,20.781,0,0,1,8.668,8.66,27.961,27.961,0,0,1,3.007,13.359q0,11.979-6.722,18.7T262.26,312.9a24.988,24.988,0,0,1-22.109-12.622Zm81.581,21.459H284.713a33.846,33.846,0,0,0,12.924-13.168,42.463,42.463,0,0,0,4.952-20.913q0-12.159-4.864-21a33.633,33.633,0,0,0-13.708-13.634,42.8,42.8,0,0,0-20.695-4.791,39.505,39.505,0,0,0-13,2.3,33.079,33.079,0,0,0-11.851,7.186,25.321,25.321,0,0,0-7.164,12.806H230.6V267.2a95.657,95.657,0,0,1,2.034-20.267,55.941,55.941,0,0,1,6.1-16.4,32.975,32.975,0,0,1,9.905-10.964,23.376,23.376,0,0,1,13.442-3.961q10.435,0,16.363,4.883a27.411,27.411,0,0,1,8.578,13.359l13.09-6.45a46.954,46.954,0,0,0-8.668-14.647,31.416,31.416,0,0,0-12.117-8.292,45.757,45.757,0,0,0-16.361-2.672,39.824,39.824,0,0,0-23.26,7.187q-10.347,7.185-16.362,21.1t-6.014,34.364q0,18.24,5.13,32.335t15.212,22.2a35.443,35.443,0,0,0,3.946,2.757H192.571V293.363h20.695V280.65H192.571V203.633H174.705l-53.241,78.86v10.87H178.42v28.369H96.448a34.768,34.768,0,0,0,12.9-12.338,35.8,35.8,0,0,0,5.041-18.978,29.083,29.083,0,0,0-1.681-9.857,26.234,26.234,0,0,0-4.864-8.384,24.03,24.03,0,0,0-7.694-5.9A25.072,25.072,0,0,0,89.8,263.884v-.369a23.87,23.87,0,0,0,8.314-3.04A25.805,25.805,0,0,0,105.1,254.3a29.641,29.641,0,0,0,4.864-9.121,37.188,37.188,0,0,0,1.769-11.884,32.147,32.147,0,0,0-3.98-15.846,29.134,29.134,0,0,0-11.939-11.515q-7.961-4.328-20.165-4.331a46.224,46.224,0,0,0-17.777,3.317,39.687,39.687,0,0,0-13.708,9.213,38.606,38.606,0,0,0-8.491,13.634L49.12,234.4a34.08,34.08,0,0,1,9.2-13.726q5.835-5.067,16.98-5.068,10.434,0,16.1,4.975t5.661,14.556q0,11.241-5.483,16.491t-18.4,5.251H70.435a26.679,26.679,0,0,1-3.1-.185v14.741a44.9,44.9,0,0,1,4.777-.46q2.3-.092,4.245-.093,8.311,0,13.442,2.119a14.474,14.474,0,0,1,7.518,6.541A23.077,23.077,0,0,1,99.708,290.6a23.6,23.6,0,0,1-2.83,11.7,20.452,20.452,0,0,1-8.135,8.014,26.627,26.627,0,0,1-13.09,2.949q-9.2,0-15.3-2.764a24.36,24.36,0,0,1-9.817-7.831A40.022,40.022,0,0,1,44.7,290.784l-14.151,7.555a37.875,37.875,0,0,0,16.185,21.1c1.306.836,2.647,1.6,4.018,2.3H18.425V18.425H321.732Z"/>
      </g>
    </g>
</svg>
