<svg xmlns="http://www.w3.org/2000/svg" width="120mm" height="120mm" viewBox="0 0 340.158 340.157">
  <g id="Zimmernummer">
      <g id="Z-04-445-M">
        <path fill="#D4AF37" stroke="none" d="M337.323,0H2.835A2.836,2.836,0,0,0,0,2.835V337.323a2.834,2.834,0,0,0,2.835,2.834H337.323a2.834,2.834,0,0,0,2.835-2.834V2.835A2.836,2.836,0,0,0,337.323,0ZM91.042,280.65H49.121l30.6-44.773q2.828-4.236,6.191-9.949T91.4,215.609h.353q-.178,4.794-.442,9.766t-.266,9.765Zm34.846,12.713h53.771v28.369H105.194V293.363h20.694Zm54.036-67.988q-.266,4.974-.265,9.765v45.51H137.738l30.6-44.773q2.829-4.236,6.192-9.949t5.483-10.319h.353Q180.188,220.4,179.924,225.375Zm141.808,96.357H280.01A35.2,35.2,0,0,0,295.869,303.5a45.5,45.5,0,0,0,3.007-16.951,44.157,44.157,0,0,0-4.6-20.636,33.636,33.636,0,0,0-12.825-13.726,37.248,37.248,0,0,0-19.369-4.883,41.05,41.05,0,0,0-15.83,2.763,30.467,30.467,0,0,0-10.879,7.371h-.353l.353-1.659,4.6-38.324h53.6V203.633H227.947l-6.9,66.884,12.382,2.395a24.084,24.084,0,0,1,6.722-6.817,27.682,27.682,0,0,1,8.754-3.778,44.018,44.018,0,0,1,10.526-1.2,28.11,28.11,0,0,1,13.442,2.948,19.723,19.723,0,0,1,8.4,8.752q2.917,5.8,2.918,14.464a28.521,28.521,0,0,1-3.184,13.911,22.036,22.036,0,0,1-8.933,8.937,28.632,28.632,0,0,1-13.884,3.132q-11.5,0-17.423-5.989a36.205,36.205,0,0,1-8.756-15.569l-13.8,7.555q5.129,13.085,14.593,20.452a30.414,30.414,0,0,0,2.95,2.02H193.81V293.363h20.695V280.65H193.81V203.633H175.945l-52,77.017H105.194V203.633H87.328l-53.242,78.86v10.87H91.042v28.369H18.425V18.425H321.732Z"/>
      </g>
    </g>
</svg>
