<svg xmlns="http://www.w3.org/2000/svg" width="120mm" height="120mm" viewBox="0 0 340.158 340.158">
  <g id="Zimmernummer">
      <g id="Z-04-127-E">
        <path fill="#A09f9d" stroke="none" d="M337.323,0H2.835A2.836,2.836,0,0,0,0,2.835V337.323a2.836,2.836,0,0,0,2.835,2.835H337.323a2.836,2.836,0,0,0,2.835-2.835V2.835A2.836,2.836,0,0,0,337.323,0ZM321.732,321.732h-73.75a171.644,171.644,0,0,1,4.2-35.554,139.2,139.2,0,0,1,13.531-35.469,173.3,173.3,0,0,1,23.967-33.256v-13.82H203.716v13.82H274.3a164.471,164.471,0,0,0-21.234,30.033,156.082,156.082,0,0,0-14.77,37.679,165.573,165.573,0,0,0-4.812,36.567h-35.96V311.42H156.665q-1.771,0-5.219.093t-6.9.184q-3.449.094-5.4.276v-.183q20.87-14.555,33.077-26.533t17.511-22.939a50.856,50.856,0,0,0,5.307-22.387,42.142,42.142,0,0,0-2.742-15.477,34.4,34.4,0,0,0-7.871-12.069,35.388,35.388,0,0,0-12.293-7.83,44.68,44.68,0,0,0-16.185-2.764q-11.853,0-20.43,4.606a35.527,35.527,0,0,0-13.62,12.714,48.782,48.782,0,0,0-6.633,18.794l12.382,7.738q1.235-13.633,8.49-21.834t19.28-8.2q11.5,0,18.131,6.725t6.633,17.6a41.277,41.277,0,0,1-3.007,15.569A58.861,58.861,0,0,1,167.1,271.254a175.935,175.935,0,0,1-18.838,18.425q-11.766,10.135-29.274,23.584v8.469H96.7v-118.1H84.32a36.706,36.706,0,0,1-7.075,7.186,88.574,88.574,0,0,1-9.994,6.91,90.766,90.766,0,0,1-10.259,5.343,29.748,29.748,0,0,1-8.049,2.487l3.715,13.451a66,66,0,0,0,30.247-17.135q-.178,3.869-.265,7.461t-.089,6.726v85.67H18.425V18.425H321.732Z"/>
      </g>
    </g>
</svg>
