<svg xmlns="http://www.w3.org/2000/svg" width="120mm" height="120mm" viewBox="0 0 340.158 340.157">
  <g id="Zimmernummer">
      <g id="Z-04-520-M">
        <path fill="#D4AF37" stroke="none" d="M337.323,0H2.835A2.836,2.836,0,0,0,0,2.835V337.323a2.834,2.834,0,0,0,2.835,2.834H337.323a2.834,2.834,0,0,0,2.835-2.834V2.835A2.836,2.836,0,0,0,337.323,0ZM233.252,291.521q-3.276-11.055-3.273-27.084t3.273-27.086q3.271-11.055,9.728-16.674a25.109,25.109,0,0,1,31.663,0q6.453,5.622,9.728,16.674t3.273,27.086q0,16.029-3.273,27.084T274.643,308.2a25.112,25.112,0,0,1-31.663,0Q236.523,302.577,233.252,291.521Zm88.48,30.211h-42.6a39.84,39.84,0,0,0,11.427-10.68q11.76-16.031,11.762-46.615T290.562,217.82q-11.764-16.029-31.75-16.03-19.812,0-31.663,16.03T215.3,264.437q0,30.585,11.85,46.615a40.326,40.326,0,0,0,11.453,10.68H204.688V311.42H163.827q-1.77,0-5.218.093t-6.9.183q-3.45.1-5.4.277v-.184q20.87-14.553,33.077-26.532t17.511-22.94a50.849,50.849,0,0,0,5.307-22.386,42.144,42.144,0,0,0-2.742-15.478,34.392,34.392,0,0,0-7.871-12.068,35.373,35.373,0,0,0-12.293-7.83,44.683,44.683,0,0,0-16.185-2.765q-11.852,0-20.43,4.606a35.534,35.534,0,0,0-13.62,12.714,48.77,48.77,0,0,0-6.632,18.794l12.38,7.739q1.237-13.633,8.492-21.834t19.279-8.2q11.5,0,18.131,6.726t6.633,17.6a41.281,41.281,0,0,1-3.007,15.569,58.837,58.837,0,0,1-10.082,15.754,176.031,176.031,0,0,1-18.838,18.425q-11.766,10.135-29.275,23.584v8.469H95.437A35.2,35.2,0,0,0,111.3,303.5a45.5,45.5,0,0,0,3.007-16.951,44.133,44.133,0,0,0-4.6-20.636A33.627,33.627,0,0,0,96.88,252.184,37.252,37.252,0,0,0,77.512,247.3a41.055,41.055,0,0,0-15.831,2.763A30.472,30.472,0,0,0,50.8,257.435h-.355l.355-1.659,4.6-38.324H109V203.633H43.373l-6.9,66.884,12.381,2.395a24.1,24.1,0,0,1,6.722-6.817,27.7,27.7,0,0,1,8.756-3.778,44,44,0,0,1,10.524-1.2A28.118,28.118,0,0,1,88.3,264.067a19.719,19.719,0,0,1,8.4,8.752q2.919,5.8,2.919,14.464a28.51,28.51,0,0,1-3.184,13.911,22.039,22.039,0,0,1-8.932,8.937,28.637,28.637,0,0,1-13.886,3.132q-11.5,0-17.423-5.989a36.205,36.205,0,0,1-8.756-15.569l-13.8,7.555q5.127,13.085,14.592,20.452a30.428,30.428,0,0,0,2.951,2.02H18.425V18.425H321.732Z"/>
      </g>
    </g>
</svg>
