<svg xmlns="http://www.w3.org/2000/svg" width="120mm" height="120mm" viewBox="0 0 340.158 340.157">
  <g id="Zimmernummer">
      <g id="Z-04-010-E">
        <path fill="#A09f9d" stroke="none" d="M339.327.831a2.833,2.833,0,0,0-2-.831H2.835A2.836,2.836,0,0,0,0,2.835V337.323a2.834,2.834,0,0,0,2.835,2.834H337.323a2.836,2.836,0,0,0,2.835-2.834V2.835A2.831,2.831,0,0,0,339.327.831ZM228.7,291.4q-3.411-11.055-3.408-27.086t3.408-27.085q3.408-11.055,10.135-16.674a27,27,0,0,1,32.981,0q6.723,5.622,10.133,16.674t3.409,27.085q0,16.031-3.409,27.086t-10.133,16.675a27.007,27.007,0,0,1-32.981,0Q232.109,302.46,228.7,291.4Zm93.029,30.328H276.3a40.812,40.812,0,0,0,12.1-10.8q12.252-16.029,12.253-46.616T288.4,217.7q-12.255-16.031-33.073-16.03-20.637,0-32.981,16.03T210,264.318q0,30.588,12.345,46.616a41.29,41.29,0,0,0,12.123,10.8h-40.5V203.516h-12.9a37.452,37.452,0,0,1-7.37,7.185,92.373,92.373,0,0,1-10.41,6.91,96.034,96.034,0,0,1-10.686,5.343,31.95,31.95,0,0,1-8.384,2.487l3.87,13.451a67.507,67.507,0,0,0,16.951-6.541A66.182,66.182,0,0,0,179.6,221.756q-.184,3.87-.276,7.463t-.092,6.725v85.788H18.425V18.425H321.732Z"/>
      </g>
    </g>
</svg>
