<svg xmlns="http://www.w3.org/2000/svg" width="120mm" height="120mm" viewBox="0 0 340.158 340.158">
  <g id="Zimmernummer">
      <g id="Z-04-212">
        <path fill="#000000" stroke="none" d="M337.323,0H2.835A2.836,2.836,0,0,0,0,2.835V337.323a2.836,2.836,0,0,0,2.835,2.835H337.323a2.836,2.836,0,0,0,2.835-2.835V2.835A2.836,2.836,0,0,0,337.323,0ZM321.732,321.732H285.438V311.42H244.579q-1.772,0-5.219.093t-6.9.184q-3.448.094-5.395.276v-.183q20.869-14.555,33.077-26.533t17.511-22.939a50.856,50.856,0,0,0,5.307-22.387,42.142,42.142,0,0,0-2.742-15.477,34.4,34.4,0,0,0-7.871-12.069,35.388,35.388,0,0,0-12.293-7.83,44.68,44.68,0,0,0-16.185-2.764q-11.853,0-20.43,4.606a35.527,35.527,0,0,0-13.62,12.714,48.8,48.8,0,0,0-6.633,18.794l12.382,7.738q1.236-13.633,8.49-21.834t19.28-8.2q11.5,0,18.131,6.725t6.633,17.6A41.277,41.277,0,0,1,265.1,255.5a58.861,58.861,0,0,1-10.082,15.754,175.935,175.935,0,0,1-18.838,18.425q-11.766,10.135-29.275,23.584v8.469H184.616v-118.1H172.234a36.706,36.706,0,0,1-7.075,7.186,88.664,88.664,0,0,1-9.994,6.91,90.766,90.766,0,0,1-10.259,5.343,29.748,29.748,0,0,1-8.049,2.487l3.715,13.451a66,66,0,0,0,30.247-17.135q-.179,3.869-.265,7.461t-.089,6.726v85.67H131.021V311.42H90.162q-1.77,0-5.218.093t-6.9.184q-3.449.094-5.394.276v-.183q20.868-14.555,33.077-26.533t17.511-22.939a50.869,50.869,0,0,0,5.306-22.387,42.163,42.163,0,0,0-2.741-15.477,34.424,34.424,0,0,0-7.871-12.069,35.392,35.392,0,0,0-12.294-7.83,44.678,44.678,0,0,0-16.184-2.764q-11.853,0-20.431,4.606a35.531,35.531,0,0,0-13.619,12.714,48.8,48.8,0,0,0-6.634,18.794l12.382,7.738q1.236-13.633,8.491-21.834t19.28-8.2q11.5,0,18.13,6.725t6.634,17.6A41.278,41.278,0,0,1,110.68,255.5,58.812,58.812,0,0,1,100.6,271.254,175.935,175.935,0,0,1,81.76,289.679Q70,299.814,52.486,313.263v8.469H18.425V18.425H321.732Z"/>
      </g>
    </g>
</svg>
