<svg xmlns="http://www.w3.org/2000/svg" width="120mm" height="120mm" viewBox="0 0 340.158 340.158">
  <g id="Zimmernummer">
      <g id="Z-04-107-R">
        <path fill="#A0552B" stroke="none" d="M337.323,0H2.835A2.836,2.836,0,0,0,0,2.835V337.323a2.836,2.836,0,0,0,2.835,2.835H337.323a2.836,2.836,0,0,0,2.835-2.835V2.835A2.836,2.836,0,0,0,337.323,0ZM131.9,291.522q-3.274-11.055-3.272-27.085t3.272-27.086q3.272-11.053,9.729-16.674a25.107,25.107,0,0,1,31.662,0q6.454,5.622,9.728,16.674t3.273,27.086q0,16.031-3.273,27.085T173.293,308.2a25.111,25.111,0,0,1-31.662,0Q135.172,302.578,131.9,291.522Zm189.83,30.21H247.893a171.576,171.576,0,0,1,4.2-35.554,139.2,139.2,0,0,1,13.531-35.469,173.264,173.264,0,0,1,23.968-33.256v-13.82H203.627v13.82h70.584a164.52,164.52,0,0,0-21.234,30.033,156.078,156.078,0,0,0-14.769,37.679,165.454,165.454,0,0,0-4.812,36.567h-55.61a39.823,39.823,0,0,0,11.426-10.68q11.762-16.029,11.763-46.615t-11.763-46.616q-11.764-16.031-31.75-16.03-19.812,0-31.662,16.03t-11.851,46.616q0,30.586,11.851,46.615a40.305,40.305,0,0,0,11.451,10.68H96.792v-118.1H84.41a36.714,36.714,0,0,1-7.076,7.186,88.47,88.47,0,0,1-9.993,6.91,90.766,90.766,0,0,1-10.259,5.343,29.748,29.748,0,0,1-8.049,2.487l3.715,13.451A66,66,0,0,0,83,221.875q-.178,3.869-.266,7.461t-.088,6.726v85.67H18.426V18.425H321.732Z"/>
      </g>
    </g>
</svg>
