<svg xmlns="http://www.w3.org/2000/svg" width="120mm" height="120mm" viewBox="0 0 340.158 340.157">
  <g id="Zimmernummer">
      <g id="Z-04-145-M">
        <path fill="#D4AF37" stroke="none" d="M337.323,0H2.835A2.836,2.836,0,0,0,0,2.835V337.323a2.834,2.834,0,0,0,2.835,2.834H337.323a2.834,2.834,0,0,0,2.835-2.834V2.835A2.836,2.836,0,0,0,337.323,0ZM161.888,280.65H119.967l30.6-44.773q2.827-4.236,6.191-9.949t5.483-10.319h.354q-.179,4.794-.442,9.766t-.265,9.765Zm159.844,41.082H269.314A35.2,35.2,0,0,0,285.173,303.5a45.5,45.5,0,0,0,3.007-16.951,44.145,44.145,0,0,0-4.6-20.636,33.627,33.627,0,0,0-12.824-13.726,37.247,37.247,0,0,0-19.368-4.883,41.051,41.051,0,0,0-15.831,2.763,30.476,30.476,0,0,0-10.879,7.371h-.353l.353-1.659,4.6-38.324h53.6V203.633H217.25l-6.9,66.884,12.382,2.395a24.094,24.094,0,0,1,6.721-6.817,27.693,27.693,0,0,1,8.756-3.778,44,44,0,0,1,10.524-1.2,28.111,28.111,0,0,1,13.443,2.948,19.721,19.721,0,0,1,8.4,8.752q2.919,5.8,2.919,14.464a28.51,28.51,0,0,1-3.184,13.911,22.036,22.036,0,0,1-8.933,8.937,28.633,28.633,0,0,1-13.885,3.132q-11.5,0-17.423-5.989a36.2,36.2,0,0,1-8.755-15.569l-13.8,7.555q5.129,13.085,14.593,20.452a30.414,30.414,0,0,0,2.95,2.02H176.038V293.363h20.695V280.65H176.038V203.633H158.173l-53.241,78.86v10.87h56.956v28.369H87.951v-118.1H75.569a36.675,36.675,0,0,1-7.075,7.185,88.71,88.71,0,0,1-9.994,6.911,90.58,90.58,0,0,1-10.259,5.342,29.787,29.787,0,0,1-8.048,2.488l3.715,13.451a63.322,63.322,0,0,0,16.273-6.541,63.723,63.723,0,0,0,13.973-10.595q-.177,3.869-.265,7.462t-.088,6.726v85.67H18.425V18.425H321.732Z"/>
      </g>
    </g>
</svg>
