<svg xmlns="http://www.w3.org/2000/svg" width="120mm" height="120mm" viewBox="0 0 340.158 340.158">
  <g id="Zimmernummer">
      <g id="Z-04-344-E">
        <path fill="#A09f9d" stroke="none" d="M337.323,0H2.835A2.836,2.836,0,0,0,0,2.835V337.323a2.836,2.836,0,0,0,2.835,2.835H337.323a2.836,2.836,0,0,0,2.835-2.835V2.835A2.836,2.836,0,0,0,337.323,0ZM183.46,280.65H141.539l30.6-44.773q2.828-4.236,6.19-9.949t5.484-10.319h.354q-.178,4.794-.442,9.766t-.266,9.765Zm34.846,12.713h49.349v28.369H197.611V293.363h20.7Zm49.614-67.988q-.264,4.974-.265,9.765v45.51H225.734l30.6-44.773q2.827-4.236,6.192-9.949t5.482-10.319h.355Q268.185,220.4,267.92,225.375Zm53.812,96.357H281.805V293.363H302.5V280.65H281.805V203.633H263.941l-52,77.017H197.611V203.633H179.745L126.5,282.493v10.87H183.46v28.369H98.835a34.763,34.763,0,0,0,12.9-12.338,35.8,35.8,0,0,0,5.041-18.978,29.083,29.083,0,0,0-1.681-9.857,26.252,26.252,0,0,0-4.864-8.384,24.045,24.045,0,0,0-7.7-5.9,25.067,25.067,0,0,0-10.347-2.394v-.369a23.865,23.865,0,0,0,8.313-3.04,25.79,25.79,0,0,0,6.987-6.172,29.6,29.6,0,0,0,4.864-9.121,37.16,37.16,0,0,0,1.769-11.884,32.158,32.158,0,0,0-3.98-15.846A29.125,29.125,0,0,0,98.2,205.937q-7.959-4.328-20.164-4.331a46.215,46.215,0,0,0-17.776,3.317,39.682,39.682,0,0,0-13.709,9.213,38.589,38.589,0,0,0-8.49,13.634L51.508,234.4a34.077,34.077,0,0,1,9.2-13.726q5.838-5.067,16.982-5.068,10.434,0,16.1,4.975t5.66,14.556q0,11.241-5.484,16.491t-18.4,5.251H72.823a26.653,26.653,0,0,1-3.1-.185v14.741a44.862,44.862,0,0,1,4.775-.46q2.3-.092,4.245-.093,8.313,0,13.444,2.119a14.468,14.468,0,0,1,7.517,6.541A23.065,23.065,0,0,1,102.1,290.6a23.609,23.609,0,0,1-2.83,11.7,20.458,20.458,0,0,1-8.137,8.014,26.615,26.615,0,0,1-13.089,2.949q-9.2,0-15.3-2.764a24.36,24.36,0,0,1-9.817-7.831,40.046,40.046,0,0,1-5.837-11.884l-14.151,7.555a37.879,37.879,0,0,0,16.185,21.1c1.306.836,2.648,1.6,4.019,2.3H18.425V18.425H321.732Z"/>
      </g>
    </g>
</svg>
