<svg xmlns="http://www.w3.org/2000/svg" width="120mm" height="120mm" viewBox="0 0 340.158 340.157">
  <g id="Zimmernummer">
      <g id="Z-04-230-R">
        <path fill="#A0552B" stroke="none" d="M337.323,0H2.835A2.836,2.836,0,0,0,0,2.835V337.323a2.834,2.834,0,0,0,2.835,2.834H337.323a2.834,2.834,0,0,0,2.835-2.834V2.835A2.836,2.836,0,0,0,337.323,0ZM231.577,291.521q-3.274-11.055-3.272-27.084t3.272-27.086q3.272-11.055,9.729-16.674a25.107,25.107,0,0,1,31.662,0q6.454,5.622,9.728,16.674t3.273,27.086q0,16.029-3.273,27.084T272.968,308.2a25.111,25.111,0,0,1-31.662,0Q234.847,302.577,231.577,291.521Zm90.155,30.211H277.46a39.84,39.84,0,0,0,11.427-10.68q11.762-16.031,11.763-46.615T288.887,217.82q-11.766-16.029-31.751-16.03-19.812,0-31.661,16.03t-11.851,46.617q0,30.585,11.851,46.615a40.3,40.3,0,0,0,11.452,10.68h-48.5a34.76,34.76,0,0,0,12.9-12.338,35.8,35.8,0,0,0,5.041-18.978,29.082,29.082,0,0,0-1.68-9.857,26.236,26.236,0,0,0-4.865-8.384,24.03,24.03,0,0,0-7.694-5.9,25.076,25.076,0,0,0-10.348-2.394v-.369a23.863,23.863,0,0,0,8.314-3.04,25.805,25.805,0,0,0,6.987-6.172,29.62,29.62,0,0,0,4.864-9.121,37.189,37.189,0,0,0,1.768-11.884,32.157,32.157,0,0,0-3.979-15.846,29.125,29.125,0,0,0-11.94-11.515q-7.959-4.328-20.164-4.331a46.22,46.22,0,0,0-17.777,3.317,39.678,39.678,0,0,0-13.708,9.213,38.578,38.578,0,0,0-8.491,13.634L141.1,234.4a34.07,34.07,0,0,1,9.2-13.726q5.837-5.067,16.98-5.068,10.435,0,16.1,4.975t5.66,14.556q0,11.241-5.483,16.491t-18.4,5.251h-2.741a26.636,26.636,0,0,1-3.095-.185v14.741a44.837,44.837,0,0,1,4.775-.46q2.3-.092,4.245-.093,8.313,0,13.443,2.119a14.474,14.474,0,0,1,7.518,6.541,23.065,23.065,0,0,1,2.388,11.055,23.619,23.619,0,0,1-2.83,11.7,20.464,20.464,0,0,1-8.137,8.014,26.621,26.621,0,0,1-13.089,2.949q-9.2,0-15.3-2.764a24.367,24.367,0,0,1-9.817-7.831,40.046,40.046,0,0,1-5.837-11.884l-14.15,7.555a37.875,37.875,0,0,0,16.185,21.1c1.3.836,2.647,1.6,4.018,2.3H115.811V311.42H74.951q-1.77,0-5.218.093t-6.9.183q-3.449.1-5.394.277v-.184q20.868-14.553,33.076-26.532t17.512-22.94a50.848,50.848,0,0,0,5.306-22.386,42.164,42.164,0,0,0-2.741-15.478,34.408,34.408,0,0,0-7.872-12.068,35.364,35.364,0,0,0-12.293-7.83,44.679,44.679,0,0,0-16.185-2.765q-11.851,0-20.429,4.606a35.527,35.527,0,0,0-13.62,12.714A48.788,48.788,0,0,0,33.561,237.9l12.381,7.739q1.236-13.633,8.491-21.834t19.28-8.2q11.5,0,18.13,6.726t6.633,17.6A41.281,41.281,0,0,1,95.469,255.5a58.812,58.812,0,0,1-10.082,15.754,176.031,176.031,0,0,1-18.838,18.425q-11.766,10.135-29.274,23.584v8.469H18.425V18.425H321.732Z"/>
      </g>
    </g>
</svg>
