<svg xmlns="http://www.w3.org/2000/svg" width="120mm" height="120mm" viewBox="0 0 340.158 340.157">
  <g id="Zimmernummer">
      <g id="Z-04-203-M">
        <path fill="#D4AF37" stroke="none" d="M337.323,0H2.835A2.836,2.836,0,0,0,0,2.835V337.323a2.834,2.834,0,0,0,2.835,2.834H337.323a2.834,2.834,0,0,0,2.835-2.834V2.835A2.836,2.836,0,0,0,337.323,0ZM140.838,291.521q-3.276-11.055-3.273-27.085t3.273-27.086q3.27-11.054,9.728-16.674a25.107,25.107,0,0,1,31.662,0q6.454,5.622,9.728,16.674t3.273,27.086q0,16.031-3.273,27.085T182.228,308.2a25.111,25.111,0,0,1-31.662,0Q144.107,302.577,140.838,291.521Zm180.894,30.211H278.991a34.753,34.753,0,0,0,12.9-12.339,35.789,35.789,0,0,0,5.041-18.977,29.088,29.088,0,0,0-1.68-9.858,26.274,26.274,0,0,0-4.865-8.384,24.024,24.024,0,0,0-7.694-5.9,25.056,25.056,0,0,0-10.348-2.4v-.369a23.858,23.858,0,0,0,8.314-3.04,25.77,25.77,0,0,0,6.986-6.172,29.578,29.578,0,0,0,4.864-9.121,37.16,37.16,0,0,0,1.769-11.884,32.156,32.156,0,0,0-3.979-15.845,29.139,29.139,0,0,0-11.94-11.516q-7.961-4.328-20.164-4.33a46.22,46.22,0,0,0-17.777,3.316,39.683,39.683,0,0,0-13.708,9.213,38.6,38.6,0,0,0-8.491,13.634l13.443,6.634a34.076,34.076,0,0,1,9.2-13.727q5.838-5.067,16.981-5.067,10.435,0,16.1,4.974t5.66,14.556q0,11.241-5.483,16.491t-18.4,5.251H252.98a26.66,26.66,0,0,1-3.1-.184v14.74a45.408,45.408,0,0,1,4.776-.46q2.3-.09,4.245-.093,8.313,0,13.443,2.119a14.472,14.472,0,0,1,7.517,6.541,23.056,23.056,0,0,1,2.389,11.055,23.617,23.617,0,0,1-2.83,11.7,20.473,20.473,0,0,1-8.137,8.015,26.621,26.621,0,0,1-13.089,2.948q-9.2,0-15.3-2.763a24.369,24.369,0,0,1-9.817-7.832,40.028,40.028,0,0,1-5.837-11.883l-14.15,7.554a37.875,37.875,0,0,0,16.185,21.1c1.306.837,2.648,1.6,4.019,2.3H186.719a39.821,39.821,0,0,0,11.428-10.681q11.762-16.029,11.763-46.615T198.147,217.82q-11.766-16.03-31.75-16.03-19.812,0-31.662,16.03t-11.851,46.616q0,30.587,11.851,46.615a40.3,40.3,0,0,0,11.453,10.681h-26.84V311.419H78.488q-1.77,0-5.218.093t-6.9.184q-3.45.094-5.4.276v-.183q20.868-14.554,33.076-26.533t17.512-22.939a50.869,50.869,0,0,0,5.306-22.387,42.142,42.142,0,0,0-2.741-15.477,34.424,34.424,0,0,0-7.871-12.069,35.392,35.392,0,0,0-12.294-7.83,44.674,44.674,0,0,0-16.184-2.764q-11.853,0-20.431,4.606A35.531,35.531,0,0,0,43.731,219.11,48.8,48.8,0,0,0,37.1,237.9l12.382,7.738q1.236-13.633,8.49-21.834t19.281-8.2q11.5,0,18.13,6.725t6.633,17.6a41.286,41.286,0,0,1-3.007,15.57,58.824,58.824,0,0,1-10.082,15.753,175.935,175.935,0,0,1-18.838,18.425Q58.32,299.814,40.812,313.262v8.47H18.425V18.425H321.732Z"/>
      </g>
    </g>
</svg>
