<svg xmlns="http://www.w3.org/2000/svg" width="120mm" height="120mm" viewBox="0 0 340.158 340.158">
  <g id="Zimmernummer">
      <g id="Z-04-524">
        <path fill="#000000" stroke="none" d="M337.323,0H2.835A2.836,2.836,0,0,0,0,2.835V337.323a2.836,2.836,0,0,0,2.835,2.835H337.323a2.836,2.836,0,0,0,2.835-2.835V2.835A2.836,2.836,0,0,0,337.323,0ZM262.438,280.65H220.517l30.6-44.773q2.828-4.236,6.192-9.949t5.483-10.319h.354q-.18,4.794-.443,9.766t-.265,9.765Zm59.294,41.082H276.589V293.363h20.694V280.65H276.589V203.633H258.724l-53.242,78.86v10.87h56.956v28.369H208.313V311.42h-40.86q-1.77,0-5.218.093t-6.9.183q-3.448.1-5.395.277v-.184q20.869-14.553,33.078-26.532t17.51-22.94a50.849,50.849,0,0,0,5.307-22.386,42.164,42.164,0,0,0-2.741-15.478,34.408,34.408,0,0,0-7.872-12.068,35.364,35.364,0,0,0-12.293-7.83,44.679,44.679,0,0,0-16.185-2.765q-11.852,0-20.43,4.606A35.541,35.541,0,0,0,132.7,219.11a48.821,48.821,0,0,0-6.633,18.794l12.382,7.739q1.236-13.633,8.491-21.834t19.28-8.2q11.5,0,18.13,6.726t6.633,17.6a41.281,41.281,0,0,1-3.007,15.569,58.837,58.837,0,0,1-10.082,15.754,176.031,176.031,0,0,1-18.838,18.425q-11.766,10.135-29.275,23.584v8.469H103.485a35.206,35.206,0,0,0,15.86-18.235,45.519,45.519,0,0,0,3.007-16.951,44.145,44.145,0,0,0-4.6-20.636,33.624,33.624,0,0,0-12.823-13.726A37.253,37.253,0,0,0,85.56,247.3a41.055,41.055,0,0,0-15.831,2.763,30.472,30.472,0,0,0-10.878,7.371H58.5l.354-1.659,4.6-38.324h53.6V203.633H51.422l-6.9,66.884,12.382,2.395a24.084,24.084,0,0,1,6.722-6.817,27.7,27.7,0,0,1,8.755-3.778,44,44,0,0,1,10.524-1.2,28.118,28.118,0,0,1,13.444,2.948,19.721,19.721,0,0,1,8.4,8.752q2.918,5.8,2.918,14.464a28.521,28.521,0,0,1-3.184,13.911,22.033,22.033,0,0,1-8.932,8.937,28.635,28.635,0,0,1-13.886,3.132q-11.5,0-17.422-5.989a36.2,36.2,0,0,1-8.756-15.569l-13.8,7.555q5.129,13.085,14.593,20.452a30.306,30.306,0,0,0,2.951,2.02H18.425V18.425H321.732Z"/>
      </g>
    </g>
</svg>
