<svg xmlns="http://www.w3.org/2000/svg" width="120mm" height="120mm" viewBox="0 0 340.158 340.158">
  <g id="Zimmernummer">
      <g id="Z-04-029-E">
        <path fill="#A09f9d" stroke="none" d="M339.327.831a2.833,2.833,0,0,0-2-.831H2.835A2.836,2.836,0,0,0,0,2.835V337.323a2.836,2.836,0,0,0,2.835,2.835H337.323a2.837,2.837,0,0,0,2.835-2.835V2.835A2.831,2.831,0,0,0,339.327.831Zm-17.595,320.9H276.355a36.687,36.687,0,0,0,3.2-1.954q10.407-7.185,15.753-21.1t5.344-34.364q0-18.421-5.344-32.52t-15.845-22.11q-10.5-8.014-25.8-8.015-13.084,0-22.478,5.067a34.79,34.79,0,0,0-14.372,14.187q-4.976,9.122-4.975,21.65,0,11.607,5.159,20.083a35.06,35.06,0,0,0,14.372,13.174,45.987,45.987,0,0,0,21.189,4.7,44.852,44.852,0,0,0,13.727-2.211,33.194,33.194,0,0,0,12.437-7.278,27.087,27.087,0,0,0,7.738-13.358h.737v1.658a143.108,143.108,0,0,1-1.566,22.11,55.671,55.671,0,0,1-5.251,17.043,26.5,26.5,0,0,1-10.042,10.871q-6.357,3.78-15.938,3.778-11.793,0-18.517-5.9a32.876,32.876,0,0,1-9.673-15.477l-14.556,7.739q5.341,13.452,16.214,20.452c.988.636,2.006,1.22,3.046,1.769H205.4V311.3H162.836q-1.845,0-5.436.092t-7.185.184q-3.594.1-5.621.276v-.184q21.739-14.551,34.456-26.532T197.291,262.2a49.2,49.2,0,0,0,5.527-22.387,40.666,40.666,0,0,0-2.855-15.477,34.311,34.311,0,0,0-8.2-12.068,37.089,37.089,0,0,0-12.805-7.831,48.286,48.286,0,0,0-16.86-2.764q-12.345,0-21.28,4.606a36.446,36.446,0,0,0-14.188,12.714,47.549,47.549,0,0,0-6.91,18.793l12.9,7.739q1.287-13.632,8.845-21.834t20.083-8.2q11.975,0,18.886,6.725t6.909,17.6a39.85,39.85,0,0,1-3.132,15.57,58.565,58.565,0,0,1-10.5,15.753,180.07,180.07,0,0,1-19.622,18.426Q141.828,299.7,123.59,313.146v8.586H18.425V18.425H321.732Zm-41.345-80.445a25.083,25.083,0,0,1-3.316,12.99,23.47,23.47,0,0,1-9.306,8.844,28.894,28.894,0,0,1-13.91,3.225q-12.162,0-19.347-6.357t-7.185-17.228q0-12.713,6.816-19.807t19.716-7.094a29.6,29.6,0,0,1,13.91,3.133,22.71,22.71,0,0,1,9.306,8.844A26.327,26.327,0,0,1,280.387,241.287Z"/>
      </g>
    </g>
</svg>
