<svg xmlns="http://www.w3.org/2000/svg" width="120mm" height="120mm" viewBox="0 0 340.158 340.157">
  <g id="Zimmernummer">
      <g id="Z-04-528-R">
        <path fill="#A0552B" stroke="none" d="M337.323,0H2.835A2.836,2.836,0,0,0,0,2.835V337.323a2.834,2.834,0,0,0,2.835,2.834H337.323a2.834,2.834,0,0,0,2.835-2.834V2.835A2.836,2.836,0,0,0,337.323,0ZM245.987,271.161a41.429,41.429,0,0,1,29.275,0A21.772,21.772,0,0,1,284.9,278.9a22.763,22.763,0,0,1,.089,23.953,21.151,21.151,0,0,1-9.552,7.738,42.4,42.4,0,0,1-29.627,0,21.772,21.772,0,0,1-9.552-31.691A21.706,21.706,0,0,1,245.987,271.161Zm-7.871-35.836q0-9.211,6.1-14.371t16.361-5.161q10.435,0,16.45,5.161t6.014,14.371q0,9.029-6.19,14.187T260.58,254.67q-10.083,0-16.273-5.158T238.116,235.325Zm83.616,86.407h-36.48a33.783,33.783,0,0,0,12.474-10.864,31.785,31.785,0,0,0,5.306-18.426q0-11.423-5.926-19.346A35.347,35.347,0,0,0,281.275,261.3v-.183a27.771,27.771,0,0,0,12.117-10.78,30.993,30.993,0,0,0,4.334-16.49,30.667,30.667,0,0,0-4.6-17.043,30.139,30.139,0,0,0-12.913-10.963,51.527,51.527,0,0,0-39.179,0,30.024,30.024,0,0,0-13,10.963q-4.6,7.1-4.6,17.043a30.408,30.408,0,0,0,4.51,16.676,27.894,27.894,0,0,0,12.117,10.594v.183a34.29,34.29,0,0,0-16.1,11.885q-5.838,8.016-5.837,19.254a31.777,31.777,0,0,0,5.306,18.426,33.629,33.629,0,0,0,12.54,10.864H206.986V311.42H166.127q-1.772,0-5.219.092t-6.9.184q-3.448.1-5.395.277v-.183q20.869-14.556,33.077-26.534T199.2,262.317a50.856,50.856,0,0,0,5.307-22.387,42.157,42.157,0,0,0-2.741-15.476,34.431,34.431,0,0,0-7.872-12.069,35.379,35.379,0,0,0-12.293-7.83,44.658,44.658,0,0,0-16.185-2.765q-11.852,0-20.43,4.607a35.531,35.531,0,0,0-13.62,12.713,48.819,48.819,0,0,0-6.633,18.795l12.382,7.738q1.235-13.635,8.49-21.834t19.281-8.2q11.5,0,18.13,6.724t6.633,17.6a41.3,41.3,0,0,1-3.007,15.57,58.833,58.833,0,0,1-10.083,15.754,175.916,175.916,0,0,1-18.837,18.424q-11.766,10.137-29.274,23.584v8.47H94.2a35.206,35.206,0,0,0,15.86-18.235,45.5,45.5,0,0,0,3.006-16.952,44.134,44.134,0,0,0-4.6-20.634,33.643,33.643,0,0,0-12.824-13.727A37.253,37.253,0,0,0,76.273,247.3a41.02,41.02,0,0,0-15.831,2.764,30.5,30.5,0,0,0-10.878,7.369H49.21l.354-1.658,4.6-38.324h53.6V203.633H42.135l-6.9,66.883,12.382,2.4a24.118,24.118,0,0,1,6.722-6.819,27.724,27.724,0,0,1,8.756-3.777,44,44,0,0,1,10.524-1.2,28.107,28.107,0,0,1,13.442,2.947,19.713,19.713,0,0,1,8.4,8.752q2.917,5.8,2.919,14.465a28.509,28.509,0,0,1-3.185,13.91,22.027,22.027,0,0,1-8.932,8.937,28.63,28.63,0,0,1-13.885,3.131q-11.5,0-17.423-5.988A36.207,36.207,0,0,1,46.2,291.706l-13.8,7.554Q37.535,312.345,47,319.711a30.508,30.508,0,0,0,2.952,2.021H18.425V18.425H321.732Z"/>
      </g>
    </g>
</svg>
