<svg xmlns="http://www.w3.org/2000/svg" width="120mm" height="120mm" viewBox="0 0 340.158 340.158">
  <g id="Zimmernummer">
      <g id="Z-04-327-R">
        <path fill="#A0552B" stroke="none" d="M337.323,0H2.835A2.836,2.836,0,0,0,0,2.835V337.323a2.836,2.836,0,0,0,2.835,2.835H337.323a2.836,2.836,0,0,0,2.835-2.835V2.835A2.836,2.836,0,0,0,337.323,0ZM321.732,321.732H261.517a171.712,171.712,0,0,1,4.2-35.554,139.2,139.2,0,0,1,13.531-35.469,173.257,173.257,0,0,1,23.967-33.256v-13.82H217.251v13.82h70.584A164.52,164.52,0,0,0,266.6,247.486a156.082,156.082,0,0,0-14.77,37.679,165.573,165.573,0,0,0-4.812,36.567H214.6V311.42h-40.86q-1.77,0-5.218.093t-6.9.184q-3.45.094-5.395.276v-.183q20.869-14.555,33.077-26.533t17.511-22.939a50.855,50.855,0,0,0,5.306-22.387,42.142,42.142,0,0,0-2.741-15.477,34.41,34.41,0,0,0-7.871-12.069,35.392,35.392,0,0,0-12.294-7.83,44.676,44.676,0,0,0-16.185-2.764q-11.852,0-20.429,4.606a35.527,35.527,0,0,0-13.62,12.714,48.782,48.782,0,0,0-6.633,18.794l12.381,7.738q1.236-13.633,8.491-21.834t19.28-8.2q11.5,0,18.13,6.725t6.634,17.6a41.3,41.3,0,0,1-3.007,15.569,58.818,58.818,0,0,1-10.083,15.754,175.935,175.935,0,0,1-18.838,18.425q-11.764,10.135-29.274,23.584v8.469H105.741a34.76,34.76,0,0,0,12.9-12.338,35.8,35.8,0,0,0,5.041-18.977A29.064,29.064,0,0,0,122,280.559a26.234,26.234,0,0,0-4.864-8.384,24.013,24.013,0,0,0-7.694-5.9A25.056,25.056,0,0,0,99.1,263.884v-.369a23.858,23.858,0,0,0,8.314-3.04A25.77,25.77,0,0,0,114.4,254.3a29.6,29.6,0,0,0,4.865-9.121A37.188,37.188,0,0,0,121.03,233.3a32.157,32.157,0,0,0-3.98-15.845,29.139,29.139,0,0,0-11.94-11.516q-7.959-4.328-20.164-4.33a46.224,46.224,0,0,0-17.777,3.316,39.692,39.692,0,0,0-13.708,9.213A38.61,38.61,0,0,0,44.97,227.77L58.414,234.4a34.064,34.064,0,0,1,9.2-13.727q5.838-5.067,16.981-5.067,10.434,0,16.1,4.974t5.661,14.556q0,11.241-5.484,16.491t-18.4,5.251H79.728a26.66,26.66,0,0,1-3.1-.184v14.74a45.408,45.408,0,0,1,4.776-.46q2.3-.092,4.245-.093,8.313,0,13.443,2.119a14.474,14.474,0,0,1,7.518,6.541A23.068,23.068,0,0,1,109,290.6a23.6,23.6,0,0,1-2.83,11.7,20.457,20.457,0,0,1-8.136,8.015,26.618,26.618,0,0,1-13.089,2.948q-9.2,0-15.3-2.763a24.356,24.356,0,0,1-9.817-7.832,40.005,40.005,0,0,1-5.838-11.883l-14.15,7.554a37.878,37.878,0,0,0,16.184,21.1c1.306.836,2.648,1.6,4.019,2.3H18.425V18.425H321.732Z"/>
      </g>
    </g>
</svg>
