<svg xmlns="http://www.w3.org/2000/svg" width="120mm" height="120mm" viewBox="0 0 340.158 340.158">
  <g id="Zimmernummer">
      <g id="Z-04-242">
        <path fill="#000000" stroke="none" d="M337.323,0H2.835A2.836,2.836,0,0,0,0,2.835V337.323a2.836,2.836,0,0,0,2.835,2.835H337.323a2.836,2.836,0,0,0,2.835-2.835V2.835A2.836,2.836,0,0,0,337.323,0ZM174.446,280.651H132.525l30.6-44.774q2.827-4.236,6.191-9.949T174.8,215.61h.353q-.177,4.792-.442,9.765t-.265,9.765Zm147.286,41.081h-21.17V311.42H259.7q-1.771,0-5.218.093t-6.9.184q-3.448.094-5.4.276v-.183q20.87-14.555,33.077-26.533t17.512-22.939a50.869,50.869,0,0,0,5.306-22.387,42.142,42.142,0,0,0-2.742-15.477,34.4,34.4,0,0,0-7.871-12.069,35.379,35.379,0,0,0-12.293-7.83,44.68,44.68,0,0,0-16.185-2.764q-11.853,0-20.43,4.606a35.527,35.527,0,0,0-13.62,12.714,48.781,48.781,0,0,0-6.632,18.794l12.381,7.738q1.236-13.633,8.491-21.834t19.279-8.2q11.5,0,18.131,6.725t6.633,17.6A41.277,41.277,0,0,1,280.22,255.5a58.837,58.837,0,0,1-10.082,15.754A175.935,175.935,0,0,1,251.3,289.679q-11.766,10.135-29.274,23.584v8.469H188.6V293.364h20.695V280.651H188.6V203.633H170.731L117.49,282.494v10.87h56.956v28.368H115.9V311.42H75.04q-1.772,0-5.218.093t-6.9.184q-3.448.094-5.4.276v-.183q20.87-14.555,33.077-26.533t17.512-22.939a50.869,50.869,0,0,0,5.306-22.387,42.142,42.142,0,0,0-2.742-15.477,34.4,34.4,0,0,0-7.871-12.069,35.388,35.388,0,0,0-12.293-7.83,44.68,44.68,0,0,0-16.185-2.764q-11.851,0-20.43,4.606a35.527,35.527,0,0,0-13.62,12.714,48.782,48.782,0,0,0-6.633,18.794l12.382,7.738q1.235-13.633,8.49-21.834t19.28-8.2q11.5,0,18.131,6.725t6.633,17.6A41.277,41.277,0,0,1,95.558,255.5a58.837,58.837,0,0,1-10.082,15.754,175.935,175.935,0,0,1-18.838,18.425q-11.766,10.135-29.274,23.584v8.469H18.425V18.425H321.732Z"/>
      </g>
    </g>
</svg>
