<svg xmlns="http://www.w3.org/2000/svg" width="120mm" height="120mm" viewBox="0 0 340.158 340.157">
  <g id="Zimmernummer">
      <g id="Z-04-240-E">
        <path fill="#A09f9d" stroke="none" d="M337.323,0H2.835A2.836,2.836,0,0,0,0,2.835V337.323a2.834,2.834,0,0,0,2.835,2.834H337.323a2.834,2.834,0,0,0,2.835-2.834V2.835A2.836,2.836,0,0,0,337.323,0ZM172.766,280.65H130.845l30.6-44.773q2.828-4.236,6.191-9.949t5.483-10.319h.354q-.178,4.794-.442,9.766t-.265,9.765Zm60.4,10.871q-3.275-11.055-3.272-27.084t3.272-27.086q3.271-11.055,9.729-16.674a25.107,25.107,0,0,1,31.662,0q6.454,5.622,9.728,16.674t3.273,27.086q0,16.029-3.273,27.084T274.56,308.2a25.111,25.111,0,0,1-31.662,0Q236.439,302.577,233.169,291.521Zm88.563,30.211h-42.68a39.84,39.84,0,0,0,11.427-10.68q11.762-16.031,11.763-46.615T290.479,217.82q-11.766-16.029-31.75-16.03-19.812,0-31.662,16.03t-11.851,46.617q0,30.585,11.851,46.615a40.31,40.31,0,0,0,11.452,10.68h-51.6V293.363h20.695V280.65H186.916V203.633H169.051l-53.241,78.86v10.87h56.956v28.369H114.219V311.42H73.359q-1.77,0-5.218.093t-6.9.183q-3.45.1-5.4.277v-.184q20.87-14.553,33.077-26.532t17.511-22.94a50.849,50.849,0,0,0,5.307-22.386A42.144,42.144,0,0,0,109,224.453a34.408,34.408,0,0,0-7.872-12.068,35.364,35.364,0,0,0-12.293-7.83,44.67,44.67,0,0,0-16.184-2.765q-11.853,0-20.43,4.606A35.534,35.534,0,0,0,38.6,219.11,48.788,48.788,0,0,0,31.969,237.9l12.382,7.739q1.234-13.633,8.49-21.834t19.28-8.2q11.5,0,18.13,6.726t6.633,17.6A41.281,41.281,0,0,1,93.877,255.5,58.812,58.812,0,0,1,83.8,271.254a176.01,176.01,0,0,1-18.837,18.425q-11.766,10.135-29.275,23.584v8.469H18.425V18.425H321.732Z"/>
      </g>
    </g>
</svg>
