<svg xmlns="http://www.w3.org/2000/svg" width="120mm" height="120mm" viewBox="0 0 340.158 340.157">
  <g id="Zimmernummer">
      <g id="Z-04-148">
        <path fill="#000000" stroke="none" d="M337.323,0H2.835A2.836,2.836,0,0,0,0,2.835V337.323a2.834,2.834,0,0,0,2.835,2.834H337.323a2.834,2.834,0,0,0,2.835-2.834V2.835A2.836,2.836,0,0,0,337.323,0ZM158.879,280.651H116.958l30.6-44.774q2.827-4.236,6.191-9.949t5.483-10.318h.354q-.178,4.792-.442,9.765t-.266,9.764Zm74.378-9.49a41.426,41.426,0,0,1,29.274,0,21.775,21.775,0,0,1,9.64,7.738,22.769,22.769,0,0,1,.089,23.953,21.151,21.151,0,0,1-9.552,7.738,42.4,42.4,0,0,1-29.628,0,21.772,21.772,0,0,1-9.551-31.691A21.7,21.7,0,0,1,233.257,271.161Zm-7.871-35.836q0-9.211,6.1-14.371t16.362-5.161q10.434,0,16.45,5.161t6.014,14.371q0,9.029-6.191,14.187T247.85,254.67q-10.083,0-16.273-5.158T225.386,235.325Zm96.346,86.407h-49.21A33.772,33.772,0,0,0,285,310.868a31.777,31.777,0,0,0,5.306-18.426q0-11.423-5.925-19.346A35.347,35.347,0,0,0,268.545,261.3v-.183a27.771,27.771,0,0,0,12.117-10.78A30.992,30.992,0,0,0,285,233.85a30.659,30.659,0,0,0-4.6-17.043,30.142,30.142,0,0,0-12.912-10.963,51.53,51.53,0,0,0-39.18,0,30.022,30.022,0,0,0-13,10.963q-4.6,7.1-4.6,17.043a30.408,30.408,0,0,0,4.51,16.676,27.894,27.894,0,0,0,12.117,10.594v.183a34.288,34.288,0,0,0-16.1,11.885Q205.4,281.2,205.4,292.442a31.778,31.778,0,0,0,5.307,18.426,33.629,33.629,0,0,0,12.54,10.864H173.03V293.364h20.695V280.651H173.03V203.633H155.165l-53.242,78.86v10.871h56.956v28.368H84.943v-118.1H72.562a36.741,36.741,0,0,1-7.076,7.186,88.574,88.574,0,0,1-9.994,6.91,90.58,90.58,0,0,1-10.259,5.342,29.751,29.751,0,0,1-8.048,2.488L40.9,239.01a63.293,63.293,0,0,0,16.273-6.541,63.737,63.737,0,0,0,13.974-10.595q-.178,3.87-.265,7.462t-.089,6.725v85.671H18.425V18.425H321.732Z"/>
      </g>
    </g>
</svg>
