<svg xmlns="http://www.w3.org/2000/svg" width="120mm" height="120mm" viewBox="0 0 340.158 340.157">
  <g id="Zimmernummer">
      <g id="Z-04-141-R">
        <path fill="#A0552B" stroke="none" d="M337.323,0H2.835A2.834,2.834,0,0,0,0,2.835V337.323a2.834,2.834,0,0,0,2.835,2.834H337.323a2.834,2.834,0,0,0,2.835-2.834V2.835A2.834,2.834,0,0,0,337.323,0ZM170.28,280.65H128.359l30.6-44.773q2.827-4.236,6.191-9.949t5.484-10.319h.353q-.177,4.794-.442,9.766t-.265,9.765Zm151.452,41.082H252.884v-118.1H240.5a36.675,36.675,0,0,1-7.075,7.185,88.71,88.71,0,0,1-9.994,6.911,90.665,90.665,0,0,1-10.259,5.342,29.787,29.787,0,0,1-8.048,2.488l3.714,13.451a65.993,65.993,0,0,0,30.247-17.136q-.178,3.869-.265,7.462t-.089,6.726v85.67h-54.3V293.363h20.695V280.65H184.43V203.633H166.565l-53.241,78.86v10.87H170.28v28.369H96.343v-118.1H83.961a36.675,36.675,0,0,1-7.075,7.185,88.787,88.787,0,0,1-9.993,6.911,90.674,90.674,0,0,1-10.26,5.342,29.776,29.776,0,0,1-8.048,2.488L52.3,239.01a65.983,65.983,0,0,0,30.246-17.136q-.177,3.869-.265,7.462t-.088,6.726v85.67H18.425V18.425H321.732Z"/>
      </g>
    </g>
</svg>
