<svg xmlns="http://www.w3.org/2000/svg" width="120mm" height="120mm" viewBox="0 0 340.158 340.158">
  <g id="Zimmernummer">
      <g id="Z-04-149-R">
        <path fill="#A0552B" stroke="none" d="M337.323,0H2.835A2.836,2.836,0,0,0,0,2.835V337.323a2.836,2.836,0,0,0,2.835,2.835H337.323a2.836,2.836,0,0,0,2.835-2.835V2.835A2.836,2.836,0,0,0,337.323,0ZM158.792,280.65H116.871l30.6-44.773q2.827-4.236,6.191-9.949t5.484-10.319h.354q-.18,4.794-.443,9.766t-.265,9.765Zm162.94,41.082h-53.92c.98-.57,1.937-1.175,2.856-1.836q9.991-7.186,15.124-21.1t5.129-34.362q0-18.425-5.129-32.521t-15.212-22.11q-10.083-8.016-24.764-8.016-12.561,0-21.579,5.067a34.112,34.112,0,0,0-13.8,14.188q-4.776,9.12-4.776,21.649,0,11.609,4.953,20.084a34.23,34.23,0,0,0,13.8,13.174,42.7,42.7,0,0,0,20.341,4.7,41.487,41.487,0,0,0,13.178-2.211,31.608,31.608,0,0,0,11.94-7.278A27.352,27.352,0,0,0,277.3,257.8h.708v1.658a148.866,148.866,0,0,1-1.5,22.11,57.358,57.358,0,0,1-5.041,17.044,26.1,26.1,0,0,1-9.64,10.87q-6.1,3.78-15.3,3.778-11.322,0-17.776-5.9a33.08,33.08,0,0,1-9.287-15.477l-13.974,7.738q5.129,13.452,15.566,20.452,1.314.882,2.693,1.652h-50.8V293.363h20.7V280.65h-20.7V203.633H155.077l-53.241,78.86v10.87h56.956v28.369H84.855v-118.1H72.474a36.712,36.712,0,0,1-7.076,7.185,88.7,88.7,0,0,1-9.993,6.911,90.749,90.749,0,0,1-10.259,5.342,29.792,29.792,0,0,1-8.049,2.488l3.715,13.451a63.322,63.322,0,0,0,16.273-6.541,63.753,63.753,0,0,0,13.974-10.595q-.178,3.869-.266,7.462t-.088,6.726v85.67H18.425V18.425H321.732ZM271.464,241.4A25.893,25.893,0,0,1,268.28,254.4a22.941,22.941,0,0,1-8.932,8.843,26.835,26.835,0,0,1-13.355,3.225q-11.674,0-18.572-6.357t-6.9-17.227q0-12.714,6.545-19.808t18.926-7.093a27.486,27.486,0,0,1,13.355,3.132,22.2,22.2,0,0,1,8.932,8.844A27.185,27.185,0,0,1,271.464,241.4Z"/>
      </g>
    </g>
</svg>
