<svg xmlns="http://www.w3.org/2000/svg" width="120mm" height="120mm" viewBox="0 0 340.158 340.157">
  <g id="Zimmernummer">
      <g id="Z-04-433-E">
        <path fill="#A09f9d" stroke="none" d="M337.323,0H2.835A2.836,2.836,0,0,0,0,2.835V337.323a2.834,2.834,0,0,0,2.835,2.834H337.323a2.834,2.834,0,0,0,2.835-2.834V2.835A2.836,2.836,0,0,0,337.323,0ZM86.354,280.65H44.434l30.6-44.774q2.827-4.236,6.191-9.949t5.483-10.318h.354q-.178,4.792-.443,9.766t-.265,9.764Zm235.378,41.082H285.089a34.758,34.758,0,0,0,12.9-12.339,35.789,35.789,0,0,0,5.041-18.977,29.088,29.088,0,0,0-1.68-9.858,26.255,26.255,0,0,0-4.865-8.384,24.024,24.024,0,0,0-7.694-5.9,25.056,25.056,0,0,0-10.348-2.4v-.369a23.85,23.85,0,0,0,8.314-3.04,25.755,25.755,0,0,0,6.986-6.172,29.58,29.58,0,0,0,4.865-9.121,37.188,37.188,0,0,0,1.769-11.884,32.147,32.147,0,0,0-3.981-15.845,29.13,29.13,0,0,0-11.939-11.516q-7.959-4.328-20.164-4.33a46.219,46.219,0,0,0-17.776,3.316,39.687,39.687,0,0,0-13.709,9.213,38.6,38.6,0,0,0-8.491,13.634l13.444,6.634a34.064,34.064,0,0,1,9.2-13.727q5.838-5.067,16.981-5.067,10.434,0,16.1,4.974t5.66,14.556q0,11.241-5.483,16.491t-18.4,5.251h-2.741a26.66,26.66,0,0,1-3.1-.184v14.74a45.433,45.433,0,0,1,4.776-.46q2.3-.09,4.245-.093,8.313,0,13.443,2.119a14.478,14.478,0,0,1,7.518,6.541,23.068,23.068,0,0,1,2.388,11.055,23.617,23.617,0,0,1-2.83,11.7,20.466,20.466,0,0,1-8.137,8.015,26.618,26.618,0,0,1-13.089,2.948q-9.2,0-15.3-2.763a24.359,24.359,0,0,1-9.816-7.832,40,40,0,0,1-5.837-11.883l-14.152,7.554a37.885,37.885,0,0,0,16.186,21.1c1.306.837,2.648,1.6,4.019,2.3H190.812a34.743,34.743,0,0,0,12.9-12.339,35.789,35.789,0,0,0,5.041-18.977,29.088,29.088,0,0,0-1.68-9.858,26.252,26.252,0,0,0-4.864-8.384,24.035,24.035,0,0,0-7.694-5.9,25.064,25.064,0,0,0-10.348-2.4v-.369a23.845,23.845,0,0,0,8.313-3.04,25.788,25.788,0,0,0,6.987-6.172,29.62,29.62,0,0,0,4.864-9.121A37.16,37.16,0,0,0,206.1,233.3a32.157,32.157,0,0,0-3.98-15.845,29.136,29.136,0,0,0-11.939-11.516q-7.96-4.328-20.164-4.33a46.222,46.222,0,0,0-17.778,3.316,39.7,39.7,0,0,0-13.708,9.213,38.607,38.607,0,0,0-8.49,13.634l13.442,6.634a34.077,34.077,0,0,1,9.2-13.727q5.836-5.067,16.98-5.067,10.436,0,16.1,4.974t5.66,14.556q0,11.241-5.483,16.491t-18.4,5.251H164.8a26.673,26.673,0,0,1-3.1-.184v14.74a45.408,45.408,0,0,1,4.776-.46q2.3-.09,4.246-.093,8.311,0,13.443,2.119a14.486,14.486,0,0,1,7.518,6.541,23.08,23.08,0,0,1,2.387,11.055,23.606,23.606,0,0,1-2.83,11.7,20.466,20.466,0,0,1-8.137,8.015,26.617,26.617,0,0,1-13.088,2.948q-9.2,0-15.3-2.763a24.366,24.366,0,0,1-9.818-7.832,40.076,40.076,0,0,1-5.837-11.883l-14.15,7.554a37.875,37.875,0,0,0,16.185,21.1c1.306.837,2.648,1.6,4.019,2.3H100.505V293.363h20.7V280.65h-20.7V203.632H82.64L29.4,282.493v10.87H86.354v28.369H18.425V18.425H321.732Z"/>
      </g>
    </g>
</svg>
