<svg xmlns="http://www.w3.org/2000/svg" width="120mm" height="120mm" viewBox="0 0 340.158 340.157">
  <g id="Zimmernummer">
      <g id="Z-04-326-R">
        <path fill="#A0552B" stroke="none" d="M337.323,0H2.835A2.836,2.836,0,0,0,0,2.835V337.323a2.834,2.834,0,0,0,2.835,2.834H337.323a2.834,2.834,0,0,0,2.835-2.834V2.835A2.836,2.836,0,0,0,337.323,0ZM239.45,300.273a25.072,25.072,0,0,1-3.361-12.805,25.9,25.9,0,0,1,3.184-12.99,22.971,22.971,0,0,1,8.932-8.844,26.854,26.854,0,0,1,13.356-3.225,28.841,28.841,0,0,1,13.8,3.04,20.77,20.77,0,0,1,8.668,8.66,27.961,27.961,0,0,1,3.007,13.359q0,11.979-6.721,18.7T261.561,312.9a24.992,24.992,0,0,1-22.111-12.622Zm82.282,21.459h-37.72a33.849,33.849,0,0,0,12.925-13.168,42.474,42.474,0,0,0,4.952-20.913q0-12.159-4.864-21a33.635,33.635,0,0,0-13.709-13.634,42.8,42.8,0,0,0-20.695-4.791,39.505,39.505,0,0,0-13,2.3,33.066,33.066,0,0,0-11.85,7.186,25.315,25.315,0,0,0-7.165,12.806H229.9V267.2a95.59,95.59,0,0,1,2.035-20.267,55.94,55.94,0,0,1,6.1-16.4,32.985,32.985,0,0,1,9.905-10.964,23.382,23.382,0,0,1,13.443-3.961q10.435,0,16.362,4.883a27.4,27.4,0,0,1,8.578,13.359l13.09-6.45a46.953,46.953,0,0,0-8.667-14.647,31.431,31.431,0,0,0-12.117-8.292,45.757,45.757,0,0,0-16.361-2.672,39.819,39.819,0,0,0-23.26,7.187q-10.349,7.185-16.362,21.1t-6.014,34.364q0,18.24,5.13,32.335t15.212,22.2a35.524,35.524,0,0,0,3.945,2.757h-34.9V311.42h-40.86q-1.772,0-5.218.093t-6.9.183q-3.448.1-5.4.277v-.184q20.87-14.553,33.078-26.532t17.51-22.94a50.849,50.849,0,0,0,5.307-22.386,42.164,42.164,0,0,0-2.741-15.478,34.42,34.42,0,0,0-7.871-12.068,35.378,35.378,0,0,0-12.294-7.83,44.679,44.679,0,0,0-16.185-2.765q-11.852,0-20.43,4.606A35.534,35.534,0,0,0,130.4,219.11a48.787,48.787,0,0,0-6.632,18.794l12.381,7.739q1.236-13.633,8.491-21.834t19.279-8.2q11.5,0,18.131,6.726t6.633,17.6a41.281,41.281,0,0,1-3.007,15.569A58.812,58.812,0,0,1,175.6,271.254a176.031,176.031,0,0,1-18.838,18.425q-11.766,10.135-29.274,23.584v8.469H97.162a34.76,34.76,0,0,0,12.9-12.338,35.8,35.8,0,0,0,5.041-18.978,29.082,29.082,0,0,0-1.68-9.857,26.234,26.234,0,0,0-4.864-8.384,24.034,24.034,0,0,0-7.7-5.9,25.071,25.071,0,0,0-10.347-2.394v-.369a23.865,23.865,0,0,0,8.313-3.04,25.79,25.79,0,0,0,6.987-6.172,29.622,29.622,0,0,0,4.865-9.121,37.189,37.189,0,0,0,1.768-11.884,32.147,32.147,0,0,0-3.98-15.846,29.128,29.128,0,0,0-11.939-11.515q-7.959-4.328-20.165-4.331a46.219,46.219,0,0,0-17.776,3.317,39.692,39.692,0,0,0-13.709,9.213,38.589,38.589,0,0,0-8.49,13.634L49.835,234.4a34.079,34.079,0,0,1,9.2-13.726q5.837-5.067,16.981-5.068,10.434,0,16.1,4.975t5.66,14.556q0,11.241-5.483,16.491t-18.4,5.251H71.149a26.649,26.649,0,0,1-3.095-.185v14.741a44.88,44.88,0,0,1,4.776-.46q2.3-.092,4.245-.093,8.311,0,13.443,2.119a14.472,14.472,0,0,1,7.517,6.541,23.065,23.065,0,0,1,2.388,11.055,23.609,23.609,0,0,1-2.83,11.7,20.455,20.455,0,0,1-8.136,8.014,26.622,26.622,0,0,1-13.09,2.949q-9.2,0-15.3-2.764a24.367,24.367,0,0,1-9.817-7.831,40.046,40.046,0,0,1-5.837-11.884l-14.151,7.555a37.879,37.879,0,0,0,16.185,21.1c1.306.836,2.648,1.6,4.019,2.3H18.425V18.425H321.732Z"/>
      </g>
    </g>
</svg>
