<svg xmlns="http://www.w3.org/2000/svg" width="120mm" height="120mm" viewBox="0 0 340.158 340.157">
  <g id="Zimmernummer">
      <g id="Z-04-606-R">
        <path fill="#A0552B" stroke="none" d="M337.323,0H2.835A2.836,2.836,0,0,0,0,2.835V337.323a2.834,2.834,0,0,0,2.835,2.834H337.323a2.834,2.834,0,0,0,2.835-2.834V2.835A2.836,2.836,0,0,0,337.323,0ZM55.844,300.273a25.081,25.081,0,0,1-3.36-12.805,25.912,25.912,0,0,1,3.183-12.99,22.98,22.98,0,0,1,8.933-8.844,26.853,26.853,0,0,1,13.355-3.225,28.845,28.845,0,0,1,13.8,3.04,20.767,20.767,0,0,1,8.667,8.66,27.95,27.95,0,0,1,3.007,13.359q0,11.979-6.72,18.7T77.955,312.9a24.992,24.992,0,0,1-22.111-12.622Zm86.759-8.752q-3.276-11.055-3.272-27.084t3.272-27.086q3.271-11.055,9.729-16.674a25.106,25.106,0,0,1,31.661,0q6.454,5.622,9.728,16.674t3.273,27.086q0,16.029-3.273,27.084T183.993,308.2a25.109,25.109,0,0,1-31.661,0Q145.872,302.577,142.6,291.521Zm98.964,8.752a25.081,25.081,0,0,1-3.36-12.805,25.912,25.912,0,0,1,3.183-12.99,22.973,22.973,0,0,1,8.933-8.844,26.852,26.852,0,0,1,13.354-3.225,28.846,28.846,0,0,1,13.8,3.04,20.773,20.773,0,0,1,8.667,8.66,27.95,27.95,0,0,1,3.007,13.359q0,11.979-6.721,18.7t-18.75,6.726a24.988,24.988,0,0,1-22.11-12.622Zm80.165,21.459h-35.6a33.846,33.846,0,0,0,12.924-13.168,42.463,42.463,0,0,0,4.952-20.913q0-12.159-4.864-21a33.633,33.633,0,0,0-13.708-13.634,42.809,42.809,0,0,0-20.7-4.791,39.5,39.5,0,0,0-13,2.3,33.092,33.092,0,0,0-11.852,7.186,25.313,25.313,0,0,0-7.163,12.806h-.708V267.2a95.722,95.722,0,0,1,2.034-20.267,56,56,0,0,1,6.1-16.4,33,33,0,0,1,9.905-10.964,23.382,23.382,0,0,1,13.443-3.961q10.435,0,16.362,4.883a27.412,27.412,0,0,1,8.579,13.359l13.089-6.45a46.953,46.953,0,0,0-8.667-14.647,31.428,31.428,0,0,0-12.116-8.292,45.77,45.77,0,0,0-16.362-2.672,39.821,39.821,0,0,0-23.26,7.187q-10.349,7.185-16.362,21.1t-6.013,34.364q0,18.24,5.128,32.335t15.212,22.2a35.629,35.629,0,0,0,3.946,2.757h-54.55a39.853,39.853,0,0,0,11.427-10.68q11.76-16.031,11.762-46.615T199.913,217.82q-11.766-16.029-31.75-16.03-19.812,0-31.663,16.03t-11.851,46.617q0,30.585,11.851,46.615a40.323,40.323,0,0,0,11.452,10.68H100.407a33.855,33.855,0,0,0,12.925-13.168,42.474,42.474,0,0,0,4.952-20.913q0-12.159-4.865-21a33.633,33.633,0,0,0-13.708-13.634,42.806,42.806,0,0,0-20.695-4.791,39.5,39.5,0,0,0-13,2.3,33.066,33.066,0,0,0-11.85,7.186A25.308,25.308,0,0,0,47,270.517h-.708V267.2a95.655,95.655,0,0,1,2.035-20.267,55.968,55.968,0,0,1,6.1-16.4,33.006,33.006,0,0,1,9.905-10.964,23.385,23.385,0,0,1,13.444-3.961q10.434,0,16.361,4.883a27.4,27.4,0,0,1,8.579,13.359l13.089-6.45a46.934,46.934,0,0,0-8.667-14.647,31.428,31.428,0,0,0-12.116-8.292,45.76,45.76,0,0,0-16.361-2.672A39.822,39.822,0,0,0,55.4,208.977q-10.347,7.185-16.361,21.1t-6.014,34.364q0,18.24,5.13,32.335t15.212,22.2a35.512,35.512,0,0,0,3.944,2.757H18.425V18.425H321.732Z"/>
      </g>
    </g>
</svg>
