<svg xmlns="http://www.w3.org/2000/svg" width="120mm" height="120mm" viewBox="0 0 340.158 340.157">
  <g id="Zimmernummer">
      <g id="Z-04-611">
        <path fill="#000000" stroke="none" d="M337.323,0H2.835A2.834,2.834,0,0,0,0,2.835V337.323a2.834,2.834,0,0,0,2.835,2.834H337.323a2.834,2.834,0,0,0,2.835-2.834V2.835A2.834,2.834,0,0,0,337.323,0ZM71.49,300.273a25.082,25.082,0,0,1-3.361-12.805,25.9,25.9,0,0,1,3.184-12.99,22.973,22.973,0,0,1,8.933-8.844A26.849,26.849,0,0,1,93.6,262.409a28.846,28.846,0,0,1,13.8,3.04,20.784,20.784,0,0,1,8.667,8.66,27.95,27.95,0,0,1,3.007,13.359q0,11.979-6.722,18.7T93.6,312.9a24.988,24.988,0,0,1-22.11-12.622Zm250.242,21.459H261.105v-118.1H248.723a36.732,36.732,0,0,1-7.075,7.185,88.71,88.71,0,0,1-9.994,6.911,90.749,90.749,0,0,1-10.259,5.342,29.792,29.792,0,0,1-8.049,2.488l3.715,13.451a65.993,65.993,0,0,0,30.247-17.136q-.178,3.869-.266,7.462t-.087,6.726v85.67H193.889v-118.1H181.508a36.7,36.7,0,0,1-7.075,7.185,88.71,88.71,0,0,1-9.994,6.911,90.749,90.749,0,0,1-10.259,5.342,29.792,29.792,0,0,1-8.049,2.488l3.715,13.451a65.98,65.98,0,0,0,30.247-17.136q-.179,3.869-.265,7.462t-.089,6.726v85.67H116.053a33.844,33.844,0,0,0,12.923-13.168,42.463,42.463,0,0,0,4.953-20.913q0-12.159-4.864-21a33.645,33.645,0,0,0-13.708-13.634,42.811,42.811,0,0,0-20.695-4.791,39.5,39.5,0,0,0-13,2.3,33.092,33.092,0,0,0-11.852,7.186,25.313,25.313,0,0,0-7.163,12.806h-.708V267.2a95.722,95.722,0,0,1,2.034-20.267,56,56,0,0,1,6.1-16.4A32.975,32.975,0,0,1,79.98,219.57a23.382,23.382,0,0,1,13.443-3.961q10.434,0,16.362,4.883a27.419,27.419,0,0,1,8.579,13.359l13.089-6.45a46.953,46.953,0,0,0-8.667-14.647,31.431,31.431,0,0,0-12.117-8.292,45.766,45.766,0,0,0-16.362-2.672,39.826,39.826,0,0,0-23.26,7.187q-10.347,7.185-16.361,21.1t-6.014,34.364q0,18.24,5.129,32.335t15.212,22.2a35.524,35.524,0,0,0,3.945,2.757H18.425V18.425H321.732Z"/>
      </g>
    </g>
</svg>
