<svg xmlns="http://www.w3.org/2000/svg" width="120mm" height="120mm" viewBox="0 0 340.158 340.158">
  <g id="Zimmernummer">
      <g id="Z-04-419-M">
        <path fill="#D4AF37" stroke="none" d="M337.323,0H2.835A2.836,2.836,0,0,0,0,2.835V337.323a2.836,2.836,0,0,0,2.835,2.835H337.323a2.836,2.836,0,0,0,2.835-2.835V2.835A2.836,2.836,0,0,0,337.323,0ZM100.062,280.65H58.141l30.6-44.773q2.827-4.236,6.19-9.949t5.484-10.319h.353q-.177,4.794-.442,9.766t-.265,9.765Zm221.67,41.082h-55.34c.979-.57,1.936-1.175,2.856-1.836q9.992-7.186,15.124-21.1t5.129-34.362q0-18.425-5.129-32.521t-15.212-22.11q-10.083-8.016-24.764-8.016-12.561,0-21.579,5.067a34.106,34.106,0,0,0-13.8,14.188q-4.776,9.12-4.776,21.649,0,11.609,4.953,20.084a34.224,34.224,0,0,0,13.8,13.174,42.7,42.7,0,0,0,20.341,4.7,41.476,41.476,0,0,0,13.177-2.211,31.6,31.6,0,0,0,11.94-7.278,27.346,27.346,0,0,0,7.43-13.358h.707v1.658a148.866,148.866,0,0,1-1.5,22.11,57.388,57.388,0,0,1-5.041,17.044,26.106,26.106,0,0,1-9.64,10.87q-6.1,3.78-15.3,3.778-11.323,0-17.777-5.9a33.087,33.087,0,0,1-9.286-15.477l-13.974,7.738q5.128,13.452,15.566,20.452,1.314.882,2.693,1.652H182.665v-118.1H170.283a36.732,36.732,0,0,1-7.075,7.185,88.892,88.892,0,0,1-9.994,6.911,90.749,90.749,0,0,1-10.259,5.342,29.8,29.8,0,0,1-8.048,2.488l3.714,13.451a65.993,65.993,0,0,0,30.247-17.136q-.178,3.869-.266,7.462t-.088,6.726v85.67h-54.3V293.363h20.695V280.65H114.213V203.633H96.347l-53.241,78.86v10.87h56.956v28.369H18.425V18.425H321.732ZM270.044,241.4A25.893,25.893,0,0,1,266.86,254.4a22.937,22.937,0,0,1-8.933,8.843,26.833,26.833,0,0,1-13.354,3.225q-11.675,0-18.572-6.357t-6.9-17.227q0-12.714,6.545-19.808t18.926-7.093a27.484,27.484,0,0,1,13.354,3.132,22.2,22.2,0,0,1,8.933,8.844A27.185,27.185,0,0,1,270.044,241.4Z"/>
      </g>
    </g>
</svg>
