<svg xmlns="http://www.w3.org/2000/svg" width="120mm" height="120mm" viewBox="0 0 340.158 340.157">
  <g id="Zimmernummer">
      <g id="Z-04-603-M">
        <path fill="#D4AF37" stroke="none" d="M337.323,0H2.835A2.836,2.836,0,0,0,0,2.835V337.323a2.834,2.834,0,0,0,2.835,2.834H337.323a2.834,2.834,0,0,0,2.835-2.834V2.835A2.836,2.836,0,0,0,337.323,0ZM56.287,300.273a25.067,25.067,0,0,1-3.362-12.806,25.913,25.913,0,0,1,3.184-12.99,22.98,22.98,0,0,1,8.933-8.844A26.862,26.862,0,0,1,78.4,262.409a28.838,28.838,0,0,1,13.8,3.04,20.775,20.775,0,0,1,8.668,8.66,27.957,27.957,0,0,1,3.007,13.358q0,11.981-6.722,18.7T78.4,312.894a24.985,24.985,0,0,1-22.109-12.621Zm90.295-8.752q-3.274-11.055-3.272-27.085t3.272-27.086q3.272-11.054,9.728-16.674a25.107,25.107,0,0,1,31.662,0q6.456,5.622,9.729,16.674t3.272,27.086q0,16.031-3.272,27.085T187.972,308.2a25.111,25.111,0,0,1-31.662,0Q149.851,302.577,146.582,291.521Zm175.15,30.211h-37a34.75,34.75,0,0,0,12.9-12.339,35.789,35.789,0,0,0,5.041-18.977,29.063,29.063,0,0,0-1.68-9.858,26.255,26.255,0,0,0-4.865-8.384,24.013,24.013,0,0,0-7.694-5.9,25.056,25.056,0,0,0-10.348-2.4v-.369a23.843,23.843,0,0,0,8.314-3.04,25.759,25.759,0,0,0,6.987-6.172,29.6,29.6,0,0,0,4.864-9.121,37.16,37.16,0,0,0,1.769-11.884,32.146,32.146,0,0,0-3.98-15.845,29.13,29.13,0,0,0-11.939-11.516q-7.961-4.328-20.165-4.33a46.219,46.219,0,0,0-17.776,3.316,39.683,39.683,0,0,0-13.708,9.213,38.612,38.612,0,0,0-8.492,13.634L237.41,234.4a34.066,34.066,0,0,1,9.2-13.727q5.838-5.067,16.98-5.067,10.434,0,16.1,4.974t5.66,14.556q0,11.241-5.483,16.491t-18.4,5.251h-2.741a26.673,26.673,0,0,1-3.1-.184v14.74a45.451,45.451,0,0,1,4.777-.46q2.3-.09,4.245-.093,8.312,0,13.442,2.119a14.478,14.478,0,0,1,7.518,6.541A23.068,23.068,0,0,1,288,290.6a23.6,23.6,0,0,1-2.831,11.7,20.455,20.455,0,0,1-8.135,8.015,26.625,26.625,0,0,1-13.09,2.948q-9.2,0-15.3-2.763a24.362,24.362,0,0,1-9.817-7.832,40,40,0,0,1-5.837-11.883l-14.151,7.554a37.875,37.875,0,0,0,16.185,21.1c1.306.837,2.648,1.6,4.02,2.3H192.464a39.821,39.821,0,0,0,11.428-10.681q11.762-16.029,11.763-46.615T203.892,217.82q-11.766-16.03-31.751-16.03-19.812,0-31.661,16.03t-11.852,46.616q0,30.587,11.852,46.615a40.3,40.3,0,0,0,11.452,10.681H100.848a33.849,33.849,0,0,0,12.925-13.168,42.466,42.466,0,0,0,4.952-20.913q0-12.161-4.864-21a33.635,33.635,0,0,0-13.708-13.635,42.817,42.817,0,0,0-20.7-4.791,39.5,39.5,0,0,0-13,2.3,33.091,33.091,0,0,0-11.851,7.185,25.318,25.318,0,0,0-7.164,12.806h-.707V267.2a95.673,95.673,0,0,1,2.034-20.268,55.934,55.934,0,0,1,6.1-16.4,32.965,32.965,0,0,1,9.905-10.964,23.367,23.367,0,0,1,13.442-3.961q10.436,0,16.363,4.883a27.412,27.412,0,0,1,8.578,13.358l13.09-6.449a46.967,46.967,0,0,0-8.668-14.648,31.427,31.427,0,0,0-12.117-8.292A45.757,45.757,0,0,0,79.1,201.79a39.823,39.823,0,0,0-23.26,7.186q-10.347,7.185-16.362,21.1t-6.014,34.363q0,18.24,5.13,32.336t15.212,22.2a35.5,35.5,0,0,0,3.946,2.758H18.425V18.425H321.732Z"/>
      </g>
    </g>
</svg>
