<svg xmlns="http://www.w3.org/2000/svg" width="120mm" height="120mm" viewBox="0 0 340.158 340.158">
  <g id="Zimmernummer">
      <g id="Z-04-604">
        <path fill="#000000" stroke="none" d="M337.323,0H2.835A2.836,2.836,0,0,0,0,2.835V337.323a2.836,2.836,0,0,0,2.835,2.835H337.323a2.836,2.836,0,0,0,2.835-2.835V2.835A2.836,2.836,0,0,0,337.323,0ZM54.694,300.273a25.082,25.082,0,0,1-3.361-12.805,25.913,25.913,0,0,1,3.184-12.99,22.973,22.973,0,0,1,8.933-8.844A26.852,26.852,0,0,1,76.8,262.409a28.846,28.846,0,0,1,13.8,3.04,20.781,20.781,0,0,1,8.668,8.66,27.961,27.961,0,0,1,3.007,13.359q0,11.979-6.722,18.7T76.8,312.9a24.991,24.991,0,0,1-22.11-12.622Zm85.874-8.752q-3.276-11.055-3.273-27.084t3.273-27.086q3.271-11.055,9.728-16.674a25.107,25.107,0,0,1,31.662,0q6.454,5.622,9.729,16.674t3.272,27.086q0,16.029-3.272,27.084T181.958,308.2a25.111,25.111,0,0,1-31.662,0Q143.839,302.577,140.568,291.521ZM272.609,280.65H230.688l30.6-44.773q2.826-4.236,6.191-9.949t5.483-10.319h.354q-.179,4.794-.442,9.766t-.266,9.765Zm49.123,41.082H286.76V293.363h20.695V280.65H286.76V203.633H268.9l-53.241,78.86v10.87h56.955v28.369H186.45a39.827,39.827,0,0,0,11.427-10.68q11.761-16.031,11.763-46.615T197.877,217.82q-11.765-16.029-31.75-16.03-19.812,0-31.662,16.03t-11.85,46.617q0,30.585,11.85,46.615a40.313,40.313,0,0,0,11.453,10.68H99.256a33.835,33.835,0,0,0,12.925-13.168,42.463,42.463,0,0,0,4.952-20.913q0-12.159-4.864-21a33.627,33.627,0,0,0-13.708-13.634,42.8,42.8,0,0,0-20.7-4.791,39.5,39.5,0,0,0-13,2.3,33.079,33.079,0,0,0-11.851,7.186,25.314,25.314,0,0,0-7.164,12.806h-.707V267.2a95.657,95.657,0,0,1,2.034-20.267,55.968,55.968,0,0,1,6.1-16.4,32.988,32.988,0,0,1,9.906-10.964,23.376,23.376,0,0,1,13.442-3.961q10.436,0,16.362,4.883a27.405,27.405,0,0,1,8.579,13.359l13.09-6.45a46.954,46.954,0,0,0-8.668-14.647,31.42,31.42,0,0,0-12.116-8.292,45.766,45.766,0,0,0-16.362-2.672,39.824,39.824,0,0,0-23.26,7.187q-10.347,7.185-16.362,21.1t-6.014,34.364q0,18.24,5.13,32.335t15.212,22.2a35.443,35.443,0,0,0,3.946,2.757H18.425V18.425H321.732Z"/>
      </g>
    </g>
</svg>
