<svg xmlns="http://www.w3.org/2000/svg" width="120mm" height="120mm" viewBox="0 0 340.158 340.157">
  <g id="Zimmernummer">
      <g id="Z-04-110-M">
        <path fill="#D4AF37" stroke="none" d="M337.323,0H2.835A2.836,2.836,0,0,0,0,2.835V337.323a2.834,2.834,0,0,0,2.835,2.834H337.323a2.834,2.834,0,0,0,2.835-2.834V2.835A2.836,2.836,0,0,0,337.323,0ZM206.28,291.521q-3.274-11.055-3.272-27.084t3.272-27.086q3.272-11.055,9.729-16.674a25.106,25.106,0,0,1,31.661,0q6.456,5.622,9.729,16.674t3.272,27.086q0,16.029-3.272,27.084T247.67,308.2a25.109,25.109,0,0,1-31.661,0Q209.55,302.577,206.28,291.521Zm115.452,30.211H252.163a39.853,39.853,0,0,0,11.427-10.68q11.762-16.031,11.763-46.615T263.59,217.82q-11.766-16.029-31.751-16.03-19.812,0-31.661,16.03t-11.851,46.617q0,30.585,11.851,46.615a40.31,40.31,0,0,0,11.452,10.68h-44v-118.1H155.25a36.732,36.732,0,0,1-7.075,7.185,88.892,88.892,0,0,1-9.994,6.911,90.589,90.589,0,0,1-10.26,5.342,29.782,29.782,0,0,1-8.047,2.488l3.714,13.451a65.993,65.993,0,0,0,30.247-17.136q-.179,3.869-.266,7.462t-.088,6.726v85.67H100.417v-118.1H88.035a36.712,36.712,0,0,1-7.076,7.185,88.606,88.606,0,0,1-9.993,6.911,90.749,90.749,0,0,1-10.259,5.342,29.792,29.792,0,0,1-8.049,2.488l3.715,13.451A65.993,65.993,0,0,0,86.62,221.874q-.178,3.869-.266,7.462t-.088,6.726v85.67H18.425V18.425H321.732Z"/>
      </g>
    </g>
</svg>
