<svg xmlns="http://www.w3.org/2000/svg" width="120mm" height="120mm" viewBox="0 0 340.158 340.158">
  <g id="Zimmernummer">
      <g id="Z-04-015">
        <path fill="#000000" stroke="none" d="M339.327.831a2.835,2.835,0,0,0-2-.831H2.835A2.836,2.836,0,0,0,0,2.835V337.323a2.836,2.836,0,0,0,2.835,2.835H337.323a2.837,2.837,0,0,0,2.835-2.835V2.835A2.831,2.831,0,0,0,339.327.831Zm-17.595,320.9H281.161a37.418,37.418,0,0,0,7.886-5.546,35.751,35.751,0,0,0,8.845-12.806,43.9,43.9,0,0,0,3.132-16.951,42.685,42.685,0,0,0-4.791-20.636,34.232,34.232,0,0,0-13.358-13.727q-8.568-4.88-20.176-4.883a44.35,44.35,0,0,0-16.49,2.764,31.845,31.845,0,0,0-11.332,7.37h-.368l.368-1.658,4.791-38.324H295.5V203.516H227.139L219.953,270.4l12.9,2.395a24.6,24.6,0,0,1,7-6.817,29.516,29.516,0,0,1,9.121-3.777,47.658,47.658,0,0,1,10.963-1.2,30.3,30.3,0,0,1,14,2.948,20.1,20.1,0,0,1,8.753,8.752q3.039,5.805,3.04,14.464a27.589,27.589,0,0,1-3.317,13.911,22.5,22.5,0,0,1-9.305,8.936,30.846,30.846,0,0,1-14.463,3.133q-11.979,0-18.149-5.989a35.872,35.872,0,0,1-9.121-15.569l-14.371,7.554q5.341,13.084,15.2,20.452a31.6,31.6,0,0,0,3.279,2.138H201.343V203.516h-12.9a37.48,37.48,0,0,1-7.37,7.185,92.554,92.554,0,0,1-10.41,6.91,95.957,95.957,0,0,1-10.687,5.343,32,32,0,0,1-8.384,2.488l3.87,13.45a67.455,67.455,0,0,0,16.951-6.541,66.208,66.208,0,0,0,14.556-10.594q-.186,3.869-.277,7.462t-.092,6.725v85.788H18.425V18.425H321.732Z"/>
      </g>
    </g>
</svg>
