<svg xmlns="http://www.w3.org/2000/svg" width="120mm" height="120mm" viewBox="0 0 340.158 340.157">
  <g id="Zimmernummer">
      <g id="Z-04-123-M">
        <path fill="#D4AF37" stroke="none" d="M337.323,0H2.835A2.836,2.836,0,0,0,0,2.835V337.323a2.834,2.834,0,0,0,2.835,2.834H337.323a2.834,2.834,0,0,0,2.835-2.834V2.835A2.836,2.836,0,0,0,337.323,0ZM321.732,321.732H267.314a34.743,34.743,0,0,0,12.9-12.339,35.789,35.789,0,0,0,5.041-18.977,29.088,29.088,0,0,0-1.68-9.858,26.236,26.236,0,0,0-4.865-8.384,24.013,24.013,0,0,0-7.694-5.9,25.056,25.056,0,0,0-10.348-2.4v-.369a23.843,23.843,0,0,0,8.314-3.04,25.774,25.774,0,0,0,6.987-6.172,29.6,29.6,0,0,0,4.864-9.121A37.16,37.16,0,0,0,282.6,233.3a32.157,32.157,0,0,0-3.98-15.845,29.136,29.136,0,0,0-11.939-11.516q-7.961-4.328-20.165-4.33a46.224,46.224,0,0,0-17.777,3.316,39.7,39.7,0,0,0-13.708,9.213,38.607,38.607,0,0,0-8.49,13.634l13.443,6.634a34.066,34.066,0,0,1,9.2-13.727q5.836-5.067,16.981-5.067,10.434,0,16.1,4.974t5.66,14.556q0,11.241-5.484,16.491t-18.4,5.251H241.3a26.643,26.643,0,0,1-3.095-.184v14.74a45.39,45.39,0,0,1,4.775-.46q2.3-.09,4.246-.093,8.311,0,13.442,2.119a14.478,14.478,0,0,1,7.518,6.541,23.068,23.068,0,0,1,2.388,11.055,23.606,23.606,0,0,1-2.83,11.7,20.466,20.466,0,0,1-8.137,8.015,26.615,26.615,0,0,1-13.089,2.948q-9.2,0-15.3-2.763a24.356,24.356,0,0,1-9.817-7.832,40.028,40.028,0,0,1-5.837-11.883l-14.151,7.554a37.875,37.875,0,0,0,16.185,21.1c1.306.837,2.648,1.6,4.019,2.3H191.157V311.419H150.3q-1.77,0-5.217.093t-6.9.184q-3.448.094-5.4.276v-.183q20.87-14.554,33.077-26.533t17.512-22.939a50.869,50.869,0,0,0,5.306-22.387,42.142,42.142,0,0,0-2.742-15.477,34.41,34.41,0,0,0-7.871-12.069,35.388,35.388,0,0,0-12.293-7.83,44.68,44.68,0,0,0-16.185-2.764q-11.853,0-20.43,4.606a35.527,35.527,0,0,0-13.62,12.714,48.815,48.815,0,0,0-6.633,18.794l12.382,7.738q1.234-13.633,8.49-21.834t19.281-8.2q11.5,0,18.13,6.725t6.633,17.6a41.305,41.305,0,0,1-3.007,15.57,58.8,58.8,0,0,1-10.083,15.753A175.915,175.915,0,0,1,141.9,289.678q-11.766,10.135-29.274,23.584v8.47H90.335v-118.1H77.953a36.706,36.706,0,0,1-7.075,7.186,88.664,88.664,0,0,1-9.994,6.91,90.6,90.6,0,0,1-10.259,5.343,29.753,29.753,0,0,1-8.048,2.487l3.714,13.451a63.222,63.222,0,0,0,16.273-6.541,63.733,63.733,0,0,0,13.974-10.594q-.178,3.869-.266,7.461t-.088,6.726v85.671H18.425V18.425H321.732Z"/>
      </g>
    </g>
</svg>
