<svg xmlns="http://www.w3.org/2000/svg" width="120mm" height="120mm" viewBox="0 0 340.158 340.158">
  <g id="Zimmernummer">
      <g id="Z-04-024">
        <path fill="#000000" stroke="none" d="M339.327.831a2.833,2.833,0,0,0-2-.831H2.835A2.836,2.836,0,0,0,0,2.835V337.323a2.836,2.836,0,0,0,2.835,2.835H337.323a2.837,2.837,0,0,0,2.835-2.835V2.835A2.831,2.831,0,0,0,339.327.831Zm-71.839,279.7H223.821L255.7,235.76q2.946-4.236,6.449-9.95a117.015,117.015,0,0,0,5.712-10.318h.369q-.186,4.794-.461,9.765t-.277,9.765Zm54.244,41.2h-39.5V293.246h21.557V280.533H282.229V203.516h-18.61l-55.46,78.859v10.871h59.329v28.486H208.345V311.3H165.783q-1.845,0-5.436.092t-7.185.184q-3.594.1-5.62.276v-.184Q169.28,297.12,182,285.139T200.238,262.2a49.2,49.2,0,0,0,5.527-22.387,40.666,40.666,0,0,0-2.855-15.477,34.311,34.311,0,0,0-8.2-12.068,37.089,37.089,0,0,0-12.805-7.831,48.286,48.286,0,0,0-16.86-2.764q-12.345,0-21.28,4.606a36.446,36.446,0,0,0-14.188,12.714,47.549,47.549,0,0,0-6.91,18.793l12.9,7.739q1.287-13.632,8.845-21.834t20.083-8.2q11.975,0,18.886,6.725t6.909,17.6a39.85,39.85,0,0,1-3.132,15.57,58.565,58.565,0,0,1-10.5,15.753,180.07,180.07,0,0,1-19.622,18.426q-12.256,10.134-30.494,23.584v8.586H18.425V18.425H321.732Z"/>
      </g>
    </g>
</svg>
