<svg xmlns="http://www.w3.org/2000/svg" width="120mm" height="120mm" viewBox="0 0 340.158 340.157">
  <g id="Zimmernummer">
      <g id="Z-04-060-E">
        <path fill="#A09f9d" stroke="none" d="M337.323,0H2.835A2.836,2.836,0,0,0,0,2.835V337.323a2.834,2.834,0,0,0,2.835,2.834H337.323a2.834,2.834,0,0,0,2.835-2.834V2.835A2.836,2.836,0,0,0,337.323,0ZM131.5,300.273a24.3,24.3,0,0,1-3.5-12.805,25.087,25.087,0,0,1,3.317-12.99,23.475,23.475,0,0,1,9.305-8.844,28.9,28.9,0,0,1,13.911-3.225,31.086,31.086,0,0,1,14.371,3.04,21.238,21.238,0,0,1,9.029,8.66,27.039,27.039,0,0,1,3.132,13.359q0,11.979-7,18.7t-19.53,6.726a26.853,26.853,0,0,1-13.543-3.41A25.733,25.733,0,0,1,131.5,300.273Zm97.744-8.752q-3.413-11.055-3.41-27.084t3.41-27.086q3.406-11.055,10.133-16.674a27,27,0,0,1,32.981,0q6.725,5.622,10.134,16.674t3.409,27.086q0,16.029-3.409,27.084T272.361,308.2a27.007,27.007,0,0,1-32.981,0Q232.653,302.577,229.247,291.521Zm92.485,30.211H277.041a40.9,40.9,0,0,0,11.9-10.68q12.25-16.031,12.253-46.615T288.944,217.82q-12.257-16.029-33.073-16.03-20.639,0-32.981,16.03t-12.346,46.617q0,30.585,12.346,46.615a41.381,41.381,0,0,0,11.929,10.68h-56.9a34.546,34.546,0,0,0,13.463-13.168,41.1,41.1,0,0,0,5.159-20.913q0-12.159-5.067-21A34.386,34.386,0,0,0,177.2,253.013q-9.216-4.791-21.558-4.791a42.682,42.682,0,0,0-13.542,2.3,34.758,34.758,0,0,0-12.346,7.186,25.073,25.073,0,0,0-7.461,12.806h-.738V267.2a92,92,0,0,1,2.119-20.267,54.615,54.615,0,0,1,6.357-16.4,33.5,33.5,0,0,1,10.318-10.964,25.088,25.088,0,0,1,14-3.961q10.871,0,17.044,4.883a27.337,27.337,0,0,1,8.936,13.359l13.634-6.45a46.573,46.573,0,0,0-9.028-14.647,32.813,32.813,0,0,0-12.621-8.292,49.469,49.469,0,0,0-17.044-2.672,42.7,42.7,0,0,0-24.229,7.187q-10.778,7.185-17.043,21.1t-6.264,34.364q0,18.24,5.343,32.335t15.845,22.2a37.122,37.122,0,0,0,4.11,2.757H18.425V18.425H321.732Z"/>
      </g>
    </g>
</svg>
