<svg xmlns="http://www.w3.org/2000/svg" width="120mm" height="120mm" viewBox="0 0 340.158 340.158">
  <g id="Zimmernummer">
      <g id="Z-04-112-R">
        <path fill="#A0552B" stroke="none" d="M337.323,0H2.835A2.836,2.836,0,0,0,0,2.835V337.323a2.836,2.836,0,0,0,2.835,2.835H337.323a2.836,2.836,0,0,0,2.835-2.835V2.835A2.836,2.836,0,0,0,337.323,0ZM321.732,321.732H275.441V311.42h-40.86q-1.77,0-5.218.093t-6.9.184q-3.448.094-5.4.276v-.183q20.87-14.555,33.077-26.533t17.511-22.939a50.856,50.856,0,0,0,5.307-22.387,42.142,42.142,0,0,0-2.742-15.477,34.4,34.4,0,0,0-7.871-12.069,35.4,35.4,0,0,0-12.293-7.83,44.68,44.68,0,0,0-16.185-2.764q-11.853,0-20.43,4.606a35.527,35.527,0,0,0-13.62,12.714,48.782,48.782,0,0,0-6.633,18.794l12.382,7.738q1.234-13.633,8.49-21.834t19.28-8.2q11.5,0,18.131,6.725t6.632,17.6A41.276,41.276,0,0,1,255.1,255.5a58.861,58.861,0,0,1-10.082,15.754,175.935,175.935,0,0,1-18.838,18.425q-11.766,10.135-29.275,23.584v8.469H167.543v-118.1H155.162a36.714,36.714,0,0,1-7.076,7.186,88.483,88.483,0,0,1-9.994,6.91,90.6,90.6,0,0,1-10.259,5.343,29.732,29.732,0,0,1-8.048,2.487L123.5,239.01a66.017,66.017,0,0,0,30.247-17.135q-.179,3.869-.266,7.461t-.088,6.726v85.67H100.328v-118.1H87.946a36.649,36.649,0,0,1-7.075,7.186,88.483,88.483,0,0,1-9.994,6.91,90.6,90.6,0,0,1-10.259,5.343,29.743,29.743,0,0,1-8.048,2.487l3.715,13.451a65.993,65.993,0,0,0,30.246-17.135q-.177,3.869-.265,7.461t-.088,6.726v85.67H18.425V18.425H321.732Z"/>
      </g>
    </g>
</svg>
