<svg xmlns="http://www.w3.org/2000/svg" width="120mm" height="120mm" viewBox="0 0 340.158 340.157">
  <g id="Zimmernummer">
      <g id="Z-04-411-E">
        <path fill="#A09f9d" stroke="none" d="M337.323,0H2.835A2.834,2.834,0,0,0,0,2.835V337.323a2.834,2.834,0,0,0,2.835,2.834H337.323a2.834,2.834,0,0,0,2.835-2.834V2.835A2.834,2.834,0,0,0,337.323,0ZM106.6,280.65H64.677l30.6-44.773q2.827-4.236,6.191-9.949t5.483-10.319h.354q-.178,4.794-.442,9.766t-.266,9.765Zm215.134,41.082H256.416v-118.1H244.034a36.675,36.675,0,0,1-7.075,7.185,88.787,88.787,0,0,1-9.993,6.911,90.674,90.674,0,0,1-10.26,5.342,29.776,29.776,0,0,1-8.048,2.488l3.715,13.451a66,66,0,0,0,30.246-17.136q-.177,3.869-.265,7.462t-.089,6.726v85.67H189.2v-118.1H176.819a36.675,36.675,0,0,1-7.075,7.185,88.7,88.7,0,0,1-9.993,6.911,90.674,90.674,0,0,1-10.26,5.342,29.787,29.787,0,0,1-8.048,2.488l3.715,13.451A66,66,0,0,0,175.4,221.874q-.177,3.869-.265,7.462t-.088,6.726v85.67h-54.3V293.363h20.695V280.65H120.749V203.633H102.885l-53.243,78.86v10.87H106.6v28.369H18.425V18.425H321.732Z"/>
      </g>
    </g>
</svg>
