<svg xmlns="http://www.w3.org/2000/svg" width="120mm" height="120mm" viewBox="0 0 340.158 340.157">
  <g id="Zimmernummer">
      <g id="Z-04-035">
        <path fill="#000000" stroke="none" d="M337.323,0H2.835A2.836,2.836,0,0,0,0,2.835V337.323a2.834,2.834,0,0,0,2.835,2.834H337.323a2.834,2.834,0,0,0,2.835-2.834V2.835A2.836,2.836,0,0,0,337.323,0ZM321.732,321.732H281.915a37.409,37.409,0,0,0,7.676-5.429,35.744,35.744,0,0,0,8.844-12.806,43.9,43.9,0,0,0,3.132-16.951,42.688,42.688,0,0,0-4.791-20.636,34.223,34.223,0,0,0-13.358-13.726q-8.568-4.881-20.175-4.883a44.353,44.353,0,0,0-16.491,2.763,31.842,31.842,0,0,0-11.332,7.371h-.368l.368-1.659,4.791-38.324H296.04V203.633H227.682L220.5,270.517l12.9,2.395a24.589,24.589,0,0,1,7-6.817,29.478,29.478,0,0,1,9.12-3.778,47.658,47.658,0,0,1,10.963-1.2,30.3,30.3,0,0,1,14,2.948,20.106,20.106,0,0,1,8.752,8.752q3.041,5.8,3.04,14.464a27.6,27.6,0,0,1-3.316,13.911,22.517,22.517,0,0,1-9.305,8.937,30.853,30.853,0,0,1-14.464,3.132q-11.979,0-18.149-5.989a35.855,35.855,0,0,1-9.12-15.569l-14.372,7.555q5.341,13.085,15.2,20.452a31.735,31.735,0,0,0,3.073,2.02H184.3a35.6,35.6,0,0,0,13.438-12.338,34.706,34.706,0,0,0,5.251-18.978,28.028,28.028,0,0,0-1.75-9.857,26.021,26.021,0,0,0-5.067-8.384,24.952,24.952,0,0,0-8.015-5.9,27.015,27.015,0,0,0-10.779-2.394v-.369a25.524,25.524,0,0,0,8.66-3.04,26.541,26.541,0,0,0,7.278-6.172,29.232,29.232,0,0,0,5.067-9.121,35.8,35.8,0,0,0,1.842-11.884,31.14,31.14,0,0,0-4.145-15.846,29.818,29.818,0,0,0-12.437-11.515q-8.29-4.328-21-4.331a49.919,49.919,0,0,0-18.518,3.317,41.462,41.462,0,0,0-14.279,9.213A38.389,38.389,0,0,0,121,227.77l14,6.633a34.037,34.037,0,0,1,9.582-13.726q6.079-5.067,17.688-5.068,10.869,0,16.767,4.975t5.9,14.556q0,11.241-5.712,16.491t-19.163,5.251h-2.855a28.928,28.928,0,0,1-3.225-.185v14.741a48.647,48.647,0,0,1,4.975-.46q2.392-.092,4.422-.093,8.658,0,14,2.119a14.9,14.9,0,0,1,7.831,6.541A22.294,22.294,0,0,1,187.7,290.6a22.852,22.852,0,0,1-2.949,11.7,20.916,20.916,0,0,1-8.475,8.014,28.678,28.678,0,0,1-13.634,2.949q-9.584,0-15.938-2.764a25.215,25.215,0,0,1-10.226-7.831,39.4,39.4,0,0,1-6.081-11.884l-14.74,7.555a38.116,38.116,0,0,0,16.859,21.1c1.36.836,2.758,1.6,4.186,2.3H18.425V18.425H321.732Z"/>
      </g>
    </g>
</svg>
