<svg xmlns="http://www.w3.org/2000/svg" width="120mm" height="120mm" viewBox="0 0 340.158 340.157">
  <g id="Zimmernummer">
      <g id="Z-04-631-E">
        <path fill="#A09f9d" stroke="none" d="M337.323,0H2.835A2.834,2.834,0,0,0,0,2.835V337.323a2.834,2.834,0,0,0,2.835,2.834H337.323a2.834,2.834,0,0,0,2.835-2.834V2.835A2.834,2.834,0,0,0,337.323,0ZM56.19,300.273a25.081,25.081,0,0,1-3.36-12.805,25.913,25.913,0,0,1,3.184-12.99,22.971,22.971,0,0,1,8.932-8.844A26.853,26.853,0,0,1,78.3,262.409a28.849,28.849,0,0,1,13.8,3.04,20.779,20.779,0,0,1,8.667,8.66,27.95,27.95,0,0,1,3.006,13.359q0,11.979-6.72,18.7T78.3,312.9A24.992,24.992,0,0,1,56.19,300.273Zm265.542,21.459H276.4v-118.1H264.023a36.7,36.7,0,0,1-7.075,7.185,88.71,88.71,0,0,1-9.994,6.911,90.665,90.665,0,0,1-10.259,5.342,29.781,29.781,0,0,1-8.049,2.488l3.715,13.451a65.98,65.98,0,0,0,30.247-17.136q-.179,3.869-.265,7.462t-.089,6.726v85.67H194.079a34.752,34.752,0,0,0,12.9-12.338,35.8,35.8,0,0,0,5.041-18.978,29.082,29.082,0,0,0-1.68-9.857,26.252,26.252,0,0,0-4.864-8.384,24.045,24.045,0,0,0-7.695-5.9,25.071,25.071,0,0,0-10.347-2.394v-.369a23.865,23.865,0,0,0,8.313-3.04,25.79,25.79,0,0,0,6.987-6.172,29.6,29.6,0,0,0,4.864-9.121,37.188,37.188,0,0,0,1.769-11.884,32.158,32.158,0,0,0-3.98-15.846,29.125,29.125,0,0,0-11.94-11.515q-7.959-4.328-20.164-4.331a46.219,46.219,0,0,0-17.776,3.317,39.673,39.673,0,0,0-13.709,9.213,38.561,38.561,0,0,0-8.49,13.634l13.443,6.633a34.077,34.077,0,0,1,9.2-13.726q5.838-5.067,16.982-5.068,10.434,0,16.1,4.975t5.661,14.556q0,11.241-5.484,16.491t-18.4,5.251h-2.742a26.636,26.636,0,0,1-3.095-.185v14.741a44.862,44.862,0,0,1,4.775-.46q2.3-.092,4.245-.093,8.313,0,13.444,2.119a14.472,14.472,0,0,1,7.517,6.541A23.065,23.065,0,0,1,197.34,290.6a23.609,23.609,0,0,1-2.83,11.7,20.458,20.458,0,0,1-8.137,8.014,26.615,26.615,0,0,1-13.089,2.949q-9.2,0-15.3-2.764a24.364,24.364,0,0,1-9.816-7.831,40.022,40.022,0,0,1-5.837-11.884l-14.151,7.555a37.875,37.875,0,0,0,16.185,21.1c1.306.836,2.648,1.6,4.018,2.3H100.753a33.846,33.846,0,0,0,12.924-13.168,42.452,42.452,0,0,0,4.953-20.913q0-12.159-4.864-21a33.645,33.645,0,0,0-13.708-13.634,42.813,42.813,0,0,0-20.7-4.791,39.5,39.5,0,0,0-13,2.3,33.066,33.066,0,0,0-11.85,7.186,25.3,25.3,0,0,0-7.164,12.806h-.708V267.2a95.657,95.657,0,0,1,2.034-20.267,56,56,0,0,1,6.1-16.4,33,33,0,0,1,9.906-10.964,23.38,23.38,0,0,1,13.443-3.961q10.434,0,16.361,4.883a27.4,27.4,0,0,1,8.579,13.359l13.089-6.45a46.934,46.934,0,0,0-8.667-14.647,31.428,31.428,0,0,0-12.116-8.292,45.764,45.764,0,0,0-16.361-2.672,39.822,39.822,0,0,0-23.261,7.187q-10.347,7.185-16.361,21.1t-6.014,34.364q0,18.24,5.13,32.335t15.211,22.2a35.524,35.524,0,0,0,3.945,2.757H18.425V18.425H321.732Z"/>
      </g>
    </g>
</svg>
