<svg xmlns="http://www.w3.org/2000/svg" width="120mm" height="120mm" viewBox="0 0 340.158 340.157">
  <g id="Zimmernummer">
      <g id="Z-04-535-M">
        <path fill="#D4AF37" stroke="none" d="M337.323,0H2.835A2.836,2.836,0,0,0,0,2.835V337.323a2.834,2.834,0,0,0,2.835,2.834H337.323a2.834,2.834,0,0,0,2.835-2.834V2.835A2.836,2.836,0,0,0,337.323,0ZM321.732,321.732H280.276A35.2,35.2,0,0,0,296.135,303.5a45.5,45.5,0,0,0,3.007-16.951,44.157,44.157,0,0,0-4.6-20.636,33.633,33.633,0,0,0-12.824-13.726,37.252,37.252,0,0,0-19.368-4.883,41.051,41.051,0,0,0-15.831,2.763,30.467,30.467,0,0,0-10.879,7.371h-.354l.354-1.659,4.6-38.324h53.595V203.633H228.212l-6.9,66.884,12.382,2.395a24.084,24.084,0,0,1,6.722-6.817,27.693,27.693,0,0,1,8.756-3.778,44,44,0,0,1,10.524-1.2,28.117,28.117,0,0,1,13.443,2.948,19.721,19.721,0,0,1,8.4,8.752q2.918,5.8,2.918,14.464a28.51,28.51,0,0,1-3.184,13.911,22.027,22.027,0,0,1-8.932,8.937,28.633,28.633,0,0,1-13.885,3.132q-11.5,0-17.423-5.989a36.205,36.205,0,0,1-8.756-15.569l-13.8,7.555q5.128,13.085,14.593,20.452a30.306,30.306,0,0,0,2.951,2.02H190.106a34.763,34.763,0,0,0,12.9-12.338,35.8,35.8,0,0,0,5.041-18.978,29.083,29.083,0,0,0-1.681-9.857,26.234,26.234,0,0,0-4.864-8.384,24.041,24.041,0,0,0-7.694-5.9,25.072,25.072,0,0,0-10.348-2.394v-.369a23.858,23.858,0,0,0,8.313-3.04,25.794,25.794,0,0,0,6.988-6.172,29.641,29.641,0,0,0,4.864-9.121A37.188,37.188,0,0,0,205.4,233.3a32.158,32.158,0,0,0-3.98-15.846,29.134,29.134,0,0,0-11.939-11.515q-7.961-4.328-20.165-4.331a46.22,46.22,0,0,0-17.777,3.317,39.7,39.7,0,0,0-13.709,9.213,38.618,38.618,0,0,0-8.49,13.634l13.443,6.633a34.07,34.07,0,0,1,9.2-13.726q5.835-5.067,16.98-5.068,10.434,0,16.1,4.975t5.66,14.556q0,11.241-5.483,16.491t-18.4,5.251h-2.741a26.666,26.666,0,0,1-3.1-.185v14.741a44.88,44.88,0,0,1,4.776-.46q2.3-.092,4.246-.093,8.311,0,13.442,2.119a14.468,14.468,0,0,1,7.517,6.541,23.065,23.065,0,0,1,2.388,11.055,23.609,23.609,0,0,1-2.83,11.7,20.458,20.458,0,0,1-8.137,8.014,26.614,26.614,0,0,1-13.088,2.949q-9.2,0-15.3-2.764a24.363,24.363,0,0,1-9.818-7.831,40.046,40.046,0,0,1-5.837-11.884l-14.15,7.555a37.875,37.875,0,0,0,16.185,21.1c1.305.836,2.647,1.6,4.018,2.3H98.976A35.212,35.212,0,0,0,114.835,303.5a45.519,45.519,0,0,0,3.007-16.951,44.133,44.133,0,0,0-4.6-20.636,33.624,33.624,0,0,0-12.823-13.726A37.251,37.251,0,0,0,81.05,247.3a41.058,41.058,0,0,0-15.831,2.763,30.472,30.472,0,0,0-10.878,7.371h-.354l.354-1.659,4.6-38.324h53.6V203.633H46.912l-6.9,66.884L52.4,272.912a24.078,24.078,0,0,1,6.72-6.817,27.712,27.712,0,0,1,8.756-3.778,44,44,0,0,1,10.524-1.2,28.116,28.116,0,0,1,13.444,2.948,19.727,19.727,0,0,1,8.4,8.752q2.919,5.8,2.918,14.464a28.521,28.521,0,0,1-3.183,13.911,22.042,22.042,0,0,1-8.933,8.937,28.635,28.635,0,0,1-13.886,3.132q-11.5,0-17.423-5.989a36.2,36.2,0,0,1-8.755-15.569l-13.8,7.555q5.129,13.085,14.592,20.452a30.306,30.306,0,0,0,2.951,2.02h-36.3V18.425H321.732Z"/>
      </g>
    </g>
</svg>
