<svg xmlns="http://www.w3.org/2000/svg" width="120mm" height="120mm" viewBox="0 0 340.158 340.157">
  <g id="Zimmernummer">
      <g id="Z-04-440-E">
        <path fill="#A09f9d" stroke="none" d="M337.323,0H2.835A2.836,2.836,0,0,0,0,2.835V337.323a2.834,2.834,0,0,0,2.835,2.834H337.323a2.834,2.834,0,0,0,2.835-2.834V2.835A2.836,2.836,0,0,0,337.323,0ZM80.429,280.65H38.508l30.6-44.773q2.826-4.236,6.19-9.949t5.483-10.319h.354q-.177,4.794-.441,9.766t-.266,9.765Zm99.229,0h-41.92l30.6-44.773q2.828-4.236,6.191-9.949t5.483-10.319h.353q-.177,4.794-.442,9.766t-.265,9.765Zm60.4,10.871q-3.275-11.055-3.273-27.084t3.273-27.086q3.27-11.055,9.728-16.674a25.107,25.107,0,0,1,31.662,0q6.456,5.622,9.729,16.674t3.272,27.086q0,16.029-3.272,27.084T281.452,308.2a25.111,25.111,0,0,1-31.662,0Q243.333,302.577,240.062,291.521Zm81.67,30.211H285.945a39.837,39.837,0,0,0,11.426-10.68q11.762-16.031,11.763-46.615T297.371,217.82q-11.763-16.029-31.75-16.03-19.812,0-31.662,16.03t-11.85,46.617q0,30.585,11.85,46.615a40.313,40.313,0,0,0,11.453,10.68h-51.6V293.363H214.5V280.65H193.809V203.633H175.944L122.7,282.493v10.87h56.956v28.369H94.579V293.363h20.7V280.65h-20.7V203.633H76.714l-53.241,78.86v10.87H80.429v28.369h-62V18.425H321.732Z"/>
      </g>
    </g>
</svg>
