<svg xmlns="http://www.w3.org/2000/svg" width="120mm" height="120mm" viewBox="0 0 340.158 340.157">
  <g id="Zimmernummer">
      <g id="Z-04-001-E">
        <path fill="#A09f9d" stroke="none" d="M339.328.831a2.835,2.835,0,0,0-2-.831H2.835A2.836,2.836,0,0,0,0,2.835V337.323a2.834,2.834,0,0,0,2.835,2.834H337.323a2.834,2.834,0,0,0,2.835-2.834V2.835A2.835,2.835,0,0,0,339.328.831Zm-17.6,320.9h-27.9V203.516h-12.9a37.48,37.48,0,0,1-7.37,7.185,92.554,92.554,0,0,1-10.41,6.91,96.13,96.13,0,0,1-10.687,5.343,31.95,31.95,0,0,1-8.384,2.487l3.87,13.451a67.493,67.493,0,0,0,16.951-6.541,66.164,66.164,0,0,0,14.556-10.595q-.186,3.87-.276,7.463t-.093,6.725v85.788H18.425V18.425H321.732Z"/>
      </g>
    </g>
</svg>
