<svg xmlns="http://www.w3.org/2000/svg" width="120mm" height="120mm" viewBox="0 0 340.158 340.158">
  <g id="Zimmernummer">
      <g id="Z-04-619-R">
        <path fill="#A0552B" stroke="none" d="M337.323,0H2.835A2.836,2.836,0,0,0,0,2.835V337.323a2.836,2.836,0,0,0,2.835,2.835H337.323a2.836,2.836,0,0,0,2.835-2.835V2.835A2.836,2.836,0,0,0,337.323,0ZM64.954,300.273a25.063,25.063,0,0,1-3.362-12.805,25.913,25.913,0,0,1,3.184-12.99,22.971,22.971,0,0,1,8.932-8.844,26.858,26.858,0,0,1,13.355-3.225,28.849,28.849,0,0,1,13.8,3.04,20.781,20.781,0,0,1,8.668,8.66,27.95,27.95,0,0,1,3.007,13.359q0,11.979-6.722,18.7T87.063,312.9a24.988,24.988,0,0,1-22.109-12.622Zm256.778,21.459H271.081c.979-.57,1.936-1.175,2.856-1.836q9.99-7.186,15.123-21.1t5.13-34.362q0-18.425-5.13-32.521t-15.212-22.11q-10.083-8.016-24.764-8.016-12.561,0-21.579,5.067a34.118,34.118,0,0,0-13.8,14.188q-4.774,9.12-4.776,21.649,0,11.609,4.953,20.084a34.23,34.23,0,0,0,13.8,13.174,42.7,42.7,0,0,0,20.342,4.7,41.491,41.491,0,0,0,13.178-2.211,31.6,31.6,0,0,0,11.939-7.278A27.353,27.353,0,0,0,280.57,257.8h.708v1.658a149,149,0,0,1-1.5,22.11,57.388,57.388,0,0,1-5.041,17.044,26.1,26.1,0,0,1-9.641,10.87q-6.1,3.78-15.3,3.778-11.321,0-17.776-5.9a33.088,33.088,0,0,1-9.287-15.477l-13.974,7.738q5.129,13.452,15.567,20.452,1.314.882,2.693,1.652H187.353v-118.1H174.971a36.675,36.675,0,0,1-7.075,7.185,88.619,88.619,0,0,1-9.994,6.911,90.58,90.58,0,0,1-10.259,5.342,29.787,29.787,0,0,1-8.048,2.488l3.714,13.451a65.98,65.98,0,0,0,30.247-17.136q-.177,3.869-.264,7.462t-.089,6.726v85.67H109.515a33.842,33.842,0,0,0,12.925-13.168,42.463,42.463,0,0,0,4.953-20.913q0-12.159-4.865-21a33.633,33.633,0,0,0-13.708-13.634,42.806,42.806,0,0,0-20.695-4.791,39.5,39.5,0,0,0-13,2.3,33.079,33.079,0,0,0-11.851,7.186,25.314,25.314,0,0,0-7.164,12.806H55.4V267.2a95.657,95.657,0,0,1,2.034-20.267,55.941,55.941,0,0,1,6.1-16.4,32.975,32.975,0,0,1,9.905-10.964,23.376,23.376,0,0,1,13.442-3.961q10.436,0,16.363,4.883a27.411,27.411,0,0,1,8.578,13.359l13.09-6.45a46.973,46.973,0,0,0-8.668-14.647,31.416,31.416,0,0,0-12.117-8.292,45.757,45.757,0,0,0-16.361-2.672,39.824,39.824,0,0,0-23.26,7.187q-10.347,7.185-16.361,21.1t-6.015,34.364q0,18.24,5.13,32.335t15.212,22.2a35.536,35.536,0,0,0,3.946,2.757h-48V18.425H321.732Zm-47-80.328a25.9,25.9,0,0,1-3.184,12.991,22.955,22.955,0,0,1-8.932,8.843,26.837,26.837,0,0,1-13.355,3.225q-11.674,0-18.573-6.357t-6.9-17.227q0-12.714,6.544-19.808t18.927-7.093a27.488,27.488,0,0,1,13.355,3.132,22.213,22.213,0,0,1,8.932,8.844A27.2,27.2,0,0,1,274.733,241.4Z"/>
      </g>
    </g>
</svg>
