<svg xmlns="http://www.w3.org/2000/svg" width="120mm" height="120mm" viewBox="0 0 340.158 340.158">
  <g id="Zimmernummer">
      <g id="Z-04-519-R">
        <path fill="#A0552B" stroke="none" d="M337.323,0H2.835A2.836,2.836,0,0,0,0,2.835V337.323a2.836,2.836,0,0,0,2.835,2.835H337.323a2.836,2.836,0,0,0,2.835-2.835V2.835A2.836,2.836,0,0,0,337.323,0ZM321.732,321.732H263.474c.979-.57,1.936-1.175,2.856-1.836q9.992-7.186,15.123-21.1t5.13-34.362q0-18.425-5.13-32.521t-15.212-22.11q-10.082-8.016-24.763-8.016-12.561,0-21.58,5.067a34.124,34.124,0,0,0-13.8,14.188q-4.774,9.12-4.775,21.649,0,11.609,4.952,20.084a34.236,34.236,0,0,0,13.8,13.174,42.7,42.7,0,0,0,20.342,4.7,41.476,41.476,0,0,0,13.177-2.211,31.6,31.6,0,0,0,11.94-7.278,27.345,27.345,0,0,0,7.429-13.358h.708v1.658a148.866,148.866,0,0,1-1.5,22.11,57.388,57.388,0,0,1-5.041,17.044,26.113,26.113,0,0,1-9.64,10.87q-6.1,3.78-15.3,3.778-11.322,0-17.776-5.9a33.087,33.087,0,0,1-9.286-15.477l-13.974,7.738q5.129,13.452,15.566,20.452,1.314.882,2.693,1.652H179.747v-118.1H167.365a36.732,36.732,0,0,1-7.075,7.185,88.892,88.892,0,0,1-9.994,6.911,90.674,90.674,0,0,1-10.26,5.342,29.776,29.776,0,0,1-8.048,2.488L135.7,239.01a65.993,65.993,0,0,0,30.247-17.136q-.178,3.869-.266,7.462t-.089,6.726v85.67H111.178a35.195,35.195,0,0,0,15.86-18.235,45.5,45.5,0,0,0,3.007-16.951,44.145,44.145,0,0,0-4.6-20.636,33.627,33.627,0,0,0-12.824-13.726A37.25,37.25,0,0,0,93.254,247.3a41.051,41.051,0,0,0-15.831,2.763,30.472,30.472,0,0,0-10.878,7.371h-.354l.354-1.659,4.6-38.324h53.6V203.633H59.116l-6.9,66.884,12.38,2.395A24.11,24.11,0,0,1,71.32,266.1a27.7,27.7,0,0,1,8.756-3.778,44,44,0,0,1,10.524-1.2,28.118,28.118,0,0,1,13.444,2.948,19.719,19.719,0,0,1,8.4,8.752q2.919,5.8,2.919,14.464a28.521,28.521,0,0,1-3.184,13.911,22.039,22.039,0,0,1-8.932,8.937,28.637,28.637,0,0,1-13.886,3.132q-11.5,0-17.423-5.989a36.216,36.216,0,0,1-8.756-15.569l-13.8,7.555q5.127,13.085,14.592,20.452a30.5,30.5,0,0,0,2.952,2.02H18.425V18.425H321.732ZM267.126,241.4a25.9,25.9,0,0,1-3.184,12.991,22.948,22.948,0,0,1-8.932,8.843,26.837,26.837,0,0,1-13.355,3.225q-11.674,0-18.572-6.357t-6.9-17.227q0-12.714,6.544-19.808t18.927-7.093a27.488,27.488,0,0,1,13.355,3.132,22.206,22.206,0,0,1,8.932,8.844A27.2,27.2,0,0,1,267.126,241.4Z"/>
      </g>
    </g>
</svg>
