<svg xmlns="http://www.w3.org/2000/svg" width="120mm" height="120mm" viewBox="0 0 340.158 340.157">
  <g id="Zimmernummer">
      <g id="Z-04-065-R">
        <path fill="#A0552B" stroke="none" d="M337.323,0H2.835A2.836,2.836,0,0,0,0,2.835V337.323a2.834,2.834,0,0,0,2.835,2.834H337.323a2.834,2.834,0,0,0,2.835-2.834V2.835A2.836,2.836,0,0,0,337.323,0ZM138.875,300.273a24.3,24.3,0,0,1-3.5-12.805,25.086,25.086,0,0,1,3.316-12.99A23.482,23.482,0,0,1,148,265.634a28.91,28.91,0,0,1,13.911-3.225,31.091,31.091,0,0,1,14.372,3.04,21.23,21.23,0,0,1,9.028,8.66,27.029,27.029,0,0,1,3.132,13.359q0,11.979-7,18.7T161.906,312.9a26.849,26.849,0,0,1-13.542-3.41A25.733,25.733,0,0,1,138.875,300.273Zm182.857,21.459H281.915a37.376,37.376,0,0,0,7.675-5.429,35.746,35.746,0,0,0,8.845-12.806,43.9,43.9,0,0,0,3.132-16.951,42.688,42.688,0,0,0-4.791-20.636,34.23,34.23,0,0,0-13.358-13.726q-8.568-4.881-20.176-4.883a44.36,44.36,0,0,0-16.491,2.763,31.838,31.838,0,0,0-11.331,7.371h-.368l.368-1.659,4.791-38.324h55.828V203.633H227.682L220.5,270.517l12.9,2.395a24.6,24.6,0,0,1,7-6.817,29.484,29.484,0,0,1,9.121-3.778,47.658,47.658,0,0,1,10.963-1.2,30.3,30.3,0,0,1,14,2.948,20.106,20.106,0,0,1,8.752,8.752q3.039,5.8,3.04,14.464a27.6,27.6,0,0,1-3.316,13.911,22.523,22.523,0,0,1-9.305,8.937,30.853,30.853,0,0,1-14.464,3.132q-11.979,0-18.149-5.989a35.866,35.866,0,0,1-9.121-15.569l-14.371,7.555q5.341,13.085,15.2,20.452a31.613,31.613,0,0,0,3.073,2.02H185.294a34.537,34.537,0,0,0,13.462-13.168,41.1,41.1,0,0,0,5.16-20.913q0-12.159-5.067-21a34.383,34.383,0,0,0-14.28-13.634q-9.216-4.791-21.557-4.791a42.688,42.688,0,0,0-13.543,2.3,34.741,34.741,0,0,0-12.344,7.186,25.069,25.069,0,0,0-7.463,12.806h-.737V267.2a91.944,91.944,0,0,1,2.119-20.267,54.615,54.615,0,0,1,6.357-16.4,33.514,33.514,0,0,1,10.318-10.964,25.086,25.086,0,0,1,14-3.961q10.869,0,17.043,4.883a27.332,27.332,0,0,1,8.937,13.359l13.634-6.45a46.609,46.609,0,0,0-9.028-14.647,32.813,32.813,0,0,0-12.621-8.292,49.473,49.473,0,0,0-17.044-2.672,42.7,42.7,0,0,0-24.229,7.187q-10.779,7.185-17.043,21.1t-6.265,34.364q0,18.24,5.344,32.335t15.845,22.2a37.122,37.122,0,0,0,4.11,2.757H18.425V18.425H321.732Z"/>
      </g>
    </g>
</svg>
