<svg xmlns="http://www.w3.org/2000/svg" width="120mm" height="120mm" viewBox="0 0 340.158 340.158">
  <g id="Zimmernummer">
      <g id="Z-04-529">
        <path fill="#000000" stroke="none" d="M337.323,0H2.835A2.836,2.836,0,0,0,0,2.835V337.323a2.836,2.836,0,0,0,2.835,2.835H337.323a2.836,2.836,0,0,0,2.835-2.835V2.835A2.836,2.836,0,0,0,337.323,0ZM321.732,321.732H278.774c.979-.57,1.936-1.175,2.856-1.836q9.991-7.186,15.123-21.1t5.13-34.362q0-18.425-5.13-32.521t-15.212-22.11q-10.082-8.016-24.763-8.016-12.561,0-21.58,5.067a34.124,34.124,0,0,0-13.8,14.188q-4.775,9.12-4.775,21.649,0,11.609,4.952,20.084a34.242,34.242,0,0,0,13.8,13.174,42.7,42.7,0,0,0,20.342,4.7,41.487,41.487,0,0,0,13.178-2.211,31.6,31.6,0,0,0,11.939-7.278,27.345,27.345,0,0,0,7.429-13.358h.708v1.658a148.866,148.866,0,0,1-1.5,22.11,57.388,57.388,0,0,1-5.041,17.044,26.113,26.113,0,0,1-9.64,10.87q-6.1,3.78-15.3,3.778-11.321,0-17.776-5.9a33.087,33.087,0,0,1-9.286-15.477l-13.974,7.738q5.128,13.452,15.566,20.452,1.314.882,2.693,1.652H205.13V311.42H164.271q-1.771,0-5.219.093t-6.9.183q-3.448.1-5.394.277v-.184q20.87-14.553,33.077-26.532t17.511-22.94a50.848,50.848,0,0,0,5.306-22.386,42.164,42.164,0,0,0-2.741-15.478,34.42,34.42,0,0,0-7.871-12.068,35.378,35.378,0,0,0-12.294-7.83,44.676,44.676,0,0,0-16.185-2.765q-11.852,0-20.429,4.606a35.534,35.534,0,0,0-13.62,12.714A48.788,48.788,0,0,0,122.88,237.9l12.382,7.739q1.235-13.633,8.49-21.834t19.28-8.2q11.5,0,18.13,6.726t6.633,17.6a41.281,41.281,0,0,1-3.007,15.569,58.812,58.812,0,0,1-10.082,15.754,176.031,176.031,0,0,1-18.838,18.425q-11.766,10.135-29.274,23.584v8.469H95.879A35.2,35.2,0,0,0,111.738,303.5a45.5,45.5,0,0,0,3.008-16.951,44.133,44.133,0,0,0-4.6-20.636,33.618,33.618,0,0,0-12.823-13.726A37.248,37.248,0,0,0,77.954,247.3a41.055,41.055,0,0,0-15.831,2.763,30.472,30.472,0,0,0-10.878,7.371h-.353l.353-1.659,4.6-38.324h53.595V203.633H43.816l-6.9,66.884L49.3,272.912a24.094,24.094,0,0,1,6.721-6.817,27.7,27.7,0,0,1,8.755-3.778,44.01,44.01,0,0,1,10.525-1.2,28.114,28.114,0,0,1,13.443,2.948,19.727,19.727,0,0,1,8.4,8.752q2.919,5.8,2.918,14.464a28.521,28.521,0,0,1-3.183,13.911,22.042,22.042,0,0,1-8.933,8.937,28.635,28.635,0,0,1-13.886,3.132q-11.5,0-17.422-5.989a36.2,36.2,0,0,1-8.755-15.569l-13.8,7.555q5.128,13.085,14.593,20.452a30.485,30.485,0,0,0,2.951,2.02H18.425V18.425H321.732ZM282.426,241.4a25.9,25.9,0,0,1-3.184,12.991,22.948,22.948,0,0,1-8.932,8.843,26.837,26.837,0,0,1-13.355,3.225q-11.674,0-18.572-6.357t-6.9-17.227q0-12.714,6.544-19.808t18.927-7.093a27.488,27.488,0,0,1,13.355,3.132,22.206,22.206,0,0,1,8.932,8.844A27.2,27.2,0,0,1,282.426,241.4Z"/>
      </g>
    </g>
</svg>
