<svg xmlns="http://www.w3.org/2000/svg" width="120mm" height="120mm" viewBox="0 0 340.158 340.158">
  <g id="Zimmernummer">
      <g id="Z-04-139">
        <path fill="#000000" stroke="none" d="M337.323,0H2.835A2.836,2.836,0,0,0,0,2.835V337.323a2.836,2.836,0,0,0,2.835,2.835H337.323a2.836,2.836,0,0,0,2.835-2.835V2.835A2.836,2.836,0,0,0,337.323,0ZM321.732,321.732h-56.4c.98-.57,1.936-1.175,2.856-1.836q9.991-7.186,15.124-21.1t5.129-34.362q0-18.425-5.129-32.521T268.1,209.806q-10.083-8.016-24.763-8.016-12.562,0-21.58,5.067a34.112,34.112,0,0,0-13.8,14.188q-4.776,9.12-4.776,21.649,0,11.609,4.953,20.084a34.23,34.23,0,0,0,13.8,13.174,42.7,42.7,0,0,0,20.341,4.7,41.487,41.487,0,0,0,13.178-2.211,31.6,31.6,0,0,0,11.939-7.278,27.354,27.354,0,0,0,7.43-13.358h.707v1.658a149.008,149.008,0,0,1-1.5,22.11,57.387,57.387,0,0,1-5.042,17.044,26.106,26.106,0,0,1-9.64,10.87q-6.1,3.78-15.3,3.778-11.322,0-17.777-5.9a33.087,33.087,0,0,1-9.286-15.477l-13.973,7.738q5.127,13.452,15.565,20.452,1.314.882,2.693,1.652H170.031a34.745,34.745,0,0,0,12.9-12.338,35.8,35.8,0,0,0,5.042-18.978,29.058,29.058,0,0,0-1.681-9.857,26.234,26.234,0,0,0-4.864-8.384,24.052,24.052,0,0,0-7.694-5.9,25.072,25.072,0,0,0-10.348-2.394v-.369a23.865,23.865,0,0,0,8.313-3.04,25.776,25.776,0,0,0,6.987-6.172,29.622,29.622,0,0,0,4.865-9.121,37.188,37.188,0,0,0,1.769-11.884,32.158,32.158,0,0,0-3.98-15.846,29.137,29.137,0,0,0-11.94-11.515q-7.961-4.328-20.164-4.331a46.22,46.22,0,0,0-17.777,3.317,39.678,39.678,0,0,0-13.708,9.213,38.578,38.578,0,0,0-8.491,13.634L122.7,234.4a34.079,34.079,0,0,1,9.2-13.726q5.838-5.067,16.981-5.068,10.434,0,16.1,4.975t5.66,14.556q0,11.241-5.483,16.491t-18.4,5.251h-2.741a26.666,26.666,0,0,1-3.1-.185v14.741a44.88,44.88,0,0,1,4.776-.46q2.3-.092,4.245-.093,8.313,0,13.443,2.119a14.474,14.474,0,0,1,7.518,6.541,23.077,23.077,0,0,1,2.387,11.055,23.609,23.609,0,0,1-2.83,11.7,20.455,20.455,0,0,1-8.136,8.014,26.621,26.621,0,0,1-13.089,2.949q-9.2,0-15.3-2.764a24.367,24.367,0,0,1-9.817-7.831,40.07,40.07,0,0,1-5.837-11.884l-14.15,7.555a37.878,37.878,0,0,0,16.184,21.1c1.306.836,2.648,1.6,4.019,2.3H87.328v-118.1H74.947a36.712,36.712,0,0,1-7.076,7.185,88.71,88.71,0,0,1-9.994,6.911,90.58,90.58,0,0,1-10.259,5.342,29.787,29.787,0,0,1-8.048,2.488l3.714,13.451a63.293,63.293,0,0,0,16.273-6.541,63.706,63.706,0,0,0,13.974-10.595q-.178,3.869-.265,7.462t-.089,6.726v85.67H18.425V18.425H321.732ZM268.984,241.4A25.9,25.9,0,0,1,265.8,254.4a22.957,22.957,0,0,1-8.933,8.843,26.837,26.837,0,0,1-13.355,3.225q-11.673,0-18.572-6.357t-6.9-17.227q0-12.714,6.545-19.808t18.926-7.093a27.488,27.488,0,0,1,13.355,3.132,22.215,22.215,0,0,1,8.933,8.844A27.2,27.2,0,0,1,268.984,241.4Z"/>
      </g>
    </g>
</svg>
