<svg xmlns="http://www.w3.org/2000/svg" width="120mm" height="120mm" viewBox="0 0 340.158 340.157">
  <g id="Zimmernummer">
      <g id="Z-04-441">
        <path fill="#000000" stroke="none" d="M337.323,0H2.835A2.834,2.834,0,0,0,0,2.835V337.323a2.834,2.834,0,0,0,2.835,2.834H337.323a2.834,2.834,0,0,0,2.835-2.834V2.835A2.834,2.834,0,0,0,337.323,0ZM94.484,280.65H52.563l30.6-44.773q2.828-4.236,6.191-9.949t5.483-10.319h.354q-.177,4.794-.443,9.766t-.264,9.765Zm34.845,12.713H183.1v28.369H108.634V293.363h20.7Zm54.036-67.988q-.266,4.974-.265,9.765v45.51H141.179l30.6-44.773q2.826-4.236,6.19-9.949t5.483-10.319h.354Q183.63,220.4,183.365,225.375Zm138.367,96.357h-53.2v-118.1H256.151a36.683,36.683,0,0,1-7.076,7.185,88.619,88.619,0,0,1-9.994,6.911,90.571,90.571,0,0,1-10.258,5.342,29.808,29.808,0,0,1-8.048,2.488l3.714,13.451a65.993,65.993,0,0,0,30.247-17.136q-.18,3.869-.266,7.462t-.088,6.726v85.67H197.25V293.363h20.7V280.65h-20.7V203.633H179.385l-52,77.017H108.634V203.633H90.769l-53.241,78.86v10.87H94.484v28.369H18.425V18.425H321.732Z"/>
      </g>
    </g>
</svg>
