<svg xmlns="http://www.w3.org/2000/svg" width="120mm" height="120mm" viewBox="0 0 340.158 340.158">
  <g id="Zimmernummer">
      <g id="Z-04-026-E">
        <path fill="#A09f9d" stroke="none" d="M339.327.831a2.835,2.835,0,0,0-2-.831H2.835A2.836,2.836,0,0,0,0,2.835V337.323a2.836,2.836,0,0,0,2.835,2.835H337.323a2.837,2.837,0,0,0,2.835-2.835V2.835A2.831,2.831,0,0,0,339.327.831ZM236.351,300.156a24.31,24.31,0,0,1-3.5-12.806,25.087,25.087,0,0,1,3.317-12.99,23.477,23.477,0,0,1,9.3-8.843,28.91,28.91,0,0,1,13.911-3.225,31.078,31.078,0,0,1,14.372,3.04,21.218,21.218,0,0,1,9.028,8.66,27.025,27.025,0,0,1,3.133,13.358q0,11.979-7,18.7t-19.531,6.725a26.848,26.848,0,0,1-13.542-3.409A25.741,25.741,0,0,1,236.351,300.156Zm85.381,21.576H282.56a34.566,34.566,0,0,0,13.673-13.285,41.107,41.107,0,0,0,5.159-20.913q0-12.16-5.067-21a34.392,34.392,0,0,0-14.28-13.635q-9.215-4.79-21.557-4.791a42.7,42.7,0,0,0-13.543,2.3,34.727,34.727,0,0,0-12.344,7.186,25.07,25.07,0,0,0-7.463,12.805H226.4v-3.316a91.975,91.975,0,0,1,2.119-20.269,54.629,54.629,0,0,1,6.357-16.4A33.511,33.511,0,0,1,245.2,219.453a25.08,25.08,0,0,1,14-3.961q10.869,0,17.043,4.883a27.329,27.329,0,0,1,8.937,13.358l13.634-6.449a46.585,46.585,0,0,0-9.028-14.648,32.822,32.822,0,0,0-12.621-8.291,49.449,49.449,0,0,0-17.044-2.672,42.7,42.7,0,0,0-24.229,7.186q-10.777,7.185-17.043,21.1t-6.264,34.362q0,18.241,5.343,32.337t15.845,22.2a36.962,36.962,0,0,0,4.325,2.875H203.371V311.3H160.809q-1.843,0-5.435.092t-7.186.184q-3.594.1-5.62.276v-.184q21.739-14.551,34.455-26.532T195.264,262.2a49.2,49.2,0,0,0,5.528-22.387,40.648,40.648,0,0,0-2.856-15.477,34.3,34.3,0,0,0-8.2-12.068,37.093,37.093,0,0,0-12.806-7.831,48.284,48.284,0,0,0-16.859-2.764q-12.346,0-21.281,4.606A36.444,36.444,0,0,0,124.6,218.993a47.549,47.549,0,0,0-6.91,18.793l12.9,7.739q1.287-13.632,8.844-21.834t20.083-8.2q11.975,0,18.886,6.725t6.909,17.6a39.833,39.833,0,0,1-3.132,15.57,58.583,58.583,0,0,1-10.5,15.753,180,180,0,0,1-19.623,18.426Q139.8,299.7,121.563,313.146v8.586H18.425V18.425H321.732Z"/>
      </g>
    </g>
</svg>
