<svg xmlns="http://www.w3.org/2000/svg" width="120mm" height="120mm" viewBox="0 0 340.158 340.157">
  <g id="Zimmernummer">
      <g id="Z-04-320-R">
        <path fill="#A0552B" stroke="none" d="M337.323,0H2.835A2.836,2.836,0,0,0,0,2.835V337.323a2.834,2.834,0,0,0,2.835,2.834H337.323a2.834,2.834,0,0,0,2.835-2.834V2.835A2.836,2.836,0,0,0,337.323,0ZM236.885,291.521q-3.276-11.055-3.273-27.084t3.273-27.086q3.27-11.055,9.728-16.674a25.106,25.106,0,0,1,31.661,0Q284.73,226.3,288,237.351t3.272,27.086q0,16.029-3.272,27.084T278.274,308.2a25.109,25.109,0,0,1-31.661,0Q240.154,302.577,236.885,291.521Zm84.847,30.211H282.767a39.84,39.84,0,0,0,11.427-10.68q11.762-16.031,11.763-46.615T294.194,217.82q-11.765-16.029-31.751-16.03-19.812,0-31.661,16.03t-11.851,46.617q0,30.585,11.851,46.615a40.323,40.323,0,0,0,11.452,10.68H204.781V311.42H163.922q-1.77,0-5.218.093t-6.9.183q-3.45.1-5.4.277v-.184q20.868-14.553,33.076-26.532T197,262.317a50.861,50.861,0,0,0,5.306-22.386,42.123,42.123,0,0,0-2.742-15.478,34.392,34.392,0,0,0-7.871-12.068,35.364,35.364,0,0,0-12.293-7.83,44.676,44.676,0,0,0-16.185-2.765q-11.853,0-20.43,4.606a35.524,35.524,0,0,0-13.619,12.714,48.805,48.805,0,0,0-6.634,18.794l12.382,7.739q1.236-13.633,8.49-21.834t19.281-8.2q11.5,0,18.13,6.726t6.633,17.6A41.3,41.3,0,0,1,184.44,255.5a58.793,58.793,0,0,1-10.083,15.754,175.915,175.915,0,0,1-18.837,18.425q-11.766,10.135-29.274,23.584v8.469H92.386a34.752,34.752,0,0,0,12.9-12.338,35.8,35.8,0,0,0,5.041-18.978,29.058,29.058,0,0,0-1.681-9.857,26.234,26.234,0,0,0-4.864-8.384,24.03,24.03,0,0,0-7.694-5.9,25.072,25.072,0,0,0-10.348-2.394v-.369a23.87,23.87,0,0,0,8.314-3.04,25.805,25.805,0,0,0,6.987-6.172,29.6,29.6,0,0,0,4.864-9.121,37.188,37.188,0,0,0,1.769-11.884,32.158,32.158,0,0,0-3.98-15.846,29.125,29.125,0,0,0-11.94-11.515q-7.959-4.328-20.164-4.331a46.224,46.224,0,0,0-17.777,3.317,39.678,39.678,0,0,0-13.708,9.213,38.575,38.575,0,0,0-8.49,13.634L45.059,234.4a34.067,34.067,0,0,1,9.2-13.726q5.838-5.067,16.981-5.068,10.434,0,16.1,4.975t5.661,14.556q0,11.241-5.484,16.491t-18.4,5.251H66.373a26.679,26.679,0,0,1-3.1-.185v14.741a44.9,44.9,0,0,1,4.776-.46q2.3-.092,4.245-.093,8.313,0,13.443,2.119a14.474,14.474,0,0,1,7.518,6.541A23.065,23.065,0,0,1,95.647,290.6a23.609,23.609,0,0,1-2.83,11.7,20.458,20.458,0,0,1-8.137,8.014,26.618,26.618,0,0,1-13.089,2.949q-9.2,0-15.3-2.764a24.354,24.354,0,0,1-9.817-7.831,40.022,40.022,0,0,1-5.837-11.884l-14.151,7.555a37.875,37.875,0,0,0,16.185,21.1c1.306.836,2.647,1.6,4.018,2.3H18.425V18.425H321.732Z"/>
      </g>
    </g>
</svg>
