<svg xmlns="http://www.w3.org/2000/svg" width="120mm" height="120mm" viewBox="0 0 340.158 340.158">
  <g id="Zimmernummer">
      <g id="Z-04-602-R">
        <path fill="#A0552B" stroke="none" d="M337.323,0H2.835A2.836,2.836,0,0,0,0,2.835V337.323a2.836,2.836,0,0,0,2.835,2.835H337.323a2.836,2.836,0,0,0,2.835-2.835V2.835A2.836,2.836,0,0,0,337.323,0ZM54.517,300.274a25.085,25.085,0,0,1-3.36-12.806,25.912,25.912,0,0,1,3.183-12.99,22.987,22.987,0,0,1,8.933-8.844,26.862,26.862,0,0,1,13.354-3.224,28.835,28.835,0,0,1,13.8,3.04,20.767,20.767,0,0,1,8.667,8.66,27.946,27.946,0,0,1,3.008,13.358q0,11.98-6.722,18.7T76.627,312.9a24.985,24.985,0,0,1-22.11-12.621Zm90.3-8.752q-3.276-11.055-3.272-27.085t3.272-27.086q3.272-11.053,9.729-16.674a25.107,25.107,0,0,1,31.662,0q6.453,5.622,9.728,16.674t3.273,27.086q0,16.031-3.273,27.085T186.2,308.2a25.111,25.111,0,0,1-31.662,0Q148.083,302.578,144.813,291.522Zm176.919,30.21H304.625V311.42h-40.86q-1.77,0-5.218.093t-6.9.184q-3.45.094-5.4.276v-.183q20.871-14.555,33.078-26.533t17.511-22.939a50.87,50.87,0,0,0,5.307-22.387,42.142,42.142,0,0,0-2.742-15.477,34.4,34.4,0,0,0-7.871-12.069,35.4,35.4,0,0,0-12.293-7.83,44.684,44.684,0,0,0-16.185-2.764q-11.853,0-20.431,4.606a35.531,35.531,0,0,0-13.619,12.714,48.782,48.782,0,0,0-6.633,18.794l12.381,7.738q1.237-13.633,8.491-21.834t19.28-8.2q11.5,0,18.131,6.725t6.633,17.6a41.277,41.277,0,0,1-3.007,15.569A58.837,58.837,0,0,1,274.2,271.254a175.935,175.935,0,0,1-18.838,18.425q-11.766,10.135-29.275,23.584v8.469H190.7a39.84,39.84,0,0,0,11.427-10.68q11.76-16.029,11.762-46.615t-11.762-46.616q-11.766-16.031-31.75-16.03-19.812,0-31.663,16.03t-11.85,46.616q0,30.586,11.85,46.615a40.323,40.323,0,0,0,11.452,10.68H99.081A33.841,33.841,0,0,0,112,308.565a42.466,42.466,0,0,0,4.953-20.913q0-12.16-4.865-21a33.629,33.629,0,0,0-13.708-13.635,42.82,42.82,0,0,0-20.7-4.791,39.5,39.5,0,0,0-13,2.3,33.076,33.076,0,0,0-11.851,7.185,25.311,25.311,0,0,0-7.164,12.806h-.707V267.2A95.673,95.673,0,0,1,47,246.933a55.962,55.962,0,0,1,6.1-16.4,33,33,0,0,1,9.905-10.964,23.375,23.375,0,0,1,13.444-3.961q10.436,0,16.361,4.883a27.4,27.4,0,0,1,8.579,13.358L114.48,227.4a46.909,46.909,0,0,0-8.667-14.648A31.431,31.431,0,0,0,93.7,204.462a45.767,45.767,0,0,0-16.362-2.671,39.817,39.817,0,0,0-23.259,7.186q-10.349,7.185-16.363,21.1T31.7,264.437q0,18.24,5.13,32.336t15.212,22.2a35.419,35.419,0,0,0,3.944,2.757H18.425V18.425H321.732Z"/>
      </g>
    </g>
</svg>
