<svg xmlns="http://www.w3.org/2000/svg" width="120mm" height="120mm" viewBox="0 0 340.158 340.158">
  <g id="Zimmernummer">
      <g id="Z-04-649">
        <path fill="#000000" stroke="none" d="M337.323,0H2.835A2.836,2.836,0,0,0,0,2.835V337.323a2.836,2.836,0,0,0,2.835,2.835H337.323a2.836,2.836,0,0,0,2.835-2.835V2.835A2.836,2.836,0,0,0,337.323,0ZM52.484,300.273a25.082,25.082,0,0,1-3.361-12.805,25.9,25.9,0,0,1,3.185-12.99,22.957,22.957,0,0,1,8.932-8.844A26.848,26.848,0,0,1,74.6,262.409a28.852,28.852,0,0,1,13.8,3.04,20.784,20.784,0,0,1,8.667,8.66,27.961,27.961,0,0,1,3.006,13.359q0,11.979-6.721,18.7T74.6,312.9a24.992,24.992,0,0,1-22.111-12.622ZM181.605,280.65h-41.92l30.6-44.773q2.827-4.236,6.191-9.949t5.483-10.319h.354q-.178,4.794-.442,9.766t-.266,9.765Zm140.127,41.082H283.55c.98-.57,1.936-1.175,2.856-1.836q9.992-7.186,15.124-21.1t5.13-34.362q0-18.425-5.13-32.521t-15.212-22.11q-10.082-8.016-24.763-8.016-12.561,0-21.579,5.067a34.1,34.1,0,0,0-13.8,14.188q-4.778,9.12-4.777,21.649,0,11.609,4.953,20.084a34.23,34.23,0,0,0,13.8,13.174,42.7,42.7,0,0,0,20.341,4.7,41.487,41.487,0,0,0,13.178-2.211,31.589,31.589,0,0,0,11.939-7.278,27.346,27.346,0,0,0,7.43-13.358h.707v1.658a149.008,149.008,0,0,1-1.5,22.11,57.388,57.388,0,0,1-5.041,17.044,26.1,26.1,0,0,1-9.641,10.87q-6.1,3.78-15.3,3.778-11.322,0-17.778-5.9A33.1,33.1,0,0,1,235.2,291.89l-13.973,7.738q5.129,13.452,15.565,20.452,1.314.882,2.693,1.652H195.756V293.363h20.695V280.65H195.756V203.633H177.891l-53.242,78.86v10.87h56.956v28.369H97.047a33.846,33.846,0,0,0,12.924-13.168,42.463,42.463,0,0,0,4.953-20.913q0-12.159-4.864-21a33.647,33.647,0,0,0-13.709-13.634,42.806,42.806,0,0,0-20.695-4.791,39.5,39.5,0,0,0-13,2.3A33.062,33.062,0,0,0,50.8,257.711a25.306,25.306,0,0,0-7.163,12.806h-.708V267.2a95.592,95.592,0,0,1,2.034-20.267,55.968,55.968,0,0,1,6.1-16.4,32.977,32.977,0,0,1,9.906-10.964,23.377,23.377,0,0,1,13.443-3.961q10.434,0,16.361,4.883a27.4,27.4,0,0,1,8.578,13.359l13.09-6.45a46.934,46.934,0,0,0-8.667-14.647,31.435,31.435,0,0,0-12.116-8.292A45.766,45.766,0,0,0,75.3,201.79a39.819,39.819,0,0,0-23.26,7.187q-10.347,7.185-16.361,21.1t-6.015,34.364q0,18.24,5.13,32.335t15.212,22.2a35.536,35.536,0,0,0,3.946,2.757H18.425V18.425H321.732ZM287.2,241.4a25.893,25.893,0,0,1-3.184,12.991,22.951,22.951,0,0,1-8.933,8.843,26.832,26.832,0,0,1-13.355,3.225q-11.673,0-18.572-6.357t-6.9-17.227q0-12.714,6.545-19.808t18.925-7.093a27.483,27.483,0,0,1,13.355,3.132,22.209,22.209,0,0,1,8.933,8.844A27.185,27.185,0,0,1,287.2,241.4Z"/>
      </g>
    </g>
</svg>
