<svg xmlns="http://www.w3.org/2000/svg" width="120mm" height="120mm" viewBox="0 0 340.158 340.158">
  <g id="Zimmernummer">
      <g id="Z-04-314">
        <path fill="#000000" stroke="none" d="M337.323,0H2.835A2.836,2.836,0,0,0,0,2.835V337.323a2.836,2.836,0,0,0,2.835,2.835H337.323a2.836,2.836,0,0,0,2.835-2.835V2.835A2.836,2.836,0,0,0,337.323,0ZM255.192,280.65H213.271l30.6-44.773q2.827-4.236,6.19-9.949t5.484-10.319h.354q-.179,4.794-.443,9.766t-.265,9.765Zm66.54,41.082H269.343V293.363h20.695V280.65H269.343V203.633H251.477l-53.241,78.86v10.87h56.956v28.369H185.678v-118.1H173.3a36.7,36.7,0,0,1-7.075,7.185,88.71,88.71,0,0,1-9.994,6.911,90.665,90.665,0,0,1-10.259,5.342,29.8,29.8,0,0,1-8.048,2.488l3.714,13.451a65.993,65.993,0,0,0,30.247-17.136q-.179,3.869-.265,7.462t-.089,6.726v85.67H111.311a34.763,34.763,0,0,0,12.9-12.338,35.8,35.8,0,0,0,5.041-18.978,29.058,29.058,0,0,0-1.681-9.857,26.234,26.234,0,0,0-4.864-8.384,24.034,24.034,0,0,0-7.7-5.9,25.067,25.067,0,0,0-10.347-2.394v-.369a23.858,23.858,0,0,0,8.313-3.04,25.794,25.794,0,0,0,6.988-6.172,29.62,29.62,0,0,0,4.864-9.121A37.189,37.189,0,0,0,126.6,233.3a32.147,32.147,0,0,0-3.98-15.846,29.116,29.116,0,0,0-11.939-11.515q-7.959-4.328-20.165-4.331a46.219,46.219,0,0,0-17.776,3.317,39.678,39.678,0,0,0-13.708,9.213,38.578,38.578,0,0,0-8.491,13.634L63.984,234.4a34.079,34.079,0,0,1,9.2-13.726q5.838-5.067,16.981-5.068,10.434,0,16.1,4.975t5.66,14.556q0,11.241-5.483,16.491t-18.4,5.251H85.3a26.653,26.653,0,0,1-3.1-.185v14.741a44.88,44.88,0,0,1,4.776-.46q2.3-.092,4.245-.093,8.311,0,13.443,2.119a14.468,14.468,0,0,1,7.517,6.541,23.053,23.053,0,0,1,2.389,11.055,23.609,23.609,0,0,1-2.831,11.7,20.455,20.455,0,0,1-8.136,8.014,26.622,26.622,0,0,1-13.09,2.949q-9.2,0-15.3-2.764a24.367,24.367,0,0,1-9.817-7.831,40.046,40.046,0,0,1-5.837-11.884l-14.151,7.555a37.884,37.884,0,0,0,16.185,21.1c1.307.836,2.648,1.6,4.019,2.3H18.425V18.425H321.732Z"/>
      </g>
    </g>
</svg>
