<svg xmlns="http://www.w3.org/2000/svg" width="120mm" height="120mm" viewBox="0 0 340.158 340.157">
  <g id="Zimmernummer">
      <g id="Z-04-505-R">
        <path fill="#A0552B" stroke="none" d="M337.323,0H2.835A2.836,2.836,0,0,0,0,2.835V337.323a2.834,2.834,0,0,0,2.835,2.834H337.323a2.834,2.834,0,0,0,2.835-2.834V2.835A2.836,2.836,0,0,0,337.323,0ZM140.833,291.521q-3.274-11.055-3.272-27.084t3.272-27.086q3.27-11.055,9.728-16.674a25.107,25.107,0,0,1,31.662,0q6.456,5.622,9.729,16.674t3.272,27.086q0,16.029-3.272,27.084T182.223,308.2a25.111,25.111,0,0,1-31.662,0Q144.1,302.577,140.833,291.521Zm180.9,30.211H281.956A35.212,35.212,0,0,0,297.815,303.5a45.519,45.519,0,0,0,3.007-16.951,44.133,44.133,0,0,0-4.6-20.636A33.624,33.624,0,0,0,283.4,252.184,37.251,37.251,0,0,0,264.03,247.3a41.058,41.058,0,0,0-15.831,2.763,30.472,30.472,0,0,0-10.878,7.371h-.354l.354-1.659,4.6-38.324h53.6V203.633H229.892l-6.9,66.884,12.381,2.395A24.084,24.084,0,0,1,242.1,266.1a27.7,27.7,0,0,1,8.755-3.778,44,44,0,0,1,10.524-1.2,28.116,28.116,0,0,1,13.444,2.948,19.721,19.721,0,0,1,8.4,8.752q2.918,5.8,2.918,14.464a28.521,28.521,0,0,1-3.183,13.911,22.042,22.042,0,0,1-8.933,8.937,28.635,28.635,0,0,1-13.886,3.132q-11.5,0-17.422-5.989a36.2,36.2,0,0,1-8.756-15.569l-13.8,7.555q5.129,13.085,14.592,20.452a30.306,30.306,0,0,0,2.951,2.02H186.716a39.84,39.84,0,0,0,11.427-10.68q11.762-16.031,11.763-46.615T198.143,217.82q-11.766-16.029-31.751-16.03-19.812,0-31.662,16.03t-11.851,46.617q0,30.585,11.851,46.615a40.313,40.313,0,0,0,11.453,10.68H97.3A35.2,35.2,0,0,0,113.154,303.5a45.5,45.5,0,0,0,3.007-16.951,44.157,44.157,0,0,0-4.6-20.636,33.633,33.633,0,0,0-12.824-13.726A37.253,37.253,0,0,0,79.369,247.3a41.046,41.046,0,0,0-15.83,2.763,30.467,30.467,0,0,0-10.879,7.371h-.354l.354-1.659,4.6-38.324h53.6V203.633H45.231l-6.9,66.884,12.381,2.395a24.084,24.084,0,0,1,6.722-6.817,27.7,27.7,0,0,1,8.755-3.778,44.01,44.01,0,0,1,10.525-1.2,28.117,28.117,0,0,1,13.443,2.948,19.721,19.721,0,0,1,8.4,8.752q2.917,5.8,2.918,14.464A28.521,28.521,0,0,1,98.3,301.194a22.033,22.033,0,0,1-8.932,8.937,28.633,28.633,0,0,1-13.885,3.132q-11.5,0-17.423-5.989A36.205,36.205,0,0,1,49.3,291.705L35.5,299.26q5.128,13.085,14.593,20.452a30.306,30.306,0,0,0,2.951,2.02H18.425V18.425H321.732Z"/>
      </g>
    </g>
</svg>
