<svg xmlns="http://www.w3.org/2000/svg" width="120mm" height="120mm" viewBox="0 0 340.158 340.157">
  <g id="Zimmernummer">
      <g id="Z-04-009">
        <path fill="#000000" stroke="none" d="M339.327.831a2.833,2.833,0,0,0-2-.831H2.835A2.836,2.836,0,0,0,0,2.835V337.323a2.834,2.834,0,0,0,2.835,2.834H337.323a2.836,2.836,0,0,0,2.835-2.834V2.835A2.831,2.831,0,0,0,339.327.831Zm-17.595,320.9H276.355a36.687,36.687,0,0,0,3.2-1.954q10.407-7.185,15.753-21.1t5.344-34.364q0-18.421-5.344-32.52t-15.845-22.11q-10.5-8.014-25.8-8.015-13.084,0-22.478,5.067a34.79,34.79,0,0,0-14.372,14.187q-4.976,9.12-4.975,21.65,0,11.607,5.159,20.083a35.06,35.06,0,0,0,14.372,13.174,45.987,45.987,0,0,0,21.189,4.7,44.852,44.852,0,0,0,13.727-2.211,33.194,33.194,0,0,0,12.437-7.278,27.087,27.087,0,0,0,7.738-13.358h.737v1.658a143.108,143.108,0,0,1-1.566,22.11,55.68,55.68,0,0,1-5.251,17.043,26.5,26.5,0,0,1-10.042,10.871q-6.357,3.779-15.938,3.778-11.793,0-18.517-5.9a32.876,32.876,0,0,1-9.673-15.477l-14.556,7.739q5.341,13.452,16.214,20.452c.988.636,2.006,1.22,3.046,1.769H18.425V18.425H321.732Zm-41.345-80.445a25.083,25.083,0,0,1-3.316,12.99,23.477,23.477,0,0,1-9.306,8.844,28.894,28.894,0,0,1-13.91,3.224q-12.162,0-19.347-6.356t-7.185-17.228q0-12.713,6.816-19.807t19.716-7.094a29.6,29.6,0,0,1,13.91,3.133,22.714,22.714,0,0,1,9.306,8.843A26.333,26.333,0,0,1,280.387,241.287Z"/>
      </g>
    </g>
</svg>
