<svg xmlns="http://www.w3.org/2000/svg" width="120mm" height="120mm" viewBox="0 0 340.158 340.157">
  <g id="Zimmernummer">
      <g id="Z-04-428">
        <path fill="#000000" stroke="none" d="M337.323,0H2.835A2.836,2.836,0,0,0,0,2.835V337.323a2.834,2.834,0,0,0,2.835,2.834H337.323a2.834,2.834,0,0,0,2.835-2.834V2.835A2.836,2.836,0,0,0,337.323,0ZM86.973,280.651H45.052l30.6-44.774q2.828-4.236,6.192-9.949t5.483-10.318h.354q-.178,4.792-.443,9.765t-.265,9.764Zm158.042-9.49a41.423,41.423,0,0,1,29.273,0,21.783,21.783,0,0,1,9.641,7.738,21.219,21.219,0,0,1-9.464,31.691,42.4,42.4,0,0,1-29.628,0,21.772,21.772,0,0,1-9.551-31.691A21.692,21.692,0,0,1,245.015,271.161Zm-7.872-35.836q0-9.211,6.1-14.371t16.362-5.161q10.434,0,16.45,5.161t6.014,14.371q0,9.029-6.191,14.187t-16.273,5.158q-10.082,0-16.273-5.158T237.143,235.325Zm84.589,86.407H284.279a33.772,33.772,0,0,0,12.473-10.864,31.778,31.778,0,0,0,5.307-18.426q0-11.423-5.926-19.346A35.347,35.347,0,0,0,280.3,261.3v-.183a27.776,27.776,0,0,0,12.117-10.78,30.992,30.992,0,0,0,4.333-16.49,30.651,30.651,0,0,0-4.6-17.043,30.137,30.137,0,0,0-12.912-10.963,51.527,51.527,0,0,0-39.179,0,30.019,30.019,0,0,0-13,10.963q-4.6,7.1-4.6,17.043a30.4,30.4,0,0,0,4.511,16.676,27.891,27.891,0,0,0,12.116,10.594v.183a34.293,34.293,0,0,0-16.1,11.885q-5.835,8.016-5.837,19.254a31.778,31.778,0,0,0,5.307,18.426A33.629,33.629,0,0,0,235,321.732H206.013V311.42h-40.86q-1.768,0-5.217.092t-6.9.184q-3.45.1-5.394.277v-.183q20.868-14.556,33.076-26.534t17.511-22.939a50.856,50.856,0,0,0,5.307-22.387,42.137,42.137,0,0,0-2.742-15.476,34.387,34.387,0,0,0-7.871-12.069,35.4,35.4,0,0,0-12.293-7.83,44.662,44.662,0,0,0-16.185-2.765q-11.853,0-20.43,4.607A35.524,35.524,0,0,0,130.4,219.11a48.787,48.787,0,0,0-6.633,18.795l12.382,7.738q1.236-13.635,8.49-21.834t19.28-8.2q11.5,0,18.131,6.724t6.633,17.6a41.282,41.282,0,0,1-3.007,15.57,58.852,58.852,0,0,1-10.082,15.754,175.937,175.937,0,0,1-18.838,18.424q-11.766,10.137-29.274,23.584v8.47H101.123V293.364h20.695V280.651H101.123V203.633H83.259l-53.242,78.86v10.871H86.973v28.368H18.425V18.425H321.732Z"/>
      </g>
    </g>
</svg>
