<svg xmlns="http://www.w3.org/2000/svg" width="120mm" height="120mm" viewBox="0 0 340.158 340.158">
  <g id="Zimmernummer">
      <g id="Z-04-304">
        <path fill="#000000" stroke="none" d="M337.323,0H2.835A2.836,2.836,0,0,0,0,2.835V337.323a2.836,2.836,0,0,0,2.835,2.835H337.323a2.836,2.836,0,0,0,2.835-2.835V2.835A2.836,2.836,0,0,0,337.323,0ZM138.362,291.521q-3.274-11.055-3.272-27.084t3.272-27.086q3.272-11.055,9.728-16.674a25.109,25.109,0,0,1,31.663,0q6.455,5.622,9.728,16.674t3.273,27.086q0,16.029-3.273,27.084T179.753,308.2a25.112,25.112,0,0,1-31.663,0Q141.633,302.577,138.362,291.521ZM270.4,280.65h-41.92l30.6-44.773q2.827-4.236,6.191-9.949t5.483-10.319h.354q-.178,4.794-.442,9.766t-.266,9.765Zm51.329,41.082H284.554V293.363h20.7V280.65h-20.7V203.633H266.689l-53.242,78.86v10.87H270.4v28.369H184.245a39.84,39.84,0,0,0,11.427-10.68q11.762-16.031,11.763-46.615T195.672,217.82q-11.766-16.029-31.75-16.03-19.812,0-31.662,16.03t-11.851,46.617q0,30.585,11.851,46.615a40.323,40.323,0,0,0,11.452,10.68H96.1A34.752,34.752,0,0,0,109,309.394a35.8,35.8,0,0,0,5.041-18.978,29.082,29.082,0,0,0-1.68-9.857,26.252,26.252,0,0,0-4.864-8.384,24.045,24.045,0,0,0-7.7-5.9,25.071,25.071,0,0,0-10.347-2.394v-.369a23.865,23.865,0,0,0,8.313-3.04,25.79,25.79,0,0,0,6.987-6.172,29.6,29.6,0,0,0,4.864-9.121,37.188,37.188,0,0,0,1.769-11.884,32.158,32.158,0,0,0-3.98-15.846,29.125,29.125,0,0,0-11.94-11.515q-7.959-4.328-20.164-4.331a46.224,46.224,0,0,0-17.777,3.317,39.678,39.678,0,0,0-13.708,9.213,38.575,38.575,0,0,0-8.49,13.634L48.773,234.4a34.059,34.059,0,0,1,9.2-13.726q5.837-5.067,16.98-5.068,10.436,0,16.1,4.975t5.661,14.556q0,11.241-5.484,16.491t-18.4,5.251H70.087a26.649,26.649,0,0,1-3.095-.185v14.741a44.887,44.887,0,0,1,4.775-.46q2.3-.092,4.245-.093,8.313,0,13.444,2.119a14.472,14.472,0,0,1,7.517,6.541A23.065,23.065,0,0,1,99.361,290.6a23.609,23.609,0,0,1-2.83,11.7,20.458,20.458,0,0,1-8.137,8.014,26.615,26.615,0,0,1-13.089,2.949q-9.2,0-15.3-2.764a24.36,24.36,0,0,1-9.817-7.831,40.046,40.046,0,0,1-5.837-11.884L30.2,298.339a37.875,37.875,0,0,0,16.185,21.1c1.306.836,2.648,1.6,4.019,2.3H18.425V18.425H321.732Z"/>
      </g>
    </g>
</svg>
