<svg xmlns="http://www.w3.org/2000/svg" width="120mm" height="120mm" viewBox="0 0 340.158 340.157">
  <g id="Zimmernummer">
      <g id="Z-04-640-M">
        <path fill="#D4AF37" stroke="none" d="M339.328.831a2.835,2.835,0,0,0-2-.831H2.835A2.836,2.836,0,0,0,0,2.835V337.323a2.834,2.834,0,0,0,2.835,2.834H337.323a2.834,2.834,0,0,0,2.835-2.834V2.835A2.835,2.835,0,0,0,339.328.831ZM50.272,300.273a25.081,25.081,0,0,1-3.36-12.805,25.913,25.913,0,0,1,3.184-12.99,22.971,22.971,0,0,1,8.932-8.844,26.856,26.856,0,0,1,13.355-3.225,28.849,28.849,0,0,1,13.8,3.04,20.779,20.779,0,0,1,8.667,8.66,27.95,27.95,0,0,1,3.007,13.359q0,11.979-6.721,18.7T72.383,312.9a24.992,24.992,0,0,1-22.111-12.622ZM179.4,280.65H137.473l30.6-44.773q2.829-4.236,6.192-9.949t5.483-10.319h.354q-.18,4.794-.443,9.766t-.264,9.765Zm60.4,10.871q-3.276-11.055-3.273-27.084t3.273-27.086q3.272-11.055,9.728-16.674a25.107,25.107,0,0,1,31.662,0q6.454,5.622,9.729,16.674t3.272,27.086q0,16.029-3.272,27.084T281.188,308.2a25.111,25.111,0,0,1-31.662,0Q243.069,302.577,239.8,291.521Zm81.934,30.211H285.681a39.837,39.837,0,0,0,11.426-10.68q11.761-16.031,11.763-46.615T297.107,217.82q-11.765-16.029-31.75-16.03-19.812,0-31.662,16.03t-11.85,46.617q0,30.585,11.85,46.615a40.323,40.323,0,0,0,11.452,10.68h-51.6V293.363h20.7V280.65h-20.7V203.633H175.68l-53.242,78.86v10.87H179.4v28.369H94.835a33.849,33.849,0,0,0,12.925-13.168,42.463,42.463,0,0,0,4.952-20.913q0-12.159-4.864-21A33.639,33.639,0,0,0,94.14,253.013a42.813,42.813,0,0,0-20.7-4.791,39.5,39.5,0,0,0-13,2.3,33.066,33.066,0,0,0-11.85,7.186,25.3,25.3,0,0,0-7.164,12.806h-.708V267.2a95.657,95.657,0,0,1,2.034-20.267,56,56,0,0,1,6.1-16.4,33,33,0,0,1,9.906-10.964,23.38,23.38,0,0,1,13.443-3.961q10.434,0,16.361,4.883a27.391,27.391,0,0,1,8.579,13.359l13.089-6.45a46.934,46.934,0,0,0-8.667-14.647,31.428,31.428,0,0,0-12.116-8.292,45.76,45.76,0,0,0-16.361-2.672,39.824,39.824,0,0,0-23.261,7.187q-10.347,7.185-16.361,21.1t-6.014,34.364q0,18.24,5.13,32.335t15.212,22.2a35.524,35.524,0,0,0,3.945,2.757H18.425V18.425H321.732Z"/>
      </g>
    </g>
</svg>
