<svg xmlns="http://www.w3.org/2000/svg" width="120mm" height="120mm" viewBox="0 0 340.158 340.158">
  <g id="Zimmernummer">
      <g id="Z-04-062-R">
        <path fill="#A0552B" stroke="none" d="M337.323,0H2.835A2.836,2.836,0,0,0,0,2.835V337.323a2.836,2.836,0,0,0,2.835,2.835H337.323a2.836,2.836,0,0,0,2.835-2.835V2.835A2.836,2.836,0,0,0,337.323,0ZM138.689,300.274a24.308,24.308,0,0,1-3.5-12.806,25.087,25.087,0,0,1,3.317-12.99,23.489,23.489,0,0,1,9.305-8.844,28.918,28.918,0,0,1,13.911-3.224,31.074,31.074,0,0,1,14.371,3.04,21.227,21.227,0,0,1,9.029,8.66,27.036,27.036,0,0,1,3.132,13.358q0,11.98-7,18.7t-19.53,6.726a26.862,26.862,0,0,1-13.543-3.409A25.748,25.748,0,0,1,138.689,300.274Zm183.043,21.458H301.2V311.42H258.635q-1.845,0-5.436.093t-7.186.184q-3.593.094-5.619.276v-.183q21.738-14.555,34.455-26.533t18.241-22.939a49.2,49.2,0,0,0,5.528-22.387,40.629,40.629,0,0,0-2.857-15.477,34.3,34.3,0,0,0-8.2-12.069,37.086,37.086,0,0,0-12.805-7.83,48.28,48.28,0,0,0-16.859-2.764q-12.347,0-21.281,4.606a36.446,36.446,0,0,0-14.188,12.714,47.531,47.531,0,0,0-6.909,18.794l12.9,7.738q1.287-13.633,8.844-21.834t20.084-8.2q11.974,0,18.886,6.725t6.909,17.6a39.846,39.846,0,0,1-3.132,15.569,58.553,58.553,0,0,1-10.5,15.754,179.975,179.975,0,0,1-19.622,18.425q-12.257,10.135-30.494,23.584v8.469h-34.28a34.541,34.541,0,0,0,13.462-13.167,41.107,41.107,0,0,0,5.159-20.913q0-12.16-5.067-21a34.383,34.383,0,0,0-14.279-13.635q-9.216-4.79-21.558-4.791a42.684,42.684,0,0,0-13.542,2.3,34.743,34.743,0,0,0-12.345,7.185,25.072,25.072,0,0,0-7.462,12.806h-.737V267.2a92.021,92.021,0,0,1,2.118-20.268,54.608,54.608,0,0,1,6.357-16.4,33.515,33.515,0,0,1,10.318-10.964,25.081,25.081,0,0,1,14-3.961q10.869,0,17.043,4.883a27.332,27.332,0,0,1,8.936,13.358l13.635-6.449a46.6,46.6,0,0,0-9.028-14.648,32.836,32.836,0,0,0-12.622-8.292,49.468,49.468,0,0,0-17.043-2.671,42.7,42.7,0,0,0-24.229,7.186q-10.781,7.185-17.044,21.1t-6.265,34.363q0,18.24,5.344,32.336t15.846,22.2a37.016,37.016,0,0,0,4.109,2.757H18.425V18.425H321.732Z"/>
      </g>
    </g>
</svg>
