<svg xmlns="http://www.w3.org/2000/svg" width="120mm" height="120mm" viewBox="0 0 340.158 340.157">
  <g id="Zimmernummer">
      <g id="Z-04-620-M">
        <path fill="#D4AF37" stroke="none" d="M337.323,0H2.835A2.836,2.836,0,0,0,0,2.835V337.323a2.834,2.834,0,0,0,2.835,2.834H337.323a2.834,2.834,0,0,0,2.835-2.834V2.835A2.836,2.836,0,0,0,337.323,0ZM56.287,300.273a25.072,25.072,0,0,1-3.361-12.805,25.912,25.912,0,0,1,3.183-12.99,22.973,22.973,0,0,1,8.933-8.844A26.852,26.852,0,0,1,78.4,262.409a28.846,28.846,0,0,1,13.8,3.04,20.775,20.775,0,0,1,8.668,8.66,27.961,27.961,0,0,1,3.007,13.359q0,11.979-6.722,18.7T78.4,312.9a24.988,24.988,0,0,1-22.109-12.622Zm177.5-8.752q-3.274-11.055-3.272-27.084t3.272-27.086q3.272-11.055,9.729-16.674a25.107,25.107,0,0,1,31.662,0q6.454,5.622,9.728,16.674t3.272,27.086q0,16.029-3.272,27.084T275.175,308.2a25.111,25.111,0,0,1-31.662,0Q237.054,302.577,233.784,291.521Zm87.948,30.211H279.667a39.853,39.853,0,0,0,11.427-10.68q11.762-16.031,11.762-46.615T291.094,217.82q-11.766-16.029-31.75-16.03-19.812,0-31.662,16.03T215.83,264.437q0,30.585,11.852,46.615a40.3,40.3,0,0,0,11.452,10.68H205.219V311.42h-40.86q-1.77,0-5.218.093t-6.9.183q-3.45.1-5.395.277v-.184q20.869-14.553,33.077-26.532t17.512-22.94a50.86,50.86,0,0,0,5.3-22.386A42.144,42.144,0,0,0,200,224.453a34.406,34.406,0,0,0-7.871-12.068,35.378,35.378,0,0,0-12.294-7.83,44.672,44.672,0,0,0-16.185-2.765q-11.852,0-20.429,4.606A35.534,35.534,0,0,0,129.6,219.11a48.788,48.788,0,0,0-6.633,18.794l12.382,7.739q1.235-13.633,8.49-21.834t19.28-8.2q11.5,0,18.13,6.726t6.634,17.6a41.281,41.281,0,0,1-3.008,15.569A58.812,58.812,0,0,1,174.8,271.254a176.031,176.031,0,0,1-18.838,18.425q-11.766,10.135-29.273,23.584v8.469H100.849a33.846,33.846,0,0,0,12.924-13.168,42.463,42.463,0,0,0,4.953-20.913q0-12.159-4.865-21a33.627,33.627,0,0,0-13.708-13.634,42.8,42.8,0,0,0-20.7-4.791,39.505,39.505,0,0,0-13,2.3,33.079,33.079,0,0,0-11.851,7.186,25.321,25.321,0,0,0-7.164,12.806h-.707V267.2a95.59,95.59,0,0,1,2.035-20.267,55.912,55.912,0,0,1,6.1-16.4,32.985,32.985,0,0,1,9.905-10.964,23.377,23.377,0,0,1,13.443-3.961q10.436,0,16.362,4.883a27.4,27.4,0,0,1,8.578,13.359l13.09-6.45a46.935,46.935,0,0,0-8.668-14.647,31.42,31.42,0,0,0-12.116-8.292A45.758,45.758,0,0,0,79.1,201.79a39.818,39.818,0,0,0-23.259,7.187q-10.349,7.185-16.363,21.1t-6.013,34.364q0,18.24,5.13,32.335t15.212,22.2a35.524,35.524,0,0,0,3.945,2.757H18.425V18.425H321.732Z"/>
      </g>
    </g>
</svg>
