<svg xmlns="http://www.w3.org/2000/svg" width="120mm" height="120mm" viewBox="0 0 340.158 340.158">
  <g id="Zimmernummer">
      <g id="Z-04-052-R">
        <path fill="#A0552B" stroke="none" d="M337.323,0H2.835A2.836,2.836,0,0,0,0,2.835V337.323a2.836,2.836,0,0,0,2.835,2.835H337.323a2.836,2.836,0,0,0,2.835-2.835V2.835A2.836,2.836,0,0,0,337.323,0ZM321.732,321.732H301.2V311.42H258.635q-1.843,0-5.435.093t-7.186.184q-3.593.094-5.62.276v-.183q21.738-14.555,34.455-26.533t18.241-22.939a49.2,49.2,0,0,0,5.528-22.387,40.648,40.648,0,0,0-2.856-15.477,34.306,34.306,0,0,0-8.2-12.069,37.068,37.068,0,0,0-12.805-7.83,48.28,48.28,0,0,0-16.859-2.764q-12.347,0-21.281,4.606a36.453,36.453,0,0,0-14.188,12.714,47.547,47.547,0,0,0-6.909,18.794l12.9,7.738q1.287-13.633,8.845-21.834t20.083-8.2q11.976,0,18.886,6.725t6.909,17.6a39.846,39.846,0,0,1-3.132,15.569,58.571,58.571,0,0,1-10.5,15.754,180.088,180.088,0,0,1-19.623,18.425q-12.257,10.135-30.494,23.584v8.469H183.711a37.43,37.43,0,0,0,7.675-5.429A35.727,35.727,0,0,0,200.23,303.5a43.9,43.9,0,0,0,3.132-16.952,42.692,42.692,0,0,0-4.79-20.635,34.235,34.235,0,0,0-13.359-13.727q-8.568-4.881-20.175-4.883a44.332,44.332,0,0,0-16.491,2.764,31.854,31.854,0,0,0-11.332,7.37h-.368l.368-1.658,4.791-38.324h55.828v-13.82H129.477l-7.186,66.884,12.9,2.4a24.6,24.6,0,0,1,7-6.818,29.492,29.492,0,0,1,9.121-3.777,47.6,47.6,0,0,1,10.963-1.2,30.3,30.3,0,0,1,14,2.948,20.106,20.106,0,0,1,8.752,8.752q3.041,5.8,3.04,14.464a27.589,27.589,0,0,1-3.317,13.911,22.506,22.506,0,0,1-9.3,8.936,30.853,30.853,0,0,1-14.464,3.132q-11.979,0-18.149-5.988a35.861,35.861,0,0,1-9.12-15.569l-14.372,7.554q5.341,13.086,15.2,20.452a31.735,31.735,0,0,0,3.073,2.02H18.425V18.425H321.732Z"/>
      </g>
    </g>
</svg>
