<svg xmlns="http://www.w3.org/2000/svg" width="120mm" height="120mm" viewBox="0 0 340.158 340.158">
  <g id="Zimmernummer">
      <g id="Z-04-054">
        <path fill="#000000" stroke="none" d="M337.323,0H2.835A2.836,2.836,0,0,0,0,2.835V337.323a2.836,2.836,0,0,0,2.835,2.835H337.323a2.836,2.836,0,0,0,2.835-2.835V2.835A2.836,2.836,0,0,0,337.323,0ZM268.032,280.65H224.364l31.876-44.773q2.944-4.236,6.448-9.949a116.619,116.619,0,0,0,5.712-10.319h.369q-.186,4.794-.461,9.766t-.276,9.765Zm53.7,41.082h-38.96V293.363H304.33V280.65H282.772V203.633H264.163l-55.46,78.86v10.87h59.329v28.369H175.787a37.409,37.409,0,0,0,7.676-5.429,35.731,35.731,0,0,0,8.844-12.806,43.9,43.9,0,0,0,3.132-16.951,42.7,42.7,0,0,0-4.79-20.636,34.236,34.236,0,0,0-13.358-13.726q-8.568-4.881-20.176-4.883a44.347,44.347,0,0,0-16.49,2.763,31.837,31.837,0,0,0-11.333,7.371h-.368l.368-1.659,4.791-38.324h55.829V203.633H121.554l-7.185,66.884,12.9,2.395a24.589,24.589,0,0,1,7-6.817,29.478,29.478,0,0,1,9.12-3.778,47.658,47.658,0,0,1,10.963-1.2,30.3,30.3,0,0,1,14,2.948,20.1,20.1,0,0,1,8.752,8.752q3.041,5.8,3.04,14.464a27.588,27.588,0,0,1-3.316,13.911,22.517,22.517,0,0,1-9.305,8.937,30.853,30.853,0,0,1-14.464,3.132q-11.979,0-18.148-5.989a35.847,35.847,0,0,1-9.121-15.569L111.42,299.26q5.341,13.085,15.2,20.452a31.628,31.628,0,0,0,3.074,2.02H18.425V18.425H321.732Z"/>
      </g>
    </g>
</svg>
