<svg xmlns="http://www.w3.org/2000/svg" width="120mm" height="120mm" viewBox="0 0 340.158 340.157">
  <g id="Zimmernummer">
      <g id="Z-04-005-R">
        <path fill="#A0552B" stroke="none" d="M339.327.831a2.835,2.835,0,0,0-2-.831H2.835A2.836,2.836,0,0,0,0,2.835V337.323a2.834,2.834,0,0,0,2.835,2.834H337.323a2.836,2.836,0,0,0,2.835-2.834V2.835A2.831,2.831,0,0,0,339.327.831Zm-17.595,320.9H281.161a37.454,37.454,0,0,0,7.886-5.546,35.751,35.751,0,0,0,8.845-12.806,43.9,43.9,0,0,0,3.132-16.951,42.686,42.686,0,0,0-4.791-20.637,34.229,34.229,0,0,0-13.358-13.726q-8.568-4.881-20.176-4.883a44.33,44.33,0,0,0-16.49,2.764,31.845,31.845,0,0,0-11.332,7.37h-.368l.368-1.658,4.791-38.325H295.5V203.516H227.139L219.953,270.4l12.9,2.395a24.6,24.6,0,0,1,7-6.817,29.492,29.492,0,0,1,9.121-3.777,47.6,47.6,0,0,1,10.963-1.2,30.3,30.3,0,0,1,14,2.948,20.1,20.1,0,0,1,8.753,8.752q3.039,5.8,3.04,14.464a27.591,27.591,0,0,1-3.317,13.911,22.5,22.5,0,0,1-9.305,8.936,30.846,30.846,0,0,1-14.463,3.133q-11.979,0-18.149-5.989a35.872,35.872,0,0,1-9.121-15.569l-14.371,7.554q5.341,13.084,15.2,20.452a31.6,31.6,0,0,0,3.279,2.138H18.425V18.425H321.732Z"/>
      </g>
    </g>
</svg>
