<svg xmlns="http://www.w3.org/2000/svg" width="120mm" height="120mm" viewBox="0 0 340.158 340.158">
  <g id="Zimmernummer">
      <g id="Z-04-217-M">
        <path fill="#D4AF37" stroke="none" d="M337.323,0H2.835A2.836,2.836,0,0,0,0,2.835V337.323a2.836,2.836,0,0,0,2.835,2.835H337.323a2.836,2.836,0,0,0,2.835-2.835V2.835A2.836,2.836,0,0,0,337.323,0ZM321.732,321.732H249.753a171.712,171.712,0,0,1,4.2-35.554,139.238,139.238,0,0,1,13.532-35.469,173.3,173.3,0,0,1,23.967-33.256v-13.82H205.488v13.82h70.584a164.471,164.471,0,0,0-21.234,30.033,156.082,156.082,0,0,0-14.77,37.679,165.513,165.513,0,0,0-4.812,36.567H189.215v-118.1H176.833a36.706,36.706,0,0,1-7.075,7.186,88.664,88.664,0,0,1-9.994,6.91,90.6,90.6,0,0,1-10.259,5.343,29.753,29.753,0,0,1-8.048,2.487l3.714,13.451a66,66,0,0,0,30.247-17.135q-.178,3.869-.266,7.461t-.088,6.726v85.67H135.621V311.42H94.761q-1.77,0-5.218.093t-6.9.184q-3.45.094-5.395.276v-.183q20.869-14.555,33.077-26.533t17.511-22.939a50.87,50.87,0,0,0,5.307-22.387,42.163,42.163,0,0,0-2.742-15.477,34.413,34.413,0,0,0-7.872-12.069,35.379,35.379,0,0,0-12.293-7.83,44.678,44.678,0,0,0-16.184-2.764q-11.853,0-20.43,4.606A35.527,35.527,0,0,0,60,219.111a48.782,48.782,0,0,0-6.633,18.794l12.381,7.738q1.236-13.633,8.491-21.834t19.28-8.2q11.5,0,18.13,6.725t6.633,17.6a41.277,41.277,0,0,1-3.007,15.569A58.812,58.812,0,0,1,105.2,271.254a175.935,175.935,0,0,1-18.838,18.425q-11.764,10.135-29.274,23.584v8.469H18.425V18.425H321.732Z"/>
      </g>
    </g>
</svg>
