<svg xmlns="http://www.w3.org/2000/svg" width="120mm" height="120mm" viewBox="0 0 340.158 340.158">
  <g id="Zimmernummer">
      <g id="Z-04-634-R">
        <path fill="#A0552B" stroke="none" d="M337.323,0H2.835A2.836,2.836,0,0,0,0,2.835V337.323a2.836,2.836,0,0,0,2.835,2.835H337.323a2.836,2.836,0,0,0,2.835-2.835V2.835A2.836,2.836,0,0,0,337.323,0ZM58.145,300.273a25.063,25.063,0,0,1-3.362-12.805,25.913,25.913,0,0,1,3.184-12.99,22.971,22.971,0,0,1,8.932-8.844,26.856,26.856,0,0,1,13.355-3.225,28.849,28.849,0,0,1,13.8,3.04,20.787,20.787,0,0,1,8.668,8.66,27.961,27.961,0,0,1,3.007,13.359q0,11.979-6.722,18.7T80.254,312.9a24.988,24.988,0,0,1-22.109-12.622ZM269.16,280.65H227.239l30.6-44.773q2.828-4.236,6.191-9.949t5.484-10.319h.353q-.178,4.794-.442,9.766t-.266,9.765Zm52.572,41.082h-38.42V293.363h20.694V280.65H283.312V203.633H265.446L212.2,282.493v10.87H269.16v28.369H188.073a34.767,34.767,0,0,0,12.9-12.338,35.8,35.8,0,0,0,5.041-18.978,29.082,29.082,0,0,0-1.68-9.857,26.252,26.252,0,0,0-4.864-8.384,24.045,24.045,0,0,0-7.695-5.9,25.075,25.075,0,0,0-10.347-2.394v-.369a23.873,23.873,0,0,0,8.313-3.04,25.805,25.805,0,0,0,6.987-6.172,29.62,29.62,0,0,0,4.864-9.121,37.161,37.161,0,0,0,1.768-11.884,32.157,32.157,0,0,0-3.979-15.846,29.125,29.125,0,0,0-11.94-11.515q-7.959-4.328-20.164-4.331a46.224,46.224,0,0,0-17.777,3.317,39.678,39.678,0,0,0-13.708,9.213,38.589,38.589,0,0,0-8.49,13.634l13.442,6.633a34.079,34.079,0,0,1,9.2-13.726q5.838-5.067,16.981-5.068,10.435,0,16.1,4.975t5.66,14.556q0,11.241-5.484,16.491t-18.4,5.251H162.06a26.636,26.636,0,0,1-3.095-.185v14.741a44.837,44.837,0,0,1,4.775-.46q2.3-.092,4.245-.093,8.311,0,13.444,2.119a14.472,14.472,0,0,1,7.517,6.541,23.065,23.065,0,0,1,2.388,11.055,23.609,23.609,0,0,1-2.83,11.7,20.458,20.458,0,0,1-8.137,8.014,26.618,26.618,0,0,1-13.089,2.949q-9.2,0-15.3-2.764a24.354,24.354,0,0,1-9.817-7.831,40.047,40.047,0,0,1-5.838-11.884l-14.15,7.555a37.878,37.878,0,0,0,16.184,21.1c1.307.836,2.648,1.6,4.019,2.3h-39.67a33.842,33.842,0,0,0,12.925-13.168,42.463,42.463,0,0,0,4.952-20.913q0-12.159-4.864-21a33.633,33.633,0,0,0-13.708-13.634,42.807,42.807,0,0,0-20.7-4.791,39.505,39.505,0,0,0-13,2.3,33.075,33.075,0,0,0-11.85,7.186A25.314,25.314,0,0,0,49.3,270.517h-.707V267.2a95.657,95.657,0,0,1,2.034-20.267,55.94,55.94,0,0,1,6.1-16.4,32.977,32.977,0,0,1,9.906-10.964,23.376,23.376,0,0,1,13.442-3.961q10.436,0,16.362,4.883a27.405,27.405,0,0,1,8.579,13.359l13.089-6.45a46.935,46.935,0,0,0-8.668-14.647,31.413,31.413,0,0,0-12.116-8.292,45.757,45.757,0,0,0-16.361-2.672,39.824,39.824,0,0,0-23.26,7.187q-10.347,7.185-16.361,21.1t-6.015,34.364q0,18.24,5.13,32.335t15.212,22.2a35.536,35.536,0,0,0,3.946,2.757H18.425V18.425H321.732Z"/>
      </g>
    </g>
</svg>
