<svg xmlns="http://www.w3.org/2000/svg" width="120mm" height="120mm" viewBox="0 0 340.157 340.157">
  <g id="Zimmernummer">
      <g id="Z-04-543-M">
        <path fill="#D4AF37" stroke="none" d="M337.322,0H2.835A2.836,2.836,0,0,0,0,2.835V337.323a2.834,2.834,0,0,0,2.835,2.834H337.322a2.834,2.834,0,0,0,2.835-2.834V2.835A2.836,2.836,0,0,0,337.322,0ZM178.774,280.65h-41.92l30.6-44.774q2.827-4.236,6.191-9.949t5.483-10.318h.353q-.177,4.792-.442,9.766t-.265,9.764Zm142.958,41.082h-38.5a34.738,34.738,0,0,0,12.9-12.339,35.8,35.8,0,0,0,5.041-18.977,29.064,29.064,0,0,0-1.681-9.858,26.25,26.25,0,0,0-4.863-8.384,24.028,24.028,0,0,0-7.695-5.9,25.06,25.06,0,0,0-10.348-2.4v-.369a23.85,23.85,0,0,0,8.314-3.04,25.788,25.788,0,0,0,6.987-6.172,29.62,29.62,0,0,0,4.864-9.121,37.161,37.161,0,0,0,1.768-11.884,32.156,32.156,0,0,0-3.979-15.845A29.136,29.136,0,0,0,282.6,205.936q-7.961-4.328-20.165-4.33a46.22,46.22,0,0,0-17.777,3.316,39.7,39.7,0,0,0-13.708,9.213,38.607,38.607,0,0,0-8.49,13.634l13.442,6.634a34.077,34.077,0,0,1,9.2-13.727q5.836-5.067,16.98-5.067,10.435,0,16.1,4.974t5.66,14.556q0,11.241-5.484,16.491t-18.4,5.251H257.22a26.673,26.673,0,0,1-3.1-.184v14.74a45.408,45.408,0,0,1,4.776-.46q2.3-.09,4.246-.093,8.311,0,13.442,2.119a14.472,14.472,0,0,1,7.517,6.541,23.056,23.056,0,0,1,2.389,11.055,23.606,23.606,0,0,1-2.83,11.7,20.473,20.473,0,0,1-8.137,8.015,26.621,26.621,0,0,1-13.089,2.948q-9.2,0-15.3-2.763a24.366,24.366,0,0,1-9.818-7.832,40.052,40.052,0,0,1-5.837-11.883l-14.15,7.554a37.875,37.875,0,0,0,16.185,21.1c1.306.837,2.648,1.6,4.019,2.3H192.925V293.363H213.62V280.65H192.925V203.632H175.06l-53.242,78.861v10.87h56.956v28.369H96.41A35.23,35.23,0,0,0,112.27,303.5a45.549,45.549,0,0,0,3.006-16.952,44.138,44.138,0,0,0-4.6-20.635,33.634,33.634,0,0,0-12.823-13.727,37.255,37.255,0,0,0-19.37-4.883,41.042,41.042,0,0,0-15.831,2.764,30.483,30.483,0,0,0-10.878,7.37h-.353l.353-1.658,4.6-38.324h53.6v-13.82H44.347l-6.9,66.884,12.382,2.4a24.1,24.1,0,0,1,6.721-6.818,27.7,27.7,0,0,1,8.756-3.777,43.951,43.951,0,0,1,10.524-1.2,28.111,28.111,0,0,1,13.443,2.948,19.729,19.729,0,0,1,8.4,8.752q2.917,5.8,2.918,14.464a28.521,28.521,0,0,1-3.184,13.911,22.037,22.037,0,0,1-8.932,8.936,28.635,28.635,0,0,1-13.886,3.132q-11.5,0-17.423-5.988a36.21,36.21,0,0,1-8.755-15.569l-13.8,7.554q5.128,13.086,14.593,20.452a30.494,30.494,0,0,0,2.951,2.021H18.425V18.425H321.732Z"/>
      </g>
    </g>
</svg>
