<svg xmlns="http://www.w3.org/2000/svg" width="120mm" height="120mm" viewBox="0 0 340.158 340.157">
  <g id="Zimmernummer">
      <g id="Z-04-438-M">
        <path fill="#D4AF37" stroke="none" d="M337.323,0H2.835A2.836,2.836,0,0,0,0,2.835V337.323a2.834,2.834,0,0,0,2.835,2.834H337.323a2.834,2.834,0,0,0,2.835-2.834V2.835A2.836,2.836,0,0,0,337.323,0ZM85.2,280.651H43.283l30.6-44.774q2.828-4.236,6.19-9.949t5.484-10.318h.353q-.177,4.792-.441,9.765t-.266,9.764Zm161.579-9.49a41.426,41.426,0,0,1,29.274,0,21.775,21.775,0,0,1,9.64,7.738,21.22,21.22,0,0,1-9.463,31.691,42.4,42.4,0,0,1-29.628,0,21.77,21.77,0,0,1-9.551-31.691A21.7,21.7,0,0,1,246.783,271.161Zm-7.871-35.836q0-9.211,6.1-14.371t16.361-5.161q10.434,0,16.45,5.161t6.014,14.371q0,9.029-6.191,14.187t-16.273,5.158q-10.083,0-16.273-5.158T238.912,235.325Zm82.82,86.407H286.048a33.772,33.772,0,0,0,12.473-10.864,31.777,31.777,0,0,0,5.306-18.426q0-11.423-5.925-19.346A35.347,35.347,0,0,0,282.071,261.3v-.183a27.771,27.771,0,0,0,12.117-10.78,31,31,0,0,0,4.333-16.49,30.659,30.659,0,0,0-4.6-17.043,30.142,30.142,0,0,0-12.912-10.963,51.53,51.53,0,0,0-39.18,0,30.036,30.036,0,0,0-13,10.963q-4.6,7.1-4.6,17.043a30.408,30.408,0,0,0,4.511,16.676,27.9,27.9,0,0,0,12.116,10.594v.183a34.287,34.287,0,0,0-16.095,11.885q-5.838,8.016-5.838,19.254a31.785,31.785,0,0,0,5.306,18.426,33.639,33.639,0,0,0,12.541,10.864H189.662a34.747,34.747,0,0,0,12.9-12.339,35.777,35.777,0,0,0,5.042-18.976,29.083,29.083,0,0,0-1.68-9.858,26.257,26.257,0,0,0-4.864-8.385,24.042,24.042,0,0,0-7.695-5.9,25.071,25.071,0,0,0-10.347-2.4v-.369a23.831,23.831,0,0,0,8.313-3.039,25.789,25.789,0,0,0,6.986-6.172,29.591,29.591,0,0,0,4.865-9.121,37.2,37.2,0,0,0,1.769-11.885,32.162,32.162,0,0,0-3.98-15.845,29.139,29.139,0,0,0-11.94-11.516q-7.959-4.328-20.164-4.33a46.224,46.224,0,0,0-17.777,3.316,39.692,39.692,0,0,0-13.708,9.213,38.591,38.591,0,0,0-8.49,13.635l13.443,6.633a34.071,34.071,0,0,1,9.2-13.727q5.838-5.065,16.982-5.066,10.434,0,16.1,4.974t5.661,14.555q0,11.241-5.484,16.492t-18.4,5.25h-2.743a26.843,26.843,0,0,1-3.094-.183v14.74a45.373,45.373,0,0,1,4.775-.461q2.3-.09,4.245-.092,8.313,0,13.444,2.119a14.468,14.468,0,0,1,7.517,6.541,23.065,23.065,0,0,1,2.388,11.055,23.6,23.6,0,0,1-2.83,11.7,20.462,20.462,0,0,1-8.137,8.016,26.616,26.616,0,0,1-13.089,2.947q-9.2,0-15.3-2.763a24.364,24.364,0,0,1-9.816-7.831,40.023,40.023,0,0,1-5.838-11.884l-14.15,7.554a37.877,37.877,0,0,0,16.184,21.1c1.306.836,2.648,1.6,4.019,2.3H99.354V293.364h20.7V280.651h-20.7V203.633H81.489l-53.241,78.86v10.871H85.2v28.368H18.425V18.425H321.732Z"/>
      </g>
    </g>
</svg>
