<svg xmlns="http://www.w3.org/2000/svg" width="120mm" height="120mm" viewBox="0 0 340.158 340.157">
  <g id="Zimmernummer">
      <g id="Z-04-048-M">
        <path fill="#D4AF37" stroke="none" d="M337.323,0H2.835A2.836,2.836,0,0,0,0,2.835V337.323a2.834,2.834,0,0,0,2.835,2.834H337.323a2.834,2.834,0,0,0,2.835-2.834V2.835A2.836,2.836,0,0,0,337.323,0ZM163.745,280.651H120.078l31.875-44.774q2.946-4.236,6.449-9.949a116.873,116.873,0,0,0,5.712-10.318h.368q-.186,4.792-.461,9.765t-.276,9.764Zm77.477-9.49a44.837,44.837,0,0,1,30.494,0,22.53,22.53,0,0,1,10.041,7.738,21.991,21.991,0,0,1,.093,23.953,21.87,21.87,0,0,1-9.95,7.738,45.893,45.893,0,0,1-30.862,0A21.789,21.789,0,0,1,231,302.852a21.994,21.994,0,0,1,.092-23.953A22.459,22.459,0,0,1,241.222,271.161Zm-8.2-35.836q0-9.211,6.357-14.371t17.044-5.161q10.869,0,17.135,5.161t6.265,14.371q0,9.029-6.449,14.187t-16.951,5.158q-10.5,0-16.951-5.158T233.022,235.325Zm88.71,86.407H282.123a34.792,34.792,0,0,0,12.993-10.864,30.866,30.866,0,0,0,5.528-18.426q0-11.423-6.173-19.346A36.733,36.733,0,0,0,277.98,261.3v-.183A28.574,28.574,0,0,0,290.6,250.34a30.049,30.049,0,0,0,4.514-16.49,29.739,29.739,0,0,0-4.791-17.043,31.091,31.091,0,0,0-13.45-10.963q-8.662-3.87-20.452-3.869a49.95,49.95,0,0,0-20.36,3.869,30.977,30.977,0,0,0-13.542,10.963,32.327,32.327,0,0,0-.093,33.719A28.735,28.735,0,0,0,235.05,261.12v.183a35.638,35.638,0,0,0-16.767,11.885,33.5,33.5,0,0,0-.553,37.68,34.659,34.659,0,0,0,13.062,10.864H178.485V293.364h21.558V280.651H178.485V203.633H159.876l-55.46,78.86v10.871h59.329v28.368H18.425V18.425H321.732Z"/>
      </g>
    </g>
</svg>
