<svg xmlns="http://www.w3.org/2000/svg" width="120mm" height="120mm" viewBox="0 0 340.158 340.157">
  <g id="Zimmernummer">
      <g id="Z-04-630-R">
        <path fill="#A0552B" stroke="none" d="M337.323,0H2.835A2.836,2.836,0,0,0,0,2.835V337.323a2.834,2.834,0,0,0,2.835,2.834H337.323a2.834,2.834,0,0,0,2.835-2.834V2.835A2.836,2.836,0,0,0,337.323,0ZM54.518,300.273a25.072,25.072,0,0,1-3.361-12.805,25.913,25.913,0,0,1,3.184-12.99,22.971,22.971,0,0,1,8.932-8.844,26.856,26.856,0,0,1,13.355-3.225,28.849,28.849,0,0,1,13.8,3.04,20.779,20.779,0,0,1,8.667,8.66,27.95,27.95,0,0,1,3.007,13.359q0,11.979-6.721,18.7T76.628,312.9a24.988,24.988,0,0,1-22.11-12.622Zm181.035-8.752q-3.276-11.055-3.273-27.084t3.273-27.086q3.27-11.055,9.728-16.674a25.107,25.107,0,0,1,31.662,0q6.454,5.622,9.729,16.674t3.272,27.086q0,16.029-3.272,27.084T276.943,308.2a25.111,25.111,0,0,1-31.662,0Q238.824,302.577,235.553,291.521Zm86.179,30.211h-40.3a39.85,39.85,0,0,0,11.426-10.68q11.761-16.031,11.763-46.615T292.862,217.82q-11.765-16.029-31.75-16.03-19.812,0-31.662,16.03T217.6,264.437q0,30.585,11.85,46.615a40.323,40.323,0,0,0,11.452,10.68H188.869a34.76,34.76,0,0,0,12.9-12.338,35.8,35.8,0,0,0,5.041-18.978,29.082,29.082,0,0,0-1.68-9.857,26.252,26.252,0,0,0-4.864-8.384,24.045,24.045,0,0,0-7.695-5.9,25.078,25.078,0,0,0-10.347-2.394v-.369a23.873,23.873,0,0,0,8.313-3.04,25.787,25.787,0,0,0,6.986-6.172,29.6,29.6,0,0,0,4.865-9.121,37.189,37.189,0,0,0,1.768-11.884,32.157,32.157,0,0,0-3.979-15.846,29.131,29.131,0,0,0-11.94-11.515q-7.959-4.328-20.165-4.331a46.219,46.219,0,0,0-17.776,3.317,39.678,39.678,0,0,0-13.708,9.213,38.561,38.561,0,0,0-8.49,13.634l13.442,6.633a34.079,34.079,0,0,1,9.2-13.726q5.838-5.067,16.981-5.068,10.435,0,16.1,4.975t5.661,14.556q0,11.241-5.484,16.491T165.6,256.882h-2.743a26.632,26.632,0,0,1-3.094-.185v14.741a44.837,44.837,0,0,1,4.775-.46q2.3-.092,4.245-.093,8.311,0,13.444,2.119a14.476,14.476,0,0,1,7.517,6.541A23.065,23.065,0,0,1,192.13,290.6a23.609,23.609,0,0,1-2.83,11.7,20.464,20.464,0,0,1-8.137,8.014,26.619,26.619,0,0,1-13.09,2.949q-9.2,0-15.3-2.764a24.367,24.367,0,0,1-9.817-7.831,40.046,40.046,0,0,1-5.837-11.884l-14.15,7.555a37.878,37.878,0,0,0,16.184,21.1c1.306.836,2.648,1.6,4.019,2.3H99.081a33.853,33.853,0,0,0,12.924-13.168,42.463,42.463,0,0,0,4.952-20.913q0-12.159-4.864-21a33.639,33.639,0,0,0-13.708-13.634,42.813,42.813,0,0,0-20.7-4.791,39.5,39.5,0,0,0-13,2.3,33.075,33.075,0,0,0-11.85,7.186,25.307,25.307,0,0,0-7.164,12.806h-.708V267.2A95.722,95.722,0,0,1,47,246.933a55.969,55.969,0,0,1,6.1-16.4,32.985,32.985,0,0,1,9.905-10.964,23.38,23.38,0,0,1,13.443-3.961q10.434,0,16.361,4.883a27.4,27.4,0,0,1,8.58,13.359l13.088-6.45a46.934,46.934,0,0,0-8.667-14.647A31.42,31.42,0,0,0,93.7,204.462a45.76,45.76,0,0,0-16.361-2.672,39.827,39.827,0,0,0-23.261,7.187q-10.346,7.185-16.361,21.1T31.7,264.437q0,18.24,5.13,32.335t15.212,22.2a35.524,35.524,0,0,0,3.945,2.757H18.425V18.425H321.732Z"/>
      </g>
    </g>
</svg>
