<svg xmlns="http://www.w3.org/2000/svg" width="120mm" height="120mm" viewBox="0 0 340.158 340.158">
  <g id="Zimmernummer">
      <g id="Z-04-016-R">
        <path fill="#A0552B" stroke="none" d="M339.327.831a2.835,2.835,0,0,0-2-.831H2.835A2.836,2.836,0,0,0,0,2.835V337.323a2.836,2.836,0,0,0,2.835,2.835H337.323a2.837,2.837,0,0,0,2.835-2.835V2.835A2.831,2.831,0,0,0,339.327.831ZM236.352,300.156a24.31,24.31,0,0,1-3.5-12.806,25.082,25.082,0,0,1,3.316-12.989,23.491,23.491,0,0,1,9.305-8.845,28.918,28.918,0,0,1,13.911-3.224,31.074,31.074,0,0,1,14.371,3.04,21.221,21.221,0,0,1,9.029,8.66,27.036,27.036,0,0,1,3.132,13.358q0,11.98-7,18.7t-19.531,6.725a26.855,26.855,0,0,1-13.543-3.409A25.73,25.73,0,0,1,236.352,300.156Zm85.38,21.576H282.561a34.563,34.563,0,0,0,13.672-13.285,41.1,41.1,0,0,0,5.159-20.913q0-12.16-5.067-21A34.389,34.389,0,0,0,282.046,252.9q-9.216-4.79-21.558-4.79a42.682,42.682,0,0,0-13.542,2.3,34.746,34.746,0,0,0-12.345,7.186,25.076,25.076,0,0,0-7.462,12.805H226.4v-3.316a91.959,91.959,0,0,1,2.119-20.268,54.6,54.6,0,0,1,6.356-16.4A33.521,33.521,0,0,1,245.2,219.453a25.084,25.084,0,0,1,14-3.961q10.869,0,17.043,4.883a27.332,27.332,0,0,1,8.936,13.358l13.634-6.449a46.579,46.579,0,0,0-9.028-14.648,32.811,32.811,0,0,0-12.621-8.291,49.467,49.467,0,0,0-17.043-2.672,42.7,42.7,0,0,0-24.229,7.186q-10.779,7.186-17.044,21.1t-6.264,34.363q0,18.24,5.343,32.336t15.846,22.2a36.909,36.909,0,0,0,4.324,2.875H196.553V203.516h-12.9a37.452,37.452,0,0,1-7.37,7.185,92.463,92.463,0,0,1-10.41,6.91,95.957,95.957,0,0,1-10.687,5.343,31.982,31.982,0,0,1-8.383,2.488l3.869,13.45a67.44,67.44,0,0,0,16.951-6.541,66.161,66.161,0,0,0,14.556-10.594q-.185,3.869-.276,7.462t-.093,6.725v85.788H18.425V18.425H321.732Z"/>
      </g>
    </g>
</svg>
