<svg xmlns="http://www.w3.org/2000/svg" width="120mm" height="120mm" viewBox="0 0 340.158 340.158">
  <g id="Zimmernummer">
      <g id="Z-04-207-M">
        <path fill="#D4AF37" stroke="none" d="M337.323,0H2.835A2.836,2.836,0,0,0,0,2.835V337.323a2.836,2.836,0,0,0,2.835,2.835H337.323a2.836,2.836,0,0,0,2.835-2.835V2.835A2.836,2.836,0,0,0,337.323,0ZM148.974,291.522q-3.274-11.055-3.272-27.085t3.272-27.086q3.272-11.053,9.729-16.674a25.107,25.107,0,0,1,31.662,0q6.454,5.622,9.728,16.674t3.272,27.086q0,16.031-3.272,27.085T190.365,308.2a25.111,25.111,0,0,1-31.662,0Q152.244,302.578,148.974,291.522Zm172.758,30.21H261.427a171.644,171.644,0,0,1,4.2-35.554,139.235,139.235,0,0,1,13.531-35.469,173.307,173.307,0,0,1,23.968-33.256v-13.82H217.161v13.82h70.584a164.52,164.52,0,0,0-21.234,30.033,156.164,156.164,0,0,0-14.77,37.679,165.573,165.573,0,0,0-4.812,36.567H194.857a39.826,39.826,0,0,0,11.427-10.68q11.762-16.029,11.763-46.615t-11.763-46.616q-11.766-16.031-31.75-16.03-19.812,0-31.662,16.03t-11.851,46.616q0,30.586,11.851,46.615a40.292,40.292,0,0,0,11.451,10.68H123.947V311.42H83.087q-1.77,0-5.218.093t-6.9.184q-3.448.094-5.394.276v-.183q20.87-14.555,33.077-26.533t17.511-22.939a50.855,50.855,0,0,0,5.306-22.387,42.163,42.163,0,0,0-2.741-15.477,34.424,34.424,0,0,0-7.871-12.069,35.392,35.392,0,0,0-12.294-7.83,44.678,44.678,0,0,0-16.184-2.764q-11.853,0-20.43,4.606a35.527,35.527,0,0,0-13.62,12.714A48.782,48.782,0,0,0,41.7,237.905l12.381,7.738q1.236-13.633,8.491-21.834t19.28-8.2q11.5,0,18.13,6.725t6.634,17.6a41.278,41.278,0,0,1-3.008,15.569,58.812,58.812,0,0,1-10.082,15.754,175.935,175.935,0,0,1-18.838,18.425q-11.765,10.135-29.274,23.584v8.469H18.425V18.425H321.732Z"/>
      </g>
    </g>
</svg>
