<svg xmlns="http://www.w3.org/2000/svg" width="120mm" height="120mm" viewBox="0 0 340.158 340.157">
  <g id="Zimmernummer">
      <g id="Z-04-101-M">
        <path fill="#D4AF37" stroke="none" d="M337.323,0H2.835A2.834,2.834,0,0,0,0,2.835V337.323a2.834,2.834,0,0,0,2.835,2.834H337.323a2.834,2.834,0,0,0,2.835-2.834V2.835A2.834,2.834,0,0,0,337.323,0ZM132.6,291.521q-3.276-11.055-3.273-27.084t3.273-27.086q3.27-11.055,9.728-16.674a25.107,25.107,0,0,1,31.662,0q6.454,5.622,9.729,16.674t3.272,27.086q0,16.029-3.272,27.084T173.992,308.2a25.111,25.111,0,0,1-31.662,0Q135.871,302.577,132.6,291.521Zm189.13,30.211H255.269v-118.1H242.887a36.732,36.732,0,0,1-7.075,7.185,88.815,88.815,0,0,1-10,6.911,90.656,90.656,0,0,1-10.258,5.342,29.8,29.8,0,0,1-8.049,2.488l3.715,13.451a65.993,65.993,0,0,0,30.247-17.136q-.179,3.869-.266,7.462t-.088,6.726v85.67H178.485a39.837,39.837,0,0,0,11.426-10.68q11.762-16.031,11.763-46.615T189.911,217.82q-11.764-16.029-31.75-16.03-19.812,0-31.662,16.03t-11.851,46.617q0,30.585,11.851,46.615a40.323,40.323,0,0,0,11.452,10.68h-44v-118.1H81.571a36.675,36.675,0,0,1-7.075,7.185,88.71,88.71,0,0,1-9.994,6.911,90.58,90.58,0,0,1-10.259,5.342,29.787,29.787,0,0,1-8.048,2.488L49.91,239.01a63.322,63.322,0,0,0,16.273-6.541,63.723,63.723,0,0,0,13.973-10.595q-.177,3.869-.265,7.462t-.088,6.726v85.67H18.426V18.425H321.732Z"/>
      </g>
    </g>
</svg>
