<svg xmlns="http://www.w3.org/2000/svg" width="120mm" height="120mm" viewBox="0 0 340.158 340.157">
  <g id="Zimmernummer">
      <g id="Z-04-058-M">
        <path fill="#D4AF37" stroke="none" d="M337.323,0H2.835A2.836,2.836,0,0,0,0,2.835V337.323a2.834,2.834,0,0,0,2.835,2.834H337.323a2.834,2.834,0,0,0,2.835-2.834V2.835A2.836,2.836,0,0,0,337.323,0Zm-96.1,271.161a44.837,44.837,0,0,1,30.494,0,22.53,22.53,0,0,1,10.041,7.738,21.991,21.991,0,0,1,.093,23.953,21.865,21.865,0,0,1-9.95,7.738,45.893,45.893,0,0,1-30.862,0A21.789,21.789,0,0,1,231,302.852a22,22,0,0,1,.092-23.953A22.47,22.47,0,0,1,241.222,271.161Zm-8.2-35.836q0-9.211,6.356-14.371t17.044-5.161q10.869,0,17.135,5.161t6.265,14.371q0,9.029-6.448,14.187t-16.952,5.158q-10.5,0-16.951-5.158T233.023,235.325Zm88.709,86.407H282.124a34.788,34.788,0,0,0,12.992-10.864,30.866,30.866,0,0,0,5.528-18.426q0-11.423-6.173-19.346A36.733,36.733,0,0,0,277.98,261.3v-.183A28.574,28.574,0,0,0,290.6,250.34a30.049,30.049,0,0,0,4.514-16.49,29.746,29.746,0,0,0-4.79-17.043,31.094,31.094,0,0,0-13.451-10.963q-8.662-3.87-20.452-3.869a49.953,49.953,0,0,0-20.36,3.869,30.977,30.977,0,0,0-13.542,10.963,32.327,32.327,0,0,0-.093,33.719A28.735,28.735,0,0,0,235.05,261.12v.183a35.638,35.638,0,0,0-16.767,11.885,33.5,33.5,0,0,0-.553,37.68,34.654,34.654,0,0,0,13.063,10.864H177.628A37.382,37.382,0,0,0,185.3,316.3a35.731,35.731,0,0,0,8.844-12.806,43.881,43.881,0,0,0,3.133-16.952,42.677,42.677,0,0,0-4.791-20.634,34.232,34.232,0,0,0-13.358-13.727q-8.568-4.881-20.175-4.883a44.311,44.311,0,0,0-16.491,2.764,31.852,31.852,0,0,0-11.332,7.369h-.368l.368-1.658,4.791-38.324h55.828V203.633H123.4l-7.186,66.883,12.9,2.4a24.619,24.619,0,0,1,7-6.819,29.516,29.516,0,0,1,9.121-3.777,47.659,47.659,0,0,1,10.963-1.2,30.3,30.3,0,0,1,14,2.947,20.112,20.112,0,0,1,8.752,8.752q3.04,5.8,3.04,14.465a27.587,27.587,0,0,1-3.317,13.91,22.515,22.515,0,0,1-9.3,8.937,30.853,30.853,0,0,1-14.464,3.131q-11.979,0-18.149-5.988a35.868,35.868,0,0,1-9.121-15.568l-14.371,7.554q5.341,13.085,15.2,20.451a31.837,31.837,0,0,0,3.075,2.021H18.425V18.425H321.732Z"/>
      </g>
    </g>
</svg>
