<svg xmlns="http://www.w3.org/2000/svg" width="120mm" height="120mm" viewBox="0 0 340.158 340.157">
  <g id="Zimmernummer">
      <g id="Z-04-306-R">
        <path fill="#A0552B" stroke="none" d="M337.323,0H2.835A2.836,2.836,0,0,0,0,2.835V337.323a2.834,2.834,0,0,0,2.835,2.834H337.323a2.834,2.834,0,0,0,2.835-2.834V2.835A2.836,2.836,0,0,0,337.323,0ZM138.628,291.521q-3.276-11.055-3.272-27.084t3.272-27.086q3.272-11.055,9.729-16.674a25.106,25.106,0,0,1,31.661,0q6.454,5.622,9.729,16.674t3.272,27.086q0,16.029-3.272,27.084T180.018,308.2a25.109,25.109,0,0,1-31.661,0Q141.9,302.577,138.628,291.521Zm102.5,8.752a25.072,25.072,0,0,1-3.361-12.805,25.913,25.913,0,0,1,3.184-12.99,22.971,22.971,0,0,1,8.932-8.844,26.856,26.856,0,0,1,13.355-3.225,28.849,28.849,0,0,1,13.8,3.04,20.773,20.773,0,0,1,8.667,8.66,27.95,27.95,0,0,1,3.007,13.359q0,11.979-6.721,18.7T263.24,312.9a24.988,24.988,0,0,1-22.11-12.622Zm80.6,21.459H285.693a33.85,33.85,0,0,0,12.923-13.168,42.452,42.452,0,0,0,4.953-20.913q0-12.159-4.864-21A33.639,33.639,0,0,0,285,253.013a42.81,42.81,0,0,0-20.7-4.791,39.505,39.505,0,0,0-13,2.3,33.088,33.088,0,0,0-11.851,7.186,25.313,25.313,0,0,0-7.163,12.806h-.708V267.2a95.657,95.657,0,0,1,2.034-20.267,55.969,55.969,0,0,1,6.1-16.4,32.985,32.985,0,0,1,9.905-10.964,23.382,23.382,0,0,1,13.443-3.961q10.435,0,16.362,4.883A27.412,27.412,0,0,1,288,233.851l13.089-6.45a46.935,46.935,0,0,0-8.668-14.647,31.42,31.42,0,0,0-12.116-8.292,45.76,45.76,0,0,0-16.361-2.672,39.821,39.821,0,0,0-23.26,7.187q-10.349,7.185-16.362,21.1t-6.014,34.364q0,18.24,5.13,32.335t15.211,22.2a35.629,35.629,0,0,0,3.946,2.757H184.511a39.853,39.853,0,0,0,11.427-10.68q11.76-16.031,11.762-46.615T195.938,217.82q-11.766-16.029-31.751-16.03-19.812,0-31.661,16.03t-11.852,46.617q0,30.585,11.852,46.615a40.307,40.307,0,0,0,11.451,10.68H95.482a34.765,34.765,0,0,0,12.9-12.338,35.8,35.8,0,0,0,5.041-18.978,29.082,29.082,0,0,0-1.68-9.857,26.234,26.234,0,0,0-4.864-8.384,24.041,24.041,0,0,0-7.694-5.9,25.079,25.079,0,0,0-10.348-2.394v-.369a23.878,23.878,0,0,0,8.314-3.04,25.787,25.787,0,0,0,6.986-6.172A29.622,29.622,0,0,0,109,245.182,37.189,37.189,0,0,0,110.77,233.3a32.157,32.157,0,0,0-3.979-15.846,29.137,29.137,0,0,0-11.94-11.515q-7.959-4.328-20.164-4.331a46.22,46.22,0,0,0-17.777,3.317A39.692,39.692,0,0,0,43.2,214.136a38.589,38.589,0,0,0-8.49,13.634L48.154,234.4a34.079,34.079,0,0,1,9.2-13.726q5.837-5.067,16.981-5.068,10.434,0,16.1,4.975t5.66,14.556q0,11.241-5.483,16.491t-18.4,5.251H69.468a26.649,26.649,0,0,1-3.095-.185v14.741a44.88,44.88,0,0,1,4.776-.46q2.3-.092,4.245-.093,8.311,0,13.443,2.119a14.478,14.478,0,0,1,7.518,6.541A23.077,23.077,0,0,1,98.742,290.6a23.609,23.609,0,0,1-2.83,11.7,20.455,20.455,0,0,1-8.136,8.014,26.621,26.621,0,0,1-13.089,2.949q-9.2,0-15.3-2.764a24.367,24.367,0,0,1-9.817-7.831,40.046,40.046,0,0,1-5.837-11.884l-14.15,7.555a37.878,37.878,0,0,0,16.184,21.1c1.306.836,2.648,1.6,4.019,2.3H18.425V18.425H321.732Z"/>
      </g>
    </g>
</svg>
