<svg xmlns="http://www.w3.org/2000/svg" width="120mm" height="120mm" viewBox="0 0 340.157 340.157">
  <g id="Zimmernummer">
      <g id="Z-04-548-E">
        <path fill="#A09f9d" stroke="none" d="M337.322,0H2.835A2.836,2.836,0,0,0,0,2.835V337.323a2.834,2.834,0,0,0,2.835,2.834H337.322a2.834,2.834,0,0,0,2.835-2.834V2.835A2.836,2.836,0,0,0,337.322,0ZM175.855,280.651h-41.92l30.6-44.774q2.827-4.236,6.191-9.949t5.483-10.318h.353q-.178,4.792-.442,9.765t-.265,9.764Zm70.84-9.49a41.426,41.426,0,0,1,29.274,0,21.769,21.769,0,0,1,9.64,7.738,21.22,21.22,0,0,1-9.463,31.691,42.4,42.4,0,0,1-29.628,0,21.772,21.772,0,0,1-9.551-31.691A21.7,21.7,0,0,1,246.7,271.161Zm-7.871-35.836q0-9.211,6.1-14.371t16.362-5.161q10.434,0,16.449,5.161t6.015,14.371q0,9.029-6.191,14.187t-16.273,5.158q-10.083,0-16.273-5.158T238.824,235.325Zm82.908,86.407H285.96a33.772,33.772,0,0,0,12.473-10.864,31.777,31.777,0,0,0,5.306-18.426q0-11.423-5.926-19.346A35.341,35.341,0,0,0,281.982,261.3v-.183A27.773,27.773,0,0,0,294.1,250.34a31,31,0,0,0,4.333-16.49,30.659,30.659,0,0,0-4.6-17.043,30.137,30.137,0,0,0-12.912-10.963,51.53,51.53,0,0,0-39.18,0,30.03,30.03,0,0,0-13,10.963q-4.6,7.1-4.6,17.043a30.408,30.408,0,0,0,4.51,16.676A27.894,27.894,0,0,0,240.77,261.12v.183a34.288,34.288,0,0,0-16.1,11.885q-5.837,8.016-5.837,19.254a31.77,31.77,0,0,0,5.307,18.426,33.613,33.613,0,0,0,12.54,10.864H190.006V293.364H210.7V280.651H190.006V203.633H172.141L118.9,282.493v10.871h56.956v28.368H93.491A35.212,35.212,0,0,0,109.35,303.5a45.5,45.5,0,0,0,3.007-16.952,44.134,44.134,0,0,0-4.6-20.634,33.634,33.634,0,0,0-12.823-13.727,37.255,37.255,0,0,0-19.37-4.883,41.024,41.024,0,0,0-15.831,2.764,30.49,30.49,0,0,0-10.878,7.369H48.5l.353-1.658,4.6-38.324h53.6V203.633H41.428l-6.9,66.883,12.382,2.4a24.1,24.1,0,0,1,6.722-6.819,27.718,27.718,0,0,1,8.755-3.777,44,44,0,0,1,10.524-1.2,28.112,28.112,0,0,1,13.443,2.947,19.723,19.723,0,0,1,8.4,8.752q2.918,5.8,2.918,14.465a28.52,28.52,0,0,1-3.184,13.91,22.033,22.033,0,0,1-8.932,8.937,28.634,28.634,0,0,1-13.886,3.131q-11.5,0-17.423-5.988A36.206,36.206,0,0,1,45.5,291.706L31.7,299.26q5.128,13.085,14.593,20.451a30.494,30.494,0,0,0,2.951,2.021H18.425V18.425H321.732Z"/>
      </g>
    </g>
</svg>
