<svg xmlns="http://www.w3.org/2000/svg" width="120mm" height="120mm" viewBox="0 0 340.158 340.157">
  <g id="Zimmernummer">
      <g id="Z-04-633">
        <path fill="#000000" stroke="none" d="M337.323,0H2.835A2.836,2.836,0,0,0,0,2.835V337.323a2.834,2.834,0,0,0,2.835,2.834H337.323a2.834,2.834,0,0,0,2.835-2.834V2.835A2.836,2.836,0,0,0,337.323,0ZM57.967,300.273a25.086,25.086,0,0,1-3.361-12.806,25.913,25.913,0,0,1,3.184-12.99,22.987,22.987,0,0,1,8.933-8.844,26.862,26.862,0,0,1,13.354-3.224,28.835,28.835,0,0,1,13.8,3.04,20.773,20.773,0,0,1,8.667,8.66,27.946,27.946,0,0,1,3.008,13.358q0,11.981-6.722,18.7t-18.75,6.726a24.985,24.985,0,0,1-22.11-12.621Zm263.765,21.459H283.056a34.743,34.743,0,0,0,12.9-12.339A35.789,35.789,0,0,0,301,290.416a29.088,29.088,0,0,0-1.68-9.858,26.255,26.255,0,0,0-4.865-8.384,24,24,0,0,0-7.694-5.9,25.055,25.055,0,0,0-10.347-2.4v-.369a23.853,23.853,0,0,0,8.313-3.04,25.788,25.788,0,0,0,6.987-6.172,29.62,29.62,0,0,0,4.864-9.121,37.16,37.16,0,0,0,1.769-11.884,32.146,32.146,0,0,0-3.98-15.845,29.136,29.136,0,0,0-11.939-11.516q-7.961-4.328-20.165-4.33a46.224,46.224,0,0,0-17.777,3.316,39.7,39.7,0,0,0-13.708,9.213,38.607,38.607,0,0,0-8.49,13.634l13.442,6.634a34.077,34.077,0,0,1,9.2-13.727q5.837-5.067,16.98-5.067,10.434,0,16.1,4.974t5.66,14.556q0,11.241-5.483,16.491t-18.4,5.251h-2.742a26.673,26.673,0,0,1-3.1-.184v14.74a45.426,45.426,0,0,1,4.777-.46q2.3-.09,4.245-.093,8.312,0,13.443,2.119a14.48,14.48,0,0,1,7.517,6.541,23.068,23.068,0,0,1,2.388,11.055,23.606,23.606,0,0,1-2.83,11.7,20.464,20.464,0,0,1-8.136,8.015,26.625,26.625,0,0,1-13.09,2.948q-9.2,0-15.3-2.763a24.362,24.362,0,0,1-9.817-7.832,40.028,40.028,0,0,1-5.837-11.883l-14.151,7.554a37.875,37.875,0,0,0,16.185,21.1c1.306.837,2.648,1.6,4.019,2.3H192.317a34.743,34.743,0,0,0,12.9-12.339,35.789,35.789,0,0,0,5.041-18.977,29.088,29.088,0,0,0-1.68-9.858,26.252,26.252,0,0,0-4.864-8.384,24.028,24.028,0,0,0-7.7-5.9,25.059,25.059,0,0,0-10.347-2.4v-.369a23.845,23.845,0,0,0,8.313-3.04,25.788,25.788,0,0,0,6.987-6.172,29.62,29.62,0,0,0,4.864-9.121,37.161,37.161,0,0,0,1.768-11.884,32.156,32.156,0,0,0-3.979-15.845,29.136,29.136,0,0,0-11.939-11.516q-7.96-4.328-20.166-4.33a46.219,46.219,0,0,0-17.776,3.316,39.7,39.7,0,0,0-13.708,9.213,38.607,38.607,0,0,0-8.49,13.634L144.99,234.4a34.076,34.076,0,0,1,9.2-13.727q5.838-5.067,16.981-5.067,10.435,0,16.1,4.974t5.66,14.556q0,11.241-5.484,16.491t-18.4,5.251h-2.742a26.643,26.643,0,0,1-3.095-.184v14.74a45.364,45.364,0,0,1,4.775-.46q2.3-.09,4.245-.093,8.311,0,13.444,2.119a14.476,14.476,0,0,1,7.517,6.541,23.068,23.068,0,0,1,2.388,11.055,23.606,23.606,0,0,1-2.83,11.7,20.473,20.473,0,0,1-8.137,8.015,26.619,26.619,0,0,1-13.09,2.948q-9.2,0-15.3-2.763a24.366,24.366,0,0,1-9.818-7.832,40.052,40.052,0,0,1-5.837-11.883l-14.15,7.554a37.879,37.879,0,0,0,16.185,21.1c1.306.837,2.648,1.6,4.019,2.3H102.529a33.842,33.842,0,0,0,12.925-13.168,42.466,42.466,0,0,0,4.952-20.913q0-12.161-4.864-21a33.635,33.635,0,0,0-13.708-13.635,42.817,42.817,0,0,0-20.7-4.791,39.5,39.5,0,0,0-13,2.3,33.091,33.091,0,0,0-11.851,7.185,25.318,25.318,0,0,0-7.164,12.806h-.707V267.2a95.673,95.673,0,0,1,2.034-20.268,55.962,55.962,0,0,1,6.1-16.4,32.978,32.978,0,0,1,9.906-10.964A23.369,23.369,0,0,1,79.9,215.609q10.435,0,16.362,4.883a27.407,27.407,0,0,1,8.579,13.358L117.93,227.4a46.928,46.928,0,0,0-8.667-14.648,31.427,31.427,0,0,0-12.117-8.292,45.757,45.757,0,0,0-16.361-2.671,39.823,39.823,0,0,0-23.26,7.186q-10.347,7.185-16.362,21.1t-6.014,34.363q0,18.24,5.13,32.336t15.212,22.2a35.412,35.412,0,0,0,3.946,2.758H18.425V18.425H321.732Z"/>
      </g>
    </g>
</svg>
