<svg xmlns="http://www.w3.org/2000/svg" width="120mm" height="120mm" viewBox="0 0 340.158 340.157">
  <g id="Zimmernummer">
      <g id="Z-04-626-M">
        <path fill="#D4AF37" stroke="none" d="M337.323,0H2.835A2.836,2.836,0,0,0,0,2.835V337.323a2.834,2.834,0,0,0,2.835,2.834H337.323a2.834,2.834,0,0,0,2.835-2.834V2.835A2.836,2.836,0,0,0,337.323,0ZM55.757,300.273A25.082,25.082,0,0,1,52.4,287.468a25.9,25.9,0,0,1,3.184-12.99,22.96,22.96,0,0,1,8.933-8.844,26.846,26.846,0,0,1,13.354-3.225,28.849,28.849,0,0,1,13.8,3.04,20.779,20.779,0,0,1,8.667,8.66,27.95,27.95,0,0,1,3.007,13.359q0,11.979-6.722,18.7T77.867,312.9a24.988,24.988,0,0,1-22.11-12.622Zm185.9,0a25.072,25.072,0,0,1-3.361-12.805,25.9,25.9,0,0,1,3.184-12.99,22.971,22.971,0,0,1,8.932-8.844,26.853,26.853,0,0,1,13.355-3.225,28.845,28.845,0,0,1,13.8,3.04,20.77,20.77,0,0,1,8.668,8.66,27.95,27.95,0,0,1,3.007,13.359q0,11.979-6.721,18.7t-18.75,6.726a24.991,24.991,0,0,1-22.11-12.622Zm80.076,21.459H286.218a33.849,33.849,0,0,0,12.925-13.168,42.474,42.474,0,0,0,4.953-20.913q0-12.159-4.866-21a33.627,33.627,0,0,0-13.708-13.634,42.8,42.8,0,0,0-20.695-4.791,39.505,39.505,0,0,0-13,2.3,33.066,33.066,0,0,0-11.85,7.186,25.307,25.307,0,0,0-7.164,12.806H232.1V267.2a95.59,95.59,0,0,1,2.035-20.267,55.912,55.912,0,0,1,6.1-16.4,32.985,32.985,0,0,1,9.9-10.964,23.382,23.382,0,0,1,13.443-3.961q10.435,0,16.362,4.883a27.4,27.4,0,0,1,8.578,13.359l13.09-6.45a46.935,46.935,0,0,0-8.668-14.647,31.42,31.42,0,0,0-12.116-8.292,45.757,45.757,0,0,0-16.361-2.672,39.819,39.819,0,0,0-23.26,7.187q-10.349,7.185-16.361,21.1t-6.015,34.364q0,18.24,5.13,32.335t15.212,22.2a35.524,35.524,0,0,0,3.945,2.757h-34.9V311.42h-40.86q-1.77,0-5.219.093t-6.9.183q-3.449.1-5.4.277v-.184q20.871-14.553,33.078-26.532t17.51-22.94a50.849,50.849,0,0,0,5.307-22.386,42.164,42.164,0,0,0-2.741-15.478,34.408,34.408,0,0,0-7.872-12.068,35.364,35.364,0,0,0-12.293-7.83,44.679,44.679,0,0,0-16.185-2.765q-11.851,0-20.43,4.606a35.548,35.548,0,0,0-13.62,12.714,48.8,48.8,0,0,0-6.632,18.794l12.381,7.739q1.236-13.633,8.491-21.834t19.28-8.2q11.5,0,18.13,6.726t6.634,17.6a41.281,41.281,0,0,1-3.008,15.569A58.812,58.812,0,0,1,177.8,271.254a176.031,176.031,0,0,1-18.838,18.425q-11.766,10.135-29.274,23.584v8.469H100.32a33.844,33.844,0,0,0,12.923-13.168,42.463,42.463,0,0,0,4.953-20.913q0-12.159-4.864-21a33.635,33.635,0,0,0-13.709-13.634,42.8,42.8,0,0,0-20.694-4.791,39.5,39.5,0,0,0-13,2.3,33.083,33.083,0,0,0-11.852,7.186,25.313,25.313,0,0,0-7.163,12.806h-.708V267.2a95.657,95.657,0,0,1,2.034-20.267,56,56,0,0,1,6.1-16.4,32.975,32.975,0,0,1,9.905-10.964,23.38,23.38,0,0,1,13.443-3.961q10.434,0,16.362,4.883a27.419,27.419,0,0,1,8.579,13.359l13.089-6.45a46.953,46.953,0,0,0-8.667-14.647,31.435,31.435,0,0,0-12.116-8.292,45.776,45.776,0,0,0-16.363-2.672,39.824,39.824,0,0,0-23.26,7.187q-10.347,7.185-16.361,21.1t-6.014,34.364q0,18.24,5.129,32.335t15.212,22.2a35.536,35.536,0,0,0,3.946,2.757h-38.8V18.425H321.732Z"/>
      </g>
    </g>
</svg>
