<svg xmlns="http://www.w3.org/2000/svg" width="120mm" height="120mm" viewBox="0 0 340.158 340.157">
  <g id="Zimmernummer">
      <g id="Z-04-635-R">
        <path fill="#A0552B" stroke="none" d="M337.323,0H2.835A2.836,2.836,0,0,0,0,2.835V337.323a2.834,2.834,0,0,0,2.835,2.834H337.323a2.834,2.834,0,0,0,2.835-2.834V2.835A2.836,2.836,0,0,0,337.323,0ZM58.057,300.273A25.063,25.063,0,0,1,54.7,287.468a25.9,25.9,0,0,1,3.185-12.99,22.964,22.964,0,0,1,8.932-8.844,26.853,26.853,0,0,1,13.355-3.225,28.845,28.845,0,0,1,13.8,3.04,20.781,20.781,0,0,1,8.668,8.66,27.961,27.961,0,0,1,3.007,13.359q0,11.979-6.722,18.7T80.167,312.9a24.988,24.988,0,0,1-22.11-12.622Zm263.675,21.459H282.576A35.212,35.212,0,0,0,298.435,303.5a45.519,45.519,0,0,0,3.007-16.951,44.145,44.145,0,0,0-4.6-20.636,33.631,33.631,0,0,0-12.823-13.726,37.255,37.255,0,0,0-19.37-4.883,41.062,41.062,0,0,0-15.831,2.763,30.472,30.472,0,0,0-10.878,7.371h-.353l.353-1.659,4.6-38.324h53.6V203.633H230.513l-6.9,66.884L236,272.912a24.084,24.084,0,0,1,6.722-6.817,27.7,27.7,0,0,1,8.755-3.778,44,44,0,0,1,10.524-1.2,28.111,28.111,0,0,1,13.443,2.948,19.729,19.729,0,0,1,8.4,8.752q2.917,5.8,2.918,14.464a28.521,28.521,0,0,1-3.184,13.911,22.033,22.033,0,0,1-8.932,8.937,28.635,28.635,0,0,1-13.886,3.132q-11.5,0-17.423-5.989a36.2,36.2,0,0,1-8.755-15.569l-13.8,7.555q5.129,13.085,14.593,20.452a30.185,30.185,0,0,0,2.951,2.02H192.407a34.76,34.76,0,0,0,12.9-12.338,35.8,35.8,0,0,0,5.042-18.978,29.083,29.083,0,0,0-1.681-9.857,26.252,26.252,0,0,0-4.864-8.384,24.045,24.045,0,0,0-7.695-5.9,25.067,25.067,0,0,0-10.347-2.394v-.369a23.873,23.873,0,0,0,8.313-3.04,25.772,25.772,0,0,0,6.986-6.172,29.58,29.58,0,0,0,4.865-9.121A37.188,37.188,0,0,0,207.7,233.3a32.158,32.158,0,0,0-3.98-15.846,29.131,29.131,0,0,0-11.94-11.515q-7.959-4.328-20.164-4.331a46.224,46.224,0,0,0-17.777,3.317,39.678,39.678,0,0,0-13.708,9.213,38.575,38.575,0,0,0-8.49,13.634L145.08,234.4a34.067,34.067,0,0,1,9.2-13.726q5.838-5.067,16.982-5.068,10.434,0,16.1,4.975t5.661,14.556q0,11.241-5.484,16.491t-18.4,5.251h-2.742a26.649,26.649,0,0,1-3.095-.185v14.741a44.837,44.837,0,0,1,4.775-.46q2.3-.092,4.245-.093,8.313,0,13.444,2.119a14.472,14.472,0,0,1,7.517,6.541,23.065,23.065,0,0,1,2.388,11.055,23.609,23.609,0,0,1-2.83,11.7,20.458,20.458,0,0,1-8.137,8.014,26.615,26.615,0,0,1-13.089,2.949q-9.2,0-15.3-2.764a24.36,24.36,0,0,1-9.817-7.831,40.071,40.071,0,0,1-5.838-11.884l-14.15,7.555a37.878,37.878,0,0,0,16.184,21.1c1.307.836,2.648,1.6,4.019,2.3H102.618a33.842,33.842,0,0,0,12.925-13.168,42.463,42.463,0,0,0,4.952-20.913q0-12.159-4.863-21a33.641,33.641,0,0,0-13.709-13.634,42.806,42.806,0,0,0-20.7-4.791,39.5,39.5,0,0,0-13,2.3,33.079,33.079,0,0,0-11.851,7.186,25.314,25.314,0,0,0-7.164,12.806h-.707V267.2a95.657,95.657,0,0,1,2.034-20.267,55.969,55.969,0,0,1,6.1-16.4,32.975,32.975,0,0,1,9.9-10.964,23.376,23.376,0,0,1,13.442-3.961q10.435,0,16.363,4.883a27.411,27.411,0,0,1,8.578,13.359l13.09-6.45a46.972,46.972,0,0,0-8.667-14.647,31.427,31.427,0,0,0-12.118-8.292,45.757,45.757,0,0,0-16.361-2.672,39.824,39.824,0,0,0-23.26,7.187q-10.347,7.185-16.361,21.1t-6.015,34.364q0,18.24,5.13,32.335t15.212,22.2a35.536,35.536,0,0,0,3.946,2.757h-41.1V18.425H321.732Z"/>
      </g>
    </g>
</svg>
