<svg xmlns="http://www.w3.org/2000/svg" width="120mm" height="120mm" viewBox="0 0 340.158 340.157">
  <g id="Zimmernummer">
      <g id="Z-04-515-R">
        <path fill="#A0552B" stroke="none" d="M337.323,0H2.835A2.836,2.836,0,0,0,0,2.835V337.323a2.834,2.834,0,0,0,2.835,2.834H337.323a2.834,2.834,0,0,0,2.835-2.834V2.835A2.836,2.836,0,0,0,337.323,0ZM321.732,321.732H264.976A35.212,35.212,0,0,0,280.835,303.5a45.5,45.5,0,0,0,3.007-16.951,44.157,44.157,0,0,0-4.6-20.636,33.633,33.633,0,0,0-12.824-13.726,37.252,37.252,0,0,0-19.368-4.883,41.06,41.06,0,0,0-15.832,2.763,30.481,30.481,0,0,0-10.878,7.371h-.354l.354-1.659,4.6-38.324h53.6V203.633H212.912l-6.9,66.884,12.382,2.395a24.084,24.084,0,0,1,6.722-6.817,27.693,27.693,0,0,1,8.756-3.778,44,44,0,0,1,10.524-1.2,28.114,28.114,0,0,1,13.443,2.948,19.721,19.721,0,0,1,8.4,8.752q2.917,5.8,2.918,14.464a28.51,28.51,0,0,1-3.184,13.911,22.027,22.027,0,0,1-8.932,8.937,28.633,28.633,0,0,1-13.885,3.132q-11.5,0-17.423-5.989a36.205,36.205,0,0,1-8.756-15.569l-13.8,7.555q5.129,13.085,14.593,20.452a30.306,30.306,0,0,0,2.951,2.02H182.843v-118.1H170.461a36.74,36.74,0,0,1-7.076,7.185,88.71,88.71,0,0,1-9.994,6.911,90.656,90.656,0,0,1-10.258,5.342,29.8,29.8,0,0,1-8.049,2.488L138.8,239.01a65.993,65.993,0,0,0,30.247-17.136q-.178,3.869-.266,7.462t-.089,6.726v85.67H114.275A35.212,35.212,0,0,0,130.134,303.5a45.519,45.519,0,0,0,3.007-16.951,44.145,44.145,0,0,0-4.6-20.636,33.633,33.633,0,0,0-12.824-13.726A37.251,37.251,0,0,0,96.349,247.3a41.058,41.058,0,0,0-15.831,2.763,30.472,30.472,0,0,0-10.878,7.371h-.353l.353-1.659,4.6-38.324h53.6V203.633H62.212l-6.9,66.884,12.381,2.395a24.11,24.11,0,0,1,6.722-6.817,27.7,27.7,0,0,1,8.756-3.778,44,44,0,0,1,10.524-1.2,28.111,28.111,0,0,1,13.443,2.948,19.721,19.721,0,0,1,8.4,8.752q2.919,5.8,2.919,14.464a28.521,28.521,0,0,1-3.184,13.911,22.039,22.039,0,0,1-8.932,8.937,28.637,28.637,0,0,1-13.886,3.132q-11.5,0-17.423-5.989a36.2,36.2,0,0,1-8.755-15.569l-13.8,7.555q5.127,13.085,14.593,20.452a30.306,30.306,0,0,0,2.951,2.02h-51.6V18.425H321.732Z"/>
      </g>
    </g>
</svg>
