<svg xmlns="http://www.w3.org/2000/svg" width="120mm" height="120mm" viewBox="0 0 340.158 340.158">
  <g id="Zimmernummer">
      <g id="Z-04-142">
        <path fill="#000000" stroke="none" d="M337.323,0H2.835A2.836,2.836,0,0,0,0,2.835V337.323a2.836,2.836,0,0,0,2.835,2.835H337.323a2.836,2.836,0,0,0,2.835-2.835V2.835A2.836,2.836,0,0,0,337.323,0ZM161.8,280.651H119.877l30.6-44.774q2.827-4.236,6.191-9.949t5.483-10.318h.354q-.179,4.792-.442,9.765t-.266,9.765Zm159.934,41.081H287.914V311.42h-40.86q-1.77,0-5.218.093t-6.9.184q-3.45.094-5.395.276v-.183q20.869-14.555,33.077-26.533t17.511-22.939a50.856,50.856,0,0,0,5.307-22.387,42.142,42.142,0,0,0-2.742-15.477,34.41,34.41,0,0,0-7.871-12.069,35.392,35.392,0,0,0-12.294-7.83,44.674,44.674,0,0,0-16.184-2.764q-11.853,0-20.43,4.606a35.527,35.527,0,0,0-13.62,12.714,48.782,48.782,0,0,0-6.633,18.794l12.381,7.738q1.236-13.633,8.491-21.834t19.28-8.2q11.5,0,18.131,6.725t6.633,17.6a41.3,41.3,0,0,1-3.007,15.569,58.818,58.818,0,0,1-10.083,15.754,175.935,175.935,0,0,1-18.838,18.425q-11.764,10.135-29.274,23.584v8.469H175.949V293.364h20.695V280.651H175.949V203.633H158.084l-53.242,78.861v10.87H161.8v28.368H87.862v-118.1H75.48a36.678,36.678,0,0,1-7.075,7.186,88.574,88.574,0,0,1-9.994,6.91,90.6,90.6,0,0,1-10.259,5.343,29.743,29.743,0,0,1-8.048,2.487l3.714,13.451a63.222,63.222,0,0,0,16.273-6.541,63.733,63.733,0,0,0,13.974-10.594q-.178,3.869-.265,7.461t-.089,6.726v85.67H18.425V18.425H321.732Z"/>
      </g>
    </g>
</svg>
