<svg xmlns="http://www.w3.org/2000/svg" width="120mm" height="120mm" viewBox="0 0 340.158 340.157">
  <g id="Zimmernummer">
      <g id="Z-04-143">
        <path fill="#000000" stroke="none" d="M337.323,0H2.835A2.836,2.836,0,0,0,0,2.835V337.323a2.834,2.834,0,0,0,2.835,2.834H337.323a2.834,2.834,0,0,0,2.835-2.834V2.835A2.836,2.836,0,0,0,337.323,0ZM161.8,280.65H119.877l30.6-44.774q2.827-4.236,6.191-9.949t5.483-10.318h.354q-.179,4.792-.442,9.766t-.266,9.764Zm159.934,41.082H269.794a34.743,34.743,0,0,0,12.9-12.339,35.789,35.789,0,0,0,5.041-18.977,29.088,29.088,0,0,0-1.68-9.858,26.236,26.236,0,0,0-4.865-8.384,24.013,24.013,0,0,0-7.694-5.9,25.056,25.056,0,0,0-10.348-2.4v-.369a23.843,23.843,0,0,0,8.314-3.04,25.788,25.788,0,0,0,6.987-6.172,29.6,29.6,0,0,0,4.864-9.121,37.16,37.16,0,0,0,1.769-11.884,32.157,32.157,0,0,0-3.98-15.845,29.136,29.136,0,0,0-11.939-11.516q-7.961-4.328-20.165-4.33a46.224,46.224,0,0,0-17.777,3.316,39.7,39.7,0,0,0-13.708,9.213,38.607,38.607,0,0,0-8.49,13.634l13.443,6.634a34.066,34.066,0,0,1,9.2-13.727q5.837-5.067,16.98-5.067,10.436,0,16.1,4.974t5.66,14.556q0,11.241-5.484,16.491t-18.4,5.251h-2.741a26.643,26.643,0,0,1-3.095-.184v14.74a45.364,45.364,0,0,1,4.775-.46q2.3-.09,4.246-.093,8.311,0,13.442,2.119a14.478,14.478,0,0,1,7.518,6.541,23.068,23.068,0,0,1,2.388,11.055,23.606,23.606,0,0,1-2.83,11.7,20.466,20.466,0,0,1-8.137,8.015A26.615,26.615,0,0,1,249,313.262q-9.2,0-15.3-2.763a24.356,24.356,0,0,1-9.817-7.832,40.005,40.005,0,0,1-5.838-11.883l-14.15,7.554a37.875,37.875,0,0,0,16.185,21.1c1.306.837,2.648,1.6,4.019,2.3h-48.15V293.363h20.695V280.65H175.949V203.632H158.084l-53.242,78.861v10.87H161.8v28.369H87.862v-118.1H75.48a36.678,36.678,0,0,1-7.075,7.186,88.574,88.574,0,0,1-9.994,6.91,90.6,90.6,0,0,1-10.259,5.343,29.743,29.743,0,0,1-8.048,2.487l3.714,13.451a63.222,63.222,0,0,0,16.273-6.541,63.733,63.733,0,0,0,13.974-10.594q-.178,3.869-.265,7.461t-.089,6.726v85.671H18.425V18.425H321.732Z"/>
      </g>
    </g>
</svg>
