<svg xmlns="http://www.w3.org/2000/svg" width="120mm" height="120mm" viewBox="0 0 340.158 340.158">
  <g id="Zimmernummer">
      <g id="Z-04-147">
        <path fill="#000000" stroke="none" d="M337.323,0H2.835A2.836,2.836,0,0,0,0,2.835V337.323a2.836,2.836,0,0,0,2.835,2.835H337.323a2.836,2.836,0,0,0,2.835-2.835V2.835A2.836,2.836,0,0,0,337.323,0Zm-166.5,280.651H128.9l30.6-44.774q2.828-4.236,6.191-9.949t5.483-10.318h.354q-.178,4.792-.442,9.765t-.265,9.765Zm150.913,41.081H247.809a171.645,171.645,0,0,1,4.2-35.554,139.2,139.2,0,0,1,13.532-35.469,173.257,173.257,0,0,1,23.967-33.256v-13.82H203.542v13.82h70.584a164.514,164.514,0,0,0-21.233,30.033,156.082,156.082,0,0,0-14.77,37.679,165.513,165.513,0,0,0-4.812,36.567H184.969V293.364h20.7V280.651h-20.7V203.633H167.1l-53.241,78.861v10.87h56.956v28.368H96.882v-118.1H84.5a36.678,36.678,0,0,1-7.075,7.186,88.574,88.574,0,0,1-9.994,6.91,90.6,90.6,0,0,1-10.259,5.343,29.743,29.743,0,0,1-8.048,2.487l3.714,13.451a65.99,65.99,0,0,0,30.247-17.135q-.178,3.869-.265,7.461t-.089,6.726v85.67H18.425V18.425H321.732Z"/>
      </g>
    </g>
</svg>
