<svg xmlns="http://www.w3.org/2000/svg" width="120mm" height="120mm" viewBox="0 0 340.158 340.157">
  <g id="Zimmernummer">
      <g id="Z-04-330-R">
        <path fill="#A0552B" stroke="none" d="M337.323,0H2.835A2.836,2.836,0,0,0,0,2.835V337.323a2.834,2.834,0,0,0,2.835,2.834H337.323a2.834,2.834,0,0,0,2.835-2.834V2.835A2.836,2.836,0,0,0,337.323,0ZM236.885,291.521q-3.276-11.055-3.273-27.084t3.273-27.086q3.272-11.055,9.728-16.674a25.107,25.107,0,0,1,31.662,0Q284.73,226.3,288,237.351t3.273,27.086q0,16.029-3.273,27.084T278.275,308.2a25.111,25.111,0,0,1-31.662,0Q240.154,302.577,236.885,291.521Zm84.847,30.211H282.767a39.856,39.856,0,0,0,11.428-10.68q11.76-16.031,11.762-46.615T294.2,217.82q-11.766-16.029-31.751-16.03-19.812,0-31.662,16.03t-11.851,46.617q0,30.585,11.851,46.615a40.323,40.323,0,0,0,11.452,10.68H186.662a34.748,34.748,0,0,0,12.9-12.338,35.8,35.8,0,0,0,5.041-18.978,29.082,29.082,0,0,0-1.68-9.857,26.255,26.255,0,0,0-4.865-8.384,24.023,24.023,0,0,0-7.695-5.9,25.066,25.066,0,0,0-10.346-2.394v-.369a23.86,23.86,0,0,0,8.312-3.04,25.794,25.794,0,0,0,6.988-6.172,29.62,29.62,0,0,0,4.864-9.121,37.161,37.161,0,0,0,1.768-11.884,32.157,32.157,0,0,0-3.979-15.846,29.125,29.125,0,0,0-11.94-11.515q-7.959-4.328-20.165-4.331a46.219,46.219,0,0,0-17.776,3.317,39.678,39.678,0,0,0-13.708,9.213,38.589,38.589,0,0,0-8.49,13.634l13.442,6.633a34.079,34.079,0,0,1,9.2-13.726q5.838-5.067,16.981-5.068,10.434,0,16.1,4.975t5.66,14.556q0,11.241-5.484,16.491t-18.4,5.251H160.65a26.666,26.666,0,0,1-3.1-.185v14.741a44.88,44.88,0,0,1,4.776-.46q2.3-.092,4.245-.093,8.312,0,13.444,2.119a14.47,14.47,0,0,1,7.516,6.541,23.053,23.053,0,0,1,2.389,11.055,23.609,23.609,0,0,1-2.83,11.7,20.464,20.464,0,0,1-8.137,8.014,26.619,26.619,0,0,1-13.09,2.949q-9.2,0-15.3-2.764a24.363,24.363,0,0,1-9.818-7.831,40.07,40.07,0,0,1-5.837-11.884l-14.15,7.555a37.873,37.873,0,0,0,16.184,21.1c1.306.836,2.648,1.6,4.019,2.3H92.386a34.76,34.76,0,0,0,12.9-12.338,35.8,35.8,0,0,0,5.041-18.978,29.082,29.082,0,0,0-1.68-9.857,26.236,26.236,0,0,0-4.865-8.384,24.03,24.03,0,0,0-7.694-5.9,25.072,25.072,0,0,0-10.348-2.394v-.369a23.863,23.863,0,0,0,8.314-3.04,25.776,25.776,0,0,0,6.987-6.172,29.6,29.6,0,0,0,4.864-9.121,37.188,37.188,0,0,0,1.769-11.884,32.147,32.147,0,0,0-3.98-15.846,29.128,29.128,0,0,0-11.939-11.515q-7.96-4.328-20.165-4.331a46.219,46.219,0,0,0-17.776,3.317,39.682,39.682,0,0,0-13.709,9.213,38.606,38.606,0,0,0-8.491,13.634L45.059,234.4a34.059,34.059,0,0,1,9.2-13.726q5.837-5.067,16.98-5.068,10.436,0,16.1,4.975t5.66,14.556q0,11.241-5.482,16.491t-18.4,5.251H66.373a26.636,26.636,0,0,1-3.1-.185v14.741a44.88,44.88,0,0,1,4.776-.46q2.3-.092,4.245-.093,8.311,0,13.442,2.119a14.474,14.474,0,0,1,7.518,6.541A23.065,23.065,0,0,1,95.647,290.6a23.619,23.619,0,0,1-2.83,11.7,20.458,20.458,0,0,1-8.137,8.014,26.615,26.615,0,0,1-13.089,2.949q-9.2,0-15.3-2.764a24.36,24.36,0,0,1-9.817-7.831,40.022,40.022,0,0,1-5.837-11.884l-14.15,7.555a37.873,37.873,0,0,0,16.184,21.1c1.306.836,2.647,1.6,4.018,2.3H18.425V18.425H321.732Z"/>
      </g>
    </g>
</svg>
