<svg xmlns="http://www.w3.org/2000/svg" width="120mm" height="120mm" viewBox="0 0 340.158 340.157">
  <g id="Zimmernummer">
      <g id="Z-04-106-E">
        <path fill="#A09f9d" stroke="none" d="M337.323,0H2.835A2.836,2.836,0,0,0,0,2.835V337.323a2.834,2.834,0,0,0,2.835,2.834H337.323a2.834,2.834,0,0,0,2.835-2.834V2.835A2.836,2.836,0,0,0,337.323,0Zm-214,291.521q-3.274-11.055-3.272-27.084t3.272-27.086q3.271-11.055,9.729-16.674a25.106,25.106,0,0,1,31.661,0q6.456,5.622,9.729,16.674t3.272,27.086q0,16.029-3.272,27.084T164.714,308.2a25.109,25.109,0,0,1-31.661,0Q126.594,302.577,123.324,291.521Zm102.5,8.752a25.072,25.072,0,0,1-3.361-12.805,25.9,25.9,0,0,1,3.184-12.99,22.96,22.96,0,0,1,8.933-8.844,26.849,26.849,0,0,1,13.354-3.225,28.849,28.849,0,0,1,13.8,3.04,20.773,20.773,0,0,1,8.667,8.66,27.95,27.95,0,0,1,3.007,13.359q0,11.979-6.721,18.7t-18.75,6.726a24.991,24.991,0,0,1-22.11-12.622Zm95.906,21.459H270.389a33.844,33.844,0,0,0,12.923-13.168,42.463,42.463,0,0,0,4.953-20.913q0-12.159-4.864-21a33.635,33.635,0,0,0-13.709-13.634A42.8,42.8,0,0,0,249,248.222a39.5,39.5,0,0,0-13,2.3,33.079,33.079,0,0,0-11.851,7.186,25.307,25.307,0,0,0-7.164,12.806h-.708V267.2a95.59,95.59,0,0,1,2.035-20.267,55.968,55.968,0,0,1,6.1-16.4,32.985,32.985,0,0,1,9.905-10.964,23.382,23.382,0,0,1,13.443-3.961q10.436,0,16.362,4.883a27.412,27.412,0,0,1,8.579,13.359l13.089-6.45a46.934,46.934,0,0,0-8.667-14.647,31.431,31.431,0,0,0-12.117-8.292,45.757,45.757,0,0,0-16.361-2.672,39.821,39.821,0,0,0-23.26,7.187q-10.348,7.185-16.362,21.1t-6.014,34.364q0,18.24,5.13,32.335t15.212,22.2a35.524,35.524,0,0,0,3.945,2.757H169.207a39.853,39.853,0,0,0,11.427-10.68Q192.4,295.022,192.4,264.437T180.634,217.82q-11.766-16.029-31.751-16.03-19.812,0-31.661,16.03t-11.851,46.617q0,30.585,11.851,46.615a40.307,40.307,0,0,0,11.451,10.68H88.213v-118.1H75.831a36.675,36.675,0,0,1-7.075,7.185,88.71,88.71,0,0,1-9.994,6.911A90.58,90.58,0,0,1,48.5,223.071a29.787,29.787,0,0,1-8.048,2.488l3.714,13.451a63.293,63.293,0,0,0,16.273-6.541,63.706,63.706,0,0,0,13.974-10.595q-.178,3.869-.265,7.462t-.089,6.726v85.67H18.426V18.425H321.732Z"/>
      </g>
    </g>
</svg>
