<svg xmlns="http://www.w3.org/2000/svg" width="120mm" height="120mm" viewBox="0 0 340.158 340.157">
  <g id="Zimmernummer">
      <g id="Z-04-536-M">
        <path fill="#D4AF37" stroke="none" d="M337.323,0H2.835A2.836,2.836,0,0,0,0,2.835V337.323a2.834,2.834,0,0,0,2.835,2.834H337.323a2.834,2.834,0,0,0,2.835-2.834V2.835A2.836,2.836,0,0,0,337.323,0ZM239.355,300.273A25.081,25.081,0,0,1,236,287.468a25.9,25.9,0,0,1,3.184-12.99,22.957,22.957,0,0,1,8.932-8.844,26.85,26.85,0,0,1,13.355-3.225,28.852,28.852,0,0,1,13.8,3.04,20.784,20.784,0,0,1,8.667,8.66,27.95,27.95,0,0,1,3.007,13.359q0,11.979-6.722,18.7T261.466,312.9a24.992,24.992,0,0,1-22.111-12.622Zm82.377,21.459H283.918a33.846,33.846,0,0,0,12.924-13.168,42.463,42.463,0,0,0,4.953-20.913q0-12.159-4.864-21a33.641,33.641,0,0,0-13.709-13.634,42.806,42.806,0,0,0-20.695-4.791,39.5,39.5,0,0,0-13,2.3,33.07,33.07,0,0,0-11.851,7.186,25.306,25.306,0,0,0-7.163,12.806H229.8V267.2a95.592,95.592,0,0,1,2.034-20.267,56,56,0,0,1,6.1-16.4,32.977,32.977,0,0,1,9.906-10.964,23.377,23.377,0,0,1,13.443-3.961q10.434,0,16.361,4.883a27.405,27.405,0,0,1,8.579,13.359l13.089-6.45a46.934,46.934,0,0,0-8.667-14.647,31.435,31.435,0,0,0-12.116-8.292,45.766,45.766,0,0,0-16.362-2.672,39.821,39.821,0,0,0-23.26,7.187q-10.347,7.185-16.361,21.1t-6.014,34.364q0,18.24,5.129,32.335t15.212,22.2a35.524,35.524,0,0,0,3.945,2.757H187.807a34.76,34.76,0,0,0,12.9-12.338,35.8,35.8,0,0,0,5.041-18.978,29.058,29.058,0,0,0-1.681-9.857,26.234,26.234,0,0,0-4.864-8.384,24.019,24.019,0,0,0-7.694-5.9,25.072,25.072,0,0,0-10.348-2.394v-.369a23.87,23.87,0,0,0,8.314-3.04,25.805,25.805,0,0,0,6.987-6.172,29.62,29.62,0,0,0,4.864-9.121A37.16,37.16,0,0,0,203.1,233.3a32.147,32.147,0,0,0-3.98-15.846,29.128,29.128,0,0,0-11.939-11.515q-7.96-4.328-20.165-4.331a46.224,46.224,0,0,0-17.777,3.317,39.687,39.687,0,0,0-13.708,9.213,38.589,38.589,0,0,0-8.49,13.634l13.442,6.633a34.08,34.08,0,0,1,9.2-13.726q5.837-5.067,16.98-5.068,10.434,0,16.1,4.975t5.66,14.556q0,11.241-5.483,16.491t-18.4,5.251h-2.742a26.679,26.679,0,0,1-3.1-.185v14.741a44.9,44.9,0,0,1,4.777-.46q2.3-.092,4.245-.093,8.311,0,13.442,2.119a14.474,14.474,0,0,1,7.518,6.541,23.065,23.065,0,0,1,2.388,11.055,23.609,23.609,0,0,1-2.83,11.7,20.455,20.455,0,0,1-8.136,8.014,26.627,26.627,0,0,1-13.09,2.949q-9.2,0-15.3-2.764a24.36,24.36,0,0,1-9.817-7.831,40.046,40.046,0,0,1-5.837-11.884l-14.151,7.555a37.875,37.875,0,0,0,16.185,21.1c1.3.836,2.647,1.6,4.018,2.3H96.676A35.2,35.2,0,0,0,112.535,303.5a45.5,45.5,0,0,0,3.007-16.951,44.145,44.145,0,0,0-4.6-20.636,33.627,33.627,0,0,0-12.824-13.726A37.247,37.247,0,0,0,78.751,247.3a41.055,41.055,0,0,0-15.831,2.763,30.467,30.467,0,0,0-10.879,7.371h-.353l.353-1.659,4.6-38.324h53.594V203.633H44.612l-6.9,66.884L50.1,272.912a24.081,24.081,0,0,1,6.721-6.817,27.693,27.693,0,0,1,8.756-3.778,44,44,0,0,1,10.525-1.2,28.113,28.113,0,0,1,13.442,2.948,19.721,19.721,0,0,1,8.4,8.752q2.919,5.8,2.918,14.464a28.51,28.51,0,0,1-3.183,13.911,22.03,22.03,0,0,1-8.933,8.937,28.633,28.633,0,0,1-13.885,3.132q-11.5,0-17.422-5.989a36.185,36.185,0,0,1-8.756-15.569l-13.8,7.555q5.128,13.085,14.593,20.452a30.348,30.348,0,0,0,2.95,2.02h-34V18.425H321.732Z"/>
      </g>
    </g>
</svg>
