<svg xmlns="http://www.w3.org/2000/svg" width="120mm" height="120mm" viewBox="0 0 340.158 340.158">
  <g id="Zimmernummer">
      <g id="Z-04-023-E">
        <path fill="#A09f9d" stroke="none" d="M339.327.831a2.833,2.833,0,0,0-2-.831H2.835A2.836,2.836,0,0,0,0,2.835V337.323a2.836,2.836,0,0,0,2.835,2.835H337.323a2.837,2.837,0,0,0,2.835-2.835V2.835A2.831,2.831,0,0,0,339.327.831Zm-17.595,320.9H281.561a35.663,35.663,0,0,0,13.658-12.456A34.71,34.71,0,0,0,300.47,290.3a28.042,28.042,0,0,0-1.751-9.858,26.023,26.023,0,0,0-5.067-8.382,24.926,24.926,0,0,0-8.015-5.9,27.031,27.031,0,0,0-10.778-2.395V263.4a25.489,25.489,0,0,0,8.66-3.04,26.517,26.517,0,0,0,7.277-6.172,29.232,29.232,0,0,0,5.067-9.121,35.8,35.8,0,0,0,1.843-11.884,31.146,31.146,0,0,0-4.146-15.846,29.839,29.839,0,0,0-12.437-11.516q-8.291-4.326-21-4.329a49.919,49.919,0,0,0-18.518,3.316,41.476,41.476,0,0,0-14.279,9.213,38.373,38.373,0,0,0-8.844,13.634l14,6.634a34.03,34.03,0,0,1,9.581-13.727q6.079-5.066,17.688-5.067,10.869,0,16.767,4.975t5.9,14.555q0,11.243-5.712,16.491t-19.162,5.252h-2.856a28.928,28.928,0,0,1-3.225-.185v14.74a49.222,49.222,0,0,1,4.976-.461q2.391-.09,4.421-.091,8.659,0,14,2.119a14.9,14.9,0,0,1,7.83,6.54,22.3,22.3,0,0,1,2.488,11.055,22.863,22.863,0,0,1-2.948,11.7,20.938,20.938,0,0,1-8.476,8.014,28.678,28.678,0,0,1-13.634,2.949q-9.584,0-15.938-2.764a25.215,25.215,0,0,1-10.226-7.831,39.4,39.4,0,0,1-6.08-11.884l-14.741,7.554a38.121,38.121,0,0,0,16.859,21.1,49.767,49.767,0,0,0,4.424,2.414H204.292V311.3H161.729q-1.844,0-5.435.092t-7.186.184q-3.593.1-5.62.276v-.184q21.739-14.551,34.456-26.532T196.185,262.2a49.2,49.2,0,0,0,5.527-22.387,40.648,40.648,0,0,0-2.856-15.477,34.3,34.3,0,0,0-8.2-12.068,37.089,37.089,0,0,0-12.805-7.831,48.29,48.29,0,0,0-16.86-2.764q-12.345,0-21.281,4.606a36.45,36.45,0,0,0-14.187,12.714,47.549,47.549,0,0,0-6.91,18.793l12.9,7.739q1.287-13.632,8.844-21.834t20.083-8.2q11.976,0,18.887,6.725t6.909,17.6a39.85,39.85,0,0,1-3.132,15.57,58.565,58.565,0,0,1-10.5,15.753,180.07,180.07,0,0,1-19.622,18.426q-12.257,10.134-30.494,23.584v8.586H18.425V18.425H321.732Z"/>
      </g>
    </g>
</svg>
