<svg xmlns="http://www.w3.org/2000/svg" width="120mm" height="120mm" viewBox="0 0 340.158 340.157">
  <g id="Zimmernummer">
      <g id="Z-04-308">
        <path fill="#000000" stroke="none" d="M337.323,0H2.835A2.836,2.836,0,0,0,0,2.835V337.323a2.834,2.834,0,0,0,2.835,2.834H337.323a2.834,2.834,0,0,0,2.835-2.834V2.835A2.836,2.836,0,0,0,337.323,0ZM139.688,291.522q-3.274-11.056-3.272-27.086t3.272-27.086q3.272-11.054,9.729-16.674a25.111,25.111,0,0,1,31.662,0q6.454,5.622,9.728,16.674t3.273,27.086q0,16.032-3.273,27.086T181.079,308.2a25.111,25.111,0,0,1-31.662,0Q142.958,302.577,139.688,291.522Zm104.536-20.361a41.429,41.429,0,0,1,29.275,0,21.772,21.772,0,0,1,9.639,7.738,22.763,22.763,0,0,1,.089,23.953,21.151,21.151,0,0,1-9.552,7.738,42.4,42.4,0,0,1-29.628,0A21.772,21.772,0,0,1,234.5,278.9,21.7,21.7,0,0,1,244.224,271.161Zm-7.871-35.836q0-9.211,6.1-14.371t16.361-5.161q10.435,0,16.45,5.161t6.014,14.371q0,9.029-6.191,14.187t-16.273,5.158q-10.082,0-16.273-5.158T236.353,235.325Zm85.379,86.407H283.49a33.788,33.788,0,0,0,12.473-10.864,31.785,31.785,0,0,0,5.306-18.426q0-11.423-5.926-19.346A35.347,35.347,0,0,0,279.512,261.3v-.183a27.771,27.771,0,0,0,12.117-10.78,30.993,30.993,0,0,0,4.334-16.49,30.659,30.659,0,0,0-4.6-17.043,30.137,30.137,0,0,0-12.912-10.963,51.527,51.527,0,0,0-39.179,0,30.024,30.024,0,0,0-13,10.963q-4.6,7.1-4.6,17.043a30.408,30.408,0,0,0,4.51,16.676A27.9,27.9,0,0,0,238.3,261.12v.183a34.29,34.29,0,0,0-16.1,11.885q-5.838,8.016-5.838,19.254a31.778,31.778,0,0,0,5.307,18.426,33.629,33.629,0,0,0,12.54,10.864h-48.64A39.84,39.84,0,0,0,197,311.051q11.762-16.027,11.763-46.615T197,217.821q-11.766-16.032-31.75-16.031-19.812,0-31.662,16.031t-11.851,46.615q0,30.587,11.851,46.615a40.3,40.3,0,0,0,11.452,10.681h-48.5a34.758,34.758,0,0,0,12.9-12.339,35.8,35.8,0,0,0,5.041-18.976,29.06,29.06,0,0,0-1.681-9.858,26.239,26.239,0,0,0-4.864-8.385,24.027,24.027,0,0,0-7.694-5.9,25.072,25.072,0,0,0-10.348-2.4v-.369a23.829,23.829,0,0,0,8.314-3.039A25.822,25.822,0,0,0,105.2,254.3a29.632,29.632,0,0,0,4.864-9.121,37.2,37.2,0,0,0,1.769-11.885,32.162,32.162,0,0,0-3.98-15.845,29.133,29.133,0,0,0-11.94-11.516q-7.959-4.328-20.164-4.33a46.224,46.224,0,0,0-17.777,3.316,39.692,39.692,0,0,0-13.708,9.213,38.591,38.591,0,0,0-8.49,13.635L49.214,234.4a34.083,34.083,0,0,1,9.2-13.727q5.838-5.065,16.981-5.066,10.434,0,16.1,4.974t5.661,14.555q0,11.241-5.484,16.492t-18.395,5.25H70.529a26.89,26.89,0,0,1-3.1-.183v14.74a45.417,45.417,0,0,1,4.776-.461q2.3-.09,4.245-.092,8.313,0,13.443,2.119a14.47,14.47,0,0,1,7.518,6.541A23.065,23.065,0,0,1,99.8,290.6a23.6,23.6,0,0,1-2.83,11.7,20.462,20.462,0,0,1-8.137,8.016,26.621,26.621,0,0,1-13.089,2.947q-9.2,0-15.3-2.763a24.357,24.357,0,0,1-9.816-7.831,40,40,0,0,1-5.837-11.884l-14.151,7.554a37.874,37.874,0,0,0,16.185,21.1c1.306.836,2.647,1.6,4.018,2.3H18.425V18.425H321.732Z"/>
      </g>
    </g>
</svg>
