<svg xmlns="http://www.w3.org/2000/svg" width="120mm" height="120mm" viewBox="0 0 340.158 340.158">
  <g id="Zimmernummer">
      <g id="Z-04-319">
        <path fill="#000000" stroke="none" d="M337.323,0H2.835A2.836,2.836,0,0,0,0,2.835V337.323a2.836,2.836,0,0,0,2.835,2.835H337.323a2.836,2.836,0,0,0,2.835-2.835V2.835A2.836,2.836,0,0,0,337.323,0ZM321.732,321.732H268.875c.979-.57,1.936-1.175,2.856-1.836q9.99-7.186,15.123-21.1t5.13-34.362q0-18.425-5.13-32.521t-15.212-22.11q-10.082-8.016-24.763-8.016-12.561,0-21.579,5.067a34.1,34.1,0,0,0-13.8,14.188q-4.776,9.12-4.776,21.649,0,11.609,4.953,20.084a34.221,34.221,0,0,0,13.8,13.174,42.7,42.7,0,0,0,20.342,4.7A41.476,41.476,0,0,0,259,278.439a31.608,31.608,0,0,0,11.94-7.278,27.353,27.353,0,0,0,7.429-13.358h.708v1.658a148.866,148.866,0,0,1-1.5,22.11,57.358,57.358,0,0,1-5.041,17.044,26.106,26.106,0,0,1-9.64,10.87q-6.1,3.78-15.3,3.778-11.322,0-17.777-5.9a33.087,33.087,0,0,1-9.286-15.477l-13.974,7.738q5.128,13.452,15.566,20.452,1.314.882,2.693,1.652H185.147v-118.1H172.765a36.675,36.675,0,0,1-7.075,7.185,88.787,88.787,0,0,1-9.993,6.911,90.589,90.589,0,0,1-10.26,5.342,29.776,29.776,0,0,1-8.048,2.488L141.1,239.01a65.983,65.983,0,0,0,30.246-17.136q-.177,3.869-.265,7.462T171,236.062v85.67H106.358a34.74,34.74,0,0,0,12.9-12.338,35.8,35.8,0,0,0,5.041-18.978,29.082,29.082,0,0,0-1.68-9.857,26.252,26.252,0,0,0-4.864-8.384,24.045,24.045,0,0,0-7.7-5.9,25.071,25.071,0,0,0-10.347-2.394v-.369a23.865,23.865,0,0,0,8.313-3.04,25.79,25.79,0,0,0,6.987-6.172,29.6,29.6,0,0,0,4.864-9.121,37.188,37.188,0,0,0,1.769-11.884,32.147,32.147,0,0,0-3.98-15.846,29.128,29.128,0,0,0-11.939-11.515q-7.961-4.328-20.165-4.331a46.224,46.224,0,0,0-17.777,3.317,39.687,39.687,0,0,0-13.708,9.213,38.589,38.589,0,0,0-8.49,13.634L59.032,234.4a34.059,34.059,0,0,1,9.2-13.726q5.836-5.067,16.98-5.068,10.436,0,16.1,4.975t5.661,14.556q0,11.241-5.483,16.491t-18.4,5.251H80.346a26.649,26.649,0,0,1-3.095-.185v14.741a44.855,44.855,0,0,1,4.776-.46q2.3-.092,4.245-.093,8.311,0,13.443,2.119a14.472,14.472,0,0,1,7.517,6.541A23.065,23.065,0,0,1,109.62,290.6a23.609,23.609,0,0,1-2.83,11.7,20.458,20.458,0,0,1-8.137,8.014,26.615,26.615,0,0,1-13.089,2.949q-9.2,0-15.3-2.764a24.36,24.36,0,0,1-9.817-7.831,40.046,40.046,0,0,1-5.837-11.884l-14.151,7.555a37.875,37.875,0,0,0,16.185,21.1c1.306.836,2.648,1.6,4.019,2.3H18.425V18.425H321.732ZM272.527,241.4a25.893,25.893,0,0,1-3.184,12.991,22.944,22.944,0,0,1-8.933,8.843,26.831,26.831,0,0,1-13.354,3.225q-11.675,0-18.573-6.357t-6.9-17.227q0-12.714,6.545-19.808t18.926-7.093a27.482,27.482,0,0,1,13.354,3.132,22.2,22.2,0,0,1,8.933,8.844A27.185,27.185,0,0,1,272.527,241.4Z"/>
      </g>
    </g>
</svg>
