<svg xmlns="http://www.w3.org/2000/svg" width="120mm" height="120mm" viewBox="0 0 340.158 340.158">
  <g id="Zimmernummer">
      <g id="Z-04-224">
        <path fill="#000000" stroke="none" d="M337.323,0H2.835A2.836,2.836,0,0,0,0,2.835V337.323a2.836,2.836,0,0,0,2.835,2.835H337.323a2.836,2.836,0,0,0,2.835-2.835V2.835A2.836,2.836,0,0,0,337.323,0ZM267.838,280.65H225.917l30.6-44.773q2.826-4.236,6.19-9.949t5.483-10.319h.354q-.177,4.794-.442,9.766t-.265,9.765Zm53.894,41.082H281.988V293.363h20.7V280.65h-20.7V203.633H264.123l-53.241,78.86v10.87h56.956v28.369H210.176V311.42h-40.86q-1.77,0-5.218.093t-6.9.183q-3.449.1-5.394.277v-.184q20.868-14.553,33.076-26.532t17.512-22.94a50.848,50.848,0,0,0,5.306-22.386,42.164,42.164,0,0,0-2.741-15.478,34.408,34.408,0,0,0-7.872-12.068,35.364,35.364,0,0,0-12.293-7.83,44.679,44.679,0,0,0-16.185-2.765q-11.852,0-20.429,4.606a35.527,35.527,0,0,0-13.62,12.714,48.788,48.788,0,0,0-6.633,18.794l12.381,7.739q1.236-13.633,8.491-21.834t19.28-8.2q11.5,0,18.13,6.726t6.633,17.6a41.281,41.281,0,0,1-3.007,15.569,58.812,58.812,0,0,1-10.082,15.754,176.031,176.031,0,0,1-18.838,18.425q-11.766,10.135-29.274,23.584v8.469H116.783V311.42H75.924q-1.77,0-5.218.093t-6.9.183q-3.448.1-5.4.277v-.184q20.87-14.553,33.077-26.532T109,262.317a50.849,50.849,0,0,0,5.307-22.386,42.144,42.144,0,0,0-2.742-15.478,34.392,34.392,0,0,0-7.871-12.068,35.373,35.373,0,0,0-12.293-7.83,44.679,44.679,0,0,0-16.185-2.765q-11.853,0-20.43,4.606A35.524,35.524,0,0,0,41.167,219.11,48.805,48.805,0,0,0,34.533,237.9l12.382,7.739q1.236-13.633,8.49-21.834t19.281-8.2q11.5,0,18.13,6.726t6.633,17.6A41.281,41.281,0,0,1,96.442,255.5a58.793,58.793,0,0,1-10.083,15.754,175.936,175.936,0,0,1-18.838,18.425q-11.765,10.135-29.273,23.584v8.469H18.425V18.425H321.732Z"/>
      </g>
    </g>
</svg>
