<svg xmlns="http://www.w3.org/2000/svg" width="120mm" height="120mm" viewBox="0 0 340.158 340.158">
  <g id="Zimmernummer">
      <g id="Z-04-018-R">
        <path fill="#A0552B" stroke="none" d="M339.327.831a2.835,2.835,0,0,0-2-.831H2.835A2.836,2.836,0,0,0,0,2.835V337.323a2.836,2.836,0,0,0,2.835,2.835H337.323a2.837,2.837,0,0,0,2.835-2.835V2.835A2.831,2.831,0,0,0,339.327.831ZM240.679,271.044a44.837,44.837,0,0,1,30.494,0,22.538,22.538,0,0,1,10.042,7.738,21.994,21.994,0,0,1,.092,23.953,21.892,21.892,0,0,1-9.95,7.739,45.893,45.893,0,0,1-30.862,0,21.811,21.811,0,0,1-10.042-7.739,22,22,0,0,1,.092-23.953A22.459,22.459,0,0,1,240.679,271.044Zm-8.2-35.837q0-9.211,6.356-14.372t17.044-5.158q10.869,0,17.136,5.158t6.264,14.372q0,9.03-6.449,14.187t-16.951,5.159q-10.5,0-16.951-5.159T232.48,235.207Zm89.252,86.525H281.327a34.869,34.869,0,0,0,13.246-10.982,30.863,30.863,0,0,0,5.528-18.425q0-11.423-6.173-19.346a36.72,36.72,0,0,0-16.49-11.793V261a28.575,28.575,0,0,0,12.621-10.779,30.056,30.056,0,0,0,4.514-16.49,29.736,29.736,0,0,0-4.791-17.043,31.072,31.072,0,0,0-13.45-10.963q-8.662-3.87-20.452-3.87a49.953,49.953,0,0,0-20.36,3.87,30.963,30.963,0,0,0-13.542,10.963,32.325,32.325,0,0,0-.093,33.718A28.722,28.722,0,0,0,234.507,261v.184a35.638,35.638,0,0,0-16.767,11.885q-6.081,8.014-6.08,19.254a30.862,30.862,0,0,0,5.527,18.425,34.74,34.74,0,0,0,13.318,10.982H198.762V203.516h-12.9a37.452,37.452,0,0,1-7.37,7.185,92.463,92.463,0,0,1-10.41,6.91,95.957,95.957,0,0,1-10.687,5.343,31.982,31.982,0,0,1-8.383,2.488l3.869,13.45a67.44,67.44,0,0,0,16.951-6.541,66.161,66.161,0,0,0,14.556-10.594q-.184,3.869-.276,7.462t-.093,6.725v85.788H18.425V18.425H321.732Z"/>
      </g>
    </g>
</svg>
