<svg xmlns="http://www.w3.org/2000/svg" width="120mm" height="120mm" viewBox="0 0 340.158 340.158">
  <g id="Zimmernummer">
      <g id="Z-04-642-R">
        <path fill="#A0552B" stroke="none" d="M337.323,0H2.835A2.836,2.836,0,0,0,0,2.835V337.323a2.836,2.836,0,0,0,2.835,2.835H337.323a2.836,2.836,0,0,0,2.835-2.835V2.835A2.836,2.836,0,0,0,337.323,0ZM55.491,300.274a25.076,25.076,0,0,1-3.361-12.806,25.9,25.9,0,0,1,3.184-12.99,22.984,22.984,0,0,1,8.932-8.844A26.864,26.864,0,0,1,77.6,262.41a28.829,28.829,0,0,1,13.8,3.04,20.764,20.764,0,0,1,8.668,8.66,27.957,27.957,0,0,1,3.007,13.358q0,11.98-6.721,18.7T77.6,312.9a24.988,24.988,0,0,1-22.111-12.621Zm129.121-19.623H142.691l30.6-44.774q2.827-4.236,6.19-9.949t5.484-10.318h.353q-.177,4.792-.441,9.765t-.266,9.765Zm137.12,41.081h-18.08V311.42H262.793q-1.771,0-5.219.093t-6.9.184q-3.448.094-5.395.276v-.183q20.87-14.555,33.077-26.533t17.511-22.939a50.856,50.856,0,0,0,5.307-22.387,42.142,42.142,0,0,0-2.741-15.477,34.426,34.426,0,0,0-7.872-12.069,35.379,35.379,0,0,0-12.293-7.83,44.676,44.676,0,0,0-16.185-2.764q-11.851,0-20.43,4.606a35.534,35.534,0,0,0-13.62,12.714,48.815,48.815,0,0,0-6.633,18.794l12.382,7.738q1.235-13.633,8.49-21.834t19.281-8.2q11.5,0,18.13,6.725t6.633,17.6a41.3,41.3,0,0,1-3.007,15.569,58.837,58.837,0,0,1-10.082,15.754,176.03,176.03,0,0,1-18.838,18.425q-11.766,10.135-29.274,23.584v8.469H198.763V293.364h20.695V280.651H198.763V203.633H180.9l-53.241,78.861v10.87h56.956v28.368H100.054a33.844,33.844,0,0,0,12.924-13.167,42.476,42.476,0,0,0,4.952-20.913q0-12.16-4.864-21a33.632,33.632,0,0,0-13.709-13.635,42.812,42.812,0,0,0-20.695-4.791,39.507,39.507,0,0,0-13,2.3,33.064,33.064,0,0,0-11.85,7.185,25.32,25.32,0,0,0-7.165,12.806h-.707V267.2a95.606,95.606,0,0,1,2.035-20.268,55.934,55.934,0,0,1,6.1-16.4,32.975,32.975,0,0,1,9.905-10.964,23.374,23.374,0,0,1,13.443-3.961q10.435,0,16.362,4.883a27.405,27.405,0,0,1,8.578,13.358l13.09-6.449a46.947,46.947,0,0,0-8.667-14.648,31.442,31.442,0,0,0-12.117-8.292,45.757,45.757,0,0,0-16.361-2.671,39.818,39.818,0,0,0-23.26,7.186q-10.349,7.185-16.361,21.1t-6.015,34.363q0,18.24,5.13,32.336t15.212,22.2a35.606,35.606,0,0,0,3.944,2.757H18.425V18.425H321.732Z"/>
      </g>
    </g>
</svg>
