<svg xmlns="http://www.w3.org/2000/svg" width="120mm" height="120mm" viewBox="0 0 340.158 340.157">
  <g id="Zimmernummer">
      <g id="Z-04-615">
        <path fill="#000000" stroke="none" d="M337.323,0H2.835A2.836,2.836,0,0,0,0,2.835V337.323a2.834,2.834,0,0,0,2.835,2.834H337.323a2.834,2.834,0,0,0,2.835-2.834V2.835A2.836,2.836,0,0,0,337.323,0ZM68.049,300.273a25.072,25.072,0,0,1-3.361-12.805,25.9,25.9,0,0,1,3.185-12.99,22.957,22.957,0,0,1,8.932-8.844,26.848,26.848,0,0,1,13.355-3.225,28.845,28.845,0,0,1,13.8,3.04,20.781,20.781,0,0,1,8.668,8.66,27.961,27.961,0,0,1,3.006,13.359q0,11.979-6.721,18.7T90.16,312.9a24.992,24.992,0,0,1-22.111-12.622Zm253.683,21.459h-49.15A35.2,35.2,0,0,0,288.441,303.5a45.5,45.5,0,0,0,3.008-16.951,44.133,44.133,0,0,0-4.6-20.636,33.631,33.631,0,0,0-12.823-13.726,37.253,37.253,0,0,0-19.369-4.883,41.055,41.055,0,0,0-15.831,2.763,30.472,30.472,0,0,0-10.878,7.371h-.354l.354-1.659,4.6-38.324h53.6V203.633H220.519l-6.9,66.884L226,272.912a24.094,24.094,0,0,1,6.721-6.817,27.712,27.712,0,0,1,8.756-3.778,44,44,0,0,1,10.524-1.2,28.116,28.116,0,0,1,13.444,2.948,19.719,19.719,0,0,1,8.4,8.752q2.919,5.8,2.919,14.464a28.51,28.51,0,0,1-3.184,13.911,22.039,22.039,0,0,1-8.932,8.937,28.637,28.637,0,0,1-13.886,3.132q-11.5,0-17.423-5.989a36.2,36.2,0,0,1-8.755-15.569l-13.8,7.555q5.127,13.085,14.592,20.452a30.306,30.306,0,0,0,2.951,2.02H190.449v-118.1H178.067a36.675,36.675,0,0,1-7.075,7.185A88.787,88.787,0,0,1,161,217.729a90.674,90.674,0,0,1-10.26,5.342,29.787,29.787,0,0,1-8.048,2.488l3.714,13.451a65.993,65.993,0,0,0,30.247-17.136q-.177,3.869-.265,7.462t-.089,6.726v85.67H112.612a33.846,33.846,0,0,0,12.924-13.168,42.474,42.474,0,0,0,4.953-20.913q0-12.159-4.864-21a33.647,33.647,0,0,0-13.709-13.634,42.807,42.807,0,0,0-20.7-4.791,39.505,39.505,0,0,0-13,2.3,33.066,33.066,0,0,0-11.85,7.186,25.307,25.307,0,0,0-7.164,12.806H58.5V267.2a95.592,95.592,0,0,1,2.034-20.267,55.968,55.968,0,0,1,6.1-16.4A32.977,32.977,0,0,1,76.54,219.57a23.376,23.376,0,0,1,13.442-3.961q10.435,0,16.362,4.883a27.4,27.4,0,0,1,8.578,13.359l13.09-6.45a46.953,46.953,0,0,0-8.667-14.647,31.431,31.431,0,0,0-12.117-8.292,45.757,45.757,0,0,0-16.361-2.672,39.819,39.819,0,0,0-23.26,7.187q-10.349,7.185-16.361,21.1t-6.015,34.364q0,18.24,5.13,32.335t15.212,22.2a35.443,35.443,0,0,0,3.946,2.757H18.425V18.425H321.732Z"/>
      </g>
    </g>
</svg>
