<svg xmlns="http://www.w3.org/2000/svg" width="120mm" height="120mm" viewBox="0 0 340.158 340.158">
  <g id="Zimmernummer">
      <g id="Z-04-042-E">
        <path fill="#A09f9d" stroke="none" d="M337.323,0H2.835A2.836,2.836,0,0,0,0,2.835V337.323a2.836,2.836,0,0,0,2.835,2.835H337.323a2.836,2.836,0,0,0,2.835-2.835V2.835A2.836,2.836,0,0,0,337.323,0Zm-167.5,280.651H126.159l31.875-44.774q2.946-4.236,6.449-9.949A116.873,116.873,0,0,0,170.2,215.61h.368q-.184,4.792-.46,9.765t-.276,9.765Zm151.905,41.081H301.2V311.42H258.635q-1.845,0-5.436.093t-7.185.184q-3.594.094-5.62.276v-.183q21.738-14.555,34.455-26.533t18.241-22.939a49.2,49.2,0,0,0,5.527-22.387,40.666,40.666,0,0,0-2.855-15.477,34.319,34.319,0,0,0-8.2-12.069,37.086,37.086,0,0,0-12.805-7.83,48.286,48.286,0,0,0-16.86-2.764q-12.345,0-21.281,4.606a36.45,36.45,0,0,0-14.187,12.714,47.531,47.531,0,0,0-6.909,18.794l12.9,7.738q1.287-13.633,8.845-21.834t20.083-8.2q11.974,0,18.885,6.725t6.91,17.6a39.846,39.846,0,0,1-3.132,15.569,58.553,58.553,0,0,1-10.5,15.754,179.975,179.975,0,0,1-19.622,18.425q-12.257,10.135-30.494,23.584v8.469H184.567V293.364h21.557V280.651H184.567V203.633h-18.61L110.5,282.494v10.87h59.329v28.368H18.425V18.425H321.732Z"/>
      </g>
    </g>
</svg>
