<svg xmlns="http://www.w3.org/2000/svg" width="120mm" height="120mm" viewBox="0 0 340.158 340.157">
  <g id="Zimmernummer">
      <g id="Z-04-446-E">
        <path fill="#A09f9d" stroke="none" d="M337.323,0H2.835A2.836,2.836,0,0,0,0,2.835V337.323a2.834,2.834,0,0,0,2.835,2.834H337.323a2.834,2.834,0,0,0,2.835-2.834V2.835A2.836,2.836,0,0,0,337.323,0ZM86.974,280.65H45.053l30.6-44.773q2.826-4.236,6.191-9.949t5.483-10.319h.354q-.178,4.794-.442,9.766t-.266,9.765Zm34.846,12.713h53.771v28.369H101.125V293.363H121.82Zm54.036-67.988q-.265,4.974-.265,9.765v45.51H133.669l30.6-44.773q2.829-4.236,6.191-9.949t5.484-10.319h.353Q176.12,220.4,175.856,225.375Zm65,74.9a25.072,25.072,0,0,1-3.361-12.805,25.9,25.9,0,0,1,3.184-12.99,22.967,22.967,0,0,1,8.933-8.844,26.849,26.849,0,0,1,13.354-3.225,28.849,28.849,0,0,1,13.8,3.04,20.784,20.784,0,0,1,8.667,8.66,27.95,27.95,0,0,1,3.007,13.359q0,11.979-6.722,18.7T262.969,312.9a24.988,24.988,0,0,1-22.11-12.622Zm80.873,21.459h-36.31a33.85,33.85,0,0,0,12.923-13.168,42.463,42.463,0,0,0,4.953-20.913q0-12.159-4.864-21a33.645,33.645,0,0,0-13.708-13.634,42.811,42.811,0,0,0-20.695-4.791,39.492,39.492,0,0,0-13,2.3,33.092,33.092,0,0,0-11.852,7.186,25.306,25.306,0,0,0-7.163,12.806h-.708V267.2a95.722,95.722,0,0,1,2.034-20.267,56,56,0,0,1,6.1-16.4,32.975,32.975,0,0,1,9.905-10.964,23.38,23.38,0,0,1,13.443-3.961q10.434,0,16.362,4.883a27.419,27.419,0,0,1,8.579,13.359l13.089-6.45a46.972,46.972,0,0,0-8.667-14.647,31.431,31.431,0,0,0-12.117-8.292,45.766,45.766,0,0,0-16.362-2.672,39.826,39.826,0,0,0-23.26,7.187q-10.347,7.185-16.361,21.1t-6.014,34.364q0,18.24,5.129,32.335t15.212,22.2a35.524,35.524,0,0,0,3.945,2.757H189.741V293.363h20.7V280.65h-20.7V203.633H171.876l-52,77.017H101.125V203.633H83.26l-53.242,78.86v10.87H86.974v28.369H18.425V18.425H321.732Z"/>
      </g>
    </g>
</svg>
