<svg xmlns="http://www.w3.org/2000/svg" width="120mm" height="120mm" viewBox="0 0 340.158 340.157">
  <g id="Zimmernummer">
      <g id="Z-04-007">
        <path fill="#000000" stroke="none" d="M339.327.831a2.835,2.835,0,0,0-2-.831H2.835A2.836,2.836,0,0,0,0,2.835V337.323a2.834,2.834,0,0,0,2.835,2.834H337.323a2.836,2.836,0,0,0,2.835-2.834V2.835A2.831,2.831,0,0,0,339.327.831Zm-17.595,320.9H258.271a165.252,165.252,0,0,1,4.376-35.672,135.857,135.857,0,0,1,14.1-35.468,173.677,173.677,0,0,1,24.966-33.258V203.516H212.163v13.818h73.525a164.728,164.728,0,0,0-22.119,30.033,152.456,152.456,0,0,0-15.385,37.68,159.225,159.225,0,0,0-5.015,36.685H18.425V18.425H321.732Z"/>
      </g>
    </g>
</svg>
