<svg xmlns="http://www.w3.org/2000/svg" width="120mm" height="120mm" viewBox="0 0 340.158 340.157">
  <g id="Zimmernummer">
      <g id="Z-04-638-R">
        <path fill="#A0552B" stroke="none" d="M337.323,0H2.835A2.836,2.836,0,0,0,0,2.835V337.323a2.834,2.834,0,0,0,2.835,2.834H337.323a2.834,2.834,0,0,0,2.835-2.834V2.835A2.836,2.836,0,0,0,337.323,0ZM55.048,300.274a25.089,25.089,0,0,1-3.36-12.807,25.915,25.915,0,0,1,3.183-12.99,22.993,22.993,0,0,1,8.933-8.844,26.873,26.873,0,0,1,13.354-3.224,28.823,28.823,0,0,1,13.8,3.041,20.762,20.762,0,0,1,8.667,8.66,27.944,27.944,0,0,1,3.008,13.357q0,11.981-6.722,18.7T77.158,312.9a24.99,24.99,0,0,1-22.11-12.621ZM246.52,271.161a41.423,41.423,0,0,1,29.273,0,21.783,21.783,0,0,1,9.641,7.738,21.221,21.221,0,0,1-9.464,31.691,42.4,42.4,0,0,1-29.627,0,21.772,21.772,0,0,1-9.552-31.691A21.692,21.692,0,0,1,246.52,271.161Zm-7.873-35.836q0-9.211,6.1-14.371t16.362-5.161q10.434,0,16.45,5.161t6.014,14.371q0,9.029-6.191,14.187t-16.273,5.158q-10.082,0-16.273-5.158T238.647,235.325Zm83.085,86.407H285.784a33.772,33.772,0,0,0,12.473-10.864,31.777,31.777,0,0,0,5.306-18.426q0-11.423-5.925-19.346a35.349,35.349,0,0,0-15.83-11.793v-.183a27.779,27.779,0,0,0,12.116-10.78,30.992,30.992,0,0,0,4.333-16.49,30.651,30.651,0,0,0-4.6-17.043,30.137,30.137,0,0,0-12.912-10.963,51.53,51.53,0,0,0-39.18,0,30.03,30.03,0,0,0-13,10.963q-4.6,7.1-4.6,17.043a30.4,30.4,0,0,0,4.511,16.676,27.885,27.885,0,0,0,12.116,10.594v.183a34.293,34.293,0,0,0-16.1,11.885q-5.837,8.016-5.837,19.254a31.778,31.778,0,0,0,5.307,18.426,33.629,33.629,0,0,0,12.54,10.864H189.4a34.743,34.743,0,0,0,12.9-12.339,35.786,35.786,0,0,0,5.041-18.976,29.083,29.083,0,0,0-1.68-9.858,26.257,26.257,0,0,0-4.864-8.385,24.049,24.049,0,0,0-7.694-5.9,25.08,25.08,0,0,0-10.348-2.4v-.369a23.824,23.824,0,0,0,8.313-3.039,25.822,25.822,0,0,0,6.987-6.172,29.632,29.632,0,0,0,4.864-9.121,37.171,37.171,0,0,0,1.769-11.885,32.162,32.162,0,0,0-3.98-15.845,29.136,29.136,0,0,0-11.939-11.516q-7.961-4.328-20.165-4.33a46.22,46.22,0,0,0-17.777,3.316,39.7,39.7,0,0,0-13.708,9.213,38.62,38.62,0,0,0-8.49,13.635l13.442,6.633a34.084,34.084,0,0,1,9.2-13.727q5.836-5.065,16.98-5.066,10.435,0,16.1,4.974t5.66,14.555q0,11.241-5.484,16.492t-18.4,5.25h-2.742a26.89,26.89,0,0,1-3.1-.183v14.74a45.417,45.417,0,0,1,4.776-.461q2.3-.09,4.246-.092,8.311,0,13.443,2.119a14.471,14.471,0,0,1,7.517,6.541A23.065,23.065,0,0,1,192.66,290.6a23.6,23.6,0,0,1-2.83,11.7,20.469,20.469,0,0,1-8.137,8.016,26.618,26.618,0,0,1-13.089,2.947q-9.2,0-15.3-2.763a24.363,24.363,0,0,1-9.818-7.831,40.046,40.046,0,0,1-5.837-11.884l-14.15,7.554a37.874,37.874,0,0,0,16.185,21.1c1.305.836,2.647,1.6,4.018,2.3H99.611a33.843,33.843,0,0,0,12.924-13.167,42.472,42.472,0,0,0,4.952-20.914q0-12.159-4.864-21a33.635,33.635,0,0,0-13.708-13.635,42.82,42.82,0,0,0-20.7-4.791,39.5,39.5,0,0,0-13,2.305,33.076,33.076,0,0,0-11.851,7.185A25.319,25.319,0,0,0,46.2,270.516H45.5V267.2a95.747,95.747,0,0,1,2.033-20.268,56.012,56.012,0,0,1,6.1-16.4,32.982,32.982,0,0,1,9.9-10.963,23.367,23.367,0,0,1,13.443-3.961q10.436,0,16.362,4.883a27.4,27.4,0,0,1,8.579,13.357l13.089-6.449a46.934,46.934,0,0,0-8.667-14.647,31.444,31.444,0,0,0-12.116-8.293,45.771,45.771,0,0,0-16.362-2.671,39.824,39.824,0,0,0-23.26,7.187q-10.347,7.183-16.362,21.1T32.23,264.436q0,18.24,5.13,32.336t15.212,22.2a35.524,35.524,0,0,0,3.945,2.757H18.425V18.425H321.732Z"/>
      </g>
    </g>
</svg>
