<svg xmlns="http://www.w3.org/2000/svg" width="120mm" height="120mm" viewBox="0 0 340.158 340.157">
  <g id="Zimmernummer">
      <g id="Z-04-220">
        <path fill="#000000" stroke="none" d="M337.323,0H2.835A2.836,2.836,0,0,0,0,2.835V337.323a2.834,2.834,0,0,0,2.835,2.834H337.323a2.834,2.834,0,0,0,2.835-2.834V2.835A2.836,2.836,0,0,0,337.323,0ZM231.577,291.521q-3.274-11.055-3.272-27.084t3.272-27.086q3.272-11.055,9.729-16.674a25.106,25.106,0,0,1,31.661,0q6.456,5.622,9.729,16.674t3.272,27.086q0,16.029-3.272,27.084T272.967,308.2a25.109,25.109,0,0,1-31.661,0Q234.847,302.577,231.577,291.521Zm90.155,30.211H277.46a39.84,39.84,0,0,0,11.427-10.68q11.762-16.031,11.762-46.615T288.887,217.82q-11.766-16.029-31.751-16.03-19.812,0-31.661,16.03t-11.851,46.617q0,30.585,11.851,46.615a40.3,40.3,0,0,0,11.452,10.68H206.549V311.42H165.69q-1.77,0-5.218.093t-6.9.183q-3.448.1-5.394.277v-.184q20.868-14.553,33.076-26.532t17.512-22.94a50.861,50.861,0,0,0,5.306-22.386,42.164,42.164,0,0,0-2.741-15.478,34.408,34.408,0,0,0-7.872-12.068,35.364,35.364,0,0,0-12.293-7.83,44.679,44.679,0,0,0-16.185-2.765q-11.852,0-20.43,4.606a35.531,35.531,0,0,0-13.619,12.714A48.805,48.805,0,0,0,124.3,237.9l12.382,7.739q1.236-13.633,8.49-21.834t19.281-8.2q11.5,0,18.13,6.726t6.633,17.6a41.281,41.281,0,0,1-3.007,15.569,58.812,58.812,0,0,1-10.082,15.754,176.031,176.031,0,0,1-18.838,18.425q-11.766,10.135-29.274,23.584v8.469h-12.2V311.42H74.951q-1.77,0-5.219.093t-6.9.183q-3.449.1-5.4.277v-.184q20.87-14.553,33.077-26.532t17.511-22.94a50.849,50.849,0,0,0,5.307-22.386,42.144,42.144,0,0,0-2.742-15.478,34.392,34.392,0,0,0-7.871-12.068,35.364,35.364,0,0,0-12.293-7.83,44.679,44.679,0,0,0-16.185-2.765q-11.853,0-20.43,4.606a35.534,35.534,0,0,0-13.62,12.714A48.8,48.8,0,0,0,33.561,237.9l12.381,7.739q1.236-13.633,8.491-21.834t19.279-8.2q11.5,0,18.131,6.726t6.633,17.6A41.281,41.281,0,0,1,95.469,255.5a58.837,58.837,0,0,1-10.082,15.754,176.031,176.031,0,0,1-18.838,18.425q-11.766,10.135-29.274,23.584v8.469H18.425V18.425H321.732Z"/>
      </g>
    </g>
</svg>
