<svg xmlns="http://www.w3.org/2000/svg" width="120mm" height="120mm" viewBox="0 0 340.158 340.157">
  <g id="Zimmernummer">
      <g id="Z-04-430-R">
        <path fill="#A0552B" stroke="none" d="M337.323,0H2.835A2.836,2.836,0,0,0,0,2.835V337.323a2.834,2.834,0,0,0,2.835,2.834H337.323a2.834,2.834,0,0,0,2.835-2.834V2.835A2.836,2.836,0,0,0,337.323,0ZM84.674,280.65H42.753l30.6-44.773q2.826-4.236,6.19-9.949t5.483-10.319h.354q-.177,4.794-.442,9.766t-.265,9.765Zm151.142,10.871q-3.274-11.055-3.272-27.084t3.272-27.086q3.272-11.055,9.729-16.674a25.107,25.107,0,0,1,31.662,0q6.454,5.622,9.729,16.674t3.272,27.086q0,16.029-3.272,27.084T277.207,308.2a25.111,25.111,0,0,1-31.662,0Q239.086,302.577,235.816,291.521Zm85.916,30.211H281.7a39.84,39.84,0,0,0,11.427-10.68q11.762-16.031,11.763-46.615T293.126,217.82q-11.766-16.029-31.75-16.03-19.812,0-31.662,16.03t-11.851,46.617q0,30.585,11.851,46.615a40.323,40.323,0,0,0,11.452,10.68h-48.5a34.76,34.76,0,0,0,12.9-12.338,35.8,35.8,0,0,0,5.041-18.978,29.057,29.057,0,0,0-1.68-9.857,26.236,26.236,0,0,0-4.865-8.384,24.03,24.03,0,0,0-7.694-5.9,25.072,25.072,0,0,0-10.348-2.394v-.369a23.863,23.863,0,0,0,8.314-3.04,25.776,25.776,0,0,0,6.987-6.172,29.6,29.6,0,0,0,4.864-9.121,37.188,37.188,0,0,0,1.769-11.884,32.147,32.147,0,0,0-3.98-15.846,29.128,29.128,0,0,0-11.939-11.515q-7.96-4.328-20.165-4.331a46.219,46.219,0,0,0-17.776,3.317,39.669,39.669,0,0,0-13.708,9.213A38.594,38.594,0,0,0,131.9,227.77l13.444,6.633a34.059,34.059,0,0,1,9.2-13.726q5.838-5.067,16.98-5.068,10.436,0,16.1,4.975t5.66,14.556q0,11.241-5.483,16.491t-18.4,5.251h-2.741a26.649,26.649,0,0,1-3.095-.185v14.741a44.88,44.88,0,0,1,4.776-.46q2.295-.092,4.245-.093,8.311,0,13.442,2.119a14.474,14.474,0,0,1,7.518,6.541,23.065,23.065,0,0,1,2.388,11.055,23.609,23.609,0,0,1-2.83,11.7,20.461,20.461,0,0,1-8.136,8.014,26.625,26.625,0,0,1-13.09,2.949q-9.2,0-15.3-2.764a24.36,24.36,0,0,1-9.817-7.831,40.022,40.022,0,0,1-5.837-11.884l-14.15,7.555a37.873,37.873,0,0,0,16.184,21.1c1.306.836,2.648,1.6,4.019,2.3H98.824V293.363h20.7V280.65h-20.7V203.633H80.959l-53.241,78.86v10.87H84.674v28.369H18.425V18.425H321.732Z"/>
      </g>
    </g>
</svg>
