<svg xmlns="http://www.w3.org/2000/svg" width="120mm" height="120mm" viewBox="0 0 340.158 340.158">
  <g id="Zimmernummer">
      <g id="Z-04-119">
        <path fill="#000000" stroke="none" d="M337.323,0H2.835A2.836,2.836,0,0,0,0,2.835V337.323a2.836,2.836,0,0,0,2.835,2.835H337.323a2.836,2.836,0,0,0,2.835-2.835V2.835A2.836,2.836,0,0,0,337.323,0ZM321.732,321.732H253.57c.98-.57,1.936-1.175,2.857-1.836q9.99-7.186,15.123-21.1t5.129-34.362q0-18.425-5.129-32.521t-15.212-22.11q-10.083-8.016-24.763-8.016-12.562,0-21.58,5.067a34.112,34.112,0,0,0-13.8,14.188q-4.775,9.12-4.776,21.649,0,11.609,4.953,20.084a34.23,34.23,0,0,0,13.8,13.174,42.7,42.7,0,0,0,20.341,4.7,41.482,41.482,0,0,0,13.178-2.211,31.6,31.6,0,0,0,11.939-7.278,27.346,27.346,0,0,0,7.43-13.358h.707v1.658a149.008,149.008,0,0,1-1.5,22.11,57.417,57.417,0,0,1-5.041,17.044,26.12,26.12,0,0,1-9.64,10.87q-6.1,3.78-15.3,3.778-11.322,0-17.777-5.9a33.087,33.087,0,0,1-9.286-15.477l-13.973,7.738q5.127,13.452,15.565,20.452,1.314.882,2.693,1.652h-43.2v-118.1H153.924a36.732,36.732,0,0,1-7.075,7.185,88.815,88.815,0,0,1-9.995,6.911,90.58,90.58,0,0,1-10.259,5.342,29.776,29.776,0,0,1-8.048,2.488l3.715,13.451a65.993,65.993,0,0,0,30.247-17.136q-.179,3.869-.266,7.462t-.088,6.726v85.67H99.09v-118.1H86.708a36.675,36.675,0,0,1-7.075,7.185,88.787,88.787,0,0,1-9.993,6.911,90.674,90.674,0,0,1-10.26,5.342,29.776,29.776,0,0,1-8.048,2.488l3.715,13.451a65.983,65.983,0,0,0,30.246-17.136q-.177,3.869-.265,7.462t-.089,6.726v85.67H18.425V18.425H321.732ZM257.223,241.4a25.9,25.9,0,0,1-3.184,12.991,22.951,22.951,0,0,1-8.933,8.843,26.837,26.837,0,0,1-13.355,3.225q-11.673,0-18.572-6.357t-6.9-17.227q0-12.714,6.545-19.808t18.926-7.093a27.488,27.488,0,0,1,13.355,3.132,22.209,22.209,0,0,1,8.933,8.844A27.2,27.2,0,0,1,257.223,241.4Z"/>
      </g>
    </g>
</svg>
