<svg xmlns="http://www.w3.org/2000/svg" width="120mm" height="120mm" viewBox="0 0 340.158 340.158">
  <g id="Zimmernummer">
      <g id="Z-04-434">
        <path fill="#000000" stroke="none" d="M337.323,0H2.835A2.836,2.836,0,0,0,0,2.835V337.323a2.836,2.836,0,0,0,2.835,2.835H337.323a2.836,2.836,0,0,0,2.835-2.835V2.835A2.836,2.836,0,0,0,337.323,0ZM86.531,280.65H44.61l30.6-44.773q2.828-4.236,6.19-9.949t5.484-10.319h.353q-.177,4.794-.441,9.766t-.266,9.765Zm184.662,0H229.272l30.6-44.773q2.827-4.236,6.19-9.949t5.484-10.319h.353q-.177,4.794-.442,9.766t-.265,9.765Zm50.539,41.082H285.344V293.363h20.695V280.65H285.344V203.633H267.479l-53.242,78.86v10.87h56.956v28.369H190.105a34.763,34.763,0,0,0,12.9-12.338,35.8,35.8,0,0,0,5.041-18.978,29.083,29.083,0,0,0-1.681-9.857,26.234,26.234,0,0,0-4.864-8.384,24.041,24.041,0,0,0-7.694-5.9,25.072,25.072,0,0,0-10.348-2.394v-.369a23.858,23.858,0,0,0,8.313-3.04,25.794,25.794,0,0,0,6.988-6.172,29.641,29.641,0,0,0,4.864-9.121A37.188,37.188,0,0,0,205.4,233.3a32.168,32.168,0,0,0-3.98-15.846,29.134,29.134,0,0,0-11.939-11.515q-7.96-4.328-20.165-4.331a46.22,46.22,0,0,0-17.777,3.317,39.7,39.7,0,0,0-13.709,9.213,38.589,38.589,0,0,0-8.49,13.634l13.443,6.633a34.07,34.07,0,0,1,9.2-13.726q5.835-5.067,16.98-5.068,10.434,0,16.1,4.975t5.66,14.556q0,11.241-5.484,16.491t-18.4,5.251h-2.741a26.666,26.666,0,0,1-3.1-.185v14.741a44.887,44.887,0,0,1,4.775-.46q2.3-.092,4.247-.093,8.311,0,13.442,2.119a14.474,14.474,0,0,1,7.518,6.541,23.077,23.077,0,0,1,2.387,11.055,23.609,23.609,0,0,1-2.83,11.7,20.451,20.451,0,0,1-8.137,8.014,26.614,26.614,0,0,1-13.088,2.949q-9.2,0-15.3-2.764a24.363,24.363,0,0,1-9.818-7.831,40.046,40.046,0,0,1-5.837-11.884l-14.15,7.555a37.875,37.875,0,0,0,16.185,21.1c1.306.836,2.647,1.6,4.018,2.3H100.682V293.363h20.695V280.65H100.682V203.633H82.816l-53.241,78.86v10.87H86.531v28.369H18.425V18.425H321.732Z"/>
      </g>
    </g>
</svg>
