<svg xmlns="http://www.w3.org/2000/svg" width="120mm" height="120mm" viewBox="0 0 340.158 340.157">
  <g id="Zimmernummer">
      <g id="Z-04-621-R">
        <path fill="#A0552B" stroke="none" d="M337.323,0H2.835A2.834,2.834,0,0,0,0,2.835V337.323a2.834,2.834,0,0,0,2.835,2.834H337.323a2.834,2.834,0,0,0,2.835-2.834V2.835A2.834,2.834,0,0,0,337.323,0ZM61.5,300.273a25.081,25.081,0,0,1-3.36-12.805,25.9,25.9,0,0,1,3.183-12.99,22.96,22.96,0,0,1,8.933-8.844,26.849,26.849,0,0,1,13.354-3.225,28.846,28.846,0,0,1,13.8,3.04,20.779,20.779,0,0,1,8.667,8.66,27.95,27.95,0,0,1,3.007,13.359q0,11.979-6.722,18.7T83.607,312.9A24.988,24.988,0,0,1,61.5,300.273Zm260.235,21.459H271.1v-118.1H258.717a36.732,36.732,0,0,1-7.075,7.185,88.815,88.815,0,0,1-10,6.911,90.571,90.571,0,0,1-10.258,5.342,29.792,29.792,0,0,1-8.049,2.488l3.715,13.451A65.993,65.993,0,0,0,257.3,221.874q-.179,3.869-.266,7.462t-.088,6.726v85.67H213.967V311.42h-40.86q-1.77,0-5.218.093t-6.9.183q-3.449.1-5.394.277v-.184q20.869-14.553,33.077-26.532t17.511-22.94a50.848,50.848,0,0,0,5.306-22.386,42.144,42.144,0,0,0-2.741-15.478,34.406,34.406,0,0,0-7.871-12.068,35.378,35.378,0,0,0-12.294-7.83A44.672,44.672,0,0,0,172.4,201.79q-11.852,0-20.429,4.606a35.534,35.534,0,0,0-13.62,12.714,48.788,48.788,0,0,0-6.633,18.794l12.382,7.739q1.235-13.633,8.49-21.834t19.28-8.2q11.5,0,18.13,6.726t6.634,17.6a41.281,41.281,0,0,1-3.008,15.569,58.812,58.812,0,0,1-10.082,15.754,176.031,176.031,0,0,1-18.838,18.425q-11.766,10.135-29.273,23.584v8.469H106.06a33.837,33.837,0,0,0,12.923-13.168,42.463,42.463,0,0,0,4.954-20.913q0-12.159-4.865-21a33.635,33.635,0,0,0-13.709-13.634,42.8,42.8,0,0,0-20.694-4.791,39.5,39.5,0,0,0-13,2.3,33.092,33.092,0,0,0-11.852,7.186,25.313,25.313,0,0,0-7.163,12.806h-.708V267.2a95.722,95.722,0,0,1,2.034-20.267,56,56,0,0,1,6.1-16.4,32.985,32.985,0,0,1,9.9-10.964,23.383,23.383,0,0,1,13.444-3.961q10.434,0,16.361,4.883a27.412,27.412,0,0,1,8.579,13.359l13.089-6.45a46.934,46.934,0,0,0-8.667-14.647,31.435,31.435,0,0,0-12.116-8.292,45.772,45.772,0,0,0-16.363-2.672,39.82,39.82,0,0,0-23.259,7.187q-10.349,7.185-16.362,21.1T38.68,264.437q0,18.24,5.129,32.335t15.212,22.2a35.524,35.524,0,0,0,3.945,2.757H18.425V18.425H321.732Z"/>
      </g>
    </g>
</svg>
