<svg xmlns="http://www.w3.org/2000/svg" width="120mm" height="120mm" viewBox="0 0 340.158 340.158">
  <g id="Zimmernummer">
      <g id="Z-04-417">
        <path fill="#000000" stroke="none" d="M337.323,0H2.835A2.836,2.836,0,0,0,0,2.835V337.323a2.836,2.836,0,0,0,2.835,2.835H337.323a2.836,2.836,0,0,0,2.835-2.835V2.835A2.836,2.836,0,0,0,337.323,0ZM107.667,280.651H65.746l30.6-44.774q2.827-4.236,6.192-9.949t5.483-10.318h.354q-.178,4.792-.443,9.765t-.265,9.765Zm214.065,41.081H250.81a171.644,171.644,0,0,1,4.2-35.554,139.163,139.163,0,0,1,13.532-35.469,173.214,173.214,0,0,1,23.967-33.256v-13.82H206.544v13.82h70.584a164.52,164.52,0,0,0-21.234,30.033,156.12,156.12,0,0,0-14.769,37.679,165.454,165.454,0,0,0-4.812,36.567H190.271v-118.1H177.889a36.649,36.649,0,0,1-7.075,7.186,88.483,88.483,0,0,1-9.994,6.91,90.681,90.681,0,0,1-10.259,5.343,29.753,29.753,0,0,1-8.048,2.487l3.714,13.451a65.99,65.99,0,0,0,30.247-17.135q-.178,3.869-.265,7.461t-.088,6.726v85.67h-54.3V293.364h20.694V280.651H121.818V203.633H103.953L50.711,282.494v10.87h56.956v28.368H18.425V18.425H321.732Z"/>
      </g>
    </g>
</svg>
