<svg xmlns="http://www.w3.org/2000/svg" width="120mm" height="120mm" viewBox="0 0 340.158 340.157">
  <g id="Zimmernummer">
      <g id="Z-04-418-E">
        <path fill="#A09f9d" stroke="none" d="M337.323,0H2.835A2.836,2.836,0,0,0,0,2.835V337.323a2.834,2.834,0,0,0,2.835,2.834H337.323a2.834,2.834,0,0,0,2.835-2.834V2.835A2.836,2.836,0,0,0,337.323,0ZM100.149,280.651H58.228l30.6-44.774q2.828-4.236,6.19-9.949T100.5,215.61h.353q-.177,4.792-.441,9.765t-.266,9.764Zm131.689-9.49a41.426,41.426,0,0,1,29.274,0,21.78,21.78,0,0,1,9.64,7.738,22.769,22.769,0,0,1,.089,23.953,21.156,21.156,0,0,1-9.552,7.738,42.4,42.4,0,0,1-29.628,0,21.772,21.772,0,0,1-9.552-31.691A21.7,21.7,0,0,1,231.838,271.161Zm-7.871-35.836q0-9.211,6.1-14.371t16.361-5.161q10.434,0,16.451,5.161t6.013,14.371q0,9.029-6.19,14.187T246.43,254.67q-10.082,0-16.273-5.158T223.967,235.325Zm97.765,86.407H271.1a33.78,33.78,0,0,0,12.473-10.864,31.785,31.785,0,0,0,5.307-18.426q0-11.423-5.926-19.346A35.352,35.352,0,0,0,267.126,261.3v-.183a27.773,27.773,0,0,0,12.116-10.78,30.984,30.984,0,0,0,4.334-16.49,30.651,30.651,0,0,0-4.6-17.043,30.131,30.131,0,0,0-12.912-10.963,51.527,51.527,0,0,0-39.179,0,30.016,30.016,0,0,0-13,10.963q-4.6,7.1-4.6,17.043a30.408,30.408,0,0,0,4.511,16.676,27.891,27.891,0,0,0,12.116,10.594v.183a34.3,34.3,0,0,0-16.1,11.885q-5.836,8.016-5.837,19.254a31.785,31.785,0,0,0,5.306,18.426,33.632,33.632,0,0,0,12.541,10.864H182.753v-118.1H170.372a36.741,36.741,0,0,1-7.076,7.186,88.574,88.574,0,0,1-9.994,6.91,90.58,90.58,0,0,1-10.259,5.342A29.74,29.74,0,0,1,135,225.559l3.715,13.451a66,66,0,0,0,30.246-17.136q-.177,3.87-.265,7.462t-.089,6.725v85.671H114.3V293.364H135V280.651H114.3V203.633H96.434l-53.241,78.86v10.871h56.956v28.368H18.425V18.425H321.732Z"/>
      </g>
    </g>
</svg>
