<svg xmlns="http://www.w3.org/2000/svg" width="120mm" height="120mm" viewBox="0 0 340.158 340.158">
  <g id="Zimmernummer">
      <g id="Z-04-020-R">
        <path fill="#A0552B" stroke="none" d="M339.327.831a2.833,2.833,0,0,0-2-.831H2.835A2.836,2.836,0,0,0,0,2.835V337.323a2.836,2.836,0,0,0,2.835,2.835H337.323a2.837,2.837,0,0,0,2.835-2.835V2.835A2.831,2.831,0,0,0,339.327.831ZM228.7,291.4q-3.411-11.055-3.408-27.085t3.408-27.085q3.406-11.055,10.134-16.675a27,27,0,0,1,32.981,0q6.725,5.622,10.134,16.675t3.409,27.085q0,16.03-3.409,27.085t-10.134,16.675a27.007,27.007,0,0,1-32.981,0Q232.11,302.46,228.7,291.4Zm93.029,30.328H276.3a40.8,40.8,0,0,0,12.1-10.8q12.25-16.029,12.253-46.615T288.4,217.7q-12.257-16.031-33.074-16.03-20.637,0-32.981,16.03T210,264.319q0,30.586,12.344,46.615a41.292,41.292,0,0,0,12.124,10.8h-30V311.3H161.913q-1.844,0-5.435.092t-7.186.184q-3.593.1-5.62.277v-.184q21.739-14.555,34.456-26.533t18.24-22.939a49.2,49.2,0,0,0,5.528-22.387,40.648,40.648,0,0,0-2.856-15.477,34.3,34.3,0,0,0-8.2-12.068,37.084,37.084,0,0,0-12.806-7.831,48.28,48.28,0,0,0-16.859-2.764q-12.345,0-21.281,4.607a36.44,36.44,0,0,0-14.187,12.713,47.555,47.555,0,0,0-6.91,18.793l12.9,7.739q1.287-13.633,8.844-21.834t20.083-8.2q11.976,0,18.887,6.725t6.909,17.6a39.834,39.834,0,0,1-3.133,15.57,58.52,58.52,0,0,1-10.5,15.753,179.9,179.9,0,0,1-19.623,18.425q-12.255,10.136-30.493,23.585v8.586H18.425V18.425H321.732Z"/>
      </g>
    </g>
</svg>
