<svg xmlns="http://www.w3.org/2000/svg" width="120mm" height="120mm" viewBox="0 0 340.158 340.157">
  <g id="Zimmernummer">
      <g id="Z-04-225-M">
        <path fill="#D4AF37" stroke="none" d="M337.323,0H2.835A2.836,2.836,0,0,0,0,2.835V337.323a2.834,2.834,0,0,0,2.835,2.834H337.323a2.834,2.834,0,0,0,2.835-2.834V2.835A2.836,2.836,0,0,0,337.323,0ZM321.732,321.732H280.369A35.2,35.2,0,0,0,296.228,303.5a45.5,45.5,0,0,0,3.007-16.951,44.145,44.145,0,0,0-4.6-20.636,33.633,33.633,0,0,0-12.824-13.726,37.248,37.248,0,0,0-19.369-4.883,41.053,41.053,0,0,0-15.83,2.763,30.467,30.467,0,0,0-10.879,7.371h-.353l.353-1.659,4.6-38.324h53.6V203.633H228.305l-6.9,66.884,12.382,2.395a24.094,24.094,0,0,1,6.721-6.817,27.7,27.7,0,0,1,8.756-3.778,44,44,0,0,1,10.525-1.2,28.11,28.11,0,0,1,13.442,2.948,19.721,19.721,0,0,1,8.4,8.752q2.919,5.8,2.919,14.464a28.51,28.51,0,0,1-3.184,13.911,22.036,22.036,0,0,1-8.933,8.937,28.63,28.63,0,0,1-13.885,3.132q-11.5,0-17.423-5.989a36.2,36.2,0,0,1-8.755-15.569l-13.8,7.555q5.129,13.085,14.592,20.452a30.428,30.428,0,0,0,2.951,2.02H211.856V311.42H171q-1.77,0-5.218.093t-6.9.183q-3.449.1-5.395.277v-.184q20.869-14.553,33.077-26.532t17.512-22.94a50.861,50.861,0,0,0,5.306-22.386,42.164,42.164,0,0,0-2.741-15.478,34.42,34.42,0,0,0-7.871-12.068,35.378,35.378,0,0,0-12.294-7.83,44.678,44.678,0,0,0-16.184-2.765q-11.853,0-20.431,4.606A35.538,35.538,0,0,0,136.24,219.11a48.805,48.805,0,0,0-6.634,18.794l12.382,7.739q1.236-13.633,8.491-21.834t19.28-8.2q11.5,0,18.13,6.726t6.633,17.6a41.281,41.281,0,0,1-3.007,15.569,58.812,58.812,0,0,1-10.082,15.754A176.031,176.031,0,0,1,162.6,289.679q-11.766,10.135-29.274,23.584v8.469H117.58V311.42H76.72q-1.77,0-5.218.093t-6.9.183q-3.45.1-5.395.277v-.184q20.869-14.553,33.077-26.532t17.511-22.94a50.849,50.849,0,0,0,5.307-22.386,42.164,42.164,0,0,0-2.742-15.478,34.42,34.42,0,0,0-7.871-12.068,35.378,35.378,0,0,0-12.294-7.83,44.678,44.678,0,0,0-16.184-2.765q-11.853,0-20.43,4.606a35.534,35.534,0,0,0-13.62,12.714A48.788,48.788,0,0,0,35.33,237.9l12.381,7.739q1.236-13.633,8.491-21.834t19.28-8.2q11.5,0,18.13,6.726t6.634,17.6A41.281,41.281,0,0,1,97.238,255.5a58.812,58.812,0,0,1-10.082,15.754,176.031,176.031,0,0,1-18.838,18.425q-11.764,10.135-29.274,23.584v8.469H18.425V18.425H321.732Z"/>
      </g>
    </g>
</svg>
