<svg xmlns="http://www.w3.org/2000/svg" width="120mm" height="120mm" viewBox="0 0 340.158 340.157">
  <g id="Zimmernummer">
      <g id="Z-04-508-M">
        <path fill="#D4AF37" stroke="none" d="M337.323,0H2.835A2.836,2.836,0,0,0,0,2.835V337.323a2.834,2.834,0,0,0,2.835,2.834H337.323a2.834,2.834,0,0,0,2.835-2.834V2.835A2.836,2.836,0,0,0,337.323,0Zm-199.5,291.522q-3.276-11.056-3.273-27.086t3.273-27.086q3.27-11.054,9.728-16.674a25.111,25.111,0,0,1,31.662,0q6.454,5.622,9.729,16.674t3.272,27.086q0,16.032-3.272,27.086T179.215,308.2a25.111,25.111,0,0,1-31.662,0Q141.1,302.577,137.825,291.522ZM245.9,271.161a41.423,41.423,0,0,1,29.273,0,21.778,21.778,0,0,1,9.641,7.738,21.219,21.219,0,0,1-9.464,31.691,42.4,42.4,0,0,1-29.627,0A21.772,21.772,0,0,1,236.17,278.9,21.692,21.692,0,0,1,245.9,271.161Zm-7.871-35.836q0-9.211,6.1-14.371t16.362-5.161q10.434,0,16.45,5.161t6.014,14.371q0,9.029-6.192,14.187t-16.272,5.158q-10.083,0-16.274-5.158T238.028,235.325Zm83.7,86.407H285.164a33.761,33.761,0,0,0,12.472-10.864,31.778,31.778,0,0,0,5.307-18.426q0-11.423-5.926-19.346a35.344,35.344,0,0,0-15.83-11.793v-.183A27.768,27.768,0,0,0,293.3,250.34a30.992,30.992,0,0,0,4.333-16.49,30.658,30.658,0,0,0-4.6-17.043,30.139,30.139,0,0,0-12.913-10.963,51.527,51.527,0,0,0-39.179,0,30.024,30.024,0,0,0-13,10.963q-4.6,7.1-4.6,17.043a30.408,30.408,0,0,0,4.511,16.676,27.9,27.9,0,0,0,12.116,10.594v.183a34.293,34.293,0,0,0-16.1,11.885q-5.835,8.016-5.836,19.254a31.785,31.785,0,0,0,5.306,18.426,33.644,33.644,0,0,0,12.54,10.864H183.708a39.827,39.827,0,0,0,11.426-10.681Q206.9,295.024,206.9,264.436t-11.763-46.615q-11.764-16.032-31.75-16.031-19.812,0-31.662,16.031t-11.85,46.615q0,30.587,11.85,46.615a40.313,40.313,0,0,0,11.452,10.681H94.287A35.205,35.205,0,0,0,110.145,303.5a45.5,45.5,0,0,0,3.008-16.952,44.122,44.122,0,0,0-4.6-20.634A33.627,33.627,0,0,0,95.73,252.184,37.248,37.248,0,0,0,76.361,247.3a41.02,41.02,0,0,0-15.831,2.764,30.481,30.481,0,0,0-10.878,7.369H49.3l.354-1.658,4.6-38.324h53.6V203.633H42.223l-6.9,66.883,12.382,2.4a24.112,24.112,0,0,1,6.72-6.819,27.733,27.733,0,0,1,8.756-3.777,44.005,44.005,0,0,1,10.525-1.2,28.114,28.114,0,0,1,13.443,2.947,19.719,19.719,0,0,1,8.4,8.752q2.92,5.8,2.919,14.465a28.52,28.52,0,0,1-3.183,13.91,22.042,22.042,0,0,1-8.933,8.937,28.637,28.637,0,0,1-13.886,3.131q-11.5,0-17.423-5.988a36.194,36.194,0,0,1-8.754-15.568l-13.8,7.554q5.129,13.085,14.592,20.451a30.508,30.508,0,0,0,2.952,2.021H18.425V18.425H321.732Z"/>
      </g>
    </g>
</svg>
