<svg xmlns="http://www.w3.org/2000/svg" width="120mm" height="120mm" viewBox="0 0 340.158 340.157">
  <g id="Zimmernummer">
      <g id="Z-04-600">
        <path fill="#000000" stroke="none" d="M337.323,0H2.835A2.836,2.836,0,0,0,0,2.835V337.323a2.834,2.834,0,0,0,2.835,2.834H337.323a2.834,2.834,0,0,0,2.835-2.834V2.835A2.836,2.836,0,0,0,337.323,0ZM52.837,300.273a25.072,25.072,0,0,1-3.361-12.805,25.913,25.913,0,0,1,3.184-12.99,22.971,22.971,0,0,1,8.932-8.844,26.853,26.853,0,0,1,13.355-3.225,28.849,28.849,0,0,1,13.8,3.04,20.787,20.787,0,0,1,8.668,8.66,27.961,27.961,0,0,1,3.006,13.359q0,11.979-6.721,18.7T74.947,312.9a24.991,24.991,0,0,1-22.11-12.622Zm86.758-8.752q-3.274-11.055-3.272-27.084t3.272-27.086q3.272-11.055,9.729-16.674a25.107,25.107,0,0,1,31.662,0q6.454,5.622,9.728,16.674t3.272,27.086q0,16.029-3.272,27.084T180.986,308.2a25.111,25.111,0,0,1-31.662,0Q142.865,302.577,139.6,291.521Zm97.638,0q-3.276-11.055-3.273-27.084t3.273-27.086q3.271-11.055,9.728-16.674a25.109,25.109,0,0,1,31.663,0q6.453,5.622,9.728,16.674t3.273,27.086q0,16.029-3.273,27.084T278.624,308.2a25.112,25.112,0,0,1-31.663,0Q240.5,302.577,237.233,291.521Zm84.5,30.211H283.116a39.837,39.837,0,0,0,11.426-10.68q11.762-16.031,11.763-46.615T294.542,217.82q-11.764-16.029-31.75-16.03-19.812,0-31.662,16.03t-11.851,46.617q0,30.585,11.851,46.615a40.313,40.313,0,0,0,11.453,10.68h-57.1a39.853,39.853,0,0,0,11.427-10.68q11.762-16.031,11.762-46.615T196.905,217.82q-11.766-16.029-31.75-16.03-19.812,0-31.662,16.03t-11.851,46.617q0,30.585,11.851,46.615a40.31,40.31,0,0,0,11.452,10.68H97.4a33.849,33.849,0,0,0,12.925-13.168,42.463,42.463,0,0,0,4.952-20.913q0-12.159-4.864-21A33.639,33.639,0,0,0,96.7,253.013a42.807,42.807,0,0,0-20.7-4.791,39.5,39.5,0,0,0-13,2.3,33.066,33.066,0,0,0-11.85,7.186,25.307,25.307,0,0,0-7.164,12.806h-.707V267.2a95.592,95.592,0,0,1,2.034-20.267,55.968,55.968,0,0,1,6.1-16.4,32.99,32.99,0,0,1,9.907-10.964,23.374,23.374,0,0,1,13.442-3.961q10.436,0,16.362,4.883a27.4,27.4,0,0,1,8.578,13.359l13.09-6.45a46.935,46.935,0,0,0-8.668-14.647,31.42,31.42,0,0,0-12.116-8.292,45.757,45.757,0,0,0-16.361-2.672,39.819,39.819,0,0,0-23.26,7.187q-10.347,7.185-16.362,21.1t-6.014,34.364q0,18.24,5.13,32.335t15.212,22.2a35.524,35.524,0,0,0,3.945,2.757H18.425V18.425H321.732Z"/>
      </g>
    </g>
</svg>
