<svg xmlns="http://www.w3.org/2000/svg" width="120mm" height="120mm" viewBox="0 0 340.158 340.157">
  <g id="Zimmernummer">
      <g id="Z-04-400-M">
        <path fill="#D4AF37" stroke="none" d="M337.323,0H2.835A2.836,2.836,0,0,0,0,2.835V337.323a2.834,2.834,0,0,0,2.835,2.834H337.323a2.834,2.834,0,0,0,2.835-2.834V2.835A2.836,2.836,0,0,0,337.323,0ZM82.993,280.65H41.072l30.6-44.773q2.828-4.236,6.191-9.949t5.483-10.319H83.7q-.178,4.794-.443,9.766t-.265,9.765Zm60.4,10.871q-3.276-11.055-3.272-27.084t3.272-27.086q3.272-11.055,9.728-16.674a25.107,25.107,0,0,1,31.662,0q6.454,5.622,9.728,16.674t3.273,27.086q0,16.029-3.273,27.084T184.787,308.2a25.111,25.111,0,0,1-31.662,0Q146.666,302.577,143.4,291.521Zm94.1,0q-3.276-11.055-3.273-27.084t3.273-27.086q3.27-11.055,9.728-16.674a25.107,25.107,0,0,1,31.662,0q6.454,5.622,9.729,16.674t3.272,27.086q0,16.029-3.272,27.084T278.887,308.2a25.111,25.111,0,0,1-31.662,0Q240.766,302.577,237.5,291.521Zm84.235,30.211H283.379a39.84,39.84,0,0,0,11.427-10.68q11.762-16.031,11.763-46.615T294.806,217.82q-11.766-16.029-31.75-16.03-19.812,0-31.662,16.03t-11.851,46.617q0,30.585,11.851,46.615a40.323,40.323,0,0,0,11.452,10.68H189.28a39.853,39.853,0,0,0,11.427-10.68q11.76-16.031,11.762-46.615T200.707,217.82q-11.766-16.029-31.75-16.03-19.814,0-31.663,16.03t-11.851,46.617q0,30.585,11.851,46.615a40.323,40.323,0,0,0,11.452,10.68h-51.6V293.363h20.695V280.65H97.143V203.633H79.278l-53.241,78.86v10.87H82.993v28.369H18.425V18.425H321.732Z"/>
      </g>
    </g>
</svg>
