<svg xmlns="http://www.w3.org/2000/svg" width="120mm" height="120mm" viewBox="0 0 340.158 340.158">
  <g id="Zimmernummer">
      <g id="Z-04-022-R">
        <path fill="#A0552B" stroke="none" d="M339.328.831a2.835,2.835,0,0,0-2-.831H2.835A2.836,2.836,0,0,0,0,2.835V337.323a2.836,2.836,0,0,0,2.835,2.835H337.323a2.836,2.836,0,0,0,2.835-2.835V2.835A2.835,2.835,0,0,0,339.328.831Zm-17.6,320.9H300.654V311.3H258.092q-1.845,0-5.436.092t-7.185.184q-3.594.1-5.62.276v-.184q21.738-14.551,34.455-26.532T292.547,262.2a49.2,49.2,0,0,0,5.527-22.387,40.647,40.647,0,0,0-2.855-15.477,34.308,34.308,0,0,0-8.2-12.068,37.1,37.1,0,0,0-12.806-7.831,48.286,48.286,0,0,0-16.86-2.764q-12.345,0-21.28,4.606a36.446,36.446,0,0,0-14.188,12.714,47.548,47.548,0,0,0-6.909,18.793l12.9,7.739q1.286-13.632,8.844-21.834t20.083-8.2q11.975,0,18.886,6.725t6.909,17.6a39.85,39.85,0,0,1-3.132,15.57,58.565,58.565,0,0,1-10.5,15.753,180.07,180.07,0,0,1-19.622,18.426q-12.256,10.134-30.494,23.584v8.586H204.292V311.3H161.729q-1.844,0-5.435.092t-7.186.184q-3.593.1-5.62.276v-.184q21.739-14.551,34.456-26.532T196.185,262.2a49.2,49.2,0,0,0,5.527-22.387,40.648,40.648,0,0,0-2.856-15.477,34.3,34.3,0,0,0-8.2-12.068,37.089,37.089,0,0,0-12.805-7.831,48.29,48.29,0,0,0-16.86-2.764q-12.345,0-21.281,4.606a36.45,36.45,0,0,0-14.187,12.714,47.549,47.549,0,0,0-6.91,18.793l12.9,7.739q1.287-13.632,8.844-21.834t20.083-8.2q11.976,0,18.887,6.725t6.909,17.6a39.85,39.85,0,0,1-3.132,15.57,58.565,58.565,0,0,1-10.5,15.753,180.07,180.07,0,0,1-19.622,18.426q-12.257,10.134-30.494,23.584v8.586H18.425V18.425H321.732Z"/>
      </g>
    </g>
</svg>
