<svg xmlns="http://www.w3.org/2000/svg" width="120mm" height="120mm" viewBox="0 0 340.158 340.157">
  <g id="Zimmernummer">
      <g id="Z-04-408-R">
        <path fill="#A0552B" stroke="none" d="M337.323,0H2.835A2.836,2.836,0,0,0,0,2.835V337.323a2.834,2.834,0,0,0,2.835,2.834H337.323a2.834,2.834,0,0,0,2.835-2.834V2.835A2.836,2.836,0,0,0,337.323,0ZM85.292,280.651H43.371l30.6-44.774q2.829-4.236,6.192-9.949t5.483-10.318H86q-.18,4.792-.443,9.765t-.265,9.764Zm56.866,10.871q-3.274-11.056-3.272-27.086t3.272-27.086q3.27-11.054,9.728-16.674a25.111,25.111,0,0,1,31.662,0Q190,226.3,193.277,237.35t3.272,27.086q0,16.032-3.272,27.086T183.548,308.2a25.111,25.111,0,0,1-31.662,0Q145.429,302.577,142.158,291.522Zm104.536-20.361a41.426,41.426,0,0,1,29.274,0,21.775,21.775,0,0,1,9.64,7.738,22.769,22.769,0,0,1,.089,23.953,21.146,21.146,0,0,1-9.552,7.738,42.4,42.4,0,0,1-29.628,0,21.772,21.772,0,0,1-9.551-31.691A21.7,21.7,0,0,1,246.694,271.161Zm-7.871-35.836q0-9.211,6.1-14.371t16.362-5.161q10.436,0,16.45,5.161t6.014,14.371q0,9.029-6.191,14.187t-16.273,5.158q-10.081,0-16.273-5.158T238.823,235.325Zm82.909,86.407H285.959a33.772,33.772,0,0,0,12.473-10.864,31.778,31.778,0,0,0,5.307-18.426q0-11.423-5.926-19.346A35.352,35.352,0,0,0,281.982,261.3v-.183A27.776,27.776,0,0,0,294.1,250.34a30.992,30.992,0,0,0,4.333-16.49,30.659,30.659,0,0,0-4.6-17.043,30.142,30.142,0,0,0-12.912-10.963,51.527,51.527,0,0,0-39.179,0,30.019,30.019,0,0,0-13,10.963q-4.6,7.1-4.6,17.043a30.408,30.408,0,0,0,4.51,16.676,27.9,27.9,0,0,0,12.117,10.594v.183a34.293,34.293,0,0,0-16.1,11.885q-5.836,8.016-5.837,19.254a31.778,31.778,0,0,0,5.307,18.426,33.629,33.629,0,0,0,12.54,10.864H188.041a39.83,39.83,0,0,0,11.427-10.681q11.762-16.027,11.763-46.615t-11.763-46.615Q187.7,201.789,167.717,201.79q-19.812,0-31.661,16.031t-11.851,46.615q0,30.587,11.851,46.615a40.3,40.3,0,0,0,11.451,10.681H99.443V293.364h20.7V280.651h-20.7V203.633H81.578l-53.242,78.86v10.871H85.292v28.368H18.425V18.425H321.732Z"/>
      </g>
    </g>
</svg>
