<svg xmlns="http://www.w3.org/2000/svg" width="120mm" height="120mm" viewBox="0 0 340.158 340.157">
  <g id="Zimmernummer">
      <g id="Z-04-218-R">
        <path fill="#A0552B" stroke="none" d="M337.323,0H2.835A2.836,2.836,0,0,0,0,2.835V337.323a2.834,2.834,0,0,0,2.835,2.834H337.323a2.834,2.834,0,0,0,2.835-2.834V2.835A2.836,2.836,0,0,0,337.323,0ZM230.781,271.161a41.426,41.426,0,0,1,29.274,0,21.769,21.769,0,0,1,9.64,7.738,22.763,22.763,0,0,1,.089,23.953,21.151,21.151,0,0,1-9.552,7.738,42.4,42.4,0,0,1-29.628,0,21.772,21.772,0,0,1-9.551-31.691A21.7,21.7,0,0,1,230.781,271.161Zm-7.871-35.836q0-9.211,6.1-14.371t16.361-5.161q10.435,0,16.45,5.161t6.014,14.371q0,9.029-6.191,14.187t-16.273,5.158q-10.083,0-16.273-5.158T222.91,235.325Zm98.822,86.407H270.046a33.772,33.772,0,0,0,12.473-10.864,31.778,31.778,0,0,0,5.307-18.426q0-11.423-5.926-19.346A35.347,35.347,0,0,0,266.069,261.3v-.183a27.771,27.771,0,0,0,12.117-10.78,30.992,30.992,0,0,0,4.333-16.49,30.659,30.659,0,0,0-4.6-17.043,30.137,30.137,0,0,0-12.912-10.963,51.527,51.527,0,0,0-39.179,0,30.024,30.024,0,0,0-13,10.963q-4.6,7.1-4.6,17.043a30.408,30.408,0,0,0,4.51,16.676,27.9,27.9,0,0,0,12.116,10.594v.183a34.3,34.3,0,0,0-16.1,11.885q-5.836,8.016-5.837,19.254a31.778,31.778,0,0,0,5.307,18.426,33.629,33.629,0,0,0,12.54,10.864H181.7v-118.1H169.315a36.733,36.733,0,0,1-7.075,7.186,88.664,88.664,0,0,1-9.994,6.91,90.665,90.665,0,0,1-10.259,5.342,29.756,29.756,0,0,1-8.049,2.488l3.715,13.451A65.993,65.993,0,0,0,167.9,221.874q-.179,3.87-.265,7.462t-.089,6.725v85.671H128.1V311.42H87.243q-1.77,0-5.218.092t-6.9.184q-3.449.1-5.4.277v-.183q20.871-14.556,33.078-26.534t17.511-22.939a50.869,50.869,0,0,0,5.306-22.387,42.157,42.157,0,0,0-2.741-15.476,34.415,34.415,0,0,0-7.871-12.069,35.392,35.392,0,0,0-12.294-7.83,44.656,44.656,0,0,0-16.184-2.765q-11.853,0-20.431,4.607A35.528,35.528,0,0,0,52.486,219.11a48.787,48.787,0,0,0-6.633,18.795l12.381,7.738q1.236-13.635,8.491-21.834t19.28-8.2q11.5,0,18.13,6.724t6.634,17.6a41.283,41.283,0,0,1-3.008,15.57,58.827,58.827,0,0,1-10.082,15.754,175.937,175.937,0,0,1-18.838,18.424q-11.764,10.137-29.274,23.584v8.47H18.425V18.425H321.732Z"/>
      </g>
    </g>
</svg>
