<svg xmlns="http://www.w3.org/2000/svg" width="120mm" height="120mm" viewBox="0 0 340.158 340.158">
  <g id="Zimmernummer">
      <g id="Z-04-109-R">
        <path fill="#A0552B" stroke="none" d="M337.323,0H2.835A2.836,2.836,0,0,0,0,2.835V337.323a2.836,2.836,0,0,0,2.835,2.835H337.323a2.836,2.836,0,0,0,2.835-2.835V2.835A2.836,2.836,0,0,0,337.323,0ZM122.528,291.521q-3.276-11.055-3.273-27.084t3.273-27.086q3.27-11.055,9.728-16.674a25.107,25.107,0,0,1,31.662,0q6.454,5.622,9.728,16.674t3.273,27.086q0,16.029-3.273,27.084T163.918,308.2a25.111,25.111,0,0,1-31.662,0Q125.8,302.577,122.528,291.521Zm199.2,30.211H261.707c.979-.57,1.936-1.175,2.855-1.836q9.993-7.186,15.125-21.1t5.129-34.362q0-18.425-5.129-32.521t-15.212-22.11q-10.083-8.016-24.764-8.016-12.561,0-21.58,5.067a34.118,34.118,0,0,0-13.8,14.188q-4.776,9.12-4.775,21.649,0,11.609,4.953,20.084a34.227,34.227,0,0,0,13.8,13.174,42.7,42.7,0,0,0,20.341,4.7,41.482,41.482,0,0,0,13.178-2.211,31.6,31.6,0,0,0,11.94-7.278A27.345,27.345,0,0,0,271.2,257.8h.707v1.658a149.008,149.008,0,0,1-1.5,22.11,57.417,57.417,0,0,1-5.041,17.044,26.106,26.106,0,0,1-9.64,10.87q-6.1,3.78-15.3,3.778-11.32,0-17.776-5.9a33.088,33.088,0,0,1-9.287-15.477l-13.973,7.738q5.128,13.452,15.565,20.452,1.316.882,2.694,1.652H168.41a39.84,39.84,0,0,0,11.427-10.68Q191.6,295.022,191.6,264.437T179.837,217.82q-11.764-16.029-31.75-16.03-19.812,0-31.662,16.03t-11.851,46.617q0,30.585,11.851,46.615a40.313,40.313,0,0,0,11.453,10.68H90.954v-118.1H78.573a36.732,36.732,0,0,1-7.075,7.185,88.71,88.71,0,0,1-9.994,6.911,90.674,90.674,0,0,1-10.26,5.342,29.776,29.776,0,0,1-8.048,2.488l3.715,13.451a63.322,63.322,0,0,0,16.273-6.541,63.753,63.753,0,0,0,13.974-10.595q-.178,3.869-.265,7.462t-.089,6.726v85.67H18.426V18.425H321.732ZM265.359,241.4a25.9,25.9,0,0,1-3.184,12.991,22.951,22.951,0,0,1-8.933,8.843,26.831,26.831,0,0,1-13.354,3.225q-11.675,0-18.573-6.357t-6.9-17.227q0-12.714,6.544-19.808t18.927-7.093a27.482,27.482,0,0,1,13.354,3.132,22.209,22.209,0,0,1,8.933,8.844A27.2,27.2,0,0,1,265.359,241.4Z"/>
      </g>
    </g>
</svg>
