<svg xmlns="http://www.w3.org/2000/svg" width="120mm" height="120mm" viewBox="0 0 340.158 340.158">
  <g id="Zimmernummer">
      <g id="Z-04-637-M">
        <path fill="#D4AF37" stroke="none" d="M337.323,0H2.835A2.836,2.836,0,0,0,0,2.835V337.323a2.836,2.836,0,0,0,2.835,2.835H337.323a2.836,2.836,0,0,0,2.835-2.835V2.835A2.836,2.836,0,0,0,337.323,0ZM62.566,300.274a25.085,25.085,0,0,1-3.36-12.806,25.9,25.9,0,0,1,3.184-12.99,22.971,22.971,0,0,1,8.932-8.844,26.858,26.858,0,0,1,13.355-3.224,28.84,28.84,0,0,1,13.8,3.04,20.779,20.779,0,0,1,8.667,8.66,27.945,27.945,0,0,1,3.006,13.358q0,11.98-6.721,18.7T84.677,312.9a24.988,24.988,0,0,1-22.111-12.621Zm259.166,21.458h-56.24a171.713,171.713,0,0,1,4.2-35.554,139.2,139.2,0,0,1,13.532-35.469,173.3,173.3,0,0,1,23.967-33.256v-13.82H221.226v13.82H291.81a164.526,164.526,0,0,0-21.235,30.033,156.161,156.161,0,0,0-14.769,37.679,165.454,165.454,0,0,0-4.812,36.567H196.917a34.752,34.752,0,0,0,12.9-12.338,35.789,35.789,0,0,0,5.041-18.977,29.088,29.088,0,0,0-1.68-9.858,26.218,26.218,0,0,0-4.865-8.384,24.013,24.013,0,0,0-7.694-5.9,25.056,25.056,0,0,0-10.348-2.395v-.369a23.843,23.843,0,0,0,8.314-3.04,25.759,25.759,0,0,0,6.987-6.172,29.622,29.622,0,0,0,4.865-9.121,37.216,37.216,0,0,0,1.768-11.884,32.167,32.167,0,0,0-3.979-15.845,29.142,29.142,0,0,0-11.941-11.516q-7.959-4.328-20.164-4.33a46.219,46.219,0,0,0-17.776,3.316,39.7,39.7,0,0,0-13.709,9.213,38.6,38.6,0,0,0-8.491,13.634L149.59,234.4a34.055,34.055,0,0,1,9.2-13.727q5.837-5.067,16.981-5.067,10.434,0,16.1,4.974t5.66,14.556q0,11.241-5.483,16.491t-18.4,5.251H170.9a26.63,26.63,0,0,1-3.095-.184v14.74a45.415,45.415,0,0,1,4.775-.46q2.3-.092,4.245-.093,8.313,0,13.443,2.119a14.474,14.474,0,0,1,7.518,6.541,23.068,23.068,0,0,1,2.388,11.055,23.617,23.617,0,0,1-2.83,11.7,20.466,20.466,0,0,1-8.137,8.015,26.615,26.615,0,0,1-13.089,2.948q-9.2,0-15.3-2.763a24.366,24.366,0,0,1-9.816-7.832,40,40,0,0,1-5.837-11.883l-14.15,7.554a37.873,37.873,0,0,0,16.184,21.1c1.306.836,2.647,1.6,4.018,2.3H107.13a33.848,33.848,0,0,0,12.923-13.167,42.466,42.466,0,0,0,4.953-20.913q0-12.16-4.864-21a33.644,33.644,0,0,0-13.709-13.635,42.817,42.817,0,0,0-20.7-4.791,39.5,39.5,0,0,0-13,2.3,33.068,33.068,0,0,0-11.851,7.185,25.31,25.31,0,0,0-7.163,12.806h-.708V267.2a95.608,95.608,0,0,1,2.034-20.268,55.99,55.99,0,0,1,6.1-16.4,32.967,32.967,0,0,1,9.906-10.964A23.37,23.37,0,0,1,84.5,215.61q10.434,0,16.361,4.883a27.407,27.407,0,0,1,8.579,13.358l13.089-6.449a46.928,46.928,0,0,0-8.667-14.648,31.446,31.446,0,0,0-12.116-8.292,45.767,45.767,0,0,0-16.362-2.671,39.818,39.818,0,0,0-23.26,7.186q-10.347,7.185-16.361,21.1t-6.014,34.363q0,18.24,5.129,32.336t15.212,22.2a35.524,35.524,0,0,0,3.945,2.757H18.425V18.425H321.732Z"/>
      </g>
    </g>
</svg>
