<svg xmlns="http://www.w3.org/2000/svg" width="120mm" height="120mm" viewBox="0 0 340.158 340.157">
  <g id="Zimmernummer">
      <g id="Z-04-303">
        <path fill="#000000" stroke="none" d="M337.323,0H2.835A2.836,2.836,0,0,0,0,2.835V337.323a2.834,2.834,0,0,0,2.835,2.834H337.323a2.834,2.834,0,0,0,2.835-2.834V2.835A2.836,2.836,0,0,0,337.323,0ZM142.607,291.521q-3.274-11.055-3.272-27.085t3.272-27.086q3.272-11.054,9.729-16.674a25.107,25.107,0,0,1,31.662,0q6.454,5.622,9.728,16.674T197,264.436q0,16.031-3.273,27.085T184,308.2a25.111,25.111,0,0,1-31.662,0Q145.877,302.577,142.607,291.521Zm179.125,30.211H280.761a34.743,34.743,0,0,0,12.9-12.339,35.79,35.79,0,0,0,5.042-18.977,29.088,29.088,0,0,0-1.681-9.858,26.252,26.252,0,0,0-4.864-8.384,24.028,24.028,0,0,0-7.7-5.9,25.052,25.052,0,0,0-10.347-2.4v-.369a23.845,23.845,0,0,0,8.313-3.04,25.759,25.759,0,0,0,6.987-6.172,29.6,29.6,0,0,0,4.864-9.121,37.16,37.16,0,0,0,1.769-11.884,32.146,32.146,0,0,0-3.98-15.845,29.136,29.136,0,0,0-11.939-11.516q-7.961-4.328-20.165-4.33a46.219,46.219,0,0,0-17.776,3.316,39.683,39.683,0,0,0-13.708,9.213,38.6,38.6,0,0,0-8.491,13.634l13.443,6.634a34.055,34.055,0,0,1,9.2-13.727q5.836-5.067,16.98-5.067,10.435,0,16.1,4.974t5.66,14.556q0,11.241-5.483,16.491t-18.4,5.251h-2.742a26.643,26.643,0,0,1-3.095-.184v14.74a45.408,45.408,0,0,1,4.776-.46q2.3-.09,4.245-.093,8.311,0,13.443,2.119a14.472,14.472,0,0,1,7.517,6.541,23.068,23.068,0,0,1,2.388,11.055,23.606,23.606,0,0,1-2.83,11.7,20.47,20.47,0,0,1-8.136,8.015,26.622,26.622,0,0,1-13.09,2.948q-9.2,0-15.3-2.763a24.362,24.362,0,0,1-9.817-7.832,40.028,40.028,0,0,1-5.837-11.883l-14.151,7.554a37.884,37.884,0,0,0,16.185,21.1c1.306.837,2.648,1.6,4.02,2.3H188.489a39.821,39.821,0,0,0,11.428-10.681q11.762-16.029,11.763-46.615T199.917,217.82q-11.766-16.03-31.75-16.03-19.812,0-31.662,16.03t-11.851,46.616q0,30.587,11.851,46.615a40.3,40.3,0,0,0,11.453,10.681H99.46a34.758,34.758,0,0,0,12.9-12.339,35.8,35.8,0,0,0,5.041-18.977,29.064,29.064,0,0,0-1.681-9.858,26.234,26.234,0,0,0-4.864-8.384,24.024,24.024,0,0,0-7.694-5.9,25.056,25.056,0,0,0-10.348-2.4v-.369a23.85,23.85,0,0,0,8.314-3.04,25.788,25.788,0,0,0,6.987-6.172,29.62,29.62,0,0,0,4.864-9.121A37.188,37.188,0,0,0,114.75,233.3a32.157,32.157,0,0,0-3.98-15.845,29.133,29.133,0,0,0-11.94-11.516q-7.959-4.328-20.164-4.33a46.224,46.224,0,0,0-17.777,3.316,39.692,39.692,0,0,0-13.708,9.213,38.579,38.579,0,0,0-8.49,13.634L52.133,234.4a34.076,34.076,0,0,1,9.2-13.727q5.838-5.067,16.981-5.067,10.434,0,16.1,4.974t5.66,14.556q0,11.241-5.483,16.491T76.19,256.881H73.448a26.66,26.66,0,0,1-3.1-.184v14.74a45.408,45.408,0,0,1,4.776-.46q2.3-.09,4.245-.093,8.313,0,13.443,2.119a14.478,14.478,0,0,1,7.518,6.541,23.068,23.068,0,0,1,2.388,11.055,23.617,23.617,0,0,1-2.83,11.7,20.466,20.466,0,0,1-8.137,8.015,26.621,26.621,0,0,1-13.089,2.948q-9.2,0-15.3-2.763a24.369,24.369,0,0,1-9.817-7.832,40.026,40.026,0,0,1-5.836-11.883l-14.151,7.554a37.875,37.875,0,0,0,16.185,21.1c1.306.837,2.648,1.6,4.019,2.3H18.425V18.425H321.732Z"/>
      </g>
    </g>
</svg>
