<svg xmlns="http://www.w3.org/2000/svg" width="120mm" height="120mm" viewBox="0 0 340.158 340.158">
  <g id="Zimmernummer">
      <g id="Z-04-334-E">
        <path fill="#A09f9d" stroke="none" d="M337.323,0H2.835A2.836,2.836,0,0,0,0,2.835V337.323a2.836,2.836,0,0,0,2.835,2.835H337.323a2.836,2.836,0,0,0,2.835-2.835V2.835A2.836,2.836,0,0,0,337.323,0ZM266.954,280.65H225.033l30.6-44.773q2.828-4.236,6.191-9.949t5.483-10.319h.354q-.178,4.794-.442,9.766t-.266,9.765Zm54.778,41.082H281.105V293.363H301.8V280.65H281.105V203.633H263.24L210,282.493v10.87h56.956v28.369H185.867a34.752,34.752,0,0,0,12.9-12.338,35.8,35.8,0,0,0,5.041-18.978,29.082,29.082,0,0,0-1.68-9.857,26.252,26.252,0,0,0-4.864-8.384,24.045,24.045,0,0,0-7.695-5.9,25.075,25.075,0,0,0-10.347-2.394v-.369a23.865,23.865,0,0,0,8.313-3.04,25.805,25.805,0,0,0,6.987-6.172,29.62,29.62,0,0,0,4.864-9.121,37.161,37.161,0,0,0,1.768-11.884,32.157,32.157,0,0,0-3.979-15.846,29.128,29.128,0,0,0-11.939-11.515q-7.96-4.328-20.166-4.331a46.219,46.219,0,0,0-17.776,3.317,39.687,39.687,0,0,0-13.708,9.213,38.589,38.589,0,0,0-8.49,13.634l13.442,6.633a34.089,34.089,0,0,1,9.2-13.726q5.838-5.067,16.981-5.068,10.436,0,16.1,4.975t5.66,14.556q0,11.241-5.484,16.491t-18.4,5.251h-2.742a26.679,26.679,0,0,1-3.1-.185v14.741a44.88,44.88,0,0,1,4.776-.46q2.3-.092,4.245-.093,8.311,0,13.444,2.119a14.47,14.47,0,0,1,7.516,6.541,23.053,23.053,0,0,1,2.389,11.055,23.609,23.609,0,0,1-2.83,11.7,20.464,20.464,0,0,1-8.137,8.014,26.619,26.619,0,0,1-13.09,2.949q-9.2,0-15.3-2.764a24.363,24.363,0,0,1-9.818-7.831,40.07,40.07,0,0,1-5.837-11.884l-14.15,7.555a37.875,37.875,0,0,0,16.185,21.1c1.306.836,2.648,1.6,4.019,2.3H99.549a34.752,34.752,0,0,0,12.9-12.338,35.787,35.787,0,0,0,5.042-18.978,29.082,29.082,0,0,0-1.68-9.857,26.236,26.236,0,0,0-4.865-8.384,24.041,24.041,0,0,0-7.694-5.9,25.072,25.072,0,0,0-10.348-2.394v-.369a23.87,23.87,0,0,0,8.314-3.04,25.772,25.772,0,0,0,6.986-6.172,29.58,29.58,0,0,0,4.865-9.121,37.188,37.188,0,0,0,1.769-11.884,32.158,32.158,0,0,0-3.98-15.846,29.131,29.131,0,0,0-11.94-11.515q-7.961-4.328-20.164-4.331a46.228,46.228,0,0,0-17.777,3.317,39.678,39.678,0,0,0-13.708,9.213,38.578,38.578,0,0,0-8.491,13.634L52.223,234.4a34.067,34.067,0,0,1,9.2-13.726q5.838-5.067,16.982-5.068,10.434,0,16.1,4.975t5.66,14.556q0,11.241-5.483,16.491t-18.4,5.251H73.537a26.636,26.636,0,0,1-3.1-.185v14.741a44.862,44.862,0,0,1,4.775-.46q2.3-.092,4.245-.093,8.313,0,13.443,2.119a14.474,14.474,0,0,1,7.518,6.541,23.065,23.065,0,0,1,2.388,11.055,23.619,23.619,0,0,1-2.83,11.7,20.458,20.458,0,0,1-8.137,8.014,26.615,26.615,0,0,1-13.089,2.949q-9.2,0-15.3-2.764a24.357,24.357,0,0,1-9.816-7.831A40.022,40.022,0,0,1,47.8,290.784L33.65,298.339a37.875,37.875,0,0,0,16.185,21.1c1.306.836,2.648,1.6,4.019,2.3H18.425V18.425H321.732Z"/>
      </g>
    </g>
</svg>
