<svg xmlns="http://www.w3.org/2000/svg" width="120mm" height="120mm" viewBox="0 0 340.158 340.157">
  <g id="Zimmernummer">
      <g id="Z-04-201">
        <path fill="#000000" stroke="none" d="M337.323,0H2.835A2.834,2.834,0,0,0,0,2.835V337.323a2.834,2.834,0,0,0,2.835,2.834H337.323a2.834,2.834,0,0,0,2.835-2.834V2.835A2.834,2.834,0,0,0,337.323,0ZM146.136,291.521q-3.276-11.055-3.272-27.084t3.272-27.086q3.272-11.055,9.729-16.674a25.106,25.106,0,0,1,31.661,0q6.454,5.622,9.729,16.674t3.272,27.086q0,16.029-3.272,27.084T187.526,308.2a25.109,25.109,0,0,1-31.661,0Q149.4,302.577,146.136,291.521Zm175.6,30.211H268.8v-118.1H256.421a36.712,36.712,0,0,1-7.076,7.185,88.619,88.619,0,0,1-9.994,6.911,90.656,90.656,0,0,1-10.258,5.342,29.8,29.8,0,0,1-8.049,2.488l3.715,13.451a65.993,65.993,0,0,0,30.247-17.136q-.18,3.869-.266,7.462t-.088,6.726v85.67H192.019a39.853,39.853,0,0,0,11.427-10.68q11.76-16.031,11.762-46.615T203.446,217.82Q191.68,201.791,171.7,201.79q-19.812,0-31.662,16.03t-11.851,46.617q0,30.585,11.851,46.615a40.323,40.323,0,0,0,11.452,10.68H121.108V311.42H80.249q-1.77,0-5.218.093t-6.9.183q-3.449.1-5.4.277v-.184q20.87-14.553,33.077-26.532t17.511-22.94a50.849,50.849,0,0,0,5.307-22.386,42.144,42.144,0,0,0-2.742-15.478,34.392,34.392,0,0,0-7.871-12.068,35.373,35.373,0,0,0-12.293-7.83,44.679,44.679,0,0,0-16.185-2.765q-11.853,0-20.43,4.606a35.534,35.534,0,0,0-13.62,12.714A48.821,48.821,0,0,0,38.858,237.9l12.382,7.739q1.236-13.633,8.49-21.834t19.28-8.2q11.5,0,18.131,6.726t6.633,17.6a41.281,41.281,0,0,1-3.007,15.569,58.837,58.837,0,0,1-10.082,15.754,176.031,176.031,0,0,1-18.838,18.425q-11.766,10.135-29.274,23.584v8.469H18.425V18.425H321.732Z"/>
      </g>
    </g>
</svg>
