<svg xmlns="http://www.w3.org/2000/svg" width="120mm" height="120mm" viewBox="0 0 340.158 340.157">
  <g id="Zimmernummer">
      <g id="Z-04-401">
        <path fill="#000000" stroke="none" d="M337.323,0H2.835A2.834,2.834,0,0,0,0,2.835V337.323a2.834,2.834,0,0,0,2.835,2.834H337.323a2.834,2.834,0,0,0,2.835-2.834V2.835A2.834,2.834,0,0,0,337.323,0ZM88.2,280.65H46.282l30.6-44.773q2.829-4.236,6.192-9.949t5.483-10.319h.354q-.178,4.794-.443,9.766T88.2,235.14Zm60.4,10.871q-3.276-11.055-3.273-27.084t3.273-27.086q3.272-11.055,9.728-16.674a25.109,25.109,0,0,1,31.663,0q6.453,5.622,9.728,16.674T203,264.437q0,16.029-3.273,27.084T190,308.2a25.112,25.112,0,0,1-31.663,0Q151.878,302.577,148.607,291.521Zm173.125,30.211H274.811v-118.1H262.429a36.675,36.675,0,0,1-7.075,7.185,88.606,88.606,0,0,1-9.993,6.911,90.674,90.674,0,0,1-10.26,5.342,29.787,29.787,0,0,1-8.048,2.488l3.714,13.451a65.98,65.98,0,0,0,30.247-17.136q-.177,3.869-.264,7.462t-.089,6.726v85.67H194.49a39.853,39.853,0,0,0,11.427-10.68q11.76-16.031,11.762-46.615T205.917,217.82q-11.766-16.029-31.75-16.03-19.814,0-31.663,16.03t-11.85,46.617q0,30.585,11.85,46.615a40.313,40.313,0,0,0,11.453,10.68h-51.6V293.363h20.7V280.65h-20.7V203.633H84.489l-53.241,78.86v10.87H88.2v28.369H18.425V18.425H321.732Z"/>
      </g>
    </g>
</svg>
