<svg xmlns="http://www.w3.org/2000/svg" width="120mm" height="120mm" viewBox="0 0 340.158 340.157">
  <g id="Zimmernummer">
      <g id="Z-04-625">
        <path fill="#000000" stroke="none" d="M337.323,0H2.835A2.836,2.836,0,0,0,0,2.835V337.323a2.834,2.834,0,0,0,2.835,2.834H337.323a2.834,2.834,0,0,0,2.835-2.834V2.835A2.836,2.836,0,0,0,337.323,0ZM58.057,300.273A25.063,25.063,0,0,1,54.7,287.468a25.913,25.913,0,0,1,3.184-12.99,22.973,22.973,0,0,1,8.933-8.844,26.852,26.852,0,0,1,13.354-3.225,28.846,28.846,0,0,1,13.8,3.04,20.781,20.781,0,0,1,8.668,8.66,27.95,27.95,0,0,1,3.007,13.359q0,11.979-6.722,18.7T80.166,312.9a24.988,24.988,0,0,1-22.109-12.622Zm263.675,21.459H282.576a35.218,35.218,0,0,0,15.86-18.235,45.54,45.54,0,0,0,3.006-16.951,44.145,44.145,0,0,0-4.6-20.636,33.631,33.631,0,0,0-12.823-13.726,37.255,37.255,0,0,0-19.37-4.883,41.062,41.062,0,0,0-15.831,2.763,30.472,30.472,0,0,0-10.878,7.371h-.353l.353-1.659,4.6-38.324h53.6V203.633H230.513l-6.9,66.884L236,272.912a24.094,24.094,0,0,1,6.721-6.817,27.712,27.712,0,0,1,8.756-3.778,44,44,0,0,1,10.524-1.2,28.111,28.111,0,0,1,13.443,2.948,19.729,19.729,0,0,1,8.4,8.752q2.917,5.8,2.918,14.464a28.521,28.521,0,0,1-3.184,13.911,22.039,22.039,0,0,1-8.932,8.937,28.635,28.635,0,0,1-13.886,3.132q-11.5,0-17.423-5.989a36.2,36.2,0,0,1-8.755-15.569l-13.8,7.555q5.129,13.085,14.593,20.452a30.185,30.185,0,0,0,2.951,2.02h-27.8V311.42h-40.86q-1.77,0-5.218.093t-6.9.183q-3.45.1-5.4.277v-.184q20.87-14.553,33.077-26.532t17.511-22.94a50.849,50.849,0,0,0,5.307-22.386,42.144,42.144,0,0,0-2.742-15.478,34.406,34.406,0,0,0-7.871-12.068,35.373,35.373,0,0,0-12.293-7.83,44.683,44.683,0,0,0-16.185-2.765q-11.852,0-20.43,4.606a35.534,35.534,0,0,0-13.62,12.714,48.788,48.788,0,0,0-6.633,18.794l12.382,7.739q1.234-13.633,8.49-21.834t19.28-8.2q11.5,0,18.131,6.726t6.632,17.6a41.3,41.3,0,0,1-3.006,15.569A58.861,58.861,0,0,1,180.1,271.254a176.125,176.125,0,0,1-18.838,18.425Q149.5,299.814,131.99,313.263v8.469H102.619a33.846,33.846,0,0,0,12.924-13.168,42.463,42.463,0,0,0,4.953-20.913q0-12.159-4.865-21a33.633,33.633,0,0,0-13.708-13.634,42.806,42.806,0,0,0-20.7-4.791,39.5,39.5,0,0,0-13,2.3,33.079,33.079,0,0,0-11.851,7.186,25.314,25.314,0,0,0-7.164,12.806h-.707V267.2a95.657,95.657,0,0,1,2.034-20.267,55.941,55.941,0,0,1,6.1-16.4,32.975,32.975,0,0,1,9.9-10.964,23.376,23.376,0,0,1,13.442-3.961q10.435,0,16.363,4.883a27.411,27.411,0,0,1,8.578,13.359l13.09-6.45a46.954,46.954,0,0,0-8.668-14.647,31.416,31.416,0,0,0-12.117-8.292,45.757,45.757,0,0,0-16.361-2.672,39.824,39.824,0,0,0-23.26,7.187q-10.347,7.185-16.361,21.1t-6.015,34.364q0,18.24,5.13,32.335t15.212,22.2a35.536,35.536,0,0,0,3.946,2.757h-41.1V18.425H321.732Z"/>
      </g>
    </g>
</svg>
