<svg xmlns="http://www.w3.org/2000/svg" width="120mm" height="120mm" viewBox="0 0 340.158 340.157">
  <g id="Zimmernummer">
      <g id="Z-04-301">
        <path fill="#000000" stroke="none" d="M337.323,0H2.835A2.834,2.834,0,0,0,0,2.835V337.323a2.834,2.834,0,0,0,2.835,2.834H337.323a2.834,2.834,0,0,0,2.835-2.834V2.835A2.834,2.834,0,0,0,337.323,0ZM146.137,291.521q-3.276-11.055-3.273-27.084t3.273-27.086q3.272-11.055,9.728-16.674a25.107,25.107,0,0,1,31.662,0q6.455,5.622,9.728,16.674t3.273,27.086q0,16.029-3.273,27.084T187.527,308.2a25.111,25.111,0,0,1-31.662,0Q149.406,302.577,146.137,291.521Zm175.6,30.211H268.8v-118.1H256.422a36.712,36.712,0,0,1-7.076,7.185,88.71,88.71,0,0,1-9.994,6.911,90.58,90.58,0,0,1-10.259,5.342,29.787,29.787,0,0,1-8.048,2.488l3.714,13.451a65.98,65.98,0,0,0,30.247-17.136q-.179,3.869-.265,7.462t-.089,6.726v85.67H192.02a39.837,39.837,0,0,0,11.426-10.68q11.762-16.031,11.763-46.615T203.446,217.82q-11.764-16.029-31.75-16.03-19.812,0-31.662,16.03t-11.851,46.617q0,30.585,11.851,46.615a40.323,40.323,0,0,0,11.452,10.68h-48.5a34.752,34.752,0,0,0,12.9-12.338,35.8,35.8,0,0,0,5.041-18.978,29.082,29.082,0,0,0-1.68-9.857,26.252,26.252,0,0,0-4.864-8.384,24.045,24.045,0,0,0-7.7-5.9,25.071,25.071,0,0,0-10.347-2.394v-.369a23.865,23.865,0,0,0,8.313-3.04,25.776,25.776,0,0,0,6.987-6.172,29.6,29.6,0,0,0,4.864-9.121,37.16,37.16,0,0,0,1.769-11.884,32.158,32.158,0,0,0-3.98-15.846,29.128,29.128,0,0,0-11.939-11.515Q94.4,201.609,82.2,201.606a46.219,46.219,0,0,0-17.776,3.317,39.682,39.682,0,0,0-13.709,9.213,38.589,38.589,0,0,0-8.49,13.634L55.663,234.4a34.059,34.059,0,0,1,9.2-13.726q5.836-5.067,16.98-5.068,10.436,0,16.1,4.975t5.66,14.556q0,11.241-5.484,16.491t-18.4,5.251H76.977a26.679,26.679,0,0,1-3.1-.185v14.741a44.93,44.93,0,0,1,4.776-.46q2.3-.092,4.246-.093,8.311,0,13.443,2.119a14.476,14.476,0,0,1,7.517,6.541,23.065,23.065,0,0,1,2.388,11.055,23.609,23.609,0,0,1-2.83,11.7,20.458,20.458,0,0,1-8.137,8.014A26.615,26.615,0,0,1,82.2,313.263q-9.2,0-15.3-2.764a24.36,24.36,0,0,1-9.817-7.831,40.046,40.046,0,0,1-5.837-11.884L37.09,298.339a37.879,37.879,0,0,0,16.185,21.1c1.306.836,2.647,1.6,4.018,2.3H18.425V18.425H321.732Z"/>
      </g>
    </g>
</svg>
