<svg xmlns="http://www.w3.org/2000/svg" width="120mm" height="120mm" viewBox="0 0 340.158 340.158">
  <g id="Zimmernummer">
      <g id="Z-04-537-R">
        <path fill="#A0552B" stroke="none" d="M337.323,0H2.835A2.836,2.836,0,0,0,0,2.835V337.323a2.836,2.836,0,0,0,2.835,2.835H337.323a2.836,2.836,0,0,0,2.835-2.835V2.835A2.836,2.836,0,0,0,337.323,0ZM321.732,321.732H259.654a171.645,171.645,0,0,1,4.2-35.554,139.2,139.2,0,0,1,13.532-35.469,173.214,173.214,0,0,1,23.967-33.256v-13.82H215.388v13.82h70.584a164.477,164.477,0,0,0-21.235,30.033,156.12,156.12,0,0,0-14.769,37.679,165.454,165.454,0,0,0-4.812,36.567h-47a34.767,34.767,0,0,0,12.9-12.338,35.8,35.8,0,0,0,5.041-18.977,29.088,29.088,0,0,0-1.681-9.858,26.252,26.252,0,0,0-4.864-8.384,24.028,24.028,0,0,0-7.695-5.9,25.052,25.052,0,0,0-10.347-2.395v-.369a23.845,23.845,0,0,0,8.313-3.04,25.774,25.774,0,0,0,6.987-6.172,29.6,29.6,0,0,0,4.864-9.121,37.16,37.16,0,0,0,1.769-11.884,32.157,32.157,0,0,0-3.98-15.845,29.133,29.133,0,0,0-11.94-11.516q-7.959-4.328-20.164-4.33a46.215,46.215,0,0,0-17.776,3.316,39.687,39.687,0,0,0-13.709,9.213,38.607,38.607,0,0,0-8.49,13.634l13.443,6.634a34.074,34.074,0,0,1,9.2-13.727q5.838-5.067,16.982-5.067,10.434,0,16.1,4.974t5.66,14.556q0,11.241-5.484,16.491t-18.395,5.251h-2.741a26.647,26.647,0,0,1-3.1-.184v14.74a45.39,45.39,0,0,1,4.775-.46q2.3-.092,4.245-.093,8.313,0,13.444,2.119a14.468,14.468,0,0,1,7.517,6.541,23.068,23.068,0,0,1,2.388,11.055,23.606,23.606,0,0,1-2.83,11.7,20.466,20.466,0,0,1-8.137,8.015,26.615,26.615,0,0,1-13.089,2.948q-9.2,0-15.3-2.763a24.362,24.362,0,0,1-9.817-7.832,40.028,40.028,0,0,1-5.837-11.883l-14.151,7.554a37.878,37.878,0,0,0,16.184,21.1c1.306.836,2.648,1.6,4.019,2.3H107.023A35.2,35.2,0,0,0,122.882,303.5a45.508,45.508,0,0,0,3.007-16.952,44.138,44.138,0,0,0-4.6-20.635,33.629,33.629,0,0,0-12.824-13.727A37.25,37.25,0,0,0,89.1,247.3a41.032,41.032,0,0,0-15.831,2.764,30.483,30.483,0,0,0-10.878,7.37h-.354l.354-1.658,4.6-38.324h53.6v-13.82H54.96l-6.9,66.884,12.38,2.4a24.114,24.114,0,0,1,6.722-6.818,27.7,27.7,0,0,1,8.756-3.777,43.951,43.951,0,0,1,10.524-1.2,28.118,28.118,0,0,1,13.444,2.948,19.719,19.719,0,0,1,8.4,8.752q2.919,5.8,2.919,14.464a28.521,28.521,0,0,1-3.184,13.911,22.037,22.037,0,0,1-8.932,8.936,28.637,28.637,0,0,1-13.886,3.132q-11.5,0-17.423-5.988a36.221,36.221,0,0,1-8.756-15.569l-13.8,7.554q5.127,13.086,14.592,20.452a30.414,30.414,0,0,0,2.95,2.02H18.425V18.425H321.732Z"/>
      </g>
    </g>
</svg>
