<svg xmlns="http://www.w3.org/2000/svg" width="120mm" height="120mm" viewBox="0 0 340.158 340.158">
  <g id="Zimmernummer">
      <g id="Z-04-011">
        <path fill="#000000" stroke="none" d="M339.328.831a2.835,2.835,0,0,0-2-.831H2.835A2.836,2.836,0,0,0,0,2.835V337.323a2.836,2.836,0,0,0,2.835,2.835H337.323a2.836,2.836,0,0,0,2.835-2.835V2.835A2.835,2.835,0,0,0,339.328.831Zm-17.6,320.9h-27.9V203.516h-12.9a37.48,37.48,0,0,1-7.37,7.185,92.554,92.554,0,0,1-10.41,6.91,95.957,95.957,0,0,1-10.687,5.343,32,32,0,0,1-8.384,2.488l3.87,13.45a67.455,67.455,0,0,0,16.951-6.541,66.161,66.161,0,0,0,14.556-10.594q-.186,3.869-.276,7.462t-.093,6.725v85.788H229.347V203.516h-12.9a37.508,37.508,0,0,1-7.37,7.185,92.478,92.478,0,0,1-10.411,6.91,95.861,95.861,0,0,1-10.686,5.343,32,32,0,0,1-8.384,2.488l3.87,13.45a67.455,67.455,0,0,0,16.951-6.541,66.208,66.208,0,0,0,14.556-10.594q-.186,3.869-.277,7.462t-.092,6.725v85.788H18.425V18.425H321.732Z"/>
      </g>
    </g>
</svg>
