<svg xmlns="http://www.w3.org/2000/svg" width="120mm" height="120mm" viewBox="0 0 340.158 340.157">
  <g id="Zimmernummer">
      <g id="Z-04-500-R">
        <path fill="#A0552B" stroke="none" d="M337.323,0H2.835A2.836,2.836,0,0,0,0,2.835V337.323a2.834,2.834,0,0,0,2.835,2.834H337.323a2.834,2.834,0,0,0,2.835-2.834V2.835A2.836,2.836,0,0,0,337.323,0ZM139.063,291.521q-3.274-11.055-3.272-27.084t3.272-27.086q3.272-11.055,9.729-16.674a25.107,25.107,0,0,1,31.662,0q6.454,5.622,9.728,16.674t3.273,27.086q0,16.029-3.273,27.084T180.454,308.2a25.111,25.111,0,0,1-31.662,0Q142.333,302.577,139.063,291.521Zm101.176,0q-3.276-11.055-3.273-27.084t3.273-27.086q3.27-11.055,9.728-16.674a25.107,25.107,0,0,1,31.662,0q6.454,5.622,9.729,16.674t3.272,27.086q0,16.029-3.272,27.084T281.629,308.2a25.111,25.111,0,0,1-31.662,0Q243.51,302.577,240.239,291.521Zm81.493,30.211H286.121a39.84,39.84,0,0,0,11.427-10.68q11.762-16.031,11.763-46.615T297.548,217.82q-11.764-16.029-31.75-16.03-19.812,0-31.662,16.03t-11.85,46.617q0,30.585,11.85,46.615a40.313,40.313,0,0,0,11.453,10.68H184.946a39.84,39.84,0,0,0,11.427-10.68q11.762-16.031,11.762-46.615T196.373,217.82q-11.764-16.029-31.75-16.03-19.812,0-31.663,16.03t-11.85,46.617q0,30.585,11.85,46.615a40.326,40.326,0,0,0,11.453,10.68H88.45A35.205,35.205,0,0,0,104.308,303.5a45.5,45.5,0,0,0,3.008-16.951,44.133,44.133,0,0,0-4.6-20.636,33.624,33.624,0,0,0-12.823-13.726A37.248,37.248,0,0,0,70.524,247.3a41.058,41.058,0,0,0-15.831,2.763,30.472,30.472,0,0,0-10.878,7.371h-.354l.354-1.659,4.6-38.324h53.6V203.633H36.386l-6.9,66.884,12.382,2.395a24.081,24.081,0,0,1,6.721-6.817,27.7,27.7,0,0,1,8.755-3.778,44,44,0,0,1,10.525-1.2,28.114,28.114,0,0,1,13.443,2.948,19.727,19.727,0,0,1,8.4,8.752q2.919,5.8,2.918,14.464a28.521,28.521,0,0,1-3.183,13.911,22.036,22.036,0,0,1-8.933,8.937,28.635,28.635,0,0,1-13.886,3.132q-11.5,0-17.423-5.989a36.192,36.192,0,0,1-8.754-15.569l-13.8,7.555q5.129,13.085,14.592,20.452a30.306,30.306,0,0,0,2.951,2.02H18.425V18.425H321.732Z"/>
      </g>
    </g>
</svg>
