<svg xmlns="http://www.w3.org/2000/svg" width="120mm" height="120mm" viewBox="0 0 340.158 340.158">
  <g id="Zimmernummer">
      <g id="Z-04-214">
        <path fill="#000000" stroke="none" d="M337.323,0H2.835A2.836,2.836,0,0,0,0,2.835V337.323a2.836,2.836,0,0,0,2.835,2.835H337.323a2.836,2.836,0,0,0,2.835-2.835V2.835A2.836,2.836,0,0,0,337.323,0ZM255.191,280.65h-41.92l30.6-44.773q2.827-4.236,6.191-9.949t5.483-10.319h.354q-.178,4.794-.442,9.766t-.266,9.765Zm66.541,41.082h-52.39V293.363h20.695V280.65H269.342V203.633H251.477l-53.242,78.86v10.87h56.956v28.369H182.139v-118.1H169.757a36.675,36.675,0,0,1-7.075,7.185,88.71,88.71,0,0,1-9.994,6.911,90.58,90.58,0,0,1-10.259,5.342,29.776,29.776,0,0,1-8.048,2.488L138.1,239.01a65.983,65.983,0,0,0,30.246-17.136q-.177,3.869-.265,7.462t-.088,6.726v85.67H129.43V311.42H88.57q-1.77,0-5.218.093t-6.9.183q-3.45.1-5.395.277v-.184q20.869-14.553,33.077-26.532t17.511-22.94a50.848,50.848,0,0,0,5.306-22.386,42.144,42.144,0,0,0-2.741-15.478,34.408,34.408,0,0,0-7.872-12.068,35.364,35.364,0,0,0-12.293-7.83,44.679,44.679,0,0,0-16.185-2.765q-11.851,0-20.429,4.606A35.53,35.53,0,0,0,53.812,219.11,48.8,48.8,0,0,0,47.18,237.9l12.382,7.739q1.234-13.633,8.49-21.834t19.28-8.2q11.5,0,18.13,6.726t6.633,17.6a41.281,41.281,0,0,1-3.007,15.569,58.812,58.812,0,0,1-10.082,15.754,176.031,176.031,0,0,1-18.838,18.425Q68.4,299.814,50.894,313.263v8.469H18.425V18.425H321.732Z"/>
      </g>
    </g>
</svg>
