<svg xmlns="http://www.w3.org/2000/svg" width="120mm" height="120mm" viewBox="0 0 340.158 340.157">
  <g id="Zimmernummer">
      <g id="Z-04-213">
        <path fill="#000000" stroke="none" d="M337.323,0H2.835A2.836,2.836,0,0,0,0,2.835V337.323a2.834,2.834,0,0,0,2.835,2.834H337.323a2.834,2.834,0,0,0,2.835-2.834V2.835A2.836,2.836,0,0,0,337.323,0ZM321.732,321.732H267.318a34.743,34.743,0,0,0,12.9-12.339,35.789,35.789,0,0,0,5.041-18.977,29.088,29.088,0,0,0-1.68-9.858,26.252,26.252,0,0,0-4.864-8.384,24.028,24.028,0,0,0-7.695-5.9,25.055,25.055,0,0,0-10.347-2.4v-.369a23.845,23.845,0,0,0,8.313-3.04,25.759,25.759,0,0,0,6.987-6.172,29.6,29.6,0,0,0,4.864-9.121,37.16,37.16,0,0,0,1.769-11.884,32.157,32.157,0,0,0-3.98-15.845,29.133,29.133,0,0,0-11.94-11.516q-7.959-4.328-20.164-4.33a46.219,46.219,0,0,0-17.776,3.316,39.7,39.7,0,0,0-13.709,9.213,38.607,38.607,0,0,0-8.49,13.634l13.443,6.634a34.055,34.055,0,0,1,9.2-13.727q5.837-5.067,16.98-5.067,10.436,0,16.1,4.974t5.66,14.556q0,11.241-5.484,16.491t-18.395,5.251h-2.742a26.643,26.643,0,0,1-3.095-.184v14.74a45.415,45.415,0,0,1,4.775-.46q2.3-.09,4.245-.093,8.313,0,13.444,2.119a14.476,14.476,0,0,1,7.517,6.541A23.068,23.068,0,0,1,270.58,290.6a23.606,23.606,0,0,1-2.83,11.7,20.466,20.466,0,0,1-8.137,8.015,26.615,26.615,0,0,1-13.089,2.948q-9.2,0-15.3-2.763a24.362,24.362,0,0,1-9.817-7.832,40.028,40.028,0,0,1-5.837-11.883l-14.151,7.554a37.884,37.884,0,0,0,16.185,21.1c1.306.837,2.648,1.6,4.019,2.3H184.616v-118.1H172.234a36.706,36.706,0,0,1-7.075,7.186,88.664,88.664,0,0,1-9.994,6.91,90.766,90.766,0,0,1-10.259,5.343,29.748,29.748,0,0,1-8.049,2.487l3.715,13.451a66,66,0,0,0,30.247-17.135q-.179,3.869-.265,7.461t-.089,6.726v85.671H131.021V311.419H90.162q-1.77,0-5.218.093t-6.9.184q-3.449.094-5.394.276v-.183q20.868-14.554,33.077-26.533t17.511-22.939a50.869,50.869,0,0,0,5.306-22.387,42.163,42.163,0,0,0-2.741-15.477,34.424,34.424,0,0,0-7.871-12.069,35.392,35.392,0,0,0-12.294-7.83,44.678,44.678,0,0,0-16.184-2.764q-11.853,0-20.431,4.606A35.531,35.531,0,0,0,55.405,219.11,48.8,48.8,0,0,0,48.771,237.9l12.382,7.738q1.236-13.633,8.491-21.834t19.28-8.2q11.5,0,18.13,6.725t6.634,17.6a41.287,41.287,0,0,1-3.008,15.57A58.824,58.824,0,0,1,100.6,271.253,175.935,175.935,0,0,1,81.76,289.678Q70,299.814,52.486,313.262v8.47H18.425V18.425H321.732Z"/>
      </g>
    </g>
</svg>
