<svg xmlns="http://www.w3.org/2000/svg" width="120mm" height="120mm" viewBox="0 0 340.158 340.158">
  <g id="Zimmernummer">
      <g id="Z-04-644">
        <path fill="#000000" stroke="none" d="M337.323,0H2.835A2.836,2.836,0,0,0,0,2.835V337.323a2.836,2.836,0,0,0,2.835,2.835H337.323a2.836,2.836,0,0,0,2.835-2.835V2.835A2.836,2.836,0,0,0,337.323,0ZM59.205,300.273a25.081,25.081,0,0,1-3.36-12.805,25.912,25.912,0,0,1,3.183-12.99,22.973,22.973,0,0,1,8.933-8.844,26.852,26.852,0,0,1,13.354-3.225,28.846,28.846,0,0,1,13.8,3.04,20.773,20.773,0,0,1,8.667,8.66,27.95,27.95,0,0,1,3.008,13.359q0,11.979-6.722,18.7T81.315,312.9a24.988,24.988,0,0,1-22.11-12.622ZM183.9,280.65H141.983l30.6-44.773q2.827-4.236,6.191-9.949t5.484-10.319h.353q-.179,4.794-.442,9.766t-.266,9.765Zm34.846,12.713H268.1v28.369H198.056V293.363H218.75Zm49.614-67.988q-.264,4.974-.264,9.765v45.51H226.178l30.6-44.773q2.829-4.236,6.192-9.949t5.483-10.319h.354Q268.629,220.4,268.364,225.375Zm53.368,96.357H282.25V293.363h20.695V280.65H282.25V203.633H264.385l-52,77.017H198.056V203.633H180.19l-53.241,78.86v10.87H183.9v28.369H103.768a33.839,33.839,0,0,0,12.924-13.168,42.463,42.463,0,0,0,4.953-20.913q0-12.159-4.865-21a33.633,33.633,0,0,0-13.708-13.634,42.809,42.809,0,0,0-20.7-4.791,39.5,39.5,0,0,0-13,2.3,33.079,33.079,0,0,0-11.851,7.186,25.307,25.307,0,0,0-7.164,12.806h-.707V267.2a95.657,95.657,0,0,1,2.034-20.267,55.968,55.968,0,0,1,6.1-16.4,33.006,33.006,0,0,1,9.9-10.964,23.383,23.383,0,0,1,13.444-3.961q10.436,0,16.361,4.883a27.4,27.4,0,0,1,8.579,13.359l13.089-6.45a46.915,46.915,0,0,0-8.667-14.647,31.42,31.42,0,0,0-12.116-8.292,45.766,45.766,0,0,0-16.362-2.672,39.818,39.818,0,0,0-23.259,7.187q-10.349,7.185-16.363,21.1t-6.013,34.364q0,18.24,5.13,32.335t15.211,22.2a35.629,35.629,0,0,0,3.946,2.757H18.425V18.425H321.732Z"/>
      </g>
    </g>
</svg>
