<svg xmlns="http://www.w3.org/2000/svg" width="120mm" height="120mm" viewBox="0 0 340.158 340.158">
  <g id="Zimmernummer">
      <g id="Z-04-317">
        <path fill="#000000" stroke="none" d="M337.323,0H2.835A2.836,2.836,0,0,0,0,2.835V337.323a2.836,2.836,0,0,0,2.835,2.835H337.323a2.836,2.836,0,0,0,2.835-2.835V2.835A2.836,2.836,0,0,0,337.323,0ZM321.732,321.732h-68.44a171.712,171.712,0,0,1,4.2-35.554,139.2,139.2,0,0,1,13.531-35.469,173.264,173.264,0,0,1,23.968-33.256v-13.82H209.026v13.82H279.61a164.52,164.52,0,0,0-21.234,30.033,156.078,156.078,0,0,0-14.769,37.679,165.454,165.454,0,0,0-4.812,36.567H192.753v-118.1H180.371a36.678,36.678,0,0,1-7.075,7.186,88.651,88.651,0,0,1-9.993,6.91,90.69,90.69,0,0,1-10.26,5.343A29.743,29.743,0,0,1,145,225.559l3.715,13.451a65.993,65.993,0,0,0,30.246-17.135q-.177,3.869-.265,7.461t-.088,6.726v85.67H113.966a34.757,34.757,0,0,0,12.9-12.338,35.789,35.789,0,0,0,5.041-18.977,29.088,29.088,0,0,0-1.68-9.858,26.252,26.252,0,0,0-4.864-8.384,24.028,24.028,0,0,0-7.695-5.9,25.055,25.055,0,0,0-10.347-2.395v-.369a23.845,23.845,0,0,0,8.313-3.04,25.788,25.788,0,0,0,6.987-6.172,29.62,29.62,0,0,0,4.864-9.121,37.188,37.188,0,0,0,1.769-11.884,32.157,32.157,0,0,0-3.98-15.845,29.136,29.136,0,0,0-11.939-11.516q-7.96-4.328-20.165-4.33a46.224,46.224,0,0,0-17.777,3.316,39.7,39.7,0,0,0-13.708,9.213A38.579,38.579,0,0,0,53.2,227.77L66.638,234.4a34.055,34.055,0,0,1,9.2-13.727q5.837-5.067,16.98-5.067,10.435,0,16.1,4.974t5.661,14.556q0,11.241-5.484,16.491t-18.395,5.251H87.952a26.673,26.673,0,0,1-3.1-.184v14.74a45.433,45.433,0,0,1,4.776-.46q2.3-.092,4.246-.093,8.311,0,13.443,2.119a14.476,14.476,0,0,1,7.517,6.541,23.068,23.068,0,0,1,2.388,11.055,23.606,23.606,0,0,1-2.83,11.7,20.466,20.466,0,0,1-8.137,8.015,26.618,26.618,0,0,1-13.089,2.948q-9.2,0-15.3-2.763a24.362,24.362,0,0,1-9.817-7.832,40,40,0,0,1-5.837-11.883l-14.151,7.554a37.875,37.875,0,0,0,16.185,21.1c1.305.836,2.647,1.6,4.018,2.3H18.425V18.425H321.732Z"/>
      </g>
    </g>
</svg>
