<svg xmlns="http://www.w3.org/2000/svg" width="120mm" height="120mm" viewBox="0 0 340.158 340.158">
  <g id="Zimmernummer">
      <g id="Z-04-019">
        <path fill="#000000" stroke="none" d="M339.327.831a2.833,2.833,0,0,0-2-.831H2.835A2.836,2.836,0,0,0,0,2.835V337.323a2.836,2.836,0,0,0,2.835,2.835H337.323a2.837,2.837,0,0,0,2.835-2.835V2.835A2.831,2.831,0,0,0,339.327.831Zm-17.595,320.9H276.356a37.058,37.058,0,0,0,3.2-1.953q10.407-7.187,15.754-21.1t5.343-34.363q0-18.423-5.343-32.521t-15.846-22.11q-10.5-8.014-25.8-8.015-13.084,0-22.479,5.067a34.788,34.788,0,0,0-14.371,14.187q-4.976,9.122-4.976,21.65,0,11.608,5.16,20.083a35.066,35.066,0,0,0,14.371,13.175,46,46,0,0,0,21.189,4.7,44.848,44.848,0,0,0,13.727-2.211,33.194,33.194,0,0,0,12.437-7.278,27.088,27.088,0,0,0,7.739-13.358h.737v1.658a142.976,142.976,0,0,1-1.567,22.11,55.653,55.653,0,0,1-5.251,17.043,26.492,26.492,0,0,1-10.042,10.871q-6.356,3.779-15.937,3.778-11.793,0-18.518-5.9a32.869,32.869,0,0,1-9.672-15.477l-14.557,7.739q5.341,13.452,16.215,20.452c.987.636,2.006,1.22,3.045,1.769H198.579V203.516h-12.9a37.48,37.48,0,0,1-7.37,7.185,92.554,92.554,0,0,1-10.41,6.91,95.957,95.957,0,0,1-10.687,5.343,32,32,0,0,1-8.384,2.488l3.87,13.45a67.455,67.455,0,0,0,16.951-6.541,66.185,66.185,0,0,0,14.556-10.594q-.186,3.869-.277,7.462t-.092,6.725v85.788H18.425V18.425H321.732Zm-41.345-80.445a25.073,25.073,0,0,1-3.316,12.99,23.467,23.467,0,0,1-9.305,8.844,28.889,28.889,0,0,1-13.911,3.224q-12.16,0-19.346-6.356t-7.186-17.228q0-12.713,6.817-19.807t19.715-7.093a29.614,29.614,0,0,1,13.911,3.132,22.708,22.708,0,0,1,9.305,8.844A26.317,26.317,0,0,1,280.387,241.287Z"/>
      </g>
    </g>
</svg>
