<svg xmlns="http://www.w3.org/2000/svg" width="120mm" height="120mm" viewBox="0 0 340.157 340.158">
  <g id="Zimmernummer">
      <g id="Z-04-544">
        <path fill="#000000" stroke="none" d="M337.322,0H2.835A2.836,2.836,0,0,0,0,2.835V337.323a2.836,2.836,0,0,0,2.835,2.835H337.322a2.836,2.836,0,0,0,2.835-2.835V2.835A2.836,2.836,0,0,0,337.322,0ZM181.6,280.65h-41.92l30.6-44.773q2.828-4.236,6.191-9.949t5.483-10.319h.354q-.178,4.794-.443,9.766t-.265,9.765Zm34.846,12.713H265.8v28.369H195.755V293.363H216.45Zm49.614-67.988q-.266,4.974-.265,9.765v45.51H223.878l30.6-44.773q2.826-4.236,6.19-9.949t5.483-10.319h.354Q266.329,220.4,266.064,225.375Zm55.668,96.357H279.949V293.363h20.7V280.65h-20.7V203.633H262.084l-52,77.017H195.755V203.633H177.89l-53.242,78.86v10.87H181.6v28.369h-81.48A35.2,35.2,0,0,0,115.983,303.5a45.5,45.5,0,0,0,3.007-16.951,44.145,44.145,0,0,0-4.6-20.636,33.629,33.629,0,0,0-12.825-13.726A37.247,37.247,0,0,0,82.2,247.3a41.055,41.055,0,0,0-15.831,2.763,30.472,30.472,0,0,0-10.878,7.371h-.353l.353-1.659,4.6-38.324h53.6V203.633H48.061l-6.9,66.884,12.382,2.395a24.11,24.11,0,0,1,6.722-6.817,27.687,27.687,0,0,1,8.755-3.778,44.016,44.016,0,0,1,10.525-1.2,28.114,28.114,0,0,1,13.443,2.948,19.721,19.721,0,0,1,8.4,8.752q2.919,5.8,2.919,14.464a28.521,28.521,0,0,1-3.184,13.911,22.042,22.042,0,0,1-8.933,8.937,28.636,28.636,0,0,1-13.885,3.132q-11.5,0-17.423-5.989a36.205,36.205,0,0,1-8.756-15.569l-13.8,7.555q5.128,13.085,14.593,20.452a30.306,30.306,0,0,0,2.951,2.02H18.425V18.425H321.732Z"/>
      </g>
    </g>
</svg>
