<svg xmlns="http://www.w3.org/2000/svg" width="120mm" height="120mm" viewBox="0 0 340.158 340.157">
  <g id="Zimmernummer">
      <g id="Z-04-055-E">
        <path fill="#A09f9d" stroke="none" d="M337.323,0H2.835A2.836,2.836,0,0,0,0,2.835V337.323a2.834,2.834,0,0,0,2.835,2.834H337.323a2.834,2.834,0,0,0,2.835-2.834V2.835A2.836,2.836,0,0,0,337.323,0ZM321.732,321.732H281.915a37.376,37.376,0,0,0,7.675-5.429,35.746,35.746,0,0,0,8.845-12.806,43.9,43.9,0,0,0,3.132-16.951,42.688,42.688,0,0,0-4.791-20.636,34.223,34.223,0,0,0-13.358-13.726q-8.567-4.881-20.175-4.883a44.353,44.353,0,0,0-16.491,2.763,31.842,31.842,0,0,0-11.332,7.371h-.368l.368-1.659,4.791-38.324H296.04V203.633H227.682L220.5,270.517l12.9,2.395a24.6,24.6,0,0,1,7-6.817,29.494,29.494,0,0,1,9.121-3.778,47.658,47.658,0,0,1,10.963-1.2,30.3,30.3,0,0,1,14,2.948,20.106,20.106,0,0,1,8.752,8.752q3.041,5.8,3.04,14.464a27.6,27.6,0,0,1-3.316,13.911,22.517,22.517,0,0,1-9.305,8.937,30.853,30.853,0,0,1-14.464,3.132q-11.979,0-18.149-5.989a35.866,35.866,0,0,1-9.121-15.569l-14.371,7.555q5.341,13.085,15.2,20.452a31.628,31.628,0,0,0,3.074,2.02H183.9a37.43,37.43,0,0,0,7.675-5.429,35.746,35.746,0,0,0,8.845-12.806,43.913,43.913,0,0,0,3.131-16.951,42.687,42.687,0,0,0-4.79-20.636A34.223,34.223,0,0,0,185.4,252.184q-8.568-4.881-20.176-4.883a44.347,44.347,0,0,0-16.49,2.763,31.824,31.824,0,0,0-11.332,7.371h-.368l.368-1.659,4.791-38.324H198.02V203.633H129.663l-7.186,66.884,12.9,2.395a24.586,24.586,0,0,1,7-6.817,29.494,29.494,0,0,1,9.121-3.778,47.655,47.655,0,0,1,10.962-1.2,30.3,30.3,0,0,1,14,2.948,20.1,20.1,0,0,1,8.752,8.752q3.041,5.8,3.04,14.464a27.588,27.588,0,0,1-3.316,13.911,22.511,22.511,0,0,1-9.3,8.937,30.85,30.85,0,0,1-14.464,3.132q-11.979,0-18.148-5.989a35.866,35.866,0,0,1-9.121-15.569l-14.371,7.555q5.342,13.085,15.2,20.452a31.873,31.873,0,0,0,3.074,2.02H18.425V18.425H321.732Z"/>
      </g>
    </g>
</svg>
