<svg xmlns="http://www.w3.org/2000/svg" width="120mm" height="120mm" viewBox="0 0 340.158 340.158">
  <g id="Zimmernummer">
      <g id="Z-04-622">
        <path fill="#000000" stroke="none" d="M337.323,0H2.835A2.836,2.836,0,0,0,0,2.835V337.323a2.836,2.836,0,0,0,2.835,2.835H337.323a2.836,2.836,0,0,0,2.835-2.835V2.835A2.836,2.836,0,0,0,337.323,0ZM57.967,300.274a25.086,25.086,0,0,1-3.361-12.806,25.913,25.913,0,0,1,3.184-12.99,22.987,22.987,0,0,1,8.933-8.844,26.862,26.862,0,0,1,13.354-3.224,28.835,28.835,0,0,1,13.8,3.04,20.773,20.773,0,0,1,8.667,8.66,27.946,27.946,0,0,1,3.008,13.358q0,11.98-6.722,18.7T80.077,312.9a24.985,24.985,0,0,1-22.11-12.621Zm263.765,21.458H301.176V311.42h-40.86q-1.768,0-5.217.093t-6.9.184q-3.45.094-5.395.276v-.183q20.87-14.555,33.077-26.533t17.512-22.939a50.868,50.868,0,0,0,5.305-22.387,42.142,42.142,0,0,0-2.741-15.477,34.4,34.4,0,0,0-7.871-12.069,35.4,35.4,0,0,0-12.293-7.83,44.681,44.681,0,0,0-16.186-2.764q-11.852,0-20.429,4.606a35.527,35.527,0,0,0-13.62,12.714,48.782,48.782,0,0,0-6.633,18.794l12.382,7.738q1.235-13.633,8.49-21.834t19.28-8.2q11.5,0,18.131,6.725t6.633,17.6a41.3,41.3,0,0,1-3.007,15.569,58.818,58.818,0,0,1-10.083,15.754,175.935,175.935,0,0,1-18.838,18.425q-11.764,10.135-29.273,23.584v8.469h-12.2V311.42h-40.86q-1.77,0-5.218.093t-6.9.184q-3.45.094-5.4.276v-.183q20.87-14.555,33.077-26.533t17.511-22.939a50.87,50.87,0,0,0,5.307-22.387,42.142,42.142,0,0,0-2.742-15.477,34.4,34.4,0,0,0-7.871-12.069,35.4,35.4,0,0,0-12.293-7.83,44.684,44.684,0,0,0-16.185-2.764q-11.853,0-20.431,4.606a35.531,35.531,0,0,0-13.619,12.714,48.782,48.782,0,0,0-6.633,18.794l12.381,7.738q1.237-13.633,8.491-21.834t19.28-8.2q11.5,0,18.131,6.725t6.633,17.6A41.277,41.277,0,0,1,190.1,255.5a58.837,58.837,0,0,1-10.082,15.754,175.935,175.935,0,0,1-18.838,18.425Q149.41,299.814,131.9,313.263v8.469H102.53a33.844,33.844,0,0,0,12.924-13.167,42.466,42.466,0,0,0,4.952-20.913q0-12.16-4.864-21a33.629,33.629,0,0,0-13.708-13.635,42.82,42.82,0,0,0-20.7-4.791,39.5,39.5,0,0,0-13,2.3,33.076,33.076,0,0,0-11.851,7.185,25.318,25.318,0,0,0-7.164,12.806h-.707V267.2a95.74,95.74,0,0,1,2.033-20.268,55.991,55.991,0,0,1,6.1-16.4,32.986,32.986,0,0,1,9.9-10.964A23.374,23.374,0,0,1,79.9,215.61q10.435,0,16.362,4.883a27.407,27.407,0,0,1,8.579,13.358L117.93,227.4a46.928,46.928,0,0,0-8.667-14.648,31.427,31.427,0,0,0-12.117-8.292,45.761,45.761,0,0,0-16.361-2.671,39.823,39.823,0,0,0-23.26,7.186q-10.347,7.185-16.362,21.1t-6.014,34.363q0,18.24,5.13,32.336t15.212,22.2a35.524,35.524,0,0,0,3.945,2.757H18.425V18.425H321.732Z"/>
      </g>
    </g>
</svg>
