<svg xmlns="http://www.w3.org/2000/svg" width="120mm" height="120mm" viewBox="0 0 340.158 340.157">
  <g id="Zimmernummer">
      <g id="Z-04-531">
        <path fill="#000000" stroke="none" d="M337.323,0H2.835A2.834,2.834,0,0,0,0,2.835V337.323a2.834,2.834,0,0,0,2.835,2.834H337.323a2.834,2.834,0,0,0,2.835-2.834V2.835A2.834,2.834,0,0,0,337.323,0ZM321.732,321.732H268.8v-118.1H256.416a36.675,36.675,0,0,1-7.075,7.185,88.8,88.8,0,0,1-9.994,6.911,90.58,90.58,0,0,1-10.259,5.342,29.8,29.8,0,0,1-8.048,2.488l3.714,13.451A65.993,65.993,0,0,0,255,221.874q-.179,3.869-.266,7.462t-.088,6.726v85.67h-61.1a34.738,34.738,0,0,0,12.9-12.338,35.786,35.786,0,0,0,5.041-18.978,29.081,29.081,0,0,0-1.679-9.857,26.274,26.274,0,0,0-4.865-8.384,24.041,24.041,0,0,0-7.694-5.9,25.079,25.079,0,0,0-10.348-2.394v-.369a23.878,23.878,0,0,0,8.314-3.04A25.787,25.787,0,0,0,202.2,254.3a29.578,29.578,0,0,0,4.864-9.121,37.16,37.16,0,0,0,1.769-11.884,32.147,32.147,0,0,0-3.98-15.846,29.122,29.122,0,0,0-11.939-11.515q-7.96-4.328-20.165-4.331a46.219,46.219,0,0,0-17.776,3.317,39.669,39.669,0,0,0-13.708,9.213,38.578,38.578,0,0,0-8.491,13.634L146.22,234.4a34.069,34.069,0,0,1,9.2-13.726q5.838-5.067,16.98-5.068,10.435,0,16.1,4.975t5.66,14.556q0,11.241-5.483,16.491t-18.4,5.251h-2.742a26.679,26.679,0,0,1-3.1-.185v14.741a44.923,44.923,0,0,1,4.777-.46q2.3-.092,4.245-.093,8.311,0,13.443,2.119a14.482,14.482,0,0,1,7.518,6.541,23.065,23.065,0,0,1,2.388,11.055,23.619,23.619,0,0,1-2.83,11.7,20.464,20.464,0,0,1-8.137,8.014,26.622,26.622,0,0,1-13.09,2.949q-9.2,0-15.3-2.764a24.36,24.36,0,0,1-9.817-7.831,40.046,40.046,0,0,1-5.837-11.884l-14.151,7.555a37.879,37.879,0,0,0,16.185,21.1c1.306.836,2.647,1.6,4.019,2.3H102.417A35.205,35.205,0,0,0,118.275,303.5a45.5,45.5,0,0,0,3.007-16.951,44.157,44.157,0,0,0-4.6-20.636,33.636,33.636,0,0,0-12.825-13.726A37.247,37.247,0,0,0,84.491,247.3a41.055,41.055,0,0,0-15.831,2.763,30.485,30.485,0,0,0-10.879,7.371h-.353l.353-1.659,4.6-38.324h53.6V203.633H50.353l-6.9,66.884,12.382,2.395a24.084,24.084,0,0,1,6.722-6.817,27.677,27.677,0,0,1,8.755-3.778,44,44,0,0,1,10.525-1.2,28.107,28.107,0,0,1,13.442,2.948,19.718,19.718,0,0,1,8.4,8.752q2.917,5.8,2.918,14.464a28.51,28.51,0,0,1-3.184,13.911,22.03,22.03,0,0,1-8.933,8.937A28.629,28.629,0,0,1,80.6,313.263q-11.5,0-17.423-5.989a36.205,36.205,0,0,1-8.756-15.569l-13.8,7.555q5.128,13.085,14.593,20.452a30.47,30.47,0,0,0,2.95,2.02H18.425V18.425H321.732Z"/>
      </g>
    </g>
</svg>
