<svg xmlns="http://www.w3.org/2000/svg" width="120mm" height="120mm" viewBox="0 0 340.158 340.157">
  <g id="Zimmernummer">
      <g id="Z-04-231-E">
        <path fill="#A09f9d" stroke="none" d="M337.323,0H2.835A2.834,2.834,0,0,0,0,2.835V337.323a2.834,2.834,0,0,0,2.835,2.834H337.323a2.834,2.834,0,0,0,2.835-2.834V2.835A2.834,2.834,0,0,0,337.323,0ZM321.732,321.732H270.66v-118.1H258.278a36.7,36.7,0,0,1-7.075,7.185,88.71,88.71,0,0,1-9.994,6.911,90.58,90.58,0,0,1-10.259,5.342,29.787,29.787,0,0,1-8.048,2.488l3.714,13.451a65.993,65.993,0,0,0,30.247-17.136q-.178,3.869-.265,7.462t-.088,6.726v85.67H191.872a34.76,34.76,0,0,0,12.9-12.338,35.8,35.8,0,0,0,5.041-18.978,29.082,29.082,0,0,0-1.68-9.857,26.255,26.255,0,0,0-4.865-8.384,24.03,24.03,0,0,0-7.694-5.9,25.072,25.072,0,0,0-10.348-2.394v-.369a23.863,23.863,0,0,0,8.314-3.04,25.805,25.805,0,0,0,6.987-6.172,29.62,29.62,0,0,0,4.864-9.121A37.189,37.189,0,0,0,207.16,233.3a32.157,32.157,0,0,0-3.979-15.846,29.125,29.125,0,0,0-11.94-11.515q-7.959-4.328-20.164-4.331a46.224,46.224,0,0,0-17.777,3.317,39.687,39.687,0,0,0-13.708,9.213A38.606,38.606,0,0,0,131.1,227.77l13.444,6.633a34.067,34.067,0,0,1,9.2-13.726q5.838-5.067,16.981-5.068,10.434,0,16.1,4.975t5.661,14.556q0,11.241-5.484,16.491t-18.4,5.251h-2.741a26.666,26.666,0,0,1-3.1-.185v14.741a44.88,44.88,0,0,1,4.776-.46q2.3-.092,4.245-.093,8.311,0,13.443,2.119a14.474,14.474,0,0,1,7.518,6.541,23.065,23.065,0,0,1,2.388,11.055,23.6,23.6,0,0,1-2.831,11.7,20.449,20.449,0,0,1-8.136,8.014,26.621,26.621,0,0,1-13.089,2.949q-9.2,0-15.3-2.764a24.354,24.354,0,0,1-9.817-7.831,40.023,40.023,0,0,1-5.838-11.884l-14.15,7.555a37.878,37.878,0,0,0,16.184,21.1c1.306.836,2.648,1.6,4.019,2.3H119.252V311.42H78.392q-1.77,0-5.218.093t-6.9.183q-3.45.1-5.395.277v-.184q20.869-14.553,33.076-26.532t17.512-22.94a50.848,50.848,0,0,0,5.306-22.386,42.123,42.123,0,0,0-2.742-15.478,34.392,34.392,0,0,0-7.871-12.068,35.364,35.364,0,0,0-12.293-7.83,44.679,44.679,0,0,0-16.185-2.765q-11.851,0-20.429,4.606a35.52,35.52,0,0,0-13.62,12.714A48.788,48.788,0,0,0,37,237.9l12.381,7.739q1.236-13.633,8.491-21.834t19.28-8.2q11.5,0,18.13,6.726t6.633,17.6A41.281,41.281,0,0,1,98.91,255.5a58.812,58.812,0,0,1-10.082,15.754A176.031,176.031,0,0,1,69.99,289.679q-11.766,10.135-29.274,23.584v8.469H18.425V18.425H321.732Z"/>
      </g>
    </g>
</svg>
