<svg xmlns="http://www.w3.org/2000/svg" width="120mm" height="120mm" viewBox="0 0 340.158 340.157">
  <g id="Zimmernummer">
      <g id="Z-04-526-M">
        <path fill="#D4AF37" stroke="none" d="M337.323,0H2.835A2.836,2.836,0,0,0,0,2.835V337.323a2.834,2.834,0,0,0,2.835,2.834H337.323a2.834,2.834,0,0,0,2.835-2.834V2.835A2.836,2.836,0,0,0,337.323,0ZM239.355,300.273a25.082,25.082,0,0,1-3.361-12.805,25.9,25.9,0,0,1,3.185-12.99,22.957,22.957,0,0,1,8.932-8.844,26.853,26.853,0,0,1,13.355-3.225,28.852,28.852,0,0,1,13.8,3.04,20.784,20.784,0,0,1,8.667,8.66,27.95,27.95,0,0,1,3.007,13.359q0,11.979-6.722,18.7T261.466,312.9a24.992,24.992,0,0,1-22.111-12.622Zm82.377,21.459H283.918a33.846,33.846,0,0,0,12.924-13.168,42.463,42.463,0,0,0,4.953-20.913q0-12.159-4.864-21a33.641,33.641,0,0,0-13.709-13.634,42.806,42.806,0,0,0-20.695-4.791,39.5,39.5,0,0,0-13,2.3,33.079,33.079,0,0,0-11.851,7.186,25.306,25.306,0,0,0-7.163,12.806H229.8V267.2a95.592,95.592,0,0,1,2.034-20.267,56,56,0,0,1,6.1-16.4,32.977,32.977,0,0,1,9.906-10.964,23.377,23.377,0,0,1,13.443-3.961q10.434,0,16.361,4.883a27.405,27.405,0,0,1,8.579,13.359l13.089-6.45a46.934,46.934,0,0,0-8.667-14.647,31.435,31.435,0,0,0-12.116-8.292,45.766,45.766,0,0,0-16.362-2.672,39.824,39.824,0,0,0-23.26,7.187q-10.347,7.185-16.361,21.1t-6.015,34.364q0,18.24,5.13,32.335t15.212,22.2a35.524,35.524,0,0,0,3.945,2.757h-34.9V311.42h-40.86q-1.77,0-5.217.093t-6.9.183q-3.45.1-5.395.277v-.184q20.869-14.553,33.077-26.532t17.512-22.94a50.86,50.86,0,0,0,5.305-22.386,42.144,42.144,0,0,0-2.741-15.478,34.406,34.406,0,0,0-7.871-12.068,35.378,35.378,0,0,0-12.294-7.83,44.672,44.672,0,0,0-16.185-2.765q-11.852,0-20.429,4.606a35.534,35.534,0,0,0-13.62,12.714,48.788,48.788,0,0,0-6.633,18.794l12.382,7.739q1.235-13.633,8.49-21.834t19.28-8.2q11.5,0,18.131,6.726t6.633,17.6a41.3,41.3,0,0,1-3.007,15.569A58.818,58.818,0,0,1,175.5,271.254a176.031,176.031,0,0,1-18.838,18.425q-11.766,10.135-29.273,23.584v8.469H96.676A35.2,35.2,0,0,0,112.535,303.5a45.5,45.5,0,0,0,3.007-16.951,44.145,44.145,0,0,0-4.6-20.636,33.627,33.627,0,0,0-12.824-13.726A37.248,37.248,0,0,0,78.75,247.3a41.05,41.05,0,0,0-15.83,2.763,30.467,30.467,0,0,0-10.879,7.371h-.353l.353-1.659,4.6-38.324h53.594V203.633H44.612l-6.9,66.884L50.1,272.912a24.081,24.081,0,0,1,6.721-6.817,27.693,27.693,0,0,1,8.756-3.778,44,44,0,0,1,10.525-1.2,28.113,28.113,0,0,1,13.442,2.948,19.721,19.721,0,0,1,8.4,8.752q2.919,5.8,2.918,14.464a28.51,28.51,0,0,1-3.183,13.911,22.03,22.03,0,0,1-8.933,8.937,28.633,28.633,0,0,1-13.885,3.132q-11.5,0-17.422-5.989a36.185,36.185,0,0,1-8.756-15.569l-13.8,7.555q5.128,13.085,14.593,20.452a30.348,30.348,0,0,0,2.95,2.02h-34V18.425H321.732Z"/>
      </g>
    </g>
</svg>
