<svg xmlns="http://www.w3.org/2000/svg" width="120mm" height="120mm" viewBox="0 0 340.158 340.157">
  <g id="Zimmernummer">
      <g id="Z-04-205">
        <path fill="#000000" stroke="none" d="M337.323,0H2.835A2.836,2.836,0,0,0,0,2.835V337.323a2.834,2.834,0,0,0,2.835,2.834H337.323a2.834,2.834,0,0,0,2.835-2.834V2.835A2.836,2.836,0,0,0,337.323,0ZM142.7,291.521q-3.276-11.055-3.273-27.084t3.273-27.086q3.27-11.055,9.728-16.674a25.107,25.107,0,0,1,31.662,0q6.454,5.622,9.728,16.674t3.273,27.086q0,16.029-3.273,27.084T184.086,308.2a25.111,25.111,0,0,1-31.662,0Q145.965,302.577,142.7,291.521Zm179.036,30.211H280.281A35.205,35.205,0,0,0,296.139,303.5a45.5,45.5,0,0,0,3.007-16.951,44.145,44.145,0,0,0-4.6-20.636,33.629,33.629,0,0,0-12.825-13.726,37.247,37.247,0,0,0-19.368-4.883,41.055,41.055,0,0,0-15.831,2.763,30.472,30.472,0,0,0-10.878,7.371h-.354l.354-1.659,4.6-38.324H293.84V203.633H228.217l-6.9,66.884,12.382,2.395a24.084,24.084,0,0,1,6.722-6.817,27.687,27.687,0,0,1,8.755-3.778,44.01,44.01,0,0,1,10.525-1.2,28.117,28.117,0,0,1,13.443,2.948,19.721,19.721,0,0,1,8.4,8.752q2.918,5.8,2.918,14.464a28.51,28.51,0,0,1-3.184,13.911,22.033,22.033,0,0,1-8.932,8.937,28.636,28.636,0,0,1-13.885,3.132q-11.5,0-17.423-5.989a36.205,36.205,0,0,1-8.756-15.569l-13.8,7.555q5.129,13.085,14.593,20.452a30.306,30.306,0,0,0,2.951,2.02H188.578a39.84,39.84,0,0,0,11.427-10.68q11.762-16.031,11.763-46.615T200.005,217.82q-11.766-16.029-31.75-16.03-19.812,0-31.662,16.03t-11.851,46.617q0,30.585,11.851,46.615a40.323,40.323,0,0,0,11.452,10.68H117.668V311.42H76.808q-1.77,0-5.218.093t-6.9.183q-3.45.1-5.395.277v-.184q20.869-14.553,33.077-26.532t17.511-22.94a50.849,50.849,0,0,0,5.307-22.386,42.144,42.144,0,0,0-2.742-15.478,34.42,34.42,0,0,0-7.871-12.068,35.378,35.378,0,0,0-12.294-7.83A44.67,44.67,0,0,0,76.1,201.79q-11.853,0-20.43,4.606a35.534,35.534,0,0,0-13.62,12.714A48.788,48.788,0,0,0,35.418,237.9L47.8,245.643q1.234-13.633,8.49-21.834t19.28-8.2q11.5,0,18.13,6.726t6.634,17.6A41.281,41.281,0,0,1,97.326,255.5a58.812,58.812,0,0,1-10.082,15.754,175.936,175.936,0,0,1-18.838,18.425q-11.765,10.135-29.273,23.584v8.469H18.425V18.425H321.732Z"/>
      </g>
    </g>
</svg>
