<svg xmlns="http://www.w3.org/2000/svg" width="120mm" height="120mm" viewBox="0 0 340.158 340.158">
  <g id="Zimmernummer">
      <g id="Z-04-122-E">
        <path fill="#A09f9d" stroke="none" d="M337.323,0H2.835A2.836,2.836,0,0,0,0,2.835V337.323a2.836,2.836,0,0,0,2.835,2.835H337.323a2.836,2.836,0,0,0,2.835-2.835V2.835A2.836,2.836,0,0,0,337.323,0ZM321.732,321.732h-36.3V311.42h-40.86q-1.77,0-5.218.093t-6.9.184q-3.448.094-5.4.276v-.183q20.87-14.555,33.077-26.533t17.511-22.939a50.856,50.856,0,0,0,5.307-22.387,42.142,42.142,0,0,0-2.742-15.477,34.41,34.41,0,0,0-7.871-12.069,35.4,35.4,0,0,0-12.293-7.83,44.68,44.68,0,0,0-16.185-2.764q-11.853,0-20.43,4.606a35.527,35.527,0,0,0-13.62,12.714,48.782,48.782,0,0,0-6.633,18.794l12.382,7.738q1.234-13.633,8.49-21.834t19.28-8.2q11.5,0,18.131,6.725t6.633,17.6a41.3,41.3,0,0,1-3.007,15.569,58.818,58.818,0,0,1-10.083,15.754,175.935,175.935,0,0,1-18.838,18.425q-11.764,10.135-29.274,23.584v8.469H191.157V311.42H150.3q-1.77,0-5.217.093t-6.9.184q-3.448.094-5.4.276v-.183q20.87-14.555,33.077-26.533t17.512-22.939a50.869,50.869,0,0,0,5.306-22.387,42.142,42.142,0,0,0-2.742-15.477,34.41,34.41,0,0,0-7.871-12.069,35.388,35.388,0,0,0-12.293-7.83,44.68,44.68,0,0,0-16.185-2.764q-11.853,0-20.43,4.606a35.527,35.527,0,0,0-13.62,12.714,48.815,48.815,0,0,0-6.633,18.794l12.382,7.738q1.234-13.633,8.49-21.834t19.281-8.2q11.5,0,18.13,6.725t6.633,17.6a41.3,41.3,0,0,1-3.007,15.569,58.793,58.793,0,0,1-10.083,15.754A175.915,175.915,0,0,1,141.9,289.679q-11.766,10.135-29.274,23.584v8.469H90.335v-118.1H77.953a36.706,36.706,0,0,1-7.075,7.186,88.664,88.664,0,0,1-9.994,6.91,90.6,90.6,0,0,1-10.259,5.343,29.753,29.753,0,0,1-8.048,2.487l3.714,13.451a63.222,63.222,0,0,0,16.273-6.541,63.733,63.733,0,0,0,13.974-10.594q-.178,3.869-.266,7.461t-.088,6.726v85.67H18.425V18.425H321.732Z"/>
      </g>
    </g>
</svg>
