<svg xmlns="http://www.w3.org/2000/svg" width="120mm" height="120mm" viewBox="0 0 340.158 340.157">
  <g id="Zimmernummer">
      <g id="Z-04-646-R">
        <path fill="#A0552B" stroke="none" d="M337.323,0H2.835A2.836,2.836,0,0,0,0,2.835V337.323a2.834,2.834,0,0,0,2.835,2.834H337.323a2.834,2.834,0,0,0,2.835-2.834V2.835A2.836,2.836,0,0,0,337.323,0ZM53.28,300.273a25.081,25.081,0,0,1-3.36-12.805,25.892,25.892,0,0,1,3.184-12.99,22.971,22.971,0,0,1,8.932-8.844,26.853,26.853,0,0,1,13.355-3.225,28.852,28.852,0,0,1,13.8,3.04,20.776,20.776,0,0,1,8.666,8.66,27.95,27.95,0,0,1,3.007,13.359q0,11.979-6.72,18.7T75.391,312.9A24.992,24.992,0,0,1,53.28,300.273ZM178.864,280.65H136.943l30.6-44.773q2.827-4.236,6.19-9.949t5.484-10.319h.353q-.177,4.794-.441,9.766t-.266,9.765Zm65.268,19.623a25.082,25.082,0,0,1-3.361-12.805,25.913,25.913,0,0,1,3.184-12.99,22.973,22.973,0,0,1,8.933-8.844,26.852,26.852,0,0,1,13.354-3.225,28.846,28.846,0,0,1,13.8,3.04,20.773,20.773,0,0,1,8.667,8.66,27.95,27.95,0,0,1,3.008,13.359q0,11.979-6.722,18.7t-18.75,6.726a24.988,24.988,0,0,1-22.11-12.622Zm77.6,21.459H288.7a33.846,33.846,0,0,0,12.924-13.168,42.463,42.463,0,0,0,4.952-20.913q0-12.159-4.864-21A33.627,33.627,0,0,0,288,253.013a42.806,42.806,0,0,0-20.7-4.791,39.5,39.5,0,0,0-13,2.3,33.079,33.079,0,0,0-11.851,7.186,25.314,25.314,0,0,0-7.164,12.806h-.707V267.2a95.657,95.657,0,0,1,2.034-20.267,55.968,55.968,0,0,1,6.1-16.4,32.988,32.988,0,0,1,9.906-10.964,23.376,23.376,0,0,1,13.442-3.961q10.435,0,16.362,4.883a27.405,27.405,0,0,1,8.579,13.359L304.1,227.4a46.934,46.934,0,0,0-8.667-14.647,31.42,31.42,0,0,0-12.116-8.292,45.766,45.766,0,0,0-16.362-2.672,39.824,39.824,0,0,0-23.26,7.187q-10.347,7.185-16.362,21.1t-6.014,34.364q0,18.24,5.13,32.335t15.212,22.2a35.524,35.524,0,0,0,3.945,2.757H193.015V293.363h20.7V280.65h-20.7V203.633H175.149l-53.241,78.86v10.87h56.956v28.369H97.843a33.853,33.853,0,0,0,12.924-13.168,42.463,42.463,0,0,0,4.953-20.913q0-12.159-4.865-21a33.639,33.639,0,0,0-13.708-13.634,42.806,42.806,0,0,0-20.7-4.791,39.5,39.5,0,0,0-13,2.3A33.079,33.079,0,0,0,51.6,257.711a25.3,25.3,0,0,0-7.163,12.806h-.708V267.2a95.657,95.657,0,0,1,2.034-20.267,55.968,55.968,0,0,1,6.1-16.4,32.977,32.977,0,0,1,9.906-10.964,23.38,23.38,0,0,1,13.443-3.961q10.434,0,16.361,4.883a27.405,27.405,0,0,1,8.579,13.359l13.089-6.45a46.934,46.934,0,0,0-8.667-14.647,31.428,31.428,0,0,0-12.116-8.292A45.764,45.764,0,0,0,76.1,201.79a39.822,39.822,0,0,0-23.261,7.187q-10.349,7.185-16.361,21.1t-6.014,34.364q0,18.24,5.129,32.335t15.212,22.2a35.524,35.524,0,0,0,3.945,2.757H18.425V18.425H321.732Z"/>
      </g>
    </g>
</svg>
