<svg xmlns="http://www.w3.org/2000/svg" width="120mm" height="120mm" viewBox="0 0 340.158 340.158">
  <g id="Zimmernummer">
      <g id="Z-04-527-M">
        <path fill="#D4AF37" stroke="none" d="M337.323,0H2.835A2.836,2.836,0,0,0,0,2.835V337.323a2.836,2.836,0,0,0,2.835,2.835H337.323a2.836,2.836,0,0,0,2.835-2.835V2.835A2.836,2.836,0,0,0,337.323,0ZM321.732,321.732h-60.31a171.712,171.712,0,0,1,4.2-35.554,139.235,139.235,0,0,1,13.531-35.469,173.307,173.307,0,0,1,23.968-33.256v-13.82H217.156v13.82H287.74a164.568,164.568,0,0,0-21.234,30.033,156.123,156.123,0,0,0-14.77,37.679,165.573,165.573,0,0,0-4.812,36.567H214.5V311.42H173.645q-1.77,0-5.218.093t-6.9.184q-3.448.094-5.394.276v-.183Q177,297.236,189.21,285.257t17.512-22.939a50.869,50.869,0,0,0,5.306-22.387,42.142,42.142,0,0,0-2.742-15.477,34.4,34.4,0,0,0-7.871-12.069,35.4,35.4,0,0,0-12.293-7.83,44.678,44.678,0,0,0-16.184-2.764q-11.854,0-20.431,4.606a35.517,35.517,0,0,0-13.619,12.714,48.766,48.766,0,0,0-6.634,18.794l12.382,7.738q1.236-13.633,8.49-21.834t19.28-8.2q11.5,0,18.131,6.725t6.633,17.6a41.277,41.277,0,0,1-3.007,15.569,58.837,58.837,0,0,1-10.082,15.754,175.935,175.935,0,0,1-18.838,18.425q-11.766,10.135-29.274,23.584v8.469H105.255A35.208,35.208,0,0,0,121.113,303.5a45.508,45.508,0,0,0,3.007-16.952,44.138,44.138,0,0,0-4.6-20.635A33.629,33.629,0,0,0,106.7,252.184,37.247,37.247,0,0,0,87.329,247.3,41.035,41.035,0,0,0,71.5,250.065a30.483,30.483,0,0,0-10.878,7.37h-.354l.354-1.658,4.6-38.324h53.594v-13.82H53.19l-6.9,66.884,12.382,2.4A24.1,24.1,0,0,1,65.4,266.1a27.685,27.685,0,0,1,8.755-3.777,43.953,43.953,0,0,1,10.525-1.2,28.117,28.117,0,0,1,13.443,2.948,19.727,19.727,0,0,1,8.4,8.752q2.917,5.8,2.918,14.464a28.51,28.51,0,0,1-3.184,13.911,22.027,22.027,0,0,1-8.933,8.936,28.629,28.629,0,0,1-13.884,3.132q-11.5,0-17.423-5.988a36.2,36.2,0,0,1-8.756-15.569l-13.8,7.554q5.128,13.086,14.593,20.452a30.292,30.292,0,0,0,2.95,2.02H18.425V18.425H321.732Z"/>
      </g>
    </g>
</svg>
