<svg xmlns="http://www.w3.org/2000/svg" width="120mm" height="120mm" viewBox="0 0 340.158 340.158">
  <g id="Zimmernummer">
      <g id="Z-04-444-M">
        <path fill="#D4AF37" stroke="none" d="M337.323,0H2.835A2.836,2.836,0,0,0,0,2.835V337.323a2.836,2.836,0,0,0,2.835,2.835H337.323a2.836,2.836,0,0,0,2.835-2.835V2.835A2.836,2.836,0,0,0,337.323,0ZM88.477,280.65H46.556l30.6-44.773q2.827-4.236,6.192-9.949t5.483-10.319h.354q-.178,4.794-.443,9.766t-.265,9.765Zm34.846,12.713h53.771v28.369H102.627V293.363h20.7Zm54.036-67.988q-.266,4.974-.265,9.765v45.51H135.172l30.6-44.773q2.827-4.236,6.191-9.949t5.484-10.319h.353Q177.623,220.4,177.359,225.375Zm91.888,55.275H227.326l30.6-44.773q2.827-4.236,6.191-9.949t5.484-10.319h.353q-.178,4.794-.442,9.766t-.266,9.765Zm52.485,41.082H283.4V293.363h20.694V280.65H283.4V203.633H265.533l-53.242,78.86v10.87h56.956v28.369h-78V293.363h20.7V280.65h-20.7V203.633H173.379l-52,77.017H102.627V203.633H84.763l-53.242,78.86v10.87H88.477v28.369H18.425V18.425H321.732Z"/>
      </g>
    </g>
</svg>
