<svg xmlns="http://www.w3.org/2000/svg" width="120mm" height="120mm" viewBox="0 0 340.158 340.158">
  <g id="Zimmernummer">
      <g id="Z-04-312-E">
        <path fill="#A09f9d" stroke="none" d="M337.323,0H2.835A2.836,2.836,0,0,0,0,2.835V337.323a2.836,2.836,0,0,0,2.835,2.835H337.323a2.836,2.836,0,0,0,2.835-2.835V2.835A2.836,2.836,0,0,0,337.323,0ZM321.732,321.732H287.208V311.42h-40.86q-1.77,0-5.218.093t-6.9.184q-3.45.094-5.4.276v-.183q20.87-14.555,33.077-26.533t17.511-22.939a50.855,50.855,0,0,0,5.306-22.387,42.142,42.142,0,0,0-2.741-15.477,34.413,34.413,0,0,0-7.872-12.069,35.379,35.379,0,0,0-12.293-7.83,44.672,44.672,0,0,0-16.185-2.764q-11.851,0-20.429,4.606a35.519,35.519,0,0,0-13.62,12.714,48.782,48.782,0,0,0-6.633,18.794l12.382,7.738q1.234-13.633,8.49-21.834t19.28-8.2q11.5,0,18.13,6.725t6.633,17.6a41.3,41.3,0,0,1-3.006,15.569,58.842,58.842,0,0,1-10.083,15.754,175.935,175.935,0,0,1-18.838,18.425q-11.766,10.135-29.274,23.584v8.469H189.923v-118.1H177.541a36.706,36.706,0,0,1-7.075,7.186,88.574,88.574,0,0,1-9.994,6.91,90.6,90.6,0,0,1-10.259,5.343,29.753,29.753,0,0,1-8.048,2.487l3.714,13.451a66,66,0,0,0,30.247-17.135q-.179,3.869-.265,7.461t-.089,6.726v85.67H111.135a34.75,34.75,0,0,0,12.9-12.338,35.79,35.79,0,0,0,5.042-18.977,29.064,29.064,0,0,0-1.681-9.858,26.234,26.234,0,0,0-4.864-8.384,24.024,24.024,0,0,0-7.694-5.9,25.056,25.056,0,0,0-10.348-2.395v-.369a23.858,23.858,0,0,0,8.314-3.04,25.77,25.77,0,0,0,6.986-6.172,29.622,29.622,0,0,0,4.865-9.121,37.188,37.188,0,0,0,1.769-11.884,32.157,32.157,0,0,0-3.98-15.845,29.145,29.145,0,0,0-11.94-11.516q-7.959-4.328-20.164-4.33a46.224,46.224,0,0,0-17.777,3.316,39.692,39.692,0,0,0-13.708,9.213,38.6,38.6,0,0,0-8.491,13.634L63.807,234.4a34.076,34.076,0,0,1,9.2-13.727q5.838-5.067,16.981-5.067,10.434,0,16.1,4.974t5.66,14.556q0,11.241-5.483,16.491t-18.4,5.251H85.122a26.66,26.66,0,0,1-3.1-.184v14.74a45.408,45.408,0,0,1,4.776-.46q2.3-.092,4.245-.093,8.313,0,13.443,2.119a14.474,14.474,0,0,1,7.518,6.541A23.08,23.08,0,0,1,114.4,290.6a23.6,23.6,0,0,1-2.83,11.7,20.457,20.457,0,0,1-8.136,8.015,26.621,26.621,0,0,1-13.089,2.948q-9.2,0-15.3-2.763a24.369,24.369,0,0,1-9.817-7.832,40.026,40.026,0,0,1-5.836-11.883l-14.151,7.554a37.878,37.878,0,0,0,16.184,21.1c1.306.836,2.648,1.6,4.018,2.3H18.425V18.425H321.732Z"/>
      </g>
    </g>
</svg>
