<svg xmlns="http://www.w3.org/2000/svg" width="120mm" height="120mm" viewBox="0 0 340.158 340.157">
  <g id="Zimmernummer">
      <g id="Z-04-518-R">
        <path fill="#A0552B" stroke="none" d="M337.323,0H2.835A2.836,2.836,0,0,0,0,2.835V337.323a2.834,2.834,0,0,0,2.835,2.834H337.323a2.834,2.834,0,0,0,2.835-2.834V2.835A2.836,2.836,0,0,0,337.323,0Zm-108.4,271.161a41.426,41.426,0,0,1,29.274,0,21.78,21.78,0,0,1,9.64,7.738,22.769,22.769,0,0,1,.089,23.953,21.156,21.156,0,0,1-9.552,7.738,42.4,42.4,0,0,1-29.628,0A21.772,21.772,0,0,1,219.19,278.9,21.7,21.7,0,0,1,228.919,271.161Zm-7.871-35.836q0-9.211,6.1-14.371t16.361-5.161q10.435,0,16.451,5.161t6.013,14.371q0,9.029-6.19,14.187t-16.274,5.158q-10.082,0-16.273-5.158T221.048,235.325Zm100.684,86.407H268.184a33.78,33.78,0,0,0,12.473-10.864,31.785,31.785,0,0,0,5.307-18.426q0-11.423-5.926-19.346A35.352,35.352,0,0,0,264.207,261.3v-.183a27.773,27.773,0,0,0,12.116-10.78,30.984,30.984,0,0,0,4.334-16.49,30.651,30.651,0,0,0-4.6-17.043,30.137,30.137,0,0,0-12.912-10.963,51.527,51.527,0,0,0-39.179,0,30.016,30.016,0,0,0-13,10.963q-4.6,7.1-4.6,17.043a30.408,30.408,0,0,0,4.511,16.676,27.9,27.9,0,0,0,12.116,10.594v.183a34.29,34.29,0,0,0-16.1,11.885q-5.837,8.016-5.838,19.254a31.785,31.785,0,0,0,5.307,18.426,33.636,33.636,0,0,0,12.54,10.864H179.834v-118.1H167.452a36.7,36.7,0,0,1-7.075,7.186,88.651,88.651,0,0,1-9.993,6.91,90.674,90.674,0,0,1-10.26,5.342,29.74,29.74,0,0,1-8.048,2.488l3.715,13.451a66.007,66.007,0,0,0,30.247-17.136q-.178,3.87-.266,7.462t-.089,6.725v85.671H111.267A35.212,35.212,0,0,0,127.126,303.5a45.5,45.5,0,0,0,3.007-16.952,44.134,44.134,0,0,0-4.6-20.634,33.629,33.629,0,0,0-12.824-13.727A37.252,37.252,0,0,0,93.342,247.3a41.022,41.022,0,0,0-15.832,2.764,30.485,30.485,0,0,0-10.877,7.369h-.355l.355-1.658,4.6-38.324h53.6V203.633H59.2l-6.9,66.883,12.382,2.4a24.118,24.118,0,0,1,6.722-6.819,27.724,27.724,0,0,1,8.756-3.777,44,44,0,0,1,10.524-1.2,28.121,28.121,0,0,1,13.444,2.947,19.719,19.719,0,0,1,8.4,8.752q2.919,5.8,2.919,14.465a28.52,28.52,0,0,1-3.184,13.91,22.039,22.039,0,0,1-8.932,8.937,28.637,28.637,0,0,1-13.886,3.131q-11.5,0-17.423-5.988a36.207,36.207,0,0,1-8.756-15.568l-13.8,7.554q5.129,13.085,14.593,20.451a30.508,30.508,0,0,0,2.952,2.021H18.425V18.425H321.732Z"/>
      </g>
    </g>
</svg>
