<svg xmlns="http://www.w3.org/2000/svg" width="120mm" height="120mm" viewBox="0 0 340.158 340.158">
  <g id="Zimmernummer">
      <g id="Z-04-432">
        <path fill="#000000" stroke="none" d="M337.323,0H2.835A2.836,2.836,0,0,0,0,2.835V337.323a2.836,2.836,0,0,0,2.835,2.835H337.323a2.836,2.836,0,0,0,2.835-2.835V2.835A2.836,2.836,0,0,0,337.323,0ZM88.123,280.651H46.2l30.6-44.774q2.828-4.236,6.19-9.949t5.484-10.318h.354q-.178,4.792-.442,9.765t-.266,9.765Zm233.609,41.081H301.44V311.42H260.58q-1.77,0-5.218.093t-6.9.184q-3.45.094-5.4.276v-.183q20.868-14.555,33.077-26.533t17.511-22.939a50.87,50.87,0,0,0,5.307-22.387,42.142,42.142,0,0,0-2.742-15.477,34.4,34.4,0,0,0-7.871-12.069,35.4,35.4,0,0,0-12.293-7.83,44.684,44.684,0,0,0-16.185-2.764q-11.853,0-20.431,4.606a35.531,35.531,0,0,0-13.619,12.714,48.782,48.782,0,0,0-6.633,18.794l12.381,7.738q1.237-13.633,8.491-21.834t19.28-8.2q11.5,0,18.131,6.725t6.632,17.6A41.276,41.276,0,0,1,281.1,255.5a58.861,58.861,0,0,1-10.082,15.754,175.935,175.935,0,0,1-18.838,18.425q-11.766,10.135-29.275,23.584v8.469H192.583a34.757,34.757,0,0,0,12.9-12.338,35.789,35.789,0,0,0,5.041-18.977,29.088,29.088,0,0,0-1.68-9.858,26.236,26.236,0,0,0-4.865-8.384,24.024,24.024,0,0,0-7.694-5.9,25.055,25.055,0,0,0-10.347-2.395v-.369a23.853,23.853,0,0,0,8.313-3.04,25.755,25.755,0,0,0,6.986-6.172,29.58,29.58,0,0,0,4.865-9.121,37.188,37.188,0,0,0,1.769-11.884,32.157,32.157,0,0,0-3.98-15.845,29.139,29.139,0,0,0-11.94-11.516q-7.959-4.328-20.164-4.33a46.215,46.215,0,0,0-17.776,3.316,39.687,39.687,0,0,0-13.709,9.213,38.579,38.579,0,0,0-8.49,13.634l13.443,6.634a34.074,34.074,0,0,1,9.2-13.727q5.838-5.067,16.982-5.067,10.434,0,16.1,4.974t5.66,14.556q0,11.241-5.483,16.491t-18.395,5.251h-2.742a26.63,26.63,0,0,1-3.095-.184v14.74a45.39,45.39,0,0,1,4.775-.46q2.3-.092,4.245-.093,8.313,0,13.444,2.119a14.476,14.476,0,0,1,7.517,6.541,23.068,23.068,0,0,1,2.388,11.055,23.617,23.617,0,0,1-2.83,11.7,20.466,20.466,0,0,1-8.137,8.015,26.615,26.615,0,0,1-13.089,2.948q-9.2,0-15.3-2.763a24.359,24.359,0,0,1-9.816-7.832,40,40,0,0,1-5.837-11.883l-14.151,7.554a37.878,37.878,0,0,0,16.184,21.1c1.306.836,2.648,1.6,4.018,2.3H102.273V293.364h20.7V280.651h-20.7V203.633H84.408L31.167,282.494v10.87H88.123v28.368h-69.7V18.425H321.732Z"/>
      </g>
    </g>
</svg>
