<svg xmlns="http://www.w3.org/2000/svg" width="120mm" height="120mm" viewBox="0 0 340.158 340.157">
  <g id="Zimmernummer">
      <g id="Z-04-135-E">
        <path fill="#A09f9d" stroke="none" d="M337.323,0H2.835A2.836,2.836,0,0,0,0,2.835V337.323a2.834,2.834,0,0,0,2.835,2.834H337.323a2.834,2.834,0,0,0,2.835-2.834V2.835A2.836,2.836,0,0,0,337.323,0ZM321.732,321.732h-54.9A35.212,35.212,0,0,0,282.693,303.5a45.5,45.5,0,0,0,3.007-16.951,44.145,44.145,0,0,0-4.6-20.636,33.633,33.633,0,0,0-12.824-13.726,37.248,37.248,0,0,0-19.369-4.883,41.062,41.062,0,0,0-15.831,2.763,30.489,30.489,0,0,0-10.878,7.371h-.354l.354-1.659,4.6-38.324h53.595V203.633H214.77l-6.9,66.884,12.382,2.395a24.081,24.081,0,0,1,6.721-6.817,27.7,27.7,0,0,1,8.756-3.778,44,44,0,0,1,10.524-1.2,28.111,28.111,0,0,1,13.443,2.948,19.716,19.716,0,0,1,8.4,8.752q2.919,5.8,2.919,14.464a28.521,28.521,0,0,1-3.184,13.911,22.039,22.039,0,0,1-8.932,8.937,28.637,28.637,0,0,1-13.886,3.132q-11.5,0-17.423-5.989a36.194,36.194,0,0,1-8.755-15.569l-13.8,7.555q5.129,13.085,14.593,20.452a30.292,30.292,0,0,0,2.95,2.02H173.127a34.763,34.763,0,0,0,12.9-12.338,35.8,35.8,0,0,0,5.041-18.978,29.058,29.058,0,0,0-1.681-9.857,26.252,26.252,0,0,0-4.864-8.384,24.034,24.034,0,0,0-7.695-5.9,25.071,25.071,0,0,0-10.347-2.394v-.369a23.865,23.865,0,0,0,8.313-3.04,25.776,25.776,0,0,0,6.987-6.172,29.6,29.6,0,0,0,4.864-9.121,37.16,37.16,0,0,0,1.769-11.884,32.147,32.147,0,0,0-3.98-15.846A29.128,29.128,0,0,0,172.5,205.937q-7.961-4.328-20.165-4.331a46.219,46.219,0,0,0-17.776,3.317,39.682,39.682,0,0,0-13.709,9.213,38.589,38.589,0,0,0-8.49,13.634L125.8,234.4a34.079,34.079,0,0,1,9.2-13.726q5.837-5.067,16.981-5.068,10.434,0,16.1,4.975t5.66,14.556q0,11.241-5.483,16.491t-18.4,5.251h-2.741a26.653,26.653,0,0,1-3.1-.185v14.741a44.88,44.88,0,0,1,4.776-.46q2.3-.092,4.245-.093,8.311,0,13.443,2.119A14.472,14.472,0,0,1,174,279.545a23.065,23.065,0,0,1,2.388,11.055,23.609,23.609,0,0,1-2.83,11.7,20.455,20.455,0,0,1-8.136,8.014,26.622,26.622,0,0,1-13.09,2.949q-9.2,0-15.3-2.764a24.367,24.367,0,0,1-9.817-7.831,40.046,40.046,0,0,1-5.837-11.884l-14.151,7.555a37.875,37.875,0,0,0,16.185,21.1c1.306.836,2.648,1.6,4.019,2.3H90.424v-118.1H78.042a36.7,36.7,0,0,1-7.075,7.185,88.71,88.71,0,0,1-9.994,6.911,90.665,90.665,0,0,1-10.259,5.342,29.8,29.8,0,0,1-8.048,2.488L46.38,239.01a63.314,63.314,0,0,0,16.274-6.541,63.723,63.723,0,0,0,13.973-10.595q-.178,3.869-.265,7.462t-.089,6.726v85.67H18.425V18.425H321.732Z"/>
      </g>
    </g>
</svg>
