<svg xmlns="http://www.w3.org/2000/svg" width="120mm" height="120mm" viewBox="0 0 340.158 340.158">
  <g id="Zimmernummer">
      <g id="Z-04-437-M">
        <path fill="#D4AF37" stroke="none" d="M337.323,0H2.835A2.836,2.836,0,0,0,0,2.835V337.323a2.836,2.836,0,0,0,2.835,2.835H337.323a2.836,2.836,0,0,0,2.835-2.835V2.835A2.836,2.836,0,0,0,337.323,0ZM96.26,280.651H54.339l30.6-44.774q2.828-4.236,6.191-9.949t5.483-10.318h.355q-.178,4.792-.443,9.765t-.265,9.765Zm225.472,41.081H262.218a171.645,171.645,0,0,1,4.2-35.554,139.238,139.238,0,0,1,13.532-35.469,173.3,173.3,0,0,1,23.967-33.256v-13.82H217.952v13.82h70.584A164.52,164.52,0,0,0,267.3,247.486a156.082,156.082,0,0,0-14.77,37.679,165.573,165.573,0,0,0-4.812,36.567h-47a34.76,34.76,0,0,0,12.9-12.338,35.8,35.8,0,0,0,5.041-18.977,29.064,29.064,0,0,0-1.681-9.858,26.252,26.252,0,0,0-4.864-8.384,24.024,24.024,0,0,0-7.694-5.9,25.056,25.056,0,0,0-10.348-2.395v-.369a23.85,23.85,0,0,0,8.314-3.04,25.77,25.77,0,0,0,6.986-6.172,29.557,29.557,0,0,0,4.864-9.121,37.159,37.159,0,0,0,1.77-11.884,32.147,32.147,0,0,0-3.981-15.845,29.13,29.13,0,0,0-11.939-11.516q-7.96-4.328-20.164-4.33a46.224,46.224,0,0,0-17.777,3.316,39.7,39.7,0,0,0-13.709,9.213,38.607,38.607,0,0,0-8.49,13.634l13.444,6.634a34.064,34.064,0,0,1,9.2-13.727q5.837-5.067,16.981-5.067,10.434,0,16.1,4.974t5.66,14.556q0,11.241-5.483,16.491t-18.4,5.251h-2.741a26.66,26.66,0,0,1-3.1-.184v14.74a45.433,45.433,0,0,1,4.776-.46q2.3-.092,4.245-.093,8.313,0,13.443,2.119a14.474,14.474,0,0,1,7.518,6.541,23.068,23.068,0,0,1,2.387,11.055,23.606,23.606,0,0,1-2.83,11.7,20.457,20.457,0,0,1-8.136,8.015,26.618,26.618,0,0,1-13.089,2.948q-9.2,0-15.3-2.763a24.359,24.359,0,0,1-9.816-7.832,40,40,0,0,1-5.837-11.883l-14.152,7.554A37.879,37.879,0,0,0,151,319.436c1.306.836,2.647,1.6,4.018,2.3H110.41V293.364H131.1V280.651H110.41V203.633H92.545L39.3,282.494v10.87H96.26v28.368H18.425V18.425H321.732Z"/>
      </g>
    </g>
</svg>
