<svg xmlns="http://www.w3.org/2000/svg" width="120mm" height="120mm" viewBox="0 0 340.158 340.157">
  <g id="Zimmernummer">
      <g id="Z-04-140-M">
        <path fill="#D4AF37" stroke="none" d="M337.323,0H2.835A2.836,2.836,0,0,0,0,2.835V337.323a2.834,2.834,0,0,0,2.835,2.834H337.323a2.834,2.834,0,0,0,2.835-2.834V2.835A2.836,2.836,0,0,0,337.323,0ZM158.349,280.65H116.428l30.6-44.773q2.827-4.236,6.191-9.949t5.483-10.319h.354q-.179,4.794-.442,9.766t-.266,9.765Zm60.4,10.871q-3.274-11.055-3.272-27.084t3.272-27.086q3.272-11.055,9.728-16.674a25.109,25.109,0,0,1,31.663,0q6.454,5.622,9.728,16.674t3.272,27.086q0,16.029-3.272,27.084T260.144,308.2a25.112,25.112,0,0,1-31.663,0Q222.023,302.577,218.753,291.521Zm102.979,30.211h-57.1a39.84,39.84,0,0,0,11.427-10.68q11.762-16.031,11.763-46.615T276.063,217.82q-11.766-16.029-31.751-16.03-19.812,0-31.661,16.03T200.8,264.437q0,30.585,11.852,46.615a40.3,40.3,0,0,0,11.452,10.68H172.5V293.363H193.2V280.65H172.5V203.633H154.635l-53.242,78.86v10.87h56.956v28.369H87.95v-118.1H75.569a36.712,36.712,0,0,1-7.076,7.185,88.787,88.787,0,0,1-9.993,6.911,90.674,90.674,0,0,1-10.26,5.342,29.776,29.776,0,0,1-8.048,2.488l3.715,13.451a63.308,63.308,0,0,0,16.273-6.541,63.753,63.753,0,0,0,13.974-10.595q-.178,3.869-.266,7.462t-.088,6.726v85.67H18.425V18.425H321.732Z"/>
      </g>
    </g>
</svg>
