<svg xmlns="http://www.w3.org/2000/svg" width="120mm" height="120mm" viewBox="0 0 340.157 340.157">
  <g id="Zimmernummer">
      <g id="Z-04-545-M">
        <path fill="#D4AF37" stroke="none" d="M337.322,0H2.835A2.836,2.836,0,0,0,0,2.835V337.323a2.834,2.834,0,0,0,2.835,2.834H337.322a2.834,2.834,0,0,0,2.835-2.834V2.835A2.836,2.836,0,0,0,337.322,0ZM180.632,280.65H138.711l30.6-44.773q2.826-4.236,6.19-9.949t5.483-10.319h.355q-.179,4.794-.443,9.766t-.265,9.765Zm141.1,41.082H284.521A35.2,35.2,0,0,0,300.38,303.5a45.5,45.5,0,0,0,3.007-16.951,44.145,44.145,0,0,0-4.6-20.636,33.633,33.633,0,0,0-12.824-13.726A37.252,37.252,0,0,0,266.6,247.3a41.055,41.055,0,0,0-15.831,2.763,30.467,30.467,0,0,0-10.879,7.371h-.354l.354-1.659,4.6-38.324H298.08V203.633H232.457l-6.9,66.884,12.381,2.395a24.084,24.084,0,0,1,6.722-6.817,27.693,27.693,0,0,1,8.756-3.778,44,44,0,0,1,10.524-1.2,28.114,28.114,0,0,1,13.443,2.948,19.721,19.721,0,0,1,8.4,8.752q2.918,5.8,2.918,14.464a28.5,28.5,0,0,1-3.184,13.911,22.027,22.027,0,0,1-8.932,8.937,28.633,28.633,0,0,1-13.885,3.132q-11.5,0-17.423-5.989a36.205,36.205,0,0,1-8.756-15.569l-13.8,7.555q5.127,13.085,14.592,20.452a30.306,30.306,0,0,0,2.951,2.02h-45.49V293.363h20.7V280.65h-20.7V203.633H176.917l-53.241,78.86v10.87h56.956v28.369H94.73A35.2,35.2,0,0,0,110.589,303.5a45.5,45.5,0,0,0,3.008-16.951A44.145,44.145,0,0,0,109,265.91a33.624,33.624,0,0,0-12.823-13.726A37.253,37.253,0,0,0,76.805,247.3a41.055,41.055,0,0,0-15.831,2.763A30.472,30.472,0,0,0,50.1,257.435h-.354l.354-1.659,4.6-38.324h53.6V203.633H42.667l-6.9,66.884,12.381,2.395a24.094,24.094,0,0,1,6.721-6.817,27.712,27.712,0,0,1,8.756-3.778,44,44,0,0,1,10.524-1.2A28.118,28.118,0,0,1,87.6,264.067a19.719,19.719,0,0,1,8.4,8.752q2.919,5.8,2.919,14.464a28.51,28.51,0,0,1-3.184,13.911,22.039,22.039,0,0,1-8.932,8.937,28.637,28.637,0,0,1-13.886,3.132q-11.5,0-17.423-5.989a36.2,36.2,0,0,1-8.755-15.569l-13.8,7.555q5.128,13.085,14.593,20.452a30.306,30.306,0,0,0,2.951,2.02H18.425V18.425H321.732Z"/>
      </g>
    </g>
</svg>
