<svg xmlns="http://www.w3.org/2000/svg" width="120mm" height="120mm" viewBox="0 0 340.158 340.158">
  <g id="Zimmernummer">
      <g id="Z-04-039-M">
        <path fill="#D4AF37" stroke="none" d="M337.323,0H2.835A2.836,2.836,0,0,0,0,2.835V337.323a2.836,2.836,0,0,0,2.835,2.835H337.323a2.836,2.836,0,0,0,2.835-2.835V2.835A2.836,2.836,0,0,0,337.323,0ZM321.732,321.732H277.126c1.02-.57,2.017-1.175,2.975-1.836q10.407-7.186,15.753-21.1t5.344-34.362q0-18.425-5.344-32.521t-15.845-22.11q-10.5-8.016-25.8-8.016-13.084,0-22.478,5.067a34.8,34.8,0,0,0-14.372,14.188q-4.974,9.12-4.975,21.649,0,11.609,5.159,20.084a35.073,35.073,0,0,0,14.372,13.174,46,46,0,0,0,21.189,4.7,44.848,44.848,0,0,0,13.727-2.211,33.182,33.182,0,0,0,12.436-7.278A27.076,27.076,0,0,0,287.01,257.8h.737v1.658a142.983,142.983,0,0,1-1.566,22.11,55.678,55.678,0,0,1-5.251,17.044,26.489,26.489,0,0,1-10.042,10.87q-6.357,3.78-15.938,3.778-11.793,0-18.517-5.9a32.883,32.883,0,0,1-9.673-15.477L212.2,299.628q5.343,13.452,16.214,20.452,1.369.882,2.806,1.652h-53.37a35.607,35.607,0,0,0,13.439-12.338,34.715,34.715,0,0,0,5.251-18.978,28.029,28.029,0,0,0-1.751-9.857,26,26,0,0,0-5.066-8.384,24.952,24.952,0,0,0-8.015-5.9,27.019,27.019,0,0,0-10.779-2.394v-.369a25.524,25.524,0,0,0,8.66-3.04,26.57,26.57,0,0,0,7.278-6.172,29.252,29.252,0,0,0,5.067-9.121A35.823,35.823,0,0,0,193.78,233.3a31.15,31.15,0,0,0-4.145-15.846A29.82,29.82,0,0,0,177.2,205.937q-8.291-4.328-21-4.331a49.914,49.914,0,0,0-18.517,3.317,41.466,41.466,0,0,0-14.28,9.213,38.386,38.386,0,0,0-8.844,13.634l14,6.633a34.045,34.045,0,0,1,9.581-13.726q6.079-5.067,17.688-5.068,10.869,0,16.767,4.975t5.9,14.556q0,11.241-5.712,16.491t-19.162,5.251h-2.856a28.91,28.91,0,0,1-3.224-.185v14.741a48.647,48.647,0,0,1,4.975-.46q2.393-.092,4.422-.093,8.658,0,14,2.119a14.908,14.908,0,0,1,7.831,6.541,22.305,22.305,0,0,1,2.487,11.055,22.852,22.852,0,0,1-2.948,11.7,20.916,20.916,0,0,1-8.475,8.014,28.679,28.679,0,0,1-13.635,2.949q-9.582,0-15.938-2.764a25.215,25.215,0,0,1-10.226-7.831,39.4,39.4,0,0,1-6.08-11.884l-14.741,7.555a38.121,38.121,0,0,0,16.859,21.1c1.361.836,2.759,1.6,4.187,2.3H18.425V18.425H321.732ZM280.93,241.4a25.078,25.078,0,0,1-3.317,12.991,23.462,23.462,0,0,1-9.3,8.843,28.893,28.893,0,0,1-13.912,3.225q-12.159,0-19.346-6.357t-7.186-17.227q0-12.714,6.818-19.808t19.714-7.093a29.607,29.607,0,0,1,13.912,3.132,22.705,22.705,0,0,1,9.3,8.844A26.317,26.317,0,0,1,280.93,241.4Z"/>
      </g>
    </g>
</svg>
