<svg xmlns="http://www.w3.org/2000/svg" width="120mm" height="120mm" viewBox="0 0 340.158 340.157">
  <g id="Zimmernummer">
      <g id="Z-04-210">
        <path fill="#000000" stroke="none" d="M337.323,0H2.835A2.836,2.836,0,0,0,0,2.835V337.323a2.834,2.834,0,0,0,2.835,2.834H337.323a2.834,2.834,0,0,0,2.835-2.834V2.835A2.836,2.836,0,0,0,337.323,0ZM218.046,291.521q-3.274-11.055-3.273-27.084t3.273-27.086q3.272-11.055,9.728-16.674a25.109,25.109,0,0,1,31.663,0q6.454,5.622,9.728,16.674t3.272,27.086q0,16.029-3.272,27.084T259.437,308.2a25.112,25.112,0,0,1-31.663,0Q221.317,302.577,218.046,291.521Zm103.686,30.211h-57.8a39.824,39.824,0,0,0,11.426-10.68q11.762-16.031,11.763-46.615T275.355,217.82q-11.764-16.029-31.75-16.03-19.812,0-31.662,16.03t-11.851,46.617q0,30.585,11.851,46.615a40.313,40.313,0,0,0,11.453,10.68H182.935v-118.1H170.553a36.7,36.7,0,0,1-7.075,7.185,88.71,88.71,0,0,1-9.994,6.911,90.58,90.58,0,0,1-10.259,5.342,29.8,29.8,0,0,1-8.048,2.488l3.715,13.451a65.983,65.983,0,0,0,30.246-17.136q-.177,3.869-.265,7.462t-.088,6.726v85.67H129.341V311.42H88.481q-1.77,0-5.217.093t-6.9.183q-3.45.1-5.395.277v-.184q20.869-14.553,33.077-26.532t17.512-22.94a50.861,50.861,0,0,0,5.306-22.386,42.144,42.144,0,0,0-2.742-15.478,34.406,34.406,0,0,0-7.871-12.068,35.368,35.368,0,0,0-12.294-7.83,44.67,44.67,0,0,0-16.184-2.765q-11.853,0-20.43,4.606a35.534,35.534,0,0,0-13.62,12.714A48.788,48.788,0,0,0,47.091,237.9l12.382,7.739q1.234-13.633,8.49-21.834t19.28-8.2q11.5,0,18.131,6.726t6.633,17.6A41.3,41.3,0,0,1,109,255.5a58.842,58.842,0,0,1-10.083,15.754A176.01,176.01,0,0,1,80.08,289.679q-11.766,10.135-29.274,23.584v8.469H18.425V18.425H321.732Z"/>
      </g>
    </g>
</svg>
