<svg xmlns="http://www.w3.org/2000/svg" width="120mm" height="120mm" viewBox="0 0 340.158 340.158">
  <g id="Zimmernummer">
      <g id="Z-04-027">
        <path fill="#000000" stroke="none" d="M339.327.831a2.835,2.835,0,0,0-2-.831H2.835A2.836,2.836,0,0,0,0,2.835V337.323a2.836,2.836,0,0,0,2.835,2.835H337.323a2.837,2.837,0,0,0,2.835-2.835V2.835A2.831,2.831,0,0,0,339.327.831Zm-17.595,320.9h-53.46a165.165,165.165,0,0,1,4.376-35.671,135.812,135.812,0,0,1,14.095-35.469,173.677,173.677,0,0,1,24.966-33.258V203.516H222.163v13.818h73.525a164.775,164.775,0,0,0-22.119,30.033,152.494,152.494,0,0,0-15.385,37.68,159.278,159.278,0,0,0-5.014,36.685H217.558V311.3H175q-1.844,0-5.435.092t-7.186.184q-3.594.1-5.62.276v-.184q21.739-14.551,34.455-26.532T209.451,262.2a49.2,49.2,0,0,0,5.528-22.387,40.648,40.648,0,0,0-2.856-15.477,34.3,34.3,0,0,0-8.2-12.068,37.093,37.093,0,0,0-12.806-7.831,48.284,48.284,0,0,0-16.859-2.764q-12.346,0-21.281,4.606a36.45,36.45,0,0,0-14.187,12.714,47.549,47.549,0,0,0-6.91,18.793l12.9,7.739q1.287-13.632,8.844-21.834t20.083-8.2q11.975,0,18.886,6.725t6.909,17.6a39.833,39.833,0,0,1-3.132,15.57,58.583,58.583,0,0,1-10.5,15.753,180,180,0,0,1-19.623,18.426Q153.989,299.7,135.75,313.146v8.586H18.425V18.425H321.732Z"/>
      </g>
    </g>
</svg>
