<svg xmlns="http://www.w3.org/2000/svg" width="120mm" height="120mm" viewBox="0 0 340.158 340.157">
  <g id="Zimmernummer">
      <g id="Z-04-538">
        <path fill="#000000" stroke="none" d="M337.323,0H2.835A2.836,2.836,0,0,0,0,2.835V337.323a2.834,2.834,0,0,0,2.835,2.834H337.323a2.834,2.834,0,0,0,2.835-2.834V2.835A2.836,2.836,0,0,0,337.323,0Zm-93.1,271.161a41.423,41.423,0,0,1,29.273,0,21.778,21.778,0,0,1,9.641,7.738,22.766,22.766,0,0,1,.088,23.953,21.148,21.148,0,0,1-9.551,7.738,42.4,42.4,0,0,1-29.628,0A21.772,21.772,0,0,1,234.49,278.9,21.7,21.7,0,0,1,244.219,271.161Zm-7.871-35.836q0-9.211,6.1-14.371t16.362-5.161q10.434,0,16.45,5.161t6.013,14.371q0,9.029-6.19,14.187t-16.273,5.158q-10.083,0-16.274-5.158T236.348,235.325Zm85.384,86.407H283.483a33.775,33.775,0,0,0,12.474-10.864,31.785,31.785,0,0,0,5.306-18.426q0-11.423-5.925-19.346A35.352,35.352,0,0,0,279.507,261.3v-.183a27.773,27.773,0,0,0,12.116-10.78,30.993,30.993,0,0,0,4.334-16.49,30.651,30.651,0,0,0-4.6-17.043,30.137,30.137,0,0,0-12.912-10.963,51.527,51.527,0,0,0-39.179,0,30.024,30.024,0,0,0-13,10.963q-4.6,7.1-4.6,17.043a30.408,30.408,0,0,0,4.511,16.676,27.9,27.9,0,0,0,12.116,10.594v.183a34.29,34.29,0,0,0-16.1,11.885q-5.837,8.016-5.838,19.254a31.785,31.785,0,0,0,5.307,18.426,33.632,33.632,0,0,0,12.541,10.864H187.1A34.747,34.747,0,0,0,200,309.393a35.786,35.786,0,0,0,5.042-18.976,29.084,29.084,0,0,0-1.681-9.858,26.257,26.257,0,0,0-4.864-8.385,24.038,24.038,0,0,0-7.694-5.9,25.072,25.072,0,0,0-10.348-2.4v-.369a23.836,23.836,0,0,0,8.314-3.039,25.818,25.818,0,0,0,6.986-6.172,29.611,29.611,0,0,0,4.864-9.121,37.17,37.17,0,0,0,1.77-11.885,32.152,32.152,0,0,0-3.981-15.845,29.136,29.136,0,0,0-11.939-11.516q-7.96-4.328-20.164-4.33a46.232,46.232,0,0,0-17.778,3.316,39.7,39.7,0,0,0-13.708,9.213,38.62,38.62,0,0,0-8.49,13.635l13.443,6.633a34.083,34.083,0,0,1,9.2-13.727q5.837-5.065,16.981-5.066,10.434,0,16.1,4.974t5.66,14.555q0,11.241-5.483,16.492t-18.4,5.25h-2.741a26.877,26.877,0,0,1-3.1-.183v14.74a45.417,45.417,0,0,1,4.776-.461q2.3-.09,4.245-.092,8.313,0,13.443,2.119a14.47,14.47,0,0,1,7.518,6.541,23.077,23.077,0,0,1,2.387,11.055,23.6,23.6,0,0,1-2.83,11.7,20.453,20.453,0,0,1-8.136,8.016,26.621,26.621,0,0,1-13.089,2.947q-9.2,0-15.3-2.763a24.357,24.357,0,0,1-9.816-7.831,40,40,0,0,1-5.837-11.884L121.2,298.338a37.876,37.876,0,0,0,16.186,21.1c1.305.836,2.647,1.6,4.018,2.3H95.967A35.2,35.2,0,0,0,111.826,303.5a45.5,45.5,0,0,0,3.007-16.952,44.122,44.122,0,0,0-4.6-20.634A33.623,33.623,0,0,0,97.41,252.184,37.247,37.247,0,0,0,78.042,247.3a41.017,41.017,0,0,0-15.831,2.764,30.481,30.481,0,0,0-10.878,7.369h-.354l.354-1.658,4.6-38.324h53.6V203.633H43.9l-6.9,66.883,12.381,2.4a24.128,24.128,0,0,1,6.721-6.819,27.733,27.733,0,0,1,8.756-3.777,44.005,44.005,0,0,1,10.525-1.2,28.117,28.117,0,0,1,13.443,2.947,19.719,19.719,0,0,1,8.4,8.752q2.921,5.8,2.919,14.465a28.52,28.52,0,0,1-3.183,13.91,22.042,22.042,0,0,1-8.933,8.937,28.637,28.637,0,0,1-13.886,3.131q-11.5,0-17.422-5.988a36.2,36.2,0,0,1-8.756-15.568l-13.8,7.554q5.129,13.085,14.594,20.451a30.494,30.494,0,0,0,2.951,2.021H18.425V18.425H321.732Z"/>
      </g>
    </g>
</svg>
