<svg xmlns="http://www.w3.org/2000/svg" width="120mm" height="120mm" viewBox="0 0 340.158 340.157">
  <g id="Zimmernummer">
      <g id="Z-04-423-E">
        <path fill="#A09f9d" stroke="none" d="M337.323,0H2.835A2.836,2.836,0,0,0,0,2.835V337.323a2.834,2.834,0,0,0,2.835,2.834H337.323a2.834,2.834,0,0,0,2.835-2.834V2.835A2.836,2.836,0,0,0,337.323,0ZM89.892,280.65H47.971l30.6-44.774q2.828-4.236,6.192-9.949t5.483-10.318H90.6q-.18,4.792-.443,9.766t-.265,9.764Zm231.84,41.082H281.551a34.743,34.743,0,0,0,12.9-12.339,35.8,35.8,0,0,0,5.041-18.977,29.039,29.039,0,0,0-1.681-9.858,26.234,26.234,0,0,0-4.864-8.384,24,24,0,0,0-7.694-5.9,25.056,25.056,0,0,0-10.348-2.4v-.369a23.843,23.843,0,0,0,8.314-3.04,25.774,25.774,0,0,0,6.987-6.172,29.578,29.578,0,0,0,4.864-9.121,37.16,37.16,0,0,0,1.769-11.884,32.146,32.146,0,0,0-3.98-15.845,29.13,29.13,0,0,0-11.939-11.516q-7.961-4.328-20.165-4.33a46.227,46.227,0,0,0-17.777,3.316,39.7,39.7,0,0,0-13.708,9.213,38.607,38.607,0,0,0-8.49,13.634l13.443,6.634a34.066,34.066,0,0,1,9.2-13.727q5.837-5.067,16.98-5.067,10.434,0,16.1,4.974t5.66,14.556q0,11.241-5.483,16.491t-18.4,5.251h-2.742a26.673,26.673,0,0,1-3.1-.184v14.74a45.451,45.451,0,0,1,4.777-.46q2.3-.09,4.245-.093,8.311,0,13.442,2.119a14.478,14.478,0,0,1,7.518,6.541,23.056,23.056,0,0,1,2.388,11.055,23.606,23.606,0,0,1-2.83,11.7,20.464,20.464,0,0,1-8.136,8.015,26.625,26.625,0,0,1-13.09,2.948q-9.2,0-15.3-2.763a24.362,24.362,0,0,1-9.817-7.832,40.028,40.028,0,0,1-5.837-11.883l-14.151,7.554a37.875,37.875,0,0,0,16.185,21.1c1.306.837,2.648,1.6,4.019,2.3H208.932V311.419h-40.86q-1.769,0-5.218.093t-6.9.184q-3.45.094-5.395.276v-.183q20.869-14.554,33.077-26.533t17.511-22.939a50.856,50.856,0,0,0,5.307-22.387,42.142,42.142,0,0,0-2.742-15.477,34.4,34.4,0,0,0-7.871-12.069,35.4,35.4,0,0,0-12.293-7.83,44.684,44.684,0,0,0-16.185-2.764q-11.853,0-20.43,4.606a35.527,35.527,0,0,0-13.62,12.714,48.782,48.782,0,0,0-6.633,18.794l12.381,7.738q1.238-13.633,8.491-21.834t19.28-8.2q11.5,0,18.131,6.725t6.633,17.6a41.286,41.286,0,0,1-3.007,15.57,58.848,58.848,0,0,1-10.082,15.753,175.935,175.935,0,0,1-18.838,18.425q-11.766,10.135-29.275,23.584v8.47H104.043V293.363h20.694V280.65H104.043V203.632H86.178L32.936,282.493v10.87H89.892v28.369H18.425V18.425H321.732Z"/>
      </g>
    </g>
</svg>
