<svg xmlns="http://www.w3.org/2000/svg" width="120mm" height="120mm" viewBox="0 0 340.158 340.157">
  <g id="Zimmernummer">
      <g id="Z-04-248-R">
        <path fill="#A0552B" stroke="none" d="M337.323,0H2.835A2.836,2.836,0,0,0,0,2.835V337.323a2.834,2.834,0,0,0,2.835,2.834H337.323a2.834,2.834,0,0,0,2.835-2.834V2.835A2.836,2.836,0,0,0,337.323,0ZM173.3,280.651H131.375l30.6-44.774q2.826-4.236,6.191-9.949t5.482-10.318H174q-.178,4.792-.442,9.765t-.265,9.764Zm70.84-9.49a41.426,41.426,0,0,1,29.274,0,21.78,21.78,0,0,1,9.64,7.738,21.219,21.219,0,0,1-9.464,31.691,42.4,42.4,0,0,1-29.628,0,21.772,21.772,0,0,1-9.551-31.691A21.7,21.7,0,0,1,244.136,271.161Zm-7.872-35.836q0-9.211,6.1-14.371t16.362-5.161q10.434,0,16.449,5.161t6.014,14.371q0,9.029-6.191,14.187t-16.272,5.158q-10.083,0-16.274-5.158T236.264,235.325Zm85.468,86.407H283.4a33.788,33.788,0,0,0,12.473-10.864,31.785,31.785,0,0,0,5.306-18.426q0-11.423-5.926-19.346A35.347,35.347,0,0,0,279.423,261.3v-.183a27.771,27.771,0,0,0,12.117-10.78,30.993,30.993,0,0,0,4.334-16.49,30.659,30.659,0,0,0-4.6-17.043,30.139,30.139,0,0,0-12.913-10.963,51.527,51.527,0,0,0-39.179,0,30.024,30.024,0,0,0-13,10.963q-4.6,7.1-4.6,17.043a30.4,30.4,0,0,0,4.511,16.676A27.9,27.9,0,0,0,238.21,261.12v.183a34.29,34.29,0,0,0-16.1,11.885q-5.836,8.016-5.837,19.254a31.777,31.777,0,0,0,5.306,18.426,33.629,33.629,0,0,0,12.54,10.864H187.446V293.364h20.7V280.651h-20.7V203.633H169.582l-53.242,78.86v10.871H173.3v28.368H114.75V311.42H73.89q-1.771,0-5.219.092t-6.9.184q-3.449.1-5.4.277v-.183q20.87-14.556,33.077-26.534t17.511-22.939a50.856,50.856,0,0,0,5.307-22.387,42.137,42.137,0,0,0-2.742-15.476,34.387,34.387,0,0,0-7.871-12.069,35.388,35.388,0,0,0-12.293-7.83,44.658,44.658,0,0,0-16.185-2.765q-11.853,0-20.43,4.607a35.524,35.524,0,0,0-13.62,12.713A48.8,48.8,0,0,0,32.5,237.905l12.382,7.738q1.236-13.635,8.49-21.834t19.28-8.2q11.5,0,18.131,6.724t6.633,17.6a41.282,41.282,0,0,1-3.007,15.57,58.852,58.852,0,0,1-10.082,15.754,175.937,175.937,0,0,1-18.838,18.424q-11.766,10.137-29.274,23.584v8.47H18.425V18.425H321.732Z"/>
      </g>
    </g>
</svg>
