<svg xmlns="http://www.w3.org/2000/svg" width="120mm" height="120mm" viewBox="0 0 340.158 340.158">
  <g id="Zimmernummer">
      <g id="Z-04-249-E">
        <path fill="#A09f9d" stroke="none" d="M337.323,0H2.835A2.836,2.836,0,0,0,0,2.835V337.323a2.836,2.836,0,0,0,2.835,2.835H337.323a2.836,2.836,0,0,0,2.835-2.835V2.835A2.836,2.836,0,0,0,337.323,0ZM173.208,280.65H131.287l30.6-44.773q2.826-4.236,6.191-9.949t5.483-10.319h.354q-.178,4.794-.442,9.766t-.266,9.765Zm148.524,41.082H278.691c.979-.57,1.936-1.175,2.856-1.836q9.991-7.186,15.123-21.1t5.13-34.362q0-18.425-5.13-32.521t-15.212-22.11q-10.082-8.016-24.763-8.016-12.561,0-21.579,5.067a34.106,34.106,0,0,0-13.8,14.188q-4.776,9.12-4.776,21.649,0,11.609,4.953,20.084a34.227,34.227,0,0,0,13.8,13.174,42.7,42.7,0,0,0,20.342,4.7,41.491,41.491,0,0,0,13.178-2.211,31.612,31.612,0,0,0,11.939-7.278A27.345,27.345,0,0,0,288.18,257.8h.708v1.658a149,149,0,0,1-1.5,22.11,57.358,57.358,0,0,1-5.041,17.044,26.106,26.106,0,0,1-9.64,10.87q-6.1,3.78-15.3,3.778-11.324,0-17.777-5.9a33.087,33.087,0,0,1-9.286-15.477l-13.974,7.738q5.128,13.452,15.566,20.452,1.314.882,2.693,1.652H187.359V293.363h20.695V280.65H187.359V203.633H169.494l-53.242,78.86v10.87h56.956v28.369H114.662V311.42H73.8q-1.77,0-5.218.093t-6.9.183q-3.45.1-5.4.277v-.184q20.869-14.553,33.077-26.532t17.511-22.94a50.848,50.848,0,0,0,5.306-22.386,42.123,42.123,0,0,0-2.742-15.478,34.392,34.392,0,0,0-7.871-12.068,35.364,35.364,0,0,0-12.293-7.83,44.679,44.679,0,0,0-16.185-2.765q-11.851,0-20.429,4.606A35.53,35.53,0,0,0,39.044,219.11,48.8,48.8,0,0,0,32.412,237.9l12.381,7.739q1.236-13.633,8.491-21.834t19.279-8.2q11.5,0,18.131,6.726t6.633,17.6A41.281,41.281,0,0,1,94.32,255.5a58.837,58.837,0,0,1-10.082,15.754A176.031,176.031,0,0,1,65.4,289.679q-11.766,10.135-29.274,23.584v8.469h-17.7V18.425H321.732ZM282.343,241.4a25.893,25.893,0,0,1-3.184,12.991,22.948,22.948,0,0,1-8.932,8.843,26.837,26.837,0,0,1-13.355,3.225q-11.675,0-18.573-6.357t-6.9-17.227q0-12.714,6.545-19.808t18.926-7.093a27.488,27.488,0,0,1,13.355,3.132,22.206,22.206,0,0,1,8.932,8.844A27.185,27.185,0,0,1,282.343,241.4Z"/>
      </g>
    </g>
</svg>
