<svg xmlns="http://www.w3.org/2000/svg" width="120mm" height="120mm" viewBox="0 0 340.158 340.157">
  <g id="Zimmernummer">
      <g id="Z-04-068-E">
        <path fill="#A09f9d" stroke="none" d="M337.323,0H2.835A2.836,2.836,0,0,0,0,2.835V337.323a2.834,2.834,0,0,0,2.835,2.834H337.323a2.834,2.834,0,0,0,2.835-2.834V2.835A2.836,2.836,0,0,0,337.323,0ZM132.608,300.274a24.311,24.311,0,0,1-3.5-12.807,25.08,25.08,0,0,1,3.317-12.99,23.5,23.5,0,0,1,9.305-8.844,28.926,28.926,0,0,1,13.91-3.224,31.063,31.063,0,0,1,14.372,3.041,21.226,21.226,0,0,1,9.029,8.66,27.045,27.045,0,0,1,3.132,13.357q0,11.981-7,18.7T155.639,312.9a26.849,26.849,0,0,1-13.542-3.41A25.746,25.746,0,0,1,132.608,300.274Zm108.614-29.113a44.837,44.837,0,0,1,30.494,0,22.53,22.53,0,0,1,10.041,7.738,22,22,0,0,1,.093,23.953,21.87,21.87,0,0,1-9.95,7.738,45.893,45.893,0,0,1-30.862,0A21.789,21.789,0,0,1,231,302.852a21.994,21.994,0,0,1,.092-23.953A22.459,22.459,0,0,1,241.222,271.161Zm-8.2-35.836q0-9.211,6.356-14.371t17.044-5.161q10.869,0,17.135,5.161t6.265,14.371q0,9.029-6.449,14.187t-16.951,5.158q-10.5,0-16.951-5.158T233.023,235.325Zm88.709,86.407H282.123a34.792,34.792,0,0,0,12.993-10.864,30.865,30.865,0,0,0,5.527-18.426q0-11.423-6.172-19.346A36.733,36.733,0,0,0,277.98,261.3v-.183A28.574,28.574,0,0,0,290.6,250.34a30.049,30.049,0,0,0,4.514-16.49,29.739,29.739,0,0,0-4.791-17.043,31.091,31.091,0,0,0-13.45-10.963q-8.662-3.87-20.452-3.869a49.95,49.95,0,0,0-20.36,3.869,30.971,30.971,0,0,0-13.542,10.963,32.327,32.327,0,0,0-.093,33.719,28.738,28.738,0,0,0,12.621,10.594v.183a35.64,35.64,0,0,0-16.766,11.885,33.5,33.5,0,0,0-.553,37.68,34.659,34.659,0,0,0,13.062,10.864H179.028a34.555,34.555,0,0,0,13.462-13.167,41.113,41.113,0,0,0,5.159-20.914q0-12.159-5.067-21a34.385,34.385,0,0,0-14.28-13.635q-9.215-4.79-21.557-4.791a42.686,42.686,0,0,0-13.542,2.305,34.747,34.747,0,0,0-12.346,7.185,25.087,25.087,0,0,0-7.462,12.805h-.736V267.2a92.028,92.028,0,0,1,2.118-20.268,54.629,54.629,0,0,1,6.357-16.4,33.49,33.49,0,0,1,10.318-10.963,25.07,25.07,0,0,1,14-3.961q10.87,0,17.044,4.883a27.329,27.329,0,0,1,8.936,13.357l13.634-6.449a46.591,46.591,0,0,0-9.028-14.647,32.838,32.838,0,0,0-12.621-8.293,49.47,49.47,0,0,0-17.044-2.671,42.7,42.7,0,0,0-24.229,7.187q-10.779,7.183-17.043,21.1t-6.265,34.363q0,18.24,5.344,32.336t15.845,22.2a37.109,37.109,0,0,0,4.109,2.757H18.425V18.425H321.732Z"/>
      </g>
    </g>
</svg>
