<svg xmlns="http://www.w3.org/2000/svg" width="120mm" height="120mm" viewBox="0 0 340.158 340.158">
  <g id="Zimmernummer">
      <g id="Z-04-447-M">
        <path fill="#D4AF37" stroke="none" d="M337.323,0H2.835A2.836,2.836,0,0,0,0,2.835V337.323a2.836,2.836,0,0,0,2.835,2.835H337.323a2.836,2.836,0,0,0,2.835-2.835V2.835A2.836,2.836,0,0,0,337.323,0ZM99.09,280.651H57.169l30.6-44.774q2.828-4.236,6.19-9.949t5.484-10.318H99.8q-.178,4.792-.442,9.765t-.266,9.765Zm34.846,12.713h53.77v28.368H113.24V293.364h20.7Zm54.036-67.989q-.266,4.976-.266,9.765v45.511H145.785l30.6-44.774q2.827-4.236,6.191-9.949t5.484-10.318h.353Q188.236,220.4,187.972,225.375Zm133.76,96.357H259.387a171.711,171.711,0,0,1,4.2-35.554,139.2,139.2,0,0,1,13.531-35.469,173.3,173.3,0,0,1,23.967-33.256v-13.82H215.122v13.82h70.584a164.52,164.52,0,0,0-21.234,30.033,156.123,156.123,0,0,0-14.77,37.679,165.513,165.513,0,0,0-4.812,36.567H201.858V293.364h20.694V280.651H201.858V203.633H183.992l-52,77.018H113.24V203.633H95.375L42.134,282.494v10.87H99.09v28.368H18.425V18.425H321.732Z"/>
      </g>
    </g>
</svg>
