<svg xmlns="http://www.w3.org/2000/svg" width="120mm" height="120mm" viewBox="0 0 340.158 340.158">
  <g id="Zimmernummer">
      <g id="Z-04-639">
        <path fill="#000000" stroke="none" d="M337.323,0H2.835A2.836,2.836,0,0,0,0,2.835V337.323a2.836,2.836,0,0,0,2.835,2.835H337.323a2.836,2.836,0,0,0,2.835-2.835V2.835A2.836,2.836,0,0,0,337.323,0ZM56.729,300.273a25.082,25.082,0,0,1-3.361-12.805,25.9,25.9,0,0,1,3.185-12.99,22.957,22.957,0,0,1,8.932-8.844,26.85,26.85,0,0,1,13.355-3.225,28.852,28.852,0,0,1,13.8,3.04,20.784,20.784,0,0,1,8.667,8.66,27.95,27.95,0,0,1,3.007,13.359q0,11.979-6.722,18.7T78.84,312.9a24.992,24.992,0,0,1-22.111-12.622Zm265,21.459H279.305c.98-.57,1.936-1.175,2.856-1.836q9.992-7.186,15.124-21.1t5.13-34.362q0-18.425-5.13-32.521t-15.212-22.11q-10.082-8.016-24.763-8.016-12.561,0-21.58,5.067a34.1,34.1,0,0,0-13.8,14.188q-4.778,9.12-4.777,21.649,0,11.609,4.953,20.084a34.23,34.23,0,0,0,13.8,13.174,42.7,42.7,0,0,0,20.341,4.7,41.487,41.487,0,0,0,13.178-2.211,31.589,31.589,0,0,0,11.939-7.278A27.346,27.346,0,0,0,288.8,257.8h.707v1.658a149.008,149.008,0,0,1-1.5,22.11,57.417,57.417,0,0,1-5.041,17.044,26.1,26.1,0,0,1-9.641,10.87q-6.1,3.78-15.3,3.778-11.322,0-17.778-5.9a33.1,33.1,0,0,1-9.286-15.477l-13.974,7.738q5.129,13.452,15.566,20.452,1.314.882,2.693,1.652H191.08a34.76,34.76,0,0,0,12.9-12.338,35.8,35.8,0,0,0,5.041-18.978,29.082,29.082,0,0,0-1.68-9.857,26.234,26.234,0,0,0-4.864-8.384,24.045,24.045,0,0,0-7.7-5.9,25.071,25.071,0,0,0-10.347-2.394v-.369a23.865,23.865,0,0,0,8.313-3.04,25.776,25.776,0,0,0,6.987-6.172,29.622,29.622,0,0,0,4.865-9.121,37.216,37.216,0,0,0,1.768-11.884,32.168,32.168,0,0,0-3.979-15.846,29.137,29.137,0,0,0-11.94-11.515q-7.959-4.328-20.165-4.331a46.219,46.219,0,0,0-17.776,3.317,39.692,39.692,0,0,0-13.709,9.213,38.561,38.561,0,0,0-8.49,13.634l13.443,6.633a34.069,34.069,0,0,1,9.2-13.726q5.837-5.067,16.981-5.068,10.434,0,16.1,4.975t5.661,14.556q0,11.241-5.484,16.491t-18.4,5.251h-2.742a26.636,26.636,0,0,1-3.095-.185v14.741a44.887,44.887,0,0,1,4.775-.46q2.3-.092,4.246-.093,8.311,0,13.443,2.119a14.476,14.476,0,0,1,7.517,6.541,23.065,23.065,0,0,1,2.388,11.055,23.609,23.609,0,0,1-2.83,11.7,20.458,20.458,0,0,1-8.137,8.014,26.615,26.615,0,0,1-13.089,2.949q-9.2,0-15.3-2.764a24.367,24.367,0,0,1-9.817-7.831,40.022,40.022,0,0,1-5.837-11.884l-14.15,7.555a37.873,37.873,0,0,0,16.184,21.1c1.306.836,2.648,1.6,4.019,2.3H101.292a33.846,33.846,0,0,0,12.924-13.168,42.463,42.463,0,0,0,4.953-20.913q0-12.159-4.864-21A33.641,33.641,0,0,0,100.6,253.013a42.806,42.806,0,0,0-20.7-4.791,39.5,39.5,0,0,0-13,2.3,33.07,33.07,0,0,0-11.851,7.186,25.306,25.306,0,0,0-7.163,12.806h-.708V267.2a95.592,95.592,0,0,1,2.034-20.267,56,56,0,0,1,6.1-16.4A32.977,32.977,0,0,1,65.22,219.57a23.377,23.377,0,0,1,13.443-3.961q10.434,0,16.361,4.883a27.405,27.405,0,0,1,8.579,13.359l13.089-6.45a46.934,46.934,0,0,0-8.667-14.647,31.428,31.428,0,0,0-12.116-8.292,45.766,45.766,0,0,0-16.362-2.672,39.824,39.824,0,0,0-23.26,7.187q-10.347,7.185-16.361,21.1t-6.015,34.364q0,18.24,5.13,32.335t15.212,22.2a35.536,35.536,0,0,0,3.946,2.757H18.425V18.425H321.732ZM282.958,241.4a25.893,25.893,0,0,1-3.185,12.991,22.941,22.941,0,0,1-8.932,8.843,26.832,26.832,0,0,1-13.355,3.225q-11.673,0-18.572-6.357t-6.9-17.227q0-12.714,6.545-19.808t18.925-7.093a27.483,27.483,0,0,1,13.355,3.132,22.2,22.2,0,0,1,8.932,8.844A27.185,27.185,0,0,1,282.958,241.4Z"/>
      </g>
    </g>
</svg>
