<svg xmlns="http://www.w3.org/2000/svg" width="120mm" height="120mm" viewBox="0 0 340.158 340.157">
  <g id="Zimmernummer">
      <g id="Z-04-003">
        <path fill="#000000" stroke="none" d="M339.327.831a2.833,2.833,0,0,0-2-.831H2.835A2.836,2.836,0,0,0,0,2.835V337.323a2.834,2.834,0,0,0,2.835,2.834H337.323a2.836,2.836,0,0,0,2.835-2.834V2.835A2.831,2.831,0,0,0,339.327.831Zm-17.595,320.9H281.561a35.663,35.663,0,0,0,13.658-12.456A34.712,34.712,0,0,0,300.47,290.3a28.042,28.042,0,0,0-1.751-9.858,26.027,26.027,0,0,0-5.067-8.383,24.938,24.938,0,0,0-8.015-5.9,27.014,27.014,0,0,0-10.778-2.395V263.4a25.489,25.489,0,0,0,8.66-3.04,26.534,26.534,0,0,0,7.277-6.172,29.232,29.232,0,0,0,5.067-9.121,35.8,35.8,0,0,0,1.843-11.884,31.146,31.146,0,0,0-4.146-15.846,29.839,29.839,0,0,0-12.437-11.516q-8.291-4.326-21-4.329a49.919,49.919,0,0,0-18.518,3.316,41.462,41.462,0,0,0-14.279,9.213,38.373,38.373,0,0,0-8.844,13.634l14,6.634a34.023,34.023,0,0,1,9.581-13.727q6.079-5.066,17.688-5.067,10.869,0,16.767,4.975t5.9,14.555q0,11.243-5.712,16.491t-19.162,5.251h-2.856a28.922,28.922,0,0,1-3.225-.184v14.74a49.222,49.222,0,0,1,4.976-.461q2.391-.09,4.421-.091,8.659,0,14,2.118a14.907,14.907,0,0,1,7.83,6.541,22.294,22.294,0,0,1,2.488,11.055,22.859,22.859,0,0,1-2.948,11.7,20.934,20.934,0,0,1-8.476,8.015,28.678,28.678,0,0,1-13.634,2.949q-9.584,0-15.938-2.765a25.2,25.2,0,0,1-10.226-7.83,39.415,39.415,0,0,1-6.08-11.884l-14.741,7.554a38.121,38.121,0,0,0,16.859,21.1,49.627,49.627,0,0,0,4.424,2.414H18.425V18.425H321.732Z"/>
      </g>
    </g>
</svg>
