<svg xmlns="http://www.w3.org/2000/svg" width="120mm" height="120mm" viewBox="0 0 340.158 340.158">
  <g id="Zimmernummer">
      <g id="Z-04-013-E">
        <path fill="#A09f9d" stroke="none" d="M339.327.831a2.833,2.833,0,0,0-2-.831H2.835A2.836,2.836,0,0,0,0,2.835V337.323a2.836,2.836,0,0,0,2.835,2.835H337.323a2.837,2.837,0,0,0,2.835-2.835V2.835A2.831,2.831,0,0,0,339.327.831Zm-17.595,320.9H281.561a35.655,35.655,0,0,0,13.658-12.456A34.71,34.71,0,0,0,300.47,290.3a28.033,28.033,0,0,0-1.751-9.857,26.021,26.021,0,0,0-5.067-8.384,24.938,24.938,0,0,0-8.015-5.9,27.014,27.014,0,0,0-10.778-2.395V263.4a25.512,25.512,0,0,0,8.66-3.041,26.534,26.534,0,0,0,7.277-6.172,29.238,29.238,0,0,0,5.067-9.12,35.8,35.8,0,0,0,1.843-11.885,31.14,31.14,0,0,0-4.146-15.845,29.826,29.826,0,0,0-12.437-11.516q-8.291-4.327-21-4.33a49.919,49.919,0,0,0-18.518,3.316,41.462,41.462,0,0,0-14.279,9.213,38.368,38.368,0,0,0-8.844,13.635l14,6.633a34.03,34.03,0,0,1,9.581-13.727q6.079-5.066,17.688-5.067,10.869,0,16.767,4.975t5.9,14.556q0,11.241-5.712,16.49t-19.162,5.251h-2.856a28.922,28.922,0,0,1-3.225-.184v14.741a48.65,48.65,0,0,1,4.976-.461q2.391-.092,4.421-.092,8.659,0,14,2.118a14.907,14.907,0,0,1,7.83,6.541,22.3,22.3,0,0,1,2.488,11.056,22.856,22.856,0,0,1-2.948,11.7,20.943,20.943,0,0,1-8.476,8.016,28.69,28.69,0,0,1-13.634,2.948q-9.584,0-15.938-2.764a25.215,25.215,0,0,1-10.226-7.831,39.4,39.4,0,0,1-6.08-11.884l-14.741,7.554a38.121,38.121,0,0,0,16.859,21.1,49.627,49.627,0,0,0,4.424,2.414H201.158V203.516h-12.9a37.452,37.452,0,0,1-7.37,7.185,92.463,92.463,0,0,1-10.41,6.91,95.957,95.957,0,0,1-10.687,5.343,31.982,31.982,0,0,1-8.383,2.488l3.869,13.45a67.44,67.44,0,0,0,16.951-6.541,66.161,66.161,0,0,0,14.556-10.594q-.184,3.869-.276,7.462t-.093,6.725v85.788H18.425V18.425H321.732Z"/>
      </g>
    </g>
</svg>
