<svg xmlns="http://www.w3.org/2000/svg" width="120mm" height="120mm" viewBox="0 0 340.158 340.158">
  <g id="Zimmernummer">
      <g id="Z-04-244-R">
        <path fill="#A0552B" stroke="none" d="M337.323,0H2.835A2.836,2.836,0,0,0,0,2.835V337.323a2.836,2.836,0,0,0,2.835,2.835H337.323a2.836,2.836,0,0,0,2.835-2.835V2.835A2.836,2.836,0,0,0,337.323,0ZM168.432,280.65H126.511l30.6-44.773q2.828-4.236,6.19-9.949t5.484-10.319h.354q-.178,4.794-.443,9.766t-.265,9.765Zm101.882,0h-41.92l30.6-44.773q2.827-4.236,6.191-9.949t5.483-10.319h.354q-.178,4.794-.442,9.766t-.266,9.765Zm51.418,41.082H284.465V293.363h20.7V280.65h-20.7V203.633H266.6l-53.242,78.86v10.87h56.956v28.369H182.583V293.363h20.695V280.65H182.583V203.633H164.717l-53.241,78.86v10.87h56.956v28.369H114.308V311.42H73.448q-1.77,0-5.218.093t-6.9.183q-3.45.1-5.4.277v-.184q20.868-14.553,33.076-26.532t17.512-22.94a50.861,50.861,0,0,0,5.306-22.386,42.123,42.123,0,0,0-2.742-15.478,34.392,34.392,0,0,0-7.871-12.068,35.364,35.364,0,0,0-12.293-7.83A44.679,44.679,0,0,0,72.74,201.79q-11.853,0-20.429,4.606A35.53,35.53,0,0,0,38.69,219.11,48.8,48.8,0,0,0,32.058,237.9l12.381,7.739q1.236-13.633,8.491-21.834t19.279-8.2q11.5,0,18.131,6.726t6.633,17.6A41.281,41.281,0,0,1,93.966,255.5a58.837,58.837,0,0,1-10.082,15.754,176.031,176.031,0,0,1-18.838,18.425Q53.28,299.814,35.772,313.263v8.469H18.425V18.425H321.732Z"/>
      </g>
    </g>
</svg>
