<svg xmlns="http://www.w3.org/2000/svg" width="120mm" height="120mm" viewBox="0 0 340.158 340.157">
  <g id="Zimmernummer">
      <g id="Z-04-648">
        <path fill="#000000" stroke="none" d="M337.323,0H2.835A2.836,2.836,0,0,0,0,2.835V337.323a2.834,2.834,0,0,0,2.835,2.834H337.323a2.834,2.834,0,0,0,2.835-2.834V2.835A2.836,2.836,0,0,0,337.323,0ZM49.034,300.274a25.089,25.089,0,0,1-3.36-12.807,25.9,25.9,0,0,1,3.183-12.99,22.993,22.993,0,0,1,8.933-8.844,26.871,26.871,0,0,1,13.355-3.224,28.822,28.822,0,0,1,13.8,3.041,20.762,20.762,0,0,1,8.667,8.66,27.944,27.944,0,0,1,3.007,13.357q0,11.981-6.721,18.7T71.145,312.9a24.993,24.993,0,0,1-22.111-12.621Zm129.121-19.623H136.234l30.6-44.774q2.827-4.236,6.191-9.949t5.484-10.318h.353q-.178,4.792-.442,9.765t-.266,9.764Zm74.378-9.49a41.426,41.426,0,0,1,29.274,0,21.775,21.775,0,0,1,9.64,7.738,21.22,21.22,0,0,1-9.463,31.691,42.4,42.4,0,0,1-29.628,0,21.77,21.77,0,0,1-9.551-31.691A21.7,21.7,0,0,1,252.533,271.161Zm-7.871-35.836q0-9.211,6.1-14.371t16.361-5.161q10.434,0,16.45,5.161t6.014,14.371q0,9.029-6.191,14.187t-16.273,5.158q-10.083,0-16.273-5.158T244.662,235.325Zm77.07,86.407H291.8a33.772,33.772,0,0,0,12.473-10.864,31.777,31.777,0,0,0,5.306-18.426q0-11.423-5.925-19.346A35.347,35.347,0,0,0,287.821,261.3v-.183a27.771,27.771,0,0,0,12.117-10.78,31,31,0,0,0,4.333-16.49,30.659,30.659,0,0,0-4.6-17.043,30.142,30.142,0,0,0-12.912-10.963,51.53,51.53,0,0,0-39.18,0,30.027,30.027,0,0,0-13,10.963q-4.6,7.1-4.6,17.043a30.408,30.408,0,0,0,4.511,16.676,27.9,27.9,0,0,0,12.116,10.594v.183a34.287,34.287,0,0,0-16.095,11.885q-5.838,8.016-5.838,19.254a31.785,31.785,0,0,0,5.306,18.426,33.639,33.639,0,0,0,12.541,10.864H192.307V293.364H213V280.651H192.307V203.633H174.441L121.2,282.493v10.871h56.956v28.368H93.6a33.848,33.848,0,0,0,12.923-13.167,42.483,42.483,0,0,0,4.953-20.914q0-12.159-4.865-21A33.641,33.641,0,0,0,92.9,253.012a42.82,42.82,0,0,0-20.695-4.791,39.5,39.5,0,0,0-13,2.305,33.076,33.076,0,0,0-11.851,7.185,25.312,25.312,0,0,0-7.164,12.805h-.708V267.2a95.678,95.678,0,0,1,2.035-20.268,55.983,55.983,0,0,1,6.1-16.4,32.972,32.972,0,0,1,9.905-10.963,23.368,23.368,0,0,1,13.444-3.961q10.434,0,16.361,4.883a27.411,27.411,0,0,1,8.579,13.357L109,227.4a46.934,46.934,0,0,0-8.667-14.647,31.459,31.459,0,0,0-12.116-8.293,45.767,45.767,0,0,0-16.362-2.671,39.821,39.821,0,0,0-23.26,7.187q-10.349,7.183-16.362,21.1t-6.013,34.363q0,18.24,5.129,32.336t15.212,22.2a35.512,35.512,0,0,0,3.944,2.757H18.425V18.425H321.732Z"/>
      </g>
    </g>
</svg>
