<svg xmlns="http://www.w3.org/2000/svg" width="120mm" height="120mm" viewBox="0 0 340.158 340.158">
  <g id="Zimmernummer">
      <g id="Z-04-114-R">
        <path fill="#A0552B" stroke="none" d="M337.323,0H2.835A2.836,2.836,0,0,0,0,2.835V337.323a2.836,2.836,0,0,0,2.835,2.835H337.323a2.836,2.836,0,0,0,2.835-2.835V2.835A2.836,2.836,0,0,0,337.323,0ZM241.657,280.65H199.735l30.6-44.773q2.827-4.236,6.191-9.949t5.483-10.319h.354q-.179,4.794-.442,9.766t-.265,9.765Zm80.075,41.082H255.807V293.363h20.7V280.65h-20.7V203.633H237.942L184.7,282.493v10.87h56.956v28.369h-76.59v-118.1H152.685a36.7,36.7,0,0,1-7.075,7.185,88.71,88.71,0,0,1-9.994,6.911,90.58,90.58,0,0,1-10.259,5.342,29.787,29.787,0,0,1-8.048,2.488l3.714,13.451a65.993,65.993,0,0,0,30.247-17.136q-.179,3.869-.265,7.462t-.089,6.726v85.67H102.274v-118.1H89.892a36.7,36.7,0,0,1-7.075,7.185,88.71,88.71,0,0,1-9.994,6.911,90.58,90.58,0,0,1-10.259,5.342,29.787,29.787,0,0,1-8.048,2.488L58.23,239.01a65.993,65.993,0,0,0,30.247-17.136q-.178,3.869-.265,7.462t-.089,6.726v85.67h-69.7V18.425H321.732Z"/>
      </g>
    </g>
</svg>
