<svg xmlns="http://www.w3.org/2000/svg" width="120mm" height="120mm" viewBox="0 0 340.158 340.157">
  <g id="Zimmernummer">
      <g id="Z-04-503-M">
        <path fill="#D4AF37" stroke="none" d="M337.323,0H2.835A2.836,2.836,0,0,0,0,2.835V337.323a2.834,2.834,0,0,0,2.835,2.834H337.323a2.834,2.834,0,0,0,2.835-2.834V2.835A2.836,2.836,0,0,0,337.323,0ZM142.512,291.521q-3.273-11.055-3.271-27.085t3.271-27.086q3.272-11.054,9.729-16.674a25.107,25.107,0,0,1,31.662,0q6.456,5.622,9.728,16.674t3.273,27.086q0,16.031-3.273,27.085T183.9,308.2a25.111,25.111,0,0,1-31.662,0Q145.782,302.577,142.512,291.521Zm179.22,30.211H280.667a34.75,34.75,0,0,0,12.9-12.339,35.8,35.8,0,0,0,5.041-18.977,29.088,29.088,0,0,0-1.681-9.858,26.234,26.234,0,0,0-4.864-8.384,24.024,24.024,0,0,0-7.694-5.9,25.056,25.056,0,0,0-10.348-2.4v-.369a23.838,23.838,0,0,0,8.313-3.04,25.777,25.777,0,0,0,6.988-6.172,29.641,29.641,0,0,0,4.864-9.121,37.188,37.188,0,0,0,1.769-11.884,32.157,32.157,0,0,0-3.98-15.845,29.142,29.142,0,0,0-11.939-11.516q-7.961-4.328-20.165-4.33a46.22,46.22,0,0,0-17.777,3.316,39.7,39.7,0,0,0-13.708,9.213,38.624,38.624,0,0,0-8.491,13.634L233.34,234.4a34.077,34.077,0,0,1,9.2-13.727q5.835-5.067,16.98-5.067,10.434,0,16.1,4.974t5.661,14.556q0,11.241-5.484,16.491t-18.4,5.251h-2.741a26.673,26.673,0,0,1-3.1-.184v14.74a45.408,45.408,0,0,1,4.776-.46q2.3-.09,4.246-.093,8.312,0,13.442,2.119a14.478,14.478,0,0,1,7.518,6.541,23.08,23.08,0,0,1,2.387,11.055,23.6,23.6,0,0,1-2.83,11.7,20.464,20.464,0,0,1-8.136,8.015,26.621,26.621,0,0,1-13.089,2.948q-9.2,0-15.3-2.763a24.366,24.366,0,0,1-9.818-7.832,40.028,40.028,0,0,1-5.837-11.883l-14.15,7.554a37.875,37.875,0,0,0,16.185,21.1c1.306.837,2.648,1.6,4.019,2.3H188.4a39.846,39.846,0,0,0,11.428-10.681q11.761-16.029,11.762-46.615T199.823,217.82q-11.766-16.03-31.751-16.03-19.812,0-31.661,16.03t-11.852,46.616q0,30.587,11.852,46.615a40.286,40.286,0,0,0,11.452,10.681H98.974A35.212,35.212,0,0,0,114.833,303.5a45.508,45.508,0,0,0,3.007-16.952,44.15,44.15,0,0,0-4.6-20.635,33.638,33.638,0,0,0-12.825-13.727A37.248,37.248,0,0,0,81.048,247.3a41.034,41.034,0,0,0-15.83,2.764,30.478,30.478,0,0,0-10.879,7.37h-.353l.353-1.658,4.6-38.324h53.6v-13.82H46.911l-6.9,66.884,12.382,2.4a24.088,24.088,0,0,1,6.722-6.818,27.685,27.685,0,0,1,8.755-3.777,43.959,43.959,0,0,1,10.525-1.2,28.11,28.11,0,0,1,13.442,2.948,19.723,19.723,0,0,1,8.4,8.752q2.918,5.8,2.918,14.464a28.51,28.51,0,0,1-3.184,13.911,22.021,22.021,0,0,1-8.933,8.936,28.629,28.629,0,0,1-13.884,3.132q-11.5,0-17.423-5.988a36.211,36.211,0,0,1-8.756-15.569l-13.8,7.554q5.128,13.086,14.593,20.452a30.494,30.494,0,0,0,2.951,2.021h-36.3V18.425H321.732Z"/>
      </g>
    </g>
</svg>
