<svg xmlns="http://www.w3.org/2000/svg" width="120mm" height="120mm" viewBox="0 0 340.158 340.157">
  <g id="Zimmernummer">
      <g id="Z-04-641-M">
        <path fill="#D4AF37" stroke="none" d="M337.323,0H2.835A2.834,2.834,0,0,0,0,2.835V337.323a2.834,2.834,0,0,0,2.835,2.834H337.323a2.834,2.834,0,0,0,2.835-2.834V2.835A2.834,2.834,0,0,0,337.323,0ZM56.9,300.273a25.082,25.082,0,0,1-3.361-12.805,25.9,25.9,0,0,1,3.185-12.99,22.957,22.957,0,0,1,8.932-8.844,26.85,26.85,0,0,1,13.355-3.225,28.852,28.852,0,0,1,13.8,3.04,20.784,20.784,0,0,1,8.667,8.66,27.95,27.95,0,0,1,3.006,13.359q0,11.979-6.721,18.7T79.009,312.9A24.992,24.992,0,0,1,56.9,300.273ZM186.02,280.65H144.1l30.6-44.773q2.827-4.236,6.191-9.949t5.483-10.319h.355q-.18,4.794-.443,9.766t-.265,9.765Zm135.712,41.082H275.7v-118.1H263.315a36.647,36.647,0,0,1-7.075,7.185,88.619,88.619,0,0,1-9.994,6.911,90.58,90.58,0,0,1-10.259,5.342,29.787,29.787,0,0,1-8.048,2.488l3.714,13.451A65.98,65.98,0,0,0,261.9,221.874q-.178,3.869-.265,7.462t-.088,6.726v85.67H200.17V293.363h20.7V280.65h-20.7V203.633H182.305l-53.242,78.86v10.87H186.02v28.369H101.461a33.846,33.846,0,0,0,12.924-13.168,42.463,42.463,0,0,0,4.953-20.913q0-12.159-4.864-21a33.641,33.641,0,0,0-13.709-13.634,42.807,42.807,0,0,0-20.7-4.791,39.5,39.5,0,0,0-13,2.3,33.062,33.062,0,0,0-11.851,7.186,25.314,25.314,0,0,0-7.164,12.806h-.707V267.2a95.592,95.592,0,0,1,2.034-20.267,56,56,0,0,1,6.1-16.4,32.977,32.977,0,0,1,9.906-10.964,23.377,23.377,0,0,1,13.443-3.961q10.434,0,16.361,4.883a27.4,27.4,0,0,1,8.578,13.359l13.09-6.45a46.953,46.953,0,0,0-8.667-14.647,31.431,31.431,0,0,0-12.117-8.292,45.757,45.757,0,0,0-16.361-2.672,39.819,39.819,0,0,0-23.26,7.187q-10.347,7.185-16.361,21.1T34.08,264.437q0,18.24,5.13,32.335t15.212,22.2a35.524,35.524,0,0,0,3.945,2.757H18.425V18.425H321.732Z"/>
      </g>
    </g>
</svg>
