<svg xmlns="http://www.w3.org/2000/svg" width="120mm" height="120mm" viewBox="0 0 340.158 340.158">
  <g id="Zimmernummer">
      <g id="Z-04-064-M">
        <path fill="#D4AF37" stroke="none" d="M337.323,0H2.835A2.836,2.836,0,0,0,0,2.835V337.323a2.836,2.836,0,0,0,2.835,2.835H337.323a2.836,2.836,0,0,0,2.835-2.835V2.835A2.836,2.836,0,0,0,337.323,0ZM130.766,300.273a24.312,24.312,0,0,1-3.5-12.805,25.086,25.086,0,0,1,3.316-12.99,23.482,23.482,0,0,1,9.305-8.844,28.907,28.907,0,0,1,13.911-3.225,31.086,31.086,0,0,1,14.371,3.04,21.232,21.232,0,0,1,9.029,8.66,27.039,27.039,0,0,1,3.132,13.359q0,11.979-7,18.7T153.8,312.9a26.855,26.855,0,0,1-13.543-3.41A25.733,25.733,0,0,1,130.766,300.273ZM268.032,280.65H224.364l31.876-44.773q2.944-4.236,6.448-9.949a116.878,116.878,0,0,0,5.712-10.319h.369q-.186,4.794-.461,9.766t-.276,9.765Zm53.7,41.082h-38.96V293.363h21.557V280.65H282.772V203.633H264.163l-55.46,78.86v10.87h59.329v28.369H177.186a34.544,34.544,0,0,0,13.462-13.168,41.1,41.1,0,0,0,5.159-20.913q0-12.159-5.067-21a34.381,34.381,0,0,0-14.279-13.634q-9.216-4.791-21.558-4.791a42.682,42.682,0,0,0-13.542,2.3,34.746,34.746,0,0,0-12.345,7.186,25.068,25.068,0,0,0-7.462,12.806h-.737V267.2a91.944,91.944,0,0,1,2.119-20.267,54.588,54.588,0,0,1,6.356-16.4A33.525,33.525,0,0,1,139.61,219.57a25.092,25.092,0,0,1,14-3.961q10.869,0,17.043,4.883a27.33,27.33,0,0,1,8.936,13.359l13.635-6.45a46.609,46.609,0,0,0-9.028-14.647,32.824,32.824,0,0,0-12.622-8.292,49.467,49.467,0,0,0-17.043-2.672,42.7,42.7,0,0,0-24.229,7.187q-10.779,7.185-17.044,21.1T107,264.437q0,18.24,5.343,32.335t15.846,22.2a37.028,37.028,0,0,0,4.11,2.757H18.425V18.425H321.732Z"/>
      </g>
    </g>
</svg>
