<svg xmlns="http://www.w3.org/2000/svg" width="120mm" height="120mm" viewBox="0 0 340.158 340.157">
  <g id="Zimmernummer">
      <g id="Z-04-038-M">
        <path fill="#D4AF37" stroke="none" d="M337.323,0H2.835A2.836,2.836,0,0,0,0,2.835V337.323a2.834,2.834,0,0,0,2.835,2.834H337.323a2.834,2.834,0,0,0,2.835-2.834V2.835A2.836,2.836,0,0,0,337.323,0Zm-96.1,271.161a44.837,44.837,0,0,1,30.494,0,22.538,22.538,0,0,1,10.042,7.738,21.994,21.994,0,0,1,.092,23.953,21.87,21.87,0,0,1-9.95,7.738,45.893,45.893,0,0,1-30.862,0A21.789,21.789,0,0,1,231,302.852a21.994,21.994,0,0,1,.092-23.953A22.459,22.459,0,0,1,241.222,271.161Zm-8.2-35.836q0-9.211,6.357-14.371t17.043-5.161q10.869,0,17.136,5.161t6.264,14.371q0,9.029-6.449,14.187t-16.951,5.158q-10.5,0-16.951-5.158T233.023,235.325Zm88.709,86.407H282.123a34.784,34.784,0,0,0,12.993-10.864,30.866,30.866,0,0,0,5.528-18.426q0-11.423-6.173-19.346A36.733,36.733,0,0,0,277.98,261.3v-.183A28.574,28.574,0,0,0,290.6,250.34a30.049,30.049,0,0,0,4.514-16.49,29.739,29.739,0,0,0-4.791-17.043,31.086,31.086,0,0,0-13.45-10.963q-8.662-3.87-20.452-3.869a49.953,49.953,0,0,0-20.36,3.869,30.977,30.977,0,0,0-13.542,10.963,32.324,32.324,0,0,0-.092,33.719A28.727,28.727,0,0,0,235.05,261.12v.183a35.638,35.638,0,0,0-16.767,11.885,33.5,33.5,0,0,0-.553,37.68,34.654,34.654,0,0,0,13.063,10.864H178.036a35.6,35.6,0,0,0,13.44-12.339,34.7,34.7,0,0,0,5.251-18.976,28.029,28.029,0,0,0-1.75-9.858,26.011,26.011,0,0,0-5.068-8.385,24.945,24.945,0,0,0-8.014-5.9,27.023,27.023,0,0,0-10.779-2.4v-.369a25.475,25.475,0,0,0,8.659-3.039,26.577,26.577,0,0,0,7.279-6.172,29.284,29.284,0,0,0,5.067-9.121,35.833,35.833,0,0,0,1.842-11.885,31.145,31.145,0,0,0-4.146-15.845,29.82,29.82,0,0,0-12.437-11.516q-8.29-4.328-21-4.33a49.917,49.917,0,0,0-18.517,3.316,41.486,41.486,0,0,0-14.279,9.213,38.419,38.419,0,0,0-8.845,13.635l14,6.633a34.049,34.049,0,0,1,9.581-13.727q6.081-5.065,17.688-5.066,10.869,0,16.767,4.974t5.9,14.555q0,11.241-5.712,16.492t-19.162,5.25H150.94a29.126,29.126,0,0,1-3.224-.183v14.74a49.237,49.237,0,0,1,4.974-.461q2.392-.09,4.422-.092,8.66,0,14,2.119a14.9,14.9,0,0,1,7.83,6.541,22.305,22.305,0,0,1,2.488,11.055,22.856,22.856,0,0,1-2.948,11.7,20.923,20.923,0,0,1-8.476,8.016,28.68,28.68,0,0,1-13.635,2.947q-9.582,0-15.937-2.763a25.215,25.215,0,0,1-10.226-7.831,39.381,39.381,0,0,1-6.081-11.884l-14.739,7.554a38.109,38.109,0,0,0,16.858,21.1c1.36.836,2.758,1.6,4.186,2.3H18.425V18.425H321.732Z"/>
      </g>
    </g>
</svg>
