<svg xmlns="http://www.w3.org/2000/svg" width="120mm" height="120mm" viewBox="0 0 340.158 340.158">
  <g id="Zimmernummer">
      <g id="Z-04-439-E">
        <path fill="#A09f9d" stroke="none" d="M337.323,0H2.835A2.836,2.836,0,0,0,0,2.835V337.323a2.836,2.836,0,0,0,2.835,2.835H337.323a2.836,2.836,0,0,0,2.835-2.835V2.835A2.836,2.836,0,0,0,337.323,0ZM85.116,280.65H43.2l30.6-44.773q2.827-4.236,6.191-9.949t5.483-10.319h.354q-.178,4.794-.442,9.766t-.266,9.765Zm236.616,41.082H281.338c.98-.57,1.936-1.175,2.856-1.836q9.99-7.186,15.123-21.1t5.13-34.362q0-18.425-5.13-32.521t-15.212-22.11q-10.08-8.016-24.762-8.016-12.563,0-21.58,5.067a34.106,34.106,0,0,0-13.8,14.188q-4.776,9.12-4.776,21.649,0,11.609,4.953,20.084a34.227,34.227,0,0,0,13.8,13.174,42.7,42.7,0,0,0,20.342,4.7,41.482,41.482,0,0,0,13.178-2.211,31.6,31.6,0,0,0,11.939-7.278,27.345,27.345,0,0,0,7.429-13.358h.708v1.658a148.866,148.866,0,0,1-1.5,22.11,57.358,57.358,0,0,1-5.041,17.044,26.1,26.1,0,0,1-9.639,10.87q-6.1,3.78-15.3,3.778-11.322,0-17.777-5.9a33.1,33.1,0,0,1-9.286-15.477l-13.973,7.738q5.128,13.452,15.565,20.452,1.314.882,2.693,1.652h-47.7a34.75,34.75,0,0,0,12.9-12.338,35.8,35.8,0,0,0,5.041-18.978,29.083,29.083,0,0,0-1.681-9.857,26.234,26.234,0,0,0-4.864-8.384,24.034,24.034,0,0,0-7.7-5.9,25.071,25.071,0,0,0-10.347-2.394v-.369a23.865,23.865,0,0,0,8.313-3.04,25.776,25.776,0,0,0,6.987-6.172,29.622,29.622,0,0,0,4.865-9.121,37.216,37.216,0,0,0,1.768-11.884,32.158,32.158,0,0,0-3.98-15.846,29.125,29.125,0,0,0-11.94-11.515q-7.957-4.328-20.164-4.331A46.219,46.219,0,0,0,151,204.923a39.682,39.682,0,0,0-13.709,9.213,38.575,38.575,0,0,0-8.49,13.634l13.443,6.633a34.069,34.069,0,0,1,9.2-13.726q5.836-5.067,16.981-5.068,10.434,0,16.1,4.975t5.661,14.556q0,11.241-5.484,16.491t-18.4,5.251h-2.742a26.649,26.649,0,0,1-3.095-.185v14.741a44.862,44.862,0,0,1,4.775-.46q2.3-.092,4.245-.093,8.313,0,13.444,2.119a14.472,14.472,0,0,1,7.517,6.541,23.065,23.065,0,0,1,2.388,11.055,23.609,23.609,0,0,1-2.83,11.7,20.458,20.458,0,0,1-8.137,8.014,26.615,26.615,0,0,1-13.089,2.949q-9.2,0-15.3-2.764a24.364,24.364,0,0,1-9.816-7.831,40.046,40.046,0,0,1-5.837-11.884l-14.151,7.555a37.879,37.879,0,0,0,16.185,21.1c1.306.836,2.648,1.6,4.019,2.3H99.267V293.363h20.7V280.65h-20.7V203.633H81.4L28.16,282.493v10.87H85.116v28.369H18.425V18.425H321.732ZM284.99,241.4a25.9,25.9,0,0,1-3.183,12.991,22.957,22.957,0,0,1-8.933,8.843,26.836,26.836,0,0,1-13.354,3.225q-11.676,0-18.574-6.357t-6.9-17.227q0-12.714,6.545-19.808t18.927-7.093a27.487,27.487,0,0,1,13.354,3.132,22.215,22.215,0,0,1,8.933,8.844A27.2,27.2,0,0,1,284.99,241.4Z"/>
      </g>
    </g>
</svg>
