<svg xmlns="http://www.w3.org/2000/svg" width="120mm" height="120mm" viewBox="0 0 340.158 340.158">
  <g id="Zimmernummer">
      <g id="Z-04-232-E">
        <path fill="#A09f9d" stroke="none" d="M337.323,0H2.835A2.836,2.836,0,0,0,0,2.835V337.323a2.836,2.836,0,0,0,2.835,2.835H337.323a2.836,2.836,0,0,0,2.835-2.835V2.835A2.836,2.836,0,0,0,337.323,0ZM321.732,321.732H298.969V311.42H258.11q-1.772,0-5.219.093t-6.9.184q-3.449.094-5.395.276v-.183q20.869-14.555,33.077-26.533t17.512-22.939a50.869,50.869,0,0,0,5.306-22.387,42.142,42.142,0,0,0-2.742-15.477,34.4,34.4,0,0,0-7.871-12.069,35.388,35.388,0,0,0-12.293-7.83,44.68,44.68,0,0,0-16.185-2.764q-11.853,0-20.43,4.606a35.527,35.527,0,0,0-13.62,12.714,48.8,48.8,0,0,0-6.633,18.794l12.382,7.738q1.236-13.633,8.49-21.834t19.28-8.2q11.5,0,18.131,6.725t6.633,17.6a41.277,41.277,0,0,1-3.007,15.569,58.861,58.861,0,0,1-10.082,15.754,175.935,175.935,0,0,1-18.838,18.425q-11.766,10.135-29.274,23.584v8.469H190.112a34.757,34.757,0,0,0,12.9-12.338,35.789,35.789,0,0,0,5.041-18.977,29.088,29.088,0,0,0-1.68-9.858,26.252,26.252,0,0,0-4.864-8.384,24.017,24.017,0,0,0-7.695-5.9,25.055,25.055,0,0,0-10.347-2.395v-.369a23.845,23.845,0,0,0,8.313-3.04,25.788,25.788,0,0,0,6.987-6.172,29.6,29.6,0,0,0,4.864-9.121A37.16,37.16,0,0,0,205.4,233.3a32.157,32.157,0,0,0-3.98-15.845,29.136,29.136,0,0,0-11.939-11.516q-7.96-4.328-20.165-4.33a46.224,46.224,0,0,0-17.777,3.316,39.7,39.7,0,0,0-13.708,9.213,38.607,38.607,0,0,0-8.49,13.634l13.443,6.634a34.066,34.066,0,0,1,9.2-13.727q5.836-5.067,16.98-5.067,10.436,0,16.1,4.974t5.66,14.556q0,11.241-5.483,16.491t-18.4,5.251H164.1a26.643,26.643,0,0,1-3.1-.184v14.74a45.382,45.382,0,0,1,4.776-.46q2.3-.092,4.245-.093,8.311,0,13.443,2.119a14.476,14.476,0,0,1,7.517,6.541,23.068,23.068,0,0,1,2.388,11.055,23.606,23.606,0,0,1-2.83,11.7,20.464,20.464,0,0,1-8.136,8.015,26.622,26.622,0,0,1-13.09,2.948q-9.2,0-15.3-2.763a24.362,24.362,0,0,1-9.817-7.832,40,40,0,0,1-5.837-11.883l-14.151,7.554a37.875,37.875,0,0,0,16.185,21.1c1.305.836,2.647,1.6,4.018,2.3H117.491V311.42H76.631q-1.77,0-5.218.093t-6.9.184q-3.448.094-5.4.276v-.183Q79.99,297.236,92.2,285.257t17.511-22.939a50.856,50.856,0,0,0,5.307-22.387,42.142,42.142,0,0,0-2.742-15.477,34.4,34.4,0,0,0-7.871-12.069,35.388,35.388,0,0,0-12.293-7.83,44.68,44.68,0,0,0-16.185-2.764q-11.853,0-20.43,4.606a35.527,35.527,0,0,0-13.62,12.714,48.782,48.782,0,0,0-6.633,18.794l12.382,7.738q1.236-13.633,8.49-21.834t19.28-8.2q11.5,0,18.131,6.725t6.632,17.6A41.276,41.276,0,0,1,97.15,255.5a58.861,58.861,0,0,1-10.082,15.754A175.935,175.935,0,0,1,68.23,289.679q-11.766,10.135-29.275,23.584v8.469H18.425V18.425H321.732Z"/>
      </g>
    </g>
</svg>
