<svg xmlns="http://www.w3.org/2000/svg" width="120mm" height="120mm" viewBox="0 0 340.158 340.157">
  <g id="Zimmernummer">
      <g id="Z-04-040-M">
        <path fill="#D4AF37" stroke="none" d="M337.323,0H2.835A2.836,2.836,0,0,0,0,2.835V337.323a2.834,2.834,0,0,0,2.835,2.834H337.323a2.834,2.834,0,0,0,2.835-2.834V2.835A2.836,2.836,0,0,0,337.323,0ZM162.641,280.65H118.973l31.876-44.773q2.945-4.236,6.448-9.949a116.878,116.878,0,0,0,5.712-10.319h.368q-.185,4.794-.46,9.766t-.276,9.765Zm66.605,10.871q-3.411-11.055-3.409-27.084t3.409-27.086q3.408-11.055,10.134-16.674a27,27,0,0,1,32.981,0q6.725,5.622,10.134,16.674t3.409,27.086q0,16.029-3.409,27.084T272.361,308.2a27.007,27.007,0,0,1-32.981,0Q232.653,302.577,229.246,291.521Zm92.486,30.211H277.041a40.9,40.9,0,0,0,11.9-10.68q12.25-16.031,12.252-46.615T288.944,217.82q-12.257-16.029-33.073-16.03-20.639,0-32.981,16.03t-12.345,46.617q0,30.585,12.345,46.615a41.368,41.368,0,0,0,11.929,10.68H177.381V293.363h21.557V280.65H177.381V203.633h-18.61l-55.459,78.86v10.87h59.329v28.369H18.425V18.425H321.732Z"/>
      </g>
    </g>
</svg>
