<svg xmlns="http://www.w3.org/2000/svg" width="120mm" height="120mm" viewBox="0 0 340.158 340.157">
  <g id="Zimmernummer">
      <g id="Z-04-345-R">
        <path fill="#A0552B" stroke="none" d="M337.323,0H2.835A2.836,2.836,0,0,0,0,2.835V337.323a2.834,2.834,0,0,0,2.835,2.834H337.323a2.834,2.834,0,0,0,2.835-2.834V2.835A2.836,2.836,0,0,0,337.323,0Zm-156.6,280.65H138.8l30.6-44.773q2.827-4.236,6.191-9.949t5.484-10.319h.353q-.179,4.794-.442,9.766t-.266,9.765Zm141.013,41.082H284.608A35.2,35.2,0,0,0,300.467,303.5a45.5,45.5,0,0,0,3.007-16.951,44.145,44.145,0,0,0-4.6-20.636,33.627,33.627,0,0,0-12.824-13.726,37.247,37.247,0,0,0-19.368-4.883,41.055,41.055,0,0,0-15.831,2.763,30.472,30.472,0,0,0-10.878,7.371h-.354l.354-1.659,4.6-38.324h53.594V203.633H232.544l-6.9,66.884,12.382,2.395a24.094,24.094,0,0,1,6.721-6.817,27.7,27.7,0,0,1,8.756-3.778,44,44,0,0,1,10.525-1.2,28.117,28.117,0,0,1,13.443,2.948,19.719,19.719,0,0,1,8.4,8.752q2.919,5.8,2.919,14.464a28.51,28.51,0,0,1-3.184,13.911,22.03,22.03,0,0,1-8.933,8.937,28.63,28.63,0,0,1-13.885,3.132q-11.5,0-17.422-5.989a36.185,36.185,0,0,1-8.756-15.569l-13.8,7.555q5.129,13.085,14.593,20.452a30.185,30.185,0,0,0,2.951,2.02H194.87V293.363h20.695V280.65H194.87V203.633H177.005l-53.242,78.86v10.87h56.956v28.369H95.209a34.748,34.748,0,0,0,12.9-12.338,35.8,35.8,0,0,0,5.041-18.978,29.058,29.058,0,0,0-1.681-9.857,26.25,26.25,0,0,0-4.863-8.384,24.038,24.038,0,0,0-7.7-5.9,25.067,25.067,0,0,0-10.347-2.394v-.369a23.87,23.87,0,0,0,8.314-3.04,25.805,25.805,0,0,0,6.987-6.172,29.62,29.62,0,0,0,4.864-9.121A37.161,37.161,0,0,0,110.5,233.3a32.157,32.157,0,0,0-3.979-15.846,29.125,29.125,0,0,0-11.94-11.515q-7.959-4.328-20.165-4.331a46.219,46.219,0,0,0-17.776,3.317,39.687,39.687,0,0,0-13.708,9.213,38.589,38.589,0,0,0-8.49,13.634L47.882,234.4a34.079,34.079,0,0,1,9.2-13.726q5.838-5.067,16.981-5.068,10.435,0,16.1,4.975t5.66,14.556q0,11.241-5.484,16.491t-18.4,5.251H69.2a26.666,26.666,0,0,1-3.1-.185v14.741a44.88,44.88,0,0,1,4.776-.46q2.3-.092,4.245-.093,8.311,0,13.443,2.119a14.468,14.468,0,0,1,7.517,6.541A23.053,23.053,0,0,1,98.471,290.6a23.609,23.609,0,0,1-2.83,11.7,20.464,20.464,0,0,1-8.137,8.014,26.622,26.622,0,0,1-13.09,2.949q-9.2,0-15.3-2.764a24.363,24.363,0,0,1-9.818-7.831,40.07,40.07,0,0,1-5.837-11.884l-14.15,7.555a37.875,37.875,0,0,0,16.185,21.1c1.3.836,2.647,1.6,4.018,2.3H18.425V18.425H321.732Z"/>
      </g>
    </g>
</svg>
