<svg xmlns="http://www.w3.org/2000/svg" width="120mm" height="120mm" viewBox="0 0 340.158 340.157">
  <g id="Zimmernummer">
      <g id="Z-04-321-E">
        <path fill="#A09f9d" stroke="none" d="M337.323,0H2.835A2.834,2.834,0,0,0,0,2.835V337.323a2.834,2.834,0,0,0,2.835,2.834H337.323a2.834,2.834,0,0,0,2.835-2.834V2.835A2.834,2.834,0,0,0,337.323,0ZM321.732,321.732H270.66v-118.1H258.279a36.7,36.7,0,0,1-7.075,7.185,88.71,88.71,0,0,1-9.994,6.911,90.749,90.749,0,0,1-10.259,5.342,29.792,29.792,0,0,1-8.049,2.488l3.715,13.451a65.98,65.98,0,0,0,30.247-17.136q-.178,3.869-.265,7.462t-.089,6.726v85.67H213.529V311.42h-40.86q-1.77,0-5.218.093t-6.9.183q-3.45.1-5.4.277v-.184q20.87-14.553,33.077-26.532t17.511-22.94a50.849,50.849,0,0,0,5.307-22.386,42.164,42.164,0,0,0-2.741-15.478,34.425,34.425,0,0,0-7.873-12.068,35.355,35.355,0,0,0-12.293-7.83,44.67,44.67,0,0,0-16.184-2.765q-11.853,0-20.43,4.606a35.534,35.534,0,0,0-13.62,12.714,48.788,48.788,0,0,0-6.633,18.794l12.382,7.739q1.235-13.633,8.49-21.834t19.281-8.2q11.5,0,18.13,6.726t6.632,17.6a41.281,41.281,0,0,1-3.007,15.569,58.787,58.787,0,0,1-10.082,15.754,176.01,176.01,0,0,1-18.837,18.425q-11.766,10.135-29.274,23.584v8.469h-33.86a34.75,34.75,0,0,0,12.9-12.338,35.8,35.8,0,0,0,5.042-18.978,29.058,29.058,0,0,0-1.681-9.857,26.252,26.252,0,0,0-4.864-8.384,24.034,24.034,0,0,0-7.7-5.9,25.067,25.067,0,0,0-10.347-2.394v-.369a23.865,23.865,0,0,0,8.313-3.04,25.776,25.776,0,0,0,6.987-6.172,29.6,29.6,0,0,0,4.864-9.121,37.16,37.16,0,0,0,1.769-11.884,32.147,32.147,0,0,0-3.98-15.846A29.122,29.122,0,0,0,100.5,205.937q-7.961-4.328-20.165-4.331a46.219,46.219,0,0,0-17.776,3.317,39.669,39.669,0,0,0-13.708,9.213,38.578,38.578,0,0,0-8.491,13.634L53.806,234.4A34.069,34.069,0,0,1,63,220.677q5.838-5.067,16.98-5.068,10.436,0,16.1,4.975t5.66,14.556q0,11.241-5.483,16.491t-18.4,5.251H75.12a26.649,26.649,0,0,1-3.095-.185v14.741a44.88,44.88,0,0,1,4.776-.46q2.3-.092,4.245-.093,8.311,0,13.443,2.119a14.468,14.468,0,0,1,7.517,6.541A23.065,23.065,0,0,1,104.4,290.6a23.609,23.609,0,0,1-2.831,11.7,20.455,20.455,0,0,1-8.136,8.014,26.622,26.622,0,0,1-13.09,2.949q-9.2,0-15.3-2.764a24.36,24.36,0,0,1-9.817-7.831,40.046,40.046,0,0,1-5.837-11.884l-14.151,7.555a37.875,37.875,0,0,0,16.185,21.1c1.306.836,2.647,1.6,4.018,2.3H18.425V18.425H321.732Z"/>
      </g>
    </g>
</svg>
