<svg xmlns="http://www.w3.org/2000/svg" width="120mm" height="120mm" viewBox="0 0 340.158 340.158">
  <g id="Zimmernummer">
      <g id="Z-04-504-R">
        <path fill="#A0552B" stroke="none" d="M337.323,0H2.835A2.836,2.836,0,0,0,0,2.835V337.323a2.836,2.836,0,0,0,2.835,2.835H337.323a2.836,2.836,0,0,0,2.835-2.835V2.835A2.836,2.836,0,0,0,337.323,0ZM138.267,291.521q-3.274-11.055-3.271-27.084t3.271-27.086Q141.539,226.3,148,220.677a25.107,25.107,0,0,1,31.662,0q6.455,5.622,9.728,16.674t3.273,27.086q0,16.029-3.273,27.084T179.658,308.2a25.111,25.111,0,0,1-31.662,0Q141.537,302.577,138.267,291.521ZM270.309,280.65H228.388l30.6-44.773q2.828-4.236,6.19-9.949t5.484-10.319h.353q-.177,4.794-.442,9.766t-.265,9.765Zm51.423,41.082H284.459V293.363h20.7V280.65h-20.7V203.633H266.594l-53.241,78.86v10.87h56.956v28.369H184.15a39.856,39.856,0,0,0,11.428-10.68q11.76-16.031,11.762-46.615T195.578,217.82q-11.766-16.029-31.751-16.03-19.812,0-31.661,16.03t-11.852,46.617q0,30.585,11.852,46.615a40.307,40.307,0,0,0,11.451,10.68h-48A35.2,35.2,0,0,0,111.472,303.5a45.5,45.5,0,0,0,3.008-16.951,44.133,44.133,0,0,0-4.6-20.636,33.62,33.62,0,0,0-12.824-13.726A37.245,37.245,0,0,0,77.688,247.3a41.055,41.055,0,0,0-15.831,2.763,30.472,30.472,0,0,0-10.878,7.371h-.354l.354-1.659,4.6-38.324h53.6V203.633H43.55l-6.9,66.884,12.381,2.395a24.107,24.107,0,0,1,6.721-6.817,27.712,27.712,0,0,1,8.756-3.778,44,44,0,0,1,10.525-1.2,28.114,28.114,0,0,1,13.443,2.948,19.719,19.719,0,0,1,8.4,8.752q2.92,5.8,2.919,14.464a28.521,28.521,0,0,1-3.183,13.911,22.042,22.042,0,0,1-8.933,8.937A28.637,28.637,0,0,1,73.8,313.263q-11.5,0-17.422-5.989a36.184,36.184,0,0,1-8.755-15.569l-13.8,7.555q5.127,13.085,14.593,20.452a30.292,30.292,0,0,0,2.95,2.02H18.425V18.425H321.732Z"/>
      </g>
    </g>
</svg>
