<svg xmlns="http://www.w3.org/2000/svg" width="120mm" height="120mm" viewBox="0 0 340.158 340.157">
  <g id="Zimmernummer">
      <g id="Z-04-406">
        <path fill="#000000" stroke="none" d="M337.323,0H2.835A2.836,2.836,0,0,0,0,2.835V337.323a2.834,2.834,0,0,0,2.835,2.834H337.323a2.834,2.834,0,0,0,2.835-2.834V2.835A2.836,2.836,0,0,0,337.323,0ZM86,280.65H44.08l30.6-44.773q2.827-4.236,6.191-9.949t5.483-10.319h.354q-.178,4.794-.442,9.766T86,235.14Zm56.867,10.871q-3.276-11.055-3.273-27.084t3.273-27.086q3.27-11.055,9.728-16.674a25.107,25.107,0,0,1,31.662,0q6.454,5.622,9.729,16.674t3.271,27.086q0,16.029-3.271,27.084T184.257,308.2a25.111,25.111,0,0,1-31.662,0Q146.138,302.577,142.867,291.521Zm98.964,8.752a25.072,25.072,0,0,1-3.361-12.805,25.913,25.913,0,0,1,3.184-12.99,22.971,22.971,0,0,1,8.932-8.844,26.856,26.856,0,0,1,13.355-3.225,28.849,28.849,0,0,1,13.8,3.04,20.779,20.779,0,0,1,8.667,8.66,27.95,27.95,0,0,1,3.008,13.359q0,11.979-6.722,18.7t-18.75,6.726a24.988,24.988,0,0,1-22.11-12.622Zm79.9,21.459H286.394a33.846,33.846,0,0,0,12.924-13.168,42.463,42.463,0,0,0,4.952-20.913q0-12.159-4.864-21A33.633,33.633,0,0,0,285.7,253.013a42.81,42.81,0,0,0-20.7-4.791,39.5,39.5,0,0,0-13,2.3,33.075,33.075,0,0,0-11.85,7.186,25.307,25.307,0,0,0-7.164,12.806h-.707V267.2a95.657,95.657,0,0,1,2.034-20.267,55.94,55.94,0,0,1,6.1-16.4,32.977,32.977,0,0,1,9.906-10.964,23.374,23.374,0,0,1,13.442-3.961q10.435,0,16.361,4.883a27.4,27.4,0,0,1,8.58,13.359l13.088-6.45a46.915,46.915,0,0,0-8.667-14.647,31.413,31.413,0,0,0-12.116-8.292,45.757,45.757,0,0,0-16.361-2.672,39.824,39.824,0,0,0-23.26,7.187q-10.347,7.185-16.362,21.1t-6.014,34.364q0,18.24,5.13,32.335t15.212,22.2a35.524,35.524,0,0,0,3.945,2.757H188.75a39.85,39.85,0,0,0,11.426-10.68q11.762-16.031,11.763-46.615T200.176,217.82q-11.764-16.029-31.75-16.03-19.812,0-31.662,16.03t-11.85,46.617q0,30.585,11.85,46.615a40.323,40.323,0,0,0,11.452,10.68H100.151V293.363h20.7V280.65h-20.7V203.633H82.286l-53.242,78.86v10.87H86v28.369H18.425V18.425H321.732Z"/>
      </g>
    </g>
</svg>
