<svg xmlns="http://www.w3.org/2000/svg" width="120mm" height="120mm" viewBox="0 0 340.158 340.157">
  <g id="Zimmernummer">
      <g id="Z-04-126-M">
        <path fill="#D4AF37" stroke="none" d="M337.323,0H2.835A2.836,2.836,0,0,0,0,2.835V337.323a2.834,2.834,0,0,0,2.835,2.834H337.323a2.834,2.834,0,0,0,2.835-2.834V2.835A2.836,2.836,0,0,0,337.323,0ZM225.914,300.273a25.072,25.072,0,0,1-3.361-12.805,25.9,25.9,0,0,1,3.184-12.99,22.964,22.964,0,0,1,8.932-8.844,26.856,26.856,0,0,1,13.355-3.225,28.852,28.852,0,0,1,13.8,3.04,20.784,20.784,0,0,1,8.667,8.66,27.95,27.95,0,0,1,3.007,13.359q0,11.979-6.722,18.7T248.024,312.9a24.988,24.988,0,0,1-22.11-12.622Zm95.818,21.459H270.477A33.844,33.844,0,0,0,283.4,308.564a42.463,42.463,0,0,0,4.953-20.913q0-12.159-4.864-21a33.635,33.635,0,0,0-13.709-13.634,42.8,42.8,0,0,0-20.695-4.791,39.5,39.5,0,0,0-13,2.3,33.088,33.088,0,0,0-11.851,7.186,25.313,25.313,0,0,0-7.163,12.806h-.708V267.2a95.657,95.657,0,0,1,2.034-20.267,55.969,55.969,0,0,1,6.1-16.4A32.985,32.985,0,0,1,234.4,219.57a23.377,23.377,0,0,1,13.443-3.961q10.436,0,16.361,4.883a27.407,27.407,0,0,1,8.58,13.359l13.089-6.45a46.935,46.935,0,0,0-8.668-14.647,31.42,31.42,0,0,0-12.116-8.292,45.762,45.762,0,0,0-16.362-2.672,39.82,39.82,0,0,0-23.259,7.187q-10.349,7.185-16.362,21.1T203.1,264.437q0,18.24,5.13,32.335t15.211,22.2a35.629,35.629,0,0,0,3.946,2.757H188.947V311.42h-40.86q-1.77,0-5.218.093t-6.9.183q-3.45.1-5.4.277v-.184q20.87-14.553,33.077-26.532t17.511-22.94a50.848,50.848,0,0,0,5.306-22.386,42.144,42.144,0,0,0-2.741-15.478,34.408,34.408,0,0,0-7.872-12.068,35.364,35.364,0,0,0-12.293-7.83,44.672,44.672,0,0,0-16.185-2.765q-11.851,0-20.429,4.606a35.527,35.527,0,0,0-13.62,12.714A48.788,48.788,0,0,0,106.7,237.9l12.382,7.739q1.235-13.633,8.49-21.834t19.28-8.2q11.5,0,18.13,6.726t6.633,17.6a41.281,41.281,0,0,1-3.007,15.569,58.812,58.812,0,0,1-10.082,15.754,176.031,176.031,0,0,1-18.838,18.425q-11.764,10.135-29.274,23.584v8.469H88.124v-118.1H75.743a36.712,36.712,0,0,1-7.076,7.185,88.619,88.619,0,0,1-9.994,6.911,90.58,90.58,0,0,1-10.259,5.342,29.787,29.787,0,0,1-8.048,2.488l3.715,13.451a63.322,63.322,0,0,0,16.273-6.541,63.753,63.753,0,0,0,13.974-10.595q-.18,3.869-.266,7.462t-.088,6.726v85.67H18.425V18.425H321.732Z"/>
      </g>
    </g>
</svg>
