<svg xmlns="http://www.w3.org/2000/svg" width="120mm" height="120mm" viewBox="0 0 340.158 340.157">
  <g id="Zimmernummer">
      <g id="Z-04-246-M">
        <path fill="#D4AF37" stroke="none" d="M337.323,0H2.835A2.836,2.836,0,0,0,0,2.835V337.323a2.834,2.834,0,0,0,2.835,2.834H337.323a2.834,2.834,0,0,0,2.835-2.834V2.835A2.836,2.836,0,0,0,337.323,0ZM172.235,280.65H130.314l30.6-44.773q2.828-4.236,6.191-9.949t5.483-10.319h.354q-.179,4.794-.442,9.766t-.266,9.765ZM237.5,300.273a25.081,25.081,0,0,1-3.36-12.805,25.9,25.9,0,0,1,3.184-12.99,22.964,22.964,0,0,1,8.932-8.844,26.853,26.853,0,0,1,13.355-3.225,28.852,28.852,0,0,1,13.8,3.04,20.784,20.784,0,0,1,8.667,8.66,27.95,27.95,0,0,1,3.007,13.359q0,11.979-6.722,18.7T259.614,312.9A24.992,24.992,0,0,1,237.5,300.273Zm84.229,21.459H282.066a33.846,33.846,0,0,0,12.924-13.168,42.463,42.463,0,0,0,4.953-20.913q0-12.159-4.864-21a33.641,33.641,0,0,0-13.709-13.634,42.806,42.806,0,0,0-20.695-4.791,39.5,39.5,0,0,0-13,2.3,33.079,33.079,0,0,0-11.851,7.186,25.313,25.313,0,0,0-7.163,12.806h-.708V267.2a95.657,95.657,0,0,1,2.034-20.267,56,56,0,0,1,6.1-16.4,33,33,0,0,1,9.906-10.964,23.377,23.377,0,0,1,13.443-3.961q10.435,0,16.361,4.883a27.405,27.405,0,0,1,8.579,13.359l13.089-6.45a46.934,46.934,0,0,0-8.667-14.647,31.42,31.42,0,0,0-12.116-8.292,45.766,45.766,0,0,0-16.362-2.672,39.818,39.818,0,0,0-23.259,7.187q-10.349,7.185-16.362,21.1t-6.014,34.364q0,18.24,5.129,32.335t15.212,22.2a35.618,35.618,0,0,0,3.945,2.757H186.386V293.363h20.695V280.65H186.386V203.633H168.521l-53.242,78.86v10.87h56.956v28.369H117.227V311.42H76.367q-1.77,0-5.218.093t-6.9.183q-3.448.1-5.4.277v-.184q20.871-14.553,33.078-26.532t17.511-22.94a50.861,50.861,0,0,0,5.306-22.386,42.144,42.144,0,0,0-2.742-15.478,34.392,34.392,0,0,0-7.871-12.068,35.364,35.364,0,0,0-12.293-7.83,44.679,44.679,0,0,0-16.185-2.765q-11.852,0-20.43,4.606a35.534,35.534,0,0,0-13.62,12.714A48.8,48.8,0,0,0,34.977,237.9l12.381,7.739q1.236-13.633,8.491-21.834t19.279-8.2q11.5,0,18.131,6.726t6.633,17.6A41.281,41.281,0,0,1,96.885,255.5,58.837,58.837,0,0,1,86.8,271.254a176.031,176.031,0,0,1-18.838,18.425Q56.2,299.814,38.691,313.263v8.469H18.425V18.425H321.732Z"/>
      </g>
    </g>
</svg>
