<svg xmlns="http://www.w3.org/2000/svg" width="49.485mm" height="70.005mm" viewBox="0 0 140.272 198.44">
  <g id="Zimmernummer">
      <g id="Z-20-09-R">
        <path fill="#A0552B" stroke="none" d="M139.49,80.875c-1.147-11.869-2.973-23.788-7.175-35C125.885,28.024,112.833,11.9,94.943,4.721,86.043,1.211,76.409.015,66.889.008A64.955,64.955,0,0,0,4.8,42.45C-4.91,68.771-.5,103.444,23.7,120.433a60.439,60.439,0,0,0,41.626,11.381c11.729-.953,23.383-5.6,31.318-14.5a2.834,2.834,0,0,1,4.895,2.275c-1.226,9.9-3.077,19.707-7.358,28.764-4,8.261-10.04,16.659-19.052,19.74-7.374,2.333-16.061,2.028-22.542-2.516a32.258,32.258,0,0,1-11.953-17.7,2.836,2.836,0,0,0-2.735-2.113H6.6a2.838,2.838,0,0,0-2.8,3.319A75.29,75.29,0,0,0,5.94,158c6.558,21.812,24.777,36.471,47.177,39.54,13.042,1.841,26.763,1.048,39.038-3.984,12.841-5.474,23.517-15.478,30.96-27.188C138.813,141.1,142.036,109.99,139.49,80.875ZM98.33,74.439c-1.363,10.444-6.913,20.906-16.7,25.6-10.115,4.725-23.378,3.9-31.736-3.935-10.949-10.216-13.337-28.16-9.2-42.055,3.423-12.014,14.319-22.418,27.294-22.107C90.055,31.682,101.552,54.749,98.33,74.439Z"/>
      </g>
    </g>
</svg>
