<svg xmlns="http://www.w3.org/2000/svg" width="50.379mm" height="70.024mm" viewBox="0 0 142.806 198.492">
  <g id="Zimmernummer">
    <g id="Z-20-02-R">
      <path fill="#A0552B" stroke="none"  d="M8.3,47.728c5.527-18.263,17.945-34.1,35.712-41.686C72.327-5.9,110.374-.383,129.819,24.765,142.027,40.3,144.367,61.816,139.09,80.5c-3.944,12.828-12.59,23.7-22.807,32.19-12.3,10.112-26.374,17.785-39.225,27.149-8.206,5.907-16.268,12.183-22.645,20.1a2.841,2.841,0,0,0,2.186,4.651h83.372a2.834,2.834,0,0,1,2.835,2.834v28.236a2.834,2.834,0,0,1-2.835,2.834H2.837A2.846,2.846,0,0,1,0,195.556a78.9,78.9,0,0,1,4.824-26.522c6.239-16.651,18.667-30.126,32.793-40.574,9.945-7.344,20.03-14.5,30.3-21.391,4.7-3.16,9.61-6,14.08-9.489,7.182-5.443,13.516-12.149,17.572-20.26a36.489,36.489,0,0,0,2.169-19.907C99.32,39.772,81.954,30.846,65.442,34.887c-12.576,3.272-19.474,16.16-21.71,28.126a83.511,83.511,0,0,0-1.481,12.97,2.828,2.828,0,0,1-2.827,2.732H7.188a2.848,2.848,0,0,1-2.836-2.852A92.568,92.568,0,0,1,8.3,47.728"/>
    </g>
  </g>
</svg>
