<svg xmlns="http://www.w3.org/2000/svg" width="31.38mm" height="70mm" viewBox="0 0 88.95 198.425">
  <g id="Zimmernummer">
    <g id="Z-20-01">
      <path fill="#000000" stroke="none" d="M55.974,8.957A54.1,54.1,0,0,0,57.72,2.272,2.818,2.818,0,0,1,60.492,0H86.115A2.835,2.835,0,0,1,88.95,2.835V195.591a2.834,2.834,0,0,1-2.835,2.834H53.02a2.834,2.834,0,0,1-2.834-2.834V69.973a2.835,2.835,0,0,0-2.835-2.835H2.835A2.835,2.835,0,0,1,0,64.3V42.271a2.822,2.822,0,0,1,2.8-2.832q3.831,0,7.653-.3a90.543,90.543,0,0,0,9.814-1.3C36,35.129,51.124,24.646,55.974,8.957Z"/>
    </g>
    </g>
</svg>
