<svg xmlns="http://www.w3.org/2000/svg" width="49.47mm" height="70.001mm" viewBox="0 0 140.231 198.427">
  <g id="Zimmernummer">
    <g id="Z-20-00-E">
      <path fill="#A09f9d" stroke="none" d="M139.954,85.805C138.587,54.8,128.7,17.433,97.01,4.915A76.986,76.986,0,0,0,55.9,1.266C14.923,8.007,1.936,49.334.3,85.8c-1.024,25.9.113,52.945,11.3,76.774,6.3,13.6,17.183,25.522,31.37,30.943A76.668,76.668,0,0,0,84.08,197.15a57.507,57.507,0,0,0,35.31-20.013C139.439,152.238,141.107,116.494,139.954,85.805ZM101.4,106.669c-.543,17.971-1.154,37.937-13.125,52.455-6.693,8.055-18.93,9.322-28.348,5.917-6.325-2.4-10.4-8.248-13.362-14.062-6.665-13.671-7.327-29.235-7.714-44.177-.2-13.941-.418-28.024,2.067-41.795,2.064-11.031,5.876-23.031,15.7-29.523,5.879-3.844,13.482-4.266,20.192-2.749,6.557,1.585,11.906,6.416,15.426,12.028,3.857,6.1,5.59,13.2,6.888,20.22C101.781,78.7,101.64,92.751,101.4,106.669Z"/>
    </g>
  </g>
</svg>
