<svg xmlns="http://www.w3.org/2000/svg" width="47.8mm" height="70mm" viewBox="0 0 135.496 198.425">
  <g id="Zimmernummer">
    <g id="Z-20-07-E" >
      <path fill="#A09f9d" stroke="none" d="M107.858,68.032C87.613,101.519,76.238,139.942,71.8,178.68q-.924,8.462-1.157,16.977a2.832,2.832,0,0,1-2.826,2.768H30.581a2.839,2.839,0,0,1-2.833-3.074,272.315,272.315,0,0,1,6.679-40.568C44.454,113.675,64.183,75.134,90.392,42.005a2.829,2.829,0,0,0-2.218-4.588H2.835A2.834,2.834,0,0,1,0,34.583V2.835A2.835,2.835,0,0,1,2.835,0H132.661A2.835,2.835,0,0,1,135.5,2.835V33.314a2.823,2.823,0,0,1-.952,2.108,142.9,142.9,0,0,0-26.686,32.61"/>
    </g>
  </g>
</svg>
