<svg xmlns="http://www.w3.org/2000/svg" width="49.485mm" height="70.005mm" viewBox="0 0 140.272 198.44">
  <g id="Zimmernummer">
      <g id="Z-20-06-R">
        <path fill="#A0552B" stroke="none" d="M.782,117.566c1.147,11.868,2.973,23.787,7.175,35,6.43,17.853,19.482,33.978,37.372,41.157,8.9,3.509,18.534,4.705,28.054,4.713a64.956,64.956,0,0,0,62.092-42.442c9.707-26.322,5.3-61-18.9-77.983A60.429,60.429,0,0,0,74.944,66.627c-11.729.952-23.384,5.6-31.318,14.5a2.834,2.834,0,0,1-4.895-2.276c1.225-9.9,3.077-19.707,7.357-28.764,4.005-8.26,10.04-16.659,19.053-19.739,7.374-2.334,16.061-2.029,22.542,2.516a32.257,32.257,0,0,1,11.953,17.7,2.836,2.836,0,0,0,2.734,2.112h31.3a2.838,2.838,0,0,0,2.8-3.319,75.29,75.29,0,0,0-2.136-8.92C127.774,18.634,109.555,3.975,87.155.906,74.113-.935,60.392-.142,48.117,4.89,35.275,10.363,24.6,20.368,17.157,32.077,1.459,57.34-1.765,88.45.782,117.566ZM41.942,124c1.363-10.445,6.912-20.907,16.7-25.6,10.115-4.725,23.378-3.9,31.736,3.935,10.948,10.217,13.337,28.16,9.2,42.055C96.161,156.405,85.265,166.809,72.29,166.5,50.217,166.759,38.719,143.691,41.942,124Z"/>
      </g>
    </g>
</svg>
