<svg xmlns="http://www.w3.org/2000/svg" width="51.013mm" height="70.023mm" viewBox="0 0 144.603 198.492">
  <g id="Zimmernummer">
    <g id="Z-20-05-R">
      <path fill="#A0552B" stroke="none" d="M131.188,32.559a2.835,2.835,0,0,0,2.834-2.835V2.835A2.834,2.834,0,0,0,131.188,0H27.589A2.835,2.835,0,0,0,24.8,2.337L6.608,104.361A2.836,2.836,0,0,0,9.4,107.694H40.22a2.853,2.853,0,0,0,2.259-1.134,52.287,52.287,0,0,1,5.625-6.237c8.091-7.988,20.434-9.409,31.2-7.447,32.3,6.7,34.1,56.36,6.162,70.056-6.241,3.209-13.549,3.774-20.407,2.706a29.962,29.962,0,0,1-24.509-22.423c-.808-2.3-.27-6.23-3.614-6.3H2.842a2.84,2.84,0,0,0-2.837,3,66.651,66.651,0,0,0,1.46,10.805c4.629,21.694,22.655,38.134,43.647,43.941,17.82,4.91,37.533,5.69,54.96-1.113,26.28-9.941,44.942-36.807,44.524-64.978.173-27.5-13.157-54.248-40.431-63.3C87.484,60.1,66.157,61.146,52.1,72.338a2.83,2.83,0,0,1-4.487-2.726l5.6-34.671a2.834,2.834,0,0,1,2.8-2.382Z"/>
    </g>
  </g>
</svg>
