<svg xmlns="http://www.w3.org/2000/svg" width="50.107mm" height="70.024mm" viewBox="0 0 142.037 198.494">
  <g id="Zimmernummer">
      <g id="Z-20-03-E">
        <path fill="#A09f9d" stroke="none" d="M70.7,81.084c17.228-1.509,30.284-10.678,26.782-29.506C95,36.576,77.813,29.666,64.112,32.555A25.387,25.387,0,0,0,45.357,47.019a36.7,36.7,0,0,0-3.527,12.11q-.243,2.093-.316,4.2a2.83,2.83,0,0,1-2.826,2.745H7.642A2.846,2.846,0,0,1,4.809,63.02c.837-12.4,4.207-24.778,11-35.27C32.011,1.95,65.758-5.08,93.623,3.434c25.151,7.438,44.676,28.883,40.8,56.255-1.571,12.77-8.127,24.05-19.132,29.8a2.832,2.832,0,0,0,.287,5.136c23.876,9.841,31.641,37.417,23.1,61.849a58.678,58.678,0,0,1-18.309,25.867c-21.645,17.221-52.978,20.029-78.742,11.464-22.367-7.529-37.307-26.5-40.678-49.7A86.857,86.857,0,0,1,0,132a2.839,2.839,0,0,1,2.838-2.877H34.185a2.823,2.823,0,0,1,2.817,2.6c.729,8.533,3.123,17.261,8.584,24.015,15.206,19,51.164,12.9,55.389-12.4,1.1-7.145.813-14.875-2.479-21.435a24.669,24.669,0,0,0-11.969-10.112c-8.353-3.416-17.524-3.179-26.389-3.4a2.835,2.835,0,0,1-2.815-2.831V84.106a2.825,2.825,0,0,1,2.958-2.824q1.658.076,3.317.076,3.553,0,7.1-.274"/>
    </g>
  </g>
</svg>
