<svg xmlns="http://www.w3.org/2000/svg" width="51.905mm" height="70mm" viewBox="0 0 147.134 198.425">
  <g id="Zimmernummer">
      <g id="Z-20-04">
        <path fill="#000000" stroke="none" d="M119.485,116.5V2.835A2.835,2.835,0,0,0,116.65,0H87.6a2.835,2.835,0,0,0-2.273,1.141L.562,114.9A2.831,2.831,0,0,0,0,116.594v31.841a2.835,2.835,0,0,0,2.835,2.835H79.669A2.835,2.835,0,0,1,82.5,154.1v41.486a2.834,2.834,0,0,0,2.834,2.834H116.65a2.834,2.834,0,0,0,2.835-2.834V154.1a2.835,2.835,0,0,1,2.835-2.835H144.3a2.835,2.835,0,0,0,2.835-2.835V122.173a2.835,2.835,0,0,0-2.835-2.834H122.32A2.835,2.835,0,0,1,119.485,116.5Zm-39.816,2.835H35.992a2.835,2.835,0,0,1-2.273-4.528L77.4,56.171A2.835,2.835,0,0,1,82.5,57.865V116.5A2.835,2.835,0,0,1,79.669,119.339Z"/>
      </g>
    </g>
</svg>
