<svg xmlns="http://www.w3.org/2000/svg" width="50.874mm" height="70.006mm" viewBox="0 0 144.211 198.442">
  <g id="Zimmernummer">
      <g id="Z-20-08">
        <path fill="#000000" stroke="none" d="M143.587,130.107c-2.029-16.569-12.787-30.992-28.8-36.32a2.649,2.649,0,0,1-.246-4.842,39.735,39.735,0,0,0,5.633-3.342,35.384,35.384,0,0,0,9.107-9.437,44.719,44.719,0,0,0,6.959-25.006,48.793,48.793,0,0,0-14.056-32.447C111.244,7.7,96.005,1.351,80.591.332c-25.06-2.181-53.738,6.244-66.9,29.162C3.543,47.322,6.511,74.153,24.207,86.161A36.525,36.525,0,0,0,29.62,89.15a2.651,2.651,0,0,1-.217,4.837,49.893,49.893,0,0,0-8.1,3.857C4.228,107.891-1.711,127.4.413,146.281c1.536,19.578,15.284,36.36,32.9,44.26,12.256,5.664,25.9,7.825,39.333,7.9C112.828,198.458,149.471,174.037,143.587,130.107ZM43.812,49.284C46.277,36.3,59.975,29.058,72.374,29.221c7.02-.058,14.265,1.384,19.785,5.97,8.906,7.1,10.879,20.566,7.02,30.865-3.4,8.421-12.343,13.2-21,14.358-10.787,1.522-22.977-1.23-30.25-9.794C43.107,64.748,42.4,56.521,43.812,49.284Zm60.939,95c-4.262,23.434-32.008,31.635-51.14,20.047-13.276-7.905-18.161-25.675-12.578-39.76,4.037-9.981,14.54-15.868,24.829-17.349C88.976,103.391,109.471,120.138,104.751,144.279Z"/>
      </g>
    </g>
</svg>
