<svg xmlns="http://www.w3.org/2000/svg" width="48.742mm" height="80mm" viewBox="0 0 138.165 226.772">
  <g id="Zimmernummer">
      <g id="Z-21-00-E">
        <path fill="#A09f9d" stroke="none" d="M132.894,42.79A69.3,69.3,0,0,0,68.921,0,68.4,68.4,0,0,0,42.568,5.281,69.338,69.338,0,0,0,0,69.245v88.282a69.3,69.3,0,0,0,42.572,63.965,68.7,68.7,0,0,0,52.8.009,69.3,69.3,0,0,0,42.789-63.974V69.245A69.018,69.018,0,0,0,132.894,42.79Zm-26.18,114.737A37.793,37.793,0,0,1,68.921,195.32,37.246,37.246,0,0,1,42.472,184.3a38.024,38.024,0,0,1-11.021-26.771V69.245A38.028,38.028,0,0,1,42.472,42.473,37.245,37.245,0,0,1,68.921,31.452a37.792,37.792,0,0,1,37.793,37.793Z"/>
      </g>
    </g>
</svg>
