<svg xmlns="http://www.w3.org/2000/svg" width="49.256mm" height="80mm" viewBox="0 0 139.623 226.772">
  <g id="Zimmernummer">
      <g id="Z-21-06-M">
        <path fill="#D4AF37" stroke="none" d="M134.332,130.084A69.992,69.992,0,0,0,96.6,92.156a69.126,69.126,0,0,0-26.627-5.335q-1.668,0-3.335.086-1.694.087-3.38.259L99.569,19.39l.09-.175a14.373,14.373,0,0,0,1.119-3.054,13.09,13.09,0,0,0,.368-3.079,13.32,13.32,0,0,0-3.783-9.3A12.528,12.528,0,0,0,88.392,0h-5.92A13.118,13.118,0,0,0,75.99,1.714a13.281,13.281,0,0,0-4.827,4.715l-.109.183L8.487,123.182l-.048.095A78.162,78.162,0,0,0,2.07,140.094,68.422,68.422,0,0,0,0,156.8v.73a69.282,69.282,0,0,0,5.517,26.429A70.46,70.46,0,0,0,43.484,221.52a69.861,69.861,0,0,0,90.848-91.436Zm-28.753,41.481a39.349,39.349,0,0,1-21.056,21.173,37.485,37.485,0,0,1-14.547,2.937,29.811,29.811,0,0,1-7.008-.835,37.807,37.807,0,0,1-7.486-2.672,42.164,42.164,0,0,1-6.286-3.723,47.085,47.085,0,0,1-10.872-10.873,42.244,42.244,0,0,1-3.722-6.286,37.779,37.779,0,0,1-2.669-7.484,29.792,29.792,0,0,1-.835-7v0a38.878,38.878,0,0,1,38.878-38.878,37.485,37.485,0,0,1,14.547,2.937,39.349,39.349,0,0,1,21.056,21.173A38.475,38.475,0,0,1,105.579,171.565Z"/>
      </g>
    </g>
</svg>
