<svg xmlns="http://www.w3.org/2000/svg" width="47.972mm" height="79.998mm" viewBox="0 0 135.983 226.765">
  <g id="Zimmernummer">
      <g id="Z-21-04-E">
        <path fill="#A09f9d" stroke="none" d="M134.985,160.318A12.745,12.745,0,0,0,128,153.33a13.45,13.45,0,0,0-5.084-1h-7.3V13.622a14.56,14.56,0,0,0-.674-4.381,13.461,13.461,0,0,0-1.91-3.812,13.049,13.049,0,0,0-7-4.933,12.779,12.779,0,0,0-4.261-.475A12.391,12.391,0,0,0,97.66.98a12.957,12.957,0,0,0-3.47,2.173,15.087,15.087,0,0,0-2.865,3.362l-.107.172L6.435,156.209l-4.552,7.8a13.187,13.187,0,0,0-.177,13.278,12.591,12.591,0,0,0,4.661,4.7,12.979,12.979,0,0,0,6.489,1.739H84.218V213.7a13.45,13.45,0,0,0,1,5.084,12.743,12.743,0,0,0,6.99,6.988,13.445,13.445,0,0,0,5.083,1h5.255a13.474,13.474,0,0,0,5.085-1,12.747,12.747,0,0,0,6.989-6.989,13.441,13.441,0,0,0,1-5.083V183.728h7.3a13.465,13.465,0,0,0,5.084-1,12.751,12.751,0,0,0,6.99-6.989,13.468,13.468,0,0,0,1-5.083V165.4A13.451,13.451,0,0,0,134.985,160.318Zm-50.767-7.985H44.378l39.84-69.828Z"/>
      </g>
    </g>
</svg>
