<svg xmlns="http://www.w3.org/2000/svg" width="49.639mm" height="79.977mm" viewBox="0 0 140.709 226.707">
  <g id="Zimmernummer">
      <g id="Z-21-02-R">
        <path fill="#A0552B" stroke="none" d="M100.62,89.019C78.431,116.74,55.331,143.725,32.5,170.92Q21.155,184.357,9.779,197.77l-6.356,7.363c-4.309,4.685-4.672,12.465-.39,17.287a12.548,12.548,0,0,0,9.565,4.286H127.59A13.011,13.011,0,0,0,139.7,218.7c1.455-2.8.875-7.333,1-10.369a13.068,13.068,0,0,0-13.106-13.1H53.061c18.241-21.305,36.411-42.674,54.184-64.372,5.893-7.257,11.812-14.5,17.415-21.984a89.1,89.1,0,0,0,9.15-14.98c9.771-20.323,7.485-45.4-5.48-63.8C104.259-5.429,45.326-11.73,18,23.221A83.508,83.508,0,0,0,1.554,59.079a68.277,68.277,0,0,0-1.4,13.17,13.345,13.345,0,0,0,3.789,9.315,12.549,12.549,0,0,0,8.986,3.79c3.126-.048,7.42.335,10.32-.927a12.516,12.516,0,0,0,7.035-6.635c1.319-2.709.882-5.743,1.222-8.64a51.987,51.987,0,0,1,2.908-12.307c2.713-7.12,6.687-14.114,12.677-18.965,9.033-6.985,21.464-8.157,32.3-5.41C105.868,39.021,118.13,66.74,100.62,89.019Z"/>
      </g>
    </g>
</svg>
