<svg xmlns="http://www.w3.org/2000/svg" width="50.566mm" height="80mm" viewBox="0 0 143.337 226.772">
  <g id="Zimmernummer">
      <g id="Z-21-03-M">
        <path fill="#D4AF37" stroke="none" d="M113.518,96.933a56.477,56.477,0,0,0,6.566-8.528A59.161,59.161,0,0,0,128.1,68.026a57.322,57.322,0,0,0,1.016-10.746,54.091,54.091,0,0,0-1.11-10.9,59.578,59.578,0,0,0-3.4-10.985,60.254,60.254,0,0,0-5.329-9.975,58.5,58.5,0,0,0-7.008-8.667,56.6,56.6,0,0,0-8.7-7.256,54.718,54.718,0,0,0-20.3-8.4A60.352,60.352,0,0,0,71.832,0,51.306,51.306,0,0,0,61.98.955,61.531,61.531,0,0,0,51.573,3.966a63.434,63.434,0,0,0-9.453,4.6,59.857,59.857,0,0,0-8.309,5.951,57.177,57.177,0,0,0-8.423,8.927A54.49,54.49,0,0,0,15.523,45.01a58.837,58.837,0,0,0-1.294,12.27v.647a12.756,12.756,0,0,0,3.847,9.129A13.539,13.539,0,0,0,27.529,70.9h4.849a13.539,13.539,0,0,0,9.453-3.847,12.757,12.757,0,0,0,3.848-9.129V57.28a25.6,25.6,0,0,1,7.612-18.216,26.383,26.383,0,0,1,18.541-7.613A25.854,25.854,0,0,1,90.068,75.6a27.237,27.237,0,0,1-8.359,5.7,26.279,26.279,0,0,1-4.989,1.61,23.148,23.148,0,0,1-4.888.522H63.747a12.518,12.518,0,0,0-4.868.985,13.378,13.378,0,0,0-7.125,7.124,12.525,12.525,0,0,0-.985,4.868v5.174a13.533,13.533,0,0,0,3.848,9.452,12.752,12.752,0,0,0,9.13,3.848h8.085a41.254,41.254,0,0,1,15.582,3.056,39.068,39.068,0,0,1,21.419,21.421,41.266,41.266,0,0,1,3.055,15.58,40.611,40.611,0,0,1-11.779,28.6,39.831,39.831,0,0,1-28.277,11.78,40.382,40.382,0,0,1-40.381-40.38,12.757,12.757,0,0,0-3.848-9.13,13.533,13.533,0,0,0-9.452-3.848H13.3a13.638,13.638,0,0,0-5.169,1.018,12.989,12.989,0,0,0-7.114,7.14A13.884,13.884,0,0,0,0,155.338a73.579,73.579,0,0,0,1.492,14.086,71.325,71.325,0,0,0,10.774,25.632,72.674,72.674,0,0,0,19.931,19.8,70.816,70.816,0,0,0,25.6,10.551,72.788,72.788,0,0,0,14.031,1.366,70.972,70.972,0,0,0,27.341-5.478,71.925,71.925,0,0,0,44.164-66.354,70.935,70.935,0,0,0-7.846-32.427A72.464,72.464,0,0,0,113.518,96.933Z"/>
      </g>
    </g>
</svg>
