<svg xmlns="http://www.w3.org/2000/svg" width="49.294mm" height="80mm" viewBox="0 0 139.732 226.772">
  <g id="Zimmernummer">
      <g id="Z-21-09">
        <path fill="#000000" stroke="none" d="M139.731,69.3a69.335,69.335,0,0,0-5.522-26.45,70.508,70.508,0,0,0-38-37.59A69.973,69.973,0,0,0,20.383,119.47a69.9,69.9,0,0,0,22.67,15.251,69.161,69.161,0,0,0,26.648,5.34q1.6,0,3.2-.079,1.633-.081,3.26-.24L40.021,207.2l-.1.185a14.536,14.536,0,0,0-1.127,3.084,13.217,13.217,0,0,0-.369,3.1,13.444,13.444,0,0,0,3.819,9.387,12.658,12.658,0,0,0,9.061,3.82H57.22a13.237,13.237,0,0,0,6.544-1.73,13.412,13.412,0,0,0,4.873-4.757l.112-.191,62.5-116.437.042-.084a78.062,78.062,0,0,0,6.373-16.825,68.5,68.5,0,0,0,2.073-16.72ZM69.7,108.718A37.3,37.3,0,0,1,55.227,105.8,39.148,39.148,0,0,1,34.274,84.726a38.284,38.284,0,0,1,0-29.392A39.164,39.164,0,0,1,55.229,34.263,37.29,37.29,0,0,1,69.7,31.34a29.635,29.635,0,0,1,6.974.832,37.653,37.653,0,0,1,7.45,2.658,42.049,42.049,0,0,1,6.254,3.7A46.813,46.813,0,0,1,101.2,49.356a41.91,41.91,0,0,1,3.7,6.255,37.623,37.623,0,0,1,2.657,7.447,29.664,29.664,0,0,1,.831,6.972A38.689,38.689,0,0,1,69.7,108.718Z"/>
      </g>
    </g>
</svg>
