<svg xmlns="http://www.w3.org/2000/svg" width="49.861mm" height="80mm" viewBox="0 0 141.338 226.772">
  <g id="Zimmernummer">
      <g id="Z-21-05-E">
        <path fill="#A09f9d" stroke="none" d="M128.2,0H59.828a17.837,17.837,0,0,0-4.67.623,11.684,11.684,0,0,0-3.474,1.59,11.3,11.3,0,0,0-2.841,2.749,15.048,15.048,0,0,0-2.085,4.063l-34.114,111.4a12.89,12.89,0,0,0-.744,6.086,13.779,13.779,0,0,0,2.18,5.954,12.6,12.6,0,0,0,2.1,2.439,12.357,12.357,0,0,0,2.626,1.809,12.771,12.771,0,0,0,2.921,1.074,14.379,14.379,0,0,0,3.275.378,12.2,12.2,0,0,0,3.129-.408,13.487,13.487,0,0,0,3.081-1.241,12.265,12.265,0,0,0,1.5-.988A12.875,12.875,0,0,0,34.1,134.3a14.148,14.148,0,0,0,1.038-1.19q.635-.818,1.2-1.687,1.6-2.476,3.414-4.809a36.036,36.036,0,0,1,2.8-3.2,46.367,46.367,0,0,1,6.405-4.532,32.111,32.111,0,0,1,5.935-2.717,33.919,33.919,0,0,1,6.095-1.46,56.9,56.9,0,0,1,8.091-.579,41.918,41.918,0,0,1,15.835,3.106,39.706,39.706,0,0,1,21.767,21.769,41.923,41.923,0,0,1,0,31.667,39.7,39.7,0,0,1-21.769,21.768,41.921,41.921,0,0,1-15.832,3.1,40.39,40.39,0,0,1-7.2-.647,35.427,35.427,0,0,1-6.515-1.838,35.029,35.029,0,0,1-6.13-3.1,37.7,37.7,0,0,1-5.612-4.369,40.293,40.293,0,0,1-4.575-5.122,43.413,43.413,0,0,1-3.8-6.032q-.834-1.6-1.53-3.277-.649-1.561-1.156-3.178a32.17,32.17,0,0,1-.968-3.955,16.613,16.613,0,0,1-.257-2.91,11.88,11.88,0,0,0-1.048-4.88A11.153,11.153,0,0,0,27.4,152.36a11.453,11.453,0,0,0-3.865-2.194,16.878,16.878,0,0,0-5.33-.863H12.923a13.5,13.5,0,0,0-5.588,1.211,12.234,12.234,0,0,0-4.33,3.3,12.628,12.628,0,0,0-2.568,5.068,14.937,14.937,0,0,0-.211,6.176q.669,4.176,1.534,8.318.548,2.614,1.287,5.183a59.316,59.316,0,0,0,2.5,6.991A43.734,43.734,0,0,0,8.475,191.2,73.347,73.347,0,0,0,19.72,206.1a68.8,68.8,0,0,0,14.224,11.153,68.035,68.035,0,0,0,16.791,7.076,70.18,70.18,0,0,0,18.342,2.44A73.111,73.111,0,0,0,83.668,225.3a70.588,70.588,0,0,0,26.323-11.292,73.441,73.441,0,0,0,20.155-21.148A70.684,70.684,0,0,0,140.155,166a73.49,73.49,0,0,0,.768-14.663,71.659,71.659,0,0,0-1.992-13.7,71.022,71.022,0,0,0-11.512-24.779,73.428,73.428,0,0,0-20.2-18.928A71.149,71.149,0,0,0,81.777,84.05a72.53,72.53,0,0,0-13.822-1.132q-3.142.049-6.271.374-3.174.33-6.31.935l17.1-53H128.2a13.376,13.376,0,0,0,9.337-3.8,12.575,12.575,0,0,0,3.8-9.006V13.135A13.135,13.135,0,0,0,128.2,0Z"/>
      </g>
    </g>
</svg>
