<svg xmlns="http://www.w3.org/2000/svg" width="42.85mm" height="80mm" viewBox="0 0 121.464 226.772">
  <g id="Zimmernummer">
      <g id="Z-21-07-R">
        <path fill="#A0552B" stroke="none" d="M108.889,0H13.244A13.64,13.64,0,0,0,8.092,1.01,12.918,12.918,0,0,0,1.01,8.091,13.639,13.639,0,0,0,0,13.242v5.332a12.68,12.68,0,0,0,3.829,9.079,13.489,13.489,0,0,0,9.415,3.829H80.213L9.563,208.263l-.726,1.821A14.22,14.22,0,0,0,8,216.451a11.448,11.448,0,0,0,1.984,5.412,11.229,11.229,0,0,0,1.936,2.142,11.008,11.008,0,0,0,2.4,1.562,11.7,11.7,0,0,0,2.588.885,14.278,14.278,0,0,0,3,.32H26.24a15.4,15.4,0,0,0,4.39-.639,13.515,13.515,0,0,0,3.753-1.78,14.275,14.275,0,0,0,3.185-2.972,13.461,13.461,0,0,0,2.06-3.7L119.9,18.176q.395-.99.744-2,.21-.606.373-1.227a14.281,14.281,0,0,0,.339-1.727,12.444,12.444,0,0,0,.109-1.649,11.682,11.682,0,0,0-1-4.731A10.8,10.8,0,0,0,117.715,3.1,11.69,11.69,0,0,0,113.868.849,15.026,15.026,0,0,0,108.889,0Z"/>
      </g>
    </g>
</svg>
