<svg xmlns="http://www.w3.org/2000/svg" width="26.966mm" height="79.996mm" viewBox="0 0 76.44 226.761">
  <g id="Zimmernummer">
      <g id="Z-21-01-R">
        <path fill="#A0552B" stroke="none" d="M2.717,63.392,6.48,67.5A12.631,12.631,0,0,0,14.8,72.25a13.556,13.556,0,0,0,9.629-2.413L44.813,53.009V213.957a12.579,12.579,0,0,0,3.8,9.006,13.389,13.389,0,0,0,9.342,3.8H63.3a13.385,13.385,0,0,0,9.341-3.8,12.576,12.576,0,0,0,3.8-9.006V13.066A13.729,13.729,0,0,0,74.418,5.9a12.436,12.436,0,0,0-5.276-4.739A11.975,11.975,0,0,0,62.355.115a13.449,13.449,0,0,0-6.666,2.914L5.031,45.022a12.38,12.38,0,0,0-3.268,3.691,13.115,13.115,0,0,0-1.642,4.8,13.34,13.34,0,0,0,2.354,9.539Z"/>
      </g>
    </g>
</svg>
